<svg xmlns="http://www.w3.org/2000/svg" width="192" height="89.544" viewBox="0 0 192 89.544"><g transform="translate(-794.5 1542.914)"><path d="M1785.258-1542.8a2.736,2.736,0,0,0-1.922,1.543c-.373.875-.344-1.537-.344,29.234,0,25.23.011,27.964.092,28.384a2.789,2.789,0,0,0,2.124,2.387c.436.122.717.122,21.223.122,22.365,0,23.6-.018,27.639-.34a27.713,27.713,0,0,0,7.805-1.47,15.4,15.4,0,0,0,9.641-9.246c2.014-5.036,2.858-12.3,2.583-22.3-.213-7.825-.959-13.244-2.388-17.369a24.157,24.157,0,0,0-1.544-3.378,13.941,13.941,0,0,0-2.606-3.214,15.2,15.2,0,0,0-5.544-2.8,41.891,41.891,0,0,0-10.445-1.488c-3.053-.158-6.124-.182-25.567-.176C1786.917-1542.913,1785.637-1542.9,1785.258-1542.8Z" transform="translate(-926.721)" fill="none"/><path d="M1785.391-1542.8a2.868,2.868,0,0,0-2.035,1.543c-.395.875-.365-1.537-.365,29.234,0,25.23.012,27.964.1,28.384a2.852,2.852,0,0,0,2.248,2.387c.462.122.76.122,22.466.122,23.675,0,24.981-.018,29.258-.34a30.855,30.855,0,0,0,8.262-1.47,15.934,15.934,0,0,0,10.206-9.246c2.132-5.036,3.025-12.3,2.734-22.3-.225-7.825-1.014-13.244-2.527-17.369a23.527,23.527,0,0,0-1.634-3.378,14.13,14.13,0,0,0-2.758-3.214,16.455,16.455,0,0,0-5.869-2.8,46.759,46.759,0,0,0-11.057-1.488c-3.232-.158-6.482-.182-27.065-.176C1787.147-1542.913,1785.792-1542.9,1785.391-1542.8Zm43.985,7.175c3.2.079,4.538.134,4.484.182-.024.024-.826.365-1.768.759s-1.865.8-2.035.905a2.094,2.094,0,0,0-.857,1.094c-.049.17-1.2,7.035-2.557,15.255s-2.485,14.988-2.509,15.042c-.037.079-2.57-1.64-12.661-8.6-6.944-4.787-12.715-8.742-12.831-8.8a2.868,2.868,0,0,0-1.312-.2,33.913,33.913,0,0,0-3.524,1.379c-1.756.741-3.281,1.379-3.384,1.427l-.2.079v-18.59h18.426C1818.775-1535.689,1828.106-1535.659,1829.376-1535.629Zm13.979,1.4a8.838,8.838,0,0,1,5.85,5.735c.978,2.789,1.549,6.914,1.762,12.758.03.765.048,1.4.042,1.409s-1.907-4.5-4.228-10.024-4.222-10.054-4.234-10.085C1842.5-1534.511,1842.62-1534.48,1843.355-1534.225Zm1.258,16.318c4.289,10.212,6.117,14.635,6.117,14.787a34.586,34.586,0,0,1-.79,4.945,11.56,11.56,0,0,1-2.788,5.632,9.588,9.588,0,0,1-3.135,2.236c-1.9.905-3.852,1.318-7.564,1.6-3.755.292-6.713.34-21.087.34-10.133,0-12.746-.018-12.77-.079-.079-.188-10.152-24.161-10.249-24.38l-.109-.255,2.473-1.033c1.355-.571,2.509-1.057,2.563-1.075s4.441,2.959,13.609,9.277c7.43,5.121,13.657,9.4,13.839,9.508,1.026.62,1.908.614,2.509-.018a2.969,2.969,0,0,0,.62-1.185c.042-.182,1.294-7.618,2.776-16.531l2.7-16.2,2.521-1.063c1.385-.583,2.552-1.063,2.588-1.063S1841.253-1525.914,1844.613-1517.907Zm-50.656,20.492c2.029,4.83,3.712,8.84,3.742,8.913l.055.139h-7.533v-8.943c0-4.915.012-8.925.024-8.912S1791.928-1502.245,1793.957-1497.416Z" transform="translate(-928.775)" fill="#ff8200"/><path d="M2764.783-390.421c-4.5.109-6.075.358-7.29,1.148a4.64,4.64,0,0,0-1.987,3.281,23.269,23.269,0,0,0-.346,4.824c-.055,4.429.127,6.045.856,7.545a3.559,3.559,0,0,0,1.281,1.549c1.477.96,3.178,1.154,10.334,1.154,4.137.006,5.747-.085,7.053-.395a6.461,6.461,0,0,0,1.969-.766,2.726,2.726,0,0,0,.978-.93c.971-1.415,1.324-3.8,1.246-8.451-.079-4.781-.633-6.883-2.03-7.788-.942-.6-2.649-.972-5.152-1.106C2770.1-390.445,2766.995-390.476,2764.783-390.421Zm6.731,2.309c2.728.152,3.876.5,4.374,1.361a7.368,7.368,0,0,1,.638,2.8,54.527,54.527,0,0,1,.067,5.492c-.243,4.471-.753,5-5.109,5.237-1.513.085-8.324.036-9.885-.073-2.236-.146-3.141-.559-3.658-1.659-.437-.93-.516-1.792-.522-5.565a20.5,20.5,0,0,1,.334-5.213,2.41,2.41,0,0,1,1.658-1.956,20.217,20.217,0,0,1,4.174-.444C2765.069-388.179,2770.512-388.167,2771.515-388.112Z" transform="translate(-1841.537 -1082.451)" fill="#ff8200"/><path d="M3573.262-390.759c-5.134.115-6.6.438-7.873,1.725-.984.99-1.373,2.211-1.61,5.073a57.853,57.853,0,0,0,.127,7.655c.262,1.981,1.087,3.463,2.278,4.077,1.543.8,3.214.966,10.031.966,5.036.006,6.622-.14,8.165-.735a3.809,3.809,0,0,0,2.461-2.679,17.821,17.821,0,0,0,.62-5.425c.091-5.079-.426-8.031-1.6-9.143-.759-.723-2.357-1.2-4.642-1.4-.753-.067-4.6-.182-5.468-.17Zm8.05,2.388a5.783,5.783,0,0,1,2.661.741c.844.614,1.143,2.011,1.233,5.814a26,26,0,0,1-.4,5.99c-.413,1.482-1.246,1.974-3.73,2.205-1.118.1-9.174.1-10.76-.006-2.716-.182-3.591-.686-4.04-2.327a17.608,17.608,0,0,1-.286-4.216c-.067-5.127.231-6.792,1.336-7.527.614-.407,1.385-.571,3.323-.7,1.573-.1,1.8-.1,5.954-.085C3579.647-388.469,3580.7-388.444,3581.312-388.371Z" transform="translate(-2600.971 -1082.106)" fill="#ff8200"/><path d="M795.2-389.815a.982.982,0,0,0-.6.5c-.1.17-.1.917-.1,9.082,0,8.779,0,8.906.122,9.137a1.2,1.2,0,0,0,.292.365c.17.128.207.128,7.442.146,7.363.018,8.924-.012,10.219-.207a5.662,5.662,0,0,0,4.1-2.3c.954-1.434,1.367-3.542,1.367-6.926,0-5.194-.838-7.855-2.795-8.87-1.112-.577-2.43-.826-5.012-.948C808.534-389.906,795.478-389.894,795.2-389.815Zm15.856,2.3c2.1.158,2.868.413,3.578,1.185a3.565,3.565,0,0,1,.729,1.507,25.917,25.917,0,0,1,.061,9A3.524,3.524,0,0,1,812.039-373a88.124,88.124,0,0,1-8.894.182h-6.367v-14.836l6.7.03C807.531-387.6,810.52-387.561,811.055-387.519Z" transform="translate(0 -1082.984)" fill="#ff8200"/><path d="M1250-380.826v9.174h2.248V-390H1250Z" transform="translate(-427.827 -1082.872)" fill="#ff8200"/><path d="M1361-380.826v9.174h2.248V-390H1361Z" transform="translate(-532.084 -1082.872)" fill="#ff8200"/><path d="M1697-380.826v9.174h2.308V-390H1697Z" transform="translate(-847.671 -1082.872)" fill="#ff8200"/><path d="M1778.047-389.885a1.335,1.335,0,0,0-.4.292c-.146.176-9.805,17.163-9.848,17.314a10.856,10.856,0,0,0,1.9,1.136c.018-.012,2.151-3.754,4.739-8.317l4.7-8.293,1.173.012,1.172.018,4.66,8.232c2.564,4.532,4.678,8.268,4.708,8.3s.352-.109,1.014-.48c.917-.516.966-.553.9-.674-.037-.073-2.236-3.973-4.89-8.669-3.026-5.352-4.891-8.6-5.006-8.694-.316-.273-.51-.3-2.612-.3C1778.478-390,1778.265-389.988,1778.047-389.885Z" transform="translate(-914.168 -1082.872)" fill="#ff8200"/><path d="M2212.65-389.844a.839.839,0,0,0-.583.571c-.048.17-.066,2.57-.066,8.961v8.724h2.248v-16.1h2.788l.146.194c.079.109,2.138,3.317,4.575,7.126s4.532,7.023,4.653,7.151a.833.833,0,0,0,1.288-.036c.14-.146,2.205-3.36,4.715-7.345l4.465-7.09h2.825v16.1h2.248l-.012-8.864-.018-8.87-.127-.17a1.432,1.432,0,0,0-.334-.292c-.2-.115-.334-.121-2.759-.14-2.794-.018-2.934-.006-3.238.316-.1.1-2.029,3.135-4.3,6.737s-4.125,6.537-4.131,6.531-1.9-2.959-4.192-6.549-4.222-6.586-4.277-6.646a1.589,1.589,0,0,0-.4-.255c-.3-.146-.3-.146-2.795-.14A15.509,15.509,0,0,0,2212.65-389.844Z" transform="translate(-1331.384 -1082.936)" fill="#ff8200"/><path d="M3192-388.876v1.124h19.562V-390H3192Z" transform="translate(-2251.846 -1082.872)" fill="#ff8200"/><path d="M3332-305.2v6.8h2.309V-312H3332Z" transform="translate(-2383.341 -1156.133)" fill="#ff8200"/><path d="M1958-268.876v1.124h2.37V-270H1958Z" transform="translate(-1092.815 -1195.581)" fill="#ff8200"/><path d="M1436-262.876v1.124h13.791V-264H1436Z" transform="translate(-602.527 -1201.217)" fill="#ff8200"/></g></svg>