<svg id="Слой_1" data-name="Слой 1" xmlns="http://www.w3.org/2000/svg" viewBox="0 0 1790.8 748.91"><defs><style>.cls-1{fill:#ff8200;}</style></defs><title>AGV</title><g id="Слой_4" data-name="Слой 4"><path class="cls-1" d="M603.6,603.3c-8.3,26.1-15.8,50.1-23.9,73.8-1,2.8-5.1,5.2-8.3,6.5-2.8,1.1-6.3.3-9.5.3q-215.1,0-430.1-.1c-28.2,0-55-6.5-77.3-24.3C20,632.1,15.4,594.3,25.2,555.2c10.2-40.5,24.5-80,37.4-119.8q31.2-96.75,62.9-193.2c9.8-30,17.7-60.7,30.1-89.6,22-51.4,63.2-76.1,118.9-76.8H1659.3c29,0,55.8,7.8,76.6,28.4,29.7,29.3,38.6,65.6,27,105.6-12.1,41.7-25.8,82.9-39.2,124.2-20.8,64.1-41.4,128.3-63.2,192-11.9,34.9-19.5,71.5-41.7,102.5-17.3,24.1-38.9,41.3-67.8,47.6-17.4,3.8-35.4,7.1-53.2,7.3-92.2.7-184.5.1-276.7.6-11.3.1-15.1-2.8-14.9-14.6.4-16.3-1.3-32.6-2.6-48.9-1-12.9,1-15.7,14-15.7,79.9-.1,159.7.6,239.6-.6,18.2-.3,37.2-4.9,54.3-11.4,25-9.6,36.6-32.7,44.5-56.4,28.8-85.8,56.6-171.9,84.9-257.8,6.1-18.5,12.7-36.9,18.8-55.5,7.1-21.7,1.4-45.6-14.6-56.4-6.7-4.5-15-7.4-23-9.2-7.7-1.7-15.9-1.3-23.8-1.3q-642.75-.15-1285.4,0c-43.7,0-63.6,15.4-77,57-26.9,83.9-54.7,167.5-81.7,251.3-9.5,29.5-18.9,59.2-26.1,89.4-5.6,23.7,9.4,43.4,33.7,47.5,8.6,1.4,17.5.9,26.2.9q201.3,0,402.5.1C594.4,602.5,598.2,603,603.6,603.3Z"/><path class="cls-1" d="M1034.5,257.2c2.9-6.5,5.6-10.5,6.5-15,2.1-11.1,8.1-14.6,19.4-14.4,29.9.7,59.9.2,89.8.3,14.4,0,15.2.8,10.9,13.9-17.3,53.1-34.8,106-52.1,159.1q-28.8,88.65-57.4,177.5c-5.8,17.8-11.1,35.8-17.2,53.5-9.7,28.3-39.1,51.2-68.8,51.4-102.6.6-205.3.2-307.9.2-1.5,0-3-.6-5.9-1.2,2.5-8.3,4.8-16.1,7.3-23.9,5-15.1,10.9-30,14.8-45.4,2.5-9.9,7.5-12.4,16.9-12.3,69.1.3,138.2.1,207.3.2,17.6,0,28.3-7.4,33.9-24.4q40.05-120.9,79.9-241.9c4.4-13.5-.5-21.9-14.7-23.9-9.4-1.3-19.1-.9-28.7-.9-32.7-.1-65.5-.1-98.2,0-19.3,0-31.4,8.9-37.2,27.2q-14.55,45.6-29,91.2c-5.2,16.5,1.8,25.9,19.7,26,33.5.2,67.1.1,100.6.1h23.9c-8.9,26.6-16.7,51.1-25.4,75.2-1,2.8-6.5,5.8-10,5.8-54.3.3-108.6.7-162.9,0-26.7-.4-60.8-25.9-66.1-51.2-2.7-12.8-.7-27.9,3.3-40.7,15.9-51.8,33.6-103.1,50.4-154.6,11.7-35.8,36.2-57,73.4-58.3,56.2-1.9,112.5-1.4,168.7-.7C1000.3,230,1019.4,237.4,1034.5,257.2Z"/><path class="cls-1" d="M594,256.2c1.6-1.4,2-1.6,2.1-1.9,10.7-26.2,10.7-26.2,39.1-26.2,25.2,0,50.3,0,75.5.1,3.9,0,7.8.4,13.5.7-1,5.2-1.4,9.4-2.7,13.3-30,92.5-60.6,184.8-89.5,277.7-4.5,14.3-10.7,16.5-23.2,16.2-29.5-.7-59.1-.2-88.6-.3-4.2,0-8.4-.5-14.3-.9,11.6-36,22.7-70.3,33.9-104.7,9.9-30.3,20.4-60.4,29.9-90.8,6.5-21,0-29.2-22.1-29.3-38.3-.1-76.7-.1-115,0-17.9,0-29,7.6-34.9,25-10.9,32.1-21.3,64.3-31.5,96.6-3.8,12.1.7,19,13.3,21.6,4.6,1,9.5,1,14.3,1.1,33.9.1,67.9.1,101.8.1h15.1c-5,15.8-9.3,29.6-13.8,43.4-3.1,9.5-7.2,18.7-9.3,28.4-1.8,8.3-6.3,9.6-13.6,9.6-53.1-.2-106.2.4-159.3-.4a117.85,117.85,0,0,1-38.5-7.3c-26.1-9.9-37.4-38.6-27.6-70.7,14.4-47.3,30-94.2,45.5-141.1,5.2-15.8,10.1-32,17.4-46.9,13.6-27.3,37.7-39.2,67.4-39.7,48.3-.9,96.6-1.1,144.8-1.5,4,0,8,.6,11.9.9,20.1,1.6,38.1,8.1,52.4,23.1C589.8,253.8,592,254.8,594,256.2Z"/><path class="cls-1" d="M1311.5,438.2c5.1-7.6,10.5-15.1,15.3-22.9,37.1-59.5,73.9-119.2,111.3-178.5,2.5-4,8.4-8.2,12.8-8.3,36.7-.7,73.5-.4,110.2-.3,2.2,0,4.4.9,8.4,1.7-7.1,11.8-13.3,22.6-19.9,33.2q-81.6,131.55-163.4,263c-2.7,4.3-8.8,9.1-13.3,9.2-55.1.6-110.2.4-165.3.3a38.71,38.71,0,0,1-5.9-.9c-1.9-25.4-3.8-50.6-5.7-75.9q-5.4-75.75-10.8-151.4c-1.6-22.2-3.1-44.5-5.1-66.7-.8-9.2,2.1-12.9,11.8-12.8,29.5.5,59.1.5,88.6,0,10-.2,12.6,3.5,13.2,13.2,3.7,61.2,8.2,122.4,12.5,183.6.3,3.9,1.4,7.8,2.1,11.7C1309.4,437,1310.5,437.6,1311.5,438.2Z"/></g></svg>