<svg id="Слой_1" data-name="Слой 1" xmlns="http://www.w3.org/2000/svg" viewBox="0 0 3303.08 785.62"><defs><style>.cls-1{fill:#ff8200;}</style></defs><title>Alpinestars</title><g id="Слой_6" data-name="Слой 6"><path class="cls-1" d="M1382.64,644.65c-4,18-7.9,35.4-11.7,52.7-2.4,11.1-4.5,22.2-7.4,33.1-.6,2.4-4.1,5.8-6.2,5.9-51,.3-102,.2-153.1.1-.8,0-1.6-.5-3.2-1,7.4-29,14.9-57.9,22.7-88.2h-154.5c-7.6,0-16.3,2.1-15.6-11.4-46.2,30.7-89.6,23.1-133.5-5.7.7,10.1,1.3,18.8,2,29-3.6-1.1-6.4-1.9-9.1-2.9q-168.3-57.75-336.5-115.5a22.27,22.27,0,0,0-17,.4c-88.7,36.7-178.4,70.8-271,96.5-41.5,11.5-83.3,22.9-126.6,23.8-21.9.5-43.9-3.4-65.7-5.8-5.5-.6-10.9-3.2-16-5.6-25-11.3-33.7-31-25-57.1,6.5-19.4,17.8-36.1,31-51.4,12.7-14.8,25.9-29.3,40-42.9,28.1-27.2,55.7-55,85.6-80.1,52.9-44.4,115-71.8,180.2-92.6,73-23.2,148-35.7,224.3-41.1a46.25,46.25,0,0,0,25.6-9.3Q773.34,177.9,905,81c2.9-2.1,5.8-4.1,10.1-7.2v165.5q288.75-32.85,575.6-65.4c.2.6.4,1.3.6,1.9l-193.2,76.8a9.7,9.7,0,0,0,.1,1.7h67.2c-6.9,30.7-13.4,59.9-20.2,90.1,4,0,7,.1,10,0q50.1-1.65,100.1-3.4c31.3-1.1,61.1,3,86.7,25.9,4.4-20,8.6-38.9,12.7-57.8,3-13.8,6-27.7,8.9-41.5.9-4.1,1.9-7,7.5-7q74,.3,148,.2a37.72,37.72,0,0,1,4.7.7c-6.5,28.3-13,56.2-19.6,84.7,1.8.4,3,1.1,4.3,1,34.2-.5,68.3,1.4,102.5-4.8,27-5,54.7-3.6,79.8,9.3,12.3,6.3,22.8,16,34.8,24.6,10.7-5.9,23.1-13.8,36.3-19.7,51.3-23,102.9-21.4,154.2,0,14.6,6.1,28.2,14.4,42.1,21.9,3.8,2,6.4,3,10.6.3,58.2-37.1,120.6-44.6,186.6-26.3,3.2.9,6.5,1.8,10.3,2.8.4-3.5.8-6.5,1.3-10.8,8.8,0,17.7-.3,26.7.1,5.4.2,8.9-1.1,9.1-7,.6-12.9,8.6-19.1,19.5-24.6,52.1-26.2,103.8-53.2,155.7-79.9,2-1,4.1-1.9,7.8-3.6-7.7,38.7-15.2,76.2-22.8,114.3,17.4,0,34.1.9,50.6-.2,46.5-3,92.9-5,138.9,4.4,13.1,2.7,25.8,7.7,39.3,11.8-.4.4.3,0,.3-.4,1.5-14.7,11.2-15.5,23.3-15.1,25.8.8,51.6.2,77.4.2,18.4,0,36.5-.6,54.9-4.1,22.6-4.2,45.1-1.8,65.9,10.1,2.7,1.5,7,1.4,10.3.6,29-7.4,58.4-11.2,88.4-10,19.4.8,38.3,4.2,56.1,12.1,35.2,15.6,53.6,43.9,60,80.9,1.2,7,1.2,14.1,2.3,21.1.9,6.1-1.9,7.8-7.4,8.3-11.2,1.1-22.4,2.9-34.8,4.5,1.9,3.5,3.2,6,4.7,8.6,14.5,25.9,23,53.1,16,83-6.4,27.3-24,46.6-46.6,61.5-66.3,43.7-136.1,44.4-207.4,14.4-22-9.2-38.2-26-50.6-49-5.2,21.3-9.9,40.5-14.6,60.1H2665c-1-3.8-1.9-7.5-3-11.8-27.5,24.1-59.6,18.1-90.9,12.8a110.3,110.3,0,0,0-40.1.3c-33.8,6.4-68,9.2-102.2,2.4-22.8-4.6-42.6-14-53.3-37.5-4.5,2.9-8.5,5.7-12.7,8.3-65,39.1-133.4,42.8-203.2,16.3-18.7-7.1-33-7.3-51.7.7-66.1,28-131.1,20.7-193.8-12.8-3.5-1.9-7-3.8-10.5-5.6a8,8,0,0,0-2.5-.1c-.8,7.7-1.9,15.4-2.1,23.2-.2,5.6-2.3,7.6-7.7,7.2-3.4-.3-6.8-.1-10.2-.1q-192.6,0-385.2.2c-11.2,0-22.4,2.3-33.6,3.8C1434.74,657.55,1408.34,658.05,1382.64,644.65Zm1153.6-347c-4.2,1.9-6.9,3.2-9.6,4.5-21.3,10.6-42,22.6-64.1,31.2-20.4,8-32.2,20-32.3,42.3a10.46,10.46,0,0,1-.4,1.7c-.6,4.4-2.9,6.1-7.4,5.9a149.88,149.88,0,0,0-21.2.2c-2.4.2-5.8,3.1-6.4,5.4-2.5,8.8-4.2,17.8-6.6,28.9-12.4-23.7-32.2-32.7-54.7-36.6-32.2-5.7-64.5-5.4-96.1,3.2-25.2,6.8-47.1,19.2-60.6,43.2-19.1,33.9-7.4,69.9,28.3,85.1a138.87,138.87,0,0,0,22.6,7.4c17.4,4,34.9,7.1,52.4,10.9,7.2,1.6,13.5,4.7,14.5,13.4,1.1,9.1-2.3,16-10,20.9-24.2,15.2-52.7,6.4-63.4-19.8-.2-.4-.8-.7-1.6-1.2-21.2,1.8-42.6,3.6-64.1,5.6-11.4,1-22.7,3.5-34.1,3.3-15-.3-29.9-2.3-44.8-4.1-8-1-13.9.3-20.1,6.8-13.3,13.9-36.4,17.1-52.8,9.1-13.1-6.4-22.3-24.3-21.2-42.4h10c53,0,106-.1,159,.1,5.8,0,8.7-1,9.2-7.6.7-9.3,2.8-18.5,4-27.7,6-46.9-20.5-89.5-65.4-102.1-17-4.8-35.1-6.5-52.8-7.3-47.5-2.1-89.1,12.1-120.2,49.6-9.4,11.3-16.4,24.6-23.8,35.7.9-9.1,2.8-19.7,2.9-30.4.3-26.6-15.6-47.3-41.6-52.6-35.1-7.2-66.9,1.2-94.8,23.5-5.4,4.3-10.3,9.3-16.7,15,2.6-12.6,4.9-23.6,7.2-35.1-3.6-.2-6.1-.5-8.6-.5-21.8,0-43.7.3-65.5-.2-7.4-.2-10.1,2.3-11.6,9.5-11,52.4-22.4,104.7-33.6,157q-7,32.7-13.9,65.4a13.39,13.39,0,0,0,3.2.9c27.2.1,54.4-.1,81.6.2,5.9.1,6.1-3.7,6.9-7.5,6.3-29.6,11.8-59.5,19.3-88.8a296.44,296.44,0,0,1,18.4-50.8,43.66,43.66,0,0,1,28.4-24c19.6-5.5,30.3,3.7,26.6,23.6-5.3,28.4-11.3,56.6-17.1,84.9-4.2,20.5-8.6,40.9-13.2,62.5h10.1c22.1,0,44.2.1,66.3,0,16.5-.1,12.6,1.5,15.9-13.1,6.7-30.1,12.8-60.2,19.2-90.4,1.9,5.8,2.1,11.7,3,17.4,6,39.4,25,68.9,64,82.6,29.3,10.3,59.6,10.5,89.9,7.6,34.4-3.3,65-15.1,88-42.5.4-.5,1.4-.5,2.4-.8,8.7,20,24,32.3,44.7,37.4,44.6,11,89.4,10.8,133.3-3.2,24.9-7.9,44.7-23.3,56-47.6,16.8-36.1,2.3-70.2-35.1-83.2a184.73,184.73,0,0,0-22.1-6c-18.2-3.9-36.6-7.2-54.8-11.4-7.4-1.7-12.7-6.8-13.2-14.9-.5-8.5,4.7-13.9,11.9-16.9,12.2-5.1,25.1-6,37.2-.6,5,2.2,9.6,7.2,12.2,12,2.4,4.4,4.6,5.7,9.1,5,3.6-.6,7.3-.8,11-1.2,17.7-1.9,35.3-3.7,53.2-5.6.6,11,8.5,6,13.3,6.6,6.1.8,12.3.2,19.4.2-5.5,25.9-11,50.7-16,75.7-2.9,14.4-6.8,29-7,43.5-.3,28.5,22.1,52.2,52.1,53.6,23.9,1.1,48-1.9,71.9-3.6,2.1-.1,4.9-4.2,5.5-6.8,3-12.1,5.4-24.4,8.3-38.3,2.4,5.4,3.9,9.1,5.6,12.6,8.1,16.3,20.5,28,38.2,32.7,32.1,8.7,63.4,7,92.7-10.5,7.4-4.4,14.3-9.7,21.9-14.9.8,6.3,1.9,12.1,2.3,17.9.3,5.5,2.8,7,8.1,7q78.6-.3,157.3,0c5.8,0,7.7-2.1,8.7-7.5,3.5-18.3,7.5-36.6,11.6-54.8,5.5-24.5,9.2-49.7,21.9-72,13.1-23.2,32.4-32.7,58.8-29.8,5.9.6,8,2.4,8.1,8.8.3,22,10.4,38.7,30,48.6a145.94,145.94,0,0,0,29.4,10.8c18.1,4.5,36.5,7.8,54.8,11.8,16.3,3.6,14.8,21.8,7.3,29.7-18.6,19.4-57,12.3-67.3-12.3-.9-2-4.3-4.5-6.3-4.3-25.4,1.9-50.8,4.1-76.2,6.4a38.85,38.85,0,0,0-6.1,1.5c1,29,18.8,52.7,48.1,60.7a238.22,238.22,0,0,0,134.9-2.2c22.9-7.1,41.4-21,53.6-42,21.2-36.4,6.9-75.5-32.6-89.1-9.6-3.3-19.6-5.4-29.6-7.6-15.2-3.3-30.6-5.7-45.8-9.2-7.9-1.8-13.8-6.8-14.6-15.7-.6-7.1,4.9-14.2,13.9-17.4,11-4,22.5-5,33.3-.6,5.7,2.4,10.9,7.8,14.5,13.1,2.5,3.7,4.1,5.2,8.3,4.7q29.55-3.3,59.1-6.4c5.8-.6,11.5-1.4,17.2-2.1-2.5-26.9-20.3-47-48.9-54.7-34.3-9.2-69-8.3-103.5-.8-17.5,3.8-33.2,11.8-49.4,24.1,4-9,7-15.6,11-24.5-12.4-1.8-23.4-4.8-34.4-4.8-22.1,0-38.2,12.4-51.6,28.8-5.5,6.8-10.8,13.7-17.8,22.6,3.7-16.8,6.8-31,10.2-46.3-26.1,0-51,.2-75.9-.1-5.9-.1-8.2,1.8-9.4,7.8q-17.4,83.55-35.4,167c-3,13.8-6,27.7-9,41.5-5.1-15.4-2.8-30.5,0-45.3,6-31.1,13.1-62.1,18.5-93.3,7.1-41.5-11.2-68.2-52.2-77.2-33-7.2-66.4-7.3-99.8-3.6-20.8,2.3-40.8,7.1-58,19.8-16,11.8-26.4,27.3-31.1,47.8,26.9,2.9,52.7,5.8,78.6,8.3,1.7.2,4.3-2.2,5.5-4.1,12.8-20.5,39.9-28.2,61.4-17.3,9,4.6,10.9,10,10.4,21-.4,10.1-6.3,12.1-14.2,12.9-1.7.2-3.4.5-5,.8-32,4.4-64.1,8-95.9,13.5-42,7.3-58.6,24.7-66.8,66-.4,1.9-2.7,4.6-4.4,4.9-7.5,1.1-15.2,2.3-22.8,1.9-12.6-.6-18.1-8.7-15.4-20.9,2.2-9.9,4.4-19.9,6.5-29.9,4-19,7.9-38.1,12-57.8H2551c4.5-21.3,8.8-41.9,13.4-63.7h-45.8C2524.44,354.35,2530.14,326.85,2536.24,297.65ZM248.34,444.55c22.7-6.7,43.4-13.3,64.4-18.8,24.7-6.5,49.7-11.1,75.5-10.8a44.52,44.52,0,0,0,18.4-3.7c21.6-9.3,42.4-20.5,64.3-28.9,19.2-7.3,39.3-12.2,59.3-17,4.2-1,12,1.6,13.8,4.9,1.9,3.5.3,11.5-2.7,14.5-8.5,8.4-17.5,17.7-28.2,22.2-19.1,8.2-39.2,15-59.6,19-54.7,10.9-109.5,21.3-162.9,37.6-49.4,15.1-98,32-142,59.8-20.5,13-39.2,28-51.3,49.8-9.3,16.9-5.3,30.6,11.9,39.4a70.62,70.62,0,0,0,16.7,5.9c20.5,4.8,41.1,3.4,61.7.9,44-5.5,86.6-17.2,128.7-30.7,86.2-27.5,169.4-62.5,251.8-99.5,5.2-2.3,9.7-2.8,15.3-1q127.65,41.1,255.5,81.7c16.4,5.2,32.7,10.4,50.4,16v-10.5c0-62.9.1-125.9-.1-188.8,0-5.7,1.1-9,7.2-11.2q184-67.8,368-136.1l37.8-14.1c-.1-.5-.3-1-.4-1.5-138.2,16.4-276.4,32.8-415.8,49.4v-132c-3.9,2.8-6.4,4.5-8.9,6.4q-102.45,76.65-205,153.2a26.67,26.67,0,0,1-12.9,5c-40.1,3.6-80.3,5.6-120.2,10.3-74.1,8.8-144.6,29.8-210.1,66.2C299.54,398.55,272.84,418.45,248.34,444.55Zm831.8,171.1h10.8c50.4,0,100.9-.3,151.3.3,9.6.1,12.8-2.9,14.7-12,17.6-84.2,35.8-168.3,53.8-252.4,3.9-18.4,7.8-36.9,11.8-55.9h-89.8q-33.3,155.4-66.5,310.4a8.07,8.07,0,0,1-2.8-4.9c-4.4-20.6.6-40.5,4.4-60.6,5.6-30,12.6-59.9,16.6-90.1,4.2-31.8-13-55.6-43.7-64.9-24.4-7.3-49.7-8.2-74.9-8-26.1.2-52.2,1.9-76.5,13s-40,29.5-46.6,56.1a63.4,63.4,0,0,0,6.5,1.5c22.2,2.5,44.5,4.6,66.7,7.4,6.3.8,9.4-.8,12.6-6.4,11.1-19.7,45.5-26,63.7-12.4,8,6,6.7,14,5.8,22.4-.9,8.2-7,7.9-12.3,8.7-19.9,2.8-39.9,5.2-59.8,7.9-23.8,3.3-48,5.1-70.2,15.3-28.1,13-41,35.3-38.8,67.1,1.8,26.8,19.7,50.8,45.2,57.9,36.2,10.1,70.7,6.3,102-16.1,4-2.9,8-5.9,12.8-9.4C1077.94,599.25,1078.94,606.75,1080.14,615.65ZM1398.64,383c-24.9,0-48.4.5-71.9-.2-8.9-.3-12,2.6-13.8,11.1q-26.55,125.4-53.8,250.7-6.3,29.25-12.5,58.7c1.6.6,2.3,1.1,3.1,1.1,27.2.1,54.4.3,81.6-.1,2,0,5.2-3.7,5.8-6.1,5.3-22.9,10.2-45.9,15.2-68.8,3.1-14.2,6.2-28.3,9.4-43a17.4,17.4,0,0,1,2.5,1.7c28.3,41,101.1,46.5,139.1,3.4,40.3-45.8,51.7-99,37.7-157.6-5.8-24.3-20.6-43.4-45.3-51.2-30.4-9.6-59.9-7.1-86.3,12.9-4.5,3.4-9,7-14.6,11.4C1396.14,398.15,1397.24,391.25,1398.64,383Zm264.6,0c-28.3,0-55.2.2-82.1-.2-6.7-.1-8.5,2.5-9.7,8.4-12.7,60.3-25.8,120.6-38.7,180.9-3,14.2-5.9,28.4-9.1,43.6,27.3,0,53.4-.5,79.4.3,8.8.2,11.3-3.1,12.9-10.9,9.2-44.3,18.8-88.5,28.3-132.8C1650.54,443,1656.64,413.65,1663.24,383Zm-84.3-26.2c29.3,0,57.3.1,85.3-.2,1.8,0,4.9-2.1,5.3-3.7,4.3-18.9,8.2-37.9,12.3-57.3H1592C1587.74,315.65,1583.54,335.45,1578.94,356.75Zm-478.4-7.7c16,2.5,30.4,3.7,44.2,7.2s26.9,9.5,41,14.6c4.4-21.1,9-43.3,14-67.1C1165.94,319.15,1133.94,333.75,1100.54,349.05Z"/><path class="cls-1" d="M1989.84,478.85c6-19.6,14.8-36,33.4-44.7,15-7,30.1-6,43.1,4.7,12.7,10.5,12.2,24.9,10,40Z"/><path class="cls-1" d="M2696.94,510.85c0,29.2-19.4,54.6-45.2,60.8-9.7,2.3-19.2,1.5-27.5-4.9-7.2-5.6-9.6-13.4-7.9-22,2-10.2,9.3-16.4,18.8-18.9C2655.34,520.45,2675.74,516,2696.94,510.85Z"/><path class="cls-1" d="M439.34,466.15c-17.4,14.8-34.2,30.2-52.2,44.1-27.5,21.2-57.1,38.9-91.7,46-16.6,3.4-33.2,4-49.3-2.3-7.7-3-9.6-6.8-4.5-13.4a74.78,74.78,0,0,1,18.3-17.2c29-18.3,61.4-28.7,94-38.1,27.6-8,55.5-15.1,83.3-22.6C437.94,463.85,438.64,465.05,439.34,466.15Z"/><path class="cls-1" d="M1085.94,511.35c-3.7,32.6-20,54.5-45.8,59.9-7.7,1.6-16.9,0-24.4-2.8-8.7-3.2-11.9-11.7-11.2-20.9.8-10.9,7.7-17.3,17.3-20.9a123.7,123.7,0,0,1,17-5.2C1054.14,518,1069.54,514.85,1085.94,511.35Z"/><path class="cls-1" d="M1377.84,518.05a128.19,128.19,0,0,1,15.9-59.3c6.5-12,16-20.7,30.3-22.1,17.8-1.9,30.7,7.4,33.5,25,4.5,28.4-.2,55.3-15.6,79.8-10.2,16.1-23.9,22.4-38.4,18.5-16-4.4-25-17.3-25.6-36.8A43.41,43.41,0,0,1,1377.84,518.05Z"/></g></svg>