<svg id="Слой_1" data-name="Слой 1" xmlns="http://www.w3.org/2000/svg" viewBox="0 0 2125.26 673.41"><defs><style>.cls-1{fill:#ff8200;}</style></defs><title>HJC</title><g id="Слой_10" data-name="Слой 10"><path class="cls-1" d="M1982.76,458.7c-57,41.4-121.2,67.6-187.5,89.4a1557.06,1557.06,0,0,1-177.6,46.8c-44.8,9-89.9,16.8-135.2,23.1-39.1,5.5-78.3,9.7-117.6,13.1-38.8,3.4-77.6,6.5-116.5,8.4-29.9,1.4-59.7,2.5-89.6,3.2-55.2,1.4-110.5,1.4-165.7-.5q-63.15-2.1-126.1-6.8c-33.3-2.5-66.5-5.3-99.7-8.9q-61.5-6.6-122.5-16.4c-50.2-8-100.1-17.1-149.6-28.9A1460.81,1460.81,0,0,1,344.46,537c-48-17.1-94.3-37.9-137.6-65-28.9-18.1-56-38.2-77.3-65.3-13.7-17.4-23.6-36.6-26.2-59.1-2.2-19.5,1.5-37.9,10.2-55.3,11.8-23.6,29.4-42.4,49.5-59,33.8-28,72-48.8,111.5-67.2,51.6-24.1,105.6-41.3,160.4-56.5,61.8-17.1,124.5-30.1,187.8-40.3,47.6-7.6,95.3-14.5,143.2-19.5,33.7-3.5,67.4-6.3,101.2-8.8,49.4-3.6,98.7-5.5,148.2-6.5,67.8-1.3,135.6-.8,203.4,2.3q52,2.4,104.1,6.7,53,4.5,105.8,10.9c39,4.7,77.9,10.2,116.6,17,66.4,11.6,132.3,25.2,196.9,44.4,59.6,17.8,118.4,38,174,66.2,38.7,19.6,74.9,42.9,105.1,74.5,14.9,15.5,27.1,33,33.9,53.6,11,32.9,3.8,63-14.8,91.2-12.3,18.6-28.2,33.7-45.2,47.8a3.7,3.7,0,0,0-2.4,2c-1.9,1.5-3.9,3-5.8,4.6C1985.26,456.1,1984.06,457.4,1982.76,458.7Zm-933.5,126h11.5c35.1.2,70.2-.5,105.3-1.7,29.3-1,58.6-2.3,87.9-4.3,28.4-1.9,56.7-4.6,85-7.4q55.5-5.55,110.5-14.2a1473.06,1473.06,0,0,0,163.7-35.6c58.1-16.1,114.8-36.2,167.1-66.9,27.9-16.4,54-34.9,73.3-61.5,16.2-22.2,22.8-46.5,15-73.6-5.9-20.4-18.2-36.8-33-51.4-19.1-18.9-41.4-33.6-64.7-46.8-8.3-4.7-7.9-2.4-4.5-11.6.9-2.5,1.7-4.9,2.6-7.4,4.8-14.5,2-27.7-8.3-38.8-9.2-10-21.5-13.3-34.7-13.3-46.7-.1-93.4,0-140,0a32.45,32.45,0,0,1-8.8-.8c-28.2-7.1-56.5-13.7-85.1-19.1q-46.2-8.7-92.9-15.1c-30.9-4.3-61.9-7.8-93-11-21-2.2-42.1-3.8-63.1-5.2-39.4-2.6-78.8-4.7-118.3-5.2-48.8-.6-97.5-.6-146.2,1.6-21.4.9-42.9,1.7-64.3,3.2q-43.8,3-87.6,7.4-54.75,5.4-109,13.7c-38.8,6.1-77.3,13.2-115.5,22.1-19.2,4.5-38.3,7.4-58,6.3-7.5-.4-15-.3-22.5,0-28.4,1.1-52.3,11.4-69.2,35a17.66,17.66,0,0,1-8,6.3C421.06,199,398,209.3,376,222c-27.7,16-53.6,34-73.6,59.6-24.7,31.7-27.3,68.3-6.4,102.4,13.2,21.6,32.1,37.6,52.4,52.1,3.7,2.6,5.3,4.4,3.8,9.5-4.5,15.1,1.9,27.4,16.5,33.3a47.66,47.66,0,0,0,18,3c14.3.1,28.7.1,43,0a17.22,17.22,0,0,1,7.1,1.3c52.6,22.8,107.6,38.3,163.3,51.2q53.7,12.45,108.2,21.2c23.4,3.8,46.8,7.4,70.4,10.2,27.9,3.4,55.8,6.3,83.8,8.9,31.5,2.9,63,5,94.5,6.7C987.66,583.1,1018.46,584.4,1049.26,584.7Z"/><path class="cls-1" d="M1982.76,458.7c1.3-1.3,2.5-2.6,4.3-3C1986.56,458,1985,458.8,1982.76,458.7Z"/><path class="cls-1" d="M1993,451.1a3.7,3.7,0,0,1,2.4-2A2.56,2.56,0,0,1,1993,451.1Z"/><path class="cls-1" d="M1447.16,469.3h-177.8c-13.4,0-19.3-4.8-21.6-17.8-.6-3.2-1.7-5.8-4.8-6.8-3.5-1.1-5.6,1.5-7.4,3.8-5,6.5-9.6,13.3-17.8,16.4-4.8,1.8-9.5,3.3-14.7,3.3q-175.65-.15-351.4-.2c-10.7,0-21.1-2.2-29.9-9.2a30.23,30.23,0,0,1-5.8-6.6c-3.5-4.8-4.9-5.1-9.2-1.4-8,7.1-17.6,11.4-27.4,15.1-3.7,1.4-8.2,1-12.4,1-41.6.1-83.2.2-124.8-.1-11.3-.1-22.7,1.2-34-.7-6.2-1-7.6-3.8-5.5-9.5,6.8-18.1,13.8-36.2,20.4-54.5,2-5.5,3.9-11.6-1.4-16.6-4-3.8-13.2-3.3-19.3-.1-10.8,5.8-14.9,16.1-18.6,26.7-4.6,13-9.3,26-13.9,39-3.2,9-11.8,15.7-21.5,15.7q-80.85.15-161.6,0a48.33,48.33,0,0,1-9.3-1.2c-8.8-1.8-13.1-8.4-10.3-17.1,3.4-10.5,7.6-20.7,11.4-31q21.3-57.3,42.7-114.5c12.8-34.2,25.5-68.5,38.7-102.5,5.3-13.6,15.6-23.2,28.6-29.9a62.19,62.19,0,0,1,29.7-7c46,.2,92,.1,138,.1a36.48,36.48,0,0,1,4.7.1c7.4.6,11,5.7,8.5,12.8-6.9,19.6-14.1,39.1-21.1,58.7-1.7,4.8-3.6,9.5-4.8,14.4-2,8.2,1.2,13.1,9.3,15.3,13.4,3.6,20.8-.1,25.9-13.2,8.8-22.5,17.5-44.9,26.4-67.4,2.7-6.9,6.7-13,13.3-17a23.67,23.67,0,0,1,12.4-3.7q73.2,0,146.3.2c6.7,0,13.5,1.2,20.2,2.3,10.8,1.9,17.1,13.9,12.7,24.7-4.2,10.5-7.9,21.3-11.7,32-9.9,28-19.8,56-29.5,84.1-3.7,10.7-.4,13.6,7,19.7,2.9,2.4,6.1,2.2,8.3-.8,4.6-6.4,10.9-7.1,18-7.1,44.8.2,89.5.1,134.3.2,15.4,0,16.6,1.9,11.4,16.2-1.9,5.2-3.7,10.6-5.1,16-1.9,7,.2,12.2,6.2,16.2s12.4,3.9,18,0c6.3-4.3,9.6-10.4,12.1-17.3,10.3-29,20.6-57.9,30.9-86.9,6.1-17.3,12.1-34.6,18.3-51.8,3.7-10.5,7.6-20.9,14.5-30,8.9-11.5,20.9-17.3,34.8-17.5,40.9-.5,81.8-.4,122.7,0,7.2.1,14.6.8,21.5,3.8,7.5,3.2,12.2,8.2,13.6,16.5.6,3.8.4,9.2,4.8,10.3,4.7,1.2,6.1-4.5,8.5-7.3,6.8-8.1,14.3-15.3,23.8-20.1a22.87,22.87,0,0,1,10.6-2.4c87.1.1,174.2-.1,261.2.2,24.8.1,49.5.9,74.3,1a78.52,78.52,0,0,1,26.7,4.6c9.9,3.5,13.5,10.3,10.2,20.1-4.5,13-9.7,25.9-14.2,38.9-4.6,13.2-9.5,26.2-13.3,39.7a191.54,191.54,0,0,1-6.7,19.3c-3.8,9.4-11.5,14.4-21.2,14.5-54.2.3-108.4.2-162.5.1-5.6,0-6.5-1.4-4.9-6.7,2.5-8.2,5.2-16.3,7.5-24.6,2.1-7.6.6-11.6-5-14.9-6.9-4.1-12.3-3.3-18.2,1.4-7.6,6.1-10.2,14.9-13.3,23.3-4.7,12.6-9.6,25.1-14.2,37.7-4.5,12.1-9.2,24.1-13.9,36a52.36,52.36,0,0,0-2.4,8.6c-1.5,7.6,1.5,15.1,7.3,18.3,4.3,2.4,12.9.6,18.1-3.5,6-4.7,8.5-11.4,10.8-18.1,4.8-14.3,8.9-17.4,24-17.4,35.3,0,70.6-.1,106,.1,10.1,0,20.3.6,30.4.9a33.08,33.08,0,0,1,13,3.8c8.3,3.9,12.7,10.9,8.6,20.9-11,27-21.5,54.3-31.7,81.6-3.8,10.1-11,15-20.8,17a74.08,74.08,0,0,1-14.1,1.4c-43.4.1-86.7,0-130.1,0H1447C1447.16,469.2,1447.16,469.3,1447.16,469.3Zm-744.5-17.9c19.6,0,39.2-.1,58.7,0a47.53,47.53,0,0,0,12.4-1.7c18.5-4.8,29.7-18,36.8-34.5,15.1-34.7,27-70.6,40.2-106,11-29.4,21.6-58.9,32.1-88.5,3-8.4,6.7-16.5,7.5-25.6.6-6.3-2.5-11.2-8.3-13.5a40,40,0,0,0-14.9-2.6h-51.3c-26.2-.1-52.4-.3-78.6-.2-9.4,0-16.8,3.9-20.9,13-5.1,11.5-8.7,23.5-13.3,35.2-5.3,13.6-9.5,27.7-15.4,41.1-3.7,8.3-9.9,12.8-19.3,12.5-7-.2-14,.5-20.9.2-5.7-.2-11.5.6-17.1-1.2-5.9-1.9-8.3-5-8.1-11.1a45.64,45.64,0,0,1,3.2-13.7c6.2-17,12.6-34,18.8-51.1,1.5-4.2,3.1-8.5,3.1-13.2a9.7,9.7,0,0,0-6.3-9.4,25.25,25.25,0,0,0-10.1-2.3c-37.6-.1-75.2-.7-112.7.1-19.1.4-34.5,9.2-44,26.6-6.5,11.8-10,24.8-14.7,37.4q-25.95,70.35-51.8,140.9c-6.5,17.8-13.2,35.6-19.5,53.5-2.6,7.6.8,12.5,8.7,12.9,10.9.6,21.8.7,32.7.7,17.2,0,34.4-.7,51.6-.2s34.6,1,51.8.2c15.6-.7,20.5-3.2,26.2-19.1,6-16.6,12.4-33,18.6-49.5,3.1-8.1,8.6-13.1,17.3-15.1,11.7-2.7,23.6-1.7,35.3-1.3,18,.6,17.7,11.7,14.3,23.3a5.91,5.91,0,0,1-.6,1.4c-5.1,13.1-10.4,26.2-15.4,39.4-4.9,12.9.7,21.1,14.5,21.1C663.06,451.4,682.86,451.4,702.66,451.4Zm753.7,1.1h168.9c11.4,0,20.2-5.1,24.9-15.2,9.3-19.7,16.2-40.4,23.8-60.8,2.8-7.5-1-13.2-8.8-15.3a30.66,30.66,0,0,0-6.7-.8c-41-.4-82,.4-123-.8-7.4-.2-10.5,2.1-13.2,9.3-1.9,4.9-3.6,9.8-5.3,14.8-3.4,10-9.5,15.1-20,15.3-11.5.3-23.1.3-34.6,0-9.1-.2-13.9-5.8-13.6-15a24.71,24.71,0,0,1,2-8.1c9.6-24.9,19.3-49.7,28.9-74.6q8.85-22.95,17.8-45.8c3.7-9.3,10.3-15.3,20.5-16.5a130.12,130.12,0,0,1,32.4-.1c10.7,1.4,14.8,9.2,11.4,19.5-1.4,4.3-2.9,8.6-4.3,12.9-3.4,10.6-.8,14.1,10.4,14.2q39.6.15,79.1.1c14.6,0,29.3.1,43.9.2,10.5,0,17.3-3.9,20.1-11.9,8.3-23.7,16.6-47.3,24.9-71,4.9-14.1-.7-22.1-15.6-22.1q-92.4-.3-184.9-.5c-21.5,0-43,.1-64.4-.3-22.3-.4-44.6.1-66.9-.2-27.2-.4-47.1,10.6-56.9,36.5-13.7,36.4-26.8,73-40.1,109.5q-13.05,35.85-25.8,71.8c-4,11.3-9,22.3-11.4,34.2-2.6,12.7,2.9,19.9,15.9,20.5,1.7.1,3.5.1,5.2.1C1346.26,452.5,1401.26,452.5,1456.36,452.5Zm-389.9-.2v.2h121.1c5.6,0,11.2.6,16.7-.6,16.3-3.4,27-13.8,33.1-28.5,8-19.1,14.9-38.6,22.2-58,7.4-19.7,14.6-39.5,21.9-59.3q13.5-36.75,26.9-73.7c3.8-10.5,7.6-21,10.7-31.7,2.8-9.9-1.9-17.2-12-19.4a48.36,48.36,0,0,0-10.8-1.3c-22.9,0-45.8-.3-68.7-.1-17.3.1-34.5-1-51.8.8-12.6,1.4-22.1,6.9-27.5,18.7-1.5,3.3-3,6.7-4.3,10.1-14.2,39-28.2,78-42.4,116.9-5.4,14.7-9.5,30-16.8,44-3.9,7.6-9.8,13.5-18.5,14.9a99.8,99.8,0,0,1-34.9-.3c-9.8-2-14-9.6-11.1-19.4a104.8,104.8,0,0,1,4.5-12.2c6.1-14.6,4.6-17.2-11.2-17.2-24-.1-48.1.3-72.1-.3-13.7-.3-27.5-.7-41.2-.5-15.6.3-28.8,5-34.8,21.4-8.5,23.2-17.3,46.3-25.5,69.7-4.6,13.2.3,20.8,14.2,24.1a37.25,37.25,0,0,0,6.7.9c12,.6,24,.7,36,.5,23-.4,45.9.3,68.9.4C999.36,452.4,1032.86,452.3,1066.46,452.3Z"/><path class="cls-1" d="M1053.86,517.4c-2.2,5.7-4.2,11.1-6.2,16.5-1.4,3.7-8.4,6.1-11.6,4-1.5-1-.8-2.1-.4-3.2,3.3-9.2,6.6-18.4,10-27.5a3,3,0,0,1,.4-1c5.5-4.7,11.9-1.4,17.9-1.9,3.6-.3,2.6,3.4,3,5.6.7,4.8,1.3,9.6,2.1,15.6,5.1-6.1,9.9-11.3,14-16.9,2.6-3.6,5.4-5,9.6-4.5s9.9-1.8,12,.9c2.3,2.9-1.8,7.6-3,11.4-2,6.3-4.3,12.5-6.6,18.8-1,2.7-10.9,4.9-12.7,2.8-1-1.1,0-2.3.3-3.4,1.2-4.8,3.8-9.3,3.4-15-4.1,4.8-8.1,9.7-12.2,14.5-3,3.6-10.3,5.7-14.6,4.2-2.5-.8-2-3.1-2.3-4.8-.8-4.8-1.4-9.7-2.1-14.5A8.91,8.91,0,0,0,1053.86,517.4Z"/><path class="cls-1" d="M770.06,504c-4,10.7-7.7,21-11.6,31.2-.9,2.3-12.1,3.4-13.3,1.4-.6-1-.1-2,.3-3q1.35-3.45,2.4-6.9c.6-1.9.1-2.9-2.2-2.9q-8.4.15-16.8,0c-1.9,0-2.8.9-3.4,2.6-.9,2.6-2.1,5.2-3,7.8a4.12,4.12,0,0,1-4.1,3.2c-10.8.7-10.9.8-7.3-9.4,2.6-7.2,5.2-14.4,7.9-21.6,1.1-2.9,11.7-5.2,13.7-2.9,1.7,2-.3,4-.9,5.8-2.2,6.4-2.3,6.4,4.4,6.4H742c9.6,0,9.7,0,13.2-8.9,1-2.5,2.3-3.7,5-3.5C763.36,503.7,766.46,503.8,770.06,504Z"/><path class="cls-1" d="M1395.26,539.7c-4.4,0-8.7-.1-13-1.4-3-.9-5.4-2.5-6-5.8-.7-3.6,0-5.9,4.3-5.6,2.3.1,4.5,0,6.8,0,1,0,2-.1,2.8,1,3.4,4.4,11.3,5.9,15.8,2.9a4.06,4.06,0,0,0,1.9-2.4c.2-1.7-1.6-1.7-2.6-1.9-4.8-.9-9.7-1.5-14.4-2.5-3.6-.7-7.6-1.7-8.2-6.2-.6-4.2,1.8-7.5,5.3-9.5,10.5-5.9,21.7-5.7,33-3.1a6.72,6.72,0,0,1,5.2,4.7c.7,2.5.5,4.8-2.9,4.6-4.1-.3-8.8,3-12-2.7-1.2-2.1-11.2-1.1-12.9.8-2.1,2.3.1,2.7,1.6,3,4.8,1,9.6,1.7,14.4,2.8,3.7.8,7.6,2.1,8,6.4s-2.1,7.5-5.8,9.8C1409.86,538.8,1402.66,539.6,1395.26,539.7Z"/><path class="cls-1" d="M848.16,537.8H832c-2.5,0-2.9-1-2-3.3,3.5-9.4,7-18.9,10.3-28.4,1-2.8,2.8-3.2,5.2-3.1,9.1,0,18.1,0,27.2.1,1.8,0,5.1-1.1,4.8,2.1-.3,2.7-.8,6.4-5.5,6.2-5.2-.3-10.5-.1-15.7,0a10.76,10.76,0,0,0-3.6.3,3,3,0,0,0-1.8,2.9c.1,1.6,1.5,1.1,2.4,1.1,4.7.1,9.4-.1,14.1.1,1.6.1,4.7-1.2,4.3,1.9-.3,2.4-.4,6-4.3,6.2-5.1.2-10.1.2-15.2.3a22.88,22.88,0,0,0-3.7.1c-2,.2-2.5,2-2.6,3.4-.2,2.3,1.9,1.6,3,1.6,5.1.2,10.1.1,15.2.2,1.8.1,5-1,4.7,2.1-.2,2.6-.8,6.2-4.9,6.2-5.3.1-10.5.1-15.7,0Z"/><path class="cls-1" d="M1183.06,538.3c-5.1,0-10.1-.1-15.2,0-3.2.1-4.1-1.3-3-4.2,3.3-9,6.7-18,9.9-27,.9-2.4,2.3-3.1,4.7-3.1,9.6.1,19.2,0,28.8.1,1.5,0,4.3-.8,4,1.8-.2,2.3-.5,5.6-4.2,5.7-4.7.1-9.4,0-14.1,0-1.9,0-3.8-.1-5.8-.2-2.7-.1-3.2,2.1-3.3,3.8-.1,2.2,2,1.4,3.2,1.4,4.5.1,9.1-.1,13.6.1,1.7.1,5-1.4,4.5,2.3-.4,2.5-.7,5.9-4.8,5.7-4.7-.2-9.4-.3-14.1-.5-1.2,0-2.4,0-3.7.1-2.7.2-3.5,2.3-3.5,4.4,0,2.5,2.3,1.6,3.6,1.6,5.1.1,10.1-.2,15.2.1,1.6.1,5-1.4,4.5,2.1-.3,2.4-.7,5.8-4.7,5.8Z"/><path class="cls-1" d="M1299.26,504.7c5.8,0,11.5-.1,17.3,0,1.7,0,4.5-1.2,4.5,1.7,0,2.6-.7,5.8-4.7,5.7a78.46,78.46,0,0,1-8.4,0c-3.9-.5-5.5,1.4-6.7,4.8-2,6.3-4.4,12.5-6.7,18.7-.9,2.4-11.4,4.3-13,2.4-.9-1.1-.1-2.3.3-3.4,2-5.8,3.8-11.6,6.1-17.3,1.6-3.9,1.5-5.8-3.4-5.2a15.14,15.14,0,0,1-5.2-.1c-1.8-.4-5.3,1.8-5.1-2.2.2-2.9,1.5-5.6,5.6-5.5,6.5.2,12.9.1,19.4.1Z"/><path class="cls-1" d="M950.86,537.5c-4.9,0-9.8-.1-14.7,0-2.6,0-4-.3-2.8-3.5,3.4-9.1,6.8-18.3,9.9-27.6,1.3-3.7,4.1-2.5,6.5-2.6,8.5-.1,8.5,0,5.7,7.7-1.8,4.9-3.4,9.9-5.4,14.7-1.4,3.3-.2,3.9,2.8,3.9,4.9-.1,9.8-.1,14.7.1,1.6.1,4.6-1.3,4.5,1.6-.1,2.5-.7,6-4.4,6.1-5.6.2-11.2,0-16.8,0Z"/></g></svg>