<svg id="Слой_1" data-name="Слой 1" xmlns="http://www.w3.org/2000/svg" viewBox="0 0 1072 612"><defs><style>.cls-1{fill:#ff8200;}</style></defs><title>MT Helmets </title><g id="Слой_1-2" data-name="Слой 1"><path class="cls-1" d="M630.85,536.55c-3.1,1.3-6.4.7-9.5,1-8.1.8-16.2,1-24.3,1.5-9.6.6-19.2.6-28.8.7-.7,0-1.5-.1-2,.5H528a2.08,2.08,0,0,0-2-.5c-9.9.2-19.7-.3-29.6-.8-9.5-.4-19-1.2-28.6-1.9a2.73,2.73,0,0,1-.8-1.9,77.73,77.73,0,0,0-.6-9.7c3.3-.8,6.7-.1,9.9.3,5.2.5,10.4.6,15.6.9,6.6.3,13.1.7,19.7.9,15.9.6,31.7.8,47.6.5,14.7-.3,29.4-.6,44.1-1.7,6.8-.5,13.5-.7,20.3-1.3a8.2,8.2,0,0,1,3.1.3c1.3.6,1.2,1.8,1,3-.3,1.9.3,3.7.2,5.6C627.45,536.25,630.15,535.35,630.85,536.55Z"/><path class="cls-1" d="M47.35,438.75c-8.6-1.3-17.6-9-14.5-20.3,2.4-8.8,7.7-15.3,15.2-20.2,11.3-7.3,22.6-14.5,33.9-21.7,1.8-1.1,2-2.3,1-4.1a109.46,109.46,0,0,1-12.4-37.3c-3.7-25.1,2.2-48.2,14.4-70.1,9.5-17,22.4-31.1,36.5-44.1a210.39,210.39,0,0,1,25.7-20.3,3.38,3.38,0,0,1,1.9-.9c1.2,1.3,1,2.9,1,4.4.1,6.8-.1,13.6.1,20.5.2,1.9-1.2,2.8-2.4,3.7a205.24,205.24,0,0,0-23.3,21.4c-14.5,15.2-25.7,32.4-31.2,52.9-5.4,20.2-4,40.1,3.8,59.6,1.1,2.7,1.5,2.8,4.1,1.2,8.9-5.5,17.5-11.4,26.5-16.7,10.3-6.8,20.9-13.1,31-20.1,15-9.3,29.9-18.9,44.7-28.4,14.4-9.3,29-18.3,43.4-27.6,9.5-6.2,19.1-12,28.5-18.3,5.7-3.9,10.5-8.6,11.8-15.9.7-4-.5-7.4-2.1-10.8-2.4-5.1-6-9.2-10.1-13.1-1.2-1.4-3.9-2.2-3.3-4.1.7-2.1,3.4-1.2,5.2-1.2,3.4-.1,6.8-.1,10.2-.2,2.1.4,4.2,0,6.3,0h176.9a34.55,34.55,0,0,1,5.6.2c2.1.6,1.5,1.6.3,2.5a57.17,57.17,0,0,1-5.8,3.7c-9.3,5.8-18.5,12-27.9,17.6a16.65,16.65,0,0,1-5,.3H319.75c-1.8,0-2.5.8-2.2,2.5a54.64,54.64,0,0,1,.4,5.6c1,11.3-4.7,18.9-13.5,24.8-6.6,4.4-13.4,8.6-20.1,12.8-20.5,13-40.9,26.1-61.4,39.1-31.2,19.7-62.2,39.6-93.4,59.4-18.4,11.6-36.6,23.4-55,35-4,2.5-7.3,5.8-11.1,8.7-5.6,1-7.6,5.5-9.8,9.8C52,432.35,50.35,436.05,47.35,438.75Z"/><path class="cls-1" d="M956.25,207.85h74.8c.8,0,1.6.1,2.5.1.1,0,.1.1.1.2s-.1.2-.1.3c-3.6,2.8-7.7,4.6-11.8,6.5-10.5,5-20.6,10.6-31,15.7-1.4.7-2.7,1.6-4.4,1.2a19.43,19.43,0,0,0-5.9-.6H570.65c-4.5,0-4.6,0-5.3,4.5-1.8,11.7-7.7,20.8-17,27.9-8.1,6.1-17.1,10.9-25.8,16-28.3,16.9-56.4,33.9-84.7,50.7-10.2,6.1-20.4,12.3-30.7,18.3a10.38,10.38,0,0,1-3.7,1.7c-2.2-.5-.8-1.7-.3-2.4a119.65,119.65,0,0,1,7.7-9.9c11.5-14.3,22.8-28.8,34.2-43.1a5.73,5.73,0,0,1,1.1-1.1c6.2-4.3,12.9-7.8,19.3-11.6l52.2-31.2a55.52,55.52,0,0,0,11.7-9.4c8-8.4,7.7-18.2-.8-26.2-2.1-1.9-4.4-3.5-6.7-5.2-.8-.5-1.6-1.2-1.4-2.3s1.4-1.1,2.3-1.2a36.88,36.88,0,0,1,4.7-.1h327.7c2,0,4,.4,5.9-.4,4.2-2.2,8.8-1.4,12.8-1.3-.6-1.6-2.6-3.1-.4-5.3,3.2.1,5.6,2.3,8,3.9a17.54,17.54,0,0,0,11.1,3.1c7.4-.2,14.8,0,22.1-.1,12.2-.1,24.4,0,36.7,0C953.15,206.85,954.85,206.85,956.25,207.85Z"/><path class="cls-1" d="M987.25,231.65c14.9-7.5,29.7-15,44.6-22.6a9.5,9.5,0,0,1,1.8-.6c-9.3,13-18.6,25.9-28,38.9-4,5.5-4.1,5.5-.4,11.2,10.1,15.7,16.8,32.6,18.8,51.2,2.6,24.4-3.5,47-15.7,68-11.3,19.3-26.3,35.2-43.4,49.3a205,205,0,0,1-19,14.3c-1.5.1-1.7-1.2-1.6-2.1.3-4.7-.9-9.4.2-14.1a7.9,7.9,0,0,1,2.9-3.6c15-12.4,28.2-26.4,38.4-43.1,8.1-13.4,13.5-27.9,14.8-43.5a92.34,92.34,0,0,0-8.7-48.5c-1.5-3.1-3.1-6.2-4.6-9.2a5.25,5.25,0,0,0-5.2-3.21c-12.5.11-25.1-.1-37.6.11-12.8.2-25.6-.21-38.4-.11a17.33,17.33,0,0,0-4,.21c-1.5.5-2.2,1.9-3,3.1q-21.75,32.55-43.7,65.1c-12.1,17.9-23.9,36-36.2,53.8-3.6,5.2-6.2,10.79-6.2,17.4a11.27,11.27,0,0,0,3.3,8.2,29.32,29.32,0,0,1,3.6,4.3l1.2,1.79c2.9,5.3,1.5,9.3-4.1,11.8a34.72,34.72,0,0,1-11,1.8c-6.1-.1-12.3.1-18.4-.1-27.4.2-54.7,0-82.1.1a34.55,34.55,0,0,1-5.6-.2c-6.7-1.6-6.6-1.6-3-7.4,1.8-2.9,2.9-6.2,4.8-9.1,1.2-1.8,2.1-3.8,4.2-4.9a14,14,0,0,1,5-.4h73.4c4.7,0,4.8,0,4.7-4.7-.2-9.6,2.9-17.9,8.4-25.7,10.2-14.4,20-29.1,30.1-43.6,18.8-27.3,37.5-54.6,56.4-81.8,4.5-6.5,10.7-9.2,18.5-9.2,20.1.1,40.1,0,60.2,0,13.1,0,23.1-8.9,24.6-21.9C986.85,232.35,987,232,987.25,231.65Z"/><path class="cls-1" d="M147.15,440.55c-24.5,0-48.9,0-73.4-.1-2.5,0-5,0-7.5-.1-2.4-.6-2.2-2.3-1.3-3.8,2.2-3.7,3.6-7.9,5.9-11.5,1.5-.7,3.1-.5,4.6-.5h81.2c6.8,0,9.9-2,11.5-8.2,1.8-6.7,5.9-11.4,11.6-14.9,20.9-12.9,41.6-26.1,62.4-39.1,22.9-14.3,45.6-28.8,68.5-43,1-.7,2-1.6,3.4-1.5,1.5,1.4-.2,2.2-.8,3-5,6-10,12-15.1,18-7.9,9.3-15.6,18.7-23.7,27.9a15.25,15.25,0,0,1-2.2,2.2c-23.8,14.9-47.5,30-71.3,44.9-2.4,1.5-2.4,1.5-.1,4.7-1,3.9-.8,3.7,3,6.4,4.7,3.4,10,5.8,14.4,9.5,1.2,7.4-2.3,9.3-8.6,9-3-.1-6,.6-9,.2-1.4-.2-1.9.7-1.3,2,.5,1,1.3,2,.3,3.1-2.1.5-3.7-.8-5-2-5.7-4.9-12.2-6.3-19.4-5.5-2.3.2-4.6-.1-6.9.3-5.2-.3-10.4-.1-15.6-.1A12.44,12.44,0,0,1,147.15,440.55Z"/><path class="cls-1" d="M149.65,225.45a6.41,6.41,0,0,1-.6-3.6v-22.2c3-3.3,7.1-5,10.7-7.5a328.24,328.24,0,0,1,37-20.9,513.78,513.78,0,0,1,47.6-20.6q26.4-9.9,53.4-17.5c3.1-.9,6.2-1.7,9.3-2.5,1,1.7.9,3.6.9,5.5.1,5.5-.3,11,.7,16.5-.4,1.9-2.1,2.1-3.6,2.5-14,3.9-27.9,8.1-41.6,12.9-36.4,12.8-71.3,28.6-103.2,50.7-2.5,1.7-5,3.5-7.4,5.3C152.05,224.85,151.15,226,149.65,225.45Z"/><path class="cls-1" d="M706.05,113.75c6.9.5,13.6,2.1,20.3,3.3,24.2,4.5,48.3,10,72,16.8a621.63,621.63,0,0,1,62.1,21.1,5.67,5.67,0,0,1,1.3.8c3.5,1.9,4.2,5,4,8.7-.2,4.8-.1,9.6-.1,14.4,0,1,.3,2.1-.6,2.9-1.4.6-2.7,0-3.9-.5a605.51,605.51,0,0,0-89.2-29.6c-20.6-5.2-41.3-9.6-62.3-13.1a28.32,28.32,0,0,1-4-.8c-.9-.2-2-.4-1.5-1.8a8,8,0,0,0,.9-4.5V118C705.15,116.45,705,115,706.05,113.75Z"/><path class="cls-1" d="M706.05,113.75v19.9c0,1.4,0,2.8-2,2.7-1.3,1.1-2.7.8-4.2.5-17.7-2.9-35.6-5.2-53.4-6.9-15.1-1.5-30.1-2.7-45.3-3.4-13.1-.7-26.3-1.1-39.4-1.3a72.28,72.28,0,0,1-13.1-1,4.23,4.23,0,0,1-2.4-4.3,154.9,154.9,0,0,0-.1-16.7,2.52,2.52,0,0,1,.6-2c15.2-.4,30.3.2,45.4.7,13,.5,26,1.4,39,2.5,13.4,1.1,26.7,2.5,40.1,4.1,10.9,1.4,21.8,3.1,32.7,4.6A12.88,12.88,0,0,1,706.05,113.75Z"/><path class="cls-1" d="M546.75,101.25c1.1,6.4.8,12.8.3,19.1-.1,1.8,1.2,2.2,1.6,3.4-1.2,1.2-2.7,1-4.1,1-11.2,0-22.3.5-33.5.8-13.2.4-26.4,1.2-39.6,2.2-25.6,1.9-51.1,4.7-76.5,8.6a6.66,6.66,0,0,1-3.7-.1c-2.6-.9-3.5-2.8-3.5-5.5,0-5,.2-9.9-.2-14.9a2.52,2.52,0,0,1,.6-2c6.4-1.6,12.9-2.2,19.3-3.1,7.3-1,14.6-1.9,21.9-2.8,7-.8,14-1.6,21.1-2.2l26.7-2.4c3.8-.3,7.7-.4,11.5-.6,7.5-.6,15-.4,22.5-.9C523,101,534.85,101.25,546.75,101.25Z"/><path class="cls-1" d="M864.25,484.55c-9.9,4.6-20.3,8.1-30.6,11.7-33.3,11.6-67.4,20.2-101.9,26.9-7.8,1.5-15.7,3.3-23.7,4-2.3.5-2.6-1-2.5-2.7a23.24,23.24,0,0,0-.3-7.9c.8-2.2,3-1.7,4.5-1.9,20.8-3.6,41.4-7.9,61.9-13.1a620.55,620.55,0,0,0,90-29.9c1.2-.5,2.5-1.3,3.8-.4C865.55,475.65,866.65,480.25,864.25,484.55Z"/><path class="cls-1" d="M864.65,181.55c0-7,0-13.9.1-20.9,0-1.6-1-2.4-2-3.4-.5-.4-1.9-.3-1.1-1.6,32.9,12.8,63.9,29.1,92.3,50,.8.6,1.8,1.1,2.2,2.1-14,0-28.1-.1-42.1-.1-4.8-2.1-9.1-5.1-13.7-7.6-10.9-5.9-22.1-11.4-33.4-16.4C866.05,183.25,864.75,183.05,864.65,181.55Z"/><path class="cls-1" d="M388.05,113.75c1.1,5.2.5,10.5.6,15.7,0,2.5-.1,4.9,2.6,6.2-1.2,1.7-3.1,1.6-4.8,1.9-22.2,3.6-44.2,8.2-66,13.6-2.9.7-5.8,1.7-8.8,2.3-1.1.2-2.3.7-3.3-.3-1.6-3.3-1.2-6.9-1.2-10.4v-12.1c19.6-5.2,39.2-9.8,59.2-13.3C373.55,116.15,380.75,114.55,388.05,113.75Z"/><path class="cls-1" d="M147.15,440.55c6.3,0,12.7,0,19-.1a7.31,7.31,0,0,1,3,.6,4.71,4.71,0,0,1,3.2,1c30.1,18.8,62.3,32.9,95.9,44.3,12.3,4.2,24.6,8,37.1,11.5,1.3.4,2.7.6,3.6,1.7.5,3.7,1,7.5-.5,11.1a619.09,619.09,0,0,1-63.7-20.1c-11.1-4.2-22.2-8.6-32.9-13.6-15.6-7.3-31-14.8-45.6-23.9C159.75,449.05,153.25,445.15,147.15,440.55Z"/><path class="cls-1" d="M308.45,510.75v-11.1c1-1.1,2.2-.4,3.2-.2,25.5,6.6,51.2,12.1,77.2,16.3q28.35,4.65,56.8,7.3c5.7.6,11.4.8,17.1,1.7,1.1.2,2.3.1,3.1,1.2,1.5.5,2.5.8,2,3.1-.6,2.6-.1,5.3-.1,8-5.8.1-11.6-.9-17.4-1.4-6.9-.5-13.8-1.5-20.8-2.3-8.8-1.1-17.5-2-26.3-3.3-11.9-1.7-23.8-3.8-35.6-6-13.5-2.5-26.9-5.2-40.2-8.5C321.05,514.05,314.75,512.35,308.45,510.75Z"/><path class="cls-1" d="M864.25,484.55c1.2-4.4-.2-9,1.1-13.4.4-1.6,1.8-1.9,3-2.4a375.46,375.46,0,0,0,47.1-24.5,292.13,292.13,0,0,0,26.3-18.1c.9-.7,1.7-1.9,3.2-1.4,0,4.4-.1,8.8-.1,13.2,0,1.2-.1,2.5.9,3.4a268.61,268.61,0,0,1-28.8,18.2A416.61,416.61,0,0,1,864.25,484.55Z"/><path class="cls-1" d="M705.35,516.45c2.7,2.3,1.2,5.3,1,7.9-.1,1.7-.1,2.6,1.7,2.9-6,1.6-12.2,2.2-18.3,3.1-11.1,1.6-22.2,3.1-33.4,4.2-8.5.8-16.9,2.2-25.5,2.1-1,0-2.1,0-3.1-.1s-1.5-.6-1.3-1.4c1-3-.9-6.2.5-9.2,1.1-1.4,2.7-1.4,4.3-1.6q34.95-2.85,69.6-8.4C702.45,515.65,704,515.15,705.35,516.45Z"/><path class="cls-1" d="M70.65,425.65c-.5,3.5-2.5,6.4-4,9.5-.9,1.7-3,3.5-.3,5.4-6.4.3-12.7.2-18.9-1.7,3.3-5.8,6.3-11.8,9.9-17.4a6.49,6.49,0,0,1,6-2.6c-.1,3.6,1.9,5.3,5.2,5.8A2.28,2.28,0,0,1,70.65,425.65Z"/><path class="cls-1" d="M477.15,207.85c1,1.1-.1,1.9-.4,2.8-10,27-20,54.1-30,81.1-.4,1.1-.6,2.2-1,3.3-4.6,6-9.2,12-13.9,18q-14.7,18.75-29.4,37.4c-1.3-.9-.1-1.7.1-2.4,7.7-22.7,15.6-45.3,23.4-67.9,5.4-15.6,10.7-31.1,16.1-46.7.3-1,.9-1.9.6-3,5.5-4.3,11.7-7.6,17.5-11.4C465.75,215.15,471.45,211.55,477.15,207.85Z"/><path class="cls-1" d="M196.15,265c-7.8,8.1-15.4,16.4-21.7,25.8-6.9,10.4-12.2,21.5-15,33.8a19,19,0,0,0-.3,2.5c-8.8,6.3-18.1,11.7-27.2,17.6l-3.6,2.4c.9-27.9,13.3-50.8,31.1-71.3a207.14,207.14,0,0,1,36.1-32.6,4.25,4.25,0,0,1,1.5,3.6c.2,5.1.1,10.2.1,15.3A7.71,7.71,0,0,1,196.15,265Z"/><path class="cls-1" d="M275.75,212.25c-2.9,1.4-5.8,2.9-8.8,4.3a4.47,4.47,0,0,1-2.1-3.9c0-3.3.3-6.6.2-9.8,11.2-5.5,22.8-10.2,34.5-14.6a668.59,668.59,0,0,1,102.9-29.7c1.2,3.4,1,7,1.3,10.5-8.2,2.1-16.5,4.1-24.7,6.3a602.37,602.37,0,0,0-92.5,32.1c-4.8,1.1-9.7,0-14.8.7C272.65,210,275,210.35,275.75,212.25Z"/><path class="cls-1" d="M872.35,199.55c.4.2.8.5,1.2.7-1.3,1.4.4,2.2.6,3.3.2,1.6.2,2.4-1.9,2.4-3.6-.1-7.3-.7-10.7,1.2-24.7-14.4-51.1-24.8-78.5-32.9-11.4-3.4-22.9-6.2-34.3-9.2-1.6-2.6-1-5.4-.7-8.2.2-1.4,1.2-1.8,2.6-1.2,11.5,2.1,22.8,5.1,34,8.3,24.8,7,49,15.7,72.1,27.1,3.4,1.7,6.7,3.6,10,5.4C867,200.55,870.25,199,872.35,199.55Z"/><path class="cls-1" d="M819,426.15c7.1-2.6,13.4-6.6,19.9-10.4a283.08,283.08,0,0,0,28.7-18.8,248.55,248.55,0,0,0,19.5-16.1,164.26,164.26,0,0,0,25.2-28.8c8.8-13,14.7-27.1,16.5-42.9a80.42,80.42,0,0,0-3.8-34.1c-.6-1.8-1.8-1.4-2.9-1.4h-21.6c1-1.1,2.4-.6,3.5-.6h41.1c2.6,5.1,1.5,8.4-2.9,12.7-8.4,8.1-5.5,22.1,5.1,27.8,2.6,1.4,2.8,2.8,2.4,5.4-3.8,21.7-14.5,40-28.6,56.5-18.6,21.8-41.3,38.5-65.7,53.1a345.09,345.09,0,0,1-37.6,19.7c-1.5-3.1-1.4-6.2-.6-9.5,4.7-2.5,5.7-5.7,3.2-10.2C820,427.75,819.45,427,819,426.15Z"/><path class="cls-1" d="M817.15,438.75c.8,3.1.5,6.3.6,9.5-12.9,6.4-26.2,11.7-39.6,16.8-31.2,11.8-63.3,20.8-95.8,28.1-.6.1-1.2.1-1.9.2-2.4.5-1.8-1.4-1.7-2.5a119.07,119.07,0,0,0-.3-15.8c8.3-2.1,16.7-4.1,25-6.2a632,632,0,0,0,81.6-26.6c.9-.4,2-.6,2.6-1.6,5.8,0,11.7-.1,17.5,0A40.67,40.67,0,0,0,817.15,438.75Z"/><path class="cls-1" d="M698.55,440.45c-6.9.1-13.8.6-20.6-.7a30.05,30.05,0,0,1-3.2-1.1c-.9-1-.4-2,.2-2.8a52.22,52.22,0,0,0,5.3-9.5A13.63,13.63,0,0,1,686,420c6.5.8,13,.3,19.4.6a46.77,46.77,0,0,0-6.7,11.4,26,26,0,0,1-3.1,5c-.5.6-1.5,1.1-1.1,2,.4,1.1,1.5,1,2.4,1A2.16,2.16,0,0,1,698.55,440.45Z"/><path class="cls-1" d="M225.55,435.75a359.77,359.77,0,0,0,71,30.6c11.1,3.5,22.3,6.6,33.7,9.3,1.3.3,2.6.8,3.8,1.2.2.4.1-.1.2.3,1.2,7,1.5,14-.2,20.9-42.3-8.7-83.3-21.5-121.6-41.9a123.63,123.63,0,0,1-12.7-7.4c.3-1.2-.5-1.8-1.3-2.6a2.56,2.56,0,0,1-.3-2.9c.5-1.1,1.5-.6,2.4-.6a72.61,72.61,0,0,0,14-.5,3.51,3.51,0,0,0,3-3.8c-.2-1.5.5-2.8.3-4.2l.3-.3c1.7-.7,3,.2,4.2,1.3C223.55,436.05,224.35,436.75,225.55,435.75Z"/><path class="cls-1" d="M240.55,438.55c1.7-5.4,4.3-10.4,6.7-15.5,8.1-17.7,16.4-35.4,24.5-53.1.2-.5.8-1.1.2-1.7,5.4-5.5,10.1-11.6,15.1-17.5,7.6-8.9,15.1-17.8,22.6-26.7,1.7-2,3.3-4,4.9-6,3-2,6-4,9.1-6,.5,1-.2,1.6-.5,2.2Q299,366.6,274.75,418.85c-.3.6-.6,1.1-.9,1.6-1.8,2.8-5,3.7-7.7,5.1-7.4,4-14.8,8.2-22.3,12.1C243,438.35,242,439.35,240.55,438.55Z"/><path class="cls-1" d="M212.35,427.45l1.3,1c.6,1.5,2.1,1.9,3.2,2.8s2.1,1.5,1.1,3h0c-3.2.5-4.2-2.7-6.5-3.7-3.1-1.3-5.7-3.5-8.5-5.2-4.5-2.7-4.7-2.6-2.6-6.7.7.6,1.4,1.1,2.1,1.7.9,1.2,1.6,2.8,3.6,2.6l2.5,1.9C209.05,426.85,210.25,427.85,212.35,427.45Z"/><path class="cls-1" d="M404.35,489c7.5.6,14.9,1.3,22.4,1.9,6.5.6,13,1.3,19.6,1.7,22.8,1.4,45.6,1.6,68.5,1.3,8.1-.1,16.3-.4,24.4-.6,3.7-.5,3.7-.4,3.6,3.2-.1,3.3,0,6.6-.1,10-.1,2.5.3,4.4,3.3,4.5.4,0,.7.4,1,.7-4.4.9-8.9.7-13.4.9-28.1,1.3-56.2,1.4-84.3,0-15.2-.7-30.4-1.7-45.6-3.6a1.61,1.61,0,0,1-.9-1.8c1-4.9.4-9.9.6-14.9C403.45,491,403.45,489.85,404.35,489Z"/><path class="cls-1" d="M547,511.55c-5.2-.3-5.2-.3-5.2-5.5,0-3.8.1-7.5.2-11.2.1-2.6-1.9-1-2.8-1.5.9-.8,2-.5,3-.6,13.6-.5,27.2-1.7,40.8-3,13.1-1.2,26.1-2.7,39-4.6q26.85-3.9,53.3-9.6c1-.2,2.1-.3,3.1-.4,1.4.6,1.4,1.9,1.3,3.2-.2,4.6.4,9.3-.4,13.9-.2.9.4,1,1.1,1.2-10,2.7-20.2,4.3-30.3,6.2-26.3,4.9-52.8,8.1-79.5,10.5C562.75,510.75,554.85,511.05,547,511.55Z"/><path class="cls-1" d="M404.35,489c0,6.6.3,13.3-.6,19.9-10.3-.7-20.5-2.2-30.6-3.7-13.1-1.9-26.1-4.1-39-7V477c7.3,1.5,14.6,3,22,4.4,14.2,2.7,28.5,4.8,42.7,6.8C400.65,488.45,402.55,488.65,404.35,489Z"/><path class="cls-1" d="M740.55,275.05c-12.6.2-25.3-.8-37.9.6-11.5,1.3-20.8,6.6-27.1,16.5q-26.25,40.65-52.3,81.5c-6.3,9.8-12.7,19.7-18.9,29.6-8,12.7-3.6,25.5,10.6,30.6a8.93,8.93,0,0,1,4.1,2.1c1.7,2,1.3,3.8-1.2,4.5a13.2,13.2,0,0,1-2.8.2q-97.5,0-195-.1c-.5,0-3,1.6-1.9-1.3,2.8-2.4,6.4-3,9.6-4.2,8.5-3.2,16.9-6.3,25.5-9.2,1-.4,2.1-1.1,3.2-.3,2.2,0,4.4.1,6.6.1q55.2,0,110.4.1c2.8,0,3.7-.6,3.6-3.6-.5-13.5,3.3-25.8,10.6-37.3q32.4-50.55,64-101.5c9.7-15.6,24-23.5,41.6-26.6A133.71,133.71,0,0,1,717,255h60.5c.5,0,2.5-1.1,1.4,1.2-5.4,2-10.2,5.1-15.2,7.8-6.4,3.5-12.8,6.8-19.2,10.4C743.35,275.05,742.05,276.05,740.55,275.05Z"/><path class="cls-1" d="M240.55,438.55c11.1-6,22.2-12,33.4-18-.1,1.9,1.4,1.2,2.2,1.2,5.5.1,11.1,0,16.6,0h56.1a10,10,0,0,0,5.3-1.4q84.45-50.7,168.9-101.2c1-.6,1.8-1.5,3-1.5.3,1.5-.9,2.3-1.8,3.1-7.5,7.3-15.3,14.2-23,21.3-6.4,5.9-12.7,11.8-19.1,17.7-7.8,7.1-15.3,14.5-23.3,21.4a5.17,5.17,0,0,1-3.8,1.7q-24.75,14.7-49.6,29.4c-15.3,9.1-30.7,18.2-46,27.4a6.2,6.2,0,0,1-3.5,1H241.85C240.55,440.55,238.65,440.85,240.55,438.55Z"/><path class="cls-1" d="M740.55,275.05c5.1-1.2,9.2-4.4,13.7-6.7,7.5-3.8,14.9-8,22.3-12.1.8-.4,1.6-1.2,2.4,0q-26,41.55-52,83c-14.8,23.5-29.5,47-44.3,70.4-.2.4-.4.7-.6,1.1-2.7,5-1.5,7.8,4,9.3,0,1.3-1.3,1.5-1.9,2.2-3.9,5-6.3,10.9-9.4,16.5-7.5-2.3-13.6-10.2-14.5-17.9-1.5-12.7,3.4-23.4,9.9-33.6q23.1-36.3,46.2-72.7c7.8-12.3,15.5-24.6,23.3-36.9C740.15,276.75,740.75,276.05,740.55,275.05Z"/><path class="cls-1" d="M455.15,382.75c2.6-1,4.4-3,6.4-4.8,12.9-11.9,25.6-23.8,38.5-35.7,8-7.4,16.1-14.8,24.1-22.3.7-.7,1.7-1.3,2-2.3a82.43,82.43,0,0,1,13.9-8l-1.5,2.4q-39.9,55.05-79.7,110.1c-.8,1.1-1.5,2.2-2.3,3.4-12.2,4.4-24.4,8.8-36.5,13.2-.6.2-1.2.3-1.8.5,3.3-6,7.5-11.4,11.3-17.1,8.1-12.1,16.3-24.1,24.4-36.1C454.45,385.05,455.85,384.25,455.15,382.75Z"/><path class="cls-1" d="M474,146.45c13.4-2.1,26.9-3.2,40.4-4.3q40-3.3,80.4-3c5.3,0,10.6.3,16,.5,1.5,3,1,6.1.6,9.3-14.3,0-28.6-.3-42.9.2-13.9.4-27.9,1.1-41.8,2.2-10.6.8-21.1,1.8-31.7,2.8-5.9.5-11.7,1.5-17.6,2.2-1.1.1-2.3.1-3.4.2-2.6-2.7-.9-6-1.5-9C472.45,146.65,473.45,146.75,474,146.45Z"/><path class="cls-1" d="M611.35,148.85c-1.2-3-.4-6.2-.6-9.3,14.4,0,28.8,1,43.1,2.1,14.9,1.1,29.7,2.6,44.5,4.7,17.5,2.5,35.1,5.2,52.3,9.4-1.4-.1-2,.6-1.9,2,.1,2.4,0,4.9,0,7.3-10-1.9-19.9-4-29.9-5.8-11.1-2-22.3-3.6-33.5-4.8-9.1-1-18.1-2.1-27.2-3-6.2-.6-12.4-1-18.7-1.3C630.05,149.65,620.75,149.25,611.35,148.85Z"/><path class="cls-1" d="M474,146.45c-1.4,2.7-.3,5.6-.4,8.4a8.33,8.33,0,0,0,.4,1.5c-6.5,1-12.9,2.1-19.4,3.1-14.4,2.2-28.7,4.9-42.9,7.9-2.6.6-5.2,1.6-7.9,1.5-1.8-3.3-1.2-6.9-1.3-10.5,20.3-4.5,40.7-7.9,61.3-10.8C467.15,147.25,470.55,146.85,474,146.45Z"/><path class="cls-1" d="M265.05,202.75a8.74,8.74,0,0,1,.8,6,10.21,10.21,0,0,0,1.1,7.8c-25.3,13.2-49.3,28.2-70.1,47.9a2.18,2.18,0,0,1-.8.5c0-5-.1-9.9,0-14.9a32.56,32.56,0,0,0-.6-7c11-8.7,22.9-16,35-22.9A349.66,349.66,0,0,1,265.05,202.75Z"/><path class="cls-1" d="M872.35,199.55c-1.9,2.1-4-.7-6,.3-.4-1.2-.7-2.4.4-3.4A23.54,23.54,0,0,1,872.35,199.55Z"/><path class="cls-1" d="M487.85,456.85c0,5.1-.1,10.1,0,15.2.1,2-.5,2.6-2.4,2.4a16.05,16.05,0,0,0-3.1,0c-1.3.1-1.6-.4-1.6-1.6v-21c0-1.3.4-2,1.8-1.8h.6c7.8-.2,7.8-.2,10.4,7.2,1.2,3.5,2.5,7.1,4,11.2,1.9-5.5,3.7-10.4,5.3-15.3.7-2.3,1.7-3.3,4.3-3.2,7.2.2,7.2.1,7.2,7.4,0,4.8-.1,9.6,0,14.4,0,1.9-.3,2.7-2.5,2.7-4.7-.2-4.7,0-4.6-4.5a119.16,119.16,0,0,0-.5-13.3c-1.4,4.4-2.8,8.8-4.2,13.1-1.5,4.8-1.5,4.7-6.5,4.7-1.7,0-2.3-.6-2.8-2.2-1.5-5.2-3.2-10.3-4.9-15.5A.75.75,0,0,1,487.85,456.85Z"/><path class="cls-1" d="M547.45,474.35c-3.7,0-7.3-.1-11,0-1.5,0-2-.4-2-1.9q.15-10.2,0-20.4c0-1.6.5-2.1,2.1-2.1q10.5.15,21,0c1.9,0,1.8,1,1.9,2.3.1,1.5-.3,2-1.9,2-4.4-.1-8.8.1-13.1-.1-2.2-.1-2.8.5-2.8,2.7,0,2.4.6,3,3,2.9,3.7-.2,7.5,0,11.3-.1,1.7-.1,2.3.4,2.3,2.2s-.7,2-2.2,2c-4.1-.1-8.1.1-12.2-.1-2.8-.1-2,1.7-2,3.1s-1,3.2,1.9,3.1c4.8-.2,9.6,0,14.4-.1,1.7,0,2.4.4,2.4,2.2s-.7,2.2-2.4,2.2C554.55,474.35,551,474.35,547.45,474.35Z"/><path class="cls-1" d="M409.35,474.35c-3.5,0-7.1-.1-10.6,0-1.5,0-1.9-.4-1.9-1.9q.15-10.2,0-20.4c0-1.5.3-2.2,2-2.2q10.5.15,21,0c1.7,0,2.1.5,2.1,2.1s-.4,2.2-2.1,2.2c-4.6-.1-9.2.1-13.8-.1-2.2-.1-2.4.9-2.2,2.6.1,1.5-.5,3.2,2.2,3,4-.2,7.9,0,11.9-.1,1.4,0,2.6-.2,2.6,2s-1.1,2.2-2.7,2.2c-4-.1-7.9.1-11.9,0-3.1-.1-1.8,2.1-2,3.5s-.5,2.9,2,2.8c4.8-.2,9.6,0,14.4-.1,1.7,0,2.4.3,2.4,2.2s-.6,2.3-2.3,2.2Z"/><path class="cls-1" d="M634.55,449.75a24.63,24.63,0,0,1,8.8,1.4,18.65,18.65,0,0,1,2,1,6.66,6.66,0,0,1,3,4.6c.1.7-.4,1-1,.8-2.1-.6-4.6,1.4-6.4-1.4s-9.5-3.3-11.8-1.2c-1.5,1.4-1.2,3,.8,3.8,3,1.2,6.3,1.2,9.5,1.7a33.65,33.65,0,0,1,5.5,1.2c2.2.8,4,1.9,4.3,4.5a6.69,6.69,0,0,1-2.9,6.5c-4.8,3.5-17.9,3.3-22.4-.3-1.5-1.2-3.6-3.2-2.5-4.7.9-1.3,3.9-.4,5.9-.3.4,0,.7.9,1.1,1.4,2.4,2.8,10.5,3.4,13.1,1,1.6-1.5,1.1-3.3-1.2-4.3-2.6-1.1-5.5-1.1-8.3-1.5a28.16,28.16,0,0,1-6.4-1.4c-2.2-.8-3.9-2.2-4.1-4.7a6.33,6.33,0,0,1,3.3-6C628,449.85,631.55,449.75,634.55,449.75Z"/><path class="cls-1" d="M349.05,462.35c0-3.3.1-6.7,0-10-.1-1.7.4-2.6,2.2-2.3a10.45,10.45,0,0,0,2.5,0c2-.3,2.4.5,2.4,2.4,0,6.8.1,6.8,6.7,6.8s6.8,0,6.8-6.7c0-2.2.8-2.5,2.7-2.5,4.4.1,4.4,0,4.4,4.5,0,5.7-.1,11.5.1,17.2.1,2.3-.6,3-2.8,2.7a13.1,13.1,0,0,0-2.8,0c-1.3.1-1.6-.4-1.6-1.6.1-2.5-.1-5,0-7.5.1-1.5-.4-2-2-2-3.2.1-6.5.1-9.7,0-1.8-.1-2.1.7-2,2.2.1,2.2-.1,4.4.1,6.6s-.6,2.6-2.5,2.3a10.45,10.45,0,0,0-2.5,0c-1.9.3-2.2-.6-2.2-2.3C349.15,468.85,349.05,465.65,349.05,462.35Z"/><path class="cls-1" d="M590.65,450.05c4,0,7.9.1,11.9,0,1.9-.1,1.8,1,1.9,2.3.1,1.5-.4,2.2-1.9,1.9h-.3c-2.6.2-6.1-1.2-7.4.6s-.4,5-.4,7.6c0,3.2-.1,6.5,0,9.7.1,1.9-.6,2.2-2.3,2.2-5,0-5,.1-5-4.8,0-4-.2-7.9.1-11.9.1-2.6-.4-3.9-3.3-3.4-1.5.2-3.1,0-4.7.1s-2.5,0-2.5-2.1c0-1.8.7-2.3,2.4-2.2C583,450.15,586.75,450.05,590.65,450.05Z"/><path class="cls-1" d="M442.05,462.15c0-3.2.1-6.5,0-9.7-.1-2,.6-2.6,2.5-2.4a10.45,10.45,0,0,0,2.5,0c1.9-.3,2.3.6,2.2,2.3-.1,5.1.1,10.2-.1,15.3-.1,2,.6,2.5,2.5,2.4,4-.1,7.9,0,11.9-.1,1.8-.1,2.3.5,2.3,2.3,0,1.6-.5,2.1-2.1,2.1-6.6-.1-13.2-.1-19.7,0-1.5,0-1.9-.5-1.9-2C442.05,469.05,442.05,465.55,442.05,462.15Z"/><path class="cls-1" d="M218.05,434.25c0-1.7-1.2-2.5-2.4-3.3-.9-.6-2.1-1.1-1.9-2.5,3.9,2.4,7.9,4.9,11.8,7.3-.7,2-1.8,2.3-3,.6S220,434.25,218.05,434.25Z"/><path class="cls-1" d="M212.35,427.45c-.7,1.6-1.9,1-2.8.3s-2.3-1.4-1-2.9C209.85,425.75,211.15,426.55,212.35,427.45Z"/><path class="cls-1" d="M206.15,423c-1.6,1.2-3.2.1-3.6-2.6C203.75,421.25,205,422.15,206.15,423Z"/><path class="cls-1" d="M958.35,281.25c-9.6,0-17,7.1-17,16.3s7.6,16.3,17.1,16.3,17.1-7.3,17.1-16.4S968,281.15,958.35,281.25Zm4.7,24.9c-1.1-2-2.7-3.7-3.8-5.7-1-1.8-2.6-1.7-4.1-1.4s-.8,1.9-.9,2.9a36.85,36.85,0,0,0,0,4.7c.1,1.5-.5,2-2,2-1.7,0-1.8-.8-1.8-2.1,0-6.1.1-12.1,0-18.2,0-1.5.3-2.3,2.1-2.2,2.6.1,5.2,0,7.8.1,4.8.2,7.3,1.8,7.8,5.2.6,3.6-1,5.7-6.2,7.5,2.1,3.1,4.2,6.1,6.5,9.3C965.75,309.25,964.25,308.25,963.05,306.15Z"/><path class="cls-1" d="M957.65,296.25c-1-.3-2.8.7-3.2-.6a9.79,9.79,0,0,1,.1-6.1c.5-1.1,2.1-.5,3.2-.5,4.8,0,6.6.9,6.7,3.4C964.55,295.15,962.65,296.25,957.65,296.25Z"/></g></svg>