<svg id="Слой_1" data-name="Слой 1" xmlns="http://www.w3.org/2000/svg" viewBox="0 0 3070.6 494.42"><defs><style>.cls-1{fill:#ff8200;}</style></defs><title>Nexx </title><g id="Слой_12" data-name="Слой 12"><path class="cls-1" d="M130.35,111.57c13.7-5.7,27.9-10.3,42-15,13.6-4.5,27.2-8.6,41-12.3a3.73,3.73,0,0,1,3.4.5c33.6,20.9,67.2,41.6,100.7,62.7,2.9,1.8,6.6,2.8,8.4,6.1,11.4,4.6,21,12.1,31.4,18.5,37.1,22.8,74,45.9,111,68.9,2,1.3,3.4,1.3,5.5,0q65.25-40.5,130.6-80.8c13.8-8.6,27.7-17.1,41.5-25.7a17.38,17.38,0,0,1,1.9-1,15.27,15.27,0,0,1,2.5,4.5,127.48,127.48,0,0,1-11.2,8.1q-20.1,14-40.5,27.4c-12.3,8-24.3,16.4-36.5,24.5-7.8,5.2-15.6,10.2-23.4,15.4-8.1,5.4-16.1,10.9-24.2,16.2-11.5,7.6-23,15-34.6,22.5-1,.7-1.8,1.3-1.6,2.7-1.9,1.5-2.1,4.4-4.3,5.6a28.28,28.28,0,0,1-4.7-2.9c-14.5-9.8-29.4-19.1-43.8-29-12.2-8.4-24.6-16.4-36.8-24.6-7.5-5-14.8-10.3-22.4-15.2-9.3-6-18.1-12.7-27.6-18.3-4.6-2.7-8.7-6.1-13.1-9.2q-19.2-13.35-38.4-26.6c-9-6.2-18.1-12.4-27.2-18.6-.7-.5-1.4-1.4-2.1-.4-1.5,2-3.7,3.3-3.7,6.6.3,15.5.2,30.9,0,46.4,0,3.1,1.1,4.4,3.8,5.2,8,2.2,16,4.2,24.2,5.7,4.1.8,8.4,1.2,11.9,3.6,7.7,5.4,15.5,10.7,23,16.4,5.9,4.5,12.2,8.3,17.6,13.3-1,1.6.2,1.9,1.3,2.6,1.6,1.1,4.3,2.3,3.5,4.4-1.6,4.7-1.4,9.5-1,14.3.2,2.6.4,5-.8,7.3-9.6-6.7-19.3-13.4-28.9-20.1-9.3-6.5-18.6-13-27.8-19.6-1.8-1.3-4-1.7-6-2.3q-72.6-21.6-145.4-43a8.56,8.56,0,0,1-1.69-.7c.5-.7,1.39-1.3.6-2.3h0c3.3-.4,2.2-2.2,2-4.5A210.21,210.21,0,0,1,130.35,111.57Z"/><path class="cls-1" d="M777.25,165.37c-6.5,2.1-13.1,3.8-19.7,5.7-7,2-13.9,4.2-20.9,6.3q-29.25,8.4-58.5,16.9c-5.3,1.5-10.5,3.1-15.8,4.6a13.29,13.29,0,0,0-4.1,2.1l-39.6,28.5c.9-1.5-1.5-1.4-1.2-2.2,1-2.3.3-4.6.5-6.9.1-3.2.9-6.7-.2-9.4-1.3-3.5.5-5.7,1.4-8.4a2,2,0,0,1,.8-1.3c9-6.6,18-13.3,27-19.9a7.29,7.29,0,0,1,2.9-1.1c13.1-2.6,26.2-5.2,39.8-7.8-2.6-.3-2.7-1.8-2.3-3.2a15.35,15.35,0,0,0,.5-4.3v-52.2c10.4-7.3,20.7-14.7,31.1-22,.9-.6,1.9-1.2,2-2.4h0c.9.3,1.2-.3,1.5-.9,2.1-1.8,4-2.7,7.1-1.6,7.9,2.7,15.9,4.9,23.9,7.6,6,2,12.1,3.6,18,5.7-1.3,2.2,1.5,1.9,1.8,3-3.2.6-3.8,2.9-3.8,5.6v43.3c0,2.3,0,4.4,3.1,4.7.8.1,1.7,1.1.4,1.5-3.1,1.1-.2,4.2-2.1,5.6.2.2.4.7.6.6C773.75,163.07,775.15,165.17,777.25,165.37Z"/><path class="cls-1" d="M337.65,241.47c1.3-2.3,1.1-4.7.8-7.3-.4-4.7-.6-9.5,1-14.3.7-2.2-1.9-3.4-3.5-4.4-1.1-.7-2.3-1-1.3-2.6,6.4,3.9,12,8.8,18.1,13.1,16.6,11.8,32.4,24.6,48.5,37.1,9,7,17.9,14.4,26.7,21.6,6.2,5.1,12.5,10,18.7,15,7,5.7,13.9,11.4,20.6,17.5,3.3,3,7,5.6,10.4,8.6,7.9,6.9,16.1,13.4,23.3,21.1,4.7,5,10.6,8.5,15.4,13.5a89.5,89.5,0,0,0,12,11c6.7,6.5,13.5,13,20.1,19.6,2.1,2.1,4.9,3.6,5.7,6.8-9.5-6.7-19-13.4-28.4-20.2-17.8-12.8-35.6-25.5-53.3-38.5-2.1-1.5-3.3-1.2-5.2.1l-82.2,59.7a4.91,4.91,0,0,1-2.5,1c3.5-5,8.5-8.3,12.8-12.5,4.5-4.4,9.1-8.7,13.7-13.1,2.7-2.5,5.4-4.9,8.1-7.4l.6-.6c5.3-4.7,10.5-9.4,15.8-14,9.2-8,18.4-16.1,27.6-24,1.8-1.5,1.5-2.3-.3-3.6-5.3-3.7-10.4-7.7-15.5-11.6l-26.1-19.5c-.9-.6-1.7-1.3-2.7-.4-2.3,1.9-5.3,2.7-7.3,5a4.72,4.72,0,0,0-2.5,1.1c-9.6,6.2-19.2,12.5-28.9,18.7-7.3,4.6-14.8,8.9-21.9,13.7-8.7,5.8-17.7,11.2-26.5,16.8-6,3.8-11.9,7.7-18,11.3-6.4,3.8-12.1,8.9-20.1,9.4-2.7.2-3.9,2.3-4,5V389a4.47,4.47,0,0,0,1.2,3.1,449.51,449.51,0,0,1-56.9-11.9c6.5-2.8,12.9-5.7,19.5-8.3a313.94,313.94,0,0,0,50.7-25.8c22.3-14,45-27.3,67.6-41,10.4-6.3,20.8-12.5,31.1-18.7-.1-1.2-1.1-1.5-1.8-2-18.6-13.1-37.3-26.2-55.9-39.4C340.85,243.87,339,243,337.65,241.47Z"/><path class="cls-1" d="M619.25,202.37c-.9,2.7-2.7,4.9-1.4,8.4,1,2.8.3,6.3.2,9.4-.1,2.3.6,4.6-.5,6.9-.4.8,2.1.7,1.2,2.2-18.4,13.4-36.9,26.8-55.3,40.2-6.7,4.9-13.4,9.9-20.3,14.6-2.3,1.6-1.9,2.1.2,3.4,6.7,4,13.2,8.4,19.9,12.4,1.4.8,1.7,2.5,3.1,3.1,9.9,4.1,18.3,10.6,27.3,16.1q30.45,18.9,60.7,38.1c8.2,5.2,17.6,7.3,26.4,10.9,9.2,3.8,18.6,7.1,27.9,10.6.4.1.8.1.9,1.1l-19.8,4.5c-19.5,4.2-39.2,7.5-58.9,10.3-4.6.6-9.1,1.6-13.7,1.6-2.7.1-5.4.3-3.5-3.8.2-.4,0-1,0-1.5v-30.6c0-2.8,3-5.8-.6-8.5-1-.8-1.5-2.3-2.8-3.1-5.7-3.4-11.4-6.9-17-10.5-8-5.1-15.9-10.4-23.9-15.6-6.9-4.5-13.7-9-20.6-13.3-3.9-2.4-7.4-5.5-11.7-7.2h0l-.6-.6c-3.7-2.4-7.4-4.7-11.1-7.1q-18.3-12-36.7-23.9c-4.5-2.9-8.6-6.3-13.4-8.7l-.6-.6a4.35,4.35,0,0,0-.7-.6c2.2-1.3,2.4-4.1,4.3-5.6,1,.5,2,.9,3,1.5,12,7.2,23.9,14.4,35.8,21.6,1.7,1.1,2.9.8,4.4-.4,3.5-3,7.1-5.9,10.7-8.8,20.3-16,40.5-32.1,61.1-47.6C601.75,214.87,610.25,208.27,619.25,202.37Zm-2.6,26.6c-.5-.9-.8-2-2.1-2.3a.71.71,0,0,0-.8.7c0,1.4,1.3,1.7,2.1,2.4C616.05,230,616.45,229.47,616.65,229Z"/><path class="cls-1" d="M288.05,392.07a4.3,4.3,0,0,1-1.2-3.1c.1-4.9,0-9.9,0-14.8,0-2.7,1.2-4.9,4-5,8-.5,13.8-5.6,20.1-9.4,6.1-3.6,12-7.6,18-11.3,8.8-5.6,17.8-11,26.5-16.8,7.2-4.8,14.7-9.1,21.9-13.7,9.7-6.2,19.3-12.4,28.9-18.7a6.19,6.19,0,0,1,2.5-1.1c-.4,3,.6,5.9.6,8.9v60.8c0,1.5.2,3-1.3,4.2-.9.7-.9,1.9.7,2.2-4.6,4.4-9.2,8.7-13.7,13.1-4.3,4.2-9.3,7.5-12.8,12.5-1.3,2.1-3.2,2.4-5.5,2.2-16.6-1.4-33.2-2.8-49.7-4.8C314.05,395.87,301.05,394.27,288.05,392.07Z"/><path class="cls-1" d="M537,302c4.3,1.7,7.8,4.8,11.7,7.2,7,4.3,13.8,8.8,20.6,13.3,8,5.2,15.9,10.4,23.9,15.6,5.6,3.6,11.3,7,17,10.5,1.3.8,1.8,2.3,2.8,3.1,3.6,2.8.6,5.7.6,8.5v30.6c0,.5.2,1.1,0,1.5-2,4.1.8,3.9,3.5,3.8-5.9,1.4-11.9,1.7-17.9,2.3-12.1,1.2-24.3,2-36.5,3.1-2.6.2-4.8-.2-6.6-2.2-.1-.9-.3-1.6-1.4-1l-.1-.2c.1-.5,0-.7-.5-.4h0c-.8-3.2-3.6-4.7-5.7-6.8-6.6-6.6-13.4-13.1-20.1-19.6a2.39,2.39,0,0,1,2.5.9c1.7,2.2,4,.9,5.7.6s1-2.6,1-4.1v-58.4C537.55,307.47,538.25,304.67,537,302Z"/><path class="cls-1" d="M2252.85,243.47c4.4,1.9,8.2,3.7,12.3,5.2,7.1,2.6,13.9,5.8,20.9,8.7,10.81,4.5,21.7,8.7,32.41,13.3,4,1.7,7.9,3.3,11.9,5.1,2,.9,3.8,2.1,6.1,1.3a.9.9,0,0,1,1.09.2c2.7,3.4,6.91,4,10.6,5.6,2.6,1.2,5.31,2.4,8,3.6,9.6,4.3,19.4,8.3,29.1,12.4,5.8,2.4,11.7,4.8,17.5,7.1,8.1,3.3,16.1,6.9,24.21,10.3,7.1,3,14.3,5.8,21.39,8.7.9.4,2,.9,1.61,1.9s-1.2,2-2.61.9c-.89-.7-2-.4-3-.4-39.3,0-78.6-.2-117.9.2-6.6.1-11.6-3-17.1-5.1-7.8-2.8-15.3-6.3-23-9.5-9.1-3.8-18-8.1-27.2-11.2-4.8-1.6-9-4.7-13.69-5.9-5.1-1.3-9.2-4.9-14.5-5.4-2.41-.2-3.7-2.7-6-3.4-3-1-5.81-3-9.2-2.7-1.2.1-1.4-1.4-2.5-1.9-5.9-2-11.5-5-17.4-7.1a33.26,33.26,0,0,1-7-3.2c-1.7-1-3.1-.8-4.9-.1-7.2,3.2-14.5,6.1-21.81,9.1-7.69,3.2-15.4,6.7-23.19,9.7-2.41.9-5.5,1.1-6.81,4.1-.1.3-.69.4-1.1.4-8.59,1.1-15.69,5.9-23.59,8.7-5,1.8-9.81,4.1-14.7,6.2-7.2,3.1-14.4,6.3-21.6,9.1-9.2,3.7-18,8.4-28.9,8.2-38.1-.7-76.3-.3-114.5-.3H1925c-.81,0-1.81.3-2.1-.8a1.7,1.7,0,0,1,1.19-1.9c1.6-.5,2.6-1.6,3.91-2.5.3-.2.5-.6.69-.6,8.1.2,14.2-5.3,21.31-7.6,9.69-3.2,18.9-7.5,28.19-11.5,6.1-2.6,12.2-5.4,18.31-7.8,10.69-4.1,21-9.1,31.8-13a82.78,82.78,0,0,0,10.6-4.6c3.8-2,8.1-2.8,11.9-4.8,4.1-2.1,8.5-3.4,12.7-5.3,7.5-3.4,15.3-6.4,22.9-9.5,10.1-4.2,20.1-8.5,30.1-12.8.8-.3,2.09-.2,2.09-1.4s-1.3-1.2-2.09-1.6c-10.5-4.3-21-8.5-31.5-12.9-6.81-2.8-13.41-6.2-20.41-8.6-3.8-1.3-7.09-4.7-11.69-3.4-.2,0-.5,0-.6-.1-3-4.4-8.2-4.9-12.5-6.8-7.5-3.4-15.1-6.7-22.9-9.6-6.4-2.3-12.31-6-18.81-7.6-3.69-1-6.5-3.2-9.8-4.3-6.9-2.3-13.5-5.4-20.1-8.1-6.9-2.8-13.9-5.4-20.5-8.8-5.1-2.6-10.8-3.9-16-6.3-2.6-1.2-4.9-2.9-7.69-3.7-.7-.2-1.41-.7-1.2-1.6.2-1.1,1.2-.9,2-.9h5.9c37.1,0,74.3.1,111.4-.1a42.8,42.8,0,0,1,19.3,4.2c9.6,4.5,19.6,8.5,29.5,12.4,7.4,2.9,14.6,6.4,21.9,9.5,6.7,2.8,13.3,5.9,20.2,8.1,5.2,1.7,9.7,4.5,14.8,6.3s10.2,4.2,15.3,6.4l20.7,8.7c1.4.6,2.7.9,3.6-.9a1.35,1.35,0,0,1,1.6-.7c3.7,1.3,6.5-1.2,9.5-2.4,14-5.7,28-11,41.7-17.4,6-2.8,12.2-5.2,18.3-8,5.8-2.7,12.1-4.7,18.1-7.1,4.8-1.8,9.3-4.2,14.1-6,8-3,16.1-6,23.7-10,5.8-3,11.6-3,17.6-3h116c.89,0,2.1-.1,2.39.9.4,1.2-.8,1.5-1.6,1.8-12.1,5-24.2,9.9-36.3,14.9a15.79,15.79,0,0,0-4.6,2.5,4.7,4.7,0,0,1-3,1.4c-3.8.2-6.7,2.6-10,4s-6.9,2.7-10.4,4c-8.5,3-16.6,7-25,10.4-6.1,2.6-12.3,5.1-18.4,7.6-1.9.8-4.4.7-5.2,3.3-.1.2-.5.3-.8.4-8.9,1.3-16.4,6.3-24.6,9.2-9.9,3.6-19.2,8.6-29.2,12.1a52.61,52.61,0,0,0-7.9,3.9c-2.3,1.4-5.6,1-7.7,2.8C2261.85,241.37,2257.05,240.87,2252.85,243.47Zm-324-82.6c0,.2-.1.4-.1.7.8.4,1.6.9,2.4,1.2q30,12.45,60,25,65,27.15,130,54.3c.81.3,2.1.4,2.1,1.4.1,1.2-1.4,1.1-2.1,1.4-14.8,6.2-29.6,12.3-44.4,18.5q-72.45,30.15-144.8,60.5c-.9.4-2.2.4-2.8,2h117.4a19.22,19.22,0,0,0,7.5-1.4c40.3-16.9,80.6-33.5,120.7-50.8,7.9-3.4,14.4-3.6,22.5-.1,40.6,17.5,81.4,34.3,122.2,51.3a11.49,11.49,0,0,0,4.8,1h116.3c.8,0,1.8.4,2.4-.7-.6-.3-1.2-.6-1.7-.8-27.1-11.3-54.2-22.7-81.3-34q-54.45-22.8-108.9-45.5c-.7-.3-1.9-.3-1.8-1.3s1.1-1,1.9-1.3c9.1-3.8,18.2-7.7,27.3-11.5q81-33.75,162.1-67.7c1-.4,2.4-.6,3-2a7.6,7.6,0,0,0-1.4-.1h-117.6a10.94,10.94,0,0,0-4.4,1q-65.7,27.45-131.4,54.9a6,6,0,0,1-4.9.1q-65.55-27.45-131.1-54.8a14.11,14.11,0,0,0-5.7-1.1H1932.86A27,27,0,0,0,1928.85,160.87Z"/><path class="cls-1" d="M777.25,165.37c-2.1-.2-3.5-2.3-5.7-2.1-.2,0-.4-.4-.6-.6,1.9-1.4-1-4.5,2.1-5.6,1.3-.5.3-1.5-.4-1.5-3.1-.3-3.1-2.4-3.1-4.7v-43.3c0-2.7.5-5,3.8-5.6-.3-1.1-3.2-.9-1.8-3,5.9,1.9,11.8,3.7,17.6,5.8,21.5,7.5,43,15.1,63.5,25.1a98.52,98.52,0,0,1,16,9.3c-5.7,1.6-10.7,3.2-15.7,4.6-6.3,1.7-12.7,3.2-18.9,5.2-15.8,5.1-31.8,9.2-47.7,14C783.45,163.67,780.15,163.87,777.25,165.37Z"/><path class="cls-1" d="M1158.25,159.07h157.5c8.6,0,17.1-.2,25.2,4,5.3,2.8,11.4,4.3,16.9,6.6,6.91,3,13.91,6,21,8.6,6.7,2.4,13.2,5.4,19.9,7.9,6.9,2.5,13.9,5.1,20.7,8.3a5.09,5.09,0,0,0,2.6.7c3.4-.1,3.5,2.1,3.5,4.6v123.1c0,4.7,0,4.6-4.8,4.7h-87.6c-4.3,0-4.3,0-4.3-4.1v-96.2c0-4.3,0-4.3-4.2-4.3h-237.9c-4.1,0-4.1,0-4.1,4.1V323c0,4.7,0,4.7-4.8,4.7H990c-4,0-4,0-4-3.9V165.67c0-6.4,0-6.4,6.6-6.4Q1075.5,159,1158.25,159.07Zm1.5,1.8h0q-84.3,0-168.6-.1c-2.4,0-3.4.5-3.4,3.2q.15,79.35,0,158.7c0,2.2.4,3.2,3,3.2,29-.1,57.9-.1,86.9,0,2.7,0,3.4-.6,3.4-3.4-.09-32.7,0-65.4-.09-98.1,0-2.7.5-3.6,3.4-3.6q121,.15,242.2.1c4.7,0,4.3-.8,4.3,4.2v97.4c0,1.8-.2,3.3,2.6,3.3q44.1-.15,88.19,0c2,0,2.4-.7,2.4-2.5,0-40.8-.09-81.7,0-122.5,0-2-.69-2.8-2.5-3.5q-44.68-17.7-89.29-35.6a10.18,10.18,0,0,0-3.91-.9Q1244.05,160.92,1159.75,160.87Z"/><path class="cls-1" d="M1675.46,198.77h-211.6c-2.5,0-4.9-.3-7.4.4a1.56,1.56,0,0,1-2.2-1c-.3-1.1.7-1.4,1.4-1.7,4.5-1.8,9.7-2.8,13.5-5.6,3.3-2.4,6.9-2.2,10.2-3.8,6.3-2.9,12.8-5.2,19.19-7.9,3.41-1.4,7.2-2.5,10.6-4s7.7-1.8,10.6-4.3c2.2-2,4.7-1.8,7.1-2.7,7.1-2.5,14-5.4,20.9-8.2a12.7,12.7,0,0,1,5.4-.8q166.5,0,332.9.1c2,0,3.91-1.2,5.91-.5,1.4.5,2.19,1,2.19,2.8-.1,11.9-.1,23.7,0,35.6,0,1.5-.3,2.3-2.1,1.9a15.2,15.2,0,0,0-3.69-.1Q1781.84,198.67,1675.46,198.77Zm-214.11-2.5c0,.3.1.5.1.8h8.3q209.7,0,419.4.1c2.7,0,3.2-.8,3.1-3.3-.1-9.8-.2-19.6,0-29.4.1-3-.8-3.7-3.7-3.7q-168,.15-335.9,0a13.27,13.27,0,0,0-4.8.9c-24.2,9.7-48.5,19.3-72.7,28.9Z"/><path class="cls-1" d="M1674.25,287.77q108,0,215.9-.1c3.1,0,4,.8,4,3.9-.19,10.7-.19,21.4,0,32.2.1,3.1-.9,3.7-3.9,3.7q-140.7-.15-281.5-.1c-18.1,0-36.3-.2-54.4.1-4.6.1-8.4-1.7-12.6-2.8-5.1-1.4-9.5-4.4-14.5-6.1-5.2-1.7-10.2-3.9-15.2-5.9-2.09-.8-4.09-2.1-6.3-2.5a27.18,27.18,0,0,1-6.2-2.3c-12.3-5.2-24.69-9.9-37.09-14.8-2-.8-4-1.5-6-2.4-.91-.4-2.1-.7-1.81-2.1.31-1.2,1.5-.9,2.31-.9h13Q1572.09,287.82,1674.25,287.77Zm-213.2,1.8c0,.2-.09.5-.09.7.69.3,1.4.7,2.19,1,28.2,11.2,56.5,22.5,84.7,33.7a13.44,13.44,0,0,0,4.8.8H1708q90.29,0,180.69.1c2.7,0,3.7-.5,3.6-3.4-.2-9.9-.1-19.8,0-29.7,0-2.6-.7-3.2-3.3-3.2q-211.2.15-422.3.1C1464.85,289.57,1463,289.57,1461.05,289.57Z"/><path class="cls-1" d="M1674.25,223.87h215.6c4.1,0,4.1,0,4.1,4,0,10.5-.1,21,.1,31.6,0,2.8-.8,3.7-3.7,3.7q-216.45-.15-432.8,0c-2.5,0-3.1-.8-3.1-3.2.1-10.6,0-21.2,0-31.9,0-4.2,0-4.2,4.1-4.2h215.7Zm0,37.6h215c2.3,0,3.2-.4,3.1-3-.1-9.9-.2-19.8,0-29.7.1-2.9-.6-3.8-3.7-3.8q-213.75.15-427.5.1a20.85,20.85,0,0,1-2.5,0c-2.19-.3-2.69.7-2.69,2.8.09,9.8,0,19.6,0,29.4,0,4.1,0,4.1,4.09,4.1Q1567.3,261.52,1674.25,261.47Z"/><path class="cls-1" d="M130.35,111.57a204.24,204.24,0,0,0,.2,37.5c.2,2.3,1.3,4.1-2,4.5-.3-.4-.7-.7-1.2-.5-.1,0-.1.2-.2.2a5.85,5.85,0,0,0,1.3.2c.7,1-.1,1.6-.6,2.3-18.7-5.5-37.3-11-56.8-16.7a319.5,319.5,0,0,1,48.8-23.3c1.7,1.2,3.3,3.1,5.4.6-.5-.7-1.7-.6-1.7-1.7C125.35,112.57,128.35,113.07,130.35,111.57Z"/><path class="cls-1" d="M1980.65,384.57a126.48,126.48,0,0,0,14.2.5c4.3.1,8.8-.2,13.3-.5,5.2-.3,10.4-.1,15.4,2,1.31.5,1.81,1,1.81,2.3q-.15,5.1,0,10.2c.1,1.8-.7,1.9-2.2,2-5.8.1-5.8.1-5.8-5.5v-3.1c0-5.4,0-5.4-5.5-5.4-3.2,0-6.4.1-9.6,0-1.8-.1-2.5.4-2.4,2.4.19,3.2,0,6.4.1,9.6.09,1.6-.41,2.1-2.1,2.1-5.81.1-5.81.2-5.81-5.8,0-2.7,1.1-6.1-.5-7.7s-5.09-.4-7.69-.5c-3,0-6.9-1-8.7.4-1.9,1.6-.4,5.6-.6,8.6-.1,1.6.8,4.1-.5,4.6-1.8.8-4.2.3-6.4.3-1.3,0-1-1.1-1-1.8,0-4.4,0-8.9-.1-13.3,0-1.7,1.1-1.4,1.9-1.4Z"/><path class="cls-1" d="M1614.75,392.87v-4c0-4.4,0-4.2,4.5-4.4,2.5-.1,3.4.5,3.3,3.2-.19,4,0,4,4.1,4,6.9,0,13.81-.1,20.7.1,2.6.1,3.8-.4,3.4-3.3-.2-1.2-.8-3.2.6-3.6a19.63,19.63,0,0,1,6.4,0c.9.1.6,1.2.6,1.8,0,4.1-.1,8.2.1,12.3.1,1.8-.6,2.4-2.3,2.2h-.3c-5,.1-5.1.1-5.1-4.8,0-1.6-.3-2.2-2-2.1-8,.1-16.1.1-24.1,0-1.9,0-2.3.7-2.1,2.3.1,1,0,2.1,0,3.1.1,1.2-.5,1.7-1.6,1.5h-.3c-5.7.3-5.7.3-5.7-5.4A14.64,14.64,0,0,1,1614.75,392.87Z"/><path class="cls-1" d="M721.05,88.17c-.1,1.3-1.1,1.8-2,2.4-10.4,7.3-20.7,14.7-31.1,22-6.8,4.7-13.5,9.4-20.5,14-5.8,3.8-11.1,8.3-17.3,11.5a15.27,15.27,0,0,0-2.5-4.5c11.1-6.9,22.1-13.9,33.2-20.7Q701,100.42,721.05,88.17Z"/><path class="cls-1" d="M2245.46,387.07c-3.6,0-7.2.2-10.81-.1-2.6-.2-3.1.8-2.9,3.1.2,2.9,0,5.8.1,8.6.1,1.6-.3,2.3-2.1,2.4-5.8.1-5.8.2-5.8-5.7v-1.9c-.1-2,.6-4.6-.4-6s-3.6-.3-5.5-.5c-1-.1-1.9,0-1.9-1.4s.9-1.1,1.7-1.2a12,12,0,0,1,1.9,0c2.9.4,5.1,0,4.3-3.8-.2-1,.3-1.5,1.4-1.4a13.1,13.1,0,0,0,2.8,0c2.7-.4,4.4.2,3.8,3.5-.3,1.6.6,1.8,2,1.8h23.5c.91,0,2.5-.7,2.5,1.3s-1.59,1.2-2.5,1.2C2253.25,387.17,2249.35,387.07,2245.46,387.07Z"/><path class="cls-1" d="M2351.85,401.07h-16.4c-.9,0-2.2.6-2.2-1.3s1.3-1.2,2.2-1.2h30.9c1.6,0,2.9.3,2.9-2.2s-1.4-2.2-2.9-2.2c-10,0-20,0-30-.1-1,0-3,1.1-3-1.3,0-2.2,1.9-1.1,2.8-1.1,10.2-.1,20.4,0,30.6-.1,3.2,0,6,1.4,8.9,2.1,1.31.3,1.1,1.5,1.2,2.5a2.57,2.57,0,0,1-2,3c-2.5.7-4.9,1.9-7.7,1.8C2362.15,401,2357,401.07,2351.85,401.07Z"/><path class="cls-1" d="M1874.35,401.07c-4.1,0-8.2-.1-12.4,0a26.5,26.5,0,0,1-10.8-1.9c-1.4-.5-2-1.1-1.9-2.6q.15-4.95,0-9.9c-.1-1.6.5-2.3,2.1-2.1h.6c5.1-.1,5.1-.1,5.1,5,0,2.9-1,6.7.5,8.4,1.7,2,5.6.6,8.5.6,8.1.1,16.3,0,24.4.1.9,0,2.5-.8,2.5,1.3s-1.6,1.2-2.5,1.2C1885.05,401.07,1879.65,401.07,1874.35,401.07Z"/><path class="cls-1" d="M2099.75,387.07c3.2-1.4,5.7-2.6,8.6-2.6h31.5c.8,0,2-.5,2.4.7a1.51,1.51,0,0,1-.3,1.7,2.18,2.18,0,0,1-2.5.6c-1.1-.7-2.2-.4-3.3-.4Z"/><path class="cls-1" d="M1733.85,387.07c2.5-1.3,5-2.6,7.8-2.6h31.5c.9,0,2.5-.8,2.6,1.2,0,2.2-1.7,1.3-2.7,1.3C1760,387.17,1746.85,387.07,1733.85,387.07Z"/><path class="cls-1" d="M2375.05,384.47c-2.8,1.6-5.5,2.7-8.69,2.6-10.31-.1-20.6,0-30.9-.1-1,0-2.81.9-2.7-1.3s1.8-1.2,2.8-1.2Z"/><path class="cls-1" d="M1754.15,394.17h-19.8c-.9,0-2.2.6-2.3-1.1-.1-2,1.5-1.3,2.4-1.3h39c.9,0,2.2-.6,2.3,1.1.1,2-1.5,1.4-2.4,1.4C1767,394.17,1760.55,394.17,1754.15,394.17Z"/><path class="cls-1" d="M2120.46,391.57h19.4c.9,0,2.5-.7,2.5,1.3,0,1.7-1.4,1.2-2.31,1.2h-39.19c-.9,0-2.2.4-2.1-1.3s1.4-1.2,2.3-1.2Z"/><path class="cls-1" d="M1733,399.57a3,3,0,0,1,2.69-1h38.6c1-.1,1.6.2,1.5,1.3,0,1.3-.8,1.2-1.7,1.2h-33.69C1738.05,401,1736.05,399.37,1733,399.57Z"/><path class="cls-1" d="M2100.46,398.57h40.09c.91,0,1.91-.1,1.81,1.4s-1.2,1.2-2,1.2H2124c-4.7,0-9.5-.1-14.2,0C2106.35,401.27,2103.46,400.07,2100.46,398.57Z"/><path class="cls-1" d="M123.55,114.57c0,1.1,1.1,1,1.7,1.7-2.1,2.5-3.7.7-5.4-.6C121,115.07,122.05,114.17,123.55,114.57Z"/><path class="cls-1" d="M554.65,398.37c1.1-.6,1.3.1,1.4,1A7.1,7.1,0,0,0,554.65,398.37Z"/><path class="cls-1" d="M722.55,87.27c-.3.6-.7,1.2-1.5.9Z"/><path class="cls-1" d="M2351.35,283.17a1.27,1.27,0,0,1-.6.1,1,1,0,0,1-.1-.3c.1,0,.2-.1.31-.1A1.46,1.46,0,0,1,2351.35,283.17Z"/><path class="cls-1" d="M2106.65,239c.1.1.1.2.2.3-.1,0-.2.1-.3.1a.52.52,0,0,1-.4-.2C2106.35,239.07,2106.46,239.07,2106.65,239Z"/><path class="cls-1" d="M2975.05,311.87a.35.35,0,0,1,.1-.2.35.35,0,0,1-.1.2Z"/><path class="cls-1" d="M554.05,397.77c.5-.3.6-.1.5.4C554.35,398.07,554.25,397.87,554.05,397.77Z"/><path class="cls-1" d="M2485.05,325q97-40.65,194.2-81.2a2.77,2.77,0,0,1,.1-.9q-97.2-40.65-194.39-81.2c0-.2.1-.5.1-.7,1-.1,2.1-.1,3.1-.1h115.1a11.39,11.39,0,0,1,4.8.9q59.25,24.9,118.5,49.6c4.4,1.8,8.8,3.5,13.1,5.4a5.3,5.3,0,0,0,4.6,0q63.45-26.55,126.8-53a35.1,35.1,0,0,1,14-2.9q55.35.15,110.8.1h3.7a7.55,7.55,0,0,1-3.7,2.3l-109.2,45.6c-26.5,11.1-53.1,22.2-79.6,33.3-.7.3-1.9.3-2,1.2-.2,1.2,1.2,1.3,1.9,1.6q77.1,32.25,154.1,64.4c11.9,5,23.9,10,35.8,15,.6.3,1.4.4,1.8,1.7h-5.5c-36.5,0-73-.1-109.5,0a28.94,28.94,0,0,1-11.6-2.3c-42-17.6-84-35.1-125.9-52.8a9.56,9.56,0,0,0-8.1-.1c-43.3,18.2-86.6,36.2-129.9,54.4a10.36,10.36,0,0,1-3.9.7h-116.6c-.8,0-1.6-.1-2.4-.1A6.83,6.83,0,0,1,2485.05,325Z"/><path class="cls-1" d="M537,302c1.3,2.7.6,5.5.6,8.3v58.4c0,1.4.8,3.7-1,4.1s-4,1.7-5.7-.6a2.58,2.58,0,0,0-2.5-.9,74,74,0,0,1-12-11c-4.7-5-10.7-8.5-15.4-13.5-7.2-7.7-15.4-14.2-23.3-21.1-3.4-3-7.1-5.6-10.4-8.6-6.7-6.1-13.6-11.8-20.6-17.5-6.2-5.1-12.5-10-18.7-15-8.9-7.3-17.7-14.6-26.7-21.6-16.1-12.5-31.9-25.3-48.5-37.1-6.1-4.3-11.7-9.2-18.1-13.1-5.4-5-11.7-8.9-17.6-13.3-7.5-5.7-15.3-11-23-16.4-3.5-2.5-7.8-2.9-11.9-3.6C274,178,266,176,258,173.77c-2.7-.7-3.9-2-3.8-5.2.2-15.5.2-30.9,0-46.4-.1-3.3,2.2-4.6,3.7-6.6.7-.9,1.4,0,2.1.4,9,6.2,18.1,12.4,27.2,18.6q19.2,13.2,38.4,26.6c4.4,3,8.5,6.4,13.1,9.2,9.5,5.7,18.3,12.4,27.6,18.3,7.6,4.9,14.9,10.2,22.4,15.2,12.3,8.2,24.7,16.3,36.8,24.6,14.4,9.9,29.3,19.2,43.8,29a28.28,28.28,0,0,0,4.7,2.9,4.35,4.35,0,0,0,.7.6l.6.6c4.8,2.4,8.9,5.8,13.4,8.7q18.45,11.85,36.7,23.9c3.7,2.4,7.4,4.7,11.1,7.1a1.79,1.79,0,0,0,.5.7Z"/><path class="cls-1" d="M650.15,138.07c6.2-3.2,11.5-7.7,17.3-11.5,6.9-4.5,13.6-9.3,20.5-14v52.2a16.25,16.25,0,0,1-.5,4.3c-.4,1.5-.4,2.9,2.3,3.2-13.7,2.7-26.7,5.2-39.8,7.8a7.29,7.29,0,0,0-2.9,1.1c-9,6.6-18,13.2-27,19.9a1.65,1.65,0,0,0-.8,1.3c-9,5.9-17.5,12.5-26.1,19-20.7,15.5-40.8,31.7-61.1,47.6-3.6,2.9-7.2,5.8-10.7,8.8a3.34,3.34,0,0,1-4.4.4c-11.9-7.3-23.9-14.4-35.8-21.6-1-.6-2-1-3-1.5-.2-1.3.6-2,1.6-2.7,11.5-7.5,23.1-15,34.6-22.5,8.1-5.3,16.1-10.8,24.2-16.2,7.8-5.2,15.6-10.2,23.4-15.4,12.2-8.1,24.3-16.5,36.5-24.5q20.4-13.5,40.5-27.4C642.75,143.57,646.65,141.17,650.15,138.07Z"/><path class="cls-1" d="M408.75,374.37c-1.6-.3-1.6-1.5-.7-2.2,1.6-1.2,1.3-2.7,1.3-4.2v-60.8c0-3-1-5.9-.6-8.9,2-2.3,5-3.2,7.3-5,1.1-.9,1.9-.2,2.7.4l26.1,19.5c5.2,3.9,10.3,7.9,15.5,11.6,1.8,1.3,2.1,2,.3,3.6l-27.6,24c-5.3,4.6-10.5,9.3-15.8,14l-.6.6C414.15,369.47,411.45,371.87,408.75,374.37Z"/><path class="cls-1" d="M416.85,367l.6-.6Z"/><path class="cls-1" d="M616.65,229c-.1.5-.6,1-.8.8-.8-.7-2.1-1-2.1-2.4a.66.66,0,0,1,.8-.7C615.75,226.87,616.05,228.07,616.65,229Z"/><path class="cls-1" d="M475.05,261.67l-.6-.6A3.39,3.39,0,0,0,475.05,261.67Z"/><path class="cls-1" d="M537,302l-.6-.6Z"/><path class="cls-1" d="M1928.85,160.87H2047a14.11,14.11,0,0,1,5.7,1.1q65.55,27.45,131.1,54.8a5.3,5.3,0,0,0,4.9-.1l131.4-54.9a11.7,11.7,0,0,1,4.4-1h117.6c.4,0,.8.1,1.4.1-.6,1.4-2,1.5-3,2q-81,33.9-162.1,67.7c-9.1,3.8-18.2,7.6-27.3,11.5-.7.3-1.8.3-1.9,1.3s1.2,1.1,1.8,1.3q54.45,22.8,108.9,45.5c27.1,11.3,54.2,22.7,81.3,34a13,13,0,0,1,1.7.8c-.6,1.2-1.7.7-2.4.7h-116.3a11.49,11.49,0,0,1-4.8-1c-40.7-17.1-81.6-33.8-122.2-51.3-8.1-3.5-14.5-3.3-22.5.1-40.1,17.2-80.5,33.9-120.7,50.8a18.88,18.88,0,0,1-7.5,1.4c-38-.1-75.9,0-113.9,0h-3.5c.6-1.6,1.9-1.6,2.8-2q72.3-30.3,144.8-60.5c14.8-6.2,29.6-12.3,44.4-18.5.8-.3,2.2-.3,2.1-1.4s-1.3-1.1-2.1-1.4q-65-27.15-130-54.3-30-12.45-60-25c-.8-.3-1.6-.8-2.4-1.2C1928.85,161.27,1928.85,161.07,1928.85,160.87Z"/><path class="cls-1" d="M1159.75,160.87h168.6a10.57,10.57,0,0,1,3.9.9q44.7,17.85,89.3,35.6c1.81.7,2.5,1.5,2.5,3.5-.09,40.8,0,81.7,0,122.5,0,1.8-.4,2.5-2.4,2.5q-44.1-.15-88.2,0c-2.8,0-2.6-1.5-2.6-3.3v-97.4c0-5.1.5-4.2-4.3-4.2q-121,0-242.2-.1c-3,0-3.5,1-3.4,3.6.1,32.7,0,65.4.1,98.1,0,2.8-.7,3.4-3.4,3.4-29-.1-57.9-.1-86.9,0-2.6,0-3-.9-3-3.2q.15-79.35,0-158.7c0-2.7,1-3.2,3.4-3.2Z"/><path class="cls-1" d="M1461.35,196.27c4.6-1.9,9.2-3.8,13.8-5.6,24.2-9.6,48.5-19.2,72.7-28.9a13.19,13.19,0,0,1,4.8-.9q168,0,335.9,0c3,0,3.81.7,3.7,3.7q-.3,14.7,0,29.4c0,2.4-.4,3.3-3.1,3.3q-209.7-.15-419.4-.1h-8.3A2.11,2.11,0,0,0,1461.35,196.27Z"/><path class="cls-1" d="M1461.05,289.57h5.7q211.2,0,422.3-.1c2.6,0,3.3.7,3.3,3.2q-.3,14.85,0,29.7c.1,3-.9,3.4-3.6,3.4q-90.3-.15-180.7-.1h-155.3a11,11,0,0,1-4.8-.8c-28.2-11.3-56.5-22.5-84.7-33.7-.7-.3-1.5-.7-2.2-1C1461,290.07,1461.05,289.77,1461.05,289.57Z"/><path class="cls-1" d="M1674.25,261.47h-214.1c-4.1,0-4.1,0-4.1-4.1,0-9.8.1-19.6,0-29.4,0-2.1.5-3.1,2.7-2.8a20.83,20.83,0,0,0,2.5,0q213.75,0,427.5-.1c3.1,0,3.7.9,3.7,3.8q-.3,14.85,0,29.7c0,2.5-.8,3-3.1,3Q1781.65,261.42,1674.25,261.47Z"/><path class="cls-1" d="M128.55,153.47a5.85,5.85,0,0,0-1.3-.2c.1-.1.1-.2.2-.2a.87.87,0,0,1,1.1.4Z"/></g></svg>