<svg id="Слой_1" data-name="Слой 1" xmlns="http://www.w3.org/2000/svg" viewBox="0 0 2783.65 517.35"><defs><style>.cls-1{fill:#ff8200;}</style></defs><title>Ozone</title><g id="Слой_13" data-name="Слой 13"><path class="cls-1" d="M611.55,313.93c47.2-27.5,97-50.5,142.8-80.4,1-.7,1.9-1.4,2.9-2.2-1.7-2-3.4-1.7-5.2-.2-33.6-.4-67.3-.8-100.9-1.1-4.1,0-10-1-10.8,3.9-3.6,21-19.7,15.8-32.7,15.9-54.6.3-109.3.1-163,.1-3.6-7.9,4.3-13.4-.2-20.8-42.1,1.8-84.9-3.2-127.5,3.1-5.5.8-13,1.1-15.8,4.6-13.7,17.1-32.2,13-49.8,13-51,.2-101.9.1-155.6.1,24.5-60.7,61.7-106.5,116.6-136.7,56.1-30.8,115.3-48.9,180.8-47.1,82.1,2.3,164.2.5,246.4.6,36.9,0,46.1,11.6,38.6,47.8-.4,1.9.1,4,.4,9.8,16.5-12.8,31.7-23.4,45.6-35.6,18.4-16.2,38.7-22.7,63.4-22.4,101.1,1,202.1.5,303.2.4,19.8,0,39.2,2,57.4,10.7,31.6,15.1,42.3,42.6,28.9,75.2-12.1,29.3-34.5,48.9-61.6,63.8q-61.65,33.9-123.6,67.8c4.3,7.4,10.5,3.8,15.3,3.9,39.9,1.2,80-2.5,119.8,2.3,7,.9,9.4-1.4,10.1-6.6,2.1-15.1,12-15.6,24.2-15.5,52.6.5,105.3.2,157.9,0,9.4,0,17.8-.8,11.9,13-2.7,6.4-.7,10.5,7.5,10.2,37.2-1,74.4,2.2,111.5-1.9,13.7-1.5,28.4-2.1,36.2-17.2,2.6-5.2,8.4-3.8,13.3-3.8,60.4,0,120.7.1,181.1-.4,10.8-.1,13.4,2.1,9.7,13-12.5,37.2-23.2,75-36.4,112-5.9,16.6-.9,19.1,14.1,18.3a475.34,475.34,0,0,1,54.7.2c13.7.9,19.4-4.7,23.3-17.4,18.4-59.6,38.6-118.7,56.4-178.5,5.4-18.1,12.5-19.5,27.9-12.4,49.5,23,90.2,56.2,121.2,101.2,20,29,35.5,60.4,51.2,91.8,5.4,10.7,11.3,15.9,23.8,15.2,24.4-1.4,54.1,7.1,72-4s18.3-43.4,25.9-66.6c23.6-71.9,46.3-144.2,70.1-216,4.2-12.8,1.7-15.5-11-14.9-19.6.8-39.4,1.2-58.9-.2-13.8-.9-19.2,4.2-23.2,17.1-18,58.9-37.1,117.4-56.8,179-11.2-18-20.7-34.1-31-49.6-29.3-44.2-64.6-82-108.9-112.6-46.4-32.1-96.8-36.8-150.2-33.9-11.1.6-11.8,7.7-14,14.7-11.8,36.7-23.8,73.4-35,110.2-3.3,10.9-7.9,15.5-20.4,15.3-58.2-.8-116.5-.3-174.8-.3-8.3,0-18.6,2-11.9-12.7,3.1-6.8-1.7-8-7.5-7.9-38.6,1-77.2-2.4-115.7,2.1-11.8,1.4-24.1,2.6-31.2,14.4-2.7,4.5-7,4.1-11.1,4.1h-183.7c9.2-28.8,23.5-52.6,41.6-73.6,60.6-70.4,139.2-105.8,230.8-109,85.5-2.9,171.2-.8,256.9-.5,15.8,0,32.1-3.1,47,6.8,8.1,5.4,15.3-4.4,23.6-5.1,72.7-5.6,142.3-3,201.3,50.2,29.3,26.4,58.3,52.1,80.7,91.5,10.8-32.7,20.2-60.6,29.3-88.6,13.1-40.2,31.8-53.8,74.2-53.8,25.3,0,50.5-.5,75.8,0,26.5.5,37.8,16.2,31.7,41.8-3.2,13.3-10.5,25.6-10.8,42.6,49-42.5,104-67.1,164.4-80.7a196.11,196.11,0,0,1,43.9-4.7h275.8c34.6,0,46.5,15.3,35.7,48-21.9,66.3-46.2,131.9-66.5,198.7-8.3,27.5-12.3,55.9-31.9,78.6-34.9,40.5-78.1,62.5-132.4,62.3-119.3-.3-238.6-.1-358-.2-13.2,0-27,1.8-38.4-7.3-3.5-2.8-6.1-1.6-9.4-.3-40.2,15.4-81.9,5.3-122.9,6.9-13.2.5-20.6-9.8-26.6-21-14.1-26.6-28.2-53.3-43.4-79.3-19-32.6-45.2-58.7-75.7-80.9-11.6-8.4-16.9-8-21.3,7-12.3,41.7-25.9,83-39.2,124.4-11.5,35.8-32.2,50.5-70.3,50.6-24.6,0-49.1.2-73.7,0-32.4-.2-44.1-16.5-34.7-47.9,3-9.9,6-19.8,8.9-29.4-6-4.3-8.5-.1-11.6,2.2-65.2,49.4-137.6,76.6-220.5,75.3s-165.6-.2-248.5-.4c-30.5,0-38.9-9.2-36.1-40.5-11.8,1.4-17.7,10.6-25,17-16.4,14.4-34.1,21.9-57,21.7-122.1-1-244.3-.5-366.4-.4-18.4,0-36.5-1.6-53.7-8.3-25-9.8-38.4-27.2-36.1-55,.3-4.1,1.4-9-2.8-11.3-4.7-2.6-7.5,2.4-10.6,4.8-66.9,50.1-141.4,74.7-225.6,72.6-79.3-1.9-158.6-.4-237.9-.5-38.5,0-49.7-15.1-38.1-51.6,12.6-39.4,26-78.5,37.9-118.2,3.7-12.2,8.7-16.4,21.7-16.2,50.5.8,101.1.9,151.6-.1,16.9-.3,28,1,18.8,23.5,43.8-1.3,85.8,2.6,127.7-2.9,11.3-1.5,22.6-3.2,28.5-14.8,3.9-7.6,10.7-5.3,16.6-5.3,53.3-.1,106.7.3,160-.5,15.6-.2,21.3,2.6,12,18-4.7,7.7-8.1,16.3-12,24.5l-5.1,5.4C607,318.43,609.65,317.73,611.55,313.93Zm1713.8-91.6c13.8-15.5,26.8-21.9,40.7-26.7,23.6-8.1,48.1-9.3,72.7-9.3,61.8-.1,123.5.2,185.3-.2,20.2-.1,45.7,8.3,59.2-3.4,13.2-11.5,13.5-37.1,21.1-55.9,5.8-14.3,2.6-17.7-12.5-17.6-89.1.6-178.4-2.5-267.3,1-88,3.5-190.3,51.8-220.9,161.1-11.7,41.8-25.4,83.1-39.9,124.1-5.3,15-.5,16.2,12.2,16.1,117.9-.3,235.8.2,353.7-.3,41.9-.2,73.4-20.6,96.7-54.5,3.8-5.5,10.2-11.9,6.6-18.6-3.3-6.1-11.6-2.8-17.6-2.8q-147.3-.15-294.7,0c-7,0-14-.1-21-.1-6.2,0-8.6-2-6.7-8.9,4.5-17,8.8-29.1,32.5-28.6,87,2,174,1,261,.6,20.2-.1,45.6,8.4,59.2-3.4,13.3-11.4,13.8-37,21.5-55.7,6.5-15.6.3-17.3-13.3-17.3-74.4.4-148.8.2-223.2.2C2397.35,222.33,2364,222.33,2325.35,222.33Zm-1209.1,113.5c-.8-1.6-1.5-3.3-2.3-4.9H829.25c11.4-6.5,17.1-9.9,23-13.1l243.6-133.2c13.6-7.4,27.1-15.1,35.7-28.7,9.8-15.5,6.6-27.8-9.2-37-15.2-8.8-32-9.5-49-9.5q-149.4,0-298.9.1c-6.3,0-14.2-1.3-18.5,1.9-31.5,23.6-62.2,48.2-93.2,72.4.7,1.8,1.5,3.6,2.2,5.4h244.9c-12.8,4.4-20.2,15.1-30.7,20.8-77.1,41.6-153.8,84-230.6,126.1-13.6,7.4-27,15.2-36.2,28.2-11.3,15.9-7.9,29.8,9.3,37.8,13.7,6.3,28.4,7.3,43.2,7.3q172.65,0,345.2-.1c6.1,0,12.5,1.9,18.2-2.7Q1072.2,371.08,1116.25,335.83ZM243,413.43v-.3c29.5,0,59-1.4,88.3.3,53.6,3,103.3-9.6,150.8-33.3,34.8-17.4,65.6-39.1,85.1-74.1,4.1-7.3,9.6-15.9-2.6-16.6-30.7-1.7-61.6-1-92.4,0-5.2.2-11.6,5.6-15.2,10.3-16.8,21.8-39.8,30-65.9,30.5-51.2.9-102.4.6-153.5,1.4-14.9.2-17.2-3.7-12-18.2,7.7-21.1,3.3-25.3-19.7-25.2-21.7.1-43.5.2-65.2,0-9.1-.1-17.4,1.2-20.4,10.9-9.7,31.1-18.4,62.6-28.5,93.6-5.5,16.9.9,21.1,16.6,21C153.15,413,198.05,413.43,243,413.43Zm1050.5-2.1c38.6,0,77.1-.4,115.7.1,59.1.8,111.1-20.2,159.5-51.6,22-14.3,38.4-34.5,52.2-56.8,6.1-9.8,7-14.5-7.3-14.2-26.6.6-53.3.2-79.9-.2-8.3-.1-14.6,1.8-19.8,9-15.1,20.5-37,29.4-61.3,32.9-49.6,7.1-99.4,2.2-149.1,3.3-32.2.7-33-.2-22.9-30.2,4.4-13.1,1.2-15.3-11.2-14.9-25.9.8-51.9.8-77.8.1-10.4-.3-14.7,3.6-17.7,13.2-9.3,30.9-18.8,61.7-29.7,92-5,14-3.2,18,12.5,17.7C1202.35,410.73,1248,411.33,1293.45,411.33Zm-821.1-301.2h0c-14-.1-28.1-.4-42.1,0-54.2,1.3-108.9-6.2-161.2,17.2-44.4,19.8-86.4,41.5-112.4,85.4-6.9,11.7-5.6,16.4,8.3,16.3,26.6-.1,53.3.1,79.9,0,6.3,0,12.1-.3,17-5.9,25.5-29.4,60.3-35.4,96.4-36,38.6-.7,77.1-.2,115.7-.2,26.2,0,27.5.3,21.9,24.8-3.6,15.7,2,17.8,15.2,17.5,22.4-.6,45-1.3,67.3.3,16.1,1.1,23-6.6,26.8-19.8,7.7-26.6,14.8-53.3,25.1-79.1,5-12.6,1.9-20.9-15-20.6C567.75,110.63,520.05,110.13,472.35,110.13Zm729.4,119h96.4c5.5,0,10.8.5,15-5.1,21.4-28.7,53.2-35.5,85.9-36.6,48.3-1.6,96.8-.6,145.2-1.3,10.9-.2,14.1,2.7,9.6,12.9-1.9,4.5-2.6,9.5-4.6,13.9-5.7,12-4.2,17.3,11.1,16.6,24.5-1.1,49.1-.9,73.6,0,12.4.5,18.4-2.9,22-15.6,8.2-29,17.7-57.6,27.8-85.9,5.2-14.7,2.4-18.8-13.7-18.7-82.1.7-164.1,1.4-246.2-.1-54.7-1-103.5,15.9-149.8,42.1C1243.05,168.63,1219.35,193.73,1201.75,229.13Z"/><path class="cls-1" d="M2754.75,415.33c-.4,22.8-19.4,40.5-42.8,39.8-23.2-.7-41.3-19.8-40.3-42.5.9-21.8,19.3-38.1,41.9-37.1C2739.45,376.63,2755.25,391.83,2754.75,415.33Zm-27,18.3c17.3-3.8,19.9-17.4,7.5-38.8-1.8-.2-4.6-1.3-5.4-.5-1.9,2.1.6,3.1,2.1,4.1,2.7,12.3-13.1,22.6-3.8,35.7-13.6,5.4-8.9-15.3-24.9-13.2,23,9.6-15.9,13.8,2.3,22.3C2712.85,446.63,2727.15,452,2727.75,433.63Zm-32.2-39.1c-13.9,14.4-15.6,28.2,0,43.2Z"/></g></svg>