<svg id="Слой_1" data-name="Слой 1" xmlns="http://www.w3.org/2000/svg" viewBox="0 0 2522.4 731.4"><defs><style>.cls-1{fill:#ff8200;}.cls-2{fill:#fff;}</style></defs><title>Schuberth </title><g id="Слой_16" data-name="Слой 16"><rect class="cls-1" width="2522.4" height="731.4"/><path class="cls-2" d="M2522.4,731.4q-1255.5,0-2510.9.3C.9,731.7-.2,728.6-.2,719.4Q.25,359.7,0,0,1254.6,0,2509.2-.2c10.5,0,13.4,2.3,13.4,13.2Q2522.15,372.1,2522.4,731.4ZM489.7,420.4h102c6.4,0,11.8-.4,11.5-9.1-1.2-35.9,1.9-71.8-2.8-107.6-14-107-95.1-191.9-200.8-209.9C266.3,71.1,145.8,151,114.8,282.6c-10.1,42.7-6.2,86.2-7,129.5-.1,8.1,5.3,8.3,11.1,8.3,68.4,0,136.7-.1,205.1.1,7.2,0,10.8-2,10.5-10.1-.5-13.7-.5-27.3,0-41,.3-7.6-2.6-10.8-10.1-10.7-9.4.2-18.8,0-28.1,0H185c-5,0-9.8,1.1-9.7-7.3.3-22.7.9-45.1,7.2-67.2C214.2,173.3,337,119.1,438.8,173.3,507,209.6,536.2,270,536.7,346c.1,10.2-2.3,13.2-12.8,13.1-44.5-.6-89.1,0-133.6-.4-10.2-.1-14.1,3.1-13.4,13.4a257,257,0,0,1,0,35.1c-.7,10.3,3,13.6,13.3,13.5C423.2,420.1,456.5,420.4,489.7,420.4ZM198.6,452.3H186.9c-18.3,0-18.9.7-15.1,18.3,20.3,96.2,104.7,158.9,202.6,150.7,82.6-6.9,156.1-77.2,166.7-159.1,1-7.4-1.5-10.1-8.6-10-11.3.2-22.7.8-33.9-.2-10.8-1-15,3.6-17.7,13.5-14.6,53-61,90.9-114.2,94.3-61.2,3.9-112.1-29.2-133.5-84.3C224,452.3,224,452.3,198.6,452.3Zm1316.7-86.6c0,28.5.2,57-.1,85.5-.1,9.2,2.9,13.4,12.8,13.3,30-.5,60.1,0,90.2-.4,24-.4,44.1-13.9,50.2-33.4,8-25.7,1.7-55.3-18.7-65.6-5.1-2.6-5.3-4.7-.4-8,8.5-5.7,13.1-14.2,15.4-24,8.6-36.7-14.4-65.2-53.5-65.9-27.7-.5-55.4.2-83.1-.3-10-.2-12.9,3.9-12.8,13.2C1515.5,308.7,1515.3,337.2,1515.3,365.7Zm385.9-.6c0,23-.2,46.1,0,69.1.3,34.2-5.2,29.6,30.8,30.2,8.7.1,11.8-3.2,11.6-11.8-.4-18.4-.2-36.7-.1-55.1,0-3.6-1.3-7.9,4-9.7,9.8-3.4,23.6.8,30,9.6,14.1,19.2,28,38.5,42.1,57.7,5.8,8,25.7,13.6,33.4,8.3,8.8-6,3.9-15.8,4.3-24,.1-2.6-2.4-5.6-4.2-8.1-9.3-13-18.5-26.1-28.1-38.8-3.9-5.2-6.2-8.5,2.1-11.8,6.5-2.6,11.7-7.8,15.3-14,13.3-22.5,14.7-46,3.7-69.4-10.4-21.9-30.6-29.3-53.1-30-26.5-.8-53.1.1-79.7-.3-9.3-.1-12.3,3.5-12.2,12.5C1901.4,308,1901.2,336.6,1901.2,365.1ZM786.7,466.9c19.4.3,38.1-2.7,55.3-12.3,22.9-12.6,33.4-38.8,26.1-64.1-7.7-26.8-28.7-37.5-53.1-43.7-17.7-4.5-36.3-4.8-53.6-11.6-7.3-2.9-11.3-8.3-11.1-16.2s5.6-11.9,12.4-13.7c13.5-3.5,27.1-2.7,40.5.5,5.4,1.3,11.5,4.8,11.6,10.4.1,15.7,10.3,14.6,20.7,14.2,5.5-.2,10.9-.2,16.4,0,7.2.3,9.5-3.1,9.2-10-1-22.5-11.6-39-32.2-47.5-30.5-12.6-62-12.4-92.4.1a51.37,51.37,0,0,0-22.8,77.3c12,17.3,31,22.8,50.2,27,14.8,3.2,29.9,4.6,44.6,9,10.4,3.1,16.1,9.6,16,20.2-.1,11.1-7.6,16.7-17.3,19.4-13.8,3.9-27.9,3-41.6-.8-10-2.8-17.6-8.6-17.8-20.3-.1-6.8-3.2-9.8-10.2-9.5-8.6.4-17.2.3-25.8.1-7-.2-9.8,2.9-9.5,9.9,1,22,10.9,38.7,30,49.5C749.3,464.4,767.7,467.2,786.7,466.9ZM1101,365.7c0,22.3-.2,44.5,0,66.8.4,37.4-5.5,31,32.4,32,10.6.3,13.4-4.2,13.2-14-.5-19.5,0-39-.3-58.6-.1-6.6,1-10,8.8-9.7,18.7.5,37.5.5,56.2,0,7.4-.2,9.5,2.7,9.3,9.6-.4,13.7-.1,27.3-.1,41,0,31.7,0,31.3,31.6,31.7,10.9.1,14.1-3.6,14.1-14.3-.4-50.4,0-100.7-.3-151.1-.2-37.1,5.6-31.2-32.3-32.2-10.6-.3-13.5,4-13.2,13.8.5,17.6-.1,35.1.3,52.7.2,7.3-1.7,10.6-9.8,10.3-18.3-.5-36.7-.5-55,0-8.1.2-9.7-3.1-9.6-10.3.4-18-.2-35.9.3-53.9.2-8.9-2.8-13.2-12.1-12.6a120.21,120.21,0,0,1-19.9-.1c-10.2-1.1-13.9,2.8-13.7,13.1C1101.3,308.7,1101,337.2,1101,365.7Zm1339.8,0c0-28.5-.2-57,.1-85.5.1-9.1-1.9-14.3-12.4-13.2a123.89,123.89,0,0,1-21.1,0c-9.4-.6-12.2,3.6-12,12.5.5,17.9-.3,35.9.3,53.9.3,8.5-2.7,10.6-10.6,10.4-17.9-.5-35.9-.4-53.9,0-7.4.2-10.6-1.9-10.2-9.9.6-11.7.2-23.4.2-35.1,0-32.3,0-32.1-32.4-31.9-9.5.1-13.1,3.1-12.9,13,.5,32,.2,64,.2,96,0,25.8.2,51.5-.1,77.3-.1,8,3,11.5,11.1,11.1a182.7,182.7,0,0,1,22.2,0c9.4.7,12.3-3.5,12.1-12.4-.4-20.3.1-40.6-.2-60.9-.1-6.5,1.9-9,8.7-8.8,19.1.4,38.3.4,57.4,0,6.8-.1,8.6,2.3,8.5,8.8-.3,20.3.2,40.6-.3,60.9-.2,8.8,2.5,13.2,12,12.4a120.21,120.21,0,0,1,19.9,0c10.2,1,13.8-2.8,13.7-13.2C2440.5,422.7,2440.8,394.2,2440.8,365.7Zm-727.3-.5v83.2c0,15.9,0,15.9,15.4,15.9,33.2,0,66.4-.1,99.6,0s26.6,1.3,27.4-27.6c.2-8.3-3.2-11.1-11.1-11-17.6.2-35.2.1-52.7.1-34.8,0-34.5,0-33.8-34.4.2-7.2,2.3-9.4,9.4-9.2,19.5.4,39.1.2,58.6.1,25.5-.1,23.3,3.3,23.7-24.1.1-8.9-3.8-11.5-12.1-11.3-16.4.4-32.8.1-49.2.1-31.5,0-31.2,0-30.4-31.5.2-7.2,2.5-9.5,9.5-9.3,20.3.3,40.6.1,60.9.1,31.3,0,26.5,2.4,27.1-26.7.2-9.2-3.1-12.5-12.3-12.4-39.1.3-78.1.4-117.2-.1-10.7-.1-13.3,4-13.1,13.8C1713.8,308.9,1713.5,337,1713.5,365.2Zm-405.9-26.7h.3c0,19.9-.8,39.8.2,59.7,1.1,22.4,9.1,42.6,29,54.6,32,19.4,66,19.7,99.2,3.6,26.1-12.6,34.8-37,35.6-64,1-31.6.4-63.2.4-94.9,0-30.3,0-30.3-30.2-30.3-15.7,0-16.4.6-16.4,16.5-.1,36.7.1,73.4-.5,110.1-.3,21.5-12.3,33.5-33.1,34.7-21.8,1.2-35.6-10.1-38.3-32a127.89,127.89,0,0,1-.7-15.2c-.1-34-.2-67.9.1-101.9.1-8.8-2.4-13.2-12-12.3a137.12,137.12,0,0,1-22.2,0c-8.7-.5-11.7,3-11.5,11.7C1307.9,298.6,1307.6,318.5,1307.6,338.5ZM990,467c3-.2,8.1-.3,13.1-.7,32.8-3,57.5-23.9,65-54.8,2-8.4.8-13.9-9.7-13.3-7.4.4-14.8.3-22.3,0-5.3-.2-8.8,1.3-10.7,6.8-6,18.1-20.3,23.7-37.6,23.4-19.6-.3-33.9-9.7-39.7-27.1a110.93,110.93,0,0,1-.4-70.2c5-15.7,16.6-25.4,33.5-27,15.6-1.4,32.3-1.5,40.4,14.2,5.9,11.4,13.2,13.5,24,12.4a110.44,110.44,0,0,1,14.1-.1c8.3.3,10.4-4.3,8.6-11.2-3.4-13-9-24.7-19.2-34-36-33.2-105.3-26.6-133.7,13.1-19,26.6-22.1,56.7-18,88.3C903.8,435.8,938.5,466.8,990,467ZM2160.6,267.2c-18.8,0-37.5-.1-56.3,0-29.6.1-26.8-4.2-27.1,28.1-.1,8.2,3.5,11.1,11.3,11,12.5-.2,25,.4,37.5-.2,9-.5,12.2,2.1,12,11.6-.5,39.5-.2,78.9-.2,118.4,0,28.3,0,28.3,28.6,28.3,16,0,16,0,16-16.4,0-43.8.2-87.5-.2-131.3-.1-8.1,2.2-11.3,10.5-10.6,7.4.6,14.8.1,22.3.1,33.1.1,26.7,1.5,27.5-27.5.3-8.8-3.2-11.7-11.7-11.6C2207.5,267.4,2184.1,267.2,2160.6,267.2Z"/><path class="cls-2" d="M1586.2,382.5c8.9.6,17.9.6,26.8,1.8,11,1.4,15.9,8.7,16.2,19.4.4,13.6-3.8,21.4-14.4,23.4-17.4,3.2-35,1.1-52.5,1.4-4.1.1-5.3-2.4-5.3-6.1,0-10.9.2-21.8-.1-32.7-.1-5.2,2.1-6.9,7-6.8,7.4.2,14.8,0,22.2,0A.6.6,0,0,0,1586.2,382.5Z"/><path class="cls-2" d="M1583.9,347.2c-26.9.1-26.9.1-26.8-26.3,0-14.8,0-14.8,15.3-14.8,11.7,0,23.4-.2,35,.4,12,.7,18.5,8.1,18.6,19.7.1,12.6-6.2,20-18.7,20.8C1599.5,347.6,1591.7,347.2,1583.9,347.2Z"/><path class="cls-2" d="M1973.3,347.8c-29.4,0-29.1,0-29.3-29.9-.1-8.4,1.6-12,10.9-11.3,13.6.9,27.3,0,40.9.8,13.3.8,17.8,6.7,17.8,20.9-.1,13-5,18.4-18,19.4a18.48,18.48,0,0,1-2.3.1Z"/></g></svg>