<svg id="Слой_1" data-name="Слой 1" xmlns="http://www.w3.org/2000/svg" viewBox="0 0 2886.03 1646.59"><defs><style>.cls-1{fill:#ff8200;}</style></defs><title>Scorpion </title><g id="Слой_17" data-name="Слой 17"><path class="cls-1" d="M2779,973.72c-29,79.9-56.5,156-85,234.4-32.7-1.7-66.4,2-96.6-6.6-29.6-8.4-55.6-29.4-84.4-45.5,1.9-1.3.8-1,.8-.5-6.5,49.3-38.5,57-80.8,51.5-20.4-2.7-42.4,3.6-61.9-1.3-42-10.6-82.8,1.9-124.1,1-43.1-.9-86.2.4-129.3-.5-21.4-.5-42.7-4.6-64.1-5.5-8.6-.4-17.5,5.7-26.1,5.2-28.8-1.6-58.2-1.8-86-8.3-30.8-7.3-39.4-24.1-39.5-53.7-47,0-93.9-.9-140.8.7-10,.3-21.1,8.3-29.3,15.5-125.7,111.4-257.7,214.4-410.3,286.5-70.6,33.4-145.1,58.3-217.9,87.1-1.1-2.5-2.2-5-3.3-7.6,53.1-42.7,107.5-83.9,158.9-128.4,51.8-44.9,100.8-93.1,143.2-132.6-7-38.3-11.2-67.2-18-95.4-2.7-11.2-11.3-21.1-19.3-35.1-39.4,76.4-107.7,72.2-174.3,71.3-3.7-.1-7.3-7.2-11.6-11.8-85.1,22.4-174,9.6-262.2,11.2-8.1.2-18-.3-24.2-4.6-28.1-19.9-54.8-9.8-83-.3-15.3,5.2-32.7,5.6-49.1,5.8-55.5.7-111.1.3-166.6.2-9.1,0-19.5,1.3-27-2.5-38.6-19.6-76.2-4.8-115.2-2.1-77.4,5.3-155.7,4.6-233-1-57.3-4.2-71.9-45.8-36.2-101.4,2.4-3.7,5.4-7.7,6-11.8,11.4-72,49.3-110,122.1-113.3,70.3-3.1,140.9-.6,211.3-.4,4.9,0,10.5.4,14.6,2.6,31.9,17.5,63.2,4.6,95.9,2.3,80.7-5.8,162.1-3,243.2-3.7,34.9,23.3,69.5,3.4,104.9,1.4,77.6-4.4,155.7-2.3,233.5-1.4,13.4.2,26.8,7.5,33.4,9.5,17.4-5,29.2-11.2,41.1-11.3,82.9-.9,165.8-.5,248.7-.4,12.4,0,25,.1,37.2,2.2,38.3,6.6,61.4-4.1,85.3-42.6-137-16.4-273.3-20.3-409.9-17.7s-272.8,10.1-416.1,40.1c25.4-54.1,44.4-103.3,70.6-148.4,60.4-104,141.6-191.7,227.4-275.1,128.8-125.2,268.1-237.1,425.7-324.6a1132.83,1132.83,0,0,1,252.5-102.5c6.8-1.8,13.7-3,28-6.1-116.1,85.9-222,171.9-314.1,273,45.4,73.7,22,152.1-61.9,202.8-38.8,23.5-81.6,40.4-121.2,62.8-25.3,14.3-48,33-70.2,53.6,138.1,21.6,275.1,24.5,412.3,22.2,136.5-2.3,272.7-10.4,408.2-38.8-33.1,115.5-98.1,208.7-173.2,296.1,1,2.6,2,5.1,3,7.7,17.3-1.6,34.6-4.4,51.9-4.5,35.4-.2,71.4-4.7,104.5,14.1,5.2,3,13.5,2.4,19.9,1.2,27.5-4.8,54.8-13.8,82.4-15,56.3-2.4,112.7-1.6,169.1-.3,22,.5,43.9,5.8,60.2,8.1,76.1-18.4,141.4-14.4,193.7,46.6C2649.45,967.62,2712.45,972.22,2779,973.72Zm-779.4-229c-268.7,21.5-534.1,25.7-800-12.6,19.7-59.3,54.1-101,105.6-128.3,24.1-12.8,48.5-25.1,72.3-38.4,29.5-16.5,61.7-30,87-51.5,52.4-44.4,47.8-95.8-9.3-136.3q34-36.75,67.8-73.3c-1.3-1.5-2.7-3-4-4.5-16.8,13.8-33.1,28.4-50.6,41.1-29.8,21.5-51.8,47.5-48.1,86.5,2.3,24-10.9,36.6-27.8,48.2-10.2,7-21.2,13.1-31.1,20.5-51.8,38.4-105.2,74.9-154.4,116.4-40.1,33.8-70.7,76.6-87.7,127.5-10.4,31.1-8.8,36.8,22.1,44.2,30.4,7.4,61.7,13.3,92.8,14.8,138.9,6.5,278,10.3,416.9,17,55,2.6,111.4,0,162.4,28.4,4.7,2.6,14.2-.3,20-3.3,31.5-16.6,62.8-33.5,93.6-51.3C1951.65,775.52,1975.45,759.82,1999.55,744.72Zm-302.5,225.4c58.3,9.7,70.1,6.1,94.9-41.9,36.7-71.1,32.4-85.6-46.6-93.4-123.4-12.2-247.9-13.6-371.9-20.7-74.3-4.2-150.5-2-222-19-45.2-10.8-75.8-3.3-110,19.2-29,19.1-59.1,36.7-88.5,55.3-7.3,4.6-13.7,10.6-17.6,13.5,131.1-4.8,263.9-11.7,396.8-14,133.1-2.2,266,4.6,398,27.8-.4,4.9.1,7.6-.8,9.5C1719,927.12,1708.45,947.72,1697.05,970.12Zm-197.8-668.8c-1.4-1.6-2.8-3.3-4.1-4.9-225.6,158.3-433.2,334.5-574.6,576.4,58.6-31.9,115.5-65.2,172.1-99.2,5-3,9.9-9.4,11-15.1,13.5-64.8,51.2-115.8,99.5-156.8,52.2-44.3,109.2-83.1,165.8-121.9,26.1-17.9,46.3-35.4,43.6-70.7-1.9-23.6,9.7-42.9,28.2-58C1460.45,335,1479.75,318,1499.25,301.32Zm-1187.7,771c-.7-23.2,10.4-28.9,30.9-28.4,53.8,1.2,107.7.4,161.5.4h46.7c2-27.1-15.7-31.8-31.9-32-76.9-.9-153.8-1.4-230.6.7-29.8.8-49.5,19.5-58,49.6-7.1,25.3-3.2,35.2,23.2,40.8,16,3.4,32.8,4.2,49.2,4.4,47.5.6,95,.2,142.7.2-1.3,22.4-10.8,29-30.6,28.5-52.2-1.4-104.4-.5-156.6-.5H204c4.8,23.3,10.8,31,36.9,31.5,75.2,1.4,150.5.4,225.8-.5,8.7-.1,17.7-4.1,26-7.7,17.9-7.9,40.8-47.1,35.1-63.6-8.1-23.6-31.1-21.3-50.2-23-17.3-1.6-34.8-.4-52.2-.4Zm1192,38.4c17.9-4.7,32.6-7.3,46.4-12.4,20.6-7.6,43.4-43.4,39-63.6-5.6-26.1-29.9-24.2-48.4-24.6-79.4-1.7-158.9-1.5-238.3-1.3-5.1,0-13.2,4.5-14.8,8.8-18.7,49-36.5,98.5-54.7,148.4,59.9,8.3,81-3.9,99.6-55.4,6.2-17.1,11.8-34.4,19-51.1,2.5-5.9,8.9-14.3,13.6-14.4,46.8-1.1,93.6-.7,140.5-.7.6,23.7-10,29.1-29.3,28.2-30.7-1.4-61.6-.4-97.6-.4,25.8,33.2,47.4,61.3,69.6,88.9,3.3,4.1,9.2,8.5,14,8.7,27.7.8,55.5.4,88.6.4C1532.85,1147.62,1518.65,1129.82,1503.55,1110.72Zm-471,58v-.4c34.8,0,69.5,1,104.2-.3,33-1.2,58.8-13.3,67.9-49.7,5.4-21.5,15-42,22.5-63,9.8-27.3,4-41.6-24.6-42.3-78.4-2.1-156.9-1.4-235.2.7-20.2.6-40.2,10.2-48.3,33.2-9.9,28-20.1,56-30.9,83.6-6.2,15.9-.6,26.4,14,31.4a127,127,0,0,0,36.2,6.5C969.65,1169.32,1001.05,1168.72,1032.55,1168.72Zm1164.1,0v-.7c35.6,0,71.2,1.1,106.7-.3,32.3-1.3,56.7-14.3,65.5-49.3,5.4-21.5,14.9-42,22.5-63,9.8-27.4,4.2-41.6-24.5-42.4-78.4-2.1-156.9-2.1-235.2,1.3-16.2.7-37.7,16.2-46.2,30.9-15.5,26.8-24.4,57.7-33,87.8-2.2,7.7,4.7,22.5,11.9,27.2,9.5,6.3,23.4,7.6,35.5,8C2132.05,1169.32,2164.35,1168.72,2196.65,1168.72Zm305.3-87.6c26.8,22.7,51.8,42.7,75.4,64.2,24.3,22.2,53.3,24.3,83.5,23,4.1-.2,10.3-3.3,11.6-6.6,18.9-49.8,37.1-99.9,55.5-149.9-68.3-11.8-98.2,24.8-109.8,86.1-30.2-25.5-55.6-46.6-80.6-68.2-24-20.7-54.1-24.2-81.7-18.9-10.5,2-16.4,28.7-24.1,44.2-2.5,5.2-4.2,10.8-6.1,16.2-11.4,31.4-22.7,62.8-35.3,97.4,23.5,0,42.5-.9,61.4.3,14.3.9,20.6-5,24.8-17.9C2483.75,1128.62,2492.65,1106.52,2502,1081.12Zm-1636.7,17.3c-25.9,6.9-54.2,7-71.3,20.9-22.5,18.2-44.5,16.6-68.5,16.8-32.5.2-65,0-100.9,0,11.1-30.5,20.1-56.1,29.8-81.4,1.5-4,6.1-9.5,9.4-9.6,47.4-.6,94.9-.4,143.7-.4-2.4,11.8-4,19.5-6.8,33.1,24.1-5.2,45.7-7.1,64.9-15,10.7-4.4,17.3-18.6,25.8-28.3-9.8-7.4-19.4-21-29.3-21.1-79.3-1.4-158.6-1.6-237.8.9-25,.8-43.8,16.8-51.3,43.6-5.7,20.6-14.3,40.5-21.5,60.7-11.8,32.8-3.9,48.2,30.8,49,72.8,1.7,145.7,2,218.5-.4C842.35,1165.72,858.15,1147.12,865.25,1098.42Zm724.1,67.3c59.6,9.1,80.6-3.1,99.7-55.2,6.2-17.1,11.4-34.6,18.9-51.1,2.8-6.2,10.5-14.2,16.1-14.3,45.4-1.2,90.8-.7,139.5-.7-3.7,11.1-6.5,19.3-9.4,27.9-25.3,0-49.3-.1-73.3,0-33.5.2-49.3,9.3-60,37.9,56.9-2.5,111.9-4.7,166.9-7.7,8-.4,16-4.2,23.5-7.6,17.4-7.8,38.5-44.7,33.8-61.6-6.3-22.7-27.6-19.8-44.8-23.5a10.14,10.14,0,0,0-2.5-.2c-79.5-.4-158.9-1.1-238.4-.8-5.7,0-14.5,5.6-16.4,10.6C1624.65,1067.22,1607.55,1115.42,1589.35,1165.72ZM1784.65,973c18,0,39.3.6,60.6-.4,5.7-.3,13-4.2,16.3-8.7q71.4-96.45,141.7-193.8c3.2-4.4,3.9-10.6,5.8-15.7-57.6,32.6-113.8,64.1-169.7,96.1-5.8,3.3-12.1,8.8-14.5,14.8C1811.15,900,1798.55,935.32,1784.65,973Zm211.9,195.9c2.3-1.5,14.6-4.8,17.5-11.9,15.1-36.6,27.9-74,41.1-111.4,6.1-17.4-3.2-29.2-18.7-30.8-17.5-1.9-40.5-21.4-52.4,9.2-11.7,29.9-22.4,60.2-33.5,90.4C1936.75,1152.42,1947.05,1167.12,1996.55,1168.92Zm-390.7,40h-79.2c-7.8,16.7-13.3,34.1-23.3,48.2s-24.2,24.8-36.8,36.7c-12.4,11.7-25.1,23-37.6,34.5,1.5,1.7,3,3.5,4.5,5.2C1488.85,1293.62,1544.15,1253.52,1605.85,1208.92Zm-197.6,114.7c1.6,1.4,3.3,2.8,4.9,4.2,34.1-37.9,88.4-58.6,99.7-119.4h-73.8c-2.2,2.7-4.4,5.5-6.5,8.2l41,37.3C1453.35,1275.42,1430.85,1299.52,1408.25,1323.62ZM675.35,1101c29.8-8.7,57.7,6.9,86.9-15.1C715.55,1076.42,687.65,1080,675.35,1101Z"/><path class="cls-1" d="M1151.15,1044.42c-10.8,29.8-19.1,54.9-29.1,79.2-2.2,5.4-10.1,11.7-15.5,11.9-45.4.9-90.8.5-140.4.5,11-30.2,20.3-57.3,30.9-83.9,1.5-3.8,9-7.3,13.8-7.4C1056.15,1044.22,1101.55,1044.42,1151.15,1044.42Zm-137.8,49.6c51.9,9.4,77.2,5.5,83.1-12.8C1070.35,1085.52,1042.85,1072.52,1013.35,1094Z"/><path class="cls-1" d="M2315.75,1044.52c-11.4,30.6-21.1,57.6-31.8,84.2-1.3,3.4-7.2,6.9-11.1,7-46.2.5-92.3.3-142.4.3,10.7-29.7,19.8-56,30-81.9,1.7-4.2,8.2-9.1,12.5-9.2C2219.05,1044.22,2265.15,1044.52,2315.75,1044.52Zm-47.5,41.4c-50.6-10.3-76.9-6.1-82.9,12.7C2211.15,1093.62,2238.75,1106.62,2268.25,1085.92Z"/></g></svg>