<svg id="Слой_1" data-name="Слой 1" xmlns="http://www.w3.org/2000/svg" viewBox="0 0 3227.2 526.1"><defs><style>.cls-1{fill:#ff8200;}</style></defs><title>Segura</title><g id="Слой_18" data-name="Слой 18"><path class="cls-1" d="M116.6,426c8-18.7,17.1-37,23.7-56.2,4.2-12.1,10.6-14.6,22.4-14.6,107.6.5,215.1.2,322.7.4,19.6,0,37.5-4.9,53.2-16.6,13.7-10.3,12.6-24.2-3.3-31-8.6-3.7-18.7-5.1-28.2-5.2-68.1-.6-136.2-.4-204.4-1.1-14.7-.1-29.9-1-44-4.7-49.1-12.7-68.9-55-47.5-101.3s60.1-73,106.6-88.6a193.22,193.22,0,0,1,58.5-9.6c107-.9,214.1-.3,321.1-.3H717c-10,25-18.9,48.6-29.3,71.6-1.5,3.3-10.4,4.6-15.9,4.6q-160.5,0-321.1-.7c-19.4-.1-38.1,2.6-53.4,15.1-5.4,4.4-11.8,12.9-10.8,18.1,1.2,6.4,9,13.2,15.5,16.4,6.9,3.4,15.8,3.7,23.9,3.8,70.2.3,140.3,0,210.5.6a153.78,153.78,0,0,1,39.3,5.3c46.2,12.9,65.7,52.3,47.5,96.9-17.5,42.8-51.1,70.6-92.9,86.6-24.3,9.3-51.4,15.3-77.3,15.7-106,1.6-212,.4-318.1.4-6.1,0-12.3.4-18.4.6C116.6,430.1,116.6,428.1,116.6,426Z"/><path class="cls-1" d="M1196.8,97.8c-10.3,25.1-19.1,47.9-29.4,69.9-1.7,3.6-9.9,5.8-15.1,5.8-80.4.4-160.8.2-241.2.2-29.7,0-59.4-.3-89.1.1-28.9.5-57.6,23.7-65.5,53.6h387.8c-10.4,25.2-19.1,47.9-29.3,69.9-1.6,3.5-10,5.3-15.3,5.4q-161.25.45-322.6.1H743.3c-21.1,0-23.9,2.3-25.1,20.9-1.2,18.1,7.1,29.5,23.6,31.7a171,171,0,0,0,21.5.9q153.6.15,307.3,0h21.5c-10.4,25.5-19.7,49.5-30.3,72.8-1.3,2.8-10.1,3-15.4,3q-144.45.15-288.8-.2c-14.3,0-28.7.2-43-.1-55.8-.9-92.3-45.2-75.9-98.3,14.5-47.1,31.5-94.6,56-137,37-64.1,95.4-99.5,172-99.3q156.75.45,313.4.5C1184.4,97.8,1189,97.8,1196.8,97.8Z"/><path class="cls-1" d="M3092.3,229.9h98.5c-10.5,25.3-19.9,48.7-30.4,71.6-1.3,2.9-8.5,4.4-13,4.4-25.1.3-50.2.4-75.3-.2-8.5-.2-12.6,2.5-15.8,10.5-14.2,36.1-29.5,71.8-43.6,107.9-3.4,8.6-7.7,11.5-16.8,11.2-20.4-.6-40.9-.2-63.4-.2,17.5-43.4,34.3-85.4,51.7-128.6-5.8-.3-10.2-.7-14.6-.7-94.2-.1-188.5.1-282.7-.7-12.7-.1-17.8,4.3-22,15.3-13.1,34.3-27.3,68.2-40.5,102.5-3.4,8.8-7.8,12.7-17.8,12.3-20.3-.9-40.7-.3-63-.3,2.3-6.5,3.8-11.2,5.7-15.8,26.2-64.8,52.7-129.5,78.6-194.5,28.8-72.4,111.4-127.6,184.7-124.9,68,2.5,136.2.3,204.4,1,13.6.1,27.8,2.1,40.5,6.6,38.6,13.9,54.9,55.1,41.6,101.1C3097.4,215,3095.2,221.2,3092.3,229.9Zm-388.6-1.7c1.2.5,1.7.9,2.2.9q150.3.75,300.7,1.2c3.4,0,9.6-2.6,9.9-4.5,1.3-11.7,4.8-25.1.5-34.9-3.1-7.1-16.7-12.7-26-13.5-22.3-2-45-.7-67.5-.8-48.6-.2-97.2-.6-145.8-.5C2742.1,176,2713.9,195.8,2703.7,228.2Z"/><path class="cls-1" d="M1643.8,98.3c-10.2,25.3-18.6,47.7-28.5,69.4-1.6,3.6-9.9,5.9-15,5.9-94.8.4-189.5.2-284.3.4a88.26,88.26,0,0,0-21.2,2.2c-24.9,6.3-42.9,21.7-52.9,45.1-12.5,29.1-23.9,58.6-35.2,88.1-11.4,29.9.1,46.6,32.1,46.9q101.4.75,202.8,1.2a174.2,174.2,0,0,0,26-2.1c31.4-4.6,45.5-18.3,52.7-52.1H1327.1c9.8-24.1,18.2-46.6,28.4-68.1,2-4.3,11.4-7.2,17.3-7.2,76.8-.1,153.6.5,230.5.9H1628c-1.9,5.4-3.2,9.6-4.8,13.6-9.3,23.2-19.2,46.2-28.1,69.6-30.7,80.4-92.1,117.7-175,120.5-71.6,2.4-143.4.9-215.1.4-43.2-.3-73.5-19.3-80.7-54.3a122,122,0,0,1,2.9-58.5c11.4-36.4,24.8-72.8,42.2-106.7,36.8-71.8,95.1-114,178.2-114.7,92.2-.8,184.4-.4,276.6-.6C1629.7,98.3,1635.3,98.3,1643.8,98.3Z"/><path class="cls-1" d="M2489.9,305H2466c-91.2-.1-182.3-.1-273.5-.7-11.4-.1-16.9,3.1-21.1,14.2-13,34.4-28,68-41.1,102.3-3.8,9.9-9,13.2-19,13-19.9-.5-39.9-.2-62.2-.2,1.9-5.6,3.4-10.6,5.4-15.4,41.4-101.6,83.1-203.1,124.1-304.9,4.1-10.2,9-13.6,19.9-13.5,109.1.5,218.2.4,327.2.7a148.16,148.16,0,0,1,30.4,3.3c48.3,10.5,70.7,52.2,52.4,98-29.6,73.9-59.6,147.6-89.2,221.5-3.2,8.1-7.1,12.2-16.6,11.8-20.3-.8-40.7-.3-64.4-.3C2455.8,390.6,2472.3,349.2,2489.9,305Zm-281.6-77c3.7.6,5.5,1.2,7.4,1.2,98.7.1,197.4,0,296.1.2,17.5,0,14.2-16.1,19.4-25.1,5-8.6.7-17.5-8.2-21.8-6.7-3.3-14.4-6-21.7-6q-131.1-.9-262.3-.8c-3.8,0-9.6,2.4-10.9,5.3C2221,196.1,2215,211.7,2208.3,228Z"/><path class="cls-1" d="M1771,98.7c-26.2,64.9-51.2,126.8-76.1,188.7-3.6,9-7.7,17.8-10.7,27-8.3,26,4.5,43.7,31.8,43.9,37.4.3,74.7.1,112.1.1,31.7,0,63.5.1,95.2.1,36.9,0,63.2-17.6,77.1-51.9,26.1-64.3,52.2-128.5,77.8-193,4.1-10.4,9.1-15.2,21-14.5,19.3,1.2,38.8.3,60.2.3-2.1,6.2-3.5,10.8-5.3,15.3-25.7,64.4-51.9,128.6-77.2,193.2-25.7,65.7-103,128-185.6,125.9-67-1.7-134.1-.2-201.2-.5-11.2,0-22.7-.5-33.5-3.2-44.2-11-66.6-50.9-53.5-97.9,6.4-23,16.3-45,25.1-67.3,20.4-51.2,41.4-102.1,61.5-153.4,3.7-9.5,8.1-13.7,18.7-13.3C1728.4,99.4,1748.3,98.7,1771,98.7Z"/></g></svg>