<svg id="Слой_1" data-name="Слой 1" xmlns="http://www.w3.org/2000/svg" viewBox="0 0 2392.58 1334.67"><defs><style>.cls-1{fill:#ff8200;}</style></defs><title>Zandona</title><g id="Слой_22" data-name="Слой 22"><path class="cls-1" d="M1801,182.21c-2.1,4.2-5.9,6.8-9.1,10-61.8,61-122.5,123.2-183.8,184.7q-77.4,77.7-154.7,155.5a11.41,11.41,0,0,0-1.1,1.1c-8,10.6-19.6,14.3-31.9,17.8q-172.5,48.6-344.9,97.7a3.41,3.41,0,0,1-2.7-.3c96.6-104,193.2-208,291-313.2H816.13v-1.3l52.3-7.8q78.45-11.85,157-23.8l135.5-20.7q81.6-12.6,163.2-25.1,83.4-12.9,166.8-25.7,94.35-14.7,188.7-29.5c38.3-6,76.6-12.2,114.9-18.3,1.2-.2,2.5-.1,3.4-1.1Z"/><path class="cls-1" d="M2285.33,982.31c-1.2,1.8-2.4,3.7-3.7,5.5-9.7,12.9-27.7,12.6-36.7-.8q-37.2-55.95-74.3-112c-5.3-8-6.2-16.7-1.2-25,4.5-7.7,11.5-11.9,20.8-10.9a21.33,21.33,0,0,1,15.9,9.4q38.1,56.7,75.9,113.5a66.5,66.5,0,0,1,3.4,6.5C2285.33,973.11,2285.33,977.71,2285.33,982.31Z"/><path class="cls-1" d="M789.93,955.61v6c0,36.2-.1,72.4,0,108.6,0,14.6-5.4,26.2-18.8,32.8-13.9,6.9-27.8,7.2-40.5-3.3-2.5-2-3.6-1.8-6,.2-17.3,15.1-42.2,11.6-55-7.8q-14.1-21.45-27.9-43c-1.9-3-3.9-4.2-7.6-4.2-39.2.1-78.4.2-117.6,0-4.6,0-6.9,1.6-8.9,5.4-5.3,10.3-10.7,20.6-16.5,30.6-8.3,14.3-19.8,24.6-36.7,27.5-11.9,2-21.9-1.3-30.4-9.7-2-2-2.9-2.4-5.3-.3a36.7,36.7,0,0,1-25.1,9.5q-124.5,0-249,0c-17.3,0-29.2-9.2-35.2-24.7-5.1-13-2.7-25.7,6.6-36.6,4.5-5.3,10.6-8.7,16.1-12.9q73.8-55.8,147.8-111.6c.8-.6,1.6-1.3,2.7-2.2-2-1.1-4-.6-5.8-.6q-67,0-134,.2c-15.7,0-34.9-16.4-35.7-35.2-.8-20,18.1-39.1,39.1-38.9,82.1.5,164.3.2,246.4.2,21.6,0,36.8,13,38.8,34.5,1.3,13.8-4.9,24.9-15.9,33.3l-153,115.2c-1.8,1.4-3.6,2.7-5.4,4.1.9,1.7,2.3,1,3.4,1,42.4.2,84.8.5,127.1.3,12.6-.1,24.1,1.8,33.8,11.1,9.5-18.7,22.4-34.5,34.8-50.8a66.52,66.52,0,0,0,3.9-6.3c7-11.9,17.6-16.2,31.1-16,23.5.4,47,.2,70.5.2,9.2,0,18.3.6,27.8-.6,0-1.9-1.4-3.1-2.3-4.4-13.9-20.8-27.9-41.5-41.7-62.4-12.9-19.6-7.2-43.5,13-55.2,15.5-9,36.4-3.5,47.2,12.7q39.9,59.7,79.8,119.5c10.2,15.2,20.3,30.4,31.4,46.9V879.41c0-15.7,9.5-29.3,23.1-33a32.51,32.51,0,0,1,29,5.4l192.3,141c1.5,1.1,3.1,2.2,4.9,3.5,1.4-1.9.7-3.8.7-5.6,0-35.1.6-70.3-.2-105.4-.5-22.6,16.3-34.9,31.3-38.3,16.5-3.8,32.6,5.7,40.5,23.2.3.6.6,1.2,1,1.9,7.1-16.9,20.9-26.2,39-26.2,65.4,0,130.7-.7,196,.3,35.1.5,69.6,16.6,83.9,56.9,2.2-.2,1.9-2.4,2.4-3.6,15.4-36.3,43.7-53.1,82.1-53.4,47.5-.4,95,0,142.5-.1,29.3-.1,53.6,10.9,74.1,31.9.6-2.9,1.1-5.8,1.9-8.5,6.7-23.2,31.4-31.5,50.9-17.2q59.55,43.65,119,87.3,38.1,28.05,76.3,56c.5.4,1.1.7,2.5,1.6V884.31c0-19.2,13.5-34.1,32.6-37.5,17.1-3.1,41.4,11.3,41.5,37.6.2,41.2,0,82.3,0,123.5v6.4c6.4-8.6,13.1-15.4,17.6-23.6,7.4-13.5,18.4-18.6,33.5-18.2,19.8.6,39.6.2,59.3.1,12.5-.1,25,.6,38.5-.6-5.2-7.8-10.1-15.2-15-22.5-10.1-15.1-20.4-30-30.2-45.3a38,38,0,0,1,21.8-57.6c13.7-3.8,30.1,2.8,39,16,22.7,33.8,45.2,67.7,67.8,101.5,19.2,28.7,38.4,57.3,57.5,86.1,8.9,13.4,8.9,30.8.5,42.8-16,22.7-47.5,21.9-62.5-1.5-9.1-14.2-18.41-28.3-27.5-42.6a7.12,7.12,0,0,0-6.8-3.7c-39.7.1-79.5.1-119.2,0-3.41,0-5.41.9-7,4-5.8,11.1-11.5,22.2-17.8,32.9-8.3,14.1-19.9,24-36.7,26.7a33,33,0,0,1-24.6-5.4c-1.9-1.3-3.2-1.8-5.6-.5-13.5,7-26.7,5.4-38.7-3.4q-95.1-69.75-190-139.8c-1.4-1-2.8-2.1-5.1-3.8v114.2c0,20.4-12,33.9-32.1,37.4-16.1,2.8-35.1-7.6-40.7-28.9-.2-.8-.3-1.5-.6-2.8-15,19.7-35.1,28.8-58.4,32a44.42,44.42,0,0,1-6.3.4c-51.8,0-103.5-.2-155.3.1-26.6.2-65-15.3-78.5-53.1-.7-2-1.6-3.9-2.6-6.3-6.4,18.3-16.5,33.1-31.9,44.1a82.9,82.9,0,0,1-48,15.2c-66.2.2-132.5,0-198.7.1-18.3,0-32.1-6.9-39-24.7a9,9,0,0,0-1.4-1.9c-3.7,11.1-9.7,19.9-21.1,23.5-12.1,3.9-23.4,1.6-33.5-5.8q-84.6-62.1-169.1-124.5C807.63,968.71,799.33,962.51,789.93,955.61Zm398,104.7c24.9,0,49.8-.1,74.7.1a57,57,0,0,0,21.6-3.9,41.21,41.21,0,0,0,26.3-37.8c.2-26.6.3-53.3.5-79.9.3-31.8-24.7-45.2-45.4-45.3-51.9-.4-103.8-.2-155.7-.1-12.3,0-19.9,7.4-20,19.6q-.15,64.05,0,128.2c0,12.2,7.4,19.2,19.6,19.2Q1148.83,1060.26,1187.93,1060.31Zm328.3-1.7c22.2,0,44.5-.4,66.7.1,28.8.7,43.3-22.2,43.3-43.1,0-25.8.4-51.6-.1-77.3-.5-26.5-17.9-42.1-41.8-42.6-46.1-1-92.2-.7-138.2-.1-24.4.3-38.5,19.3-38.8,39.8-.4,27.7-.2,55.4-.1,83.2.1,22.9,17.4,40.1,40.2,40.1S1493.23,1058.71,1516.23,1058.61Z"/><path class="cls-1" d="M593.73,823.51c7.9-8,15-15.1,22.1-22.2q40-40,80.1-80.2c20.1-20.2,40-40.5,60-60.6q84.9-85.5,169.9-171c9.1-9.1,18.4-18,27.5-27.1a12.68,12.68,0,0,1,5.9-3.2l360.7-102.3c.8-.2,1.6-.5,4-1.2-97.7,105.1-194.3,209.1-292.1,314.4h545.9c0,.6.1,1.1.1,1.7Q1086.43,746.21,593.73,823.51Z"/><path class="cls-1" d="M2044.13,1152.91c7.9,0,15.9-.1,23.8,0,8.8.2,15,5.9,15.9,14,.4,3.5-.7,6.1-4.2,6.8s-5.4-1.6-5.7-4.7c-.5-4.8-3.3-6-7.6-6-15.2.1-30.4,0-45.6,0h-2.1c-5,.5-8.2,3.6-8.2,8,0,4.1,3.1,7.1,8.2,7.3,6.3.3,12.7.1,19.1.1,8.7,0,17.3-.1,26,0,11.7.2,20.1,8.2,20.4,19.3.3,11.5-7.6,20-19.8,20.3-16.1.3-32.1.2-48.2,0-8.4-.1-14.4-5.8-15.5-13.9-.4-3.3.2-6.3,3.9-6.9,3.5-.6,5.6,1,6.1,4.8.5,4.2,3,5.9,7.3,5.9,15.2-.1,30.4,0,45.6-.1,6.9,0,10.5-3.5,10.5-9.8s-3.6-9.4-10.7-9.4c-14.3,0-28.6.1-42.9,0-11.8-.1-19.9-7.7-19.8-18.2.1-10.1,8-17.3,19.3-17.6C2027.93,1152.81,2036,1152.91,2044.13,1152.91Z"/><path class="cls-1" d="M1955.33,1152.91c8.1,0,16.2-.2,24.4.1,9.2.3,15.7,6.9,15.6,15.3,0,3.1-1.3,5.2-4.4,5.5s-5.1-1.5-5.3-4.6c-.4-5.2-3.5-6.2-8-6.2-15.2.1-30.4,0-45.5,0a11,11,0,0,0-6.6,1.6c-3,2-4.3,5-3.3,8.3,1.2,4.1,4.7,5.5,8.7,5.6,11.3.1,22.6,0,33.9,0h10.1c11.9.2,20.3,7.9,20.4,19,.2,12.3-7.2,20.3-19.8,20.6-12.2.3-24.4.1-36.5.1-4.1,0-8.1.2-12.2-.1-8.7-.6-15.1-7.6-14.6-15.7.2-2.7.9-5,4.1-5.2,2.9-.2,5.2.6,5.6,4.1.5,5,3.3,6.8,8.3,6.7,14.6-.2,29.3,0,44-.1,7.5,0,11.6-3.6,11.5-10-.1-6-4.1-9.2-11.6-9.2-14.1,0-28.2.1-42.4,0-11.8-.1-19.4-7.6-19.3-18.5.1-10,7.6-17,18.8-17.3C1939,1152.71,1947.13,1152.91,1955.33,1152.91Z"/><path class="cls-1" d="M902.33,1152.91H924c10.9.1,18.8,7,19.7,17.9a182.83,182.83,0,0,1,0,29.6c-.9,10.9-8.7,17.9-19.7,18-14.5.1-28.9.1-43.4,0-12.1-.1-20.1-7.9-20.4-20.1-.2-8.5-.2-16.9,0-25.4.2-12.2,8.2-19.9,20.4-19.9C887.93,1152.91,895.13,1152.91,902.33,1152.91Zm-.6,10.4H880c-5.9,0-9.2,3-9.4,9-.2,8.8-.2,17.6,0,26.5.1,5.8,4,9.2,9.9,9.3,14.3,0,28.6.1,42.9,0,6.7,0,10.2-3.3,10.3-10q.3-12.45,0-24.9c-.1-6.7-3.5-9.8-10.3-9.8C916.13,1163.21,908.93,1163.31,901.73,1163.31Z"/><path class="cls-1" d="M1469.23,1218.41c-7.2,0-14.5.1-21.7,0-11.7-.2-19.5-8.1-19.5-19.7v-27c.1-10.7,7.9-18.8,18.6-18.8q22.5-.15,45,0c11.3.1,19.6,8.2,19.9,19.5q.3,13.2,0,26.4c-.3,11.2-8.7,19.3-20,19.5C1484,1218.51,1476.63,1218.41,1469.23,1218.41Zm.1-55.1h-21.7c-6,0-9.4,2.7-9.6,8.7q-.45,13.5,0,27c.2,5.8,3.8,9,9.6,9,14.5.1,28.9.1,43.4,0,6.5-.1,10-3.7,10.1-10.2q.15-12.15,0-24.3c-.1-6.6-3.5-10.1-10.1-10.1C1483.83,1163.21,1476.63,1163.31,1469.33,1163.31Z"/><path class="cls-1" d="M2148.63,1152.91c7.4,0,14.8-.1,22.2,0,12.1.2,20.1,8.3,20.1,20.5,0,8.3.1,16.6,0,24.9-.1,11.6-7.9,19.7-19.6,19.8-14.8.2-29.7.2-44.5,0-11.2-.2-18.9-7.8-19.2-19.1-.2-9.2-.2-18.4,0-27.5.3-10.8,8.3-18.4,19.1-18.6C2134.13,1152.81,2141.43,1152.91,2148.63,1152.91Zm0,55.1c7.2,0,14.5.1,21.7,0s10.7-3.4,10.9-10.7c.2-7.8.1-15.5,0-23.3-.1-7.5-3.7-10.9-11.2-11h-42.4c-6.6,0-9.8,3.1-9.9,9.6-.2,8.6-.2,17.3,0,25.9.1,6.2,3.5,9.3,9.7,9.4C2134.53,1208.11,2141.63,1208,2148.63,1208Z"/><path class="cls-1" d="M805.73,1152.91h26c16.3,0,23.9,15,18.2,28.5-1.4,3.4-1.1,4.7,1.2,7.4,6.4,7.6,4.7,16.9,4.1,25.8-.2,2.5-2.7,3.8-5.2,3.6a5,5,0,0,1-4.8-5.3c-.1-3.7,0-7.4,0-11.1-.1-6.1-3-9.2-9-9.3-16.8-.1-33.6,0-50.3-.1-2.9,0-4.1.8-4,3.9.2,5.1-.1,10.2.1,15.4.1,3.9-1.6,6.5-5.3,6.5-3.5,0-4.9-2.6-4.8-6.3.2-7.8.2-15.5,0-23.3-.1-4.9,2.2-6.5,6.7-6.5,17.3.1,34.6,0,51.9.1,4.6,0,8.4-1.1,10.3-5.7,2.8-7.1-1.4-13.2-9.3-13.2-17-.1-33.9,0-50.9,0a18.3,18.3,0,0,1-4.7-.3c-2.9-.8-4.5-2.7-4-5.9.5-2.9,2.2-4.2,5.1-4.2Z"/><path class="cls-1" d="M1639.63,1152.91h25.9c16.6-.1,24.3,15.7,18.1,29.3-1.1,2.3-1.7,3.7.7,5.7,3.6,3.1,4.9,7.7,5.2,12.3.2,4,0,8.1.1,12.2,0,3.7-2,5.9-5.4,5.8-3.1-.1-5-2.3-4.9-5.7q.15-5.55,0-11.1c-.2-5.7-3.2-8.8-8.9-8.9-16.9-.1-33.9,0-50.8-.1-2.9,0-3.6,1.1-3.6,3.7.2,5.3,0,10.6.1,15.9.1,3.7-1.8,6-5.2,6.1s-4.9-2.5-4.9-6.1c.2-7.8.2-15.5,0-23.3-.2-4.9,1.9-6.6,6.59-6.6,17.3.1,34.6,0,51.91.1,4.8,0,8.8-1.1,10.5-6.1,2.5-7-1.7-12.8-9.3-12.8-16.9-.1-33.9,0-50.8,0a18,18,0,0,1-5.2-.5c-2.7-.7-4-2.7-3.6-5.6s2-4.3,5-4.3Z"/><path class="cls-1" d="M1162.33,1152.91c8.5,0,16.9-.2,25.4,0,8.9.2,15.4,6.6,15.6,14.7.1,3.5-1.1,6-4.8,6.3-3.4.2-5.4-2-5.5-5.2-.1-4.7-3-5.5-6.7-5.5-16.1,0-32.1-.1-48.2,0-5.4,0-8.8,3.2-9,8.9-.3,9.3-.2,18.7,0,28.1.1,4.7,3.3,7.6,8.3,7.7,16.2.1,32.5.1,48.7,0,3.5,0,5.7-1.6,6-5.2s1.9-6.2,6-5.7c3.9.5,4.2,3.5,4.2,6.7-.2,8.3-6.2,14.3-15.6,14.5-16.2.2-32.5.3-48.7,0-12.5-.3-19.2-7.7-19.2-20.3,0-7.9-.1-15.9,0-23.8.1-13.4,8-21.3,21.3-21.3C1147.53,1152.91,1154.93,1152.91,1162.33,1152.91Z"/><path class="cls-1" d="M720.23,1182.21c9.2,0,18.4.1,27.5,0,7.3-.1,10.5-3.1,10.5-9.5,0-6.6-3.1-9.4-10.4-9.4h-53.5a18.14,18.14,0,0,1-4.7-.2c-2.7-.8-4.8-2.3-4.5-5.6s2.3-4.6,5.4-4.5h57.2c12.6,0,20.9,7.7,21,19.3.1,12.1-7.9,20.1-20.7,20.3-15.5.2-31.1.2-46.6-.1-4.7-.1-6.6,1-6.1,6,.5,4.5.1,9.2.1,13.8,0,3.5-1.8,6-5.3,6s-5.1-2.5-5.1-6c.1-7.8.2-15.5,0-23.3-.1-4.7,1.7-6.8,6.5-6.7C701.13,1182.31,710.73,1182.21,720.23,1182.21Z"/><path class="cls-1" d="M2270.53,1202.71v-35.9c0-2.6-.1-5.3,0-7.9.1-3.2,1.6-5.6,4.9-5.8s5.1,2.3,5.1,5.5c.1,18,.2,36-.1,54-.1,5.4-3.6,6.7-8.3,3.2q-29.25-21.45-58.4-42.9c-2-1.4-3.9-2.9-5.9-4.3-1.7,1.2-1,2.8-1,4-.1,13.1-.1,26.1,0,39.2,0,3.6-1.2,6.1-4.8,6.2s-4.8-2.6-4.8-6.2c.1-17.8.1-35.7,0-53.5,0-2-.2-4.1,1.8-5.2,2.2-1.1,4,.2,5.8,1.5,19.3,14.2,38.7,28.4,58,42.6C2265.13,1198.81,2267.33,1200.41,2270.53,1202.71Z"/><path class="cls-1" d="M1777.93,1152.91h26.5c13,.1,21.3,7.8,21.2,19.8s-8.2,19.6-21.4,19.6c-15.7,0-31.4.1-47.1-.1-3.9-.1-5.4.8-5,4.9.4,4.9,0,9.9.1,14.8.1,3.6-1.5,6-5.2,5.9s-4.9-2.9-4.9-6.2c0-7.6.1-15.2,0-22.8-.1-4.7,1.9-6.6,6.7-6.6,18.5.1,37.1,0,55.6.1,4.7,0,8.8-1,10.7-6,2.7-7.3-1.6-13.2-9.9-13.3-17.8-.1-35.7,0-53.5,0a29.46,29.46,0,0,1-4.2-.1c-3.2-.4-5.41-2.1-5.1-5.5.3-3.1,2.4-4.6,5.5-4.6C1757.73,1152.91,1767.83,1152.91,1777.93,1152.91Z"/><path class="cls-1" d="M1558.33,1218.41c-7.1,0-14.1.1-21.2,0-13-.2-20.9-8.2-21-21.2v-37.1c0-3.8.8-6.9,5.2-7.1,4.6-.1,5.2,3.2,5.2,6.9-.1,12.4,0,24.7,0,37.1,0,7.8,3.3,11,11.3,11.1H1578c8.6,0,11.6-3,11.7-11.8.1-12.2,0-24.4,0-36.5,0-2.8.1-5.4,3.2-6.6,3.9-1.4,6.9,1,7,5.9.2,9.4.1,18.7.1,28.1,0,4.4,0,8.8-.4,13.2-1.1,11-8.5,17.9-19.6,18.1C1572.83,1218.51,1565.53,1218.41,1558.33,1218.41Z"/><path class="cls-1" d="M1074.73,1218.41h-33.9c-6.2,0-7.9-1.7-7.9-7.7v-24.9c0-5.6,1.6-7.4,7.1-7.4h61.9c3.6,0,7,.6,7.1,5.1.09,4.8-3.41,5.5-7.3,5.5-18,0-36,.1-54-.1-3.5,0-5.1.6-4.7,4.5.4,4.7-1.5,10.9.9,13.8s8.9.9,13.6.9q25.63.15,51.3,0c3.7,0,7.5-.1,7.5,5s-3.91,5.5-7.91,5.5C1097.33,1218.41,1086,1218.41,1074.73,1218.41Z"/><path class="cls-1" d="M1881.83,1189.11c-5.7-8.5-11.3-16.8-16.8-25.2a16.94,16.94,0,0,1-2.4-4.1c-.9-2.6-.4-5,2.2-6.4s4.8-.6,6.4,1.8c3.3,4.8,6.5,9.6,9.8,14.5l25.8,38.7c2.2,3.3,3.6,6.5-.4,9.1s-6.1-.3-8-3.3c-3.2-4.9-5.5-11.6-10-13.9-4.7-2.5-11.7-.7-17.7-.8-7.4,0-14.8.1-22.2-.1a5.05,5.05,0,0,0-5.1,2.8c-2.6,4.4-5.6,8.6-8.3,12.9-1.9,2.9-4.2,4.5-7.5,2.4s-2.5-4.9-.6-7.8c3.6-5.5,7.1-10.9,10.4-16.6,1.4-2.5,3.2-3.3,6-3.2,12.5.1,25.1,0,37.6-.1C1881,1189.91,1881.13,1189.71,1881.83,1189.11Z"/><path class="cls-1" d="M1247.43,1152.91h35.5c3.4,0,6.1.7,6.2,4.7s-2.6,5.6-6.1,5.7c-8.8.1-17.7.2-26.5,0-3.2-.1-4.2.8-4.2,4.1.2,14.5,0,29,.1,43.4,0,3.9-.7,7.6-5.3,7.5-4.2-.1-4.7-3.7-4.7-7.4.1-14.5-.1-29,.1-43.4,0-3.2-.7-4.2-4-4.1-8.5.3-16.9.1-25.4.1-3.8,0-7.5-.8-7.4-5.5.1-4.5,3.5-4.9,7.2-4.9C1224.43,1153,1235.93,1152.91,1247.43,1152.91Z"/><path class="cls-1" d="M988.43,1152.91c11.7,0,23.3.1,35,0,3.5,0,6,.9,6.2,4.7.2,4.2-2.7,5.5-6.2,5.6-8.3.2-16.6.3-24.9,0-4.4-.2-6,.7-5.9,5.6.4,13.8.1,27.5.2,41.3,0,3.9,0,8.2-5.1,8-4.5-.1-4.9-4-4.9-7.9.1-13.9-.1-27.9.1-41.8.1-3.9-.6-5.5-5-5.3-8.1.4-16.2.1-24.4.1-3.91,0-7.5-1.1-7.41-5.5.1-4.2,3.5-4.9,7.3-4.9C965.13,1153,976.83,1152.91,988.43,1152.91Z"/><path class="cls-1" d="M1378.43,1200.11c2.5-7.5-2.1-13-9.1-18-8.3-5.9-15.8-13-23.8-19.3-3-2.4-4.9-5-2.1-8.3,2.7-3.1,5.9-1.8,8.8.5,9.5,7.7,19.1,15.1,28.5,22.9,2.6,2.2,4.2,2.4,6.9.1,8.9-7.5,18-14.7,27.1-22.1,3-2.4,6-5,9.6-1.5,2.9,2.8,1.8,5.8-2.8,9.5-9.8,7.8-19.5,15.7-29.4,23.4-2.3,1.8-3.4,3.6-3.3,6.6.3,6,0,12,.1,18,.1,3.6-1.4,6.2-4.8,6.3-3.7.1-5.5-2.7-5.5-6.4C1378.43,1208.51,1378.43,1205.11,1378.43,1200.11Z"/><path class="cls-1" d="M1075.13,1152.91c11.7,0,23.3.1,35,0,3.7,0,6.4.8,6.5,5s-3,5.4-6.4,5.4q-35.25.15-70.4,0c-3.5,0-6.6-1.3-6.6-5.2,0-4.2,3.2-5.2,7.1-5.1C1051.83,1153,1063.43,1152.91,1075.13,1152.91Z"/><path class="cls-1" d="M2090.83,1185.21v-24.9c0-3.6.5-7.2,4.9-7.3s5.1,3.4,5.1,7c0,16.9-.1,33.9,0,50.8,0,3.8-.8,7.1-5.1,7s-5-3.6-5-7.3C2090.83,1202.21,2090.83,1193.71,2090.83,1185.21Z"/></g></svg>