<svg xmlns="http://www.w3.org/2000/svg" width="14.732" height="14.732" viewBox="0 0 14.732 14.732"><path d="M12.574,2.157A7.318,7.318,0,0,0,7.366,0h0A7.366,7.366,0,0,0,2.157,12.574,7.366,7.366,0,0,0,12.574,2.157Zm.481,8.354H10.9A9.694,9.694,0,0,0,11.4,7.8h2.451A6.454,6.454,0,0,1,13.055,10.511ZM7.366,13.8a6.109,6.109,0,0,1-2.229-2.43H9.594A6.109,6.109,0,0,1,7.366,13.8ZM4.747,10.511A8.775,8.775,0,0,1,4.192,7.8h6.346a8.775,8.775,0,0,1-.554,2.714ZM.878,7.8H3.328a9.694,9.694,0,0,0,.5,2.714H1.676A6.454,6.454,0,0,1,.878,7.8Zm.8-3.577H3.832a9.694,9.694,0,0,0-.5,2.714H.878a6.454,6.454,0,0,1,.8-2.714ZM7.366.927a6.109,6.109,0,0,1,2.229,2.43H5.137A6.109,6.109,0,0,1,7.366.927ZM9.984,4.221a8.775,8.775,0,0,1,.554,2.714H4.192a8.775,8.775,0,0,1,.554-2.714Zm3.869,2.714H11.4a9.694,9.694,0,0,0-.5-2.714h2.156A6.454,6.454,0,0,1,13.854,6.934Zm-3.3-3.577a7.641,7.641,0,0,0-1.611-2.3,6.518,6.518,0,0,1,3.54,2.3Zm-4.765-2.3a7.641,7.641,0,0,0-1.611,2.3H2.249a6.518,6.518,0,0,1,3.54-2.3ZM4.177,11.374a7.641,7.641,0,0,0,1.611,2.3,6.518,6.518,0,0,1-3.54-2.3Zm4.765,2.3a7.643,7.643,0,0,0,1.611-2.3h1.929a6.518,6.518,0,0,1-3.54,2.3Zm0,0" transform="translate(0)" fill="#ff8200"/></svg>