<svg xmlns="http://www.w3.org/2000/svg" width="13.947" height="10.959" viewBox="0 0 13.947 10.959"><g transform="translate(0 -59.013)"><g transform="translate(0 59.013)"><path d="M29.219,327.786a1.192,1.192,0,0,0,.816-.308l-3.952-3.952-.274.2q-.444.327-.72.51a4.432,4.432,0,0,1-.735.374,2.242,2.242,0,0,1-.856.191h-.015a2.241,2.241,0,0,1-.856-.191,4.418,4.418,0,0,1-.735-.374q-.276-.183-.72-.51l-.273-.2-3.952,3.953a1.192,1.192,0,0,0,.816.308Z" transform="translate(-16.517 -316.827)" fill="#ff8200"/><path d="M.786,199.232A4.126,4.126,0,0,1,0,198.555v6.012l3.483-3.483Q2.438,200.355.786,199.232Z" transform="translate(0 -195.021)" fill="#ff8200"/><path d="M416.012,199.232q-1.59,1.076-2.7,1.853l3.481,3.482v-6.012A4.3,4.3,0,0,1,416.012,199.232Z" transform="translate(-402.843 -195.021)" fill="#ff8200"/><path d="M12.708,59.013H1.251a1.111,1.111,0,0,0-.922.4,1.57,1.57,0,0,0-.323,1.012,1.819,1.819,0,0,0,.428,1.062,3.861,3.861,0,0,0,.911.9q.265.187,1.6,1.109l1.254.871.786.55L5.1,65l.215.155q.253.183.42.3t.4.253a2.361,2.361,0,0,0,.448.21,1.238,1.238,0,0,0,.389.07h.015a1.239,1.239,0,0,0,.389-.07,2.356,2.356,0,0,0,.448-.21q.237-.14.4-.253t.42-.3L8.864,65l.116-.083.788-.547,2.855-1.982a3.7,3.7,0,0,0,.949-.957,2.059,2.059,0,0,0,.381-1.175,1.256,1.256,0,0,0-1.245-1.245Z" transform="translate(-0.006 -59.013)" fill="#ff8200"/></g></g></svg>