<svg xmlns="http://www.w3.org/2000/svg" width="22.566" height="13.11" viewBox="0 0 22.566 13.11"><g transform="translate(0 -102.465)"><path d="M18.762,105.717a25.381,25.381,0,0,1,8.559,1.608c.965.355,1.766.708,2.363.994a22.706,22.706,0,0,0-2.762-2.585A17.34,17.34,0,0,0,23.3,103.5a11.115,11.115,0,0,0-4.538-1.035,11.115,11.115,0,0,0-4.538,1.035,17.338,17.338,0,0,0-3.621,2.234,22.7,22.7,0,0,0-2.762,2.585c.6-.286,1.4-.64,2.363-.994a25.38,25.38,0,0,1,8.559-1.608Z" transform="translate(-7.479)" fill="#fff"/><path d="M223.986,246.416a.948.948,0,1,0,.948-.948A.949.949,0,0,0,223.986,246.416Z" transform="translate(-213.651 -136.404)" fill="#fff"/><path d="M128.254,203.518a5.326,5.326,0,0,0-.534,2.342,5.39,5.39,0,1,0,10.78,0,5.325,5.325,0,0,0-.534-2.342,21.046,21.046,0,0,0-9.712,0Zm7.188,2.342a2.332,2.332,0,1,1-2.332-2.332,2.335,2.335,0,0,1,2.332,2.332Z" transform="translate(-121.827 -95.848)" fill="#fff"/><path d="M330.806,224.569a6.767,6.767,0,0,1-2.639,7.476c.226-.087.452-.18.679-.281a17.337,17.337,0,0,0,3.621-2.234,22.28,22.28,0,0,0,3.123-3,23.607,23.607,0,0,0-3.234-1.449C331.9,224.914,331.378,224.739,330.806,224.569Z" transform="translate(-313.025 -116.47)" fill="#fff"/><path d="M4.509,226.481a6.807,6.807,0,0,1,.276-1.912c-.572.17-1.092.345-1.551.513A23.613,23.613,0,0,0,0,226.531a22.28,22.28,0,0,0,3.123,3,17.34,17.34,0,0,0,3.621,2.234c.227.1.453.194.679.281a6.771,6.771,0,0,1-2.915-5.564Z" transform="translate(0 -116.47)" fill="#fff"/></g></svg>