<svg xmlns="http://www.w3.org/2000/svg" width="13.215" height="13.215" viewBox="0 0 13.215 13.215"><path d="M12.491.727A2.386,2.386,0,0,0,10.74,0H2.481A2.387,2.387,0,0,0,.73.727,2.387,2.387,0,0,0,0,2.478v8.259A2.387,2.387,0,0,0,.73,12.488a2.387,2.387,0,0,0,1.751.727H10.74a2.482,2.482,0,0,0,2.478-2.478V2.478A2.387,2.387,0,0,0,12.491.727Zm-1.665,9.3a1.554,1.554,0,0,1-.813.688,2.73,2.73,0,0,1-1.123.293,2.129,2.129,0,0,1-.293-.021q-.155-.022-.262-.043a2.806,2.806,0,0,1-.284-.077q-.177-.056-.254-.086l-.284-.107q-.207-.078-.258-.095A7.711,7.711,0,0,1,4.5,8.719,7.711,7.711,0,0,1,2.635,5.962Q2.618,5.91,2.541,5.7T2.433,5.42q-.03-.077-.086-.254a2.829,2.829,0,0,1-.077-.284q-.022-.107-.043-.262a2.132,2.132,0,0,1-.021-.293A2.73,2.73,0,0,1,2.5,3.2a1.553,1.553,0,0,1,.688-.813A2.266,2.266,0,0,1,4.055,2.2a.4.4,0,0,1,.138.017.507.507,0,0,1,.142.155,3.494,3.494,0,0,1,.215.348q.116.211.228.409t.215.391q.1.193.129.245t.112.164a1.319,1.319,0,0,1,.129.215.438.438,0,0,1,.043.181.512.512,0,0,1-.176.314,2.935,2.935,0,0,1-.387.34,3.358,3.358,0,0,0-.387.331.482.482,0,0,0-.176.288.42.42,0,0,0,.03.142,1.331,1.331,0,0,0,.056.133q.026.052.082.146t.073.121A6.572,6.572,0,0,0,5.608,7.61,6.566,6.566,0,0,0,7.075,8.7q.026.017.121.073c.063.037.112.064.146.082a1.309,1.309,0,0,0,.133.056.423.423,0,0,0,.142.03q.137,0,.378-.284t.49-.564q.249-.279.4-.279a.438.438,0,0,1,.181.043,1.323,1.323,0,0,1,.215.129c.08.058.135.095.164.112l.456.249q.456.241.761.426A1,1,0,0,1,11,9.025a.4.4,0,0,1,.017.138A2.261,2.261,0,0,1,10.826,10.031Z" transform="translate(-0.003 0)" fill="#ff8200"/></svg>