<svg xmlns="http://www.w3.org/2000/svg" viewBox="0 0 1120.73 1104.44"><defs><style>.cls-1{fill:#ff8200;}</style></defs><title>4city </title><g id="Слой_2" data-name="Слой 2"><path class="cls-1" d="M339.23,1000.27c-65.82-32.95-123.56-76.51-168.33-135.39s-76-124.54-91.8-197.34A492.9,492.9,0,0,1,68.19,564.59,475.45,475.45,0,0,1,98.34,395c15.61-41.71,38.25-80.3,64-116.81q64.23-91.1,162.11-144.49c40.42-22.13,82.93-37.3,127.79-47.61a476.52,476.52,0,0,1,150.17-10c54.15,4.83,106.37,17.93,156.1,40.27A483.84,483.84,0,0,1,928.2,242.91c39.74,46,71.49,97.58,90.52,155.37,21.21,64.39,34.39,130.75,28,199.18-5.43,58.43-17.12,115.28-42.85,169-20.33,42.43-44.59,82.08-74.84,117.77-34.53,40.76-75.82,74-122.1,100.71-43.21,24.92-88,46.29-137.63,55.53-46.72,8.7-93.61,16-141.26,12.59-38.23-2.73-76-9.14-112.34-21.86-11.24-3.92-22.65-7.41-33.78-11.62m177.11,24.21c263.26.47,481.86-211.26,482.64-479.26C1042.49,297.23,827.25,80,557.59,81.2c-134.91.63-251,49.91-344.34,147.12C99.71,346.58,59,490.44,85.18,650.1c16.6,101.44,65.84,190,141.8,261.22C321.9,1000.37,434.44,1045.58,559.06,1043.79Z"/><path class="cls-1" d="M529.9,518.89c-17.51,0-31-9.17-35.55-24.14-7.85-26-14.88-52.16-22.36-78.23-6.35-22.1-12.86-44.15-19.3-66.22-1.16-4-3.4-4.33-7.47-3.71-17.49,2.69-33.36,7.07-43.19,24.13-11.47,19.91-28,36.33-40.75,55.33-19.64,29.25-42.69,55.85-63.53,84.15-22.69,30.82-45.92,61.23-69,91.78-7,9.24-8,27.14-2.29,36.91,1.66,2.82,2.9,2.44,5.74,1.61,21.73-6.35,43.62-12.16,65.38-18.42,36.2-10.4,72.34-21.06,108.53-31.53,24.93-7.21,49.78-14.72,74.88-21.29,20.32-5.32,39.21,6.27,45.13,26.1,8.72,29.2,14.88,59.13,25.47,87.77,1.74,4.71.24,6.42-4.49,7.71q-32.7,9-65.2,18.7c-5.92,1.78-7.73-1.28-8.21-5.81-1.31-12.38-8-22.91-11.42-34.57-2.21-7.64-4.92-12.42-14.51-5.78-5.74,4-14.71,5.85-21.44,6.13-21.53.89-40.16,11-60.3,16-31.45,7.82-62.41,17.58-93.6,26.47-18.19,5.19-36.5,10-54.61,15.47-32.19,9.69-48.64,1.08-58.54-31.61-7-23.19-12.9-46.75-20.51-69.74-8-24.22,3-42.28,16.69-60.09q40.78-53.26,81.44-106.62c23.68-31,47.47-61.92,71-93.05,15.34-20.31,30.31-40.89,45.34-61.43,9.44-12.9,20.79-21.24,37.12-25.85,25.9-7.31,52-14.13,77.65-22.44,22.35-7.25,42.68,5.22,50.24,31.46q18.24,63.27,35.66,126.76c2.72,9.91,4.7,16.28,17.86,10.79,13.55-5.66,28.67-7.44,42.83-11.8,5.24-1.62,7-1,8.79,4.09,7.55,21,12.54,42.67,18.51,64.09,1.15,4.13.65,6.93-4.32,8.31-33.32,9.27-66.55,18.83-99.87,28.1C534.6,519.31,531.13,518.84,529.9,518.89Z"/><path class="cls-1" d="M927.72,359.33c0,14.43-6,23-23.26,27.52-23,6.08-45.74,13.29-69,18.76-28.25,6.64-55.72,16.68-83.34,25.84-8.54,2.83-17.4,4.27-25.93,7.42-7.41,2.74-8.26,6.31-7.45,12.84,1.94,15.69,8.18,30.22,11.88,45.44,4.46,18.38,11,36.26,16.22,54.46,2.1,7.24,4.63,10,13.15,7.35,38.39-11.76,76.9-23.21,115.69-33.58,22.63-6,44.55-14.78,67.86-18.31,24.55-3.71,40,13.29,33.41,37.21a25.7,25.7,0,0,1-18.2,18.41c-45.77,13.06-91.6,25.9-137.31,39.15-27.57,8-55.4,15.2-83.05,23-20,5.67-32.23-3.62-37.73-24.35-8.9-33.47-19.1-66.59-29-99.79-6.81-22.9-14.37-45.57-20.94-68.54-5.92-20.67.85-31.12,21.69-38.07,38.64-12.87,78-23.13,117.16-34.18,34-9.59,67.23-21.54,102-28.3C912.32,327.63,927.71,338.55,927.72,359.33Z"/><path class="cls-1" d="M558.87,737.75c15.64-.31,22.43,9.93,17.62,20-1.23,2.58-4.66,4.66.31,6.2,8.43,2.6,8.4,10.27,10.5,16.62,1.49,4.54,2.23,8.3-4.73,10-6.43,1.53-8.37-.63-9-6.11-1.5-12.29-6.8-14.48-18.39-9.4-10,4.4-21.38,5.94-32.13,8.62-9.43,2.36-11.12,5.67-7.65,14.05,1.64,4,7.73,8.84-1.83,12.5-9.41,3.61-10.62-2.71-12.41-8.36-4-12.52-7.33-25.23-11.24-37.77-1-3.26-1.34-5.87,2.32-7C515.85,750.18,539.53,743.36,558.87,737.75Zm5.73,18.79c-1-3.18-1.81-6.59-6.5-5.29-15.79,4.39-31.57,8.83-47.38,13.18-4.06,1.11-3.49,3.85-2.69,6.79,1,3.55,2.76,4.13,6.38,2.95,14.82-4.83,29.78-9.21,44.66-13.85C561.2,759.66,564.31,760.15,564.6,756.54Z"/><path class="cls-1" d="M466.77,764c7.88-.13,10.62,5.52,13,10.41a85.54,85.54,0,0,1,5.9,17.42c6.07,25.66,3.79,24.23-20,32.28-14.33,4.86-29.16,8.24-43.76,12.33-9.18,2.57-21.19-3.75-22.56-13-1.33-9-2.64-18-4.86-26.86-1.53-6.09,2.71-10.77,7.83-12.47C423.69,777,445.27,770.61,466.77,764Zm-44,60.75c12.46-4,24.8-8.47,37.43-11.87C475.93,808.6,476,809,472.06,793a51.85,51.85,0,0,1-1.44-6c-1.05-8.36-5.62-9.79-13.1-7.59-14.93,4.39-29.44,10.25-44.89,12.84-2.78.46-4.53,1.74-3.54,5,2.25,7.43,4.33,14.91,6.74,22.28C416.82,822.54,417.89,826.2,422.73,824.72Z"/><path class="cls-1" d="M643.43,772.48c-7.95,1.16-12.31-3.25-15.53-9.61-4.69-9.28-6.87-19.37-9.63-29.28-1.73-6.22,1.2-9.75,6.33-13.08,13.29-8.63,29-10,43.52-14.74,7.34-2.41,14.73-5.22,22.36-6.77,3.8-.77,8.52-1.85,9.92,4.15,1.28,5.46-1.92,6.58-6.32,8.34-17.18,6.87-35.34,10.08-53.1,14.69-7,1.82-7.47,5.12-6,10.48,1.19,4.37,3.21,8.55,4,13,1.22,6.91,4.63,9,11.28,7.09,16.88-4.91,33.85-9.5,50.7-14.51,5.17-1.54,10-3.08,11.82,3.88,1.72,6.48-2.32,8.67-7.91,9.82a298.3,298.3,0,0,0-50.46,14.88C651,772.12,647.09,772,643.43,772.48Z"/><path class="cls-1" d="M376.46,791.05c4.72-.6,6.8,1.85,7.26,6.25.55,5.26-3.22,5.71-7,6.7-17.45,4.62-34.84,9.47-52.28,14.12-3.93,1-7.17,1.91-5.28,7.32s5.4,4,9,2.85c9-2.87,17.92-5.92,26.91-8.78,4.45-1.42,8.48-2.79,10,4.32,1.45,6.86-3.29,6.76-7,7.26-7.43,1-14.29,4.5-21.41,5.54-13.41,2-13.56,8.56-8.66,18.23,2.9,5.72,2,9-4.79,10.69-6.39,1.59-9.17-.6-10.1-6.78-2.11-13.89-7.52-26.84-11.88-40.08-.91-2.78-2.66-5.66,1.67-6.91q35.53-10.21,71.12-20.29C374.8,791.27,375.64,791.2,376.46,791.05Z"/><path class="cls-1" d="M815.07,664.28c4.48,1.39,9.61-1.56,10.56,3.79s-3,6.69-7.68,7.34c-8.1,1.11-14.46,7.43-23.19,7.56-5.31.08-3.11,4.68-2.26,7.61,2.62,9.1,5.63,18.09,8.06,27.23.92,3.46,3.89,7.71-3,9.7-5.92,1.71-9.5,1.2-11.36-5.13-1.39-4.74-3.51-9.27-4.79-14-5.35-19.91-10.84-22.59-29.61-14-2.61,1.19-5,3.17-7.68,3.82-3.48.84-7.63,1.8-9.23-3.29-1.49-4.7.37-9.17,4.44-10.31C764.83,677.36,790.5,670.78,815.07,664.28Z"/><path class="cls-1" d="M934.86,632.5c-8.67,12.08-16.55,23.77-25.22,34.84-4.9,6.24-8.33,12-5.15,20.19,1.69,4.3.87,8.23-4.2,10-4.64,1.59-7.33-1-8.37-4.89-3.7-13.88-16.45-16.14-26.92-21.08-6.24-2.95-13-4.65-19.6-6.94-2.29-.81-5.22-1.33-5.6-4.13-.47-3.54,2.62-5.13,5.25-6,6.53-2.16,12.28-1.11,18.67,2.55,27,15.42,27.14,15.12,44.64-9.7C919.49,631.52,920.36,631,934.86,632.5Z"/><path class="cls-1" d="M719.38,691.5c5.18-.35,6.82,3.17,7.93,6.74,4.14,13.34,8,26.77,12.09,40.12,2,6.4-3.2,7.95-6.93,9.59-3.92,1.72-6.85-.12-8.09-4.81-3.87-14.71-7.81-29.41-12.26-44C709.62,691,716.53,693.34,719.38,691.5Z"/></g></svg>