<svg id="Слой_1" data-name="Слой 1" xmlns="http://www.w3.org/2000/svg" viewBox="0 0 2312.41 522.2"><defs><style>.cls-1{fill:#ff8200;}</style></defs><title>Airoh </title><g id="Слой_5" data-name="Слой 5"><path class="cls-1" d="M104.2,442c12.2,1.3,23.8,2.8,35.5,3.7,108.2,8.5,213-5,312.7-49.7,36.2-16.2,69.3-37.4,95-68.5,2.1-2.5,3.5-2.6,6-1.1,33.8,20,65.8,42.3,92,72.1a63.62,63.62,0,0,1,10.4,15.3c5.5,12,2.4,20.8-10,25.7s-25.7,7.4-38.8,10.1c-65.5,13.5-131.8,18.6-198.6,20a1536.32,1536.32,0,0,1-218.7-11q-41.25-5.1-82.1-13.3C106.4,445.1,105.1,445.2,104.2,442Z"/><path class="cls-1" d="M330.7,230.7c-3.5,1-6.8-.7-10.2-1.1-5.5-.6-13.3,1.6-15.8-2.7-1.7-2.9,3-9.8,5-14.8,14.4-36.5,34.6-69.4,61.3-98.2a41.63,41.63,0,0,1,4.2-4.2c12.7-11.5,22-12,35.5-1.1,15.2,12.3,30.1,24.9,45,37.6,5.6,4.8,10.9,10,16.3,15.1.2,4.3-3.5,5.1-6.2,6.3-38.9,17.7-77.4,36.5-116.4,54C343,224.5,337,228,330.7,230.7Z"/><path class="cls-1" d="M161.9,305.3c13.8-20.2,29.5-39,45.5-57.4,50.1-58,106.5-108.9,170.4-151.4,2-1.4,4.2-2.6,6.3-3.8.3-.2.8.2,1.7.4-2.9,4.5-7.2,7.3-10.9,10.8-40.5,38.4-73,82-89.4,136.2-1.2,4-2.5,8-3.8,12-7.7,6.5-17.4,9.2-26.3,13.4-27.9,13.3-55.8,26.5-84,39.1C168.5,305.9,165.3,308.3,161.9,305.3Z"/><path class="cls-1" d="M313,372.3c-4.4-13.6-9.3-27.2-10.5-41.6,9-6.7,19.6-10.2,29.6-15,31.1-15,62.9-28.8,93.8-44.3,13.5,2.1,25.7,7.8,38.3,12.6,7.2,2.8,14.1,6.5,21.2,9.7,1.9,4.3-2,5-4.2,6.2-9.3,5.1-19.2,9.1-28.8,13.6q-64.2,29.85-128.3,59.8C320.3,375,316.2,377.6,313,372.3Z"/><path class="cls-1" d="M275.4,321.7c1.1,11.4,2.2,22.8,3.3,34.1,2.1,5.1-.4,7.7-4.8,9.8-43.6,20.1-87,40.5-130.6,60.6a14,14,0,0,0-8.4,9.7,65.24,65.24,0,0,1-35-6.9c-5-3.2-5.8-8.1-4.8-13.4a37.45,37.45,0,0,1,7.4-16.5c17.2-8.7,34.8-16.5,52.3-24.7q38.55-18.15,77.3-35.9c11.7-5.4,23.2-11.1,35-16.1C269.7,321.2,272.4,319.4,275.4,321.7Z"/><path class="cls-1" d="M275.4,321.7c-12.8,2.6-23.7,9.8-35.3,15.1C206.5,352,173.4,368,140,383.6c-10.3,4.8-20.7,9.4-31,14.1a11.07,11.07,0,0,1-6.4,1.3,477.38,477.38,0,0,1,35.6-59.5c44.2-19.2,87.4-40.6,131.2-60.6,2.4-1.1,5-2.5,7.6-.3-.6,8.4-1.1,16.9-1.7,25.3a53.12,53.12,0,0,0,0,14.9A28.1,28.1,0,0,0,275.4,321.7Z"/><path class="cls-1" d="M493.1,296.7c7.7,3.9,15.3,8,23.2,11.6,4.6,2.1,5,3.7,1.6,7.8-30.8,38-69.5,65-114.7,83.1-20,8-40.6,14.1-61.3,19.9-6.7,1.9-10.1.6-12.3-5.7a65.28,65.28,0,0,0-3.7-8.1c0-3.7,3.2-4,5.6-4.9,46.9-17.8,89.8-42.3,128.2-74.6,8.9-7.5,17.7-15,25.7-23.5C487.6,299.8,489.7,297.3,493.1,296.7Z"/><path class="cls-1" d="M425.9,271.4c-.7,3.4-3.7,4.4-6.3,5.6-26.8,12.6-53.6,25.3-80.6,37.5-12.1,5.4-23.6,12.4-36.5,16.2-3.1-10.2-3.4-20.8-4.2-31.3-1.1-14.5-.2-29.1,1.2-43.7.4-4.4,1.7-6.7,6.8-6.4,35.8,2.7,71.1,7.7,105.7,17.4C416.7,268,421.3,269.8,425.9,271.4Z"/><path class="cls-1" d="M545,233.9c28,30.6,52.2,64,74.5,98.9a682.14,682.14,0,0,1,45.3,82.7c-39.6-59.1-94.2-100.1-157-131.1-2.1-3.3.1-5.7,2-7.9a471.87,471.87,0,0,0,30.7-39.7C541.5,235.4,542.4,233.3,545,233.9Z"/><path class="cls-1" d="M489.8,177.7c12.6,9.3,22.5,21.4,33.5,32.4-5.5,5.2-12.7,7.5-19.3,10.6-22.5,10.7-45.2,20.8-67.6,31.8-1.5.7-3,1.8-4.9,1.1-20.8-5.5-41.5-11-62.3-16.6.2-4.3,3.8-5.5,6.9-6.9,24.9-11.4,49.6-23.4,74.5-34.8C463.7,189.3,476.4,182.6,489.8,177.7Z"/><path class="cls-1" d="M493.1,296.7c-41.6,43.8-90.8,76.2-146.3,99.5-7,2.9-14.5,4.6-20.9,8.9-4.7-10.8-10-21.3-12.9-32.9,3.7,2.8,6.9.9,10.3-.7,19.4-9.1,39-18,58.4-27q48.9-22.8,97.8-45.9c2.3-1.1,5.5-1.3,5.8-4.9C488.4,293.3,490.6,295.4,493.1,296.7Z"/><path class="cls-1" d="M431.6,253.5c11.9-8.3,25.7-12.7,38.5-19.2,15.9-8.1,32.2-15.3,48.3-22.8a39.74,39.74,0,0,1,4.9-1.5A182.19,182.19,0,0,1,545,233.9c-11.3,15.4-22.2,31.2-35,45.4-1.2,1.4-2.9,2.9-2.2,5.2C483.2,272.2,457.3,263.1,431.6,253.5Z"/><path class="cls-1" d="M135.8,434.6c-3.6-3.6-3-5.9,1.7-8.1,35.3-16.3,70.4-32.7,105.7-49.1,9.9-4.6,19.8-9,29.8-13.4,3.8-1.6,6.4-3.6,5.7-8.2,3.3,9.1,2.6,19.1,6,28.2,2,4.9-1.4,6.7-4.8,8.4-12.4,6.2-25.1,11.6-37.5,17.7-16.2,7.9-33.1,14.3-48.6,23.7a281.65,281.65,0,0,1-53.5,3A5.12,5.12,0,0,1,135.8,434.6Z"/><path class="cls-1" d="M489.8,177.7c-3.2,4.2-8.2,5.4-12.6,7.4-29,13.7-58.1,27.2-87.2,40.8-7.1,3.3-15,5.1-20.7,11.1-12.9-2.1-25.8-4.2-38.7-6.2,1.8-3.3,5.1-4.6,8.2-6.1q61.5-28.65,123.1-57.2c3.5-1.6,7.6-2.6,10-6.1C479,165.6,484.4,171.6,489.8,177.7Z"/><path class="cls-1" d="M277,278.6c-8.1.9-14.6,5.7-21.7,9-34.5,15.8-68.7,32.1-103.1,48.3-4.5,2.1-8.9,4.3-14.1,3.7a311.55,311.55,0,0,1,23.8-34.2c6.5.3,11.7-3.6,17.2-6.1,32.5-14.9,64.8-30.3,97.2-45.4a45.87,45.87,0,0,1,5.6-1.8C280.2,260.8,278.6,269.7,277,278.6Z"/><path class="cls-1" d="M135.8,434.6a358.44,358.44,0,0,0,59.5-2.9c6.7-3.1,14-2.9,21.1-3.8,23.2-2.9,46-7.6,68.6-12.9,3.3-.8,6.7-2.2,9.9.5,5.8,15.5,5.8,15.6-11,18.1-50.8,7.6-101.9,10.7-153.2,5.7-10.9-1.1-22.2-2.2-30.9-10.4A141.62,141.62,0,0,0,135.8,434.6Z"/><path class="cls-1" d="M294.9,415.6c-13.2,1.1-25.6,6-38.6,8.2-20.2,3.4-40.4,7.7-61,8,6.4-7,15.6-9,23.6-12.9,20.3-10,41-19.3,61.5-28.8,2.7-1.3,4.5-2.9,4.3-6.1C288.1,394.5,291.5,405,294.9,415.6Z"/><path class="cls-1" d="M275.2,318.8a19.25,19.25,0,0,1,0-14.9C275.3,308.9,275.3,313.8,275.2,318.8Z"/><path class="cls-1" d="M1760.5,290.5c-36.4-.8-71.9,34.6-71.1,70.9.4,15.9,11.2,26.9,27.2,27.5,2.5.1,5,0,6.9,0,24,1,40.7-10,52.6-29.4,6-9.8,9.8-20.5,12.7-31.5C1795.1,304.2,1785.1,291.1,1760.5,290.5Zm-1.5,44.8a50.75,50.75,0,0,1-11.9,19.4c-6.1,6.1-13.3,9.2-22,8.8-10.1-.1-10.8-1-7.6-10.6,4.5-13.5,11.1-25.4,24.3-32.1,6.7-3.4,15.5-7.2,20.9-2.8C1766.9,321.4,1761,329.5,1759,335.3Z"/><path class="cls-1" d="M1039.3,263.7c-.2-2.2.8-4.8-1.5-6.9q-33.3,42.6-66.4,84.8a10.64,10.64,0,0,0-.3,2.1c23.2,0,46-.1,68.8.1,4.9,0,6.2-1,5.7-6.2C1043.4,312.9,1041.5,288.3,1039.3,263.7Z"/><path class="cls-1" d="M2222.9,241.4c-19.2-11.4-40.4-15.5-62.3-17.9-19.9-2.2-40-1.1-60.5-1.6,8.5-24.4,16.8-48.4,25.2-72.8H1963.9c-1,0-2,.1-3,0-3.5-.5-4.5,1.5-5.5,4.5-2.7,8.5-5.8,16.8-8.7,25.2-10.1,28.8-20.1,57.6-30.2,86.6-27.6-25.2-37.8-31.6-61.7-38.5a254.75,254.75,0,0,0-47.4-8.5c-54.1-4.9-106.7.9-157.6,20.6-2.1.8-4,2.9-7,1.7,2.2-6.1,4.3-12.1,6.6-18.6h-8.7c-51.6,0-103.2.1-154.8,0a212.55,212.55,0,0,0-57.2,8.2c-13.2,3.7-25.5,9.4-38.7,16.2,3.1-8.5,5.4-15.8,8.4-22.8,2.3-5.2,2-7.1-4.5-6.9-21.3.4-42.7.3-64,.1-56.3-.6-111.7,28.1-133.1,92.9-5.1,15.5-11.3,30.7-16.9,46.1-2.2-6.5-3-12.8-3.7-19.1q-9.9-91.2-19.6-182.5c-.4-3.6-1.2-5.2-5.3-5.1-33.7.1-67.5-1.4-101.2.3-44.7,2.2-80.8,23.9-109.6,57.1-71.2,82.2-141.7,165-212.5,247.6-1.2,1.4-3.2,2.4-2.7,4.8a4.19,4.19,0,0,0,1.5.4q92.25,0,184.5.1c3.5,0,5.4-1.6,7.2-4.1,6.3-8.9,12.9-17.5,19.2-26.5,2.2-3.1,4.4-4.6,8.4-4.6,24.6.2,49.1.2,73.7,0,3.9,0,5.8.5,5.8,5.1,0,7.2,1.5,14.4,1.2,21.5-.3,7.5,2.8,8.6,9.5,8.6q202-.3,404-.2c13.8,0,13.8,0,18.4-12.7q17.85-49.5,35.8-98.9c6.5-18,18-26.2,36.9-26.3h26.4c-2.2,8.1-4.5,15.4-6,22.9-6.4,30.3-2.5,58.2,20.4,81.2,15.1,15.2,33.4,24.8,53.8,30,61.1,15.6,121.7,11.4,181.9-5.2,17.7-4.9,34.5-12.4,51.8-21.9-3,8.6-5.5,15.8-8,23-2.7,8-2.7,8,5.5,8,50.8,0,101.7-.1,152.5.2,6.1,0,8.4-1.9,10.3-7.5q21.3-62.4,43.3-124.6c.8-2.2.3-5.9,4.4-5.9h18.7c-.8,2.5-1.2,3.9-1.7,5.3q-22,63-44,125.9c-1.2,3.4-3.7,6.8,3.5,6.8,52.1-.3,104.2-.2,156.2-.1,3.8,0,5.6-1.1,6.9-4.8,15.3-43.8,31.1-87.5,46.1-131.5C2264.7,290.3,2252.7,259.2,2222.9,241.4ZM1154.5,434c-32.2-.4-64.5-.3-96.7-.1-4.9,0-7-.9-7-6.4.1-7.9-1.1-15.8-1.5-23.7-.2-3.6-1.4-5-5.3-5-37.4.2-74.9.2-112.3,0-3.4,0-4.8,1.7-6.4,3.9-6.6,9-13.2,17.9-19.7,27-1.8,2.6-3.7,4.2-7.2,4.2-39.2-.1-78.3-.1-119.4-.1,16.1-18.8,31.1-36.2,46-53.7,44.7-52.1,89.1-104.4,134.1-156.2,22.2-25.6,49.7-43,83.7-48.5a78.3,78.3,0,0,1,11.8-1c24.1-.1,48.1.1,72.2-.1,4.4,0,6.5.8,7,5.7,5.5,52.5,11.2,104.9,16.8,157.4,3.2,29.8,6.4,59.6,9.9,89.4C1161.2,432.1,1160.7,434.1,1154.5,434Zm141.2-5.4c-1.2,3.3-2.3,5.4-6.5,5.4-35.9-.2-71.9-.1-107.8-.2a10.64,10.64,0,0,1-2.7-.7q9.9-26.55,19.6-52.9c8.5-23,16.5-46.1,25.4-68.8,16.7-43,55.1-68.9,101.4-68.9,10.7,0,21.3.3,32-.1,6-.3,7.1,1.1,4.9,6.8-15.2,40.7-30.2,81.6-45.2,122.4C1309.7,390.5,1302.6,409.5,1295.7,428.6Zm234.5-132.3c-28.9,0-49.9,15.1-59.6,42.4-10.6,29.8-21.6,59.4-32.2,89.2-1.6,4.4-3.5,6.1-8.3,6.1q-51.3-.3-102.6-.1c-4.6,0-6.8-.1-4.7-5.9,14.4-38.4,28.2-77,42.6-115.4,10.2-27.2,31.2-43.2,57.4-53.4a167.23,167.23,0,0,1,60.9-11.6c42.6-.1,85.2,0,129.1,0-5.9,15.9-11.5,30.7-16.7,45.6-1.3,3.7-3.9,3.1-6.5,3.1Zm290.2,122.6c-60.5,22.3-122.4,27.2-185.5,12.7a98.85,98.85,0,0,1-35.5-16.3c-20.4-14.6-27.7-34.4-24-59,5.7-37.9,27.5-63.8,59.8-82,30.5-17.2,63.7-25.3,98-29.8a257.52,257.52,0,0,1,39.3-2.1c32.1.4,63.9,2.7,93.6,16.2,28.9,13.2,42.3,35.5,38.5,65.1-2.3,18-9.5,34.3-20.3,48.9C1868.1,394.8,1845.9,409.5,1820.4,418.9ZM2229,316.5c-13.1,37.3-26.4,74.5-39.4,111.9-1.5,4.4-3.5,5.5-7.9,5.5q-50.55-.3-101.1,0c-5.7,0-5.8-1.7-4.2-6.3,11.1-31.4,22-63,33-94.5,1.5-4.2,3-8.4,3.1-12.9.4-13.2-7.1-23-20.2-23.8-14.1-.9-28.2-.1-42.3-.3-4.6-.1-4.1,3.7-4.9,6.1-14.5,41.3-29,82.6-43,124-2,5.9-4.7,7.8-10.9,7.7-33-.3-65.9-.3-98.9,0-5.9,0-7.1-.9-5-6.9q43.35-123.45,86.2-247.1c.9-2.7,1-5.7,5.3-5.7,36.7.1,73.3.1,110.7.1-8.5,24.5-16.8,48.5-25.4,73.1,19.8,0,38.8.1,57.9,0,26.1-.2,52.1.8,76.8,10.4,17.5,6.9,30.9,17.7,33,38.2A47.09,47.09,0,0,1,2229,316.5Z"/></g></svg>