<svg id="Слой_1" data-name="Слой 1" xmlns="http://www.w3.org/2000/svg" viewBox="0 0 2213.56 283.99"><defs><style>.cls-1{fill:#ff8200;}</style></defs><title>Bagster</title><g id="Слой_2" data-name="Слой 2"><path class="cls-1" d="M1028.2,156.74c1.4,22.4-3.4,42.6-22.2,57-11.6,8.9-25.8,10-39.8,10q-115.05,0-230-.4c-9.1,0-14.4-6.2-20.3-12.8-7,11.8-18.4,12.6-30.2,12.6-48,0-96.1,0-144.1.3-3.8,0-5.2-1.6-6.4-4.7-4.7-12.4-9.4-24.8-14.5-37.1-1.9-4.5-.9-5.3,3.7-5.3,30.5.2,60.9.1,91.4.2,7.4,0,8.2-.6,5.1-7.5-7.9-17.1-15-34.9-28.6-48.6-12.9-13-26-14.4-40.4-3.1-15,11.8-29.1,24.8-43.5,37.4l-116,100.7a9.16,9.16,0,0,1-6.4,2.7c-27.2-.1-54.5-.1-81.7-.1-.3,0-.7-.3-1.9-.9,12.7-11.4,25.1-22.6,38.6-34.7H321.2q-135.9.45-271.8.8c-7.7,0-7.7,0-5.9-7.4,8-32.1,16.2-64.3,24-96.5,1.1-4.5,2.9-5.6,7.2-5.6q133.5.15,267,0c2.1,0,5.5,1.7,6.1-1.7.7-3.9,1.3-8.2-.3-11.9-.9-2-4.1-.9-6.2-.9q-90.45-.15-181,0h-2.4c-13.9,0-13.9,0-10.2-13.2,2.9-10,5.8-20.1,8.4-30.2.8-3.2,2.1-4.4,5.6-4.4,72.7.1,145.3-.3,218,.2,34.2.2,50.7,27.9,42.9,59.1-2.4,9.5-9.7,15.1-18,19.2-4.5,2.2-5.1,4.3-2.4,8.5,4.3,6.7,5.7,14.6,7.2,23.1,13.7-11.6,26.8-22.8,40-33.8,27.2-22.7,54.6-45.3,81.8-68,10.2-8.4,22.4-11.6,35.1-13.1,15-1.8,29.7-1.2,43.9,4.6,9.9,4,17,11.1,22.6,20.1,20.4,32.8,39.5,66.4,58.6,100.1a21.16,21.16,0,0,1,1.1,2.1c1.3,3.3,4.3,4.7,7.2,3.8,3.1-.9,2.5-4.3,2.3-6.8a233.73,233.73,0,0,1,.3-34.5c1.8-19.5,6.4-37.9,19.6-53.4,16.3-19.2,37.6-27.4,62-29.4,36.1-2.9,72.2-1.5,108.3-1.8,30.3-.2,60.5.1,90.8-.1,4.6,0,5.7,1,5.3,5.6-1.2,11.8-2,23.7-2.4,35.6-.2,4.4-1.2,5.7-5.8,5.6-26.6-.2-53.3-.1-79.9-.1H809.4c-25.3,0-36,8.5-41.9,33.3a179.83,179.83,0,0,0-4.7,41.3c0,3.8,1.2,4.7,4.8,4.7,62.8-.1,125.5,0,188.3-.1,8,0,11.9-2.6,11.9-7.3-.1-5-4.5-7.9-12.1-7.9-23.8,0-47.6-.1-71.4.1-4.2,0-6.8-1.1-9.2-4.9-7.7-12.4-16-24.5-24.6-37.5H994.1c1.2-2.5,2.8-3.5,5.1-1.1a20,20,0,0,1,1.4,1.6c1.8,2.7.7,4.1-2.1,4.6a36.49,36.49,0,0,1-6.6.3c-41.2,0-82.5.1-123.7,0a9.43,9.43,0,0,0-4.1.4c-1,1.8.1,3.1.9,4.5,4.4,7.7,10.1,14.6,14.7,22.2,2.1,3.5,5.7,3.4,9.2,3.4h64.8c3.4,0,6.9-.1,10.2,1,6.6,2.2,10.8,8.4,10.1,14.8s-5.6,10.9-12.7,11.7a58.79,58.79,0,0,1-7.3.2H766.4c-7.1-.2-8.8-1.7-9.6-8.9a59.16,59.16,0,0,1-.1-13.3c1.2-11.6,2.7-23.3,5.7-34.6,6.1-23.5,20.7-35,44.9-35.1,24.8-.1,49.6,0,74.5,0h89.6c8.2,0,9.1-.8,9.1-9,0-5.5,1.3-10.8,1.3-16.3,0-8.2-.4-8.6-8.4-8.7H949.2c-40.8,0-81.5-.4-122.3.2-17.5.2-35,.8-52.5,3.4-24.7,3.7-43.1,16.4-55.4,37.8-6.1,10.6-8.3,22.7-9.7,34.7a252,252,0,0,0-1.1,36.9c.3,7.8-1.6,11.1-6.1,12.4-5.5,1.6-10.9-.3-14.5-6.1-10.4-16.8-19.7-34.3-29.6-51.4-10.3-17.8-21.1-35.3-32-52.8C618.1,60,606.1,54.34,592.1,53c-10.6-1-21.4-1.3-32,1a67.25,67.25,0,0,0-28.6,13.7c-37.8,30.9-75,62.5-112.3,94-1.1.9-2.1,1.8-3.3,2.7-7.3,5.6-11.2,4.6-13.2-4.3-1.8-8-4.2-15.6-8.2-22.7-2.5-4.5-1.7-8.1,2.9-10.6,1.6-.9,3-2.1,4.6-2.9,14-7.8,18.3-17.3,15.5-35.3-2.3-15.2-13.6-26.5-28.3-29.6a69.06,69.06,0,0,0-14.4-1.6H171.4c-8.6,0-8.9.2-11.2,8.6-1.9,6.6-3.8,13.2-5.6,19.8-1.8,6.4-1.4,6.8,5.4,6.8H339.8c2.4,0,4.8,0,7.3.1,4.7,0,7.1,2.2,7.1,7s.1,9.7-.1,14.5c-.2,3.9-2,5.8-6.1,5.8-5,0-10.1.4-15.1.4-84.4-.1-168.7.1-253.1-.2-4.3,0-6.1,1.7-7.2,5.5-3.5,12.4-6.1,25.1-9.4,37.6-4.1,15.6-7.7,31.3-11.9,46.9-1.5,5.5-1,5.9,4.7,5.9,97.5-.1,194.9.2,292.4-.2,1.7,0,4-.9,4.9,1.1s-.9,3.8-2.4,5.1c-7.4,6.8-15.2,13.3-22.8,19.9-2.9,2.5-5.9,4.8-8.2,8.1,1.3,1.6,3,.9,4.5.9,18.4,0,36.7-.1,55.1.1a18.9,18.9,0,0,0,13-5c27.9-23.8,55.5-48,83.3-72.1,22-19,43.9-38,65.5-57.5,7.6-6.8,15.9-12.3,26.6-13.2,16.2-1.4,26.8,7.7,35.5,19.3,9.7,12.7,15.9,27.6,22.9,41.9.5,1.1.8,2.3,1.2,3.4,2.8,9.5-.3,14-10.2,14-25.8.1-51.7,0-77.5,0-1.8,0-3.6-.1-5.4,0-5.2.3-5.6.9-4,5.9,2.6,7.8,6.4,15.3,9,23.1,1.3,3.9,4.2,5,8,5h29.7c37.1,0,74.3-.1,111.4.1,8.3,0,15.3-2.1,21.4-7.9,5.6-5.3,7.9-5,13.1.5,5.3,5.7,11.4,8.8,19.4,7.5,3.2-.5,6.4-.2,9.7-.2,53.5,0,107,.1,160.4-.1,15.9-.1,31.8,2,47.8,1.4,6.3-.2,12.5-.6,18.7-1.3,25.5-2.7,37.8-18.3,42-42.2a84.75,84.75,0,0,0,1.6-17.4c.4-1.9.4-4.5,3-4.5C1028.3,152.44,1031,153.34,1028.2,156.74Z"/><path class="cls-1" d="M860.7,124c2.5-1.1,5.1-.2,7.7-.2H1000c1-2.4-2.1-2.2-2.1-3.8,2.1-2.7,4.8-1.6,7.2-.8,9.9,3.1,17.5,9.3,20.1,19.3,2.6,9.8,8,13.5,17.8,14.1,13.3.9,26.5,2.2,39.8,2.1q80-.15,159.8-.1c2.4,0,4.8-.1,7.3.1,8.8.5,13.6,5.4,13.6,13.7,0,7.8-6,14.5-13.7,14.9-5.4.3-10.9.4-16.3.4H1060.3c-9.6,0-9.6,0-12,9.5-1.5,5.9-2.5,11.9-3.7,17.8-.7,3.6.5,5.4,4.3,5.3h195.5c14.5,0,28.7-1.3,41.9-7.6,16.6-8,27-20.8,28-39.9a66.61,66.61,0,0,0-2.6-22.2c-4.1-13.9-15-20-28-23.1a160.45,160.45,0,0,0-36.6-4.1H1070.9c-4,0-8.1.2-12-1.3-6.4-2.5-8.4-7.6-4.9-13.5A23.13,23.13,0,0,1,1067.5,94c9.6-2.9,19.5-3.6,29.3-3.6q146.25-.3,292.4-.1h1.8c8.4.2,9.9,2,8.2,10.5-1.9,9.7-4.3,19.3-6.4,28.9-5.7,26.4-11.6,52.8-17.3,79.2-1.8,8.3-1.5,8.5,7,8.5h44.2c9.6,0,9.6,0,11.6-9.1,5.5-24.6,10.3-49.4,15.9-74,2.6-11.4,4.5-22.9,7.5-34.3,1.1-4.4,3.4-6.3,8.1-6.3,22,.3,44,0,66,.2,9.1,0,10.5,1.8,8,10.5-6.1,21.1-10.3,42.8-15.6,64.1a65.38,65.38,0,0,0-1.7,13.2c-.6,13,6.8,23,20.4,28.3,14.5,5.7,29.7,7.9,45,8.5,60.1,2.7,120.2.7,180.3,1.3,11.9.1,23.8-.2,35.7.1,5.3.1,8.1-1.6,9.2-7.1,1.5-7.9,3.5-15.7,5.5-23.6,1.8-7.2.9-8.1-6.5-8.1-33.9-.1-67.8,0-101.7,0h-43c-25.6,0-51.2-2-76.8-1.3-7.8.2-10.4-1.8-11.9-7.6-1.3-5.4,2.2-12.6,7.6-15.2a27.5,27.5,0,0,1,12.3-2.6h254.3c9,0,11.1,2.8,8.6,11.8-4,13.8-6.3,27.9-10.1,41.7-2.4,8.7-1.6,9.4,7.2,9.4,15.5,0,31.1-.1,46.6.1,5.5.1,7.9-2.1,8.9-7.4,2.5-13.3,5.8-26.4,7.9-39.8a40.54,40.54,0,0,1,2-7.6c1.6-4.6,4.5-6.7,9.4-6.8,12.1-.3,24.2-.2,36.3-.2,31.7,0,63.4.2,95.1-.2,8.3-.1,13.7,2.6,17.7,9.8,8.5,15.1,19.1,28.9,27.5,44.1,2.6,4.8,6.3,6.9,11.7,6.8,13.9-.1,27.8,0,41.8-.1,6.1,0,6.4-.5,3.2-6.1-5.5-9.6-11.7-18.8-17.8-28.1-8.5-12.8-16.3-25.9-24.5-38.9-2.5-3.9-1.9-7.3,1.3-10.3,5.3-4.9,9-10.9,12.7-16.9a45.85,45.85,0,0,0,6.8-24.2c.1-13.5-7.9-21.5-19-27.1-10.1-5-21.1-7-32.3-7.1-66.2-.2-132.4-.1-198.6-.1-7.3,0-7.5.3-8.8,7.7-1.3,7.2-2.6,14.3-3.8,21.5-.7,4.3,1,6,5.1,5.9,2-.1,4,0,6.1,0h181c4.2,0,8.5-.2,12.6.9,7.9,2.1,10.9,9.7,6.6,16.6a16.24,16.24,0,0,1-8.7,7.2,48.42,48.42,0,0,1-27.2.6c-1.6-3.8,1.1-3.3,3.3-3.4,6.5-.5,13,1,19.4-.7,2.8-1.5,6.1-2.2,8.2-4.9,1.8-2.2,2.5-4.7,1.4-7.3a5.63,5.63,0,0,0-5.8-3.5c-2,0-4-.1-6.1-.1q-98.7,0-197.4.1c-5,0-6.5-.6-5.2-6.3,2.7-11.7,4.6-23.7,6.4-35.6.5-3.2,1.4-4.4,4.8-4.4,70.4.2,140.9.1,211.3.4a66.55,66.55,0,0,1,32.4,8.6c18.3,10.2,24.5,27.6,17.2,47.3a81.47,81.47,0,0,1-17.2,27.4c-2.4,2.6-2.3,4.2-.4,7.1q23.85,37,47.5,74.3c.8,1.3,1.6,2.7,3,5h-17.4c-15.5,0-31.1-.1-46.6.1-3.6.1-5.8-.9-7.8-4.1-10.9-17.6-22.2-35-33.1-52.7-1.9-3-3.9-4-7.3-4q-66.6.15-133.2-.1c-4.9,0-6,2.2-6.8,6-3.6,17.1-7.4,34.1-10.8,51.3-.8,4-2.1,5.2-6.2,5.1-21.4-.2-42.8-.1-64.2.1-4.6,0-5.1-1-4-5.5,4.8-19.1,9-38.3,13.4-57.7-2.3-1.1-4.7-.5-7-.5q-124.8,0-249.5-.1a39,39,0,0,0-10.8,1.3,7.9,7.9,0,0,0-6.1,7.4c-.3,3.5.3,5.9,5.1,5.9,20.6-.1,41.2.4,61.7.5,56.9.3,113.8.6,170.7.6,5.3,0,6.3,1,4.9,6.4-3.4,12.6-6.1,25.4-8.8,38.1-.8,3.9-2.4,5-6.4,5-67.8-.1-135.6.1-203.4-.2-19.5-.1-39.1-1.2-58-6.9-1.5-.5-3.1-.9-4.6-1.4-23.8-8.4-31.6-22.6-26.4-47.3,4.6-22,10.1-43.9,16-65.6,1.1-4.1.2-4.7-3.7-4.6-21,.2-42,.1-63-.1-3.3,0-4.6,1.1-5.2,4.2q-12.15,57.45-24.4,115c-.8,3.6-1.6,5.5-6,5.4-21.4-.3-42.8-.2-64.2,0-4.4,0-5.4-.8-4.3-5.4,8.8-38.8,17.3-77.7,26-116.6,1-4.4,0-5.3-4.4-5.3q-148.35.15-296.7.1c-8.8,0-17.7.7-26,4.1-2.6,1.1-5.3,2.1-7.1,4.4a5.66,5.66,0,0,0-1.1,6.2c1,2.2,2.7,2.8,4.9,2.7h6.7c59.5,0,119.1-.1,178.6.1,14.5,0,28.9,1.2,42.9,5.9,16.4,5.5,25.4,16.7,27.7,33.8,4.6,33.7-11.9,57.8-45.3,65.4a117.37,117.37,0,0,1-25.8,3q-102.9-.15-205.9.1c-4.9,0-6-.7-4.7-5.8,2.9-11.3,5.1-22.7,7.5-34.1.7-3.2,1.8-4.7,5.8-4.7q98.7.15,197.4,0c7.2,0,10.6-3.8,9.9-11-.4-4.3-2.4-6.5-7-6.5-8.5.2-17,.1-25.4,0-54.3-.1-108.6,0-162.9-.3a139.42,139.42,0,0,1-28.8-3c-1.9-.4-3.9-1.1-5.9-.2.7-1.9.1-3.1-1.8-3.3-2.6-.2-1.6,2.1-2,3.3-3.1-.9-2.7-3.7-3.1-6-1-5-2.1-9.9-4.7-14.3-3.9-6.5-9.3-9.9-17.3-9.9-43.7.5-87.5.2-131.2.2C865.3,126.84,862.1,127.64,860.7,124Z"/><path class="cls-1" d="M2085,114c.1.3.1.7.2,1a26.6,26.6,0,0,1-2.8.3h-15.5c-1.9,0-4.2-.6-4.6,2.3-3,2.8-6.9,2-10.4,2-55.7.1-111.4,0-167.1,0H1616a62.91,62.91,0,0,1-9.7-.3c-5.9-.8-11.1-5.5-11.8-10.6-.8-5.6,2.2-10.6,8.3-13.3,5.5-2.5,11.3-2.7,17.2-2.7h208.9c15.1,0,15.1,0,17.9-14.6,1-5.4,1.5-10.8,2.9-16.1,1-3.7-.6-5.3-4.2-5.4-2,0-4-.1-6.1-.1q-110.85,0-221.6,0c-19.9,0-37.11,6.6-50.2,22.3-1.4,1.7-2.9,3.6-5.5,2.9s-2.7-3.3-2.9-5.5c-.4-4-.1-8.1-.2-12.1-.1-4.2-1.9-6.4-6.2-6.3h-6.7q-225.15,0-450.4.2c-21.9,0-43.9,1.5-65.4,7.3a61.14,61.14,0,0,0-20,9.8c-7.6,5.6-9.6,14.1-10.4,23-.4,4.4-.1,8.9-.2,13.3-.1,2.6.2,5.3-1.9,7.4-1.8-1.4-2.6.7-3.9,1.2.1-5.8.1-11.7.2-17.5,0-20.9,8.4-33.1,28-40.5,15.4-5.8,31.7-7.5,48-8.6,34.6-2.1,69.3-1.5,104-1.5q191.85.15,383.8-.1c5.4,0,7.2,1.3,6.6,6.7-.5,4.4-.1,8.8-.1,14.5a77.69,77.69,0,0,1,53.4-22.6h232.4c7.5,0,7.6,0,6.2,7.2-2.4,12.2-5.1,24.4-7.3,36.7-.7,4-3,3.9-6,3.9-25-.1-50,0-75.1,0q-75,0-150.1.1a32.62,32.62,0,0,0-14.1,2.8c-3.2,1.5-5.3,3.9-4.1,7.7,1,3.3,3.1,5.6,7,5.4,2.6-.1,5.2,0,7.9,0h461.3C2078.9,114.14,2082,114,2085,114Z"/><path class="cls-1" d="M997.8,118.94c.7-9.2-.7-18.4,1.1-27.7,2.2-11.3,9-18.3,18.7-23.1,13.1-6.4,27.3-8.8,41.7-9.7,86.4-5.3,172.9-1.6,259.4-2.3,77.9-.6,155.8-.1,233.6-.2,8.3,0,8.4.1,8.4,8.5v13.3c0,1.3-.3,3,1.6,3.5,1.5.3,2-.9,2.8-1.9,13.3-18,32-24.5,53.4-24.6q113.25-.15,226.4,0c8.8,0,8.6.1,6.6,8.4-1.9,7.8-3.3,15.7-4.5,23.6-.9,6.2-4.1,8-10.2,8-46.6-.2-93.2-.1-139.8-.1h-79.3c-5.5,0-10.8.7-15.8,3.2s-7,6.5-5.7,11.4a11.09,11.09,0,0,0,9.7,8.5,68.9,68.9,0,0,0,9.1.1h440.6c2.2,0,4.4-.1,6.7-.2,9.5-.5,19.3,2.2,28.5-2.3,5.4-2.6,8.8-8.1,7.7-13.5-1.1-5.7-5.8-6.6-10.5-7.1a38.46,38.46,0,0,0-4.8-.1H1891.3c-7.7,0-7.6,0-6.2-8s3.1-16.2,4-24.3c.5-4.9,2.5-6.4,7.3-6.4,28.1.2,56.1.1,84.2.1,39.4,0,78.7-.4,118.1.2,16.6.2,32.6,3.5,45.2,16.4,5.8,6,7.7,13,7.5,20.6-.5,16.4-8.5,29.5-19.8,40.6-3.4,3.4-3.5,5.6-.9,9.6,12.9,20,25.2,40.4,38.8,60,2.3,3.4,3.9,7.4,6.4,10.8,2.2,3,.8,4.1-2.6,4.1-17-.1-33.9-.1-50.9,0-7.8.1-9.1-7-11.7-11.4-9.1-15.2-19.4-29.7-28.3-44.9-1.9-3.3-4.3-4.2-7.9-4.2q-68.7.15-137.4.1c-3.4,0-5.6,1-6.8,4.8-3,9.4-3.7,19.2-5.9,28.7-1.9,8-3.6,16-5.2,24.1-.6,2.8-2.2,4-4.9,4h-58.7c-2.9,0-3.8-.8-3.1-4,4.1-16.7,7.8-33.4,11.8-50.1,1.9-8,1.5-8.9-6.5-8.9q-127.8,0-255.5.1c-6.4,0-12.6.6-16.4,7.7-2.2,4.1-2,7.1-.1,11.2,2,4.4,5.3,2.9,8.2,3,12.7.2,25.4-.3,38.1.2,62.5,2.2,125.1.5,187.6,1.1,5.2,0,7.4,1.1,5.8,7-2.7,9.8-4.8,19.8-6.9,29.8-.8,3.9-2.4,5.4-6.8,5.4-65.4-.2-130.8.1-196.2-.4-20.6-.2-41.5-.6-61.5-6.9-9.3-2.9-18.4-6.3-24.4-14.9-4.8-6.9-5.8-14.5-4.5-22.5,3.1-18.4,7.8-36.4,12.2-54.5,1.6-6.8,3.5-13.6,5.6-20.2,1.5-4.7,1.2-6.8-4.7-6.8-23.4.2-46.8.1-70.2-.1-3.1,0-3.5,1.2-4.1,3.7-4.3,20.4-8.8,40.8-13.2,61.1-4,18.4-8.2,36.7-11.9,55.2-.6,3.2-1.8,3.9-4.7,3.9-19.2-.1-38.3-.1-57.5-.1-3.9,0-4.8-1.2-3.9-5,5.1-22,9.3-44.2,14.7-66.2,4-16.5,7-33.3,10.8-49.8,1.2-5.3-.6-6.2-5.4-6.2-99.7.1-199.4,0-299.1.3-8.7,0-17.7.8-26.2,3.5a20.94,20.94,0,0,0-12.7,10.4c-2.2,4.3-.9,8,3.7,10.1,3,1.4,6.2,1.4,9.5,1.4,61.6,0,123.1-.2,184.7.1,14.1.1,28.2,1.7,41.7,7.3,11.4,4.8,18.2,13.2,20.3,25,2.1,11.3,2.5,22.6-1.6,33.8-4.3,11.7-12.8,19.5-23.1,25-13.1,7.1-27.7,9.1-42.5,9.1H1049c-7.6,0-7.7-.1-6.1-7.6,1.7-8.4,3.7-16.8,5.5-25.2.6-2.7,2-3.5,4.6-3.5,8.5.1,17,0,25.4,0h158c4.4,0,8.8,0,13.2-.1,6.9-.1,12.4-6.3,12.3-14s-4.1-11.4-12-11.4q-91.05,0-182.2-.2c-11.6,0-23.2-1.5-34.7-3.4-3.2-.5-5.3-1.6-6.4-5.6-3.1-11.3-7.7-22-20.4-26-2.7-.8-5.3-1.8-8.1-1.2C998,119.64,997.9,119.34,997.8,118.94Z"/><path class="cls-1" d="M1021.7,144.44c-2.9-11.8-11-19.9-19.8-19.8-40.7,0-81.3.2-122,.1-6.4,0-12.8.9-19.2-.7-1.7,1.6-.4,2.7.5,4.1,5.3,8,10.8,16,15.7,24.3,2.5,4.1,5.4,5.5,10.2,5.5,23.6-.3,47.2-.2,70.8-.1,9.5.1,16.1,7.4,14.2,15.4-1.4,5.9-6.7,9-16,9-63.4,0-126.7-.1-190.1.2-6.6,0-7.8-2.7-8-7.9a166.21,166.21,0,0,1,5.6-46.6c6.7-24.9,19.1-34.2,44.8-34.2,55.5,0,111-.1,166.5.1,5.2,0,6.6-1.8,6.8-6.4.3-8.3.6-16.5,1.5-24.7.7-5.7-1.6-6.6-6.6-6.5-25.6.2-51.3-.1-76.9.2-39.1.4-78.2-1.6-117.2,2.2-11.9,1.1-23.6,3.1-34.2,9-26.5,14.6-38.8,38-41.3,67.4a303,303,0,0,0-.6,36.9c.3,9.6-5.9,13.5-14,9.2-2.4-1.3-3.2-3.5-4.4-5.6-17.7-30.9-35.2-62-53.7-92.4-8.2-13.5-16.8-26.1-33.6-29.9-15.7-3.5-31.1-2.8-46.7.8-14.9,3.4-25.2,14-36.3,23.1-35.1,29-69.8,58.4-104.7,87.7-5.1,4.3-7.4,3.4-8.6-3.3a78.35,78.35,0,0,0-5.6-19c-1.7-3.6-6.3-7-4.7-10.4,1.4-3.1,6.3-4.6,9.7-6.7,6.1-3.7,12-7.5,14-15,3.6-13,3-25.5-4.7-37.1-8.5-12.6-21.2-16.9-35.5-16.9q-103.5-.15-207-.1c-9.2,0-9.3,0-11.9,8.9-2.8,9.7-5.4,19.5-8.3,29.6H341.5c11.1,0,11.1,0,11.1,11.1,0,12.7,0,12.8-12.5,12.8q-131.4,0-262.7-.1c-4,0-5.2,1.4-6,4.8-1.6,7.3-3.5,14.5-5.3,21.7-5.8,22.8-11.5,45.6-17.4,68.4-1.1,4.3-.2,5.5,4.4,5.4,11.5-.4,23-.3,34.4-.3q123.15-.15,246.4-.4h20c-13.8,11.7-26.8,22.6-39.2,34.6a6.73,6.73,0,0,0,1.7.6c15.7,0,31.5-.8,47.2.3,16.2,1.2,30.2-1.2,40.6-14.8a3.11,3.11,0,0,1,.9-.7Q453,196.69,500.9,155c15.8-13.7,31.2-28,47.5-41.1,15.8-12.7,32.9-11.2,47.1,3.3,14.8,15.1,22.9,34.4,30.6,53.6,2.9,7.1,0,10.2-7.6,10.3-29.1.1-58.1.1-87.2,0-4,0-5.7.6-3.9,5,3.9,9.5,7.5,19.1,11.1,28.7,1.2,3.2,3.2,4.1,6.4,4.1,46.6-.2,93.2-.4,139.8-.2,10.9,0,20.9-1.1,28.1-10.5,1.8-2.4,5-3.2,6.7-.5,6.9,10.8,16.9,11.5,28.4,11.4,59.9-.4,119.9-.2,179.8-.2,2.2,0,4.4.1,6.7.2,15.5.6,31.1,1.2,46.5-.8,16.7-2.2,29.4-10.1,36.6-26,5.1-11.3,6.5-23.2,6.5-35.3A122.3,122.3,0,0,0,1021.7,144.44Zm-681.5,15.1a117.51,117.51,0,0,0-.1,15.7c.3,3.9-1.5,5.1-4.8,5.1-3.8,0-7.6-.3-11.5-.3H152.1c-8.9,0-17.7.1-26.6.5-4.4.2-5.6-1.5-5.4-5.6a117.51,117.51,0,0,0,0-15.7c-.4-5,1.1-6.5,6.2-6.4,34.7.2,69.3.1,104,.1,34.5,0,68.9.2,103.4-.2C339.5,152.64,340.6,154.54,340.2,159.54Z"/></g></svg>