<svg id="Слой_1" data-name="Слой 1" xmlns="http://www.w3.org/2000/svg" viewBox="0 0 2969.65 542.85"><defs><style>.cls-1{fill:#ff8200;}</style></defs><title>Bering</title><g id="Слой_7" data-name="Слой 7"><path class="cls-1" d="M1097.55,258.45c12.5,7.5,24.9,12.5,33.9,21,15.4,14.5,14.9,34.7,11,53.5-5.5,26.4-13.3,52.3-20.2,78.3-2.5,9.6-5.2,19.3-7.9,29.3H737.65c5.6-21.3,10.9-41.5,16.3-61.6,19.7-73.8,39.5-147.5,58.8-221.4,2.1-8.1,5.4-10.2,13.5-10.2,72.5.3,144.9-.1,217.4.2,16.1.1,32.2,2.2,45.5,12.4,21.5,16.3,22,38.9,17.4,62.5C1104.15,235.05,1100.35,247.55,1097.55,258.45Zm-54.6,65.7H871c-3.2,12.2-6.4,24.5-9.9,37.8,56.6,0,111.6,0,166.7-.2,2.1,0,5.5-1.8,6-3.5C1037.05,347.25,1039.75,336,1043,324.15Zm-39.3-96.6c-35.3,0-68.6-.1-102,.2-2,0-5.1,2.1-5.7,3.9-3.4,10.9-6.2,22-9.3,33.6h107.6C997.35,253,1000.25,241.05,1003.65,227.55Z"/><path class="cls-1" d="M2927.75,148.05c-7.2,27-14,52.7-21.1,79.2h-233c-12,44.8-23.9,89.1-36.1,134.8h11.1c53.1,0,106.2-.3,159.3.2,8.6.1,11.8-2.7,13.1-10.6,1.2-7.1,3.6-14.1,5.7-22h-102.7c5.9-22.1,11.3-43.3,17.3-64.4.5-1.9,4.4-4.1,6.7-4.1,42.7,0,85.5-1.2,128.2,1,41.1,2.1,60.1,31.7,49.9,75.4-7.6,32.8-17.2,65.1-25.5,97.7-1.8,7.1-6.6,6.1-11.5,6.1q-91.2,0-182.4-.1-89.1-.15-178.3-.4h-13.3c4.1-16.2,7.9-31.1,11.8-46.1,14.6-55.4,29.1-110.8,43.9-166.1,13.4-49.8,53-80.9,104.4-81.2,81.5-.5,163-.1,244.5-.1C2922,147.45,2924.25,147.85,2927.75,148.05Z"/><path class="cls-1" d="M1512.45,441.25c7.6-28.6,14.6-55.2,21.7-81.9,11.5-43.1,22.8-86.2,34.5-129.3,14.4-52.7,53.9-82.6,108.5-82.6H1931c-16.3,61.1-32.4,121.1-48.6,181.6h-55.2c27.9,37.9,54.7,74.1,82,111.3a28.62,28.62,0,0,1-5.2,1c-29.7,0-59.4.3-89.1-.3-4.1-.1-9.5-3.2-12-6.6-24.6-32.7-48.6-65.9-73.2-98.6-2.5-3.3-7.8-6.3-11.9-6.4-21.7-.6-43.4-.1-65.1-.5-6.2-.1-8.6,2.1-10.1,8-8.4,31.9-17.3,63.7-25.7,95.6-1.7,6.4-4.3,9.1-11.5,9C1574.85,441,1544.55,441.25,1512.45,441.25Zm306.2-213.7c-48.3,0-95.3,0-142.2.2-1.9,0-5,2.3-5.6,4.1-3.3,10.8-6,21.7-8.8,32.4,1.3.7,1.8,1.3,2.4,1.3,46.3.1,92.6.2,139,0,2.2,0,5.7-2.4,6.3-4.5C1813,250.65,1815.45,240,1818.65,227.55Z"/><path class="cls-1" d="M2075.05,440.25c6-22.5,11.8-44.3,17.6-66,13-48.5,26.1-97,38.8-145.7,12.8-49,53.9-80.1,105.7-81.3,14.7-.4,23.7,3.6,32.4,16.3,38.6,56.8,78.6,112.6,118.1,168.8,1.3,1.9,2.7,3.7,5.4,7.3,3.7-13.1,7.2-24.6,10.3-36.1q19.65-73.8,39.2-147.5c1.2-4.4,1.6-8.8,8.5-8.7,30.4.4,60.8.2,91.2.2,1.2,0,2.4.5,4.7,1.1-26.1,97.6-52.1,194.7-78.4,292.8h-54.2c-11.4,0-22.8-.9-34,.2-11.6,1.2-18.1-3.7-24.3-12.7-40.6-58.9-81.6-117.6-122.5-176.4-1.1-1.6-2.5-3-4.8-5.7-1.4,3.8-2.7,6.6-3.5,9.5-15.7,58.6-31.5,117.2-46.9,175.9-1.7,6.6-4.2,9.2-11.4,9.1-28-.5-56.1-.3-84.1-.5C2080.55,440.85,2078.35,440.55,2075.05,440.25Z"/><path class="cls-1" d="M1152.65,441c7.9-29.8,15.2-57.8,22.7-85.7q16.65-62.25,33.5-124.5c14.3-52.8,53.7-83.1,108.1-83.2q109.8-.15,219.5-.1h13.1c-6.1,23-12.3,44.3-17.2,66-2.4,11-6.7,14.6-18.5,14.5-64.1-.8-128.3-.2-192.4-.6-7.7,0-11.5,1.7-12.7,9.8-1.1,7.5-3.8,14.7-6.1,23.5h135.8c-6.1,22.3-11.5,43.2-17.8,63.9-.7,2.2-6.1,4.3-9.3,4.3-39.1.3-78.2.4-117.3-.1-7.9-.1-11.4,2.3-12.7,10-1.3,7.4-3.7,14.7-5.9,22.9h216.7c-5.4,20.2-10.4,39.4-15.6,58.5-5.8,21.2-5.8,21.2-27.8,21.2q-141.75-.15-283.6-.5C1161.55,441,1158,441,1152.65,441Z"/><path class="cls-1" d="M1923,441.35c14.2-53.2,27.8-104.2,41.4-155.2,11.6-43.4,23.3-86.7,34.6-130.2,1.8-6.8,4.6-9.3,11.5-8.6,9.9,1,20,.6,29.9,1.7,33.3,3.9,52.9,28.3,47.4,61.5-4,23.9-10.7,47.4-16.9,70.9-13.2,50.3-27,100.4-40.2,150.8-1.9,7.2-4.8,9.4-12.2,9.3C1987.15,441.15,1955.75,441.35,1923,441.35Z"/><path class="cls-1" d="M233.15,142.35c-3.2-14.8-11.8-42.5-36.3-64.9-10.4-9.5-24.7-22.5-46-23.7-31-1.7-52.1,22.7-55.8,27.2-25.9,31.3-15.1,71.3-14,75.3Q155,205.15,229,254v-71.9a103.12,103.12,0,0,1-26.5-9.7c-8.8-4.8-19.7-10.8-26.5-23-1.9-3.3-8.4-15.1-4.2-20.2,3.8-4.6,14.4-1.7,32.8,3.5A250.23,250.23,0,0,1,233.15,142.35Z"/><path class="cls-1" d="M453.65,142.35c3.2-14.8,11.8-42.5,36.3-64.9,10.4-9.5,24.7-22.5,46-23.7,31-1.7,52.1,22.7,55.8,27.2,25.9,31.3,15.1,71.3,14,75.3q-73.95,48.9-147.9,97.7v-71.9a103.12,103.12,0,0,0,26.5-9.7c8.8-4.8,19.7-10.8,26.5-23,1.9-3.3,8.4-15.1,4.2-20.2-3.8-4.6-14.4-1.7-32.8,3.5A250.23,250.23,0,0,0,453.65,142.35Z"/><path class="cls-1" d="M218.45,53.05h249.1a130.91,130.91,0,0,0-41.2,127.7q-86.1.3-172.3.7a120.24,120.24,0,0,0,3.5-63.5C249.55,81.45,226.55,60,218.45,53.05Z"/><path class="cls-1" d="M259.65,213.45c7.2,20.9,14.4,41.9,21.6,62.8q63.9.3,127.7.7c4.7-20.6,9.3-41.2,14-61.9Q341.2,214.3,259.65,213.45Z"/><path class="cls-1" d="M268.75,289.65c4.6,49,7.4,101.8,7.4,158,0,26.2-.7,51.7-1.9,76.3l136.7.9c-1.3-24.4-1.9-49.9-1.9-76.3a1391.82,1391.82,0,0,1,9.3-155.3Z"/><path class="cls-1" d="M611.85,179.25q-76.65,49.5-153.4,99a393.64,393.64,0,0,1-5.6,110.2,396.72,396.72,0,0,1-18.1,64.2,256,256,0,0,1,54.4,27.9,259.13,259.13,0,0,1,58.6,54.4A477.06,477.06,0,0,0,612,378.75,478.87,478.87,0,0,0,611.85,179.25Z"/><path class="cls-1" d="M72.15,179.25q76.65,49.5,153.4,99a396.12,396.12,0,0,0,23.7,174.4,256,256,0,0,0-54.4,27.9,259.13,259.13,0,0,0-58.6,54.4,474.79,474.79,0,0,1-64.1-355.7Z"/></g></svg>