<svg xmlns="http://www.w3.org/2000/svg" viewBox="0 0 2099.95 440.68"><defs><style>.cls-1{fill:#ff8200;}</style></defs><title>BLH</title><g id="Слой_2" data-name="Слой 2"><g id="surface1"><path class="cls-1" d="M399,300.4a230.31,230.31,0,0,1-28.22-1.19c-10.89-1.08-21.06-4-30.75-7.35-2.24-.76-3.05.64-2.26,1.94,3.08,5.12,11.88,12.75,17.89,16.9,9.61,6.68,17.82,8.36,27.23,8.75Zm44.1-52.13c-16.78.41-34.09.54-51.85.49-45-.16-79.56-7.6-109.74-19.22-8.24-3.16-12.52,1.63-4.82,8.23C290.45,249.65,302.41,268,351,274.86c29,4.1,42.82,5.2,65.54,4.77Zm57.71-68.16c-43.92,2.09-91,2.37-141.07.3-66.2-2.75-117-12.28-161.08-28.65-12.08-4.46-18.53,1.86-7.39,10.94,20,16.31,37.19,40.81,108.59,51.31,57.43,8.47,74.28,9.23,137.6,8,10-.18,19.63-.67,29-1.28Zm62.86-74.31a2270.55,2270.55,0,0,1-255-6c-92-7.16-162.28-22.5-223-46.54C69,46.66,60.6,53.72,74.9,67.31c25.44,24.19,49.27,55.7,149.4,72.37C304.09,153,326.88,157.27,415,159.08c39.11.81,74.41-1.28,106.74-3.8Z"/><path class="cls-1" d="M603.06,106l294.15,4.16c48.61.66,89.83,5.61,106.6,16.67s18.53,24.88,5,41.22c-11.37,13.74-18.17,21.64-44.86,31.48-17.82,6.55-60.93,8.18-87.9,12,32.86,4,67.58,6.83,75.69,17.39C970.34,253,912.86,299,890,311.9c-18.59,10.45-44.64,14.76-72.3,15.93-122.13,5.08-263.4,1.15-395.14,1.74ZM723.2,195.53H754c27.71,0,36.25,1.3,56.44-20.83,24.37-26.84,3.72-27.63-15.48-27.63H763.09Zm-76.42,97.56H684.3c32.2,0,37-1.07,60.75-27.43,31.91-35.36,15.7-34.29-8.72-34.29H699.14Z"/><path class="cls-1" d="M1170,111h200.29L1237.52,269.81h118.94l-48.36,65.41H983.83Z"/><path class="cls-1" d="M1579.74,103.84h200.09l-68.09,86.26h60l68.75-86.26h200.24l-191,234.75h-199l66.15-81.73h-57.26l-67.37,81.73H1388.68Z"/></g></g></svg>