<svg id="Слой_1" data-name="Слой 1" xmlns="http://www.w3.org/2000/svg" viewBox="0 0 2765.51 1051.5"><defs><style>.cls-1{fill:#ff8200;}</style></defs><title>Caberg </title><g id="Слой_9" data-name="Слой 9"><path class="cls-1" d="M1401.42,999.4c-56.4-2.1-108.81-9.6-160.9-18.8-153.8-27.4-304.41-67.2-452.3-117.4-34.3-11.6-71.5-14.6-107.3-22-132.7-27.6-263.3-62.1-385.7-122-52.1-25.5-101.3-55.6-141.9-97.8-26.1-27.1-46.1-57.8-55-94.9-11.9-49.8,1.3-94.4,29.9-135,35.59-50.7,85.49-84.7,139-113.7,95.9-52.1,199-85,304.3-111.6,178.4-45,360-69.1,543.3-82.5,186.4-13.6,372.9-15.5,559.5-4.5,199.3,11.7,397,35.4,590.5,86.9,107.2,28.5,211.7,64.1,306.3,123.7,41.7,26.3,79.4,57.2,107.7,98.3,44.9,65.3,45.11,139.7.5,205.3-32.5,47.8-77.39,81.6-126.5,110.4-85,49.9-177.3,81.8-271.7,108.2-85,23.8-171.69,39.3-258.3,55.7-38.3,7.3-75.1,22.2-112.7,33-145.09,41.6-292.09,74.4-442,93C1444.71,996.5,1421.42,997.7,1401.42,999.4Zm-5.31-35.7c63.7-2.2,126.1-11.9,188.2-22.9,111.2-19.7,220.9-45.9,329.4-77.5,35.5-10.3,69.81-25.3,106.4-31.4,72.2-12,144.1-25.6,215.1-43.9,102.3-26.3,202.4-58.6,294.71-111.4,42.69-24.4,82.5-52.9,112.89-92.4,46.11-59.9,46.3-124.7.8-185.1a268.51,268.51,0,0,0-42.1-43.8c-44.9-37.9-96.1-65.5-149.7-88.7-124.6-53.9-255.6-85.4-388.8-108.8-186.4-32.8-374.6-46.4-563.6-50-93.5-1.8-187,1.4-280.4,3.3-27.2.5-55,5-82.4,6.7q-81.3,5-162.1,13.8c-147,16.1-292.7,40-435.5,79.4-97.1,26.8-192.1,59.4-279.1,111.4-40.4,24.1-77.7,52.1-104.8,91.6-34.6,50.5-34.5,103.8-.1,154.3a231.05,231.05,0,0,0,34.7,39.8c42,38.7,91.1,66.4,142.6,89.9,114.2,52.2,234.7,83.8,357.1,109.1,35.4,7.3,72.2,10.1,106.1,21.6,134.2,45.5,270.5,82.8,409.6,109.8C1268.42,950.7,1331.92,961.6,1396.11,963.7Z"/><path class="cls-1" d="M678.61,756.1a16.1,16.1,0,0,1-10.4.1c-89.9-27.9-177.69-60.4-255.4-115.1-28.7-20.2-54.6-43.3-73.9-73-32.4-49.9-32.5-100.2.1-149.9,28.1-42.8,68.3-72.1,111.6-97.5,82.8-48.6,172.7-79.1,264.8-103.8,119.5-32,241.2-51.6,364.2-64.2a3172.54,3172.54,0,0,1,478.5-12.5c208,10.2,413.6,36.3,612.91,100.1,78.69,25.2,154.7,56.5,222.79,104.5,29.8,21,56.8,45,76.2,76.2,30.5,49.1,29.9,98.2-1.6,146.6-26.4,40.5-64,68.9-104.6,93.6-70.9,43.1-148,71.7-227.1,95.4-3.4,1-7.2,3.3-10.8,0,1.5-1.5,2.7-3.6,4.5-4.5,19.8-9.3,40-17.6,59.5-27.5,53.5-27.3,105.7-56.7,147.6-100.7,20.3-21.3,37.4-45,41.8-78.8-22.4,29-52.2,41.8-81.9,54.4-37.2,15.8-75.9,26.9-114.8,37.5-41.1,11.2-82.6,20.4-124.3,29.2-33.1,6.9-66.4,13-99.7,18.9q-55.2,9.75-110.6,18.3c-30.4,4.7-61,8.7-91.5,12.7-51.1,6.5-102.1,13.6-153.3,18.9-48.2,4.9-96.6,8.2-144.7,12.9-58.5,5.7-116.2.3-174.2-4.1-44.8-3.4-89.4-8.5-134-13.8-45-5.3-90-11-134.8-17.6-49.5-7.3-99.2-14.4-148.4-24-40.9-8-82.3-14.1-123-23.1-47.1-10.4-94.2-20.8-140.3-35.1-59.9-18.6-120.9-34.8-168.8-79.2-.8,10.1-.5,10,1.9,16.5,9.8,26.5,26.8,48,47,67.1,45.9,43.3,100.5,73.2,156.5,101.1C653.11,742.1,668,745,678.61,756.1ZM1320,430.4c9.09-4.2,16.5-7.7,22.3-13.7,15.9-16.4,16.2-76.9.3-93.2-11.5-11.8-25.9-16.2-42-16.2-77.6,0-155.2.1-232.8-.2-8.5,0-10.2,2.8-10.1,10.7q.45,127.65-.1,255.3c0,9.6,3,11.4,11.9,11.4,59.5-.4,119.1-.2,178.6-.2,19,0,37.9.5,56.9-.2,31.1-1.2,48.3-19.5,48.3-50.4,0-15.9-1-31.8.2-47.6C1355.61,459.8,1347.71,440.1,1320,430.4Zm972.79-123.1h-7.6q-118.5,0-236.9.1a92.81,92.81,0,0,0-15.8,1.4c-24.4,4.4-38.5,21.2-38.5,45.8V531.9c0,33.3,17.4,51.9,50.6,52.1,78.5.5,157,.1,235.5.4,7.5,0,9.7-2.1,9.7-9.7q-.45-82.05,0-164.1c0-7.4-1.9-9.8-9.5-9.8-52.5.3-105,.1-157.5.2-3.4,0-7.2-1-9.6,2.8-11.3,18-22.5,36-34.9,55.8h9c37.9,0,75.9.3,113.8-.2,8.7-.1,11.3,2.3,10.8,11-.7,14.5-.7,29.1,0,43.6.4,9-1.8,12.1-11.5,12q-58.8-.9-117.8,0c-9.6.1-11.6-3-11.5-11.9.4-44.5.6-89.1-.1-133.6-.2-11.3,2-15,14.2-14.8,53.8.8,107.6.3,161.4.4,5.4,0,9.9.1,13.3-5.7C2270.22,343.3,2280.92,326.6,2292.81,307.3ZM1937.52,430.4c27.5-13.8,32.5-21.9,32.5-52V359.9c0-34.1-17.1-52.2-51.6-52.4-78-.5-156.1-.1-234.1-.3-7.1,0-10,1.5-10,9.4q.45,129-.1,257.9c0,8.8,3.3,10.1,10.8,9.9,18.5-.5,37.1-.6,55.5,0,9,.3,12.1-1.9,11.9-11.5-.6-34.4,0-68.8-.4-103.2-.1-7.9,1.6-10.5,10.1-10.4q59.55.75,119,0c9.2-.1,11.8,2.3,11.7,11.7-.6,34.4,0,68.8-.4,103.2-.1,8.2,2.19,10.5,10.3,10.2,19.4-.6,38.8-.4,58.2-.1,6.4.1,9.4-1.1,9.3-8.6-.4-35.7-.2-71.4-.2-107.1,0-9.8-4.4-17.7-11-24.7C1953.11,437.9,1945.71,434.2,1937.52,430.4ZM1650.42,401h-172c-21.81,0-21.1-.1-22-22.3-.4-10.7,2.9-13.1,13.1-13,56.4.5,112.9,0,169.3.5,9,.1,12.5-1.9,11.8-11.5a219.48,219.48,0,0,1,0-34.4c.8-10.1-2.1-13.4-12.8-13.3-67,.5-134.1.2-201.1.4a98.31,98.31,0,0,0-21,1.9c-23.1,4.8-36.3,21.4-36.3,44.9V532.8c0,31.8,17,50.9,48.69,51.2,71.41.7,142.91.2,214.31.4,6.4,0,8.4-1.9,8.19-8.2-.4-12.8-.8-25.6.1-38.3.7-9.9-2.1-12.4-12.19-12.3-56.41.5-112.91.1-169.31.5-9.4.1-13.5-1.4-12.69-12a298.59,298.59,0,0,0,0-42.3c-.7-10.3,2.69-12.3,12.4-12.2,43.69.5,87.3.2,131,.2,5.1,0,10.1.9,13.9-4.9C1625.11,437.2,1637.31,420.1,1650.42,401ZM833.11,366h93.5c23.6,0,23,0,23.8,23.1.3,10.4-3.1,12.3-12.7,12.2-37.9-.5-75.9,0-113.8-.4-8.5-.1-13.3,2.2-17.7,9.8-32,54.7-64.7,109.1-97,163.6-1.7,2.9-4.9,5.2-3.9,10,23.6,0,47.3-.4,71,.2,7.8.2,11.8-2.6,15.6-9,21.4-35.4,43.6-70.4,64.9-105.8,4.3-7.2,8.7-10.6,17.6-10.3,23.4.8,46.8.9,70.1,0,10.6-.4,12.1,3.3,11.9,12.6-.6,33.5.1,67.1-.4,100.6-.1,8.9,1.7,12.4,11.4,12,18.5-.8,37.1-.8,55.6,0,9.7.4,11.5-3,11.5-12-.4-70.6-.2-141.2-.2-211.8,0-34.5-16.6-52.6-51.1-53.3-35.7-.8-71.5-.1-107.2-.3-5.4,0-8.9,1.2-11.8,6.2C854.41,330.5,844.21,347.3,833.11,366ZM706.71,525.8c-39.4,0-76-.6-112.6.4-12.4.3-14.3-3.7-14.1-14.8q1.05-65.55,0-131.1c-.2-11.6,2.5-14.7,14.3-14.6,66.2.6,132.4.3,198.6.2,3.8,0,9,2.1,11.3-1.7,11.4-18.4,22.1-37.1,33.9-56.9-95.09,0-187.4,0-279.6.1a97.84,97.84,0,0,0-17.1,1.4c-24.3,4.3-38.4,21.3-38.5,45.9V533.4c0,31.7,17.4,50.1,49.4,50.7,36.6.7,73.2.2,109.9.3,4,0,7.7.1,10.3-4.1C683.31,562.7,694.31,545.4,706.71,525.8Zm689.6,133.8c-5.6-10.3-10.6-19.5-15.5-28.7-6.1-11.3-16.6-5.5-24.9-5.4-6.9.1-3.4,7.7-3.7,11.9-.5,9.7-.4,19.4-.1,29.1.2,5.7-3.5,13.5,8.41,13.3,11-.2,7.5-7.4,7.69-12.7.4-7.1.1-14.3.1-21.5,7.5,8.6,12.5,17.7,17.8,26.6,6.2,10.7,13.91,10.6,20.41.1,5.5-8.9,9.19-19.1,17.8-28.6,0,10.6.2,18.9-.1,27.2-.2,5.7.5,8.8,7.6,8.9s9.2-2.2,8.9-9c-.5-9.2-.1-18.5-.1-27.8,0-19.9,0-19.6-19.4-18.2-5.4.4-7.7,3-9.8,7.1C1406.61,640.7,1401.81,649.5,1396.31,659.6Zm255.11,19.7v.4c6.19,0,12.3.1,18.5,0,10.4-.3,16.3-4.8,16.4-16.1.1-10.9-4.7-16.6-15.4-17.2-10.1-.6-20.2-.7-30.31-1-3-.1-5.8-1.4-5.8-4.1-.1-2.9,3-4.6,5.7-4.1,9.1,1.5,18.9-3.7,27.8,3.9,3.6,3.1,12.3,4.6,14.9-1.3,2.7-6.1-1.69-11.8-8.69-13.8a34.37,34.37,0,0,0-7.81-1.3c-10.1-.2-20.3-.2-30.4,0-10.9.2-18.4,3.8-18.8,16.9-.4,13.8,8,16.1,18.5,16.7,8.8.5,17.6.4,26.4.7,2.8.1,5.4,1,5.9,4.1a3.52,3.52,0,0,1-3.8,4.3c-10.1-1-20.9,4.5-30.3-3.5-4.5-3.9-10-2.6-14.9-1.3-3.1.8-1.7,4.6-1.3,7,1,6,5.2,9.3,10.9,9.8C1636.42,679.8,1643.92,679.3,1651.42,679.3Zm-421.11.2c7.91,0,15.9-.3,23.8.1,5.31.3,6.81-1.8,6.91-6.8.09-5.3-1.7-6.8-6.91-6.6-9.69.4-19.4.2-29.09.1-3.3,0-7.6,1-7.3-4.7.3-4.8,4-3.7,6.9-3.8,8.4-.1,16.8,0,25.1,0,3.9,0,8,.8,8.1-5.6.2-6-3.4-6.2-7.6-6.1-7.1.1-14.2.5-21.2-.2-3.9-.4-11.6,4-11.1-4.3.4-7.4,7.7-3.5,11.8-3.8,7.9-.6,15.9-.2,23.8-.2,3.9,0,6.7-.2,6.6-5.5-.1-4.9-1.2-7.4-6.6-7.3-9.7.2-19.4.1-29.1.1-23.9,0-23.9,0-23.9,24.3C1200.61,679.5,1200.61,679.5,1230.31,679.5Zm262,0c7.5,0,15-.3,22.5.1,5.7.3,7.6-1.8,7.6-7.6,0-6.4-4-5.7-7.9-5.7-9.3,0-18.5.1-27.8-.1-3.2-.1-8,1.5-8.2-3.8-.3-6.5,5.3-4.4,8.7-4.5,7.9-.3,15.9,0,23.8-.1,3.9,0,8.1.8,8.2-5.6.1-6.1-3.6-6.1-7.7-6.1-8.8,0-17.6.1-26.5,0-3,0-6.7.5-6.7-4.1s3.4-4.4,6.5-4.4c9.7,0,19.4-.1,29.1.1,4.6.1,7.4-.7,7.3-6.4s-2.8-6.5-7.5-6.4c-9.3.2-18.5,0-27.8.1-24.2,0-24.2,0-24.2,23.9C1461.81,679.5,1461.81,679.5,1492.31,679.5Zm-380.9-27.2v17.2c0,5.2-1.3,10.3,7.4,10.3,8,0,10.3-3.1,9-10-1.9-10.1,3.3-12.1,11.8-11a35.42,35.42,0,0,0,9.2,0c10.21-1.5,16.1,1.1,13.8,12.9-1.3,6.6,2.2,8.1,8.3,8,5.9-.1,8.9-1,8.7-7.9-.4-12.3-.2-24.6-.09-37,.09-5.7.4-10.1-7.8-10.2-7.91-.1-10.41,2.8-9.1,10,1.4,8.2-2,11.1-10.1,10a48.63,48.63,0,0,0-13.2,0c-9,1.2-13.2-1.7-11.5-11.2,1-5.8-.8-8.7-7.6-8.8-7.1-.1-9.4,2.3-8.9,9.1C1111.81,640,1111.41,646.1,1111.41,652.3Zm458.8,27.1c6.7,1.3,8.5-2,8-8.1-.4-4.8.4-9.7-.19-14.5-1.6-12.7.4-21.6,16.5-18.3,4.5.9,7.4-.5,7.3-6.3-.1-4.7-.8-7.5-6.3-7.4-17.1.2-34.31.2-51.41,0-6.09-.1-5.69,3.6-5.9,7.8-.19,4.7,1.9,6.8,6.2,5.9,18.2-3.8,18.8,7.1,17.4,20.2-.5,4.3.3,8.8-.1,13.2C1560.92,678.7,1564.21,680.5,1570.21,679.4Zm-262.69.1c6.59,0,13.19-.3,19.8.1,5.5.3,7.7-1.4,7.8-7.3.1-6.4-3-6.9-8.1-7.1-9.5-.4-22.4,4.4-27.5-2.1-4.8-6.1-1.9-18.4-1.8-28,.1-6.3,0-10.6-8.7-10.6-9.5,0-7.9,5.7-7.9,11.3v17.1C1281.11,679.5,1281.11,679.5,1307.52,679.5Z"/><path class="cls-1" d="M678.61,756.1c-10.5-11-25.5-14-38.4-20.5-55.9-28-110.5-57.9-156.5-101.1-20.2-19.1-37.2-40.6-47-67.1-2.4-6.6-2.7-6.5-1.9-16.5,48,44.3,108.9,60.6,168.8,79.2,46.1,14.3,93.3,24.7,140.3,35.1,40.7,9,82,15.1,123,23.1,49.2,9.6,98.8,16.7,148.4,24,44.8,6.6,89.8,12.3,134.8,17.6,44.6,5.2,89.2,10.3,134,13.8,57.91,4.5,115.6,9.8,174.2,4.1,48.2-4.7,96.6-8,144.7-12.9,51.2-5.2,102.3-12.3,153.3-18.9,30.5-3.9,61.1-8,91.5-12.7q55.35-8.55,110.6-18.3c33.3-5.9,66.6-11.9,99.7-18.9,41.6-8.7,83.2-18,124.3-29.2,38.9-10.6,77.6-21.7,114.8-37.5,29.8-12.6,59.5-25.4,81.9-54.4-4.3,33.8-21.5,57.5-41.8,78.8-41.9,44-94.1,73.4-147.6,100.7-19.4,9.9-39.7,18.3-59.5,27.5-1.8.8-3,3-4.5,4.5-32.5,15-67,24.6-100.4,37-84.2,31.3-170.5,56-257.6,77.9-99.6,25.1-200.1,45.3-301.9,59.5-63.7,8.9-126.6,2.4-189.5-7.7C1174.91,906.8,1075,884,976,856.7c-83.6-23-166-49.6-246.6-81.9C712.91,768,694.61,765.2,678.61,756.1Z"/><path class="cls-1" d="M1205.21,525.8c-20.3,0-40.6-.3-60.9.2-7,.1-9.1-2.1-8.9-9,.4-16.3.6-32.7,0-49-.3-7.6,2.9-8.4,9.2-8.4,40.6.2,81.2.3,121.8,0,7.3-.1,10,1.7,9.7,9.5-.6,15.9-.6,31.8,0,47.6.3,8.1-3,9.4-10,9.3C1245.81,525.5,1225.52,525.7,1205.21,525.8Z"/><path class="cls-1" d="M1206.31,401.2c-19.9,0-39.7-.3-59.59.2-8.1.2-11.5-1.3-11.41-10.6.3-24.7-.2-24.7,24.91-24.7,34.4,0,68.8.3,103.3-.2,9.19-.1,13.09,1.2,12.69,11.9-.9,23.4-.19,23.4-23.6,23.4-15.5-.1-30.9-.1-46.3,0Z"/><path class="cls-1" d="M1824.31,366c19.8,0,39.7.2,59.5-.1,6.8-.1,8.8,1.9,8.9,8.9.4,26.2.7,26.2-26,26.2-34.8,0-69.6-.3-104.5.2-8.3.1-10.3-2.4-10.3-10.4,0-24.9-.4-24.9,24.7-24.9C1792.61,366,1808.42,366,1824.31,366Z"/></g></svg>