<svg xmlns="http://www.w3.org/2000/svg" viewBox="0 0 2351.53 416.53"><defs><style>.cls-1{fill:#ff8200;}</style></defs><title>Ixon</title><g id="Слой_3" data-name="Слой 3"><path class="cls-1" d="M1155.76,371.56c-.22-1.79-1.42-2.39-3-2.72-18.57-3.84-30.17-16.32-39.57-31.69-13.84-22.62-28.05-45-41.62-67.81-3.6-6.06-6.66-7.2-13.34-4.5-33.67,13.63-67.6,26.61-101.38,40A49.22,49.22,0,0,1,938,308.31c-33.23-.19-66.46-.09-100.13-2.15,16-6.24,31.91-12.52,47.9-18.7,49.76-19.25,99.47-38.63,149.37-57.51,8-3,8.44-5.77,3.94-12.44-9.33-13.8-18.33-27.87-26.62-42.32-4.1-7.14-8.8-9.61-17.08-9.56-62.61.38-125.22.21-187.84.21h-11l-1.83-3c8.75-8.1,17.53-16.17,26.22-24.32,2.61-2.45,5.72-1.59,8.62-1.59,84.63,0,169.25.23,253.88-.07,31.55-.11,57.43,9.55,73.14,38.58,3.51,6.49,7.36,4.38,12.11,2.53,32.43-12.65,64.93-25.12,97.35-37.81a46.4,46.4,0,0,1,17.63-3.35c32.52.18,65,.08,98,1.75-3.93,1.69-7.82,3.49-11.81,5-58.87,23-117.65,46.16-176.75,68.53-10.52,4-9.6,7.31-4.52,15.31,28,44.15,55.56,88.6,83.15,133,2.1,3.38,5.85,6.26,4.62,11.1Z"/><path class="cls-1" d="M2315.28,139.43c-8.19,7.79-16.53,15.42-24.54,23.4Q2220.93,232.29,2151.33,302c-4.27,4.28-8.47,6.47-14.77,6.41-35.28-.31-70.58-.51-105.87,0-15,.22-25.44-5.71-32.32-18.7-11.17-21.08-22.93-41.89-33.3-63.36-4.68-9.68-7.53-7.84-13.61-1.66-25.29,25.7-51.09,50.88-76.42,76.54-4.87,4.93-9.63,7.26-16.77,7.19-39.46-.37-78.94-.18-118.41-.18h-9.74l-2.65-3.71c2.57-1.42,5.63-2.35,7.63-4.34q78.78-78.21,157.25-156.72c4.62-4.63,9.11-6.82,15.78-6.72,26.94.37,53.91.89,80.83,0,35-1.19,58.51,14.05,72.11,46.05,6.81,16,14.66,31.57,22,47.33,4.4.31,5.89-3.3,8.1-5.47q30-29.56,59.77-59.38c18.91-19,41.64-28.36,68.44-28.24,31.44.14,62.88,0,94.31,0C2314.25,137.82,2314.77,138.62,2315.28,139.43Z"/><path class="cls-1" d="M1457.4,308.48q-90.47,0-180.94-.07c-3.56,0-8.69,1.71-10.21-2.16s3.47-6.16,6-8.69c39.42-39.44,79.29-78.44,118.29-118.28,28.71-29.34,62.58-43,103.82-42.68,113,.82,226.09.28,339.13.28,2.66,0,5.31,0,8,.09,4.46.14,5.41,2.47,3,5.85a60.43,60.43,0,0,1-6.86,7.56c-38.42,38.29-77.36,76.08-115.13,115-28.93,29.81-62.89,44.21-104.62,43.35C1564.4,307.64,1510.89,308.48,1457.4,308.48Zm49.94-41.55c19,0,38-1,56.88.24,24.79,1.62,44-8,60.78-25.13,17.23-17.64,34.91-34.83,52.3-52.31,2.58-2.59,7.56-5.15,6-8.8-1.81-4.37-7.38-2.57-11.39-2.58-43.62-.08-87.25.19-130.87-.17C1522.22,178,1506,184,1492.63,197c-20.42,19.8-40.47,40-60.6,60.09-2.06,2-5.52,4.23-4.34,7.38,1.51,4.05,5.91,2.43,9.09,2.44C1460.3,267,1483.82,266.93,1507.34,266.93Z"/><path class="cls-1" d="M917.68,184.56C876.55,225.85,837,265.51,797.55,305.22c-2.35,2.37-4.95,3-8.13,3q-67.67-.21-135.31-.34c-.23,0-.45-.47-1.6-1.78,6-5.86,12.1-11.77,18.13-17.77q48.75-48.54,97.45-97.14c3.44-3.42,6.34-6.84,12.24-6.81C825.38,184.68,870.44,184.56,917.68,184.56Z"/><path class="cls-1" d="M368,171.71c-6,.22-10.92-2.71-15.9-5.47-34.19-18.9-67.35-39.49-99.88-61.09-3.46-2.29-9.57-3.57-7.85-9.52,1.5-5.17,6.64-7.47,11.55-8.12,12.76-1.7,25.58-3.48,38.42-4,59.88-2.21,119.77-3.87,179.51,3a38.56,38.56,0,0,1,6.71,1.14c4.81,1.44,10.09,3.31,11,8.69.86,5-4.58,6.39-7.85,8.58Q435,137.53,383.88,166.11C378.94,168.87,374,171.89,368,171.71Z"/><path class="cls-1" d="M524.1,62.29c23.42-1.88,43.69,2.42,64,4.69,18.79,2.1,37.4,5.87,56.12,8.69a29.07,29.07,0,0,1,19.84,11.74c10.15,13.26,19.15,27.23,27.93,41.42,4,6.54,3.14,11.43-1.22,17.42-55.55,76.18-120.42,143.21-195.72,200-4.48,3.38-8.64,8.34-16.63,6.43a899.48,899.48,0,0,0,68.9-79.39,999.09,999.09,0,0,0,80.7-123.51c4.06-7.32,3-12.53-.15-19.83-14.41-33.76-39.47-53.2-75.28-59.81C543.86,68.55,535.37,65.45,524.1,62.29Z"/><path class="cls-1" d="M265.21,361c-27.47-15.65-51.56-35.09-74.89-55.49A976.14,976.14,0,0,1,46.16,148.18c-5.92-8.05-5.85-14-.89-22.32,27.86-46.56,27.64-47,80.93-55.69,21.66-3.55,43.58-5.62,65.4-8.11a57.44,57.44,0,0,1,15.1.68c-17.21,5.69-34.43,10.9-51.49,16.63-14.4,4.84-24.78,13.08-32.95,25.89-26.21,41.1-24.6,30.23-2.32,68.86a840.62,840.62,0,0,0,140.84,182C262.36,357.63,263.74,359.37,265.21,361Z"/><path class="cls-1" d="M324.58,209.31c0,5.5-3.39,9-7.25,12.23-17.66,14.9-35.21,29.94-53,44.71-9.23,7.68-13.67,7.31-20.59-2.3-24.12-33.5-47.87-67.26-72-100.77-4.4-6.13-4.5-11.43-.21-17.56,5.85-8.38,11.17-17.13,16.74-25.7,5.29-8.13,11.85-10.07,20.1-4.13,36.25,26.12,72.9,51.71,108,79.43C321,198.81,325,202.78,324.58,209.31Z"/><path class="cls-1" d="M410.89,208.46c-.33-4.13,2.15-8,5.77-10.9,36.16-29.43,74.58-55.82,112.44-82.95,6.35-4.55,12.48-2.72,16.75,3.52,6.84,10,13.26,20.27,19.89,30.4,3.23,4.94,1.7,9.29-1.31,13.64-24,34.53-47.83,69.15-73.14,102.73-5.83,7.74-11.92,8.34-19.18,2.17q-27.28-23.19-54.68-46.23C413.83,217.8,411.13,214.31,410.89,208.46Z"/><path class="cls-1" d="M366,353c-35.4,1.87-60.78-15.59-78.76-46-3.31-5.59-3.15-10.13,2.43-13.6,21.52-13.41,42.91-27.05,64.83-39.79,9.41-5.47,20-4.39,29.34,1.24,20.1,12.11,39.9,24.72,60,36.88,8,4.87,8,9.68,3.24,17.59C428.78,339.75,402.42,354.54,366,353Z"/></g></svg>