<svg id="Слой_1" data-name="Слой 1" xmlns="http://www.w3.org/2000/svg" viewBox="0 0 2395.75 462.81"><defs><style>.cls-1{fill:#ff8200;}</style></defs><title>KAPPA</title><g id="Слой_11" data-name="Слой 11"><path class="cls-1" d="M1616.42,317a127,127,0,0,1-36.6,31.6c-19.2,11.1-40.3,15.9-62.2,17.8a174.8,174.8,0,0,1-54-3.2c-3-.7-2.9.7-3,2.7,0,8.2.2,16.5-.3,24.7-.8,15.1-14,27.7-29.1,27.8-32.4.1-64.9.1-97.3,0-15.7-.1-28.9-13.6-29-29.3-.1-8.1-.1-16.1,0-24.2,0-2.3-.3-3.4-3-2.6-3.5,1-7.3.6-10.9.6h-90.4c-5.9,0-11.5-1-16.6-4-2-1.2-3.6-.9-5.6-.4-37.5,10.9-75.3,11.4-113.2,2.8-8.6-1.9-16.8-5.4-24.7-9.2-2.4-1.1-3.9-1.3-5.9.8-6.3,6.4-14.1,9-23.1,9q-54.6-.15-109.2,0c-11,0-19.4-4.5-25.8-13q-17.1-22.35-34-44.7c-.9-1.2-1.8-2.3-3.6-4.5v21c0,4-.2,7.9,0,11.9.9,14.8-12.8,29.2-27.9,29.2-33,.2-66.1.3-99.1-.1-12.9-.2-25.7-11.3-25.7-26.8.2-76.4.1-152.9.1-229.3,0-16.2,12.2-29.3,28.5-29.4q47.25-.45,94.5,0c18,.2,29.4,12.7,29.4,30.8v4.9c1.8.5,2.4-.7,3.3-1.5,10.3-9.1,20.4-18.2,30.7-27.2A28.74,28.74,0,0,1,892,76c36.4-.1,72.8-.2,109.2,0,18,.1,30.9,13.3,30.6,31-.1,9.3-5,16.1-11.8,21.7-25.5,21-51.1,41.8-76.7,62.7-4.5,3.7-4.6,3.7-1,8.2,17.4,21.2,34.7,42.4,52.1,63.5,1,1.2,1.7,2.9,3.8,3.6,2.9-11.8,9.3-21.6,17.5-30.3,1.2-1.3,1.2-2.1,0-3.4-8.4-9-9.3-19.7-7-31.1,5.8-28.9,23.7-47.4,49.9-59.1,20-8.9,41.3-12.5,62.8-14.7a465.24,465.24,0,0,1,60.2-1.9c26.8.8,53.5,2.9,79,12.2,17.5,6.3,32.3,16.1,42.6,32,.2.4.4.8,1.5.8v-10.7a29.81,29.81,0,0,1,29.5-29.8c31.1-.1,62.1,0,93.2,0,3.8,0,7.8.4,11.1,2.2s6.1,1.5,9.5.4c17.9-5.7,36.4-7.1,55-6.9,22.4.2,44.1,4.3,64.5,14.2,19,9.2,34.8,22.2,46.9,39.6.3.4.5.7,1,1.4,1.3-1.9.8-3.5.9-5.1.4-7.4-.8-14.9.8-22.3,2.8-13.2,14.4-23.4,27.8-23.5,31.7-.3,63.3-.2,95-.1,2.5,0,5.4.2,7.6,1.4,4.9,2.7,9.2,1.6,14.3.4,38.6-9.3,76.8-9.6,114,6.6a117.56,117.56,0,0,1,49.9,40.8c1.4,2,2.5,4.1,4.6,5.6,14.9-31.1,42.2-44.7,73.7-51.8,38.2-8.6,77-8.6,115.8-5.9,18.8,1.3,37.6,3.3,55.6,9.5,22.6,7.9,40.9,20.8,50.4,43.7,5.2,12.6,6,26,6.1,39.4.2,26.8.2,53.6.2,80.4a20.78,20.78,0,0,0,4.6,13.4c7.6,9.7,9.9,20.5,3.9,31.9-5.8,11.1-15.6,16.6-27.9,16.7-31.7.3-63.3.1-95,.1-6.2,0-12.2-.9-17.5-4.3-1.7-1.1-3.1-.7-4.7-.2-39.2,11.3-78.6,12.5-118,1.7-21.5-5.9-40.2-16.5-52.8-35.8-1.5-2.3-2.2-1.5-3.5,0-21.9,25.1-50.4,36.8-82.6,41.1a185.56,185.56,0,0,1-63.5-2.2c-2.8-.6-3.1.4-3.1,2.6.1,7.5.1,14.9,0,22.4-.2,17.4-12.9,30.3-30.3,30.4q-47.7.15-95.5,0c-16.9,0-29.7-12.8-29.7-29.8C1616.32,364.81,1616.42,340.91,1616.42,317Zm-806.8-137.9c0-23.9,0-46.5.1-69.2,0-2.9-.4-4.3-3.9-4.3-28.8.1-57.5.1-86.3,0-3.3,0-4,1-4,4.1q.15,109.35,0,218.8c0,3.5,1,4.2,4.3,4.2,28.5-.1,56.9-.2,85.4,0,3.7,0,4.5-1,4.5-4.5-.2-21.2,0-42.3-.1-63.5a7.67,7.67,0,0,1,3.1-6.6c5.3-4.1,10.5-8.4,15.4-12.9,2.9-2.7,4.5-2.5,6.9.7q31.65,41.85,63.5,83.6a6.91,6.91,0,0,0,6.1,3.1c35.2-.1,70.3-.1,105.5-.1.9,0,2.2.7,2.8-1q-55.95-68.4-112.2-136.9c-2.5-3-2.2-4.3.7-6.7,28.2-22.7,56.2-45.6,84.3-68.5,5.2-4.3,10.4-8.6,16.3-13.5-1.8-.2-2.5-.4-3.2-.4-34.6,0-69.1,0-103.7-.1-2.6,0-4.2,1.2-5.9,2.7l-52.8,47.1C827.72,163.11,819,170.81,809.62,179.11Zm621.2,134.8a87.22,87.22,0,0,0,29.3,16.9c23.8,7.7,47.9,7.7,72.1,3.1,16.8-3.2,32.2-9.3,45.8-20.3,29.5-23.9,35.1-75.7,17.2-107.2-14.1-25-35.6-39.7-63-46.6-18.1-4.5-36.6-4.3-54.9-2.4-18.5,1.9-35.6,7.9-49.2,21.5-.1.1-.6,0-1.3,0,0-5-.2-10,.1-14.9.2-3.3-1.1-4.1-4.2-4-27.9.1-55.7.1-83.6,0-3.5,0-4.3,1.1-4.3,4.4q.15,109.8,0,219.7c0,3.6,1.1,4.2,4.4,4.2,28.8-.1,57.5-.1,86.3,0,3.6,0,4.6-.9,4.6-4.5-.2-21.5-.1-42.9-.1-64.4C1430.12,317.81,1429.72,316.11,1430.82,313.91Zm311.5-.9c8.8,7.7,17.6,13.2,27.6,16.7,23.9,8.4,48.3,8.6,72.9,4.2,16.6-3,32.3-8.4,45.7-19.3,18.1-14.7,25.8-34.4,28.6-57.1,4.7-37.3-18.4-74.7-49.5-89.6-23.5-11.2-48.2-13.2-73.5-11.2-17.2,1.4-33.6,5.5-47.6,16.4-2.4,1.9-4.7,3.9-7.8,6.5,0-5.8-.3-10.7.1-15.5.3-3.7-1.1-4.5-4.6-4.5-27.4.1-54.8.2-82.2,0-3.9,0-5,.8-5,4.9q.15,109.2.1,218.3a10.82,10.82,0,0,1,0,1.8c-.3,2.4.7,3.1,3.1,3.1,29.5-.1,59.1-.1,88.6,0,2.9,0,3.5-1.1,3.5-3.8-.1-13.7-.1-27.4-.1-41.1C1742.32,333.31,1742.32,323.61,1742.32,313Zm470.7,19.8c-10.5-11.7-11.5-24.8-11.5-38.2v-66.7c0-6.9-.1-13.7-.6-20.5-1.2-16.6-9-28.7-23.8-36.3a104.27,104.27,0,0,0-32.5-10.2,417,417,0,0,0-123.2,0c-16.9,2.6-33.3,7.2-47.5,17.5-10.4,7.6-16.9,17.7-18.8,30.6-.4,2.8,0,4.1,3.4,4,6.1-.3,12.2-.1,18.3-.1h62.6c1.6,0,3.7.9,4.3-2,1.5-6.9,6.5-10.4,12.7-12.4,10.8-3.6,21.8-3.6,33-2.3a34.82,34.82,0,0,1,13.8,4.3c4.2,2.4,7,5.9,7,11s-3.1,8.4-7.4,10.6-9.2,3-14,3.7c-24.2,3.5-48.8,4.4-73,8.1-17,2.6-33.8,6.3-49.1,14.6-29.7,16.2-31.6,52.9-3.8,72.1a81.41,81.41,0,0,0,27,11.8c22.4,5.6,45.2,5.4,68,3.3,15.6-1.5,30.6-5.2,44.4-12.8,3.3-1.8,6.4-3.9,9.9-6.1a112,112,0,0,0,1.8,11.1c1,4,3,5.1,7,5.1,28-.2,56-.1,84-.1C2207.12,332.81,2209.42,332.81,2213,332.81Zm-917.5-.1c-6.4-7.4-9.7-14.8-10.6-23.2a141.27,141.27,0,0,1-1-14.6c-.1-27.9,0-55.7-.2-83.6-.1-20.6-9.9-34.8-29-42.8-15.8-6.6-32.4-9.2-49.3-10.6a464.62,464.62,0,0,0-89.8,1c-16.1,1.8-31.9,5-46.6,11.9-15.1,7-26.8,17.3-30.7,34.4-1.7,7.4-1.7,7.4,5.7,7.4h77.7c1.6,0,3.7.9,4.4-1.9,1.8-7.6,7.5-11,14.4-13,10.6-3.1,21.3-3,32.1-1.7a32.47,32.47,0,0,1,14.1,4.8c8,5.3,7.9,15.1-.2,20.1-6.4,3.9-13.8,4.5-21,5.4-22.6,2.8-45.5,3.9-68,7.4-17.9,2.8-35.6,6.6-51.3,16.3-25.6,15.8-27.4,49.4-3.8,68.1a73.79,73.79,0,0,0,27.8,13.3c25.1,6.7,50.6,6.4,76.1,3.2,16.6-2.1,32.4-7,46.2-17,2.1-1.5,2.9-1,2.8,1.5-.1,2.9.8,5.7,1.4,8.5.8,3.8,2.8,4.9,6.6,4.8,29.1-.2,58.1-.1,87.2-.1C1291.62,332.71,1292.92,332.71,1295.52,332.71Z"/><path class="cls-1" d="M353.72,115.31c1.5-3.1,2.6-5.3,3.6-7.4,4.5-9.1,10.2-16.4,21-19.2,9.2-2.4,18-6.4,27.8-6.6,14.3-.3,27.2,2.9,37.4,13.5a31.15,31.15,0,0,1,7.3,12.4,16.15,16.15,0,0,0,6.4,8.6c11.5,7.7,12.6,10.5,9,23.8a2.89,2.89,0,0,0-.2,1.8c3.1,6.7,1.6,14.7,5.4,21.2,4.3,7.4,8.8,14.6,12.7,22.1,1.9,3.6,4.1,3.7,7,2.1,22.2-12.7,45.1,9.1,45.2,27.3,0,2.4.5,5-.1,7.3-1.4,5,.9,8.6,3.6,12.5,8.3,12,16.2,24.3,24.6,36.2,5.8,8.3,13.8,14.2,22.4,19.7,12.4,8,25.5,14.8,38.4,21.8,16,8.6,17.1,26.3,3.2,37.9-9.7,8.1-21.5,10.6-33.5,11.5-18.6,1.4-37.1-1.3-55.5-3.2-18-1.9-25.4-14.2-26.5-30.6a8.63,8.63,0,0,0-3.7-7.2c-5.4-4-10.7-8.1-15.8-12.3-2.4-2-3.5-1.5-5.1,1-8.2,12.8-17.1,25.1-28,35.9-11.5,11.5-25.2,17.2-41.3,17.3-9.3,0-18.6-.1-27.9-.2-14-.2-24.8-6.2-32.5-17.8-3.3-5-3.3-5-7.2-.3-2.7,3.3-4.8,7-8.4,9.5a39.37,39.37,0,0,1-19.5,7,188.67,188.67,0,0,1-31,.3c-16-1.1-28.3-8.2-37.8-20.9-8.6-11.5-15.6-24-22.5-36.5-1.9-3.5-3.3-3.4-5.8-.9a54.68,54.68,0,0,1-5.1,4.5c-5.6,4.2-8.1,9-7.8,16.8.7,20.2-12.7,34.5-32.8,34.2-16.2-.2-32.1,1.6-48.2,1.7-18,.1-33.5-5.4-44.8-20.9-9.8-13.4-8.1-38.6,13.2-46a230.1,230.1,0,0,0,23.5-10,89,89,0,0,0,37.5-32.3c5.7-8.8,11.4-17.6,17.1-26.5a8.94,8.94,0,0,0,1.4-7.2c-2.8-16.1,1.1-30.1,13.8-41.1,5.1-4.4,10.7-7.4,17.8-5.6,1.5.4,2.7-.3,4-.6a62.5,62.5,0,0,1,12.2-1.4c2.3-.1,5.6,2.6,6.7-1.2,1.4-4.5,6.2-8.6,1.6-14.2-3.8-4.5-3.1-13.5.4-18.4.4-.5.7-1,1.1-1.5,3.1-3.5,4.6-6.9,3.6-12.2-2.1-11,2.3-20.5,10.1-28,14.1-13.3,30.3-21.8,50.6-19.4,6.3.7,12.7.3,18.9,2.5C339.22,82.71,349.12,96,353.72,115.31Zm9,158.8c2.2,1.9,2.5,4,3,5.9,3.6,14.9,9.7,29,12,44.4,1.3,8.5,7.3,12.5,15.9,12.7,7.6.1,15.2.3,22.8,0,9.9-.4,18.7-3.3,25.7-10.9a246.94,246.94,0,0,0,26.7-35.2c6.2-9.9,12.3-19.8,18.4-29.6,1.8.5,1.9,1.8,2.3,2.7a84.07,84.07,0,0,0,26.6,29.6,105.55,105.55,0,0,1,19.1,16.8c2.8,3.1,4.2,6,3.4,10.6-1.8,10.1,1.2,13.1,11.7,13.2,5.3,0,10.8-.4,15.9.5,9.8,1.7,19.7,1.7,29.6,1.7a24.69,24.69,0,0,0,8.9-1.7c1.3-.5,2.8-.9,2.6-2.7s-1.3-2.7-3.1-2.7c-6-.2-10.6-3.5-15.2-6.7-7.6-5.3-14.7-11.2-23.5-14.8-4.2-1.7-7.5-5.1-10.5-8.6-16.7-20-30.3-42.3-45.8-63.1a5.47,5.47,0,0,1-.8-5.5c1.4-4.7,2.6-9.4,2.3-14.3-.2-3.2-2.5-4.7-5-5.9-1-.5-2.5-.6-3.1,1-1.1,3.3-3.8,3.2-6.4,3.1a21.86,21.86,0,0,0-10.9,2.8c-8.1,4.2-16.1.7-18.6-7.9a31.65,31.65,0,0,0-2.2-5c-6.4-12.3-13.6-24.1-20.6-36-1.5-2.5-3.9-5.6-2.4-7.9,2.1-3.3,1-5.8,0-8.5-1.6-4.6-3.9-9-1.5-14,.6-1.2-.7-1.9-1.7-2.3-7.2-2.8-8.7-10.1-11.3-16-2-4.6-3.9-8.6-8.6-10.3s-9.6-.4-14.3-1.3c-.3-.1-.8.4-1.1.7-3.2,2.7-7,3.4-11.1,2.8s-6.7,1.5-8.8,4.5a43.63,43.63,0,0,0-3.5,5.9c-3.3,6.7-5.2,13.8-3.2,21.1,1.7,5.9,3.4,12,6.6,17.4.5.8,1,2.5.6,3-3,3.1-4.9,6.3-2.7,10.7-3.7,2.3-2.8,5.5-2,8.8.2.7-.5,1.7-1.1,2.4-3.5,4.2-6.2,9-9.2,13.6-3.7,5.8-6.8,11.9-8.3,18.9-2.1-1.1-2.1-2.6-2.6-3.8-7.4-15.1-13.6-31-26.6-42.6-1.1-1-1.7-2-.7-3.5,1.9-3.2-1-5.7-1.7-8.5-.8-3.4-1-7.1-3.4-10-.1-.1.1-.7.3-.8,3.9-.8,2-3.9,2.1-5.8.1-5.1.4-10.4-.5-15.4-1-5.4.8-11.4-3-16.3-6.7-8.5-15-12.6-26-10.3-1.3.3-2.7-.3-4.1,0-4.5.8-9.5-1.3-13.5,2.1-2.1,1.7-4.1,3.6-6.2,5.2-6.9,5.1-7.3,6.4-4.7,14.5a2.88,2.88,0,0,1,.1,1.3c-2.1,5.3-.6,12-6.7,15.8-3,1.9-3.9,4.7.3,6.9a3.08,3.08,0,0,1,1.7,2.5c.8,4.7,1.1,9.3-.7,13.8-2.3,5.9-5.2,11.8-6.5,18-1.7,8-6.8,11.1-13.6,14.2-10.1,4.7-20.9-2-31,3.3-4,2.1-7,2.4-7.6,7.6-.5,4.5.9,8.7,2.7,12.8a6.15,6.15,0,0,1-.2,6.4c-8,12.9-15.4,26.2-23.8,38.9-16.7,25.3-40.2,41.8-68.5,51.9-2.6.9-6.5.5-6.8,4.1s4,2.9,5.9,4.6c-2.7,4.6-2,6,3.4,7.2,6.7,1.5,13.6,3.1,20.3,1.9a148.16,148.16,0,0,1,39.9-1.2c7.3.7,9.4-2.2,9-9.6a27.43,27.43,0,0,0-.3-5c-2-7.1,1.1-12.4,5.4-17.4a78.4,78.4,0,0,1,6.4-6.5c8.1-7.6,16.7-14.6,24.5-22.6a75.79,75.79,0,0,0,9.1-12c.9-1.4,1.5-3.3,3.6-3.1,1.7.2,2.1,2,2.6,3.4l.9,2.1c9.7,24,23.8,45.5,38.9,66.3a16.49,16.49,0,0,0,13.5,7.3c8.7.2,17.4.3,26,0,3.7-.1,7.7-.2,10.6-3.3a110.55,110.55,0,0,0,13.9-17.4C350.62,301.81,358.92,289.31,362.72,274.11Z"/><path class="cls-1" d="M2309.62,139.31a21.45,21.45,0,0,1-42.9.3,21.66,21.66,0,0,1,21.3-21.7A21.4,21.4,0,0,1,2309.62,139.31Zm-38.7-.2a17.35,17.35,0,1,0,17.7-16.9A17.14,17.14,0,0,0,2270.92,139.11Z"/><path class="cls-1" d="M1469.22,204.61a49.81,49.81,0,0,1,15.8,1.7c11.7,3.5,19.7,10.9,23.1,22.5a60.73,60.73,0,0,1-.6,37.7c-3.7,10.5-11.1,17.3-21.7,20.4a60.44,60.44,0,0,1-32.4.5c-12.8-3.3-21.1-11.7-24.4-24.6a63.37,63.37,0,0,1-.4-30.3c3.7-16.5,15.9-26.7,32.9-27.9C1464,204.51,1466.62,204.61,1469.22,204.61Z"/><path class="cls-1" d="M1780.92,204c4.5.6,9.4.4,14.2,1.6,12.6,3.4,21.3,11,24.8,23.6a61.61,61.61,0,0,1-.7,36.8c-3.6,10.5-11,17.4-21.5,20.6a58.59,58.59,0,0,1-33.7.2c-12.5-3.5-20.4-11.9-23.4-24.3-3.3-13.6-3.2-27.1,3.2-40,5.6-11.3,15.6-16.1,27.4-17.9A95.25,95.25,0,0,1,1780.92,204Z"/><path class="cls-1" d="M2067.62,298.21c-5.5-.2-14.5-1.1-22-7.2-7.2-5.9-6.9-14.6.9-19.7,7.5-4.9,16.2-5.7,24.7-7.2,12.1-2.1,24.3-3.9,36-7.6,2.3-.7,3-.4,2.9,2-.1,4.3.2,8.5-.1,12.8-.8,11-6.9,18.2-16.6,22.6C2086.52,297.21,2079,298.21,2067.62,298.21Z"/><path class="cls-1" d="M1192.62,266.11c1.5,20.7-14.1,29.7-31.7,31.6-8.2.9-16.4.8-24.3-2.1a26.71,26.71,0,0,1-9.7-5.8c-5.4-5.1-5-12.7.7-17.5s12.6-5.8,19.5-7.1c14.5-2.8,29.1-4.5,43.2-8.9,2.1-.6,2.4.1,2.4,1.8C1192.62,260.81,1192.62,263.31,1192.62,266.11Z"/><path class="cls-1" d="M304.22,243.51c-2.8,8.2-.6,16.2-2.3,24-.3,1.6-.4,3.7-2.4,4-1.6.2-2.5-1.5-3.3-2.8-8.1-13.1-16.1-26.2-24.3-39.2-1.4-2.2-1.3-3.4,1.2-4.5,6.9-3.3,13.6-6.8,20.5-10,1.2-.6,3.4-2.3,3.8.7C298.52,225.31,300,234.91,304.22,243.51Z"/><path class="cls-1" d="M416.52,264.71a40.43,40.43,0,0,1,.9-7.7c.7-2.9,2-5,5.1-5.8a18.94,18.94,0,0,0,2.1-.9c8.3-3.9,9.1-6.1,5.6-14.4-1.5-3.5-4.3-8.3-2.6-10.4s6.4,1.4,9.8,2.5c5.5,1.8,10.8,3.9,16.2,5.9,4.4,1.6,4.5,2.3,1.1,5.7l-31.2,30.6c-1.5,1.4-3.1,2.8-5.2,2-2.3-.9-1.6-3.3-1.8-5.2A8.84,8.84,0,0,1,416.52,264.71Z"/><path class="cls-1" d="M442.32,200l-2.2-1.1a201.22,201.22,0,0,1-17.4-11.5c-2.5-1.7-3.4-3.6-1.9-6.5,1.1-2.1,1.6-4.6,2.8-6.7,2.2-4.1,6-4.3,8.5-.5,4.9,7.3,8.2,15.5,11.5,23.6C444.12,198.51,444.62,199.71,442.32,200Z"/><path class="cls-1" d="M281.12,166.21c2.7,0,7.1,3.9,7.4,6.3a1.81,1.81,0,0,1-.9,1.9,43,43,0,0,1-10.3,4.5c-1,.3-1.8-.3-1.5-1.5,1-3.5,2.1-6.9,3.2-10.4C279.42,166,280.52,166.31,281.12,166.21Z"/><path class="cls-1" d="M2297.82,150c-3.2,1.3-5,.4-6.2-2.3-.9-1.9-2-3.7-3-5.6a2.2,2.2,0,0,0-2.5-1.5c-1.5.2-1.4,1.4-1.4,2.4v5c.1,1.7-.6,2.5-2.4,2.5s-1.9-1.1-1.9-2.4v-19.2c0-1.1.1-2.2,1.6-2.1,3.6.1,7.3-.4,10.9.6a5.83,5.83,0,0,1,4.5,5.1c.3,2.5-.3,5.2-2.8,6.3-3.1,1.3-1.8,2.7-.7,4.4C2295.32,145.51,2296.52,147.71,2297.82,150Zm-10.1-19.5c-2.4-.5-3.2.8-3.1,3.2.1,2,.2,3.6,2.9,3.1,2.3-.4,5.4.1,5.4-3.3C2293,130.51,2290.22,130.61,2287.72,130.51Z"/></g></svg>