<svg id="Слой_1" data-name="Слой 1" xmlns="http://www.w3.org/2000/svg" viewBox="0 0 3278.6 756.67"><defs><style>.cls-1{fill:#ff8200;}</style></defs><title>Rebelhorn </title><g id="Слой_14" data-name="Слой 14"><path class="cls-1" d="M872.15,323.31q54.45-71.4,109-142.9c-.4-.8-.7-1.5-1.1-2.3-4.09,1.3-8.29,2.5-12.29,4-56.41,20.9-113,41.2-169,63.1-23.71,9.3-48.1,6.5-72.21,8.3-65.2,5-130.5,8.7-195.6,14-10.8.9-20.1.6-30-3.5-61.1-25.7-122.3-50.9-183.5-76.3-4.3-1.8-8.6-3.3-14.6-2.4,43.8,49.3,87.6,98.5,133.11,149.6-5,1.6-8,3.2-11,3.4-49.41,3.6-49.3,3.5-81-34.7q-88.2-106.35-176.41-212.5c-2.69-3.3-5.39-6.7-7.1-12.3,4.2,1.3,8.4,2.4,12.5,3.9Q348.3,145.41,523.75,208c6.2,2.2,13.4,2.3,20,1.9,45.7-2.7,91.3-6.3,137-8.4,31.3-1.4,62.8-.7,94.2-1.4a57.09,57.09,0,0,0,17.7-3.7q164.1-57.45,328-115.3a18.71,18.71,0,0,1,8.1-1.2c-83.4,83.4-165.6,167.9-254,246A31.89,31.89,0,0,0,872.15,323.31Z"/><path class="cls-1" d="M1587.75,322.41c30.8-21.3,64-31.7,101.4-29.6,48.81,2.7,77.9,37.3,69.81,85.5-11.91,71-65.2,155.1-178.41,156.8-28.69.4-56.59-2.6-82.9-14.8-29.4-13.7-39.3-32.9-32.4-64.6,3-13.5,7.8-26.8,12.7-39.8,22.3-58.6,45.2-117.1,67.4-175.8,3.5-9.3,8-13.2,18-12.1,9.1,1,18.3-.1,27.5.6,19,1.4,27.1,13.9,20.6,31.8C1603.75,281.11,1595.65,301.71,1587.75,322.41Zm53,23.1c-50.8-.2-96.5,49.5-96.2,104.5.1,18.1,9.31,29.6,27.2,32.8,25,4.5,47.8-1.3,67.4-17.3,23.31-19,36.5-44.4,42-73.4C1686.85,362.41,1671.46,345.61,1640.75,345.51Z"/><path class="cls-1" d="M2130.15,532.41c8.2-21.4,15.6-40.8,23.1-60.2,29.6-76.8,59.3-153.6,88.5-230.6,3.1-8.2,6.8-11.9,15.8-11s18.31-.1,27.5.3c20.41.9,29.1,13.6,22.1,32.5-7.5,20.3-15.5,40.4-22.3,61.3,22.3-16,46.2-27.3,73.2-29.3,16.3-1.2,33.4-1.2,49.2,2.4,39.8,9.1,59.7,42.4,47.6,81.3-11,35.3-25.3,69.6-38.3,104.2-5,13.5-9.8,27.1-15.8,40.1-1.7,3.7-7,7.9-10.7,8.1-20.9.8-41.8.4-64.5.4,5.3-14,10.1-27,15-39.9,10.1-26.5,20.5-52.8,30.4-79.4a141.17,141.17,0,0,0,7-23.8c3.7-19.9-7.7-37-27.4-40.7-30.9-5.8-57.5,4-77.6,27.2-10.6,12.2-18.6,27.4-24.9,42.5-14.5,34.5-27.3,69.8-40.4,104.9-2.7,7.3-6.4,10-14.3,9.8C2173,532,2152.55,532.41,2130.15,532.41Z"/><path class="cls-1" d="M2013.15,460.61c-33.9,45-76.6,67.7-127.6,73.5a232.6,232.6,0,0,1-68.69-2.2c-42.6-8-63.6-38.9-55.81-81.5,22.31-121.9,129.5-176.4,233.5-150.7,39.2,9.7,57.2,39.5,49.91,79.4-2.6,14.5-8.1,28.4-12,42.7-2.2,8.1-7,10.5-15.31,10.4-51.9-.7-103.8-1.1-155.8-.9-8.6,0-20.6-5.8-23.4,10.6-3.3,18.8.5,33.7,15.2,38.7,11.2,3.8,24.1,5.6,35.7,4,12.5-1.6,25.4-6.5,36.4-12.9,11.7-6.9,23.2-11.4,36.8-11.1C1978,460.91,1994,460.61,2013.15,460.61ZM1858,391.41c34.69,0,68.19.1,101.59-.2,2.5,0,6-1.8,7.1-3.8,7.31-13.3.2-32.4-13.8-38.7C1919.85,334,1871.46,354.91,1858,391.41Z"/><path class="cls-1" d="M1436.46,465.41c-13.2,12.2-25.2,26.1-39.8,36.3-46.2,32.5-98.2,42.1-153.3,32.3-44.8-7.9-66.5-40.9-57.6-86.4,21.9-112.2,120.7-171.2,227.5-148.4,44.3,9.5,63.6,40.2,54.5,84.5-2.7,13.2-8,25.8-11.4,38.8-2.2,8.4-7.1,10.2-15.2,10.2-54.6-.3-109.1.1-163.7-.4-10.3-.1-14.6,2.9-16.1,13.2-4,27,11.5,42.6,42.8,41.1,17.7-.8,33.9-5.6,49-15.8,7.8-5.3,18.4-8.2,27.9-9,17.6-1.4,35.3-.4,53-.4C1435,462.71,1435.65,464,1436.46,465.41ZM1282,393.21c34.7,0,67.9.1,101-.2,2.6,0,6.7-1.7,7.4-3.6,5.41-14.1,3.6-31.2-11-38.8C1346.85,333.81,1294.15,355.41,1282,393.21Z"/><path class="cls-1" d="M2543.35,539.31c-16.2-3.1-32.8-4.8-48.5-9.5-37.39-11.1-52-34.4-47.6-73a182.42,182.42,0,0,1,179.6-162.1c16-.2,32.4.7,48,4.1,43.9,9.4,63.8,40.9,55.61,85.5C2713.65,475.51,2638.35,537.31,2543.35,539.31ZM2614.76,346a62.77,62.77,0,0,0-6.3.4c-48.81,6.3-93.31,66.2-85.5,115.1,1.6,10.2,7.1,17.4,16.89,21.5,20.2,8.6,39.3,5.3,57.7-5,33.4-18.6,48.9-49.9,57.2-85.2C2661.46,364.81,2645.26,345.81,2614.76,346Z"/><path class="cls-1" d="M2874.55,532.41c13-33.8,25.1-65.5,37.3-97.2,5.5-14.2,11.11-28.4,16.5-42.7,16.61-43.5,46.2-72.7,91.61-86.2,41-12.2,81.8-18.1,123.39-4.2,40.3,13.4,52.4,34.5,39.61,75.1-11,34.9-25.2,68.7-38.11,103-5.5,14.7-10.89,29.5-17.39,43.7-1.61,3.6-6.9,7.3-10.81,7.7-10.8,1-21.8.7-32.69.3-21.5-1-28.81-12.2-21.2-32.4,14.3-37.5,28.8-74.8,43.2-112.3,10.39-27,.39-42.2-28.5-43.9-35.31-2-60,14.1-72.81,47.4-16.69,43.5-33.6,87-50,130.7-3.1,8.2-6.89,11.5-16,11.1C2918.26,531.91,2897.76,532.41,2874.55,532.41Z"/><path class="cls-1" d="M2016,532c6.19-16.4,11.69-31.4,17.5-46.3,31.09-80.9,62.5-161.8,93.3-242.8,3.5-9.2,7.7-13.2,17.8-12.3,10.4,1,21-.2,31.4.5,17.6,1.1,26,13.4,19.7,29.8q-50.25,132-101.4,263.6c-1.2,3.2-5.6,7.2-8.6,7.3C2063.05,532.31,2040.35,532,2016,532Z"/><path class="cls-1" d="M2698.85,532c-.1-2.2-.6-3.7-.2-4.8,16.81-43,31.4-87.1,51.2-128.7,28.61-60,81.5-87.3,145-96.5,16.7-2.4,33.8-2.8,53.8-4.3-8.39,21.9-15.6,41.2-23.5,60.3-.8,2-5.89,2.9-9.1,3.1-9.1.5-18.3.2-27.5.7-33.8,1.9-57.5,18.1-69.9,50.1-14,36.2-28.19,72.3-41.69,108.7-3.2,8.7-7.11,12.2-16.7,11.8C2739.85,531.51,2719.46,532,2698.85,532Z"/><path class="cls-1" d="M1230.15,297.71c-8.3,21.5-15,39.8-22.6,57.8-1.2,2.8-6.4,5.1-10,5.5-9.09.9-18.29.3-27.4.8-34.3,1.9-58.1,18.5-70.4,51-13.7,36.2-28.1,72.2-41.5,108.5-3.1,8.4-7,11.3-15.9,11-20.4-.7-40.9-.2-63.5-.2,1.8-5.3,3-9.6,4.6-13.7,12-31.3,24.4-62.4,35.9-93.9,27.1-74.1,82.2-112,158.3-122.4C1193.85,299.71,1210.35,299.31,1230.15,297.71Z"/><path class="cls-1" d="M545.25,498.41q42.75-44.7,85.7-89.5c13-13.6,26.1-26.7,46.3-29.9,32.2-5.1,64.5,17.4,69.2,49.2,5.1,35.3-16.9,68.2-50.7,69.6C645.15,499.91,594.45,498.41,545.25,498.41Z"/><path class="cls-1" d="M321.15,670.11c14.7-9.6,27-18.5,40.3-25.8,4.2-2.3,10.9-1.3,16.3-.5,140.3,20.9,274.8,5.4,400.6-63.9,32.7-18,61.6-41.2,87.2-68.4,2.3-2.4,4-5.4,5.9-8.1,1.3,1.2,2.6,2.4,3.8,3.6-15.1,16.4-29.2,33.9-45.4,49-75.4,70.5-166.3,109-267.2,125.3-76.7,12.4-153,9.6-228.7-7.8C330.55,672.81,327.25,671.71,321.15,670.11Z"/><path class="cls-1" d="M510.35,395l-115.8,116.4C381.45,461.21,450,392.11,510.35,395Z"/></g></svg>