<svg id="Слой_1" data-name="Слой 1" xmlns="http://www.w3.org/2000/svg" viewBox="0 0 2623.45 600"><defs><style>.cls-1{fill:#ff8200;}</style></defs><title>Rev’it</title><g id="Слой_15" data-name="Слой 15"><path class="cls-1" d="M319.2,126.35c13,1.3,26,2.3,39,3.9,44.8,5.5,88.4,15.8,130.2,33.3,3.9,1.6,5.4,3.3,4.8,7.9-4.5,35.4-13.9,69.4-25.7,103a5.35,5.35,0,0,1-.7,1.2q-33.9-12.45-67.6-24.8c-.3.6-.6,1.3-.9,1.9,5.7,4.4,11.4,8.7,17,13.2,13.8,11.3,26.3,23.9,35.3,39.4a11,11,0,0,1,.6,8.5c-35.1,76.2-84.3,141.6-150.3,193.9-2.3,1.8-4.8,3.5-7.6,5.5-30.7-22.4-56.9-49.5-81.5-77.9,18.9-15.8,37.5-31.5,56.1-47.1-.5-.7-.9-1.5-1.4-2.2l-5.7,2.4c-20.6,9.1-41.7,16-64.5,17-4.9.2-7.9-1.1-10.9-5.4-44.5-64.2-74.8-134.3-88.8-211.3-.8-4.6-1.3-9.2-2-13.8-1.7-12.2-3-9.5,7.9-14,32-13,65.2-21.5,98.9-27.8,4.2,24,8.4,47.7,12.5,71.4.3-.2.7-.3,1-.5,3.4-15.7,6.3-31.5,10.4-47.1,2.2-8.3,6.2-16.1,10.1-23.8,1-2.1,4.2-4,6.6-4.3,7.9-1.3,15.9-1.8,23.8-2.6C283.7,126.35,301.5,126.35,319.2,126.35Zm-25.5,231c23.8-26.4,62.6-94.7,64.9-113.7-30.3-7.5-100.8-7.5-130.7.1C243.9,285,265.3,322.85,293.7,357.35Z"/><path class="cls-1" d="M2522.8,236.65c-7.9,14.6-16.6,28.8-23.5,43.9-12,26.5-29.9,48.8-48,71a8.77,8.77,0,0,1-5.7,2.9c-29.6.2-59.1.1-88.7.1a20,20,0,0,1-3.1-.6c5.7-18,7.3-36.9,16.6-53.7,11-19.9,21.3-40.3,31.7-60.5,1.6-3.1,3.4-4.7,7.2-4.7,37.8.2,75.6.2,113.4.2A7.08,7.08,0,0,1,2522.8,236.65Z"/><path class="cls-1" d="M566.9,426.45c10.1-19.5,19.4-37.7,28.8-55.8q33.6-64.65,67-129.2c2.3-4.5,4.8-6.3,10-6.3,85.4.2,170.7,0,256.1.3a159.06,159.06,0,0,1,35.7,4.2c17.7,4.1,23.2,15.4,15.7,31.9s-16,32.6-25.1,48.3c-8.3,14.2-22.7,19.6-38.2,21.9-7.1,1.1-14.3,1.4-22.1,2.1,7.8,27.2,15.6,54.4,23.6,82.6h-7.3c-39.7,0-79.4-.1-119.2.1-5.3,0-7.1-1.4-8-6.7-4.1-23.9-8.8-47.7-13-71.6-.7-4.1-2.2-5.2-6.1-5.1-8.7.2-17.3.4-26-.1-4.6-.2-6.7,1.7-8.7,5.5-12.3,23.8-24.8,47.5-36.9,71.4-2.4,4.7-5,6.7-10.5,6.7-35.9-.3-71.8-.1-107.8-.1C572.8,426.45,570.6,426.45,566.9,426.45Zm182.8-115.1c27,0,53,.2,78.9-.1,7-.1,12.2-4,15.4-10.5,3.6-7.4,7.6-14.6,11.4-21.9,4.4-8.5,2.7-11.7-6.9-11.8-23.8-.3-47.7-.3-71.6-.2-1.8,0-4.4,1-5.1,2.3C764.4,282.85,757.4,296.65,749.7,311.35Z"/><path class="cls-1" d="M1375.3,426.45c-5.2-64.1-10.3-127.8-15.5-191.9h159.7c3.8,43.1,7.6,86.3,11.5,130.8,2.8-2.1,4.7-3.5,6.6-5q76.5-61.5,153.2-122.9c2-1.6,4.7-3.1,7.1-3.1,23.9-.2,47.7-.1,71.6-.1a17.49,17.49,0,0,1,2.7.7c-5.8,4.8-11.1,9.2-16.4,13.5q-107.7,87.6-215.3,175c-2.1,1.7-5.1,3.2-7.8,3.2-51.3.2-102.7.1-154,.1C1377.8,426.75,1377,426.55,1375.3,426.45Z"/><path class="cls-1" d="M1326.1,235.55c-5.4,10.2-10,19.7-15.3,28.7-1,1.7-4.5,2.6-6.8,2.6q-66.15.3-132.4,0c-5.1,0-7.9,1.4-10.1,6.1-6,12.7-12.7,25.1-19.6,38.6H1283c-5.5,10.5-10.2,20.1-15.5,29.4-.9,1.5-4.3,2.1-6.5,2.1-41.6.1-83.2.3-124.8-.1-7.9-.1-12.6,1.7-16,9.5-6.2,14-13.9,27.3-21.5,41.9h145.9c-5.8,11-10.8,20.9-16.4,30.4-.7,1.3-4.1,1.5-6.3,1.5-29.4.1-58.7.1-88.1.1H959.7c3.6-7,6.6-13.1,9.8-19.1q43.2-83.4,86.5-166.8c1.8-3.4,3.5-5.4,8-5.4q128.4.3,256.7.1C1322.1,235.25,1323.5,235.45,1326.1,235.55Z"/><path class="cls-1" d="M2367.1,235.25c-5.3,10-10,18.7-14.4,27.6-1.7,3.4-3.9,4.2-7.4,4.2-26.6-.1-53.2.1-79.9-.2-4.9-.1-7.4,1.5-9.7,5.9-25.6,49.7-51.5,99.2-77.2,148.8-1.6,3-2.9,5-6.9,5-37.8-.2-75.6-.1-113.4-.1-.8,0-1.6-.2-3.3-.4,27.4-53,54.5-105.5,82.1-158.9h-92.1c3.3-6.4,6.7-11.4,8.6-17,4.1-12.7,12.3-15.3,25.2-15.2,93.4.7,186.7.4,280.1.4C2361.1,235.25,2363.5,235.25,2367.1,235.25Z"/><path class="cls-1" d="M1798.5,425.85c8-15.4,15.6-30.2,23.2-44.9q36.6-70.5,73.3-140.9c1.1-2.1,4.1-4.6,6.2-4.6,38.5-.3,76.9-.2,115.4-.2a19.5,19.5,0,0,1,3.2.5c-5,9.7-9.7,19.1-14.5,28.3q-40.8,78.6-81.6,157.3c-1.5,2.9-2.8,5.2-6.9,5.2-38.5-.2-76.9-.1-115.4-.1A15.86,15.86,0,0,1,1798.5,425.85Z"/><path class="cls-1" d="M2449.5,376.65c-8.3,16.1-16.3,31.6-24.5,47a5.92,5.92,0,0,1-4.3,2.7c-38,.1-76,.1-115.3.1,3.8-7.3,7.2-13.7,10.5-20.1,4.6-8.8,9-17.7,13.9-26.3,1-1.8,3.6-3.8,5.4-3.9,37.6-.2,75.2,0,112.8,0C2448.2,376.15,2448.4,376.35,2449.5,376.65Z"/><path class="cls-1" d="M1761.6,311.85c5.4-10.4,10.2-19.9,15.1-29.4,7.5-14.4,14.9-28.9,22.5-43.2.9-1.7,3.2-3.8,4.9-3.8,17.5-.3,35-.2,53.1-.2a19.66,19.66,0,0,1-1.3,3.9c-11.9,22.6-23.8,45.1-35.5,67.8-1.9,3.7-4.1,5.1-8.3,5C1795.6,311.75,1779.1,311.85,1761.6,311.85Z"/></g></svg>