<svg id="Слой_1" data-name="Слой 1" xmlns="http://www.w3.org/2000/svg" viewBox="0 0 2762.9 777.82"><defs><style>.cls-1{fill:#ff8200;}</style></defs><title>Shark</title><g id="Слой_19" data-name="Слой 19"><path class="cls-1" d="M218.5,727.62c106.6-90.4,224.7-159.5,361.4-194.7-.3-1.3-.6-2.6-1-4-24.9,5.1-50,9.2-74.6,15.6-96.5,25.1-181.4,73.3-260.6,132.4-17.7,13.2-35.4,26.6-51.9,41.4-9.3,8.4-18.6,10.4-30.2,9.1-35.1-3.8-35.1-3.7-43.7-37.9a2371.23,2371.23,0,0,1-58.4-326c-6.9-64.2-12.3-128.3-5.5-192.9,1.5-14.8,7.6-23.3,21.8-25.5,44.1-7,88-16.9,132.4-20,71.5-4.9,143.2-5.4,214.9-7.4,20.1-.6,40.2-.1,60.3-.1.3,1.2.7,2.4,1,3.6-7.9,3.9-15.7,7.8-23.6,11.7-87.5,43.6-169.1,95.6-237.4,166.5-40.4,41.9-73.6,88.8-98.6,141.4-.7,1.5-.8,3.4-1.6,6.7,19.2-24.9,36.8-48.8,55.5-71.7,50.4-61.7,111.5-111.3,178.4-154.1a1018.69,1018.69,0,0,1,183.8-92.8c15.8-6.1,35.9-4.1,53.5-1.5,31.7,4.6,63,12.3,94.5,18.9,10.9,2.3,15.6,8.7,14.7,20.6-6,75.2-9.6,150.7-17.5,225.7-9.8,92.7-25,184.8-48.3,275.2-3.1,12.1-7.7,23.9-9.9,36.1-2.8,15-11.9,20.1-25.9,20.8-55.2,2.7-110.4,7-165.7,8.1-72.1,1.4-144.3.3-216.5.3C219.4,731.32,218.9,729.52,218.5,727.62Zm216.8-402.1c.7.8,1.5,1.6,2.2,2.3-8.6,9.4-17.4,18.6-25.8,28.2-19.8,22.9-41.2,42.8-48.7,75.9-8.1,35.5-8.1,64.2,20.9,88.8,2.9,2.4,5.1,5.9,6.9,9.2,5.5,9.7,12.5,11,22.7,6.7,72.3-30.9,147.9-51.4,223.5-72,2.6-.7,4.9-2.6,11-5.8-51,2.4-97.6,4.1-144.2,7.1-20.5,1.3-40.2,4-45-25a150.35,150.35,0,0,0-3.5,19.7c-.8,6.2-2.1,12.4-2.6,18.6-2,26.6-6.3,31.3-32.1,34.2-10.9,1.2-16.4-6-11.5-16,3.6-7.3,8.5-13.9,12.8-20.9,10.1-16.3,22.1-31.8,29.9-49.2,20.3-45.5,37.4-92.5,58.5-137.5,14.6-31.1,33.8-59.9,52.1-91.7-182.3,60.2-318,171.9-403,343.3,5.3.4,10.1.8,15.2,1.2.5-1.2,1.5-2.5,1.6-3.9.7-13.4,10.8-16.6,21-17.5,9.8-.8,21.4-4,26.5,10.2,1,2.8,6.7,4.4,10.5,5.6,6.1,1.9,12.5,3,19.3,4.6,22.8-65.7,60.5-122.6,107.3-175.8,6.6,17.2,8.2,17.7,19.8,7.6Q408,349.42,435.3,325.52ZM215.2,541.32c-.2-1.4-.4-2.7-.6-4.1-3.5-.7-8.3-3.3-10.4-1.8a293.62,293.62,0,0,0-28.6,22.4c-1.5,1.3-.1,5.9,0,8.9,3-1.4,6.2-2.5,9-4.3,6.3-4.2,12.4-8.7,18.6-13C207.1,546.62,211.2,544,215.2,541.32Zm-84.7,60.2c26.9,4.7,26.6-18.7,39.5-31.2-6.1,0-12.1-1.8-14,.3C147.1,580,139.4,590.42,130.5,601.52Zm87.4-51.6,3,2.4c-4.5,4.8-8.9,9.6-13.4,14.4a18.48,18.48,0,0,0,1.4,1.4c10.8-5.4,21.7-10.7,32.9-16.3Z"/><path class="cls-1" d="M1429.5,537.52V421.92c-1.5-1.2-2.2-2.4-3-2.4q-73.65-.45-147.3-.5c-10.2,0-15.7,4.7-15.5,16.1.5,29.4.1,58.7.1,88.1v13.5H1152.7V254h110.5v99.6c5.9.3,10.5.8,15.1.8q61.35.15,122.8,0c23.4,0,28.4-5.2,28.4-29.1v-71.5h110v236.1l2.7.9a92.87,92.87,0,0,0,5.3-8.5q55.05-109.5,110-219.1c3.7-7.4,7.9-10.6,16.5-10.5q56.25.75,112.7-.1c9-.1,13.5,3,17.4,11,33.4,67.6,67.3,135.1,101.1,202.5,2.3,4.5,4.8,8.9,9.8,12.7V253.52c6.5-.3,11.6-.8,16.8-.8q125.7,0,251.3.1c10.6,0,21.3.2,31.7,2,55,9.9,82.5,69.6,57.1,123.5-14.2,30.1-32.9,44.7-70.3,53,32.4,35.2,63.9,69.4,97.6,105.9-38.1,0-73,.3-108-.4-3.7-.1-8.1-4.6-10.9-8.1-16-19.8-31.6-39.9-47.4-59.9-14.6-18.5-32.5-28.8-57.3-26.2-16.1,1.7-32.5.3-49.5.3v93c-4.7.5-8.8,1.2-12.9,1.2-59.7.1-119.4-.1-179.1.2-8.9.1-13.4-2.4-17.2-11-18.8-42.7-5.6-33.9-52.1-34.7-30.8-.5-61.6.3-92.4-.3-10.4-.2-17.5,3.5-19.4,13-5.8,29.4-23.8,34.9-51.5,33.6-51.4-2.5-103-.7-154.5-.7C1441.6,537.52,1436.4,537.52,1429.5,537.52Zm597.6-162.7c36.9,0,72.7.1,108.6-.1,7.1,0,14.4-.1,21.4-1.6,20.5-4.2,29.2-14.3,28-31.7-1.2-16.7-10.8-26.5-31-27.3-32.1-1.3-64.3-.8-96.4-1-9.9-.1-19.9,0-30.5,0C2027.1,334.32,2027.1,353.72,2027.1,374.82Zm-259.3,47.8c-12.7-29.6-24.6-57.4-37.8-88-13.3,31.3-25,58.9-37.3,88Z"/><path class="cls-1" d="M747.5,450.22c42.5,0,83.4-.1,124.3.2,2.8,0,7.2,3,8.1,5.5,5.2,16,17.9,23.8,32.4,25.1,23.2,2.1,46.8,1,70.2.8,3.7,0,7.5-1.9,10.9-3.5,10.2-4.9,19.4-13.3,16.1-24.3-2.2-7.3-12.1-15.8-19.8-17.3-33-6.4-66.5-10.3-99.7-15.4-24.7-3.8-49.7-6.1-73.8-12.3-28.4-7.3-52.2-22.3-60.6-53.6s2.4-61.3,28.7-80.1,56.8-26.1,88.2-28.4c64.5-4.6,129-6.2,191.2,16.1,36.2,13,58.9,41.2,59.3,72.9-2.5.4-5.2,1.2-7.8,1.2-35.1.1-70.3.2-105.4-.1-4,0-10.6-2-11.7-4.8-6.9-17.3-21.7-23.8-37.5-25.4-20.3-2.2-41.1-1.1-61.6-.7-5,.1-11.4,1.8-14.6,5.2-5.5,5.7-12.3,13.4-12.1,20.2.1,5.2,9.4,13.4,15.7,14.6,26.4,5.1,53.2,7.9,79.9,11.8,31.8,4.6,63.8,8.6,95.4,14.6,13.4,2.5,26.8,7.8,39,14.3,43.3,23.2,48.8,87.7,11.1,120.4-26.4,22.9-58.7,30.8-91.7,34.6-61.9,7.2-123.8,7.4-185.2-5-22.4-4.5-43.5-12.5-60.8-28.2C758.6,493.62,749.7,474.52,747.5,450.22Z"/><path class="cls-1" d="M2414.2,536.82H2303.6c0-26.6-.4-52.5.3-78.3.1-4.4,3.7-9.9,7.4-12.8q117.3-94.8,235.1-188.8c3-2.4,7.8-3.7,11.7-3.7,45.6-.3,91.3-.2,140.9-.2-54.2,43.2-105.7,84.3-158.8,126.6,56.2,52.2,111.7,103.6,169.1,157-7.4.4-12.4.9-17.3.9-38,.1-76-.5-114,.4-12.3.3-20.5-4.1-28.8-12.4-26.9-26.8-54.7-52.7-81.7-79.4-7.9-7.8-15.3-14.8-27.5-10.3-13.3,4.8-21.8,14.1-24.5,27.8-1.3,6.5-1.1,13.4-1.1,20.1C2414.1,500.92,2414.2,518.22,2414.2,536.82Z"/><path class="cls-1" d="M2305.1,253.92h108.3c0,26.3.8,51.7-.3,77-.6,14.9-8.2,27.1-20.4,36.6-29.1,22.6-57.8,45.6-87.7,69.4C2305.1,374.52,2305.1,314,2305.1,253.92Z"/><path class="cls-1" d="M2384.4,624.62c10.1-20.3,19.4-38.1,28-56.3,4.7-9.9,11.9-13.4,22.1-11.1s9.6,10.4,9.6,18.3c-.1,22,0,44,0,67h-17.5v-58.8a20.48,20.48,0,0,0-2.4-.5c-8.6,16.8-16.8,33.9-26.2,50.3-2.7,4.6-8.8,10-13.4,10-4.4.1-10.4-5.4-13.1-10-9.5-16.5-17.8-33.6-28.7-50.3v59.4c-6.3.3-11.2.5-17.7.8,0-25.6-.5-50,.5-74.4.2-4.1,5.7-10.2,9.9-11.5,8-2.3,16-.7,20.4,8.7C2364.6,585,2373.9,603.42,2384.4,624.62Z"/><path class="cls-1" d="M2538.2,642c-20.2,0-39.4.7-58.4-.3-12.4-.6-18.4-8.7-18.1-21.5.3-13.9.4-27.9.1-41.8-.2-13,6.6-20.4,18.7-21.1,19.1-1,38.2-.3,57.3-.3.9,1.3,1.8,2.5,2.7,3.8-3,2.7-5.9,7.5-9.2,7.8-10,1-20.1.3-30.2.4-20.6.2-22.1,2-19,23.8H2535c.3,4.6.6,8.4,1,13h-52.7c-5.5,20-2.8,23.7,16.8,23.9,9.6.1,19.2.4,28.8-.1C2538.2,629.32,2541.2,632.92,2538.2,642Z"/><path class="cls-1" d="M2215.6,641.92c-21.6,0-40.7.5-59.8-.2-11.3-.4-17.2-7.9-17.4-19.2-.2-14.9,0-29.8.1-44.7.1-12.9,7.3-19.9,19.5-20.4,18.6-.7,37.3-.2,55.9-.2,3.5,9,1.1,12.5-7.7,12.1-9.6-.4-19.2-.2-28.9-.1-20.2.2-22.2,2.7-18.7,24.1h53.6c-.2,4.8-.4,8.4-.6,12.7h-52.4c-5,20.3-2.5,23.6,17.3,23.8,12,.1,24,0,37.5,0C2214.7,634.12,2215.1,638,2215.6,641.92Z"/><path class="cls-1" d="M2034.5,557.32h17.7v35.5h49.9v-35.6c6.5-.3,11.4-.5,17.4-.8v86.2h-16.8v-35.5h-50.4v35.6h-17.8Z"/><path class="cls-1" d="M2638.2,629.92h43c8.1,0,14.2-2.1,14.3-11.9.1-10-5.9-11.9-14.1-11.9-6.7.1-13.5.2-20.2-.3-20.3-1.5-25.4-8-24.9-28.5.4-13.3,7.4-19.6,19.4-20.3q25.2-1.35,50.4-.3c3,.1,5.8,5.6,8.7,8.5-.9,1.3-1.9,2.6-2.8,4-14.3,0-28.6-.1-42.9.1-7.7.1-14.5,1.6-14.8,11.6-.2,10.3,6.6,11.5,14.4,11.6,5.3.1,10.6,0,15.9.1,23,.4,28.4,6.3,28.3,29.2-.1,11.5-4.6,19-16.1,19.8-17.7,1.2-35.4,1.7-53.1,1.3-2.8-.1-5.5-6-8.2-9.3C2636.3,632.42,2637.3,631.12,2638.2,629.92Z"/><path class="cls-1" d="M2238.2,557.12c6-.3,10.7-.5,17.6-.8v54.9c0,17.2,1.4,18.6,19,18.8,10.1.1,20.3-.6,30.3.3,3.6.3,6.9,4,10.4,6.1-3.2,2.4-6.4,6.8-9.6,6.8-16.8.1-33.6-.3-50.3-1.6-11.8-.9-17.7-8.1-17.5-20.5C2238.4,600,2238.2,579,2238.2,557.12Z"/><path class="cls-1" d="M2600.2,642.72h-18v-73.5c-8.1,0-14.8.6-21.3-.3-2.8-.4-5.2-3.6-7.8-5.6,2.7-2.3,5.4-6.6,8.2-6.7,22-.6,44.1-.3,66-.3,1.2,11.1,1.2,11.1-27,14.1C2600.2,594,2600.2,617.82,2600.2,642.72Z"/></g></svg>