<svg id="Слой_1" data-name="Слой 1" xmlns="http://www.w3.org/2000/svg" viewBox="0 0 1992.25 775.73"><defs><style>.cls-1{fill:#ff8200;}</style></defs><title>Shoei </title><g id="Слой_20" data-name="Слой 20"><path class="cls-1" d="M1880.4,347.17h30.2c7.5,0,15.1,7.5,15.1,15.1s-3.8,11.3-7.5,11.3c3.8,0,7.5,11.3,7.5,15.1s0,11.3,3.8,15.1h-15.1c-3.8,0-3.8-15.1-3.8-18.9s-3.8-3.8-7.5-3.8h-11.3v22.6h-15.1v-56.6Zm11.3,7.5v18.9H1903c3.8,0,7.5-7.5,7.5-7.5a8.07,8.07,0,0,0-7.5-7.5h-11.3ZM684.9,407.47v184.8a33.74,33.74,0,0,0,33.9,33.9h67.9a33.74,33.74,0,0,0,33.9-33.9V166.07a33.74,33.74,0,0,0-33.9-33.9H718.8a33.74,33.74,0,0,0-33.9,33.9v147.1H583.1V166.07c0-18.9-15.1-37.7-33.9-37.7H485.1a33.74,33.74,0,0,0-33.9,33.9v426.2a33.74,33.74,0,0,0,33.9,33.9h64.1a33.74,33.74,0,0,0,33.9-33.9V403.67H684.9Zm1044.6,218.8a33.74,33.74,0,0,0,33.9-33.9V166.17a33.74,33.74,0,0,0-33.9-33.9h-67.9a33.74,33.74,0,0,0-33.9,33.9v426.2a33.74,33.74,0,0,0,33.9,33.9Zm-214.9-211.2c15.1,0,30.2-11.3,30.2-30.2V351c0-15.1-11.3-30.2-30.2-30.2h-94.3v-98.1h143.3c15.1,0,30.2-11.3,30.2-30.2v-33.9c0-15.1-15.1-30.2-30.2-30.2H1318.5c-18.9,0-33.9,18.9-33.9,37.7v426.2a33.74,33.74,0,0,0,33.9,33.9h252.7c15.1,0,30.2-15.1,30.2-30.2v-33.9c0-15.1-11.3-30.2-30.2-30.2H1420.3V415h94.3ZM172,128.47H364.3c15.1,0,18.9,11.3,18.9,22.6v49c0,15.1-11.3,22.6-26.4,22.6H236.1c-26.4,0-30.2,11.3-15.1,30.2s147.1,165.9,173.5,192.3c56.6,64.1,3.8,177.3-79.2,177.3H111.6c-11.3,0-22.6-7.5-22.6-18.9v-60.3c0-11.3,7.5-18.9,18.9-18.9H232.4c33.9,0,41.5-7.5,18.9-33.9-18.9-26.4-132-150.9-162.2-188.6-41.6-52.8-11.4-173.4,82.9-173.4m814.6,0h135.8c67.9,0,116.9,11.3,116.9,248.9s-52.8,248.9-109.4,248.9H979c-67.9,0-113.1-11.3-113.1-248.9s41.5-248.9,120.7-248.9m7.5,248.9c0,94.3,11.3,150.9,60.3,150.9,56.6,0,60.3-60.3,60.3-150.9,0-94.3-11.3-150.9-60.3-150.9-52.7,0-60.3,67.9-60.3,150.9"/></g></svg>