<svg id="Слой_1" data-name="Слой 1" xmlns="http://www.w3.org/2000/svg" viewBox="0 0 2199.27 545.89"><defs><style>.cls-1{fill:#ff8200;}</style></defs><title>TCX</title><g id="Слой_21" data-name="Слой 21"><path class="cls-1" d="M1932.72,289.47c23.2,21.8,44.8,41.8,66.1,62.2,23,22.1,29.8,49.1,19.4,74.8-10.3,25.3-32.5,38.6-64.7,38.6-89.8,0-179.6-.5-269.5.2-23.6.2-42.5-7.9-59.4-23.4-21.3-19.5-43.4-38.1-64.6-57.7-6.9-6.4-12.3-6.5-20.6-2.7-54.9,24.9-110.1,48.9-165.1,73.6a112.88,112.88,0,0,1-47.5,10c-196.9-.2-393.7.9-590.6-.7-66.5-.5-123.2-38.7-141-97.5-15.5-51,1.9-94.9,28.7-137,1.5-2.3,3.6-4.3,7.2-8.7-22.8,0-42.8.6-62.8-.2-10.2-.4-12.2,7.1-15.6,13-35.8,61.7-72.3,123-106.5,185.6-19.2,35.2-46.2,50.7-86.1,50-67.6-1.3-135.5-3.5-203,.6-57.7,3.5-95.2-51.6-62.6-104.1,28.3-45.5,52.2-93.6,78-140.6.2-.4-.1-1.1-.4-4.2h-51.9c-42.1-.1-70.9-26.3-71.1-64.7-.2-41.1,34.5-79.4,73.1-79.4q293.4-.15,586.9.2c19.6,0,35.6,8.3,47.2,23.7,5.6,7.5,9.7,10,19.2,5.9,52.4-22.7,107.4-30.8,164.5-30.7q361.8.9,723.5-.2c30.3-.1,54.6,7.7,75.4,29.9,16,17,34.6,31.4,51,48,8.6,8.7,15.8,8.4,25.8,3.6,50-23.9,100.4-47,150.4-70.8,12.3-5.8,24.6-10.3,38.3-10.1,33.2.3,66.4-.2,99.6.7,27.8.7,52.2,21.6,57.7,47.5,6,28.4-7.5,58.9-33.2,71.3C2064.22,227.27,1999.32,257.77,1932.72,289.47ZM1417,249.87c-14.7-13.6-28.5-25.8-41.5-38.7-4.6-4.6-7.8-4-12.5-1.1-14.7,8.9-31,10.2-47.7,10.2q-128.1,0-256.3-.1c-16.4-.1-32.8,1.2-43.7,14.3-21.3,25.6-34.1,56.3-52.6,86.2,75.1,0,146.4.1,217.7-.1,18-.1,35.5.3,50.7,11.7,3.8,2.9,7,2.6,11.5.4C1300.12,305.07,1358,277.77,1417,249.87Zm241.1,26.9c-60.2,0-120.5.1-180.7-.1-8.7,0-16.7,1.3-24.7,5.2-63.6,30.5-127.4,60.7-191.1,91.1-6,2.9-12,6.1-17,10.4-6.9,5.8-11.6,13.8-8.1,22.8,3.5,9.2,11.2,14.4,21.4,14.5,22.1.2,44.3-.3,66.4.2,12.6.3,23.8-2.4,35.3-7.6,61-27.4,122.5-53.5,183.1-81.8,13.9-6.5,21.5-4,31.4,5.2,26.6,24.6,54.1,48.2,80.8,72.7,8.6,7.8,17.4,11.7,29.4,11.7,88.5-.4,177-.2,265.5-.1,10.6,0,22,.8,27-10.9,5.2-12.2-2.7-20.7-11.1-28.7q-50.4-47.4-100.3-95.1c-7.7-7.5-16.1-9.7-26.5-9.6C1778.62,277,1718.32,276.77,1658.12,276.77Zm35.2-15.2h180.8c6.7,0,13.2.1,19.7-3q105.45-50.25,211.2-99.9c10.4-4.9,14.9-12.6,13-23.5-2-11.1-10.4-13.9-20.6-13.9-30.7.1-61.5.1-92.2-.2-7-.1-13,2.5-19,5.3-60.1,28-120.3,55.7-180.1,84.3-9.2,4.4-14.8,4.3-22.3-2.8-26.8-25.3-54.5-49.7-81.3-75-8.1-7.6-16.3-12-27.6-11.9q-137.4.3-274.9.2c-10.9,0-20.9,1.1-25,13.7-3.7,11.5,3.3,18.4,10.5,25.1,32,29.7,64.2,59.1,95.9,89.1,10,9.5,21,13,34.7,12.9C1575.22,261.27,1634.32,261.57,1693.32,261.57Zm-1445.7-84.7c.6,2,1.1,2.8.9,3.2-9,15.9-18.1,31.8-26.9,47.8-11.3,20.6-4.1,33.7,18.9,33.8,75.6.2,151.2-.1,226.9.3,12,.1,19.8-4.5,25.6-14.2,11.5-19.4,23.5-38.6,34.3-58.4,5.4-9.9,12-12.9,23.2-12.7,47.3.8,94.7.5,142,.3,18.1-.1,34.7-17.6,33.7-36.1-1.1-19.8-16-19.4-30.7-19.4q-276.6.15-553.3,0c-6.8,0-13.6-.4-20.3.1-13.7.9-29.3,20.5-27.7,35.6,1.7,16.5,13.3,20,27.7,19.9C163.42,176.77,205.22,176.87,247.62,176.87Zm709,244h0c75-.1,150,0,225-.1,17.1,0,32.6-16.3,33.2-34.2.5-14.8-9.1-21.3-31.4-21.3H921.52c-23,0-27.5-6.7-18.2-27.9,3.2-7.2,7.5-14,11.4-20.8,12.3-21.6,6.1-34.7-18.4-34.9-76.8-.6-153.7-.4-230.5,0-14.7.1-24.8,6.8-28.8,22.9-9.6,38.5,3.4,74.8,36.8,95.9,20.9,13.2,43.9,20.5,68.9,20.5Q849.67,420.82,956.62,420.87Zm230.9-244.3v-1c44.9,0,89.7.1,134.6-.1,17.4-.1,37.5-20.4,36.3-38-1.6-22-19.4-16.4-32.4-16.4q-198.15-.45-396.4-.2c-26.9,0-53.5,1.6-79.9,8-63.8,15.5-120,44.3-165.1,92.8-7.7,8.2-14.5,17.3-9.9,29.3,4.8,12.5,16.2,10.8,26.7,10.8,73.7,0,147.5-.5,221.2.4,19.4.2,29.5-6.7,37.4-24.6,15.8-35.9,42.6-59.9,84-60.7C1091.72,175.77,1139.62,176.57,1187.52,176.57Zm-864.9,107.5h0c-37.5-.1-75.1.2-112.6-.3-12.6-.2-20.5,4.6-26.5,15.6-16.8,30.4-34.5,60.4-51.5,90.7-11.7,21-3.9,34.6,19.9,34.7,71.4.2,142.7-.3,214.1.3,18.3.2,30.2-7.4,38.7-22.6,16.1-28.7,32.5-57.3,48.5-86.1,11.4-20.5,4.1-32.2-19.9-32.3C396.52,284,359.62,284.07,322.62,284.07Z"/></g></svg>