<svg xmlns="http://www.w3.org/2000/svg" width="26.804" height="33.002" viewBox="0 0 26.804 33.002"><g transform="translate(0.003 0.001)"><path d="M223.171,154.7a.773.773,0,0,0-.773.773v14.608a.773.773,0,1,0,1.546,0V155.476A.773.773,0,0,0,223.171,154.7Zm0,0" transform="translate(-205.212 -142.748)" fill="#d2caca"/><path d="M105.171,154.7a.773.773,0,0,0-.773.773v14.608a.773.773,0,1,0,1.546,0V155.476A.773.773,0,0,0,105.171,154.7Zm0,0" transform="translate(-96.332 -142.748)" fill="#d2caca"/><path d="M2.192,9.824V28.866a4.264,4.264,0,0,0,1.134,2.941A3.806,3.806,0,0,0,6.087,33H20.71a3.805,3.805,0,0,0,2.762-1.194,4.264,4.264,0,0,0,1.134-2.941V9.824a2.952,2.952,0,0,0-.757-5.806H19.891V3.052A3.036,3.036,0,0,0,16.83,0H9.967A3.036,3.036,0,0,0,6.906,3.052v.966H2.949a2.952,2.952,0,0,0-.757,5.806ZM20.71,31.455H6.087a2.448,2.448,0,0,1-2.349-2.589V9.892H23.06V28.866a2.448,2.448,0,0,1-2.349,2.589ZM8.452,3.052A1.489,1.489,0,0,1,9.967,1.544H16.83a1.489,1.489,0,0,1,1.515,1.507v.966H8.452Zm-5.5,2.512h20.9a1.391,1.391,0,0,1,0,2.782H2.949a1.391,1.391,0,1,1,0-2.782Zm0,0" transform="translate(0 0)" fill="#d2caca"/><path d="M164.171,154.7a.773.773,0,0,0-.773.773v14.608a.773.773,0,1,0,1.546,0V155.476A.773.773,0,0,0,164.171,154.7Zm0,0" transform="translate(-150.772 -142.748)" fill="#d2caca"/></g></svg>