<svg xmlns="http://www.w3.org/2000/svg" width="12.75" height="12.751" viewBox="0 0 12.75 12.751"><g transform="translate(0 0)"><path d="M6.375,12.751a6.375,6.375,0,1,1,6.375-6.375A6.382,6.382,0,0,1,6.375,12.751ZM6.375.8a5.578,5.578,0,1,0,5.578,5.578A5.584,5.584,0,0,0,6.375.8Zm0,0" transform="translate(0 0)" fill="#919090"/><path d="M161.215,165.516a.4.4,0,0,1-.282-.68l3.945-3.945a.4.4,0,0,1,.564.564L161.5,165.4a.4.4,0,0,1-.282.117Zm0,0" transform="translate(-156.812 -156.771)" fill="#919090"/><path d="M165.138,165.536a.4.4,0,0,1-.282-.117l-3.945-3.944a.4.4,0,1,1,.564-.564l3.945,3.945a.4.4,0,0,1-.282.68Zm0,0" transform="translate(-156.791 -156.79)" fill="#919090"/></g></svg>
