<svg xmlns="http://www.w3.org/2000/svg" width="5.76" height="7.718" viewBox="0 0 5.76 7.718"><path d="M9.83,14.134H4.3a.117.117,0,0,1-.117-.123l.263-5.526a.117.117,0,0,1,.117-.111h5a.117.117,0,0,1,.117.111l.263,5.526a.117.117,0,0,1-.117.123Zm-5.4-.234h5.28L9.456,8.609H4.679Z" transform="translate(-4.188 -6.416)"/><path d="M13.24,2.66a.117.117,0,0,1-.117-.117V1.381a1.147,1.147,0,0,0-2.294,0V2.544a.117.117,0,0,1-.234,0V1.381a1.381,1.381,0,0,1,2.762,0V2.544A.117.117,0,0,1,13.24,2.66Z" transform="translate(-9.096)"/></svg>