<svg xmlns="http://www.w3.org/2000/svg" width="16.877" height="18.041" viewBox="0 0 16.877 18.041"><g transform="translate(0 0)"><g transform="translate(0 0)"><g transform="translate(0)"><path d="M33.058,2.334A.359.359,0,0,0,32.6,2a8.209,8.209,0,0,1-2.215.3A8.162,8.162,0,0,1,24.794.1.359.359,0,0,0,24.3.1,8.162,8.162,0,0,1,18.71,2.3a8.22,8.22,0,0,1-2.06-.261.359.359,0,0,0-.449.336c-.006.194-.009.389-.009.58a17.819,17.819,0,0,0,2.264,8.7,17.939,17.939,0,0,0,5.981,6.33.359.359,0,0,0,.387,0,17.939,17.939,0,0,0,5.981-6.33,17.819,17.819,0,0,0,2.264-8.7C33.069,2.755,33.065,2.545,33.058,2.334ZM24.63,17.253a17.027,17.027,0,0,1-7.72-14.295q0-.059,0-.118a8.963,8.963,0,0,0,1.8.182A8.876,8.876,0,0,0,24.548.843a8.876,8.876,0,0,0,5.838,2.179A8.946,8.946,0,0,0,32.349,2.8q0,.077,0,.153A17.027,17.027,0,0,1,24.63,17.253Z" transform="translate(-16.192 0)" fill="#5d5b5b"/><path d="M81.329,93.078a.359.359,0,0,0-.454-.228,8.167,8.167,0,0,1-2.834.411.359.359,0,0,0-.022.718q.14,0,.28,0a8.866,8.866,0,0,0,2.8-.452A.359.359,0,0,0,81.329,93.078Z" transform="translate(-75.461 -89.496)" fill="#5d5b5b"/><path d="M198.893,62.749a.358.358,0,0,0,.171-.044,8.955,8.955,0,0,0,.878-.546.359.359,0,1,0-.414-.587,8.233,8.233,0,0,1-.808.5.359.359,0,0,0,.172.675Z" transform="translate(-191.981 -59.296)" fill="#5d5b5b"/><path d="M149.829,160.107l-4.8,4.8-2.423-2.423a.359.359,0,1,0-.508.508l2.677,2.677a.359.359,0,0,0,.508,0l5.049-5.049a.359.359,0,1,0-.508-.508Z" transform="translate(-137.476 -154.251)" fill="#5d5b5b"/></g></g></g></svg>