<svg xmlns="http://www.w3.org/2000/svg" width="13.74" height="18.242" viewBox="0 0 13.74 18.242"><g transform="translate(0.25 0.25)"><path d="M17.158,21.614H4.457a.269.269,0,0,1-.269-.282l.6-12.7a.269.269,0,0,1,.269-.256H16.554a.269.269,0,0,1,.269.256l.6,12.7a.269.269,0,0,1-.269.282Zm-12.42-.538H16.876L16.3,8.913H5.317Z" transform="translate(-4.188 -3.872)" fill="#ff8200" stroke="#ff8200" stroke-width="0.5"/><path d="M16.676,6.116a.269.269,0,0,1-.269-.269V3.175a2.637,2.637,0,1,0-5.274,0V5.847a.269.269,0,0,1-.538,0V3.175a3.175,3.175,0,0,1,6.35,0V5.847A.269.269,0,0,1,16.676,6.116Z" transform="translate(-7.15)" fill="#ff8200" stroke="#ff8200" stroke-width="0.5"/></g></svg>