<svg xmlns="http://www.w3.org/2000/svg" width="64" height="29.848" viewBox="0 0 64 29.848"><g transform="translate(-794.5 1542.914)"><path d="M1783.747-1542.877a.912.912,0,0,0-.641.515c-.124.292-.115-.512-.115,9.745,0,8.41,0,9.321.031,9.461a.93.93,0,0,0,.708.8c.145.041.239.041,7.074.041,7.455,0,7.866-.006,9.213-.113a9.241,9.241,0,0,0,2.6-.49,5.134,5.134,0,0,0,3.214-3.082,19.386,19.386,0,0,0,.861-7.432,19.643,19.643,0,0,0-.8-5.79,8.055,8.055,0,0,0-.514-1.126,4.654,4.654,0,0,0-.869-1.071,5.068,5.068,0,0,0-1.848-.934,13.966,13.966,0,0,0-3.482-.5c-1.018-.053-2.041-.061-8.522-.059C1784.3-1542.913,1783.873-1542.909,1783.747-1542.877Z" transform="translate(-967.901)" fill="#ff8200"/><path d="M1783.791-1542.877a.956.956,0,0,0-.678.515c-.132.292-.122-.512-.122,9.745,0,8.41,0,9.321.032,9.461a.951.951,0,0,0,.749.8c.154.041.253.041,7.489.041,7.892,0,8.327-.006,9.753-.113a10.289,10.289,0,0,0,2.754-.49,5.311,5.311,0,0,0,3.4-3.082,18.386,18.386,0,0,0,.911-7.432,18.636,18.636,0,0,0-.843-5.79,7.828,7.828,0,0,0-.545-1.126,4.711,4.711,0,0,0-.919-1.071,5.487,5.487,0,0,0-1.956-.934,15.588,15.588,0,0,0-3.686-.5c-1.077-.053-2.161-.061-9.022-.059C1784.376-1542.913,1783.925-1542.909,1783.791-1542.877Zm14.662,2.392c1.067.026,1.513.044,1.495.061s-.275.121-.589.253-.622.267-.678.3a.7.7,0,0,0-.286.365c-.016.057-.4,2.345-.853,5.085s-.828,5-.836,5.014-.856-.547-4.22-2.865c-2.315-1.6-4.239-2.914-4.277-2.932a.954.954,0,0,0-.437-.067,11.29,11.29,0,0,0-1.175.46c-.585.247-1.094.459-1.128.476l-.067.026v-6.2h6.142C1794.919-1540.506,1798.029-1540.5,1798.453-1540.485Zm4.66.468a2.946,2.946,0,0,1,1.95,1.912,15.3,15.3,0,0,1,.587,4.253c.01.255.016.468.014.47s-.636-1.5-1.409-3.341-1.407-3.351-1.411-3.362C1802.829-1540.113,1802.867-1540.1,1803.112-1540.018Zm.419,5.439c1.43,3.4,2.039,4.878,2.039,4.929a11.517,11.517,0,0,1-.263,1.648,3.854,3.854,0,0,1-.929,1.877,3.2,3.2,0,0,1-1.045.745,6.65,6.65,0,0,1-2.521.535c-1.252.1-2.238.113-7.029.113-3.378,0-4.249-.006-4.257-.026-.026-.063-3.384-8.054-3.416-8.127l-.036-.085.824-.344c.452-.19.836-.352.854-.358s1.48.986,4.536,3.092c2.477,1.707,4.552,3.133,4.613,3.169.342.207.636.2.836-.006a.99.99,0,0,0,.207-.395c.014-.061.431-2.539.925-5.51l.9-5.4.84-.354c.462-.194.851-.354.863-.354S1802.412-1537.247,1803.531-1534.578Zm-16.885,6.831c.677,1.61,1.237,2.947,1.248,2.971l.018.047H1785.4v-2.981c0-1.638,0-2.975.008-2.971S1785.97-1529.358,1786.646-1527.748Z" transform="translate(-968.585)"/><path d="M2758.362-390.439a4.681,4.681,0,0,0-2.43.383,1.546,1.546,0,0,0-.662,1.094,7.772,7.772,0,0,0-.115,1.608,5.41,5.41,0,0,0,.286,2.515,1.186,1.186,0,0,0,.427.516c.492.32,1.059.385,3.445.385a10.7,10.7,0,0,0,2.351-.132,2.154,2.154,0,0,0,.656-.255.908.908,0,0,0,.326-.31,5.1,5.1,0,0,0,.415-2.817c-.027-1.594-.211-2.294-.677-2.6a3.821,3.821,0,0,0-1.717-.369C2760.134-390.447,2759.1-390.457,2758.362-390.439Zm2.244.77c.909.051,1.292.168,1.458.454a2.46,2.46,0,0,1,.212.934,18.1,18.1,0,0,1,.022,1.831c-.081,1.49-.251,1.667-1.7,1.746-.5.028-2.774.012-3.295-.024-.745-.049-1.047-.186-1.219-.553a4.351,4.351,0,0,1-.174-1.855,6.839,6.839,0,0,1,.111-1.738.8.8,0,0,1,.553-.652,6.741,6.741,0,0,1,1.391-.148C2758.457-389.692,2760.271-389.688,2760.606-389.67Z" transform="translate(-1920.947 -1129.127)"/><path d="M3566.892-390.8c-1.711.038-2.2.146-2.625.575-.328.33-.458.737-.537,1.691a19.257,19.257,0,0,0,.042,2.552,1.711,1.711,0,0,0,.759,1.359c.514.267,1.071.322,3.344.322a7.449,7.449,0,0,0,2.721-.245,1.269,1.269,0,0,0,.82-.893,5.934,5.934,0,0,0,.207-1.808c.03-1.693-.142-2.677-.533-3.048a2.712,2.712,0,0,0-1.547-.466c-.251-.022-1.533-.061-1.823-.057Zm2.683.8a1.927,1.927,0,0,1,.887.247c.281.2.381.67.411,1.938a8.667,8.667,0,0,1-.134,2c-.138.494-.415.658-1.243.735-.373.034-3.058.032-3.586,0-.905-.061-1.2-.229-1.347-.776a5.869,5.869,0,0,1-.1-1.405c-.022-1.709.077-2.264.446-2.509a2.211,2.211,0,0,1,1.108-.233c.524-.034.6-.034,1.985-.028C3569.02-390.033,3569.371-390.025,3569.575-390Z" transform="translate(-2713.128 -1128.768)"/><path d="M794.733-389.859a.327.327,0,0,0-.2.168,27.481,27.481,0,0,0-.034,3.027,20.076,20.076,0,0,0,.041,3.046.4.4,0,0,0,.1.122,12.32,12.32,0,0,0,2.481.049,27.805,27.805,0,0,0,3.406-.069,1.887,1.887,0,0,0,1.367-.765,4.162,4.162,0,0,0,.456-2.309c0-1.731-.279-2.618-.932-2.957a3.9,3.9,0,0,0-1.671-.316C799.178-389.889,794.826-389.885,794.733-389.859Zm5.286.766c.7.053.956.138,1.193.395a1.189,1.189,0,0,1,.243.5,8.639,8.639,0,0,1,.02,3,1.175,1.175,0,0,1-1.128.942,29.378,29.378,0,0,1-2.965.061h-2.122v-4.945l2.234.01C798.844-389.122,799.84-389.108,800.018-389.093Z" transform="translate(0 -1129.683)"/><path d="M1250-386.942v3.058h.749V-390H1250Z" transform="translate(-446.276 -1129.566)"/><path d="M1361-386.942v3.058h.749V-390H1361Z" transform="translate(-555.028 -1129.566)"/><path d="M1697-386.942v3.058h.77V-390H1697Z" transform="translate(-884.224 -1129.566)"/><path d="M1771.214-389.961a.445.445,0,0,0-.134.1c-.049.059-3.269,5.721-3.283,5.771a3.616,3.616,0,0,0,.634.379c.006,0,.717-1.251,1.58-2.772l1.567-2.764.391,0,.391.006,1.553,2.744c.855,1.511,1.559,2.756,1.569,2.768s.117-.036.338-.16c.306-.172.322-.184.3-.225-.012-.024-.745-1.324-1.63-2.89-1.009-1.784-1.63-2.865-1.669-2.9-.105-.091-.17-.1-.871-.1C1771.358-390,1771.287-390,1771.214-389.961Z" transform="translate(-953.588 -1129.566)"/><path d="M2212.217-389.9a.28.28,0,0,0-.195.19c-.016.057-.022.857-.022,2.987v2.908h.749v-5.366h.929l.049.065c.026.036.713,1.106,1.525,2.375s1.51,2.341,1.551,2.384a.277.277,0,0,0,.429-.012c.047-.049.735-1.12,1.572-2.448l1.488-2.363h.942v5.366h.749l0-2.955-.006-2.957-.042-.057a.474.474,0,0,0-.111-.1c-.065-.038-.111-.04-.919-.047-.931-.006-.978,0-1.079.105-.032.034-.677,1.045-1.432,2.246s-1.375,2.179-1.377,2.177-.632-.986-1.4-2.183-1.407-2.2-1.426-2.215a.524.524,0,0,0-.134-.085c-.1-.049-.1-.049-.932-.047A5.168,5.168,0,0,0,2212.217-389.9Z" transform="translate(-1388.795 -1129.634)"/><path d="M3192-389.625v.375h6.521V-390H3192Z" transform="translate(-2348.949 -1129.566)"/><path d="M3332-309.732v2.268h.77V-312H3332Z" transform="translate(-2486.114 -1205.987)"/><path d="M1958-269.625v.375h.79V-270H1958Z" transform="translate(-1139.938 -1247.136)"/><path d="M1436-263.625v.375h4.6V-264H1436Z" transform="translate(-628.509 -1253.015)"/></g></svg>