<svg xmlns="http://www.w3.org/2000/svg" width="19.208" height="17.572" viewBox="0 0 19.208 17.572"><g transform="translate(0 -15.988)"><g transform="translate(5.948 29.816)"><path d="M161.872,399.988a1.872,1.872,0,1,0,1.872,1.872A1.874,1.874,0,0,0,161.872,399.988Z" transform="translate(-160 -399.988)" fill="#fff"/></g><g transform="translate(12.97 29.816)"><path d="M353.872,399.988a1.872,1.872,0,1,0,1.872,1.872A1.874,1.874,0,0,0,353.872,399.988Z" transform="translate(-352 -399.988)" fill="#fff"/></g><g transform="translate(0 15.988)"><g transform="translate(0 0)"><path d="M19.069,18.481a.609.609,0,0,0-.46-.206H4.5l-.522-1.863a.6.6,0,0,0-.58-.424H.6a.573.573,0,1,0,0,1.144H2.937L6.023,28.144a.6.6,0,0,0,.58.424h9.6a.573.573,0,1,0,0-1.144H7.064l-.352-1.256,10.722-.46A.591.591,0,0,0,18,25.24l1.2-6.29A.551.551,0,0,0,19.069,18.481ZM16.9,24.587l-10.51.451L4.82,19.419H17.89Z" transform="translate(0 -15.988)" fill="#fff"/></g></g></g></svg>