<svg xmlns="http://www.w3.org/2000/svg" xmlns:xlink="http://www.w3.org/1999/xlink" width="96" height="96" viewBox="0 0 96 96">
  <defs>
    <linearGradient id="linear-gradient" x1="0.5" x2="0.5" y2="1" gradientUnits="objectBoundingBox">
      <stop offset="0" stop-color="#ff8200"/>
      <stop offset="1" stop-color="#e62c05"/>
    </linearGradient>
    <filter id="icon-phone-circle" x="0" y="0" width="96" height="96" filterUnits="userSpaceOnUse">
      <feOffset dy="3" input="SourceAlpha"/>
      <feGaussianBlur stdDeviation="3" result="blur"/>
      <feFlood flood-opacity="0.161"/>
      <feComposite operator="in" in2="blur"/>
      <feComposite in="SourceGraphic"/>
    </filter>
  </defs>
  <g transform="matrix(1, 0, 0, 1, 0, 0)" filter="url(#icon-phone-circle)">
    <path id="icon-phone-circle-2" data-name="icon-phone-circle" d="M19454-5594a38.749,38.749,0,0,1-15.18-3.065,38.856,38.856,0,0,1-12.4-8.359,38.807,38.807,0,0,1-8.357-12.4A38.7,38.7,0,0,1,19415-5633a38.7,38.7,0,0,1,3.066-15.181,38.8,38.8,0,0,1,8.357-12.4,38.871,38.871,0,0,1,12.4-8.358A38.752,38.752,0,0,1,19454-5672a38.768,38.768,0,0,1,15.182,3.064,38.875,38.875,0,0,1,12.4,8.358,38.836,38.836,0,0,1,8.355,12.4A38.7,38.7,0,0,1,19493-5633a38.7,38.7,0,0,1-3.066,15.179,38.823,38.823,0,0,1-8.355,12.4,38.882,38.882,0,0,1-12.4,8.359A38.752,38.752,0,0,1,19454-5594Zm-14.764-55.873a2.717,2.717,0,0,0-2.715,2.715,31.711,31.711,0,0,0,31.676,31.676,2.717,2.717,0,0,0,2.715-2.715v-6.316a2.717,2.717,0,0,0-2.715-2.715,19.669,19.669,0,0,1-6.17-.983,2.663,2.663,0,0,0-.873-.145,2.593,2.593,0,0,0-1.812.712l-3.9,2.95a23.481,23.481,0,0,1-5.65-4.081,23.069,23.069,0,0,1-4.057-5.625l2.871-3.811a2.756,2.756,0,0,0,.672-2.769,19.6,19.6,0,0,1-.988-6.179,2.719,2.719,0,0,0-2.717-2.715Z" transform="translate(-19406 5678)" fill="url(#linear-gradient)"/>
  </g>
</svg>
