<svg xmlns="http://www.w3.org/2000/svg" width="16.539" height="16.539" viewBox="0 0 16.539 16.539"><path d="M15.632.91A2.986,2.986,0,0,0,13.441,0H3.1A2.987,2.987,0,0,0,.913.91,2.987,2.987,0,0,0,0,3.1V13.438a2.987,2.987,0,0,0,.91,2.191,2.987,2.987,0,0,0,2.191.91H13.441a3.107,3.107,0,0,0,3.1-3.1V3.1A2.987,2.987,0,0,0,15.632.91ZM13.548,12.554a1.944,1.944,0,0,1-1.017.862,3.417,3.417,0,0,1-1.405.366,2.665,2.665,0,0,1-.366-.027q-.194-.027-.328-.054a3.511,3.511,0,0,1-.355-.1q-.221-.07-.318-.108L9.4,13.362q-.258-.1-.323-.118a9.651,9.651,0,0,1-3.451-2.331A9.651,9.651,0,0,1,3.3,7.462q-.021-.065-.118-.323t-.135-.355q-.037-.1-.108-.318a3.541,3.541,0,0,1-.1-.355q-.027-.134-.054-.328a2.669,2.669,0,0,1-.027-.366,3.417,3.417,0,0,1,.366-1.405,1.943,1.943,0,0,1,.861-1.018,2.836,2.836,0,0,1,1.088-.237.5.5,0,0,1,.172.022.635.635,0,0,1,.178.194,4.372,4.372,0,0,1,.269.436q.145.264.285.511t.269.49q.129.242.161.307t.14.2a1.651,1.651,0,0,1,.162.269.548.548,0,0,1,.054.226.64.64,0,0,1-.221.393,3.673,3.673,0,0,1-.485.425,4.2,4.2,0,0,0-.485.415.6.6,0,0,0-.221.361.526.526,0,0,0,.038.178,1.666,1.666,0,0,0,.07.167q.032.065.1.183t.091.151A8.225,8.225,0,0,0,7.018,9.524a8.218,8.218,0,0,0,1.836,1.362q.032.022.151.092c.079.046.14.081.183.1a1.638,1.638,0,0,0,.167.07.53.53,0,0,0,.178.038q.172,0,.474-.355t.614-.705q.312-.35.506-.35a.549.549,0,0,1,.226.054,1.655,1.655,0,0,1,.269.162c.1.072.169.118.2.14l.57.312q.571.3.953.533a1.246,1.246,0,0,1,.415.318.5.5,0,0,1,.021.172A2.83,2.83,0,0,1,13.548,12.554Z" transform="translate(-0.003 0)" fill="#fff"/></svg>