<svg xmlns="http://www.w3.org/2000/svg" width="27.508" height="25.164" viewBox="0 0 27.508 25.164"><g transform="translate(0 -15.988)"><g transform="translate(8.518 35.791)"><path d="M162.68,399.988a2.68,2.68,0,1,0,2.68,2.68A2.684,2.684,0,0,0,162.68,399.988Z" transform="translate(-160 -399.988)" fill="#ff8200"/></g><g transform="translate(18.574 35.791)"><path d="M354.681,399.988a2.68,2.68,0,1,0,2.68,2.68A2.684,2.684,0,0,0,354.681,399.988Z" transform="translate(-352 -399.988)" fill="#ff8200"/></g><g transform="translate(0 15.988)"><g transform="translate(0 0)"><path d="M27.308,19.559a.872.872,0,0,0-.658-.295H6.444L5.7,16.6a.852.852,0,0,0-.83-.608H.86a.82.82,0,1,0,0,1.638H4.205L8.626,33.4a.852.852,0,0,0,.83.608H23.211a.82.82,0,1,0,0-1.638H10.116l-.5-1.8,15.355-.658a.847.847,0,0,0,.806-.672l1.719-9.008A.789.789,0,0,0,27.308,19.559Zm-3.1,8.744-15.051.645L6.9,20.9H25.62Z" transform="translate(0 -15.988)" fill="#ff8200"/></g></g></g></svg>
