<svg xmlns="http://www.w3.org/2000/svg" xmlns:xlink="http://www.w3.org/1999/xlink" width="116" height="34" viewBox="0 0 116 34"><defs><clipPath id="a"><rect width="116" height="34" transform="translate(0 0.198)" fill="#ff8200" stroke="#707070" stroke-width="1"/></clipPath></defs><g transform="translate(0 -0.198)" clip-path="url(#a)"><g transform="translate(0 5.005)"><path d="M51.607,24.7c-.146.657-.287,1.291-.426,1.924-.089.4-.165.81-.271,1.21-.023.088-.149.214-.227.214-1.862.011-3.723.007-5.588.005a.5.5,0,0,1-.115-.037l.827-3.219h-5.64c-.276,0-.593.078-.568-.415a4.05,4.05,0,0,1-4.872-.208c.025.368.046.687.071,1.059-.131-.041-.233-.07-.333-.1q-6.142-2.107-12.284-4.217a.807.807,0,0,0-.621.016,86.389,86.389,0,0,1-9.892,3.522,18.813,18.813,0,0,1-4.62.869,18.117,18.117,0,0,1-2.4-.213,2.04,2.04,0,0,1-.584-.2,1.538,1.538,0,0,1-.913-2.084,5.614,5.614,0,0,1,1.132-1.875c.465-.54.947-1.07,1.46-1.566,1.024-.992,2.032-2.008,3.123-2.922a18.913,18.913,0,0,1,6.579-3.379,34.941,34.941,0,0,1,8.185-1.5,1.682,1.682,0,0,0,.934-.339q4.793-3.563,9.6-7.1c.105-.078.213-.151.368-.261v6.04L55.548,7.526l.021.069-7.052,2.8,0,.061h2.452l-.737,3.288c.146,0,.256,0,.365,0l3.655-.123a4.219,4.219,0,0,1,3.165.944c.16-.73.312-1.418.462-2.108q.165-.757.323-1.516c.032-.151.07-.256.272-.256,1.8.009,3.6.005,5.4.007a1.574,1.574,0,0,1,.17.024l-.715,3.091a.622.622,0,0,0,.157.037,22.366,22.366,0,0,0,3.741-.176,4.485,4.485,0,0,1,2.911.339,10.573,10.573,0,0,1,1.269.9c.389-.214.842-.5,1.326-.721a6.822,6.822,0,0,1,5.628,0,16.832,16.832,0,0,1,1.537.8.32.32,0,0,0,.388.01,8.107,8.107,0,0,1,6.812-.959l.376.1.047-.4c.32,0,.647-.011.974,0,.2.009.324-.038.334-.256.022-.472.313-.7.713-.9,1.9-.957,3.79-1.942,5.683-2.917.073-.037.149-.069.284-.131l-.83,4.171c.636,0,1.243.033,1.846-.006a18.957,18.957,0,0,1,5.07.162c.48.1.942.28,1.434.429-.013.015.011,0,.013-.016.056-.537.409-.565.849-.552.941.028,1.883.007,2.824.009a10.769,10.769,0,0,0,2-.148,3.436,3.436,0,0,1,2.4.369.553.553,0,0,0,.374.022,11.216,11.216,0,0,1,3.225-.365,5.554,5.554,0,0,1,2.049.442,3.685,3.685,0,0,1,2.19,2.954c.044.254.046.515.083.77.032.223-.073.284-.272.3-.41.042-.817.1-1.269.164.068.126.118.219.17.314a4.119,4.119,0,0,1,.584,3.03,3.694,3.694,0,0,1-1.7,2.245,7.631,7.631,0,0,1-7.572.527,3.76,3.76,0,0,1-1.848-1.789c-.189.776-.36,1.48-.534,2.195H98.4c-.036-.138-.073-.275-.109-.43-1.006.88-2.174.661-3.319.468a4.03,4.03,0,0,0-1.463.011,9.684,9.684,0,0,1-3.73.088,2.454,2.454,0,0,1-1.945-1.37c-.163.106-.311.209-.465.3a8.143,8.143,0,0,1-7.417.6,2.267,2.267,0,0,0-1.888.025A7.872,7.872,0,0,1,70.982,24L70.6,23.8c-.016-.008-.04,0-.092-.005-.027.281-.069.563-.078.846-.006.2-.086.279-.282.262-.123-.01-.248,0-.372,0q-7.031,0-14.062.006a9.6,9.6,0,0,0-1.228.139A4.625,4.625,0,0,1,51.607,24.7Zm42.11-12.666c-.152.071-.253.116-.35.164-.778.385-1.533.826-2.34,1.141a1.559,1.559,0,0,0-1.18,1.544.537.537,0,0,1-.014.061c-.021.16-.105.222-.272.214a5.083,5.083,0,0,0-.775.008.338.338,0,0,0-.235.2c-.093.32-.151.65-.241,1.056a2.551,2.551,0,0,0-2-1.337,7.98,7.98,0,0,0-3.508.116A3.386,3.386,0,0,0,80.6,16.772a2.087,2.087,0,0,0,1.032,3.107,4.877,4.877,0,0,0,.823.268c.635.146,1.276.259,1.912.4.261.058.492.173.529.488a.736.736,0,0,1-.365.762,1.533,1.533,0,0,1-2.316-.721c-.007-.016-.031-.024-.057-.045-.773.068-1.556.133-2.339.2a11.678,11.678,0,0,1-1.243.119c-.548-.011-1.092-.085-1.637-.15a.768.768,0,0,0-.735.248,1.731,1.731,0,0,1-1.927.334,1.637,1.637,0,0,1-.772-1.547h.365c1.935,0,3.869,0,5.8,0,.211,0,.319-.037.336-.278.025-.339.1-.675.146-1.013a3.337,3.337,0,0,0-2.389-3.728,8.587,8.587,0,0,0-1.928-.266,5.093,5.093,0,0,0-4.389,1.81,13.747,13.747,0,0,0-.867,1.3c.033-.331.1-.719.106-1.109a1.85,1.85,0,0,0-1.52-1.92A4.03,4.03,0,0,0,65.7,15.9c-.2.158-.378.338-.608.548.095-.46.177-.86.264-1.282-.131-.007-.223-.017-.314-.017-.8,0-1.594.011-2.39-.007-.271-.006-.369.085-.424.345-.4,1.912-.816,3.82-1.226,5.731q-.255,1.192-.507,2.386a.516.516,0,0,0,.115.035c.993,0,1.986,0,2.98.008.214,0,.223-.134.253-.275.231-1.082.432-2.17.7-3.241a11.116,11.116,0,0,1,.666-1.857,1.586,1.586,0,0,1,1.037-.876c.714-.2,1.106.134.969.863-.194,1.036-.411,2.067-.623,3.1-.153.746-.314,1.491-.481,2.281H68.91c.6,0,.461.057.579-.479.244-1.1.469-2.2.7-3.3a4.088,4.088,0,0,1,.11.635,3.462,3.462,0,0,0,2.336,3.014,7.554,7.554,0,0,0,3.282.277,4.553,4.553,0,0,0,3.212-1.549c.016-.019.053-.019.089-.03a2.29,2.29,0,0,0,1.631,1.366,8.815,8.815,0,0,0,4.866-.116,3.238,3.238,0,0,0,2.044-1.739,2.088,2.088,0,0,0-1.282-3.037,6.892,6.892,0,0,0-.807-.219c-.666-.143-1.337-.264-2-.416a.577.577,0,0,1-.481-.543.612.612,0,0,1,.435-.617,1.673,1.673,0,0,1,1.358-.022,1.04,1.04,0,0,1,.446.438c.088.16.166.209.331.183.132-.023.267-.03.4-.043L88.1,17.24c.022.4.309.219.484.241a5.937,5.937,0,0,0,.707.007c-.2.944-.4,1.851-.584,2.762a8.9,8.9,0,0,0-.256,1.588,1.954,1.954,0,0,0,1.9,1.958,21.975,21.975,0,0,0,2.625-.133c.075-.005.178-.152.2-.25.11-.442.2-.889.3-1.4.088.2.142.331.205.458a2.157,2.157,0,0,0,1.394,1.194,4.209,4.209,0,0,0,3.384-.382c.271-.162.524-.356.8-.544.03.23.069.441.082.653s.1.256.3.256q2.871-.009,5.743,0c.211,0,.28-.076.318-.275.129-.669.275-1.336.424-2a9.209,9.209,0,0,1,.8-2.628,2.007,2.007,0,0,1,2.146-1.088c.215.024.292.088.294.321a1.9,1.9,0,0,0,1.1,1.776,5.175,5.175,0,0,0,1.071.391c.661.165,1.333.285,2,.43a.635.635,0,0,1,.267,1.082,1.577,1.577,0,0,1-2.455-.449.308.308,0,0,0-.23-.158c-.929.068-1.856.151-2.783.233a1.434,1.434,0,0,0-.222.055,2.312,2.312,0,0,0,1.755,2.215,8.679,8.679,0,0,0,4.928-.082,3.344,3.344,0,0,0,1.958-1.533,2.133,2.133,0,0,0-1.19-3.253,9.358,9.358,0,0,0-1.08-.276c-.555-.119-1.117-.209-1.67-.337a.624.624,0,0,1-.531-.573.674.674,0,0,1,.506-.635,1.654,1.654,0,0,1,1.214-.02,1.31,1.31,0,0,1,.528.477c.09.134.149.19.3.172.719-.082,1.439-.156,2.159-.234.211-.023.421-.051.63-.076a2.248,2.248,0,0,0-1.785-1.995,7.933,7.933,0,0,0-3.779-.028,4.541,4.541,0,0,0-1.8.879c.146-.329.256-.568.4-.895a9.124,9.124,0,0,0-1.256-.174,2.422,2.422,0,0,0-1.885,1.05c-.2.247-.395.5-.648.824.135-.615.249-1.133.372-1.691-.955,0-1.862.006-2.772,0-.217,0-.3.064-.345.284-.423,2.034-.86,4.064-1.294,6.1q-.164.758-.33,1.515a3.185,3.185,0,0,1,0-1.655c.219-1.136.479-2.263.675-3.4a2.217,2.217,0,0,0-1.906-2.817,11.169,11.169,0,0,0-3.643-.131,4.22,4.22,0,0,0-2.117.723A2.879,2.879,0,0,0,94.374,17.5c.982.107,1.925.212,2.87.3.062.006.157-.081.2-.149a1.742,1.742,0,0,1,2.241-.631c.329.167.4.365.381.765-.014.368-.231.441-.518.472-.062.007-.123.02-.183.028-1.168.162-2.339.292-3.5.494a2.562,2.562,0,0,0-2.438,2.409.264.264,0,0,1-.161.179,4.257,4.257,0,0,1-.832.07.558.558,0,0,1-.561-.764c.081-.363.162-.726.238-1.09.146-.694.288-1.391.436-2.109h1.7l.49-2.324H93.068ZM10.206,17.4c.829-.244,1.584-.485,2.35-.688a10.351,10.351,0,0,1,2.755-.4,1.7,1.7,0,0,0,.673-.134c.787-.341,1.546-.749,2.346-1.054a17.829,17.829,0,0,1,2.165-.621.567.567,0,0,1,.5.178.571.571,0,0,1-.1.529,3.615,3.615,0,0,1-1.03.811,11,11,0,0,1-2.176.694c-2,.4-4,.781-5.948,1.376a20.945,20.945,0,0,0-5.183,2.184A5.158,5.158,0,0,0,4.688,22.1a.936.936,0,0,0,.433,1.439,2.683,2.683,0,0,0,.611.216,6.342,6.342,0,0,0,2.253.032,26.022,26.022,0,0,0,4.7-1.121,88.07,88.07,0,0,0,9.192-3.632.719.719,0,0,1,.558-.037q4.662,1.5,9.328,2.983l1.84.584v-.383q0-3.446,0-6.891a.357.357,0,0,1,.263-.41Q40.579,12.4,47.293,9.909c.461-.171.921-.344,1.381-.516,0-.018-.009-.037-.015-.054l-15.179,1.8V6.324c-.142.1-.234.165-.324.232q-3.74,2.8-7.483,5.591a.98.98,0,0,1-.472.183c-1.463.131-2.931.2-4.389.376a20.616,20.616,0,0,0-7.67,2.415A11.768,11.768,0,0,0,10.206,17.4Zm30.361,6.246h.4c1.842,0,3.683-.011,5.524.009.35,0,.466-.107.536-.438.644-3.073,1.307-6.143,1.964-9.214.144-.673.284-1.347.431-2.042H46.139L43.71,23.289a.3.3,0,0,1-.1-.178,5.553,5.553,0,0,1,.159-2.211c.206-1.1.461-2.185.607-3.288a2.074,2.074,0,0,0-1.6-2.367,9.216,9.216,0,0,0-2.735-.292,6.749,6.749,0,0,0-2.792.473,2.906,2.906,0,0,0-1.7,2.048,2.069,2.069,0,0,0,.235.055c.812.089,1.625.168,2.435.27a.389.389,0,0,0,.458-.235,1.737,1.737,0,0,1,2.326-.451c.292.219.244.511.21.817s-.256.289-.45.316c-.727.1-1.456.188-2.182.288a8.832,8.832,0,0,0-2.563.56A2.3,2.3,0,0,0,34.6,21.543a2.349,2.349,0,0,0,1.649,2.117,4.172,4.172,0,0,0,3.723-.587c.146-.1.292-.214.466-.343l.124.913ZM52.193,15.15c-.913,0-1.768.018-2.624-.009-.325-.01-.438.093-.5.4-.646,3.052-1.308,6.1-1.965,9.151q-.231,1.07-.457,2.142a.465.465,0,0,0,.114.04c.993,0,1.986.009,2.979,0,.073,0,.19-.134.211-.223.194-.835.371-1.674.553-2.512.113-.517.227-1.034.345-1.57.057.039.079.047.09.063a3.366,3.366,0,0,0,5.076.124A6.1,6.1,0,0,0,57.384,17a2.438,2.438,0,0,0-1.654-1.87,3.3,3.3,0,0,0-3.149.472c-.165.126-.329.256-.534.414Zm9.656,0c-1.034,0-2.015.009-2.993-.007-.243,0-.31.092-.356.307-.465,2.2-.94,4.4-1.412,6.6-.11.518-.216,1.038-.332,1.591,1,0,1.948-.016,2.9.009.322.009.413-.114.472-.4.335-1.617.688-3.231,1.033-4.847C61.384,17.338,61.611,16.269,61.849,15.15Zm-3.075-.958c1.069,0,2.092,0,3.114-.006a.251.251,0,0,0,.193-.136c.157-.689.3-1.382.45-2.092H59.253Zm-17.465-.283c.584.091,1.109.133,1.613.263s.983.346,1.5.534c.16-.768.329-1.579.511-2.449Z" transform="translate(-3.033 -3.873)" fill="#ff8200"/><path d="M156.067,33.747a2.4,2.4,0,0,1,1.218-1.632,1.405,1.405,0,0,1,1.572.171,1.429,1.429,0,0,1,.365,1.46Z" transform="translate(-85.329 -18.973)" fill="#ff8200"/><path d="M208.461,38.366a2.264,2.264,0,0,1-1.65,2.219,1.129,1.129,0,0,1-1-.177.774.774,0,0,1-.288-.8.879.879,0,0,1,.685-.689C206.942,38.718,207.687,38.554,208.461,38.366Z" transform="translate(-111.913 -22.422)" fill="#ff8200"/><path d="M25.111,34.689c-.634.538-1.248,1.1-1.906,1.609a8.192,8.192,0,0,1-3.348,1.679,3.121,3.121,0,0,1-1.8-.084c-.283-.11-.35-.248-.165-.491a2.65,2.65,0,0,1,.669-.626,13.1,13.1,0,0,1,3.431-1.389c1.009-.292,2.027-.552,3.041-.825Z" transform="translate(-10.968 -20.377)" fill="#ff8200"/><path d="M81.23,38.409a2.251,2.251,0,0,1-1.671,2.185,1.71,1.71,0,0,1-.892-.1.7.7,0,0,1-.409-.764.865.865,0,0,1,.63-.764,4.523,4.523,0,0,1,.621-.188C80.068,38.65,80.632,38.535,81.23,38.409Z" transform="translate(-43.484 -22.445)" fill="#ff8200"/><path d="M107.738,35.467a4.694,4.694,0,0,1,.579-2.165,1.4,1.4,0,0,1,1.1-.808,1.034,1.034,0,0,1,1.224.913,4.092,4.092,0,0,1-.57,2.914,1.238,1.238,0,0,1-1.4.675,1.292,1.292,0,0,1-.936-1.343C107.737,35.591,107.738,35.529,107.738,35.467Z" transform="translate(-59.339 -19.26)" fill="#ff8200"/></g></g></svg>