<svg xmlns="http://www.w3.org/2000/svg" width="10.647" height="10.646" viewBox="0 0 10.647 10.646"><g transform="translate(-160.795 -315.361)"><g transform="translate(160.795 315.361)"><path d="M161.711,171.42a.895.895,0,0,1-.632-1.528l8.856-8.856A.895.895,0,0,1,171.2,162.3l-8.856,8.856a.9.9,0,0,1-.633.262Zm0,0" transform="translate(-160.816 -160.774)"/><path d="M170.545,171.439a.887.887,0,0,1-.632-.262l-8.856-8.855a.895.895,0,0,1,1.265-1.265l8.856,8.856a.894.894,0,0,1-.633,1.527Zm0,0" transform="translate(-160.795 -160.793)"/></g></g></svg>