<svg xmlns="http://www.w3.org/2000/svg" width="26.054" height="16.481" viewBox="0 0 26.054 16.481"><g transform="translate(0 0)"><g transform="translate(0 0)"><g transform="translate(0 0)"><path d="M24.231,101.049l-.675-2.7a.408.408,0,0,0,.323-.4v-.435A1.715,1.715,0,0,0,22.165,95.8H19.092v-.9a.844.844,0,0,0-.843-.843H2.584a.844.844,0,0,0-.843.843v7.4a.408.408,0,1,0,.816,0v-7.4a.027.027,0,0,1,.027-.027H18.249a.027.027,0,0,1,.027.027v7.4a.408.408,0,0,0,.816,0v-.462h4.815a1.335,1.335,0,0,1,1.268.925H23.906a.408.408,0,0,0-.408.408v.87a1.28,1.28,0,0,0,1.278,1.278h.462v1.795H24.172a2.583,2.583,0,0,0-4.883,0h-.2v-3.073a.408.408,0,1,0-.816,0v3.073H9.812a2.583,2.583,0,0,0-4.883,0H2.584a.027.027,0,0,1-.027-.027v-.9H4.324a.408.408,0,0,0,0-.816H.408a.408.408,0,0,0,0,.816H1.741v.9a.844.844,0,0,0,.843.843h2.2c0,.009,0,.018,0,.027a2.584,2.584,0,1,0,5.167,0c0-.009,0-.018,0-.027h9.194c0,.009,0,.018,0,.027a2.584,2.584,0,1,0,5.167,0c0-.009,0-.018,0-.027h1.333a.408.408,0,0,0,.408-.408v-4.352A2.152,2.152,0,0,0,24.231,101.049Zm-5.138-4.43h3.073a.9.9,0,0,1,.9.9v.027H19.092Zm0,4.406V98.359h3.625l.666,2.665Zm-11.722,8.7a1.768,1.768,0,1,1,1.768-1.768A1.77,1.77,0,0,1,7.37,109.728Zm14.36,0A1.768,1.768,0,1,1,23.5,107.96,1.77,1.77,0,0,1,21.73,109.728Zm3.508-5.222h-.462a.463.463,0,0,1-.462-.462v-.462h.925v.925Z" transform="translate(0 -94.062)" fill="#5d5b5b"/></g></g><g transform="translate(6.527 13.055)"><g transform="translate(0 0)"><path d="M129.11,350.6a.843.843,0,1,0,.843.843A.844.844,0,0,0,129.11,350.6Z" transform="translate(-128.267 -350.597)" fill="#5d5b5b"/></g></g><g transform="translate(20.887 13.055)"><g transform="translate(0 0)"><path d="M411.3,350.6a.843.843,0,1,0,.843.843A.844.844,0,0,0,411.3,350.6Z" transform="translate(-410.455 -350.597)" fill="#5d5b5b"/></g></g><g transform="translate(10.444 11.314)"><g transform="translate(0 0)"><path d="M211.727,316.393h-6.092a.408.408,0,1,0,0,.816h6.092a.408.408,0,0,0,0-.816Z" transform="translate(-205.227 -316.393)" fill="#5d5b5b"/></g></g><g transform="translate(0.87 9.574)"><g transform="translate(0 0)"><path d="M22.732,282.188H17.51a.408.408,0,0,0,0,.816h5.222a.408.408,0,0,0,0-.816Z" transform="translate(-17.102 -282.188)" fill="#5d5b5b"/></g></g><g transform="translate(7.398 3.917)"><path d="M152.158,171.142a.408.408,0,0,0-.577,0l-3.628,3.628-1.887-1.887a.408.408,0,0,0-.577.577l2.176,2.176a.408.408,0,0,0,.577,0l3.916-3.916A.408.408,0,0,0,152.158,171.142Z" transform="translate(-145.37 -171.023)" fill="#5d5b5b"/></g></g></svg>