<svg xmlns="http://www.w3.org/2000/svg" width="24.41" height="27.897" viewBox="0 0 24.41 27.897"><g transform="translate(-34.445)"><path d="M144.756,13.949a6.974,6.974,0,1,1,6.974-6.974A6.982,6.982,0,0,1,144.756,13.949Zm0-12.205a5.231,5.231,0,1,0,5.231,5.231,5.236,5.236,0,0,0-5.231-5.231Z" transform="translate(-98.106)" fill="#fff"/><path d="M57.983,323.325H35.317a.871.871,0,0,1-.872-.872v-6a2.614,2.614,0,0,1,1.2-2.21,21.3,21.3,0,0,1,22.007,0,2.616,2.616,0,0,1,1.2,2.211v6A.871.871,0,0,1,57.983,323.325Zm-21.795-1.744H57.112v-5.129a.86.86,0,0,0-.382-.732,19.52,19.52,0,0,0-20.159,0,.859.859,0,0,0-.381.731Z" transform="translate(0 -295.427)" fill="#fff"/></g></svg>