<svg xmlns="http://www.w3.org/2000/svg" xmlns:xlink="http://www.w3.org/1999/xlink" width="169" height="67" viewBox="0 0 169 67"><defs><clipPath id="a"><rect width="169" height="67" transform="translate(-0.016)" fill="#fff"/></clipPath></defs><g transform="translate(0.016)" clip-path="url(#a)"><g transform="translate(51.492 0.043)"><g transform="translate(0 0)"><path d="M24.862,66.6a32.185,32.185,0,0,1-11.506-9.257A33.935,33.935,0,0,1,7.073,43.859a33.433,33.433,0,0,1-.745-7.042,32.352,32.352,0,0,1,2.065-11.6,35.742,35.742,0,0,1,4.376-7.985A32.453,32.453,0,0,1,23.85,7.357,33.725,33.725,0,0,1,32.587,4.1,33.536,33.536,0,0,1,53.529,6.175a33.059,33.059,0,0,1,11.6,8.655,31.237,31.237,0,0,1,6.187,10.624,33.32,33.32,0,0,1-1.012,25.173,37.29,37.29,0,0,1-5.114,8.054,31.284,31.284,0,0,1-8.348,6.885,29.808,29.808,0,0,1-9.407,3.794,37.93,37.93,0,0,1-9.66.861,29.215,29.215,0,0,1-7.678-1.5c-.766-.267-1.552-.506-2.311-.793m12.1,1.648a32.906,32.906,0,1,0-.1-65.811A31.722,31.722,0,0,0,16.248,13.825C8.481,21.913,5.705,31.751,7.49,42.662A31.074,31.074,0,0,0,17.184,60.52,31.748,31.748,0,0,0,39.889,69.579Z" transform="translate(-6.327 -3.284)" fill="#1f1d20"/><path d="M39.208,37.2a2.4,2.4,0,0,1-2.434-1.648c-.533-1.778-1.019-3.569-1.531-5.346-.431-1.511-.882-3.022-1.319-4.526-.082-.273-.232-.294-.513-.253a3.642,3.642,0,0,0-2.953,1.648c-.786,1.361-1.914,2.482-2.789,3.781-1.34,2-2.919,3.822-4.341,5.757-1.552,2.106-3.138,4.184-4.717,6.276a2.613,2.613,0,0,0-.157,2.523c.116.191.2.164.39.109,1.484-.431,2.981-.834,4.471-1.258,2.475-.711,4.943-1.443,7.418-2.154,1.7-.492,3.4-1.005,5.121-1.456a2.509,2.509,0,0,1,3.083,1.784c.595,2,1.019,4.041,1.743,6,.116.321.014.438-.308.526q-2.236.615-4.458,1.278c-.4.123-.526-.089-.561-.4a13.691,13.691,0,0,0-.779-2.366c-.15-.52-.335-.848-.991-.4a2.994,2.994,0,0,1-1.463.417A20.578,20.578,0,0,0,28,48.6c-2.147.533-4.266,1.2-6.4,1.812-1.244.356-2.5.684-3.733,1.06-2.2.663-3.323.075-4-2.16-.479-1.586-.882-3.193-1.4-4.765-.547-1.654.205-2.892,1.142-4.109q2.789-3.641,5.565-7.288c1.62-2.119,3.247-4.232,4.854-6.358,1.046-1.388,2.072-2.8,3.1-4.2a4.507,4.507,0,0,1,2.536-1.771c1.771-.5,3.555-.964,5.312-1.531,1.531-.492,2.919.356,3.432,2.154.834,2.885,1.641,5.77,2.441,8.669.185.677.321,1.114,1.224.738.923-.39,1.962-.506,2.926-.807.356-.109.479-.062.6.28.52,1.436.855,2.919,1.265,4.382.082.28.048.472-.294.567-2.277.636-4.553,1.285-6.83,1.921A3.483,3.483,0,0,1,39.208,37.2Z" transform="translate(-7.642 -6.79)" fill="#1f1d20"/><path d="M76.357,27.756c0,.984-.41,1.572-1.593,1.88-1.572.417-3.124.909-4.717,1.285-1.928.451-3.808,1.142-5.7,1.764-.581.191-1.19.294-1.771.506-.506.185-.567.431-.513.875a26.9,26.9,0,0,0,.814,3.1c.308,1.258.752,2.482,1.108,3.726.144.492.314.684.9.506,2.625-.807,5.257-1.586,7.91-2.3a43.015,43.015,0,0,1,4.642-1.251A1.9,1.9,0,0,1,79.721,40.4a1.755,1.755,0,0,1-1.244,1.258c-3.131.9-6.262,1.771-9.387,2.673-1.887.547-3.788,1.039-5.675,1.572-1.367.39-2.2-.246-2.577-1.668-.608-2.29-1.306-4.553-1.983-6.823-.465-1.566-.984-3.118-1.429-4.683-.4-1.415.055-2.126,1.484-2.6,2.639-.882,5.333-1.579,8.013-2.338,2.325-.656,4.594-1.47,6.974-1.935A1.888,1.888,0,0,1,76.357,27.756Z" transform="translate(-17.588 -8.259)" fill="#e5e118"/><path d="M48.045,61.529c1.067-.021,1.531.677,1.2,1.367-.082.178-.321.321.021.424.574.178.574.7.718,1.135.1.308.15.567-.321.684-.438.1-.574-.041-.615-.417-.1-.841-.465-.991-1.258-.643a13.826,13.826,0,0,1-2.195.588c-.643.164-.759.39-.52.957.109.273.526.6-.123.855s-.725-.185-.848-.574c-.273-.855-.5-1.723-.766-2.584-.068-.226-.089-.4.157-.472C45.105,62.377,46.725,61.912,48.045,61.529Zm.39,1.285c-.068-.219-.123-.451-.444-.362l-3.241.9c-.28.075-.239.26-.185.465.068.246.191.28.438.205,1.012-.328,2.037-.629,3.056-.943C48.2,63.026,48.414,63.061,48.435,62.815Z" transform="translate(-14.496 -16.155)" fill="#1f1d20"/><path d="M39.9,63.829c.54-.007.725.376.889.711a6.1,6.1,0,0,1,.4,1.19c.417,1.757.26,1.655-1.367,2.208-.978.335-2,.561-2.994.841a1.272,1.272,0,0,1-1.545-.889,17.021,17.021,0,0,0-.335-1.839.726.726,0,0,1,.533-.855C36.952,64.717,38.429,64.28,39.9,63.829Zm-3.008,4.15c.855-.273,1.7-.581,2.557-.814,1.08-.294,1.087-.267.814-1.361a2.964,2.964,0,0,1-.1-.41c-.068-.574-.383-.67-.9-.52a24.966,24.966,0,0,1-3.07.875c-.191.034-.308.116-.239.342.157.506.294,1.019.458,1.525C36.488,67.835,36.556,68.081,36.891,67.979Z" transform="translate(-12.647 -16.663)" fill="#1f1d20"/><path d="M56.32,63.137a.962.962,0,0,1-1.06-.656,10.406,10.406,0,0,1-.656-2c-.116-.424.082-.67.431-.9a11.832,11.832,0,0,1,2.974-1.005,14.175,14.175,0,0,1,1.531-.465c.26-.055.581-.13.677.28.089.376-.13.451-.431.567a29.139,29.139,0,0,1-3.63,1.005c-.479.123-.513.349-.41.718.082.3.219.581.273.889.082.472.314.615.773.485,1.155-.335,2.318-.649,3.466-.991.356-.1.684-.212.807.267.116.444-.157.595-.54.67a20.394,20.394,0,0,0-3.453,1.019A3.448,3.448,0,0,1,56.32,63.137Z" transform="translate(-16.988 -15.39)" fill="#e5e118"/><path d="M31.9,66.205c.321-.041.465.123.5.424.041.362-.219.39-.479.458-1.19.314-2.379.649-3.576.964-.267.068-.492.13-.362.5s.369.273.615.191c.615-.2,1.224-.4,1.839-.6.3-.1.581-.191.684.294s-.226.465-.479.5c-.506.068-.978.308-1.463.376-.916.137-.93.588-.595,1.244.2.39.137.615-.328.732-.438.109-.629-.041-.691-.465a16.814,16.814,0,0,0-.814-2.742c-.062-.191-.185-.39.116-.472,1.62-.465,3.241-.923,4.861-1.388A1.441,1.441,0,0,0,31.9,66.205Z" transform="translate(-10.824 -17.187)" fill="#1f1d20"/><path d="M70.311,55.079c.308.1.656-.109.725.26s-.205.458-.526.5c-.554.075-.991.506-1.586.52-.362.007-.212.321-.157.52.178.622.383,1.237.554,1.86.062.239.267.526-.205.663-.4.116-.649.082-.779-.349-.1-.321-.239-.636-.328-.957-.362-1.361-.738-1.545-2.024-.957a2.892,2.892,0,0,1-.526.26c-.239.055-.52.123-.629-.226a.523.523,0,0,1,.3-.7C66.879,55.975,68.629,55.523,70.311,55.079Z" transform="translate(-19.247 -14.73)" fill="#e5e118"/><path d="M80.547,52.277c-.595.827-1.135,1.627-1.723,2.379a1.3,1.3,0,0,0-.349,1.381.463.463,0,0,1-.287.684.414.414,0,0,1-.574-.335c-.253-.95-1.121-1.1-1.839-1.443-.424-.2-.9-.314-1.34-.472-.157-.055-.356-.089-.383-.28-.034-.239.178-.349.362-.41a1.461,1.461,0,0,1,1.278.178c1.846,1.053,1.853,1.032,3.049-.663C79.494,52.209,79.555,52.175,80.547,52.277Z" transform="translate(-21.292 -14.102)" fill="#e5e118"/><path d="M63.326,57.465c.356-.027.465.219.54.458.28.909.547,1.832.827,2.742.137.438-.219.547-.472.656s-.472-.007-.554-.328c-.267-1.005-.533-2.01-.841-3.008C62.663,57.431,63.135,57.588,63.326,57.465Z" transform="translate(-18.805 -15.257)" fill="#e5e118"/></g></g></g></svg>