<svg xmlns="http://www.w3.org/2000/svg" xmlns:xlink="http://www.w3.org/1999/xlink" width="235" height="70" viewBox="0 0 235 70"><defs><clipPath id="a"><rect width="235" height="70" transform="translate(726 2668.642)" fill="#fff" stroke="#707070" stroke-width="1"/></clipPath></defs><g transform="translate(-726 -2668.642)" clip-path="url(#a)"><g transform="translate(726 2688.457)"><path d="M34.509,30.233H33.392c-3.029,0-6.058-.008-9.087.01a7.211,7.211,0,0,0-5.3,2.321,2.432,2.432,0,0,0,.452,3.921,5.944,5.944,0,0,0,3.377.857q9.809.02,19.624,0a6.554,6.554,0,0,0,4.385-1.726,2.685,2.685,0,0,0,.693-3.6q-5.326-10.392-10.655-20.78a5.65,5.65,0,0,0-2.348-2.862A6.636,6.636,0,0,0,26.7,9.655Q15,21.133,3.329,32.633c-1.575,1.551-1.206,3.39.821,4.276a8.24,8.24,0,0,0,8.057-1.439L26.721,21.587c.7-.672,1.435-1.316,2.247-2.06ZM180.34,22.522l1.206-.559a12.488,12.488,0,0,0,5.1-3.915,5.413,5.413,0,0,0-.733-7.406A12.655,12.655,0,0,0,177.4,7.6c-4.393-.116-8.791-.049-13.186-.014a16.235,16.235,0,0,0-3.026.329,5.373,5.373,0,0,0-3.485,2.108,2.54,2.54,0,0,0,.732,3.925,6.076,6.076,0,0,0,2.716.767c3.644.086,7.29.029,10.936.045a5.876,5.876,0,0,1,1.58.2c.739.213,1.425.588,1.522,1.464a2.013,2.013,0,0,1-1.04,1.864,4.593,4.593,0,0,1-2.833.708c-3.752.007-7.505-.034-11.257.034a7.032,7.032,0,0,0-4.947,2,2.626,2.626,0,0,0,.756,4.495,7.165,7.165,0,0,0,2.762.658c3.67.075,7.345.022,11.015.044a4.7,4.7,0,0,1,1.489.25,1.5,1.5,0,0,1,.63,2.648,3.674,3.674,0,0,1-2.823,1.123q-5.829,0-11.66.009a7.1,7.1,0,0,0-4.651,1.706,2.938,2.938,0,0,0-1.162,2.91,3.118,3.118,0,0,0,3.255,2.427c4.128.009,8.255.037,12.388-.012a47.889,47.889,0,0,0,6.082-.343,16.983,16.983,0,0,0,9.867-4.959,4.867,4.867,0,0,0-.231-7.49C182.056,23.786,181.2,23.191,180.34,22.522Zm-32.7,0c.458-.39.885-.715,1.266-1.085a15.839,15.839,0,0,0,3.86-4.884,5.311,5.311,0,0,0-.744-6.007A8.489,8.489,0,0,0,145.482,7.6q-8.321-.122-16.646,0a6.736,6.736,0,0,0-5.064,2.283,2.621,2.621,0,0,0,.1,3.7,3.958,3.958,0,0,0,3.054,1.169q4.746.01,9.491-.005c.8,0,1.609-.023,2.412.016a1.871,1.871,0,0,1,1.832,1.206,2.032,2.032,0,0,1-.542,2.207,2.948,2.948,0,0,1-2.354.806c-4.049,0-8.1-.009-12.145.02a6.031,6.031,0,0,0-4.3,1.892,2.717,2.717,0,0,0,.688,4.6,6.145,6.145,0,0,0,2.6.669c3.483.075,6.969,0,10.454.044,1.589.018,2.6.86,2.108,2.562-.385,1.335-.714,2.687-1.039,4.038a3.559,3.559,0,0,0,3.161,4.495,12.434,12.434,0,0,0,5.1-.361c2.193-.732,3.93-1.875,4.427-4.379.385-1.938.889-3.859,1.454-5.753a2.5,2.5,0,0,0-1.047-3c-.49-.365-.948-.775-1.574-1.293ZM78.618,7.457c-1.718.11-2.918.2-4.121.264A34.492,34.492,0,0,0,58.48,12.413c-3.3,1.967-6.185,4.379-7.768,7.987-1.471,3.354-1.734,6.739.363,9.976a13.052,13.052,0,0,0,5.9,4.805A30.416,30.416,0,0,0,73.042,37.6a9.456,9.456,0,0,0,4.977-1.821,2.747,2.747,0,0,0-.673-4.933,6.2,6.2,0,0,0-2.015-.42c-1.6-.091-3.213-.069-4.824-.137a13.216,13.216,0,0,1-5.057-1.127c-4.126-1.913-4.975-6.281-1.819-9.548a15.8,15.8,0,0,1,8.332-4.36,27.706,27.706,0,0,1,6.954-.36A7.134,7.134,0,0,0,84.3,13.008c1.663-1.589,1.384-3.578-.642-4.674a4.693,4.693,0,0,0-1.568-.571C80.775,7.591,79.441,7.525,78.618,7.457Zm135.792,29.9.011.214c3.524-.2,7.078-.183,10.561-.67a16.482,16.482,0,0,0,9.9-5.065,7.668,7.668,0,0,0,2.386-6.625,7.326,7.326,0,0,0-3.015-4.671c-4.765-3.771-9.6-7.455-14.252-11.372-3.13-2.631-8.324-1.662-10.615.98a2.727,2.727,0,0,0,.349,4.268l14.615,11.957c1.359,1.112,1.16,2.686-.51,3.3a9.507,9.507,0,0,1-3.033.592c-3.965.07-7.934-.01-11.9.057-2.07.034-4.068.439-5.458,2.216a2.747,2.747,0,0,0,1.584,4.644,7.209,7.209,0,0,0,1.666.171C209.264,37.362,211.837,37.352,214.41,37.352ZM101.887,19h0c-3.86,0-7.719-.023-11.578.008a4.392,4.392,0,0,0-4.547,3.538c-.949,3.676-1.746,7.393-2.775,11.047-.7,2.477.092,3.517,2.683,3.742.08.007.16.01.241.01,7.612,0,15.224.02,22.836-.016a6.369,6.369,0,0,0,4.8-1.9,2.8,2.8,0,0,0-.383-4.342,4.651,4.651,0,0,0-2.871-.856c-4.369.009-8.738-.013-13.106.014-.76,0-.865-.235-.635-.891a17.541,17.541,0,0,0,.684-2.389c.124-.634.41-.787,1.027-.784q6.468.042,12.946.009a7.045,7.045,0,0,0,4.872-1.76c1.794-1.623,1.479-4.044-.676-4.983a5.322,5.322,0,0,0-2.017-.43C109.55,18.981,105.717,19,101.887,19Zm90.171,18.6c1.225-.259,2.479-.423,3.666-.8a5.054,5.054,0,0,0,3.69-3.662c.585-2.276,1.246-4.532,1.872-6.8.292-1.056.641-2.1.857-3.172.464-2.3-1.38-4.385-4.041-4.379a17.186,17.186,0,0,0-4.657.615,5.319,5.319,0,0,0-3.973,3.828c-.859,3.309-1.675,6.629-2.509,9.945a2.851,2.851,0,0,0,1.255,3.268,7.744,7.744,0,0,0,3.837,1.15ZM103.5,14.757c3.429,0,6.858.015,10.288-.008a9.589,9.589,0,0,0,4.37-.855c2.017-1.021,2.721-3.179,1.5-4.714a3.97,3.97,0,0,0-3.122-1.593c-7.287-.031-14.574-.054-21.861.013a6.683,6.683,0,0,0-4.916,2.234,2.645,2.645,0,0,0,.672,4.385,5.37,5.37,0,0,0,2.383.513C96.371,14.788,99.935,14.758,103.5,14.757ZM197.7,16.1c.582-.069,1.173-.1,1.744-.219,1.973-.417,3.811-1.071,4.953-2.916a3.109,3.109,0,0,0-1.413-4.67,9.162,9.162,0,0,0-9.711,1.926,3.035,3.035,0,0,0,.669,4.863A7.487,7.487,0,0,0,197.7,16.1Z" transform="translate(-2.352 -7.457)" fill="#fff"/><path d="M34.509,30.245,28.966,19.539c-.812.744-1.544,1.388-2.247,2.06q-7.262,6.936-14.51,13.882a8.24,8.24,0,0,1-8.057,1.439c-2.031-.886-2.4-2.724-.821-4.276Q15.006,21.147,26.7,9.667a6.64,6.64,0,0,1,7.837-1.279,5.655,5.655,0,0,1,2.348,2.862q5.348,10.38,10.655,20.78a2.685,2.685,0,0,1-.693,3.6,6.592,6.592,0,0,1-4.385,1.726q-9.811.03-19.624,0a5.918,5.918,0,0,1-3.377-.857,2.432,2.432,0,0,1-.452-3.921,7.211,7.211,0,0,1,5.3-2.321c3.029-.018,6.058-.008,9.087-.01Z" transform="translate(-2.352 -7.468)" fill="#fff"/><path d="M190.489,22.527c.856.669,1.716,1.264,2.488,1.957a4.861,4.861,0,0,1,.231,7.49,17.009,17.009,0,0,1-9.867,4.959,47.923,47.923,0,0,1-6.082.343c-4.128.049-8.255.021-12.388.012a3.115,3.115,0,0,1-3.255-2.427,2.935,2.935,0,0,1,1.162-2.91,7.1,7.1,0,0,1,4.651-1.706q5.829-.012,11.66-.009a3.668,3.668,0,0,0,2.823-1.123,1.5,1.5,0,0,0-.63-2.648,4.7,4.7,0,0,0-1.489-.25c-3.672-.022-7.345.031-11.015-.044a7.164,7.164,0,0,1-2.762-.658,2.625,2.625,0,0,1-.756-4.495,7.009,7.009,0,0,1,4.947-2c3.752-.068,7.505-.027,11.257-.034a4.579,4.579,0,0,0,2.833-.708,2.015,2.015,0,0,0,1.04-1.864c-.093-.877-.783-1.251-1.522-1.464a5.876,5.876,0,0,0-1.58-.2c-3.645-.016-7.292.041-10.936-.045a6.076,6.076,0,0,1-2.716-.767,2.541,2.541,0,0,1-.732-3.925,5.373,5.373,0,0,1,3.485-2.108,16.235,16.235,0,0,1,3.026-.329c4.4-.035,8.793-.1,13.186.014a12.672,12.672,0,0,1,8.514,3.039,5.416,5.416,0,0,1,.733,7.406,12.488,12.488,0,0,1-5.1,3.915Z" transform="translate(-12.501 -7.461)" fill="#fff"/><path d="M155.673,22.525c.626.517,1.084.927,1.574,1.3a2.5,2.5,0,0,1,1.047,3c-.565,1.894-1.069,3.815-1.454,5.753-.5,2.5-2.24,3.646-4.427,4.379a12.434,12.434,0,0,1-5.1.361,3.56,3.56,0,0,1-3.161-4.495c.329-1.351.658-2.7,1.039-4.038.492-1.7-.52-2.545-2.108-2.562-3.485-.039-6.971.031-10.454-.044a6.145,6.145,0,0,1-2.6-.669,2.717,2.717,0,0,1-.688-4.6,6.031,6.031,0,0,1,4.3-1.892c4.049-.029,8.1-.016,12.145-.02a2.951,2.951,0,0,0,2.354-.806,2.02,2.02,0,0,0,.542-2.207,1.869,1.869,0,0,0-1.832-1.206c-.8-.039-1.608-.016-2.412-.016-3.164,0-6.327.012-9.491.005a3.946,3.946,0,0,1-3.054-1.169,2.625,2.625,0,0,1-.1-3.7,6.757,6.757,0,0,1,5.064-2.283q8.321-.141,16.646,0a8.489,8.489,0,0,1,6.539,2.941,5.311,5.311,0,0,1,.744,6.007,15.839,15.839,0,0,1-3.86,4.884C156.558,21.811,156.131,22.135,155.673,22.525Z" transform="translate(-10.385 -7.462)" fill="#fff"/><path d="M81.832,7.457c.823.068,2.158.135,3.479.307a4.693,4.693,0,0,1,1.568.571c2.026,1.1,2.3,3.085.642,4.674A7.134,7.134,0,0,1,82.134,14.9a27.706,27.706,0,0,0-6.954.36,15.787,15.787,0,0,0-8.332,4.36c-3.156,3.267-2.312,7.635,1.823,9.547a13.216,13.216,0,0,0,5.057,1.127c1.606.068,3.215.046,4.824.137a6.2,6.2,0,0,1,2.007.416,2.747,2.747,0,0,1,.673,4.933A9.392,9.392,0,0,1,76.256,37.6a30.416,30.416,0,0,1-16.07-2.422,13.051,13.051,0,0,1-5.9-4.805c-2.1-3.237-1.834-6.623-.363-9.976,1.583-3.608,4.47-6.02,7.768-7.987A34.442,34.442,0,0,1,77.711,7.715C78.913,7.654,80.114,7.567,81.832,7.457Z" transform="translate(-5.566 -7.457)" fill="#fff"/><path d="M228.049,37.362c-2.573,0-5.146.01-7.719-.008a7.209,7.209,0,0,1-1.67-.171,2.746,2.746,0,0,1-1.584-4.644c1.39-1.776,3.389-2.182,5.458-2.216,3.965-.067,7.934.013,11.9-.057a9.507,9.507,0,0,0,3.033-.592c1.67-.611,1.864-2.185.51-3.3L223.371,14.421a2.727,2.727,0,0,1-.349-4.268c2.291-2.642,7.486-3.618,10.615-.98,4.646,3.914,9.484,7.6,14.252,11.372a7.326,7.326,0,0,1,3.015,4.671,7.672,7.672,0,0,1-2.386,6.625,16.487,16.487,0,0,1-9.9,5.065c-3.483.487-7.037.467-10.561.67Z" transform="translate(-15.991 -7.467)" fill="#fff"/><path d="M107.36,19.789c3.837,0,7.665-.021,11.5.019a5.322,5.322,0,0,1,2.017.43c2.155.938,2.47,3.36.676,4.983a7.035,7.035,0,0,1-4.872,1.76q-6.468.03-12.946-.009c-.617,0-.9.15-1.027.784a17.538,17.538,0,0,1-.684,2.389c-.23.658-.125.9.635.891,4.369-.027,8.738-.005,13.106-.014a4.658,4.658,0,0,1,2.871.856,2.8,2.8,0,0,1,.383,4.342,6.369,6.369,0,0,1-4.8,1.9c-7.612.036-15.224.016-22.836.016a1.964,1.964,0,0,1-.241-.01c-2.591-.225-3.379-1.265-2.683-3.742,1.028-3.654,1.825-7.372,2.775-11.047A4.393,4.393,0,0,1,95.782,19.8c3.859-.031,7.718-.008,11.578-.008Z" transform="translate(-7.826 -8.242)" fill="#fff"/><path d="M204.617,38.378a7.8,7.8,0,0,1-3.837-1.151,2.869,2.869,0,0,1-1.255-3.268c.834-3.315,1.644-6.636,2.509-9.945a5.318,5.318,0,0,1,3.973-3.828,17.186,17.186,0,0,1,4.657-.615c2.661,0,4.5,2.083,4.041,4.379-.219,1.071-.566,2.116-.857,3.172-.626,2.265-1.287,4.521-1.872,6.8a5.051,5.051,0,0,1-3.69,3.662C207.1,37.955,205.842,38.12,204.617,38.378Z" transform="translate(-14.914 -8.229)" fill="#fff"/><path d="M109.389,14.764c-3.563,0-7.126.031-10.69-.022a5.37,5.37,0,0,1-2.383-.513,2.645,2.645,0,0,1-.672-4.385,6.665,6.665,0,0,1,4.916-2.234c7.287-.067,14.574-.044,21.861-.013a3.948,3.948,0,0,1,3.122,1.593c1.225,1.535.521,3.691-1.5,4.714a9.589,9.589,0,0,1-4.37.855C116.248,14.779,112.821,14.764,109.389,14.764Z" transform="translate(-8.243 -7.464)" fill="#fff"/><path d="M210.64,16.11a7.5,7.5,0,0,1-3.758-1.018,3.035,3.035,0,0,1-.669-4.863A9.162,9.162,0,0,1,215.924,8.3a3.109,3.109,0,0,1,1.413,4.67c-1.142,1.845-2.981,2.5-4.953,2.916C211.807,16.015,211.216,16.041,210.64,16.11Z" transform="translate(-15.288 -7.469)" fill="#fff"/></g></g></svg>