<svg xmlns="http://www.w3.org/2000/svg" xmlns:xlink="http://www.w3.org/1999/xlink" width="167" height="67" viewBox="0 0 167 67"><defs><clipPath id="a"><rect width="167" height="67" transform="translate(-0.005)" fill="#fff"/></clipPath></defs><g transform="translate(0.005)" clip-path="url(#a)"><g transform="translate(10.435 24.026)"><g transform="translate(0 0)"><path d="M21.9,17.222h-.7c-1.887,0-3.781-.007-5.669.007a4.482,4.482,0,0,0-3.3,1.45,1.521,1.521,0,0,0,.28,2.448,3.689,3.689,0,0,0,2.106.533c4.082.007,8.158.014,12.24,0a4.1,4.1,0,0,0,2.735-1.074,1.673,1.673,0,0,0,.431-2.243Q26.7,11.861,23.372,5.378a3.533,3.533,0,0,0-1.463-1.785,4.134,4.134,0,0,0-4.889.8Q9.727,11.553,2.442,18.726a1.5,1.5,0,0,0,.513,2.667,5.15,5.15,0,0,0,5.026-.9q4.523-4.328,9.053-8.657c.438-.417.9-.821,1.4-1.286C19.6,12.784,20.712,14.938,21.9,17.222Zm90.958-4.814c.246-.109.5-.232.752-.349a7.81,7.81,0,0,0,3.18-2.441A3.383,3.383,0,0,0,116.327,5,7.888,7.888,0,0,0,111.014,3.1c-2.742-.075-5.484-.027-8.226-.007A10.286,10.286,0,0,0,100.9,3.3a3.348,3.348,0,0,0-2.174,1.313,1.586,1.586,0,0,0,.458,2.448,3.787,3.787,0,0,0,1.7.479c2.27.055,4.547.021,6.817.027a3.668,3.668,0,0,1,.985.123c.458.13.889.369.95.916a1.26,1.26,0,0,1-.65,1.162,2.928,2.928,0,0,1-1.764.444c-2.339.007-4.684-.021-7.023.021a4.378,4.378,0,0,0-3.084,1.245,1.637,1.637,0,0,0,.472,2.8,4.548,4.548,0,0,0,1.723.41c2.291.048,4.581.014,6.872.027a2.887,2.887,0,0,1,.93.157.936.936,0,0,1,.39,1.655,2.29,2.29,0,0,1-1.764.7c-2.427,0-4.848,0-7.276.007a4.414,4.414,0,0,0-2.9,1.067,1.83,1.83,0,0,0-.725,1.812,1.938,1.938,0,0,0,2.031,1.511c2.578.007,5.149.021,7.727-.007a30.55,30.55,0,0,0,3.8-.212,10.606,10.606,0,0,0,6.154-3.091,3.034,3.034,0,0,0-.144-4.67C113.927,13.2,113.387,12.825,112.853,12.408Zm-20.4,0c.287-.246.554-.444.786-.677a9.83,9.83,0,0,0,2.407-3.05,3.311,3.311,0,0,0-.465-3.747A5.292,5.292,0,0,0,91.1,3.1c-3.46-.048-6.92-.055-10.38,0a4.238,4.238,0,0,0-3.159,1.422,1.637,1.637,0,0,0,.062,2.3,2.492,2.492,0,0,0,1.908.732c1.976.007,3.945,0,5.922,0,.5,0,1.005-.014,1.5.007a1.164,1.164,0,0,1,1.142.752,1.255,1.255,0,0,1-.335,1.374,1.86,1.86,0,0,1-1.47.506c-2.523,0-5.053-.007-7.576.014a3.746,3.746,0,0,0-2.68,1.183,1.7,1.7,0,0,0,.431,2.872,3.824,3.824,0,0,0,1.621.417c2.174.048,4.349,0,6.523.027.992.014,1.621.533,1.313,1.6-.239.834-.444,1.675-.65,2.516a2.219,2.219,0,0,0,1.969,2.8,7.7,7.7,0,0,0,3.18-.226,3.584,3.584,0,0,0,2.763-2.728c.239-1.21.554-2.407.909-3.59a1.566,1.566,0,0,0-.65-1.874C93.133,12.989,92.846,12.729,92.456,12.408ZM49.4,3.013c-1.074.068-1.819.123-2.571.164A21.532,21.532,0,0,0,36.843,6.1a11.135,11.135,0,0,0-4.848,4.985,6.229,6.229,0,0,0,.226,6.223,8.088,8.088,0,0,0,3.679,3,18.96,18.96,0,0,0,10.024,1.511,5.9,5.9,0,0,0,3.1-1.135,1.713,1.713,0,0,0-.417-3.077,3.757,3.757,0,0,0-1.258-.26c-1-.055-2-.041-3.009-.082a8.206,8.206,0,0,1-3.152-.7A3.516,3.516,0,0,1,40.057,10.6a9.912,9.912,0,0,1,5.2-2.721,17.374,17.374,0,0,1,4.335-.226,4.455,4.455,0,0,0,3.357-1.176,1.676,1.676,0,0,0-.4-2.913,2.857,2.857,0,0,0-.978-.356C50.751,3.095,49.917,3.054,49.4,3.013Zm84.7,18.647c0,.041.007.089.007.13,2.195-.13,4.417-.116,6.585-.417a10.328,10.328,0,0,0,6.175-3.159,4.807,4.807,0,0,0,1.491-4.13,4.545,4.545,0,0,0-1.88-2.913c-2.975-2.352-5.99-4.65-8.889-7.091a5.052,5.052,0,0,0-6.619.609,1.7,1.7,0,0,0,.219,2.66q4.554,3.734,9.108,7.46a1.114,1.114,0,0,1-.321,2.058,5.973,5.973,0,0,1-1.894.369c-2.475.041-4.951-.007-7.419.034a4.076,4.076,0,0,0-3.405,1.381,1.716,1.716,0,0,0,.985,2.9,4.79,4.79,0,0,0,1.039.109C130.892,21.666,132.5,21.66,134.106,21.66ZM63.921,10.213h0c-2.407,0-4.814-.014-7.221.007a2.74,2.74,0,0,0-2.838,2.209c-.595,2.291-1.087,4.609-1.73,6.893-.438,1.545.055,2.195,1.675,2.332a1.107,1.107,0,0,0,.15.007c4.746,0,9.5.014,14.243-.014a3.992,3.992,0,0,0,3-1.183,1.748,1.748,0,0,0-.239-2.708,2.913,2.913,0,0,0-1.792-.533c-2.728.007-5.45-.007-8.178.007-.472,0-.54-.144-.4-.554a10.283,10.283,0,0,0,.424-1.491c.075-.4.253-.492.643-.485,2.694.021,5.381.021,8.076.007a4.384,4.384,0,0,0,3.036-1.1,1.782,1.782,0,0,0-.424-3.111,3.321,3.321,0,0,0-1.258-.267C68.7,10.2,66.308,10.213,63.921,10.213Zm56.242,11.6c.766-.164,1.545-.267,2.284-.5a3.172,3.172,0,0,0,2.3-2.284c.362-1.422.78-2.824,1.169-4.24.185-.656.4-1.313.533-1.976a2.361,2.361,0,0,0-2.523-2.728,10.668,10.668,0,0,0-2.906.383,3.325,3.325,0,0,0-2.475,2.386c-.533,2.065-1.046,4.137-1.566,6.2a1.773,1.773,0,0,0,.786,2.038A4.831,4.831,0,0,0,120.163,21.817ZM64.926,7.567c2.14,0,4.281.007,6.414-.007a5.974,5.974,0,0,0,2.728-.533,1.945,1.945,0,0,0,.937-2.94,2.465,2.465,0,0,0-1.949-.991c-4.547-.021-9.088-.034-13.635.007A4.167,4.167,0,0,0,56.359,4.5a1.649,1.649,0,0,0,.417,2.735,3.313,3.313,0,0,0,1.484.321C60.482,7.587,62.7,7.567,64.926,7.567Zm58.751.834c.362-.041.732-.062,1.087-.137a4.356,4.356,0,0,0,3.091-1.819,1.938,1.938,0,0,0-.882-2.913,5.713,5.713,0,0,0-6.058,1.2,1.9,1.9,0,0,0,.417,3.036A4.781,4.781,0,0,0,123.678,8.4Z" transform="translate(-1.831 -3.013)" fill="#fff"/><path d="M21.9,17.271c-1.183-2.277-2.3-4.431-3.46-6.681-.506.465-.964.868-1.4,1.286Q12.5,16.2,7.98,20.533a5.134,5.134,0,0,1-5.026.9,1.5,1.5,0,0,1-.513-2.667Q9.724,11.593,17.02,4.43a4.145,4.145,0,0,1,4.889-.8,3.533,3.533,0,0,1,1.463,1.785q3.333,6.472,6.646,12.965a1.673,1.673,0,0,1-.431,2.243A4.1,4.1,0,0,1,26.853,21.7c-4.082.014-8.158.007-12.24,0a3.689,3.689,0,0,1-2.106-.533,1.517,1.517,0,0,1-.28-2.448,4.482,4.482,0,0,1,3.3-1.45c1.887-.014,3.781-.007,5.669-.007C21.376,17.271,21.56,17.271,21.9,17.271Z" transform="translate(-1.831 -3.062)"/><path d="M156.875,12.426c.533.417,1.074.786,1.552,1.224a3.035,3.035,0,0,1,.144,4.67,10.606,10.606,0,0,1-6.154,3.091,29.285,29.285,0,0,1-3.8.212c-2.571.027-5.149.014-7.727.007a1.944,1.944,0,0,1-2.031-1.511,1.82,1.82,0,0,1,.725-1.812,4.45,4.45,0,0,1,2.9-1.067c2.427-.007,4.848-.007,7.276-.007a2.3,2.3,0,0,0,1.764-.7.938.938,0,0,0-.39-1.655,2.856,2.856,0,0,0-.93-.157c-2.291-.014-4.581.021-6.872-.027a4.548,4.548,0,0,1-1.723-.41,1.637,1.637,0,0,1-.472-2.8,4.349,4.349,0,0,1,3.084-1.245c2.339-.041,4.684-.021,7.023-.021a2.824,2.824,0,0,0,1.764-.444,1.26,1.26,0,0,0,.65-1.162c-.055-.547-.485-.78-.95-.916a3.668,3.668,0,0,0-.985-.123c-2.27-.007-4.547.027-6.817-.027a3.787,3.787,0,0,1-1.7-.479,1.586,1.586,0,0,1-.458-2.448A3.348,3.348,0,0,1,144.929,3.3a10.286,10.286,0,0,1,1.887-.205c2.742-.021,5.484-.062,8.226.007A7.947,7.947,0,0,1,160.356,5a3.383,3.383,0,0,1,.458,4.622,7.81,7.81,0,0,1-3.18,2.441C157.374,12.2,157.121,12.316,156.875,12.426Z" transform="translate(-45.853 -3.03)"/><path d="M127.3,12.429c.39.321.677.581.985.807a1.552,1.552,0,0,1,.65,1.874c-.349,1.183-.67,2.38-.909,3.59a3.565,3.565,0,0,1-2.763,2.728,7.69,7.69,0,0,1-3.18.226,2.216,2.216,0,0,1-1.969-2.8c.205-.841.41-1.689.65-2.516.308-1.06-.321-1.586-1.313-1.6-2.174-.027-4.349.021-6.523-.027a3.824,3.824,0,0,1-1.621-.417,1.7,1.7,0,0,1-.431-2.872,3.758,3.758,0,0,1,2.68-1.183c2.523-.021,5.053-.014,7.576-.014a1.836,1.836,0,0,0,1.47-.506,1.258,1.258,0,0,0,.335-1.374,1.17,1.17,0,0,0-1.142-.752c-.5-.027-1.005-.014-1.5-.007-1.976,0-3.945.007-5.922,0a2.467,2.467,0,0,1-1.908-.732,1.637,1.637,0,0,1-.062-2.3,4.214,4.214,0,0,1,3.159-1.422c3.46-.062,6.92-.055,10.38,0a5.312,5.312,0,0,1,4.082,1.833,3.323,3.323,0,0,1,.465,3.747,9.91,9.91,0,0,1-2.407,3.05C127.852,11.985,127.585,12.183,127.3,12.429Z" transform="translate(-36.674 -3.034)"/><path d="M63.348,3.013c.513.041,1.347.082,2.168.191a2.857,2.857,0,0,1,.978.356,1.678,1.678,0,0,1,.4,2.913A4.437,4.437,0,0,1,63.54,7.649a17.357,17.357,0,0,0-4.335.226,9.816,9.816,0,0,0-5.2,2.721,3.517,3.517,0,0,0,1.135,5.956,8.235,8.235,0,0,0,3.152.7c1,.041,2,.027,3.009.082a3.933,3.933,0,0,1,1.258.26,1.713,1.713,0,0,1,.417,3.077,5.844,5.844,0,0,1-3.1,1.135A18.96,18.96,0,0,1,49.85,20.3a8.123,8.123,0,0,1-3.679-3,6.229,6.229,0,0,1-.226-6.223A11.168,11.168,0,0,1,50.794,6.1a21.532,21.532,0,0,1,9.99-2.927C61.529,3.136,62.281,3.081,63.348,3.013Z" transform="translate(-15.775 -3.013)"/><path d="M193.268,21.7c-1.607,0-3.207.007-4.814-.007a4.069,4.069,0,0,1-1.039-.109,1.713,1.713,0,0,1-.985-2.9,4.076,4.076,0,0,1,3.405-1.381c2.475-.041,4.951.007,7.419-.034a6.01,6.01,0,0,0,1.894-.369,1.116,1.116,0,0,0,.321-2.058q-4.554-3.734-9.108-7.46a1.7,1.7,0,0,1-.219-2.66,5.046,5.046,0,0,1,6.619-.609c2.9,2.441,5.915,4.739,8.889,7.091a4.562,4.562,0,0,1,1.88,2.913,4.769,4.769,0,0,1-1.491,4.13,10.29,10.29,0,0,1-6.175,3.159c-2.174.3-4.39.294-6.585.417A.359.359,0,0,1,193.268,21.7Z" transform="translate(-60.994 -3.054)"/><path d="M87.671,13.62c2.393,0,4.78-.014,7.173.014A3.321,3.321,0,0,1,96.1,13.9a1.784,1.784,0,0,1,.424,3.111,4.4,4.4,0,0,1-3.036,1.1c-2.694.014-5.381.014-8.076-.007-.383,0-.561.1-.643.485a10.285,10.285,0,0,1-.424,1.491c-.144.41-.075.561.4.554,2.721-.014,5.45,0,8.178-.007a2.913,2.913,0,0,1,1.792.533,1.748,1.748,0,0,1,.239,2.708,3.947,3.947,0,0,1-3,1.183c-4.746.021-9.5.014-14.243.014a1.107,1.107,0,0,1-.15-.007c-1.614-.137-2.106-.786-1.675-2.332.643-2.277,1.135-4.6,1.73-6.893a2.746,2.746,0,0,1,2.838-2.209c2.393-.021,4.8-.007,7.214-.007Z" transform="translate(-25.581 -6.42)"/><path d="M174.653,25.168a4.852,4.852,0,0,1-2.393-.718,1.791,1.791,0,0,1-.786-2.038c.52-2.065,1.033-4.137,1.566-6.2a3.314,3.314,0,0,1,2.475-2.386,10.668,10.668,0,0,1,2.906-.383,2.364,2.364,0,0,1,2.523,2.728c-.137.67-.356,1.32-.533,1.976-.39,1.415-.8,2.817-1.169,4.24a3.14,3.14,0,0,1-2.3,2.284A21.563,21.563,0,0,1,174.653,25.168Z" transform="translate(-56.321 -6.363)"/><path d="M90.484,7.6c-2.222,0-4.445.021-6.667-.014a3.313,3.313,0,0,1-1.484-.321,1.649,1.649,0,0,1-.417-2.735,4.166,4.166,0,0,1,3.063-1.395c4.547-.041,9.088-.027,13.635-.007a2.465,2.465,0,0,1,1.949.991,1.941,1.941,0,0,1-.937,2.94,5.957,5.957,0,0,1-2.728.533C94.758,7.6,92.624,7.6,90.484,7.6Z" transform="translate(-27.389 -3.042)"/><path d="M179.786,8.451a4.7,4.7,0,0,1-2.345-.636,1.9,1.9,0,0,1-.417-3.036,5.713,5.713,0,0,1,6.058-1.2,1.938,1.938,0,0,1,.882,2.913,4.356,4.356,0,0,1-3.091,1.819A9.651,9.651,0,0,1,179.786,8.451Z" transform="translate(-57.94 -3.063)"/></g></g></g></svg>