<svg xmlns="http://www.w3.org/2000/svg" xmlns:xlink="http://www.w3.org/1999/xlink" width="189" height="56" viewBox="0 0 189 56"><defs><clipPath id="a"><rect width="189" height="56" transform="translate(989.793 2668.8)" fill="#fff" stroke="#707070" stroke-width="1"/></clipPath></defs><g transform="translate(-989.793 -2668.799)" clip-path="url(#a)"><g transform="translate(1004.445 2669)"><path d="M63.21,54.364c-.763,2.386-1.443,4.575-2.182,6.743a1.339,1.339,0,0,1-.758.593,2.508,2.508,0,0,1-.867.027q-19.65,0-39.307-.005A11.01,11.01,0,0,1,13.028,59.5C9.874,57,9.454,53.548,10.353,49.971c.932-3.7,2.244-7.312,3.419-10.947q2.855-8.834,5.752-17.661c.9-2.742,1.622-5.55,2.753-8.186,2.011-4.7,5.778-6.954,10.869-7.023H159.717a9.568,9.568,0,0,1,7,2.594,9.206,9.206,0,0,1,2.468,9.651c-1.108,3.81-2.361,7.579-3.586,11.353-1.9,5.859-3.787,11.724-5.78,17.548-1.091,3.188-1.779,6.539-3.809,9.371a10.22,10.22,0,0,1-6.195,4.354,23.808,23.808,0,0,1-4.862.665c-8.43.065-16.861.014-25.291.05-1.032.005-1.385-.256-1.36-1.331a43.546,43.546,0,0,0-.241-4.467c-.091-1.181.091-1.432,1.28-1.433,7.3,0,14.6.059,21.9-.051a14.845,14.845,0,0,0,4.963-1.042c2.285-.875,3.343-2.987,4.071-5.157,2.628-7.841,5.175-15.708,7.76-23.564.558-1.7,1.162-3.375,1.719-5.071a4.533,4.533,0,0,0-1.334-5.152,6.193,6.193,0,0,0-2.1-.838,10.165,10.165,0,0,0-2.179-.122q-58.742-.007-117.482,0c-3.994,0-5.817,1.4-7.038,5.21-2.458,7.668-5,15.311-7.467,22.975-.87,2.7-1.731,5.413-2.388,8.17a3.5,3.5,0,0,0,3.077,4.34,14.627,14.627,0,0,0,2.4.08q18.395.006,36.788.005C62.368,54.293,62.719,54.334,63.21,54.364Z" transform="translate(-9.938 -6.154)" fill="#fff"/><path d="M121.681,27.326a7.535,7.535,0,0,0,.594-1.371c.2-1.013.744-1.336,1.769-1.312,2.736.065,5.475.018,8.212.024,1.32,0,1.389.075,1,1.273-1.578,4.85-3.18,9.693-4.753,14.543q-2.637,8.107-5.246,16.222c-.526,1.629-1.018,3.269-1.576,4.887a7.11,7.11,0,0,1-6.289,4.7c-9.38.053-18.76.021-28.141.017a3.454,3.454,0,0,1-.543-.107c.232-.758.439-1.474.671-2.182.452-1.385,1-2.742,1.353-4.152.229-.908.684-1.13,1.542-1.126,6.315.026,12.628.012,18.943.014a2.914,2.914,0,0,0,3.1-2.226q3.66-11.048,7.3-22.107c.406-1.231-.046-2.005-1.345-2.187a19.405,19.405,0,0,0-2.621-.085q-4.49-.013-8.979,0a3.236,3.236,0,0,0-3.4,2.482c-.884,2.778-1.775,5.553-2.651,8.335-.473,1.507.166,2.365,1.8,2.376,3.066.021,6.132.006,9.2.006h2.185c-.811,2.431-1.531,4.668-2.325,6.877a1.167,1.167,0,0,1-.914.53c-4.963.031-9.928.064-14.891,0-2.44-.033-5.554-2.37-6.043-4.68a7.8,7.8,0,0,1,.305-3.731c1.457-4.735,3.068-9.422,4.6-14.134,1.065-3.267,3.3-5.21,6.71-5.327,5.135-.177,10.279-.129,15.419-.067A6.066,6.066,0,0,1,121.681,27.326Z" transform="translate(-29.028 -10.751)" fill="#fff"/><path d="M69.127,27.241c.143-.126.183-.144.195-.175.975-2.391.974-2.392,3.575-2.391q3.447,0,6.9,0c.356,0,.712.035,1.232.062a11,11,0,0,1-.244,1.213c-2.742,8.455-5.54,16.891-8.183,25.376-.408,1.308-.973,1.506-2.123,1.479-2.7-.064-5.4-.017-8.1-.024-.385,0-.77-.046-1.3-.08,1.065-3.286,2.076-6.43,3.1-9.567.907-2.768,1.866-5.52,2.734-8.3.6-1.915,0-2.672-2.016-2.679q-5.254-.016-10.511,0a3.022,3.022,0,0,0-3.192,2.285c-.993,2.931-1.947,5.878-2.88,8.829-.348,1.1.069,1.737,1.219,1.978a6.544,6.544,0,0,0,1.305.1q4.653.013,9.305.006h1.378c-.457,1.442-.85,2.707-1.259,3.968-.28.866-.654,1.708-.849,2.592-.166.755-.58.881-1.243.879-4.853-.016-9.706.034-14.559-.039a10.577,10.577,0,0,1-3.516-.67c-2.384-.9-3.419-3.528-2.526-6.457,1.318-4.32,2.742-8.607,4.156-12.9a31.605,31.605,0,0,1,1.593-4.286,6.518,6.518,0,0,1,6.163-3.628c4.412-.083,8.825-.1,13.238-.138.366,0,.727.052,1.09.081a7.1,7.1,0,0,1,4.79,2.111A3.175,3.175,0,0,0,69.127,27.241Z" transform="translate(-16.729 -10.76)" fill="#fff"/><path d="M162.977,43.873c.468-.7.956-1.382,1.4-2.095,3.388-5.439,6.757-10.89,10.171-16.313a1.705,1.705,0,0,1,1.165-.756c3.357-.061,6.715-.038,10.072-.031a4.558,4.558,0,0,1,.765.159c-.644,1.079-1.216,2.066-1.816,3.036Q177.283,39.9,169.8,51.911a1.827,1.827,0,0,1-1.216.84c-5.036.057-10.072.035-15.109.029a4.464,4.464,0,0,1-.537-.078c-.174-2.32-.352-4.627-.517-6.937q-.5-6.919-.988-13.839c-.146-2.033-.287-4.066-.466-6.1-.074-.836.188-1.181,1.079-1.167q4.05.064,8.1,0c.914-.016,1.151.322,1.2,1.206.343,5.6.749,11.189,1.144,16.782a9.567,9.567,0,0,0,.195,1.068Z" transform="translate(-45.004 -10.756)" fill="#fff"/></g></g></svg>