<svg xmlns="http://www.w3.org/2000/svg" xmlns:xlink="http://www.w3.org/1999/xlink" width="169" height="67" viewBox="0 0 169 67"><defs><clipPath id="a"><rect width="169" height="67" transform="translate(-0.016)" fill="#fff"/></clipPath></defs><g transform="translate(0.016)" clip-path="url(#a)"><g transform="translate(13.918 8.746)"><g transform="translate(0 0)"><path d="M54.687,50.8c-.675,2.124-1.286,4.077-1.945,6.005a1.223,1.223,0,0,1-.675.529,2.219,2.219,0,0,1-.773.024q-17.5,0-35-.008a9.784,9.784,0,0,1-6.29-1.977c-2.807-2.23-3.182-5.305-2.384-8.487.83-3.3,1.994-6.51,3.043-9.748q2.539-7.872,5.118-15.721c.8-2.441,1.44-4.939,2.449-7.291,1.79-4.182,5.143-6.192,9.675-6.249h112.68a8.5,8.5,0,0,1,6.233,2.311,8.2,8.2,0,0,1,2.2,8.593c-.985,3.393-2.1,6.746-3.19,10.106-1.692,5.216-3.369,10.44-5.143,15.623-.968,2.84-1.587,5.818-3.393,8.34a9.09,9.09,0,0,1-5.517,3.873,21.654,21.654,0,0,1-4.329.594c-7.5.057-15.013.008-22.515.049-.919.008-1.229-.228-1.212-1.188a38.341,38.341,0,0,0-.212-3.979c-.081-1.05.081-1.278,1.139-1.278,6.5-.008,12.995.049,19.5-.049a13.363,13.363,0,0,0,4.418-.928c2.034-.781,2.978-2.661,3.621-4.589,2.343-6.981,4.605-13.987,6.908-20.977.5-1.505,1.033-3,1.53-4.516a4.04,4.04,0,0,0-1.188-4.589,5.612,5.612,0,0,0-1.871-.749,9.046,9.046,0,0,0-1.937-.106q-52.3-.012-104.592,0c-3.556,0-5.175,1.253-6.265,4.638-2.189,6.827-4.451,13.629-6.648,20.448-.773,2.4-1.538,4.817-2.124,7.274a3.12,3.12,0,0,0,2.742,3.865,13.311,13.311,0,0,0,2.132.073q16.38,0,32.751.008C53.938,50.733,54.255,50.765,54.687,50.8Z" transform="translate(-7.255 -7.875)"/><path d="M116.421,29.047a6.886,6.886,0,0,0,.529-1.221c.171-.9.659-1.188,1.579-1.172,2.433.057,4.874.016,7.307.024,1.172,0,1.237.065.887,1.131-1.408,4.321-2.832,8.625-4.239,12.946q-2.343,7.213-4.671,14.443c-.472,1.448-.9,2.913-1.4,4.353a6.327,6.327,0,0,1-5.6,4.182c-8.348.049-16.705.016-25.054.016a3.078,3.078,0,0,1-.48-.1c.2-.675.391-1.31.594-1.945.407-1.229.887-2.441,1.2-3.694.2-.806.61-1.009,1.375-1,5.623.024,11.245.008,16.868.016a2.592,2.592,0,0,0,2.758-1.985q3.259-9.838,6.5-19.683c.358-1.1-.041-1.782-1.2-1.945a17.148,17.148,0,0,0-2.335-.073c-2.661-.008-5.33-.008-7.99,0a2.88,2.88,0,0,0-3.027,2.213q-1.184,3.71-2.36,7.421c-.423,1.343.146,2.107,1.6,2.116,2.726.016,5.46.008,8.186.008h1.945c-.724,2.164-1.359,4.158-2.067,6.119a1.04,1.04,0,0,1-.814.472c-4.418.024-8.837.057-13.255,0-2.173-.033-4.947-2.107-5.379-4.166a6.873,6.873,0,0,1,.269-3.312c1.294-4.215,2.734-8.389,4.1-12.58.952-2.913,2.946-4.638,5.973-4.744,4.573-.155,9.154-.114,13.727-.057A5.34,5.34,0,0,1,116.421,29.047Z" transform="translate(-33.927 -14.295)"/><path d="M63.4,28.978c.13-.114.163-.13.171-.155.871-2.132.871-2.132,3.182-2.132,2.051,0,4.093,0,6.143.008.317,0,.635.033,1.1.057a9.011,9.011,0,0,1-.22,1.082c-2.441,7.527-4.931,15.037-7.283,22.6-.366,1.164-.871,1.343-1.888,1.318-2.4-.057-4.809-.016-7.209-.024-.342,0-.684-.041-1.164-.073.944-2.929,1.847-5.72,2.758-8.519.806-2.465,1.66-4.915,2.433-7.388.529-1.709,0-2.376-1.8-2.384-3.116-.008-6.241-.008-9.357,0a2.688,2.688,0,0,0-2.84,2.034c-.887,2.612-1.733,5.232-2.563,7.86-.309.985.057,1.546,1.082,1.758a6.127,6.127,0,0,0,1.164.09c2.758.008,5.525.008,8.283.008h1.229c-.407,1.286-.757,2.409-1.123,3.531a23.935,23.935,0,0,0-.757,2.311c-.146.675-.513.781-1.107.781-4.321-.016-8.641.033-12.962-.033a9.589,9.589,0,0,1-3.133-.594c-2.124-.806-3.043-3.141-2.246-5.753,1.172-3.849,2.441-7.665,3.7-11.481a29.778,29.778,0,0,1,1.416-3.816A5.786,5.786,0,0,1,45.9,26.83c3.93-.073,7.86-.09,11.782-.122.325,0,.651.049.968.073a6.315,6.315,0,0,1,4.264,1.88A4.6,4.6,0,0,0,63.4,28.978Z" transform="translate(-16.744 -14.308)"/><path d="M161.282,43.779c.415-.618.854-1.229,1.245-1.863,3.019-4.841,6.013-9.7,9.056-14.524a1.531,1.531,0,0,1,1.042-.675c2.986-.057,5.981-.033,8.967-.024a4.539,4.539,0,0,1,.684.138c-.578.96-1.082,1.839-1.619,2.7q-6.64,10.7-13.3,21.4a1.65,1.65,0,0,1-1.082.749c-4.483.049-8.967.033-13.45.024a3.15,3.15,0,0,1-.48-.073c-.155-2.067-.309-4.117-.464-6.176q-.439-6.164-.879-12.319c-.13-1.806-.252-3.621-.415-5.427-.065-.749.171-1.05.96-1.042,2.4.041,4.809.041,7.209,0,.814-.016,1.025.285,1.074,1.074.3,4.98.667,9.96,1.017,14.939.024.317.114.635.171.952C161.119,43.689,161.2,43.73,161.282,43.779Z" transform="translate(-56.249 -14.299)"/></g></g></g></svg>