<svg xmlns="http://www.w3.org/2000/svg" xmlns:xlink="http://www.w3.org/1999/xlink" width="168" height="67" viewBox="0 0 168 67"><defs><clipPath id="a"><rect width="168" height="67" transform="translate(-0.01)" fill="#fff"/></clipPath></defs><g transform="translate(0.01)" clip-path="url(#a)"><g transform="translate(10.553 20.617)"><g transform="translate(0 0)"><path d="M121.109,21.218h-1.8a2.418,2.418,0,0,0-2.52,1.8q-1.219,3.38-2.444,6.753c-.314.867-.314.867-1.256.867q-13.8,0-27.585.014c-.464,0-.676-.075-.649-.587.02-.485-.082-.976-.082-1.468,0-.307-.137-.348-.4-.348-1.68.007-3.353.014-5.032,0a.628.628,0,0,0-.574.314c-.43.608-.881,1.2-1.311,1.809a.531.531,0,0,1-.492.28q-6.3-.01-12.6-.007a.772.772,0,0,1-.1-.027c-.034-.164.1-.232.184-.328,4.834-5.64,9.648-11.294,14.51-16.906a10.435,10.435,0,0,1,7.484-3.9c2.294-.116,4.6-.014,6.91-.02.273,0,.335.109.362.348q.666,6.227,1.338,12.461a6.021,6.021,0,0,0,.253,1.3c.389-1.045.806-2.083,1.154-3.148a9.079,9.079,0,0,1,9.088-6.343c1.454.014,2.916.02,4.37-.007.444-.007.464.116.307.471-.2.478-.362.976-.574,1.557A13.6,13.6,0,0,1,112.294,15a14.513,14.513,0,0,1,3.906-.56c3.523.007,7.047,0,10.57,0h.594c-.157.444-.3.854-.451,1.27.2.089.335-.061.478-.116a23.68,23.68,0,0,1,10.761-1.407,17.3,17.3,0,0,1,3.237.58c1.632.471,2.328.908,4.213,2.629.69-1.98,1.379-3.947,2.062-5.913.2-.574.41-1.14.594-1.721.061-.2.13-.341.376-.307.068.007.137,0,.2,0h11.021c-.58,1.666-1.147,3.3-1.721,4.971,1.4.034,2.772-.034,4.131.109a10.328,10.328,0,0,1,4.254,1.222,4.536,4.536,0,0,1,2.1,5.585c-1.024,3-2.1,5.981-3.148,8.979a.412.412,0,0,1-.471.328c-3.557-.007-7.115-.014-10.665.007-.492,0-.321-.232-.239-.464q1.5-4.3,3-8.6c.034-.1.061-.191.116-.362h-1.277c-.28,0-.246.253-.3.4q-1.5,4.25-2.957,8.508a.617.617,0,0,1-.7.512c-3.469-.02-6.944-.014-10.413-.014-.56,0-.56,0-.376-.546.171-.492.341-.983.546-1.57a16.439,16.439,0,0,1-3.537,1.5,23.67,23.67,0,0,1-12.42.355,7.8,7.8,0,0,1-3.68-2.048,5.686,5.686,0,0,1-1.393-5.544C120.8,22.27,120.959,21.771,121.109,21.218Z" transform="translate(-21.202 -5.585)"/><path d="M2.247,35.013c.833.089,1.625.191,2.424.253a43.043,43.043,0,0,0,21.351-3.394A17.362,17.362,0,0,0,32.509,27.2c.143-.171.239-.178.4-.075a25.233,25.233,0,0,1,6.282,4.923,4.344,4.344,0,0,1,.71,1.045,1.145,1.145,0,0,1-.683,1.755,15.423,15.423,0,0,1-2.649.69A74.672,74.672,0,0,1,23.011,36.9a104.9,104.9,0,0,1-14.933-.751q-2.817-.348-5.606-.908C2.4,35.232,2.308,35.232,2.247,35.013Z" transform="translate(-1.593 -11.159)"/><path d="M24.022,13.5a1.726,1.726,0,0,1-.7-.075c-.376-.041-.908.109-1.079-.184-.116-.2.2-.669.341-1.011a21.2,21.2,0,0,1,4.186-6.705,2.842,2.842,0,0,1,.287-.287,1.568,1.568,0,0,1,2.424-.075c1.038.84,2.055,1.7,3.073,2.567.382.328.744.683,1.113,1.031.014.294-.239.348-.423.43C30.591,10.4,27.962,11.685,25.3,12.88,24.869,13.071,24.459,13.31,24.022,13.5Z" transform="translate(-7.909 -4.068)"/><path d="M8.009,18.329a43,43,0,0,1,3.107-3.919A57.249,57.249,0,0,1,22.75,4.072c.137-.1.287-.178.43-.259.02-.014.055.014.116.027a4.224,4.224,0,0,1-.744.737,21.333,21.333,0,0,0-6.1,9.3c-.082.273-.171.546-.259.819a7.677,7.677,0,0,1-1.8.915c-1.905.908-3.81,1.809-5.736,2.67C8.452,18.37,8.241,18.541,8.009,18.329Z" transform="translate(-3.415 -3.809)"/><path d="M22.765,28.549a12.744,12.744,0,0,1-.717-2.84,11.7,11.7,0,0,1,2.021-1.024c2.124-1.024,4.295-1.966,6.4-3.025a13.037,13.037,0,0,1,2.615.86c.492.191.963.444,1.448.662.13.294-.137.341-.287.423-.635.348-1.311.621-1.966.929q-4.384,2.038-8.76,4.083C23.264,28.733,22.984,28.917,22.765,28.549Z" transform="translate(-7.854 -9.453)" fill="#f4908e"/><path d="M13.627,26.655c.075.778.15,1.557.225,2.328.143.348-.027.526-.328.669-2.977,1.372-5.94,2.765-8.917,4.138a.955.955,0,0,0-.574.662,4.454,4.454,0,0,1-2.39-.471.807.807,0,0,1-.328-.915,2.557,2.557,0,0,1,.505-1.127C3,31.345,4.2,30.813,5.393,30.253q2.632-1.239,5.278-2.451c.8-.369,1.584-.758,2.39-1.1C13.238,26.614,13.429,26.491,13.627,26.655Z" transform="translate(-1.291 -11.008)" fill="#6b6c6e"/><path d="M13.876,25.294a11.394,11.394,0,0,0-2.41,1.031c-2.294,1.038-4.554,2.13-6.835,3.2-.7.328-1.413.642-2.117.963a.756.756,0,0,1-.437.089A32.6,32.6,0,0,1,4.508,26.51c3.018-1.311,5.968-2.772,8.958-4.138.164-.075.341-.171.519-.02-.041.574-.075,1.154-.116,1.728a3.627,3.627,0,0,0,0,1.017C13.869,25.158,13.876,25.226,13.876,25.294Z" transform="translate(-1.539 -9.647)" fill="#4b4b4d"/><path d="M35.8,24.185c.526.266,1.045.546,1.584.792.314.143.341.253.109.533a18.9,18.9,0,0,1-7.832,5.674,40.981,40.981,0,0,1-4.186,1.359c-.457.13-.69.041-.84-.389a4.458,4.458,0,0,0-.253-.553c0-.253.218-.273.382-.335a30.007,30.007,0,0,0,8.754-5.094,20.534,20.534,0,0,0,1.755-1.6A.992.992,0,0,1,35.8,24.185Z" transform="translate(-8.593 -10.252)" fill="#ec1c24"/><path d="M30.316,20.96c-.048.232-.253.3-.43.382-1.83.86-3.66,1.728-5.5,2.561a20.335,20.335,0,0,1-2.492,1.106,9.816,9.816,0,0,1-.287-2.137,17.457,17.457,0,0,1,.082-2.984c.027-.3.116-.457.464-.437a36.867,36.867,0,0,1,7.217,1.188C29.695,20.728,30,20.851,30.316,20.96Z" transform="translate(-7.703 -8.755)" fill="#f1706d"/><path d="M45.062,17.92a48.963,48.963,0,0,1,5.087,6.753,46.578,46.578,0,0,1,3.093,5.647,26.6,26.6,0,0,0-10.72-8.952c-.143-.225.007-.389.137-.539a32.221,32.221,0,0,0,2.1-2.711C44.823,18.023,44.885,17.872,45.062,17.92Z" transform="translate(-14.31 -8.268)"/><path d="M36.944,12.3a21.208,21.208,0,0,1,2.287,2.212,4.686,4.686,0,0,1-1.318.724c-1.536.731-3.086,1.42-4.616,2.171-.1.048-.2.123-.335.075-1.42-.376-2.834-.751-4.254-1.133.014-.294.259-.376.471-.471,1.7-.778,3.387-1.6,5.087-2.376C35.161,13.1,36.022,12.644,36.944,12.3Z" transform="translate(-9.961 -6.495)" fill="#4d4d4f"/><path d="M35.394,24.089a29.083,29.083,0,0,1-9.99,6.794,7.73,7.73,0,0,0-1.427.608,14.469,14.469,0,0,1-.881-2.246c.253.191.471.061.7-.048,1.325-.621,2.663-1.229,3.988-1.844q3.339-1.557,6.678-3.134c.157-.075.376-.089.4-.335C35.073,23.857,35.224,24,35.394,24.089Z" transform="translate(-8.186 -10.156)" fill="#f8b7bc"/><path d="M34.94,18.508A20.959,20.959,0,0,1,37.569,17.2c1.086-.553,2.2-1.045,3.3-1.557a2.713,2.713,0,0,1,.335-.1,12.441,12.441,0,0,1,1.482,1.632,38.966,38.966,0,0,1-2.39,3.1c-.082.1-.2.2-.15.355A52.869,52.869,0,0,0,34.94,18.508Z" transform="translate(-11.931 -7.518)" fill="#6f7073"/><path d="M5.319,35.477c-.246-.246-.2-.4.116-.553,2.41-1.113,4.807-2.233,7.217-3.353.676-.314,1.352-.615,2.035-.915.259-.109.437-.246.389-.56.225.621.178,1.3.41,1.926.137.335-.1.457-.328.574-.847.423-1.714.792-2.561,1.209-1.106.539-2.26.976-3.318,1.618a19.231,19.231,0,0,1-3.653.2A.4.4,0,0,1,5.319,35.477Z" transform="translate(-2.514 -12.122)" fill="#7b7c7f"/><path d="M35.725,11.788a1.972,1.972,0,0,1-.86.505c-1.98.935-3.967,1.857-5.954,2.786a4.168,4.168,0,0,0-1.413.758c-.881-.143-1.762-.287-2.642-.423a1.1,1.1,0,0,1,.56-.417q4.2-1.956,8.405-3.906a1.451,1.451,0,0,0,.683-.417A5.57,5.57,0,0,1,35.725,11.788Z" transform="translate(-8.742 -5.98)" fill="#262627"/><path d="M15.116,21.541a4.865,4.865,0,0,0-1.482.615c-2.356,1.079-4.691,2.192-7.04,3.3a1.77,1.77,0,0,1-.963.253,21.273,21.273,0,0,1,1.625-2.335,2.588,2.588,0,0,0,1.174-.417c2.219-1.017,4.425-2.069,6.637-3.1a3.132,3.132,0,0,1,.382-.123C15.335,20.333,15.225,20.933,15.116,21.541Z" transform="translate(-2.663 -8.844)" fill="#262627"/><path d="M4.256,37.313a24.475,24.475,0,0,0,4.063-.2,4.707,4.707,0,0,1,1.441-.259,44.938,44.938,0,0,0,4.684-.881c.225-.055.457-.15.676.034.4,1.058.4,1.065-.751,1.236a42.583,42.583,0,0,1-10.461.389,3.351,3.351,0,0,1-2.11-.71A10.423,10.423,0,0,0,4.256,37.313Z" transform="translate(-1.451 -13.957)"/><path d="M18.145,35.061c-.9.075-1.748.41-2.636.56a27.6,27.6,0,0,1-4.165.546,4.765,4.765,0,0,1,1.611-.881c1.386-.683,2.8-1.318,4.2-1.966.184-.089.307-.2.294-.417C17.68,33.627,17.912,34.344,18.145,35.061Z" transform="translate(-4.47 -13.009)" fill="#8b8c8f"/><path d="M19.275,25.922a1.314,1.314,0,0,1,0-1.017Z" transform="translate(-6.945 -10.48)" fill="#6b6c6e"/><path d="M69.63,29.692c1.1-1.284,2.124-2.472,3.141-3.667,3.052-3.557,6.084-7.129,9.156-10.665a9.437,9.437,0,0,1,5.715-3.312,5.347,5.347,0,0,1,.806-.068c1.646-.007,3.284.007,4.93-.007.3,0,.444.055.478.389.376,3.585.765,7.163,1.147,10.747.218,2.035.437,4.07.676,6.1.041.362.007.492-.417.492-2.2-.027-4.4-.02-6.6-.007-.335,0-.478-.061-.478-.437.007-.539-.075-1.079-.1-1.618-.014-.246-.1-.341-.362-.341-2.554.014-5.114.014-7.668,0a.49.49,0,0,0-.437.266c-.451.615-.9,1.222-1.345,1.844a.549.549,0,0,1-.492.287C75.106,29.685,72.43,29.692,69.63,29.692Z" transform="translate(-22.9 -6.391)" fill="#fefefe"/><path d="M194.068,11.977c-.58,1.673-1.147,3.312-1.734,4.991,1.352,0,2.649.007,3.953,0a13.937,13.937,0,0,1,5.244.71,3.086,3.086,0,0,1,2.253,2.608,3.2,3.2,0,0,1-.191,1.393c-.894,2.547-1.8,5.087-2.69,7.641a.468.468,0,0,1-.539.376q-3.452-.02-6.9,0c-.389,0-.4-.116-.287-.43.758-2.144,1.5-4.3,2.253-6.453a2.818,2.818,0,0,0,.212-.881,1.445,1.445,0,0,0-1.379-1.625c-.963-.061-1.926-.007-2.888-.02-.314-.007-.28.253-.335.417-.99,2.82-1.98,5.64-2.936,8.467a.647.647,0,0,1-.744.526c-2.253-.02-4.5-.02-6.753,0-.4,0-.485-.061-.341-.471q2.96-8.429,5.886-16.872c.061-.184.068-.389.362-.389C189.015,11.977,191.521,11.977,194.068,11.977Z" transform="translate(-57.863 -6.387)" fill="#fefefe"/><path d="M162.589,18.762a15.592,15.592,0,0,1,6.391,1.106,4.033,4.033,0,0,1,2.629,4.445,7.087,7.087,0,0,1-1.386,3.339,9.263,9.263,0,0,1-4.377,3.161,21.8,21.8,0,0,1-12.666.867,6.749,6.749,0,0,1-2.424-1.113,3.873,3.873,0,0,1-1.639-4.029,7.506,7.506,0,0,1,4.083-5.6,18.184,18.184,0,0,1,6.692-2.035A19.952,19.952,0,0,1,162.589,18.762Z" transform="translate(-48.015 -8.537)" fill="#fefefe"/><path d="M143.706,19.282c-.4,1.086-.785,2.1-1.14,3.114-.089.253-.266.212-.444.212h-4.063a4.076,4.076,0,0,0-4.07,2.9c-.724,2.035-1.475,4.056-2.2,6.091a.514.514,0,0,1-.567.417q-3.5-.02-7.006-.007c-.314,0-.464-.007-.321-.4.983-2.622,1.926-5.258,2.909-7.88a6.291,6.291,0,0,1,3.919-3.646,11.419,11.419,0,0,1,4.158-.792Z" transform="translate(-40.043 -8.702)" fill="#fefefe"/><path d="M109.533,31.793q.676-1.813,1.338-3.612c.58-1.57,1.127-3.148,1.734-4.7a7.221,7.221,0,0,1,6.924-4.7c.731,0,1.454.02,2.185-.007.41-.02.485.075.335.464-1.038,2.779-2.062,5.572-3.086,8.358-.478,1.3-.963,2.595-1.434,3.9-.082.225-.157.369-.444.369-2.451-.014-4.909-.007-7.361-.014C109.67,31.834,109.622,31.814,109.533,31.793Z" transform="translate(-35.518 -8.54)" fill="#fefefe"/><path d="M88.823,26.135c.007-.082,0-.123.02-.143q2.264-2.888,4.534-5.79c.157.143.089.321.1.471.15,1.68.273,3.359.437,5.039.034.355-.055.43-.389.423C91.964,26.121,90.414,26.135,88.823,26.135Z" transform="translate(-28.969 -8.992)"/><path d="M162.868,30.295c-.13,0-.3.007-.471,0a1.83,1.83,0,0,1-1.857-1.878,5.04,5.04,0,0,1,4.855-4.841c1.68.041,2.363.935,1.932,2.561a7.942,7.942,0,0,1-.867,2.151A3.8,3.8,0,0,1,162.868,30.295Z" transform="translate(-51.647 -10.059)"/><path d="M163.811,29.356c-.69-.007-.737-.068-.519-.724a3.483,3.483,0,0,1,1.659-2.192c.457-.232,1.058-.492,1.427-.191.287.239-.123.792-.253,1.188a3.465,3.465,0,0,1-.813,1.325A1.952,1.952,0,0,1,163.811,29.356Z" transform="translate(-52.481 -10.862)" fill="#fefefe"/></g></g></g></svg>