<svg xmlns="http://www.w3.org/2000/svg" xmlns:xlink="http://www.w3.org/1999/xlink" width="107" height="32" viewBox="0 0 107 32"><defs><clipPath id="a"><rect width="107" height="32" transform="translate(0.253 0.221)" fill="#fff" stroke="#707070" stroke-width="1"/></clipPath></defs><g transform="translate(-0.253 -0.221)" clip-path="url(#a)"><g transform="translate(0.385 6.802)"><path d="M7.879,38.081c.6.064,1.176.139,1.752.185A31.118,31.118,0,0,0,25.07,35.812a12.528,12.528,0,0,0,4.69-3.383c.1-.123.171-.126.294-.053a18.157,18.157,0,0,1,4.542,3.561,3.163,3.163,0,0,1,.511.755.83.83,0,0,1-.491,1.27,11.209,11.209,0,0,1-1.914.5,54.021,54.021,0,0,1-9.8.987,76.464,76.464,0,0,1-10.8-.543q-2.039-.247-4.054-.657C7.989,38.238,7.924,38.239,7.879,38.081Z" transform="translate(-7.41 -20.833)" fill="#fff"/><path d="M32.4,12.678a1.277,1.277,0,0,1-.5-.055c-.272-.029-.655.078-.778-.131-.085-.144.148-.482.247-.731A15.359,15.359,0,0,1,34.4,6.915c.067-.072.135-.142.207-.208a1.132,1.132,0,0,1,1.75-.055c.749.608,1.486,1.231,2.221,1.856.278.236.536.494.8.743.008.212-.173.252-.308.313-1.922.874-3.819,1.8-5.747,2.666C33.013,12.368,32.717,12.542,32.4,12.678Z" transform="translate(-20.755 -5.857)" fill="#fff"/><path d="M14.576,15.806A31.236,31.236,0,0,1,16.82,12.97,41.437,41.437,0,0,1,25.234,5.5c.1-.067.207-.128.313-.188.014-.007.041.009.086.021a3.062,3.062,0,0,1-.537.533,15.428,15.428,0,0,0-4.412,6.722c-.06.2-.124.395-.186.592a5.683,5.683,0,0,1-1.3.663c-1.377.656-2.757,1.308-4.149,1.932C14.9,15.835,14.746,15.957,14.576,15.806Z" transform="translate(-11.258 -5.307)" fill="#fff"/><path d="M31.411,31.033a9.23,9.23,0,0,1-.52-2.055,8.8,8.8,0,0,1,1.46-.74c1.537-.74,3.1-1.423,4.63-2.189a9.348,9.348,0,0,1,1.889.623c.358.136.7.318,1.047.48.092.21-.1.247-.208.306-.46.253-.947.452-1.422.673q-3.166,1.476-6.334,2.95C31.77,31.167,31.569,31.3,31.411,31.033Z" transform="translate(-20.633 -17.225)" fill="#fff"/><path d="M15.7,31.821l.163,1.685c.1.252-.021.381-.239.481-2.151.99-4.295,2-6.445,2.99a.691.691,0,0,0-.415.479,3.183,3.183,0,0,1-1.728-.342.588.588,0,0,1-.237-.661,1.876,1.876,0,0,1,.367-.814c.849-.428,1.718-.814,2.579-1.218q1.9-.892,3.815-1.773c.577-.265,1.143-.55,1.728-.8C15.414,31.8,15.55,31.706,15.7,31.821Z" transform="translate(-6.777 -20.51)" fill="#fff"/><path d="M16.219,28.944a8.413,8.413,0,0,0-1.743.745c-1.657.748-3.294,1.54-4.941,2.311-.508.238-1.022.462-1.53.7a.571.571,0,0,1-.317.066,23.555,23.555,0,0,1,1.759-2.939c2.182-.948,4.314-2.006,6.479-2.991.121-.055.247-.124.376-.017l-.086,1.25a2.756,2.756,0,0,0,0,.735Z" transform="translate(-7.3 -17.633)" fill="#fff"/><path d="M41.861,28.99c.381.192.757.395,1.145.571.226.1.247.183.081.385a13.644,13.644,0,0,1-5.664,4.1,29.679,29.679,0,0,1-3.027.981c-.332.093-.5.031-.606-.282a4.083,4.083,0,0,0-.182-.4c0-.185.159-.2.275-.242a21.69,21.69,0,0,0,6.329-3.682,14.451,14.451,0,0,0,1.268-1.16A.734.734,0,0,1,41.861,28.99Z" transform="translate(-22.194 -18.915)" fill="#fff"/><path d="M36.669,24.579c-.034.17-.182.218-.31.278-1.324.621-2.645,1.25-3.979,1.85a14.736,14.736,0,0,1-1.8.8,7.1,7.1,0,0,1-.207-1.547,12.489,12.489,0,0,1,.061-2.156c.022-.218.085-.332.335-.314a26.714,26.714,0,0,1,5.218.859C36.217,24.414,36.443,24.5,36.669,24.579Z" transform="translate(-20.321 -15.754)" fill="#fff"/><path d="M56.5,21.7a35.09,35.09,0,0,1,3.678,4.884,33.951,33.951,0,0,1,2.238,4.084,19.261,19.261,0,0,0-7.75-6.47c-.1-.163.005-.283.1-.389a23.608,23.608,0,0,0,1.517-1.962C56.324,21.777,56.369,21.672,56.5,21.7Z" transform="translate(-34.267 -14.725)" fill="#fff"/><path d="M44.593,15.181a15.369,15.369,0,0,1,1.653,1.6,3.523,3.523,0,0,1-.951.525c-1.11.527-2.232,1.027-3.336,1.567a.3.3,0,0,1-.24.053l-3.076-.817c.011-.214.189-.273.339-.342,1.23-.564,2.448-1.153,3.678-1.715C43.3,15.757,43.929,15.425,44.593,15.181Z" transform="translate(-25.087 -10.98)" fill="#fff"/><path d="M41,28.789a21.088,21.088,0,0,1-7.22,4.914,5.711,5.711,0,0,0-1.033.442,10.664,10.664,0,0,1-.636-1.622c.18.137.34.045.51-.034.96-.448,1.923-.889,2.882-1.335q2.415-1.128,4.826-2.267c.112-.053.273-.067.287-.243C40.772,28.623,40.88,28.726,41,28.789Z" transform="translate(-21.335 -18.714)" fill="#fff"/><path d="M45.873,21.085a15.235,15.235,0,0,1,1.9-.947c.782-.4,1.588-.753,2.385-1.124a1.817,1.817,0,0,1,.242-.076,9.253,9.253,0,0,1,1.071,1.179c-.558.762-1.1,1.538-1.728,2.242-.061.067-.142.141-.107.256A38.454,38.454,0,0,0,45.873,21.085Z" transform="translate(-29.241 -13.14)" fill="#fff"/><path d="M11.389,39.747c-.176-.178-.148-.293.085-.4,1.741-.8,3.478-1.616,5.217-2.422q.731-.338,1.469-.661c.186-.08.318-.18.283-.405.161.45.127.942.3,1.39.1.24-.069.33-.237.415-.61.308-1.24.573-1.854.874-.8.391-1.634.706-2.4,1.169a13.8,13.8,0,0,1-2.639.15.27.27,0,0,1-.224-.109Z" transform="translate(-9.362 -22.861)" fill="#fff"/><path d="M42.017,14.092a1.461,1.461,0,0,1-.621.367c-1.432.677-2.871,1.342-4.306,2.013a3.055,3.055,0,0,0-1.022.547l-1.909-.307a.791.791,0,0,1,.406-.3l6.077-2.825a1.037,1.037,0,0,0,.494-.3A4.032,4.032,0,0,1,42.017,14.092Z" transform="translate(-22.51 -9.892)" fill="#fff"/><path d="M18.673,25.118a3.7,3.7,0,0,0-1.072.444c-1.7.778-3.393,1.587-5.088,2.384a1.269,1.269,0,0,1-.7.181,16,16,0,0,1,1.173-1.69,1.874,1.874,0,0,0,.85-.3c1.6-.735,3.2-1.494,4.8-2.242a2.144,2.144,0,0,1,.274-.088Q18.792,24.461,18.673,25.118Z" transform="translate(-9.673 -15.937)" fill="#fff"/><path d="M9.149,43.623a17.835,17.835,0,0,0,2.939-.141,3.324,3.324,0,0,1,1.04-.188,31.673,31.673,0,0,0,3.388-.638c.164-.039.333-.107.49.026.286.765.287.768-.543.892a30.893,30.893,0,0,1-7.56.283,2.373,2.373,0,0,1-1.526-.515,7.207,7.207,0,0,0,1.772.282Z" transform="translate(-7.122 -26.738)" fill="#fff"/><path d="M23.371,40.681c-.653.049-1.265.3-1.906.4a19.963,19.963,0,0,1-3.011.395,3.479,3.479,0,0,1,1.166-.637c1-.494,2.024-.951,3.035-1.42a.29.29,0,0,0,.211-.3Q23.118,39.9,23.371,40.681Z" transform="translate(-13.486 -24.736)" fill="#fff"/><path d="M27.63,30.571a.956.956,0,0,1,0-.735Q27.633,30.2,27.63,30.571Z" transform="translate(-18.717 -19.401)" fill="#fff"/><path d="M195.343,28.275a3.647,3.647,0,0,0-3.511,3.5,1.326,1.326,0,0,0,1.345,1.356c.122,0,.247,0,.338,0a2.734,2.734,0,0,0,2.6-1.454,5.757,5.757,0,0,0,.628-1.556C197.049,28.953,196.556,28.3,195.343,28.275Zm-.077,2.211a2.468,2.468,0,0,1-.589.956,1.38,1.38,0,0,1-1.086.433c-.5,0-.533-.049-.375-.525a2.542,2.542,0,0,1,1.2-1.587c.33-.169.763-.357,1.031-.136C195.66,29.8,195.364,30.2,195.267,30.486Z" transform="translate(-113.108 -18.504)" fill="#fff"/><path d="M111.858,24.7c-.01-.11.041-.239-.072-.342q-1.645,2.1-3.276,4.186c-.012.015-.006.044-.013.1,1.147,0,2.271-.006,3.394,0,.241,0,.307-.049.282-.307C112.056,27.13,111.965,25.914,111.858,24.7Z" transform="translate(-65.225 -16.253)" fill="#fff"/><path d="M153.882,16.39a7.393,7.393,0,0,0-3.073-.883c-.987-.106-1.975-.054-2.988-.079l1.246-3.592H141.1a1.044,1.044,0,0,1-.148,0c-.174-.026-.223.075-.27.221-.134.419-.287.83-.431,1.245l-1.493,4.275a6.43,6.43,0,0,0-3.047-1.9,12.544,12.544,0,0,0-2.341-.42,17.069,17.069,0,0,0-7.78,1.015c-.1.04-.2.144-.346.082l.324-.917H117.5a10.435,10.435,0,0,0-2.822.4,9.953,9.953,0,0,0-1.91.8c.154-.42.268-.779.417-1.124.111-.259.1-.349-.224-.343-1.052.019-2.106.016-3.159.005a6.568,6.568,0,0,0-6.573,4.584c-.253.766-.556,1.517-.836,2.274a4.374,4.374,0,0,1-.181-.941q-.487-4.5-.967-9.008c-.019-.177-.062-.255-.26-.254-1.665.006-3.333-.068-4.993.016a7.528,7.528,0,0,0-5.407,2.814c-3.516,4.058-7,8.145-10.489,12.225-.059.068-.158.121-.132.238a.277.277,0,0,0,.072.021l9.108.007a.4.4,0,0,0,.356-.2c.313-.437.639-.866.948-1.306a.447.447,0,0,1,.415-.225q1.818.016,3.636,0c.191,0,.286.026.287.251,0,.354.075.709.059,1.061-.016.372.137.426.47.426q9.972-.015,19.944-.007c.68,0,.679,0,.906-.628l1.767-4.883a1.75,1.75,0,0,1,1.822-1.3h1.3c-.107.4-.22.763-.3,1.131a4.1,4.1,0,0,0,1.005,4.007,5.659,5.659,0,0,0,2.658,1.481A17.165,17.165,0,0,0,133.4,26.7a11.833,11.833,0,0,0,2.557-1.083c-.148.425-.274.778-.395,1.135-.135.395-.133.395.271.395,2.51,0,5.019-.006,7.529.008a.448.448,0,0,0,.509-.37c.7-2.056,1.418-4.1,2.137-6.153.039-.109.014-.292.216-.291h.921c-.039.124-.058.194-.082.263q-1.086,3.11-2.172,6.217c-.058.166-.182.336.175.334,2.571-.012,5.142-.008,7.713,0a.3.3,0,0,0,.343-.239c.755-2.165,1.535-4.32,2.274-6.49A3.278,3.278,0,0,0,153.882,16.39ZM101.142,25.9c-1.592-.017-3.183-.013-4.775,0-.24,0-.346-.043-.346-.314,0-.39-.052-.78-.072-1.171-.009-.178-.067-.247-.262-.247q-2.773.012-5.546,0a.355.355,0,0,0-.317.192c-.323.444-.654.885-.973,1.333a.4.4,0,0,1-.353.206c-1.934-.006-3.867,0-5.893,0l2.271-2.65c2.2-2.571,4.4-5.153,6.618-7.711a6.813,6.813,0,0,1,4.132-2.393,3.728,3.728,0,0,1,.584-.049c1.188,0,2.375,0,3.563-.007.218,0,.321.039.346.283q.406,3.886.832,7.769c.159,1.471.318,2.942.491,4.411C101.472,25.8,101.446,25.9,101.142,25.9Zm6.971-.268c-.059.162-.112.266-.323.265-1.774-.009-3.549-.006-5.324-.007a.714.714,0,0,1-.134-.034c.324-.876.645-1.743.965-2.611.418-1.133.816-2.273,1.254-3.4a5.236,5.236,0,0,1,5.006-3.406c.526,0,1.053.016,1.58-.006.3-.013.35.049.243.336-.751,2.012-1.488,4.028-2.23,6.043-.348.941-.7,1.879-1.037,2.82ZM119.686,19.1a2.95,2.95,0,0,0-2.942,2.094c-.524,1.47-1.067,2.933-1.588,4.4a.365.365,0,0,1-.409.3c-1.688-.011-3.377-.008-5.065,0-.226,0-.337,0-.23-.291.709-1.9,1.392-3.8,2.1-5.7a4.555,4.555,0,0,1,2.832-2.637,8.267,8.267,0,0,1,3.006-.573c2.1,0,4.207,0,6.373,0-.29.787-.566,1.516-.824,2.25-.065.183-.191.155-.32.155Zm14.327,6.051a15.788,15.788,0,0,1-9.155.629,4.845,4.845,0,0,1-1.753-.806,2.8,2.8,0,0,1-1.185-2.913,5.429,5.429,0,0,1,2.954-4.048,14.565,14.565,0,0,1,6.778-1.573,11.214,11.214,0,0,1,4.623.8,2.912,2.912,0,0,1,1.9,3.212,5.12,5.12,0,0,1-1,2.412A6.647,6.647,0,0,1,134.013,25.15Zm20.171-5.05c-.646,1.842-1.3,3.679-1.944,5.523a.34.34,0,0,1-.389.272q-2.5-.013-4.993,0c-.283,0-.286-.082-.206-.31.549-1.553,1.086-3.11,1.629-4.664a2.094,2.094,0,0,0,.154-.638,1.044,1.044,0,0,0-1-1.173c-.695-.042-1.394-.006-2.091-.015-.226,0-.2.182-.242.3-.715,2.038-1.432,4.076-2.123,6.121a.468.468,0,0,1-.539.38q-2.444-.024-4.883,0c-.29,0-.352-.042-.247-.338q2.14-6.1,4.258-12.2c.046-.133.049-.28.264-.279,1.81.007,3.62,0,5.466,0l-1.252,3.61c.975,0,1.915.005,2.856,0a10.027,10.027,0,0,1,3.79.515,2.232,2.232,0,0,1,1.629,1.884A2.3,2.3,0,0,1,154.184,20.1Z" transform="translate(-48.823 -9.043)" fill="#fff"/></g></g></svg>