<svg xmlns="http://www.w3.org/2000/svg" xmlns:xlink="http://www.w3.org/1999/xlink" width="169" height="67" viewBox="0 0 169 67"><defs><clipPath id="a"><rect width="169" height="67" fill="#fff"/></clipPath></defs><g clip-path="url(#a)"><g transform="translate(9.652 17.968)"><g transform="translate(0 0)"><path d="M64.5,29.606c-.187.843-.37,1.659-.548,2.47-.112.52-.211,1.04-.347,1.551a.447.447,0,0,1-.291.276c-2.39.014-4.78.009-7.174,0a.707.707,0,0,1-.15-.047c.347-1.359.7-2.713,1.059-4.133h-7.24c-.356,0-.764.1-.731-.534-2.165,1.439-4.2,1.082-6.256-.267.033.473.061.881.094,1.359-.169-.052-.3-.089-.426-.136q-7.887-2.706-15.768-5.412a1.043,1.043,0,0,0-.8.019,110.857,110.857,0,0,1-12.7,4.522A24.205,24.205,0,0,1,7.3,30.393a23.476,23.476,0,0,1-3.079-.272,2.467,2.467,0,0,1-.75-.262A1.972,1.972,0,0,1,2.3,27.183a7.234,7.234,0,0,1,1.453-2.409c.6-.694,1.214-1.373,1.874-2.01,1.317-1.275,2.61-2.577,4.011-3.753a24.326,24.326,0,0,1,8.444-4.339,45.025,45.025,0,0,1,10.511-1.926,2.167,2.167,0,0,0,1.2-.436q6.157-4.576,12.329-9.119c.136-.1.272-.192.473-.337v7.755Q56.121,9.07,69.563,7.544c.009.028.019.061.028.089l-9.053,3.6a.454.454,0,0,0,0,.08h3.149c-.323,1.439-.628,2.807-.947,4.222.187,0,.328,0,.469,0q2.348-.077,4.691-.159a5.409,5.409,0,0,1,4.063,1.214c.206-.937.4-1.823.6-2.708.141-.647.281-1.3.417-1.945.042-.192.089-.328.351-.328q3.465.014,6.935.009a1.767,1.767,0,0,1,.22.033c-.3,1.326-.609,2.634-.918,3.969a.809.809,0,0,0,.2.047,28.936,28.936,0,0,0,4.8-.225,5.759,5.759,0,0,1,3.739.436,13.844,13.844,0,0,1,1.631,1.153c.5-.276,1.082-.647,1.7-.923a8.755,8.755,0,0,1,7.226,0c.684.286,1.321.675,1.973,1.026a.414.414,0,0,0,.5.014,10.406,10.406,0,0,1,8.744-1.232c.15.042.3.084.483.131.019-.164.037-.3.061-.506.412,0,.829-.014,1.251,0,.253.009.417-.052.426-.328.028-.6.4-.9.914-1.153,2.441-1.228,4.864-2.493,7.3-3.744.094-.047.192-.089.366-.169-.361,1.813-.712,3.571-1.068,5.356.815,0,1.6.042,2.371-.009a24.418,24.418,0,0,1,6.509.206c.614.127,1.209.361,1.842.553-.019.019.014,0,.014-.019.07-.689.525-.726,1.092-.708,1.209.037,2.418.009,3.627.009a13.594,13.594,0,0,0,2.573-.192,4.431,4.431,0,0,1,3.088.473.733.733,0,0,0,.483.028,14.355,14.355,0,0,1,4.142-.469,7.133,7.133,0,0,1,2.629.567,4.732,4.732,0,0,1,2.812,3.791c.056.328.056.661.108.989.042.286-.089.366-.347.389-.525.052-1.05.136-1.631.211.089.164.15.281.22.4a5.3,5.3,0,0,1,.75,3.889,4.738,4.738,0,0,1-2.184,2.882,9.788,9.788,0,0,1-9.719.675,4.813,4.813,0,0,1-2.371-2.3c-.244,1-.464,1.9-.684,2.816H124.59c-.047-.178-.089-.351-.141-.553-1.289,1.129-2.793.848-4.26.6a5.169,5.169,0,0,0-1.879.014,12.477,12.477,0,0,1-4.789.112,3.156,3.156,0,0,1-2.5-1.757c-.211.136-.4.267-.6.389a10.447,10.447,0,0,1-9.522.764,2.9,2.9,0,0,0-2.423.033,10.108,10.108,0,0,1-9.081-.6c-.164-.089-.328-.178-.492-.262a.374.374,0,0,0-.117,0c-.037.361-.089.722-.1,1.087-.009.262-.108.356-.361.337-.159-.014-.319,0-.478,0q-9.025,0-18.05.009a12,12,0,0,0-1.574.178A5.955,5.955,0,0,1,64.5,29.606ZM118.564,13.35c-.2.089-.323.15-.45.211-1,.5-1.968,1.059-3,1.462a2,2,0,0,0-1.514,1.982.49.49,0,0,1-.019.08c-.028.206-.136.286-.347.276a7.023,7.023,0,0,0-.993.009.42.42,0,0,0-.3.253c-.117.412-.2.834-.309,1.354a3.257,3.257,0,0,0-2.563-1.715,10.216,10.216,0,0,0-4.5.15,4.342,4.342,0,0,0-2.84,2.024,2.678,2.678,0,0,0,1.326,3.988,6.507,6.507,0,0,0,1.059.347c.815.187,1.635.333,2.455.511.337.075.633.22.679.628a.946.946,0,0,1-.469.979,1.965,1.965,0,0,1-2.971-.928c-.009-.019-.037-.033-.075-.056-.993.084-2,.169-3,.262a15.358,15.358,0,0,1-1.6.155,21.048,21.048,0,0,1-2.1-.192.983.983,0,0,0-.942.319,2.222,2.222,0,0,1-2.474.426,2.108,2.108,0,0,1-.993-1.987h.469c2.484,0,4.967,0,7.451,0,.272,0,.408-.047.431-.356.033-.436.131-.867.187-1.3a4.281,4.281,0,0,0-3.065-4.784,10.971,10.971,0,0,0-2.474-.342,6.538,6.538,0,0,0-5.633,2.324,18.52,18.52,0,0,0-1.115,1.673c.042-.426.131-.923.136-1.425a2.373,2.373,0,0,0-1.949-2.465,5.174,5.174,0,0,0-4.442,1.1c-.253.2-.483.436-.783.7.122-.59.23-1.106.337-1.645-.169-.009-.286-.023-.4-.023-1.022,0-2.048.014-3.069-.009-.347-.009-.473.108-.544.445-.515,2.455-1.05,4.906-1.574,7.357q-.33,1.532-.651,3.065a.628.628,0,0,0,.15.042c1.275,0,2.549,0,3.824.009.276,0,.286-.173.323-.351.3-1.387.553-2.788.9-4.161a13.892,13.892,0,0,1,.862-2.38,2.046,2.046,0,0,1,1.331-1.125c.918-.258,1.42.173,1.246,1.106-.248,1.331-.53,2.652-.8,3.978-.2.961-.4,1.917-.619,2.929h.473c1.036,0,2.071,0,3.107,0,.773,0,.59.07.745-.614.314-1.41.6-2.821.9-4.236a5.037,5.037,0,0,1,.141.815,4.445,4.445,0,0,0,3,3.871,9.721,9.721,0,0,0,4.213.356,5.83,5.83,0,0,0,4.124-1.992c.019-.023.066-.023.112-.037a2.942,2.942,0,0,0,2.095,1.753,11.324,11.324,0,0,0,6.246-.15,4.148,4.148,0,0,0,2.624-2.231,2.679,2.679,0,0,0-1.645-3.9,8.657,8.657,0,0,0-1.036-.281c-.853-.183-1.715-.337-2.568-.534a.74.74,0,0,1-.619-.7.788.788,0,0,1,.558-.792,2.152,2.152,0,0,1,1.743-.028,1.324,1.324,0,0,1,.572.562c.112.206.216.267.426.234.169-.028.342-.037.515-.056.829-.089,1.654-.173,2.493-.262.028.515.4.281.623.309a7.253,7.253,0,0,0,.909.009c-.258,1.214-.515,2.376-.75,3.547a11.331,11.331,0,0,0-.328,2.038,2.505,2.505,0,0,0,2.441,2.512,28.972,28.972,0,0,0,3.369-.169c.1,0,.23-.2.258-.319.141-.567.253-1.143.389-1.795.112.253.183.426.262.59a2.756,2.756,0,0,0,1.79,1.532,5.391,5.391,0,0,0,4.344-.492c.347-.206.67-.455,1.026-.7.037.3.089.567.108.839s.131.328.38.328q3.683-.014,7.371,0c.272,0,.361-.1.408-.351.164-.858.351-1.715.544-2.568a11.816,11.816,0,0,1,1.026-3.374,2.575,2.575,0,0,1,2.755-1.4c.276.028.375.112.38.412a2.437,2.437,0,0,0,1.406,2.277,6.84,6.84,0,0,0,1.378.506c.848.211,1.71.366,2.568.553a.817.817,0,0,1,.342,1.392,2.026,2.026,0,0,1-3.154-.576.394.394,0,0,0-.3-.2c-1.19.089-2.38.192-3.571.3a1.82,1.82,0,0,0-.286.07,2.969,2.969,0,0,0,2.254,2.844,11.163,11.163,0,0,0,6.321-.1,4.283,4.283,0,0,0,2.512-1.968,2.738,2.738,0,0,0-1.528-4.175,12.534,12.534,0,0,0-1.387-.356c-.712-.155-1.434-.267-2.146-.431a.8.8,0,0,1-.684-.736.861.861,0,0,1,.651-.815,2.138,2.138,0,0,1,1.56-.028,1.707,1.707,0,0,1,.679.614c.117.173.192.244.389.22q1.385-.155,2.769-.3c.272-.028.539-.066.806-.1a2.888,2.888,0,0,0-2.291-2.563,10.166,10.166,0,0,0-4.85-.037,5.814,5.814,0,0,0-2.315,1.129c.187-.422.328-.731.515-1.148a11.856,11.856,0,0,0-1.612-.225,3.1,3.1,0,0,0-2.418,1.35c-.258.319-.506.642-.834,1.059.173-.787.319-1.453.478-2.17-1.223,0-2.39.009-3.557,0-.276,0-.384.084-.44.366q-.815,3.915-1.659,7.826c-.141.647-.281,1.3-.422,1.945a4.126,4.126,0,0,1,0-2.123c.281-1.457.614-2.91.867-4.372a2.847,2.847,0,0,0-2.446-3.618,14.378,14.378,0,0,0-4.677-.169,5.428,5.428,0,0,0-2.718.928,3.7,3.7,0,0,0-1.457,2.24c1.261.136,2.47.272,3.683.389.08.009.2-.1.258-.192a2.237,2.237,0,0,1,2.877-.811c.422.216.511.469.487.984-.019.473-.3.567-.665.6-.08.009-.159.023-.234.037-1.5.206-3,.375-4.494.633a3.294,3.294,0,0,0-3.13,3.093.35.35,0,0,1-.206.23,5.453,5.453,0,0,1-1.068.089.717.717,0,0,1-.722-.979c.1-.464.206-.933.3-1.4.187-.89.37-1.785.562-2.708h2.184c.211-1,.412-1.963.628-2.985h-2.146C118.006,16.007,118.278,14.719,118.564,13.35ZM11.353,20.234c1.064-.314,2.034-.623,3.018-.881a13.253,13.253,0,0,1,3.538-.506,2.086,2.086,0,0,0,.862-.173c1.012-.436,1.987-.961,3.013-1.354a22.679,22.679,0,0,1,2.779-.8.731.731,0,0,1,.647.23.735.735,0,0,1-.127.679,4.585,4.585,0,0,1-1.321,1.04,13.942,13.942,0,0,1-2.793.89c-2.563.511-5.131,1-7.633,1.762a26.992,26.992,0,0,0-6.654,2.8,6.67,6.67,0,0,0-2.4,2.334,1.2,1.2,0,0,0,.558,1.846,3.31,3.31,0,0,0,.783.276,8.211,8.211,0,0,0,2.891.042,33.327,33.327,0,0,0,6.031-1.439,112,112,0,0,0,11.8-4.663.928.928,0,0,1,.717-.047q5.982,1.926,11.973,3.828l2.362.75v-.492c0-2.947,0-5.9,0-8.847,0-.267.052-.422.337-.525q8.625-3.177,17.244-6.378l1.771-.661c0-.023-.014-.047-.019-.07-6.476.768-12.952,1.537-19.484,2.315V6.012c-.183.131-.3.211-.417.3q-4.8,3.592-9.606,7.179a1.25,1.25,0,0,1-.6.234c-1.879.169-3.763.262-5.633.483a26.473,26.473,0,0,0-9.845,3.1A15.13,15.13,0,0,0,11.353,20.234Zm38.978,8.018h.506c2.362,0,4.728-.014,7.09.014.45,0,.6-.136.689-.562.825-3.946,1.678-7.886,2.521-11.827.183-.862.366-1.729.553-2.619H57.482q-1.56,7.282-3.116,14.545a.378.378,0,0,1-.131-.23,7.092,7.092,0,0,1,.206-2.84c.262-1.406.59-2.807.778-4.222a2.668,2.668,0,0,0-2.048-3.041,11.817,11.817,0,0,0-3.51-.375,8.61,8.61,0,0,0-3.585.609,3.739,3.739,0,0,0-2.184,2.629,2.97,2.97,0,0,0,.3.07c1.04.117,2.085.216,3.126.347a.5.5,0,0,0,.59-.3,2.231,2.231,0,0,1,2.985-.581c.375.281.314.656.272,1.05s-.328.37-.576.408c-.933.131-1.87.244-2.8.37a11.447,11.447,0,0,0-3.29.717,2.946,2.946,0,0,0-1.818,3.144A3.006,3.006,0,0,0,44.8,28.271a5.356,5.356,0,0,0,4.78-.754c.187-.136.375-.276.6-.44C50.224,27.483,50.275,27.835,50.331,28.252Zm14.925-10.9c-1.167,0-2.268.023-3.369-.009-.417-.014-.562.122-.647.52Q60,23.734,58.719,29.606q-.3,1.371-.586,2.751a.543.543,0,0,0,.145.052c1.275,0,2.549.014,3.824,0,.094,0,.244-.173.272-.286.248-1.073.478-2.151.712-3.224.145-.665.291-1.326.44-2.015a.817.817,0,0,1,.117.08,4.324,4.324,0,0,0,6.518.159,7.842,7.842,0,0,0,1.767-7.385,3.13,3.13,0,0,0-2.123-2.4,4.245,4.245,0,0,0-4.044.6c-.211.159-.422.328-.684.534C65.134,18.06,65.191,17.736,65.256,17.347Zm12.394,0c-1.326,0-2.587.009-3.847-.009-.314,0-.4.117-.455.394-.6,2.826-1.209,5.651-1.813,8.477-.141.665-.276,1.331-.426,2.043,1.279,0,2.5-.023,3.721.014.412.009.53-.145.6-.511.431-2.076.881-4.147,1.326-6.223C77.055,20.159,77.346,18.786,77.651,17.347ZM73.7,16.115c1.373,0,2.685,0,4-.009a.327.327,0,0,0,.248-.173c.2-.886.384-1.776.576-2.685H74.319C74.117,14.189,73.916,15.122,73.7,16.115Zm-22.422-.361c.75.117,1.425.173,2.071.337s1.261.445,1.921.684c.206-.989.422-2.029.656-3.144C54.347,14.358,52.848,15.042,51.283,15.754Z" transform="translate(-2.142 -2.854)"/><path d="M133.822,29.342a3.072,3.072,0,0,1,1.565-2.095,1.8,1.8,0,0,1,2.02.22,1.842,1.842,0,0,1,.469,1.874Z" transform="translate(-43.008 -10.36)"/><path d="M180.156,32.56a2.9,2.9,0,0,1-2.118,2.849,1.461,1.461,0,0,1-1.289-.23.991.991,0,0,1-.37-1.031,1.127,1.127,0,0,1,.881-.886C178.207,33.01,179.163,32.8,180.156,32.56Z" transform="translate(-56.209 -12.073)"/><path d="M24.248,29.449c-.815.694-1.6,1.415-2.446,2.067a10.552,10.552,0,0,1-4.3,2.156,4,4,0,0,1-2.31-.108c-.361-.141-.45-.319-.211-.628a3.5,3.5,0,0,1,.858-.806,16.822,16.822,0,0,1,4.4-1.785c1.293-.375,2.6-.708,3.9-1.059C24.182,29.341,24.215,29.393,24.248,29.449Z" transform="translate(-6.086 -11.057)"/><path d="M70.693,32.594A2.892,2.892,0,0,1,68.547,35.4,2.183,2.183,0,0,1,67.4,35.27a.887.887,0,0,1-.525-.979,1.106,1.106,0,0,1,.811-.979,5.8,5.8,0,0,1,.8-.244C69.2,32.9,69.924,32.758,70.693,32.594Z" transform="translate(-22.231 -12.084)"/><path d="M92.238,31.328a6.007,6.007,0,0,1,.745-2.779,1.785,1.785,0,0,1,1.42-1.036,1.326,1.326,0,0,1,1.57,1.171,5.271,5.271,0,0,1-.731,3.739,1.594,1.594,0,0,1-1.8.867,1.659,1.659,0,0,1-1.2-1.724C92.238,31.487,92.238,31.407,92.238,31.328Z" transform="translate(-30.103 -10.503)"/></g></g></g></svg>