<svg xmlns="http://www.w3.org/2000/svg" xmlns:xlink="http://www.w3.org/1999/xlink" width="168" height="67" viewBox="0 0 168 67"><defs><clipPath id="a"><rect width="168" height="67" fill="#fff"/></clipPath></defs><g clip-path="url(#a)"><g transform="translate(-0.557 25.158)"><g transform="translate(0 0)"><path d="M80.256,14.141a4.829,4.829,0,0,1-1.743,4.477,4.919,4.919,0,0,1-3.126.785q-9.035,0-18.063-.031c-.715,0-1.131-.487-1.594-1.005a2.388,2.388,0,0,1-2.372.99c-3.77,0-7.547,0-11.317.024a.468.468,0,0,1-.5-.369c-.369-.974-.738-1.948-1.139-2.914-.149-.353-.071-.416.291-.416,2.4.016,4.783.008,7.178.016.581,0,.644-.047.4-.589a12.641,12.641,0,0,0-2.246-3.817,2.124,2.124,0,0,0-3.173-.243c-1.178.927-2.285,1.948-3.416,2.937l-9.11,7.909a.719.719,0,0,1-.5.212C27.684,22.1,25.54,22.1,23.4,22.1c-.024,0-.055-.024-.149-.071,1-.9,1.971-1.775,3.031-2.725H24.731q-10.673.035-21.346.063c-.6,0-.6,0-.463-.581.628-2.521,1.272-5.05,1.885-7.579.086-.353.228-.44.565-.44q10.484.012,20.969,0c.165,0,.432.134.479-.134A1.644,1.644,0,0,0,26.8,9.7c-.071-.157-.322-.071-.487-.071q-7.1-.012-14.215,0h-.188c-1.092,0-1.092,0-.8-1.037.228-.785.456-1.579.66-2.372a.379.379,0,0,1,.44-.346c5.71.008,11.411-.024,17.121.016,2.686.016,3.982,2.191,3.369,4.641a2.385,2.385,0,0,1-1.414,1.508c-.353.173-.4.338-.188.668a4.82,4.82,0,0,1,.565,1.814c1.076-.911,2.1-1.791,3.141-2.654,2.136-1.783,4.288-3.558,6.424-5.34A5.115,5.115,0,0,1,43.98,5.494a6.787,6.787,0,0,1,3.448.361A3.729,3.729,0,0,1,49.2,7.434c1.6,2.576,3.1,5.215,4.6,7.861a1.662,1.662,0,0,1,.086.165.454.454,0,0,0,.565.3c.243-.071.2-.338.181-.534a18.356,18.356,0,0,1,.024-2.709A7.19,7.19,0,0,1,56.2,8.322a6.763,6.763,0,0,1,4.869-2.309c2.835-.228,5.67-.118,8.505-.141,2.38-.016,4.751.008,7.131-.008.361,0,.448.079.416.44-.094.927-.157,1.861-.188,2.8-.016.346-.094.448-.455.44-2.089-.016-4.186-.008-6.275-.008H63.072c-1.987,0-2.827.668-3.291,2.615a14.123,14.123,0,0,0-.369,3.244c0,.3.094.369.377.369,4.932-.008,9.856,0,14.788-.008.628,0,.935-.2.935-.573-.008-.393-.353-.62-.95-.62-1.869,0-3.738-.008-5.607.008a.739.739,0,0,1-.723-.385c-.6-.974-1.257-1.924-1.932-2.945H77.578c.094-.2.22-.275.4-.086a1.57,1.57,0,0,1,.11.126c.141.212.055.322-.165.361a2.866,2.866,0,0,1-.518.024c-3.236,0-6.479.008-9.715,0a.741.741,0,0,0-.322.031c-.079.141.008.243.071.353.346.6.793,1.147,1.154,1.743.165.275.448.267.723.267H74.4a2.506,2.506,0,0,1,.8.079A1.124,1.124,0,0,1,76,15.3a1.053,1.053,0,0,1-1,.919,4.617,4.617,0,0,1-.573.016H59.7c-.558-.016-.691-.134-.754-.7a4.646,4.646,0,0,1-.008-1.045,17.667,17.667,0,0,1,.448-2.717,3.31,3.31,0,0,1,3.526-2.757c1.948-.008,3.9,0,5.851,0h7.037c.644,0,.715-.063.715-.707,0-.432.1-.848.1-1.28,0-.644-.031-.675-.66-.683h-1.9c-3.2,0-6.4-.031-9.6.016a30.289,30.289,0,0,0-4.123.267,5.767,5.767,0,0,0-4.351,2.969,7,7,0,0,0-.762,2.725,19.791,19.791,0,0,0-.086,2.9c.024.613-.126.872-.479.974a.967.967,0,0,1-1.139-.479c-.817-1.319-1.547-2.694-2.325-4.037-.809-1.4-1.657-2.772-2.513-4.147A3.328,3.328,0,0,0,46.006,6a8.184,8.184,0,0,0-2.513.079,5.282,5.282,0,0,0-2.246,1.076c-2.969,2.427-5.89,4.908-8.82,7.382-.086.071-.165.141-.259.212-.573.44-.88.361-1.037-.338a6.456,6.456,0,0,0-.644-1.783.537.537,0,0,1,.228-.832c.126-.071.236-.165.361-.228a2.28,2.28,0,0,0,1.217-2.772,2.789,2.789,0,0,0-2.223-2.325,5.424,5.424,0,0,0-1.131-.126H12.967c-.675,0-.7.016-.88.675-.149.518-.3,1.037-.44,1.555-.141.5-.11.534.424.534H26.192c.188,0,.377,0,.573.008a.486.486,0,0,1,.558.55c0,.377.008.762-.008,1.139a.418.418,0,0,1-.479.456c-.393,0-.793.031-1.186.031-6.628-.008-13.249.008-19.877-.016a.506.506,0,0,0-.565.432c-.275.974-.479,1.971-.738,2.953-.322,1.225-.6,2.458-.935,3.683-.118.432-.079.463.369.463,7.657-.008,15.307.016,22.964-.016.134,0,.314-.071.385.086s-.071.3-.188.4c-.581.534-1.194,1.045-1.791,1.563a3.524,3.524,0,0,0-.644.636c.1.126.236.071.353.071,1.445,0,2.882-.008,4.327.008a1.484,1.484,0,0,0,1.021-.393c2.191-1.869,4.359-3.77,6.542-5.662,1.728-1.492,3.448-2.984,5.144-4.516a3.563,3.563,0,0,1,2.089-1.037,3.07,3.07,0,0,1,2.788,1.516,19.075,19.075,0,0,1,1.8,3.291c.039.086.063.181.094.267.22.746-.024,1.1-.8,1.1-2.026.008-4.06,0-6.086,0-.141,0-.283-.008-.424,0-.408.024-.44.071-.314.463.2.613.5,1.2.707,1.814a.571.571,0,0,0,.628.393h2.333c2.914,0,5.835-.008,8.749.008a2.287,2.287,0,0,0,1.681-.62c.44-.416.62-.393,1.029.039a1.62,1.62,0,0,0,1.524.589,4.916,4.916,0,0,1,.762-.016c4.2,0,8.4.008,12.6-.008,1.249-.008,2.5.157,3.754.11.495-.016.982-.047,1.469-.1a3.53,3.53,0,0,0,3.3-3.314,6.656,6.656,0,0,0,.126-1.367c.031-.149.031-.353.236-.353C80.271,13.8,80.483,13.874,80.256,14.141Z" transform="translate(-2.845 -5.424)" fill="#050505"/><path d="M85.338,11.692a1.425,1.425,0,0,1,.6-.016H96.278c.079-.188-.165-.173-.165-.3.165-.212.377-.126.565-.063a2.173,2.173,0,0,1,1.579,1.516,1.328,1.328,0,0,0,1.4,1.107c1.045.071,2.081.173,3.126.165q6.279-.012,12.55-.008c.188,0,.377-.008.573.008a1,1,0,0,1,1.068,1.076,1.162,1.162,0,0,1-1.076,1.17c-.424.024-.856.031-1.28.031h-13.6c-.754,0-.754,0-.942.746-.118.463-.2.935-.291,1.4-.055.283.039.424.338.416h15.354a7.476,7.476,0,0,0,3.291-.6,3.531,3.531,0,0,0,2.2-3.134,5.231,5.231,0,0,0-.2-1.743,2.671,2.671,0,0,0-2.2-1.814,12.6,12.6,0,0,0-2.874-.322H101.846a2.561,2.561,0,0,1-.942-.1.67.67,0,0,1-.385-1.06,1.816,1.816,0,0,1,1.06-.832,7.9,7.9,0,0,1,2.3-.283q11.486-.024,22.964-.008h.141c.66.016.778.157.644.825-.149.762-.338,1.516-.5,2.27-.448,2.073-.911,4.147-1.359,6.22-.141.652-.118.668.55.668h3.471c.754,0,.754,0,.911-.715.432-1.932.809-3.88,1.249-5.812.2-.9.353-1.8.589-2.694a.569.569,0,0,1,.636-.495c1.728.024,3.456,0,5.183.016.715,0,.825.141.628.825-.479,1.657-.809,3.361-1.225,5.034a5.135,5.135,0,0,0-.133,1.037,2.221,2.221,0,0,0,1.6,2.223,10.716,10.716,0,0,0,3.534.668c4.72.212,9.44.055,14.16.1.935.008,1.869-.016,2.8.008a.608.608,0,0,0,.723-.558c.118-.62.275-1.233.432-1.853.141-.565.071-.636-.51-.636-2.662-.008-5.325,0-7.987,0h-3.377c-2.01,0-4.021-.157-6.032-.1-.613.016-.817-.141-.935-.6a1.15,1.15,0,0,1,.6-1.194,2.159,2.159,0,0,1,.966-.2h19.972c.707,0,.872.22.675.927-.314,1.084-.495,2.191-.793,3.275-.188.683-.126.738.565.738,1.217,0,2.442-.008,3.66.008a.6.6,0,0,0,.7-.581c.2-1.045.456-2.073.62-3.126a3.184,3.184,0,0,1,.157-.6.714.714,0,0,1,.738-.534c.95-.024,1.9-.016,2.851-.016,2.49,0,4.979.016,7.469-.016a1.39,1.39,0,0,1,1.39.77c.668,1.186,1.5,2.27,2.16,3.463a.933.933,0,0,0,.919.534c1.092-.008,2.183,0,3.283-.008.479,0,.5-.039.251-.479-.432-.754-.919-1.476-1.4-2.207-.668-1.005-1.28-2.034-1.924-3.055a.574.574,0,0,1,.1-.809,6.058,6.058,0,0,0,1-1.327,3.6,3.6,0,0,0,.534-1.9,2.294,2.294,0,0,0-1.492-2.128,5.775,5.775,0,0,0-2.537-.558c-5.2-.016-10.4-.008-15.6-.008-.573,0-.589.024-.691.6-.1.565-.2,1.123-.3,1.689-.055.338.079.471.4.463.157-.008.314,0,.479,0H181.01a3.8,3.8,0,0,1,.99.071.83.83,0,0,1,.518,1.3,1.275,1.275,0,0,1-.683.565,3.8,3.8,0,0,1-2.136.047c-.126-.3.086-.259.259-.267a8.22,8.22,0,0,0,1.524-.055,1.74,1.74,0,0,0,.644-.385.538.538,0,0,0,.11-.573.442.442,0,0,0-.456-.275c-.157,0-.314-.008-.479-.008q-7.751,0-15.5.008c-.393,0-.51-.047-.408-.495.212-.919.361-1.861.5-2.8.039-.251.11-.346.377-.346,5.529.016,11.066.008,16.595.031a5.226,5.226,0,0,1,2.545.675,2.831,2.831,0,0,1,1.351,3.715,6.4,6.4,0,0,1-1.351,2.152c-.188.2-.181.33-.031.558q1.873,2.91,3.73,5.835c.063.1.126.212.236.393h-1.367c-1.217,0-2.442-.008-3.66.008a.608.608,0,0,1-.613-.322c-.856-1.382-1.743-2.749-2.6-4.139a.59.59,0,0,0-.573-.314q-5.23.012-10.461-.008c-.385,0-.471.173-.534.471-.283,1.343-.581,2.678-.848,4.029-.063.314-.165.408-.487.4-1.681-.016-3.361-.008-5.042.008-.361,0-.4-.079-.314-.432.377-1.5.707-3.008,1.052-4.531a1.191,1.191,0,0,0-.55-.039q-9.8,0-19.595-.008a3.062,3.062,0,0,0-.848.1.62.62,0,0,0-.479.581c-.024.275.024.463.4.463,1.618-.008,3.236.031,4.846.039,4.469.024,8.937.047,13.406.047.416,0,.495.079.385.5-.267.99-.479,1.995-.691,2.992-.063.306-.188.393-.5.393-5.325-.008-10.649.008-15.974-.016a15.942,15.942,0,0,1-4.555-.542c-.118-.039-.243-.071-.361-.11-1.869-.66-2.482-1.775-2.073-3.715.361-1.728.793-3.448,1.257-5.152.086-.322.016-.369-.291-.361-1.649.016-3.3.008-4.948-.008-.259,0-.361.086-.408.33q-.954,4.512-1.916,9.032c-.063.283-.126.432-.471.424-1.681-.024-3.361-.016-5.042,0-.346,0-.424-.063-.338-.424.691-3.047,1.359-6.1,2.042-9.157.079-.346,0-.416-.346-.416q-11.651.012-23.3.008a5.328,5.328,0,0,0-2.042.322,1.288,1.288,0,0,0-.558.346.445.445,0,0,0-.086.487.354.354,0,0,0,.385.212h.526c4.673,0,9.354-.008,14.026.008a10.461,10.461,0,0,1,3.369.463,3.007,3.007,0,0,1,2.175,2.654,4.273,4.273,0,0,1-3.558,5.136,9.218,9.218,0,0,1-2.026.236q-8.081-.012-16.17.008c-.385,0-.471-.055-.369-.456.228-.887.4-1.783.589-2.678.055-.251.141-.369.456-.369q7.751.012,15.5,0A.694.694,0,0,0,116.54,15a.486.486,0,0,0-.55-.51c-.668.016-1.335.008-1.995,0-4.264-.008-8.529,0-12.793-.024a10.95,10.95,0,0,1-2.262-.236.72.72,0,0,0-.463-.016c.055-.149.008-.243-.141-.259-.2-.016-.126.165-.157.259-.243-.071-.212-.291-.243-.471a3.5,3.5,0,0,0-.369-1.123,1.467,1.467,0,0,0-1.359-.777c-3.432.039-6.872.016-10.3.016C85.7,11.92,85.448,11.975,85.338,11.692Z" transform="translate(-21.074 -5.551)" fill="#06061a"/><path d="M184.456,10.892c.008.024.008.055.016.079a2.087,2.087,0,0,1-.22.024h-1.217c-.149,0-.33-.047-.361.181-.236.22-.542.157-.817.157-4.374.008-8.749,0-13.123,0h-21.11a4.941,4.941,0,0,1-.762-.024,1.083,1.083,0,0,1-.927-.832.977.977,0,0,1,.652-1.045,3.172,3.172,0,0,1,1.351-.212h16.406c1.186,0,1.186,0,1.406-1.147.079-.424.118-.848.228-1.264.079-.291-.047-.416-.33-.424-.157,0-.314-.008-.479-.008q-8.706,0-17.4,0a4.869,4.869,0,0,0-3.942,1.751c-.11.134-.228.283-.432.228s-.212-.259-.228-.432c-.031-.314-.008-.636-.016-.95-.008-.33-.149-.5-.487-.495h-.526q-17.682,0-35.372.016a19.6,19.6,0,0,0-5.136.573,4.8,4.8,0,0,0-1.571.77,2.319,2.319,0,0,0-.817,1.806c-.031.346-.008.7-.016,1.045a.771.771,0,0,1-.149.581c-.141-.11-.2.055-.306.094.008-.456.008-.919.016-1.374a3.017,3.017,0,0,1,2.2-3.181,13.08,13.08,0,0,1,3.77-.675c2.717-.165,5.443-.118,8.168-.118q15.067.012,30.142-.008c.424,0,.565.1.518.526a10.78,10.78,0,0,0-.008,1.139A6.1,6.1,0,0,1,147.765,5.9h18.252c.589,0,.6,0,.487.565-.188.958-.4,1.916-.573,2.882-.055.314-.236.314-.471.306-1.963-.008-3.927,0-5.9,0q-5.89,0-11.788.008a2.562,2.562,0,0,0-1.107.22.474.474,0,0,0-.322.6.517.517,0,0,0,.55.424c.2-.008.408,0,.62,0h36.228C183.977,10.9,184.213,10.892,184.456,10.892Z" transform="translate(-24.041 -5.529)" fill="#060714"/><path d="M99.16,11.372A18.384,18.384,0,0,1,99.246,9.2a2.477,2.477,0,0,1,1.469-1.814,8.574,8.574,0,0,1,3.275-.762c6.785-.416,13.579-.126,20.372-.181,6.118-.047,12.236-.008,18.346-.016.652,0,.66.008.66.668V8.136c0,.1-.024.236.126.275.118.024.157-.071.22-.149a4.9,4.9,0,0,1,4.194-1.932q8.894-.012,17.78,0c.691,0,.675.008.518.66-.149.613-.259,1.233-.353,1.853-.071.487-.322.628-.8.628-3.66-.016-7.32-.008-10.979-.008h-6.228a2.706,2.706,0,0,0-1.241.251.736.736,0,0,0-.448.9.871.871,0,0,0,.762.668,5.411,5.411,0,0,0,.715.008h34.6c.173,0,.346-.008.526-.016A5.4,5.4,0,0,0,185,11.089a1,1,0,0,0,.6-1.06c-.086-.448-.456-.518-.825-.558a3.021,3.021,0,0,0-.377-.008H169.331c-.6,0-.6,0-.487-.628s.243-1.272.314-1.908c.039-.385.2-.5.573-.5,2.207.016,4.406.008,6.613.008,3.094,0,6.181-.031,9.275.016a4.745,4.745,0,0,1,3.55,1.288,2.124,2.124,0,0,1,.589,1.618,4.617,4.617,0,0,1-1.555,3.189.492.492,0,0,0-.071.754c1.013,1.571,1.979,3.173,3.047,4.712.181.267.306.581.5.848.173.236.063.322-.2.322-1.335-.008-2.662-.008-4,0-.613.008-.715-.55-.919-.9-.715-1.194-1.524-2.332-2.223-3.526a.619.619,0,0,0-.62-.33q-5.4.012-10.791.008a.479.479,0,0,0-.534.377c-.236.738-.291,1.508-.463,2.254-.149.628-.283,1.257-.408,1.893a.351.351,0,0,1-.385.314h-4.61c-.228,0-.3-.063-.243-.314.322-1.312.613-2.623.927-3.935.149-.628.118-.7-.51-.7q-10.037,0-20.066.008a1.251,1.251,0,0,0-1.288.6.861.861,0,0,0-.008.88c.157.346.416.228.644.236,1,.016,1.995-.024,2.992.016,4.908.173,9.825.039,14.733.086.408,0,.581.086.456.55-.212.77-.377,1.555-.542,2.34-.063.306-.188.424-.534.424-5.136-.016-10.272.008-15.409-.031a16.449,16.449,0,0,1-4.83-.542,3.347,3.347,0,0,1-1.916-1.17,2.315,2.315,0,0,1-.353-1.767c.243-1.445.613-2.859.958-4.28.126-.534.275-1.068.44-1.586.118-.369.094-.534-.369-.534-1.838.016-3.675.008-5.513-.008-.243,0-.275.094-.322.291-.338,1.6-.691,3.2-1.037,4.8-.314,1.445-.644,2.882-.935,4.335-.047.251-.141.306-.369.306-1.508-.008-3.008-.008-4.516-.008-.306,0-.377-.094-.306-.393.4-1.728.73-3.471,1.154-5.2.314-1.3.55-2.615.848-3.911.094-.416-.047-.487-.424-.487-7.83.008-15.66,0-23.49.024a6.807,6.807,0,0,0-2.058.275,1.645,1.645,0,0,0-1,.817.529.529,0,0,0,.291.793,1.71,1.71,0,0,0,.746.11c4.838,0,9.668-.016,14.505.008a8.579,8.579,0,0,1,3.275.573,2.505,2.505,0,0,1,1.594,1.963,4.928,4.928,0,0,1-.126,2.654,3.648,3.648,0,0,1-1.814,1.963,6.883,6.883,0,0,1-3.338.715h-15.6c-.6,0-.6-.008-.479-.6.134-.66.291-1.319.432-1.979a.31.31,0,0,1,.361-.275c.668.008,1.335,0,1.995,0H117.9c.346,0,.691,0,1.037-.008a1.035,1.035,0,0,0,.966-1.1.819.819,0,0,0-.942-.9q-7.151,0-14.309-.016a16.771,16.771,0,0,1-2.725-.267.529.529,0,0,1-.5-.44,2.548,2.548,0,0,0-1.6-2.042,1.275,1.275,0,0,0-.636-.094C99.175,11.427,99.167,11.4,99.16,11.372Z" transform="translate(-24.128 -5.623)" fill="#343399"/><g transform="translate(0.46 0.409)"><path d="M79.883,13.291c-.228-.927-.864-1.563-1.555-1.555-3.2,0-6.385.016-9.581.008a6.067,6.067,0,0,1-1.508-.055c-.134.126-.031.212.039.322.416.628.848,1.257,1.233,1.908a.817.817,0,0,0,.8.432c1.853-.024,3.707-.016,5.56-.008a1.036,1.036,0,0,1,1.115,1.209c-.11.463-.526.707-1.257.707-4.979,0-9.95-.008-14.93.016-.518,0-.613-.212-.628-.62a13.054,13.054,0,0,1,.44-3.66,3.116,3.116,0,0,1,3.518-2.686c4.359,0,8.717-.008,13.076.008.408,0,.518-.141.534-.5.024-.652.047-1.3.118-1.94.055-.448-.126-.518-.518-.51-2.01.016-4.029-.008-6.039.016-3.071.031-6.141-.126-9.2.173a6.657,6.657,0,0,0-2.686.707,6.233,6.233,0,0,0-3.244,5.293,23.8,23.8,0,0,0-.047,2.9c.024.754-.463,1.06-1.1.723a.944.944,0,0,1-.346-.44c-1.39-2.427-2.764-4.869-4.217-7.257A4.276,4.276,0,0,0,46.82,6.129a8.147,8.147,0,0,0-3.668.063A7.177,7.177,0,0,0,40.3,8.006c-2.757,2.278-5.482,4.586-8.223,6.888-.4.338-.581.267-.675-.259a6.153,6.153,0,0,0-.44-1.492c-.134-.283-.495-.55-.369-.817.11-.243.495-.361.762-.526a2.054,2.054,0,0,0,1.1-1.178,3.383,3.383,0,0,0-.369-2.914A3.122,3.122,0,0,0,29.3,6.38q-8.128-.012-16.257-.008c-.723,0-.73,0-.935.7-.22.762-.424,1.531-.652,2.325H26.464c.872,0,.872,0,.872.872,0,1,0,1.005-.982,1.005q-10.32,0-20.631-.008c-.314,0-.408.11-.471.377-.126.573-.275,1.139-.416,1.7-.456,1.791-.9,3.581-1.367,5.372-.086.338-.016.432.346.424.9-.031,1.806-.024,2.7-.024q9.672-.012,19.351-.031h1.571c-1.084.919-2.1,1.775-3.079,2.717a.528.528,0,0,0,.134.047c1.233,0,2.474-.063,3.707.024a3.31,3.31,0,0,0,3.189-1.162.245.245,0,0,1,.071-.055q3.758-3.263,7.524-6.534c1.241-1.076,2.45-2.2,3.73-3.228a2.543,2.543,0,0,1,3.7.259,12.284,12.284,0,0,1,2.4,4.209c.228.558,0,.8-.6.809-2.285.008-4.563.008-6.848,0-.314,0-.448.047-.306.393.306.746.589,1.5.872,2.254a.456.456,0,0,0,.5.322c3.66-.016,7.319-.031,10.979-.016a2.481,2.481,0,0,0,2.207-.825c.141-.188.393-.251.526-.039a2.247,2.247,0,0,0,2.23.9c4.7-.031,9.416-.016,14.121-.016.173,0,.346.008.526.016a21.8,21.8,0,0,0,3.652-.063,3.411,3.411,0,0,0,2.874-2.042,6.611,6.611,0,0,0,.51-2.772A9.6,9.6,0,0,0,79.883,13.291ZM26.362,14.477a9.23,9.23,0,0,0-.008,1.233c.024.306-.118.4-.377.4-.3,0-.6-.024-.9-.024H11.589c-.7,0-1.39.008-2.089.039-.346.016-.44-.118-.424-.44a9.228,9.228,0,0,0,0-1.233c-.031-.393.086-.51.487-.5,2.725.016,5.442.008,8.168.008,2.709,0,5.411.016,8.121-.016C26.307,13.935,26.393,14.084,26.362,14.477Z" transform="translate(-3.435 -5.949)" fill="#848484"/></g><g transform="translate(6.104 8.403)"><path d="M27.46,16.211c-2.709.024-5.411.016-8.121.016-2.725,0-5.442.008-8.168-.008-.4,0-.518.118-.487.5a9.228,9.228,0,0,1,0,1.233c-.016.322.079.456.424.44.7-.031,1.39-.039,2.089-.039H26.682c.3,0,.6.024.9.024.259,0,.4-.094.377-.4a8.078,8.078,0,0,1,.008-1.233C27.994,16.352,27.908,16.2,27.46,16.211Zm.134.887c-.031.919-.008.919-.919.919H19.308c-2.6,0-5.2-.008-7.8.008-.377,0-.479-.094-.471-.471.031-.958.016-.958.974-.958,5.026,0,10.045.008,15.071-.016C27.507,16.572,27.609,16.682,27.593,17.1Z" transform="translate(-10.68 -16.21)"/></g></g></g></g></svg>