<svg xmlns="http://www.w3.org/2000/svg" xmlns:xlink="http://www.w3.org/1999/xlink" width="168" height="67" viewBox="0 0 168 67"><defs><clipPath id="a"><rect width="168" height="67" transform="translate(-0.016)" fill="#fff"/></clipPath></defs><g transform="translate(0.016)" clip-path="url(#a)"><g transform="translate(0.174 19.354)"><g transform="translate(0 0)"><path d="M74.743,22.106a11.556,11.556,0,0,1,1.989,1.232,3.169,3.169,0,0,1,.646,3.14c-.323,1.549-.781,3.069-1.185,4.6-.147.563-.305,1.133-.464,1.719H53.622c.329-1.25.64-2.435.957-3.615,1.156-4.331,2.318-8.656,3.451-12.993.123-.475.317-.6.792-.6,4.255.018,8.5-.006,12.758.012a4.266,4.266,0,0,1,2.67.728c1.262.957,1.291,2.283,1.021,3.668C75.13,20.733,74.907,21.461,74.743,22.106Zm-3.21,3.856H61.439c-.188.716-.376,1.438-.581,2.218,3.322,0,6.549,0,9.783-.012a.439.439,0,0,0,.352-.205C71.192,27.312,71.351,26.655,71.533,25.962Zm-2.3-5.669c-2.072,0-4.026-.006-5.986.012a.435.435,0,0,0-.335.229c-.2.64-.364,1.291-.546,1.972h6.315C68.863,21.784,69.033,21.085,69.232,20.293Z" transform="translate(-13.947 -10.046)" fill="#054664"/><path d="M211.74,15.625c-.423,1.585-.822,3.093-1.238,4.648H196.828c-.7,2.629-1.4,5.229-2.119,7.911h.651c3.116,0,6.232-.018,9.349.012.5.006.692-.158.769-.622.07-.417.211-.827.335-1.291h-6.027c.346-1.3.663-2.541,1.015-3.779a.5.5,0,0,1,.393-.241c2.506,0,5.018-.07,7.524.059,2.412.123,3.527,1.86,2.928,4.425-.446,1.925-1.009,3.82-1.5,5.734-.106.417-.387.358-.675.358q-5.352,0-10.7-.006-5.229-.009-10.464-.023h-.781c.241-.951.464-1.825.692-2.705.857-3.251,1.708-6.5,2.576-9.748a6.17,6.17,0,0,1,6.127-4.765c4.783-.029,9.566-.006,14.349-.006C211.4,15.59,211.535,15.607,211.74,15.625Z" transform="translate(-43.537 -10.044)" fill="#054664"/><path d="M111.99,32.828c.446-1.678.857-3.239,1.273-4.806.675-2.529,1.338-5.059,2.025-7.588a6.217,6.217,0,0,1,6.367-4.847H136.55c-.957,3.586-1.9,7.107-2.852,10.657h-3.239c1.637,2.224,3.21,4.349,4.812,6.532a1.68,1.68,0,0,1-.305.059c-1.743,0-3.486.018-5.229-.018a1.042,1.042,0,0,1-.7-.387c-1.444-1.919-2.852-3.867-4.3-5.786a1.038,1.038,0,0,0-.7-.376c-1.273-.035-2.547-.006-3.82-.029-.364-.006-.5.123-.593.469-.493,1.872-1.015,3.738-1.508,5.61a.584.584,0,0,1-.675.528C115.652,32.817,113.868,32.828,111.99,32.828Zm17.97-12.535c-2.835,0-5.593,0-8.345.012a.449.449,0,0,0-.329.241c-.194.634-.352,1.273-.516,1.9.076.041.106.076.141.076,2.717.006,5.434.012,8.157,0a.473.473,0,0,0,.37-.264C129.625,21.649,129.772,21.021,129.959,20.293Z" transform="translate(-26.845 -10.046)" fill="#054664"/><path d="M154.372,32.766c.352-1.32.693-2.6,1.033-3.873.763-2.846,1.532-5.693,2.277-8.551a6.319,6.319,0,0,1,6.2-4.771,1.945,1.945,0,0,1,1.9.957c2.265,3.333,4.613,6.608,6.931,9.906.076.112.158.217.317.428.217-.769.423-1.444.6-2.119q1.153-4.331,2.3-8.656c.07-.258.094-.516.5-.511,1.784.023,3.568.012,5.352.012a1.323,1.323,0,0,1,.276.065c-1.532,5.728-3.058,11.426-4.6,17.183h-3.181c-.669,0-1.338-.053-2,.012a1.4,1.4,0,0,1-1.426-.745c-2.383-3.457-4.789-6.9-7.189-10.352-.065-.094-.147-.176-.282-.335-.082.223-.158.387-.205.558-.921,3.439-1.849,6.878-2.752,10.323-.1.387-.246.54-.669.534-1.643-.029-3.292-.018-4.935-.029A3.606,3.606,0,0,1,154.372,32.766Z" transform="translate(-36.21 -10.043)" fill="#054664"/><path d="M84.885,32.811c.464-1.749.892-3.392,1.332-5.029q.977-3.653,1.966-7.306a6.226,6.226,0,0,1,6.344-4.883q6.444-.009,12.882-.006h.769c-.358,1.35-.722,2.6-1.009,3.873-.141.646-.393.857-1.086.851-3.762-.047-7.529-.012-11.291-.035-.452,0-.675.1-.745.575a13.789,13.789,0,0,1-.358,1.379h7.97c-.358,1.309-.675,2.535-1.045,3.75-.041.129-.358.252-.546.252-2.295.018-4.589.023-6.884-.006-.464-.006-.669.135-.745.587-.076.434-.217.863-.346,1.344h12.717c-.317,1.185-.61,2.312-.915,3.433-.34,1.244-.34,1.244-1.631,1.244q-8.319-.009-16.643-.029C85.407,32.811,85.2,32.811,84.885,32.811Z" transform="translate(-20.855 -10.046)" fill="#054664"/><path d="M142.906,32.838c.833-3.122,1.631-6.115,2.43-9.108.681-2.547,1.367-5.088,2.031-7.641.106-.4.27-.546.675-.5.581.059,1.174.035,1.755.1a2.961,2.961,0,0,1,2.782,3.609c-.235,1.4-.628,2.782-.992,4.161-.775,2.952-1.585,5.892-2.359,8.85a.6.6,0,0,1-.716.546C146.674,32.821,144.837,32.838,142.906,32.838Z" transform="translate(-33.677 -10.045)" fill="#054664"/><path d="M13.032,13.726A7.229,7.229,0,0,0,10.9,9.917,4.342,4.342,0,0,0,8.2,8.526a4.22,4.22,0,0,0-3.275,1.6,5.094,5.094,0,0,0-.822,4.419q4.34,2.87,8.68,5.734v-4.22a6.052,6.052,0,0,1-1.555-.569,3.55,3.55,0,0,1-1.555-1.35c-.112-.194-.493-.886-.246-1.185.223-.27.845-.1,1.925.205C12.058,13.356,12.627,13.567,13.032,13.726Z" transform="translate(-2.964 -8.485)" fill="#f7771c"/><path d="M32.227,13.726a7.229,7.229,0,0,1,2.13-3.809,4.342,4.342,0,0,1,2.7-1.391,4.22,4.22,0,0,1,3.275,1.6,5.094,5.094,0,0,1,.822,4.419q-4.34,2.87-8.68,5.734v-4.22a6.052,6.052,0,0,0,1.555-.569,3.55,3.55,0,0,0,1.555-1.35c.111-.194.493-.886.246-1.185-.223-.27-.845-.1-1.925.205A16.886,16.886,0,0,0,32.227,13.726Z" transform="translate(-9.219 -8.485)" fill="#f7771c"/><path d="M14.509,8.475H29.128a7.683,7.683,0,0,0-2.418,7.494q-5.053.018-10.112.041a7.056,7.056,0,0,0,.205-3.727A7.131,7.131,0,0,0,14.509,8.475Z" transform="translate(-5.304 -8.475)" fill="#f7771c"/><path d="M17.613,20.566c.423,1.227.845,2.459,1.268,3.685q3.75.018,7.494.041c.276-1.209.546-2.418.822-3.633Q22.4,20.616,17.613,20.566Z" transform="translate(-5.989 -11.147)" fill="#f7771c"/><path d="M18.3,26.306c.27,2.876.434,5.974.434,9.272,0,1.538-.041,3.034-.112,4.478l8.022.053c-.076-1.432-.112-2.928-.112-4.478a81.68,81.68,0,0,1,.546-9.114C24.155,26.441,21.227,26.377,18.3,26.306Z" transform="translate(-6.141 -12.415)" fill="#f7771c"/><path d="M41.2,17.989q-4.5,2.9-9,5.81a23.1,23.1,0,0,1-.329,6.467A23.282,23.282,0,0,1,30.8,34.034,15.024,15.024,0,0,1,34,35.672a15.207,15.207,0,0,1,3.439,3.193A28,28,0,0,0,41.2,29.7,28.2,28.2,0,0,0,41.2,17.989Z" transform="translate(-8.904 -10.577)" fill="#f7771c"/><path d="M3.312,17.989q4.5,2.9,9,5.81a23.247,23.247,0,0,0,1.391,10.235,15.024,15.024,0,0,0-3.193,1.637,15.207,15.207,0,0,0-3.439,3.193A27.864,27.864,0,0,1,3.312,17.989Z" transform="translate(-2.692 -10.577)" fill="#f7771c"/></g></g></g></svg>