<svg xmlns="http://www.w3.org/2000/svg" xmlns:xlink="http://www.w3.org/1999/xlink" width="169" height="67" viewBox="0 0 169 67"><defs><clipPath id="a"><rect width="169" height="67" fill="#fff"/></clipPath><clipPath id="b"><rect width="140.644" height="28.939"/></clipPath></defs><g clip-path="url(#a)"><g transform="translate(13.812 19.151)"><g transform="translate(0 0)"><g clip-path="url(#b)"><path d="M2.7,6.248V25.273q0,4.969,4.966,4.966H138.092q4.96,0,4.96-4.966V6.248q0-4.96-4.96-4.96H7.662C4.356,1.282,2.7,2.941,2.7,6.248Z" transform="translate(-2.673 -1.323)" fill="#1b1918"/></g><path d="M33.915,25a13,13,0,0,1-1.665-.071,8.054,8.054,0,0,1-1.813-.431c-.13-.047-.183.035-.136.112a4.529,4.529,0,0,0,1.057,1,2.719,2.719,0,0,0,1.606.514Zm2.6-3.082c-.992.024-2.014.03-3.059.03a17.717,17.717,0,0,1-6.477-1.134c-.484-.189-.738.094-.283.484a6.591,6.591,0,0,0,4.393,2.191,21,21,0,0,0,3.868.283ZM39.926,17.9c-2.592.124-5.373.142-8.332.018a30.479,30.479,0,0,1-9.512-1.695c-.714-.266-1.092.112-.437.644A10,10,0,0,0,28.057,19.9a37.375,37.375,0,0,0,8.125.472c.59-.012,1.157-.041,1.712-.077Zm3.708-4.387a133.975,133.975,0,0,1-15.057-.354,44.624,44.624,0,0,1-13.168-2.746c-.98-.39-1.476.03-.632.833,1.5,1.429,2.911,3.289,8.822,4.275a58.978,58.978,0,0,0,11.26,1.146c2.309.047,4.393-.077,6.3-.224Z" transform="translate(-6.735 -4.455)" fill="#e30016"/><path d="M57.194,15.262l17.366.248c2.87.041,5.3.331,6.294.986s1.092,1.47.3,2.433a5.014,5.014,0,0,1-2.651,1.86,38.381,38.381,0,0,1-5.19.709c1.943.236,3.992.4,4.47,1.027,1.1,1.423-2.3,4.145-3.649,4.907a9.764,9.764,0,0,1-4.269.939c-7.21.3-15.553.065-23.33.1Zm7.092,5.291H66.1c1.636,0,2.138.077,3.33-1.228,1.441-1.582.218-1.63-.915-1.63H66.635Zm-4.511,5.763h2.214c1.9,0,2.185-.065,3.584-1.618,1.884-2.09.927-2.025-.514-2.025h-2.2Z" transform="translate(-17.963 -6.198)" fill="#d9dadb"/><path d="M108.431,15.716h11.827l-7.841,9.377h7.021l-2.858,3.862H97.431Z" transform="translate(-35.721 -6.357)" fill="#d9dadb"/><path d="M145.436,15.072h11.815l-4.021,5.1h3.543l4.062-5.1h11.821L161.379,28.936h-11.75l3.909-4.824h-3.383l-3.98,4.824H134.158Z" transform="translate(-48.533 -6.132)" fill="#d9dadb"/></g></g></g></svg>