<svg xmlns="http://www.w3.org/2000/svg" xmlns:xlink="http://www.w3.org/1999/xlink" width="168" height="67" viewBox="0 0 168 67"><defs><clipPath id="a"><rect width="168" height="67" transform="translate(-0.01)" fill="#fff"/></clipPath></defs><g transform="translate(0.01)" clip-path="url(#a)"><g transform="translate(9.041 6.935)"><g transform="translate(0 0)"><path d="M81.555,59.556a66.738,66.738,0,0,1-9.261-1.082,178.13,178.13,0,0,1-26.032-6.757,52.172,52.172,0,0,0-6.176-1.266c-7.638-1.589-15.154-3.574-22.2-7.022A28.32,28.32,0,0,1,9.721,37.8a11.816,11.816,0,0,1-3.166-5.462,9.28,9.28,0,0,1,1.721-7.77,22.426,22.426,0,0,1,8.006-6.544A74.452,74.452,0,0,1,33.8,11.6,181.519,181.519,0,0,1,65.066,6.853a244.405,244.405,0,0,1,32.2-.259,170.36,170.36,0,0,1,33.986,5c6.17,1.64,12.184,3.689,17.629,7.12a20.647,20.647,0,0,1,6.2,5.658,10,10,0,0,1,.029,11.816,21.708,21.708,0,0,1-7.281,6.354,65.1,65.1,0,0,1-15.638,6.227c-4.892,1.37-9.882,2.262-14.866,3.206-2.2.42-4.322,1.278-6.486,1.9A166.838,166.838,0,0,1,85.4,59.228C84.053,59.389,82.706,59.458,81.555,59.556ZM81.25,57.5a77.327,77.327,0,0,0,10.832-1.318,180.174,180.174,0,0,0,18.959-4.46,54.458,54.458,0,0,1,6.124-1.807c4.155-.691,8.294-1.473,12.38-2.527a67.537,67.537,0,0,0,16.961-6.412,21.177,21.177,0,0,0,6.5-5.318,8.164,8.164,0,0,0,.046-10.653,15.454,15.454,0,0,0-2.423-2.521,34.19,34.19,0,0,0-8.616-5.105,99.025,99.025,0,0,0-22.377-6.262A209.828,209.828,0,0,0,87.2,8.24c-5.381-.1-10.763.081-16.138.19-1.565.029-3.166.288-4.743.386q-4.679.285-9.33.794A159.051,159.051,0,0,0,31.92,14.18a64.109,64.109,0,0,0-16.064,6.412,18.486,18.486,0,0,0-6.032,5.272,7.364,7.364,0,0,0-.006,8.881,13.3,13.3,0,0,0,2,2.291,30.609,30.609,0,0,0,8.207,5.174,95.418,95.418,0,0,0,20.553,6.279,50.993,50.993,0,0,1,6.107,1.243,180.476,180.476,0,0,0,23.574,6.319A70.485,70.485,0,0,0,81.25,57.5Z" transform="translate(-6.304 -6.184)" fill="#030303"/><path d="M45.454,47.155a.927.927,0,0,1-.6.006c-5.174-1.606-10.227-3.476-14.7-6.625a15.634,15.634,0,0,1-4.253-4.2,7.334,7.334,0,0,1,.006-8.627A18.485,18.485,0,0,1,32.332,22.1a60.791,60.791,0,0,1,15.24-5.974,133.312,133.312,0,0,1,20.961-3.7,182.594,182.594,0,0,1,27.54-.719c11.971.587,23.8,2.089,35.275,5.761a46.48,46.48,0,0,1,12.823,6.014,15.452,15.452,0,0,1,4.386,4.386,7.32,7.32,0,0,1-.092,8.438,18.022,18.022,0,0,1-6.02,5.387,55.5,55.5,0,0,1-13.071,5.491c-.2.058-.414.19-.622,0,.086-.086.155-.207.259-.259,1.14-.535,2.3-1.013,3.425-1.583a30.343,30.343,0,0,0,8.5-5.8,7.878,7.878,0,0,0,2.406-4.535,10.664,10.664,0,0,1-4.714,3.131,51.205,51.205,0,0,1-6.607,2.158c-2.366.645-4.754,1.174-7.154,1.681-1.905.4-3.822.748-5.738,1.088q-3.177.561-6.366,1.053c-1.75.271-3.511.5-5.266.731-2.941.374-5.876.783-8.823,1.088-2.774.282-5.56.472-8.328.742a57.731,57.731,0,0,1-10.026-.236c-2.578-.2-5.145-.489-7.712-.794-2.59-.305-5.18-.633-7.758-1.013-2.849-.42-5.709-.829-8.541-1.381-2.354-.46-4.737-.812-7.079-1.33-2.711-.6-5.422-1.2-8.075-2.02-3.448-1.071-6.958-2-9.715-4.558a1.483,1.483,0,0,0,.109.95,10.225,10.225,0,0,0,2.705,3.862,36.361,36.361,0,0,0,9.007,5.819A7.054,7.054,0,0,1,45.454,47.155ZM82.376,28.409a4.054,4.054,0,0,0,1.283-.788c.915-.944.932-4.426.017-5.364a3.206,3.206,0,0,0-2.417-.932c-4.466,0-8.932.006-13.4-.012-.489,0-.587.161-.581.616q.026,7.347-.006,14.694c0,.553.173.656.685.656,3.425-.023,6.855-.012,10.279-.012,1.094,0,2.181.029,3.275-.012a2.638,2.638,0,0,0,2.78-2.9c0-.915-.058-1.83.012-2.74A2.753,2.753,0,0,0,82.376,28.409Zm55.983-7.085h-.437q-6.82,0-13.635.006a5.342,5.342,0,0,0-.909.081,2.51,2.51,0,0,0-2.216,2.636v10.2a2.665,2.665,0,0,0,2.912,3c4.518.029,9.036.006,13.554.023.432,0,.558-.121.558-.558q-.026-4.722,0-9.445c0-.426-.109-.564-.547-.564-3.022.017-6.043.006-9.065.012-.2,0-.414-.058-.553.161-.65,1.036-1.295,2.072-2.009,3.212h.518c2.181,0,4.368.017,6.55-.012.5-.006.65.132.622.633-.04.835-.04,1.675,0,2.509.023.518-.1.7-.662.691q-3.384-.052-6.78,0c-.553.006-.668-.173-.662-.685.023-2.561.035-5.128-.006-7.689-.012-.65.115-.863.817-.852,3.1.046,6.193.017,9.289.023.311,0,.57.006.765-.328C137.064,23.4,137.674,22.435,138.359,21.324ZM117.91,28.415c1.583-.794,1.871-1.26,1.871-2.993V24.358a2.667,2.667,0,0,0-2.97-3.016c-4.489-.029-8.984-.006-13.474-.017-.409,0-.576.086-.576.541q.026,7.425-.006,14.843c0,.506.19.581.622.57,1.065-.029,2.135-.035,3.194,0,.518.017.7-.109.685-.662-.035-1.98,0-3.96-.023-5.94-.006-.455.092-.6.581-.6q3.427.043,6.849,0c.529-.006.679.132.673.673-.035,1.98,0,3.96-.023,5.94-.006.472.127.6.593.587,1.117-.035,2.233-.023,3.35-.006.368.006.541-.063.535-.495-.023-2.055-.012-4.109-.012-6.164a2.034,2.034,0,0,0-.633-1.422A3.771,3.771,0,0,0,117.91,28.415Zm-16.524-1.692h-9.9c-1.255,0-1.214-.006-1.266-1.283-.023-.616.167-.754.754-.748,3.246.029,6.5,0,9.744.029.518.006.719-.109.679-.662a12.633,12.633,0,0,1,0-1.98c.046-.581-.121-.771-.737-.765-3.856.029-7.718.012-11.574.023a5.658,5.658,0,0,0-1.209.109,2.473,2.473,0,0,0-2.089,2.584V34.309a2.626,2.626,0,0,0,2.8,2.947c4.109.04,8.225.012,12.334.023.368,0,.483-.109.472-.472a21.655,21.655,0,0,1,.006-2.2c.04-.57-.121-.714-.7-.708-3.246.029-6.5.006-9.744.029-.541.006-.777-.081-.731-.691a17.185,17.185,0,0,0,0-2.435c-.04-.593.155-.708.714-.7,2.515.029,5.025.012,7.54.012.294,0,.581.052.8-.282C99.936,28.807,100.632,27.817,101.386,26.723ZM54.347,24.7h5.381c1.358,0,1.324,0,1.37,1.33.017.6-.178.708-.731.7-2.181-.029-4.368,0-6.55-.023a.994.994,0,0,0-1.019.564c-1.842,3.148-3.724,6.279-5.583,9.416-.1.167-.282.3-.224.576,1.358,0,2.722-.023,4.086.012a.89.89,0,0,0,.9-.518c1.232-2.037,2.509-4.052,3.735-6.089a1,1,0,0,1,1.013-.593c1.347.046,2.694.052,4.035,0,.61-.023.7.19.685.725-.035,1.928.006,3.862-.023,5.79-.006.512.1.714.656.691,1.065-.046,2.135-.046,3.2,0,.558.023.662-.173.662-.691-.023-4.063-.012-8.127-.012-12.19,0-1.986-.955-3.027-2.941-3.068-2.055-.046-4.115-.006-6.17-.017a.67.67,0,0,0-.679.357C55.578,22.66,54.985,23.632,54.347,24.7Zm-7.275,9.2c-2.268,0-4.374-.035-6.481.023-.714.017-.823-.213-.812-.852q.06-3.773,0-7.545c-.012-.668.144-.846.823-.84,3.81.035,7.62.017,11.43.012.219,0,.518.121.65-.1.656-1.059,1.272-2.135,1.951-3.275-5.473,0-10.786,0-16.092.006a5.631,5.631,0,0,0-.984.081,2.521,2.521,0,0,0-2.216,2.642V34.338a2.636,2.636,0,0,0,2.843,2.918c2.106.04,4.213.012,6.325.017.23,0,.443.006.593-.236C45.725,36.03,46.364,35.028,47.072,33.9Zm39.69,7.7c-.322-.593-.61-1.122-.892-1.652-.351-.65-.955-.317-1.433-.311-.4.006-.2.443-.213.685-.029.558-.023,1.117-.006,1.675.012.328-.2.777.483.765.633-.012.432-.426.443-.731.023-.409.006-.823.006-1.237a9.866,9.866,0,0,1,1.024,1.531c.357.616.8.61,1.174.006a9.408,9.408,0,0,1,1.024-1.646c0,.61.012,1.088-.006,1.565-.012.328.029.506.437.512s.53-.127.512-.518c-.029-.529-.006-1.065-.006-1.6,0-1.145,0-1.128-1.117-1.047a.622.622,0,0,0-.564.409C87.36,40.513,87.078,41.02,86.761,41.6Zm14.682,1.134v.023c.357,0,.708.006,1.065,0,.6-.017.938-.276.944-.927.006-.627-.271-.955-.886-.99-.581-.035-1.163-.04-1.744-.058-.173-.006-.334-.081-.334-.236a.262.262,0,0,1,.328-.236c.524.086,1.088-.213,1.6.224.207.178.708.265.858-.075s-.1-.679-.5-.794a1.978,1.978,0,0,0-.449-.075c-.581-.012-1.168-.012-1.75,0-.627.012-1.059.219-1.082.973-.023.794.46.927,1.065.961.506.029,1.013.023,1.519.04.161.006.311.058.34.236a.2.2,0,0,1-.219.247c-.581-.058-1.2.259-1.744-.2a.879.879,0,0,0-.858-.075c-.178.046-.1.265-.075.4a.648.648,0,0,0,.627.564C100.586,42.764,101.018,42.735,101.444,42.735Zm-24.231.017c.455,0,.915-.017,1.37.006.305.017.391-.1.4-.391.006-.305-.1-.391-.4-.38-.558.023-1.117.012-1.675.006-.19,0-.437.058-.42-.271.017-.276.23-.213.4-.219.483-.006.967,0,1.445,0,.224,0,.46.046.466-.322.012-.345-.2-.357-.437-.351a10.776,10.776,0,0,1-1.22-.012c-.224-.023-.668.23-.639-.247.023-.426.443-.2.679-.219.455-.035.915-.012,1.37-.012.224,0,.386-.012.38-.317-.006-.282-.069-.426-.38-.42-.558.012-1.117.006-1.675.006-1.376,0-1.376,0-1.376,1.4C75.5,42.746,75.5,42.746,77.213,42.752Zm15.074-.006c.432,0,.863-.017,1.295.006.328.017.437-.1.437-.437,0-.368-.23-.328-.455-.328-.535,0-1.065.006-1.6-.006-.184-.006-.46.086-.472-.219-.017-.374.305-.253.5-.259.455-.017.915,0,1.37-.006.224,0,.466.046.472-.322.006-.351-.207-.351-.443-.351-.506,0-1.013.006-1.525,0-.173,0-.386.029-.386-.236s.2-.253.374-.253c.558,0,1.117-.006,1.675.006.265.006.426-.04.42-.368s-.161-.374-.432-.368c-.535.012-1.065,0-1.6.006-1.393,0-1.393,0-1.393,1.376C90.531,42.746,90.531,42.746,92.287,42.746ZM70.364,41.181v.99c0,.3-.075.593.426.593.46,0,.593-.178.518-.576-.109-.581.19-.7.679-.633a2.038,2.038,0,0,0,.53,0c.587-.086.927.063.794.742-.075.38.127.466.478.46s.512-.058.5-.455c-.023-.708-.012-1.416-.006-2.13.006-.328.023-.581-.449-.587-.455-.006-.6.161-.524.576.081.472-.115.639-.581.576a2.8,2.8,0,0,0-.76,0c-.518.069-.76-.1-.668-.645.058-.334-.046-.5-.437-.506-.409-.006-.541.132-.512.524C70.387,40.473,70.364,40.83,70.364,41.181Zm26.406,1.56c.386.075.489-.115.46-.466-.023-.276.023-.558-.012-.835-.092-.731.023-1.243.95-1.053.259.052.426-.029.42-.363-.006-.271-.046-.432-.363-.426-.984.012-1.974.012-2.958,0-.351-.006-.328.207-.34.449-.012.271.109.391.357.34,1.047-.219,1.082.409,1,1.163-.029.247.017.506-.006.76C96.235,42.7,96.425,42.8,96.77,42.741Zm-15.114.006c.38,0,.76-.017,1.14.006.317.017.443-.081.449-.42.006-.368-.173-.4-.466-.409-.547-.023-1.289.253-1.583-.121-.276-.351-.109-1.059-.1-1.612.006-.363,0-.61-.5-.61-.547,0-.455.328-.455.65v.984C80.131,42.746,80.131,42.746,81.656,42.746Z" transform="translate(-11.804 -7.786)" fill="#030303"/><path d="M48.441,57.341a7.183,7.183,0,0,0-2.21-1.18,36.91,36.91,0,0,1-9.007-5.819,10.226,10.226,0,0,1-2.705-3.862,1.5,1.5,0,0,1-.109-.95c2.763,2.55,6.268,3.488,9.715,4.558,2.653.823,5.37,1.422,8.075,2.02,2.342.518,4.719.869,7.079,1.33,2.832.553,5.686.961,8.541,1.381,2.578.38,5.168.708,7.758,1.013,2.567.3,5.134.593,7.712.794a57.141,57.141,0,0,0,10.026.236c2.774-.271,5.56-.46,8.328-.742,2.947-.3,5.888-.708,8.823-1.088,1.755-.224,3.517-.46,5.266-.731q3.186-.492,6.366-1.053c1.917-.34,3.833-.685,5.738-1.088,2.394-.5,4.789-1.036,7.154-1.681a51.207,51.207,0,0,0,6.607-2.158,10.632,10.632,0,0,0,4.714-3.131,7.845,7.845,0,0,1-2.406,4.535,30.343,30.343,0,0,1-8.5,5.8c-1.117.57-2.285,1.053-3.425,1.583-.1.046-.173.173-.259.259-1.871.863-3.856,1.416-5.778,2.13a141.359,141.359,0,0,1-14.826,4.483A163.475,163.475,0,0,1,93.748,67.4a36.493,36.493,0,0,1-10.907-.443,162.733,162.733,0,0,1-17.284-3.827,132.667,132.667,0,0,1-14.193-4.714A24.139,24.139,0,0,1,48.441,57.341Z" transform="translate(-14.791 -17.972)" fill="#ea2025"/><path d="M96.222,41.958c-1.168,0-2.337-.017-3.505.012-.4.006-.524-.121-.512-.518.023-.938.035-1.882,0-2.82-.017-.437.167-.483.529-.483,2.337.012,4.673.017,7.01,0,.42-.006.576.1.558.547-.035.915-.035,1.83,0,2.74.017.466-.173.541-.576.535C98.559,41.94,97.391,41.958,96.222,41.958Z" transform="translate(-32.264 -15.843)" fill="#030303"/><path d="M96.284,32.451c-1.145,0-2.285-.017-3.43.012-.466.012-.662-.075-.656-.61.017-1.422-.012-1.422,1.433-1.422,1.98,0,3.96.017,5.945-.012.53-.006.754.069.731.685-.052,1.347-.012,1.347-1.358,1.347-.886-.006-1.778-.006-2.665,0Z" transform="translate(-32.262 -13.508)" fill="#030303"/><path d="M147.23,30.425c1.14,0,2.285.012,3.424-.006.391-.006.507.109.512.512.023,1.508.04,1.508-1.5,1.508-2,0-4.006-.017-6.014.012-.478.006-.593-.138-.593-.6,0-1.433-.023-1.433,1.422-1.433C145.4,30.425,146.315,30.425,147.23,30.425Z" transform="translate(-47.634 -13.508)" fill="#030303"/></g></g></g></svg>