<svg xmlns="http://www.w3.org/2000/svg" xmlns:xlink="http://www.w3.org/1999/xlink" width="167" height="67" viewBox="0 0 167 67"><defs><clipPath id="a"><rect width="167" height="67" transform="translate(-0.005)" fill="#fff"/></clipPath></defs><g transform="translate(0.005)" clip-path="url(#a)"><g transform="translate(9.911 10.623)"><g transform="translate(0 0)"><path d="M150.337,45.309A50.307,50.307,0,0,1,136.2,52.051a117.43,117.43,0,0,1-13.394,3.53c-3.379.679-6.78,1.267-10.2,1.742-2.949.415-5.905.732-8.869.988-2.926.256-5.852.49-8.786.634-2.255.106-4.5.189-6.757.241-4.163.106-8.334.106-12.5-.038q-4.763-.158-9.51-.513c-2.511-.189-5.015-.4-7.519-.671q-4.638-.5-9.239-1.237c-3.786-.6-7.549-1.29-11.283-2.18a110.171,110.171,0,0,1-11.366-3.333,52.847,52.847,0,0,1-10.378-4.9,22.019,22.019,0,0,1-5.83-4.925A8.774,8.774,0,0,1,8.6,36.93a7.319,7.319,0,0,1,.769-4.171A13.887,13.887,0,0,1,13.1,28.31a38.321,38.321,0,0,1,8.409-5.068A77.007,77.007,0,0,1,33.6,18.98a131.448,131.448,0,0,1,14.164-3.039c3.59-.573,7.187-1.094,10.8-1.471,2.542-.264,5.083-.475,7.632-.664,3.726-.272,7.444-.415,11.177-.49,5.113-.1,10.227-.06,15.34.173q3.926.181,7.851.505,3.993.339,7.979.822c2.941.354,5.875.769,8.794,1.282a131.255,131.255,0,0,1,14.85,3.349,78.352,78.352,0,0,1,13.123,4.993,28.58,28.58,0,0,1,7.926,5.619A10.7,10.7,0,0,1,155.8,34.1a7.584,7.584,0,0,1-1.116,6.878,16.814,16.814,0,0,1-3.409,3.6.279.279,0,0,0-.181.151c-.143.113-.294.226-.437.347A.669.669,0,0,0,150.337,45.309Zm-70.411,9.5h.867c2.647.015,5.294-.038,7.942-.128,2.21-.075,4.42-.173,6.629-.324,2.142-.143,4.276-.347,6.411-.558q4.186-.419,8.334-1.071a111.1,111.1,0,0,0,12.346-2.685A52.066,52.066,0,0,0,135.057,45a17.44,17.44,0,0,0,5.528-4.638,6.137,6.137,0,0,0,1.131-5.551,8.979,8.979,0,0,0-2.489-3.877,22.741,22.741,0,0,0-4.88-3.53c-.626-.354-.6-.181-.339-.875.068-.189.128-.37.2-.558a2.776,2.776,0,0,0-.626-2.926,3.376,3.376,0,0,0-2.617-1c-3.522-.008-7.044,0-10.559,0a2.448,2.448,0,0,1-.664-.06c-2.127-.535-4.261-1.033-6.418-1.44q-3.484-.656-7.006-1.139c-2.33-.324-4.668-.588-7.014-.83-1.584-.166-3.175-.287-4.759-.392-2.971-.2-5.943-.354-8.922-.392-3.68-.045-7.353-.045-11.026.121-1.614.068-3.235.128-4.849.241q-3.3.226-6.607.558-4.129.407-8.221,1.033c-2.926.46-5.83,1-8.711,1.667a15.3,15.3,0,0,1-4.374.475c-.566-.03-1.131-.023-1.7,0a6.34,6.34,0,0,0-5.219,2.64,1.332,1.332,0,0,1-.6.475,42.591,42.591,0,0,0-5.166,2.459A18.5,18.5,0,0,0,23.6,31.952a6.441,6.441,0,0,0-.483,7.723A13.813,13.813,0,0,0,27.066,43.6c.279.2.4.332.287.716A1.938,1.938,0,0,0,28.6,46.832a3.594,3.594,0,0,0,1.358.226c1.078.008,2.165.008,3.243,0a1.3,1.3,0,0,1,.535.1,71.121,71.121,0,0,0,12.316,3.861q4.05.939,8.16,1.6c1.765.287,3.53.558,5.309.769,2.1.256,4.208.475,6.32.671,2.376.219,4.751.377,7.127.505C75.288,54.691,77.6,54.789,79.926,54.812Z" transform="translate(-8.549 -13.266)" fill="#010101"/><path d="M215.988,60.041a.689.689,0,0,1,.324-.226A.277.277,0,0,1,215.988,60.041Z" transform="translate(-74.199 -27.998)" fill="#b9b9b9"/><path d="M217.1,59.237a.279.279,0,0,1,.181-.151A.186.186,0,0,1,217.1,59.237Z" transform="translate(-74.552 -27.767)" fill="#b9b9b9"/><path d="M119.136,50.639H105.727A1.394,1.394,0,0,1,104.1,49.3a.572.572,0,0,0-.362-.513c-.264-.083-.422.113-.558.287a3.22,3.22,0,0,1-1.342,1.237,3.121,3.121,0,0,1-1.109.249q-13.247-.011-26.5-.015a3.5,3.5,0,0,1-2.255-.694,2.28,2.28,0,0,1-.437-.5c-.264-.362-.37-.385-.694-.106a6.451,6.451,0,0,1-2.066,1.139,2.729,2.729,0,0,1-.935.075c-3.137.008-6.275.015-9.412-.008A16.18,16.18,0,0,1,55.86,50.4c-.468-.075-.573-.287-.415-.716.513-1.365,1.041-2.73,1.539-4.11.151-.415.294-.875-.106-1.252a1.427,1.427,0,0,0-1.456-.008,3.227,3.227,0,0,0-1.4,2.014c-.347.98-.7,1.961-1.048,2.941A1.762,1.762,0,0,1,51.35,50.45q-6.1.011-12.188,0a3.645,3.645,0,0,1-.7-.091.933.933,0,0,1-.777-1.29c.256-.792.573-1.561.86-2.338q1.606-4.321,3.22-8.635c.965-2.579,1.923-5.166,2.919-7.73a4.311,4.311,0,0,1,2.157-2.255,4.691,4.691,0,0,1,2.24-.528c3.469.015,6.938.008,10.408.008a2.752,2.752,0,0,1,.354.008.669.669,0,0,1,.641.965c-.52,1.478-1.063,2.949-1.591,4.427-.128.362-.272.716-.362,1.086a.852.852,0,0,0,.7,1.154,1.4,1.4,0,0,0,1.953-1c.664-1.7,1.32-3.386,1.991-5.083a2.479,2.479,0,0,1,1-1.282,1.785,1.785,0,0,1,.935-.279q5.521,0,11.034.015a9.523,9.523,0,0,1,1.523.173,1.351,1.351,0,0,1,.958,1.863c-.317.792-.6,1.606-.882,2.413C77,34.167,76.253,36.279,75.521,38.4c-.279.807-.03,1.026.528,1.486a.4.4,0,0,0,.626-.06,1.467,1.467,0,0,1,1.358-.535c3.379.015,6.75.008,10.129.015,1.161,0,1.252.143.86,1.222-.143.392-.279.8-.385,1.207a1.015,1.015,0,0,0,.468,1.222,1.143,1.143,0,0,0,1.358,0,2.5,2.5,0,0,0,.913-1.3c.777-2.187,1.554-4.367,2.33-6.554.46-1.3.913-2.609,1.38-3.907a8.046,8.046,0,0,1,1.094-2.263,3.265,3.265,0,0,1,2.625-1.32c3.085-.038,6.169-.03,9.254,0a4.162,4.162,0,0,1,1.622.287,1.558,1.558,0,0,1,1.026,1.244c.045.287.03.694.362.777.354.091.46-.339.641-.551a5.783,5.783,0,0,1,1.795-1.516,1.725,1.725,0,0,1,.8-.181c6.569.008,13.138-.008,19.7.015,1.87.008,3.733.068,5.6.075a5.921,5.921,0,0,1,2.014.347,1.08,1.08,0,0,1,.769,1.516c-.339.98-.732,1.953-1.071,2.934-.347,1-.716,1.976-1,2.994A14.452,14.452,0,0,1,139.808,37a1.662,1.662,0,0,1-1.6,1.094c-4.088.023-8.175.015-12.256.008-.422,0-.49-.106-.37-.505.189-.618.392-1.229.566-1.855.158-.573.045-.875-.377-1.124a1.071,1.071,0,0,0-1.373.106,3.656,3.656,0,0,0-1,1.757c-.354.95-.724,1.893-1.071,2.843-.339.913-.694,1.818-1.048,2.715a3.948,3.948,0,0,0-.181.649,1.277,1.277,0,0,0,.551,1.38,1.454,1.454,0,0,0,1.365-.264,2.717,2.717,0,0,0,.815-1.365c.362-1.078.671-1.312,1.81-1.312,2.662,0,5.325-.008,7.994.008.762,0,1.531.045,2.293.068a2.5,2.5,0,0,1,.98.287,1.126,1.126,0,0,1,.649,1.576c-.83,2.036-1.621,4.1-2.391,6.154a1.944,1.944,0,0,1-1.569,1.282,5.587,5.587,0,0,1-1.063.106c-3.273.008-6.539,0-9.812,0h-3.6C119.136,50.631,119.136,50.639,119.136,50.639Zm-56.149-1.35c1.478,0,2.956-.008,4.427,0a3.584,3.584,0,0,0,.935-.128,4.147,4.147,0,0,0,2.775-2.6c1.139-2.617,2.036-5.325,3.032-7.994.83-2.217,1.629-4.442,2.421-6.675a7.783,7.783,0,0,0,.566-1.931.943.943,0,0,0-.626-1.018,3.018,3.018,0,0,0-1.124-.2H71.524c-1.976-.008-3.952-.023-5.928-.015a1.6,1.6,0,0,0-1.576.98c-.385.867-.656,1.772-1,2.655-.4,1.026-.716,2.089-1.161,3.1a1.434,1.434,0,0,1-1.456.943c-.528-.015-1.056.038-1.576.015a4.631,4.631,0,0,1-1.29-.091.746.746,0,0,1-.611-.837,3.442,3.442,0,0,1,.241-1.033c.468-1.282.95-2.564,1.418-3.854a2.957,2.957,0,0,0,.234-1,.732.732,0,0,0-.475-.709,1.9,1.9,0,0,0-.762-.173c-2.836-.008-5.671-.053-8.5.008a3.681,3.681,0,0,0-3.318,2.006,20.658,20.658,0,0,0-1.109,2.821Q42.7,38.87,40.746,44.19c-.49,1.342-1,2.685-1.471,4.035a.658.658,0,0,0,.656.973c.822.045,1.644.053,2.466.053,1.3,0,2.594-.053,3.892-.015s2.609.075,3.907.015c1.177-.053,1.546-.241,1.976-1.44.453-1.252.935-2.489,1.4-3.733a1.718,1.718,0,0,1,1.3-1.139,10.17,10.17,0,0,1,2.662-.1c1.358.045,1.335.882,1.078,1.757a.446.446,0,0,1-.045.106c-.385.988-.784,1.976-1.161,2.971-.37.973.053,1.591,1.094,1.591C60.008,49.289,61.5,49.289,62.987,49.289Zm56.85.083h12.738a1.938,1.938,0,0,0,1.878-1.146c.7-1.486,1.222-3.047,1.795-4.585a.827.827,0,0,0-.664-1.154,2.312,2.312,0,0,0-.505-.06c-3.092-.03-6.184.03-9.276-.06a.872.872,0,0,0-1,.7c-.143.37-.271.739-.4,1.116a1.489,1.489,0,0,1-1.508,1.154c-.867.023-1.742.023-2.609,0a.976.976,0,0,1-1.026-1.131,1.864,1.864,0,0,1,.151-.611c.724-1.878,1.456-3.748,2.18-5.626q.667-1.731,1.342-3.454a1.823,1.823,0,0,1,1.546-1.244,9.814,9.814,0,0,1,2.444-.008,1,1,0,0,1,.86,1.471c-.106.324-.219.649-.324.973-.256.8-.06,1.063.784,1.071q2.987.011,5.966.008c1.1,0,2.21.008,3.311.015a1.415,1.415,0,0,0,1.516-.9c.626-1.787,1.252-3.567,1.878-5.355.37-1.063-.053-1.667-1.177-1.667q-6.969-.023-13.945-.038c-1.621,0-3.243.008-4.857-.023-1.682-.03-3.364.008-5.045-.015a4.089,4.089,0,0,0-4.291,2.753c-1.033,2.745-2.021,5.506-3.024,8.258q-.984,2.7-1.946,5.415a19.157,19.157,0,0,0-.86,2.579,1.136,1.136,0,0,0,1.2,1.546c.128.008.264.008.392.008Q113.608,49.375,119.837,49.372Zm-29.413-.015v.015h9.133a5.853,5.853,0,0,0,1.259-.045,3.367,3.367,0,0,0,2.5-2.149c.6-1.44,1.124-2.911,1.674-4.374.558-1.486,1.1-2.979,1.652-4.472q1.018-2.772,2.029-5.558c.287-.792.573-1.584.807-2.391a1.083,1.083,0,0,0-.905-1.463,3.647,3.647,0,0,0-.815-.1c-1.727,0-3.454-.023-5.181-.008-1.3.008-2.6-.075-3.907.06a2.377,2.377,0,0,0-2.074,1.41c-.113.249-.234.505-.324.762-1.071,2.941-2.127,5.883-3.2,8.816A27.571,27.571,0,0,1,91.8,43.18a1.92,1.92,0,0,1-1.4,1.124,7.527,7.527,0,0,1-2.632-.023,1.054,1.054,0,0,1-.837-1.463,7.9,7.9,0,0,1,.339-.92c.46-1.1.347-1.3-.845-1.3-1.81-.008-3.628.023-5.438-.023-1.033-.023-2.074-.053-3.107-.038a2.5,2.5,0,0,0-2.625,1.614c-.641,1.75-1.3,3.492-1.923,5.257-.347,1,.023,1.569,1.071,1.818a2.81,2.81,0,0,0,.505.068c.905.045,1.81.053,2.715.038,1.735-.03,3.462.023,5.2.03C85.364,49.364,87.9,49.357,90.424,49.357Z" transform="translate(-17.749 -17.796)" fill="#b9b9b9"/><path d="M112.829,66.142c-.166.43-.317.837-.468,1.244a.709.709,0,0,1-.875.3c-.113-.075-.06-.158-.03-.241.249-.694.5-1.388.754-2.074a.226.226,0,0,1,.03-.075c.415-.354.9-.106,1.35-.143.272-.023.2.256.226.422.053.362.1.724.158,1.177.385-.46.747-.852,1.056-1.275a.705.705,0,0,1,.724-.339c.309.038.747-.136.905.068.173.219-.136.573-.226.86-.151.475-.324.943-.5,1.418-.075.2-.822.37-.958.211-.075-.083,0-.173.023-.256a3.4,3.4,0,0,0,.256-1.131c-.309.362-.611.732-.92,1.094a1.177,1.177,0,0,1-1.1.317c-.189-.06-.151-.234-.173-.362-.06-.362-.106-.732-.158-1.094A.67.67,0,0,0,112.829,66.142Z" transform="translate(-41.105 -29.672)" fill="#010101"/><path d="M80.046,65.094c-.3.807-.581,1.584-.875,2.353-.068.173-.913.256-1,.106-.045-.075-.008-.151.023-.226q.1-.26.181-.52c.045-.143.008-.219-.166-.219q-.633.011-1.267,0a.245.245,0,0,0-.256.2c-.068.2-.158.392-.226.588a.311.311,0,0,1-.309.241c-.815.053-.822.06-.551-.709.2-.543.392-1.086.6-1.629.083-.219.882-.392,1.033-.219.128.151-.023.3-.068.437-.166.483-.173.483.332.483h.437c.724,0,.732,0,1-.671a.339.339,0,0,1,.377-.264C79.533,65.071,79.774,65.079,80.046,65.094Z" transform="translate(-29.717 -29.634)" fill="#010101"/><path d="M150.481,67.818a3.316,3.316,0,0,1-.98-.106.564.564,0,0,1-.453-.437c-.053-.271,0-.445.324-.422.173.008.339,0,.513,0,.075,0,.151-.008.211.075a.973.973,0,0,0,1.192.219.306.306,0,0,0,.143-.181c.015-.128-.121-.128-.2-.143-.362-.068-.732-.113-1.086-.189-.271-.053-.573-.128-.618-.468a.705.705,0,0,1,.4-.716,3.356,3.356,0,0,1,2.489-.234.507.507,0,0,1,.392.354c.053.189.038.362-.219.347-.309-.023-.664.226-.905-.2-.091-.158-.845-.083-.973.06-.158.173.008.2.121.226.362.075.724.128,1.086.211.279.06.573.158.6.483a.788.788,0,0,1-.437.739A2.964,2.964,0,0,1,150.481,67.818Z" transform="translate(-53.009 -29.666)" fill="#010101"/><path d="M90.136,67.655H88.914c-.189,0-.219-.075-.151-.249.264-.709.528-1.425.777-2.142a.332.332,0,0,1,.392-.234c.686,0,1.365,0,2.051.008.136,0,.385-.083.362.158-.023.2-.06.483-.415.468-.392-.023-.792-.008-1.184,0a.812.812,0,0,0-.272.023.224.224,0,0,0-.136.219c.008.121.113.083.181.083.354.008.709-.008,1.063.008.121.008.354-.091.324.143-.023.181-.03.452-.324.468-.385.015-.762.015-1.146.023a1.726,1.726,0,0,0-.279.008c-.151.015-.189.151-.2.256-.015.173.143.121.226.121.385.015.762.008,1.146.015.136.008.377-.075.354.158-.015.2-.06.468-.37.468-.392.008-.784.008-1.184,0Z" transform="translate(-33.925 -29.647)" fill="#010101"/><path d="M127.1,67.73c-.385,0-.762-.008-1.146,0-.241.008-.309-.1-.226-.317.249-.679.505-1.358.747-2.036a.322.322,0,0,1,.354-.234c.724.008,1.448,0,2.172.008.113,0,.324-.06.3.136-.015.173-.038.422-.317.43-.354.008-.709,0-1.063,0-.143,0-.287-.008-.437-.015-.2-.008-.241.158-.249.287-.008.166.151.106.241.106.339.008.686-.008,1.026.008.128.008.377-.106.339.173-.03.189-.053.445-.362.43-.354-.015-.709-.023-1.063-.038-.09,0-.181,0-.279.008-.2.015-.264.173-.264.332,0,.189.173.121.272.121.385.008.762-.015,1.146.008.121.008.377-.106.339.158-.023.181-.053.437-.354.437Z" transform="translate(-45.623 -29.684)" fill="#010101"/><path d="M139.687,65.207c.437,0,.867-.008,1.3,0,.128,0,.339-.09.339.128,0,.2-.053.437-.354.43a5.918,5.918,0,0,1-.633,0c-.294-.038-.415.106-.505.362-.151.475-.332.943-.505,1.41a1.07,1.07,0,0,1-.98.181c-.068-.083-.008-.173.023-.256.151-.437.287-.875.46-1.3.121-.294.113-.437-.256-.392a1.142,1.142,0,0,1-.392-.008c-.136-.03-.4.136-.385-.166.015-.219.113-.422.422-.415.49.015.973.008,1.463.008Q139.687,65.2,139.687,65.207Z" transform="translate(-49.455 -29.695)" fill="#010101"/><path d="M101.5,67.66c-.37,0-.739-.008-1.109,0-.2,0-.3-.023-.211-.264.256-.686.513-1.38.747-2.082.1-.279.309-.189.49-.2.641-.008.641,0,.43.581-.136.37-.256.747-.407,1.109-.106.249-.015.294.211.294.37-.008.739-.008,1.109.008.121.008.347-.1.339.121-.008.189-.053.453-.332.46-.422.015-.845,0-1.267,0Z" transform="translate(-37.539 -29.674)" fill="#010101"/><path d="M63.725,49.823H59.253c-1.041,0-1.463-.618-1.094-1.591.377-1,.777-1.984,1.161-2.971.015-.038.03-.068.045-.106.256-.875.272-1.712-1.078-1.757a10.17,10.17,0,0,0-2.662.1,1.718,1.718,0,0,0-1.3,1.139c-.468,1.244-.958,2.481-1.4,3.733-.43,1.2-.807,1.388-1.976,1.44-1.3.06-2.6.015-3.907-.015s-2.594.015-3.892.015c-.822,0-1.644-.015-2.466-.053-.6-.03-.86-.4-.656-.973.468-1.35.973-2.692,1.471-4.035Q43.449,39.43,45.4,34.121A19.727,19.727,0,0,1,46.507,31.3a3.681,3.681,0,0,1,3.318-2.006c2.836-.053,5.664-.008,8.5-.008a2.008,2.008,0,0,1,.762.173.732.732,0,0,1,.475.709,2.826,2.826,0,0,1-.234,1c-.468,1.282-.95,2.564-1.418,3.854a3.442,3.442,0,0,0-.241,1.033.742.742,0,0,0,.611.837,4.631,4.631,0,0,0,1.29.091c.528.015,1.056-.03,1.576-.015a1.453,1.453,0,0,0,1.456-.943c.453-1.011.762-2.074,1.161-3.1.347-.882.618-1.787,1-2.655a1.579,1.579,0,0,1,1.576-.98c1.976-.008,3.952.015,5.928.015h3.869a3.177,3.177,0,0,1,1.124.2.935.935,0,0,1,.626,1.018,8.222,8.222,0,0,1-.566,1.931Q76.135,35.8,74.9,39.121c-1,2.67-1.893,5.377-3.032,7.994a4.163,4.163,0,0,1-2.775,2.6,3.541,3.541,0,0,1-.935.128C66.681,49.815,65.2,49.823,63.725,49.823Z" transform="translate(-18.487 -18.33)" fill="#010101"/><path d="M151.378,49.942H138.919c-.128,0-.264,0-.392-.008a1.137,1.137,0,0,1-1.2-1.546,19.157,19.157,0,0,1,.86-2.579c.633-1.81,1.29-3.613,1.946-5.415,1-2.753,1.984-5.521,3.024-8.258a4.075,4.075,0,0,1,4.291-2.753c1.682.03,3.364-.008,5.045.015,1.622.03,3.243.015,4.857.023q6.969.011,13.945.038c1.124,0,1.554.6,1.177,1.667q-.939,2.681-1.878,5.355a1.41,1.41,0,0,1-1.516.9c-1.1-.008-2.21-.015-3.311-.015-1.991-.008-3.982,0-5.966-.008-.845,0-1.041-.272-.784-1.071.106-.324.219-.649.324-.973a1.008,1.008,0,0,0-.86-1.471,9.814,9.814,0,0,0-2.444.008,1.823,1.823,0,0,0-1.546,1.244q-.679,1.72-1.342,3.454c-.724,1.878-1.456,3.748-2.18,5.626a1.863,1.863,0,0,0-.151.611.979.979,0,0,0,1.026,1.131c.867.023,1.742.023,2.609,0a1.485,1.485,0,0,0,1.508-1.154c.128-.377.256-.747.4-1.116.211-.543.437-.716,1-.7,3.092.09,6.184.023,9.276.06a1.893,1.893,0,0,1,.505.06.827.827,0,0,1,.664,1.154c-.573,1.539-1.094,3.1-1.795,4.585a1.944,1.944,0,0,1-1.878,1.146Q157.74,49.938,151.378,49.942Z" transform="translate(-49.29 -18.366)" fill="#010101"/><path d="M106.905,49.914c-2.534,0-5.061.008-7.595,0-1.735-.008-3.462-.053-5.2-.03-.905.015-1.81.008-2.715-.038a2.809,2.809,0,0,1-.505-.068c-1.048-.249-1.418-.822-1.071-1.818.618-1.757,1.282-3.5,1.923-5.257a2.5,2.5,0,0,1,2.625-1.614c1.033-.015,2.074.008,3.107.038,1.81.045,3.628.015,5.438.023,1.192.008,1.3.2.845,1.3-.128.3-.241.611-.339.92a1.054,1.054,0,0,0,.837,1.463,7.526,7.526,0,0,0,2.632.023,1.92,1.92,0,0,0,1.4-1.124,28.381,28.381,0,0,0,1.267-3.318c1.071-2.934,2.134-5.883,3.2-8.816.09-.256.211-.513.324-.762a2.364,2.364,0,0,1,2.074-1.41,37.482,37.482,0,0,1,3.907-.06c1.727-.015,3.454.008,5.181.008a3.648,3.648,0,0,1,.815.1,1.088,1.088,0,0,1,.905,1.463c-.234.807-.52,1.6-.807,2.391-.671,1.855-1.35,3.7-2.029,5.558-.551,1.493-1.094,2.987-1.652,4.472-.551,1.463-1.071,2.934-1.674,4.374a3.352,3.352,0,0,1-2.5,2.149,6.381,6.381,0,0,1-1.259.045h-9.133S106.905,49.921,106.905,49.914Z" transform="translate(-34.231 -18.353)" fill="#010101"/></g></g></g></svg>