<svg xmlns="http://www.w3.org/2000/svg" xmlns:xlink="http://www.w3.org/1999/xlink" width="168" height="67" viewBox="0 0 168 67"><defs><clipPath id="a"><rect width="168" height="67" fill="#fff"/></clipPath></defs><g clip-path="url(#a)"><g transform="translate(-0.557 22.075)"><g transform="translate(0 0)"><path d="M111.507,38.089c-.015-.133-.1-.178-.222-.2a4.493,4.493,0,0,1-2.931-2.346c-1.021-1.673-2.08-3.33-3.079-5.018a.652.652,0,0,0-.984-.333c-2.494,1.006-5,1.969-7.5,2.96a3.715,3.715,0,0,1-1.391.259c-2.457-.015-4.921-.007-7.408-.155,1.184-.459,2.361-.925,3.545-1.384,3.686-1.421,7.364-2.857,11.057-4.255.592-.222.622-.429.289-.918-.688-1.021-1.354-2.065-1.969-3.13a1.265,1.265,0,0,0-1.266-.71c-4.633.03-9.266.015-13.9.015h-.807l-.133-.222c.644-.6,1.3-1.2,1.939-1.8.192-.185.422-.118.636-.118,6.261,0,12.529.015,18.79-.007,2.339-.007,4.248.71,5.41,2.857.259.481.548.326.9.185,2.4-.932,4.8-1.858,7.208-2.8a3.4,3.4,0,0,1,1.3-.244c2.405.015,4.81.007,7.253.133-.289.126-.577.259-.873.37-4.359,1.7-8.711,3.419-13.084,5.069-.777.3-.71.54-.333,1.132,2.072,3.264,4.115,6.557,6.157,9.843.155.252.437.466.34.821Q115.973,38.086,111.507,38.089Z" transform="translate(-29.049 -15.164)" fill="#020202"/><path d="M216.9,20.906c-.607.577-1.221,1.14-1.813,1.732q-5.162,5.14-10.316,10.294a1.394,1.394,0,0,1-1.1.474c-2.612-.022-5.225-.037-7.837,0a2.434,2.434,0,0,1-2.39-1.384c-.829-1.562-1.695-3.1-2.464-4.692-.348-.718-.555-.577-1.006-.126-1.872,1.9-3.782,3.767-5.654,5.661a1.574,1.574,0,0,1-1.243.533c-2.923-.03-5.839-.015-8.762-.015h-.718c-.067-.089-.133-.185-.192-.274a2.311,2.311,0,0,0,.562-.318q5.828-5.784,11.634-11.6a1.483,1.483,0,0,1,1.169-.5c1.991.03,3.989.067,5.98,0a5.113,5.113,0,0,1,5.336,3.412c.5,1.184,1.088,2.339,1.628,3.5.326.022.437-.244.6-.407,1.48-1.458,2.96-2.916,4.426-4.4a6.792,6.792,0,0,1,5.062-2.087c2.324.007,4.655,0,6.979,0C216.821,20.788,216.858,20.847,216.9,20.906Z" transform="translate(-48.627 -15.158)" fill="#020202"/><path d="M143.716,33.41q-6.694,0-13.388-.007c-.266,0-.644.126-.755-.163s.259-.459.444-.644c2.916-2.916,5.869-5.8,8.755-8.755a10.118,10.118,0,0,1,7.682-3.16c8.363.059,16.733.022,25.1.022.2,0,.392,0,.592.007.333.007.4.185.222.429a4.075,4.075,0,0,1-.511.562c-2.842,2.834-5.728,5.632-8.518,8.511a10,10,0,0,1-7.741,3.212C151.634,33.351,147.675,33.41,143.716,33.41Zm3.7-3.071c1.406,0,2.812-.074,4.211.015a5.53,5.53,0,0,0,4.5-1.858c1.273-1.3,2.583-2.575,3.871-3.871.192-.192.562-.385.451-.651-.133-.326-.548-.192-.844-.192-3.227-.007-6.461.015-9.687-.015a4.867,4.867,0,0,0-3.589,1.391c-1.51,1.465-3,2.96-4.485,4.448-.155.155-.407.311-.318.548.111.3.437.178.673.178Q144.8,30.343,147.416,30.339Z" transform="translate(-38.937 -15.155)" fill="#020202"/><path d="M90.9,25.249c-3.042,3.056-5.972,5.987-8.888,8.933a.773.773,0,0,1-.6.222L71.4,34.381c-.015,0-.03-.037-.118-.133.444-.437.9-.873,1.34-1.317q3.608-3.6,7.216-7.186a1.207,1.207,0,0,1,.9-.5C84.066,25.256,87.4,25.249,90.9,25.249Z" transform="translate(-26.06 -16.163)" fill="#020202"/><path d="M41.64,22.133a2.252,2.252,0,0,1-1.177-.407c-2.531-1.4-4.981-2.923-7.393-4.522-.259-.17-.71-.266-.577-.7a.933.933,0,0,1,.851-.6c.947-.126,1.895-.259,2.842-.3a87.475,87.475,0,0,1,13.284.222,3.466,3.466,0,0,1,.5.081c.355.1.747.244.814.644.067.37-.34.474-.577.636C47.8,18.8,45.34,20.305,42.809,21.719A2.192,2.192,0,0,1,41.64,22.133Z" transform="translate(-17.483 -14.002)" fill="#f27023"/><path d="M58.111,13.622a23.043,23.043,0,0,1,4.736.348c1.391.155,2.768.437,4.152.644a2.155,2.155,0,0,1,1.465.866,35.22,35.22,0,0,1,2.065,3.064,1.018,1.018,0,0,1-.089,1.288,70.065,70.065,0,0,1-14.483,14.8c-.333.252-.636.614-1.229.474a66.625,66.625,0,0,0,5.1-5.876,74.26,74.26,0,0,0,5.972-9.14,1.426,1.426,0,0,0-.015-1.465A7.071,7.071,0,0,0,60.213,14.2C59.576,14.089,58.947,13.859,58.111,13.622Z" transform="translate(-22.403 -13.588)" fill="#020202"/><path d="M29.781,35.738a33.81,33.81,0,0,1-5.543-4.107A72.353,72.353,0,0,1,13.566,19.989a1.288,1.288,0,0,1-.067-1.65c2.065-3.449,2.043-3.478,5.987-4.122,1.606-.266,3.227-.414,4.84-.6a4.076,4.076,0,0,1,1.117.052c-1.273.422-2.546.807-3.811,1.229A4.389,4.389,0,0,0,19.2,16.814c-1.939,3.042-1.821,2.235-.17,5.1a62.37,62.37,0,0,0,10.42,13.469A2.525,2.525,0,0,1,29.781,35.738Z" transform="translate(-13.233 -13.59)" fill="#020202"/><path d="M36.84,25.569a1.176,1.176,0,0,1-.533.9c-1.31,1.1-2.605,2.213-3.922,3.308-.681.57-1.014.54-1.525-.17-1.784-2.479-3.545-4.981-5.328-7.46a1,1,0,0,1-.015-1.3c.437-.622.829-1.266,1.236-1.9a.92.92,0,0,1,1.488-.3c2.686,1.932,5.4,3.826,7.993,5.876A1.2,1.2,0,0,1,36.84,25.569Z" transform="translate(-15.896 -14.647)" fill="#f27023"/><path d="M48.316,25.5a.973.973,0,0,1,.429-.807c2.679-2.176,5.521-4.13,8.318-6.135a.818.818,0,0,1,1.243.259c.5.74.984,1.5,1.473,2.25a.826.826,0,0,1-.1,1.006c-1.776,2.553-3.537,5.114-5.41,7.6a.856.856,0,0,1-1.421.163c-1.347-1.147-2.694-2.279-4.048-3.419A1.22,1.22,0,0,1,48.316,25.5Z" transform="translate(-20.985 -14.645)" fill="#f27023"/><path d="M42.351,39.1a6.109,6.109,0,0,1-5.832-3.4c-.244-.414-.229-.747.178-1.006,1.591-.992,3.175-2,4.8-2.945a2.066,2.066,0,0,1,2.168.089c1.488.9,2.953,1.828,4.44,2.731.592.363.592.718.237,1.3A6.176,6.176,0,0,1,42.351,39.1Z" transform="translate(-18.343 -17.54)" fill="#f27023"/></g></g></g></svg>