<svg xmlns="http://www.w3.org/2000/svg" xmlns:xlink="http://www.w3.org/1999/xlink" width="169" height="67" viewBox="0 0 169 67"><defs><clipPath id="a"><rect width="169" height="67" transform="translate(-0.016)" fill="#fff"/></clipPath></defs><g transform="translate(0.016)" clip-path="url(#a)"><g transform="translate(0.865 20.574)"><g transform="translate(0 0)"><path d="M132.224,25.668a9.6,9.6,0,0,1-2.765,2.387,11.128,11.128,0,0,1-4.7,1.345,13.2,13.2,0,0,1-4.079-.242c-.227-.053-.219.053-.227.2,0,.619.015,1.246-.023,1.866a2.261,2.261,0,0,1-2.2,2.1c-2.447.008-4.9.008-7.35,0a2.252,2.252,0,0,1-2.191-2.213c-.008-.612-.008-1.216,0-1.828,0-.174-.023-.257-.227-.2a3,3,0,0,1-.823.045h-6.828a2.409,2.409,0,0,1-1.254-.3.492.492,0,0,0-.423-.03,16.829,16.829,0,0,1-8.551.212,8.668,8.668,0,0,1-1.866-.695c-.181-.083-.295-.1-.446.06a2.327,2.327,0,0,1-1.745.68q-4.124-.011-8.249,0a2.312,2.312,0,0,1-1.949-.982q-1.292-1.688-2.568-3.376c-.068-.091-.136-.174-.272-.34v1.586c0,.3-.015.6,0,.9a2.193,2.193,0,0,1-2.107,2.206c-2.493.015-4.993.023-7.486-.008A2.024,2.024,0,0,1,61.96,27.02c.015-5.771.008-11.55.008-17.32A2.167,2.167,0,0,1,64.12,7.479q3.569-.034,7.138,0a2.158,2.158,0,0,1,2.221,2.327v.37c.136.038.181-.053.249-.113.778-.687,1.541-1.375,2.319-2.055A2.171,2.171,0,0,1,77.5,7.464c2.75-.008,5.5-.015,8.249,0a2.241,2.241,0,0,1,2.311,2.342,2.116,2.116,0,0,1-.891,1.639c-1.926,1.586-3.86,3.157-5.794,4.736-.34.279-.347.279-.076.619,1.314,1.6,2.621,3.2,3.935,4.8.076.091.128.219.287.272a5.108,5.108,0,0,1,1.322-2.289c.091-.1.091-.159,0-.257a2.489,2.489,0,0,1-.529-2.349,6.023,6.023,0,0,1,3.769-4.464,15.354,15.354,0,0,1,4.744-1.11,35.142,35.142,0,0,1,4.547-.144,18.832,18.832,0,0,1,5.967.922,6.126,6.126,0,0,1,3.218,2.417c.015.03.03.06.113.06v-.808a2.252,2.252,0,0,1,2.228-2.251c2.349-.008,4.691,0,7.04,0a1.757,1.757,0,0,1,.838.166.827.827,0,0,0,.718.03,13.106,13.106,0,0,1,4.155-.521,11.23,11.23,0,0,1,4.872,1.073,9,9,0,0,1,3.543,2.991c.023.03.038.053.076.106a.611.611,0,0,0,.068-.385,10.472,10.472,0,0,1,.06-1.684,2.219,2.219,0,0,1,2.1-1.775c2.394-.023,4.781-.015,7.176-.008a1.235,1.235,0,0,1,.574.106,1.375,1.375,0,0,0,1.08.03,13.218,13.218,0,0,1,8.611.5,8.88,8.88,0,0,1,3.769,3.082,1.554,1.554,0,0,0,.347.423c1.126-2.349,3.188-3.376,5.567-3.913a30.075,30.075,0,0,1,8.747-.446,16.206,16.206,0,0,1,4.2.718,5.908,5.908,0,0,1,3.807,3.3,7.826,7.826,0,0,1,.461,2.976c.015,2.024.015,4.049.015,6.073a1.57,1.57,0,0,0,.347,1.012,2.091,2.091,0,0,1,.295,2.41,2.265,2.265,0,0,1-2.107,1.261c-2.395.023-4.781.008-7.176.008a2.375,2.375,0,0,1-1.322-.325.372.372,0,0,0-.355-.015,16.18,16.18,0,0,1-8.913.128,6.6,6.6,0,0,1-3.988-2.7c-.113-.174-.166-.113-.264,0a9.563,9.563,0,0,1-6.239,3.1,14.017,14.017,0,0,1-4.8-.166c-.212-.045-.234.03-.234.2.008.567.008,1.125,0,1.692a2.247,2.247,0,0,1-2.289,2.3q-3.6.011-7.214,0a2.2,2.2,0,0,1-2.243-2.251C132.216,29.279,132.224,27.473,132.224,25.668ZM71.281,15.252c0-1.805,0-3.512.008-5.227,0-.219-.03-.325-.295-.325-2.175.008-4.343.008-6.519,0-.249,0-.3.076-.3.31q.011,8.26,0,16.527c0,.264.076.317.325.317,2.153-.008,4.3-.015,6.451,0,.279,0,.34-.076.34-.34-.015-1.6,0-3.2-.008-4.8a.579.579,0,0,1,.234-.5c.4-.31.793-.635,1.163-.974.219-.2.34-.189.521.053q2.391,3.161,4.8,6.315a.522.522,0,0,0,.461.234c2.659-.008,5.31-.008,7.969-.008.068,0,.166.053.211-.076Q82.411,21.6,78.162,16.422c-.189-.227-.166-.325.053-.506,2.13-1.715,4.245-3.444,6.368-5.174.393-.325.786-.65,1.231-1.02-.136-.015-.189-.03-.242-.03-2.614,0-5.22,0-7.833-.008a.634.634,0,0,0-.446.2l-3.988,3.558C72.648,14.043,72,14.617,71.281,15.252ZM118.2,25.434a6.588,6.588,0,0,0,2.213,1.277,10.83,10.83,0,0,0,5.446.234,7.618,7.618,0,0,0,3.46-1.533c2.228-1.805,2.651-5.718,1.3-8.1a7.2,7.2,0,0,0-4.759-3.52,11.966,11.966,0,0,0-4.147-.181A5.9,5.9,0,0,0,118,15.236c-.008.008-.045,0-.1,0,0-.378-.015-.755.008-1.125.015-.249-.083-.31-.317-.3-2.107.008-4.207.008-6.315,0-.264,0-.325.083-.325.332q.011,8.294,0,16.6c0,.272.083.317.332.317,2.175-.008,4.343-.008,6.519,0,.272,0,.347-.068.347-.34-.015-1.624-.008-3.241-.008-4.865A.843.843,0,0,1,118.2,25.434Zm23.53-.076a6.272,6.272,0,0,0,2.085,1.261,10.655,10.655,0,0,0,5.507.317,7.391,7.391,0,0,0,3.452-1.458,6.193,6.193,0,0,0,2.16-4.313A6.853,6.853,0,0,0,151.2,14.4a10.637,10.637,0,0,0-5.552-.846,6.509,6.509,0,0,0-3.6,1.239c-.181.144-.355.295-.589.491,0-.438-.023-.808.008-1.171.023-.279-.083-.34-.347-.34-2.07.008-4.139.015-6.209,0-.295,0-.378.06-.378.37q.011,8.249.008,16.49a.819.819,0,0,1,0,.136c-.023.181.053.234.234.234,2.228-.008,4.464-.008,6.693,0,.219,0,.264-.083.264-.287-.008-1.035-.008-2.07-.008-3.1C141.734,26.9,141.734,26.167,141.734,25.358Zm35.555,1.5a3.947,3.947,0,0,1-.869-2.885V18.93c0-.521-.008-1.035-.045-1.548a3.14,3.14,0,0,0-1.8-2.742,7.876,7.876,0,0,0-2.455-.77,31.5,31.5,0,0,0-9.306,0,8.024,8.024,0,0,0-3.588,1.322,3.384,3.384,0,0,0-1.42,2.311c-.03.212,0,.31.257.3.461-.023.922-.008,1.382-.008h4.729c.121,0,.279.068.325-.151a1.265,1.265,0,0,1,.959-.937,5.674,5.674,0,0,1,2.493-.174,2.63,2.63,0,0,1,1.042.325.928.928,0,0,1,.529.831.9.9,0,0,1-.559.8,3.225,3.225,0,0,1-1.058.279c-1.828.264-3.686.332-5.514.612a11.192,11.192,0,0,0-3.709,1.1,3.1,3.1,0,0,0-.287,5.446,6.15,6.15,0,0,0,2.039.891,15.245,15.245,0,0,0,5.136.249,8.543,8.543,0,0,0,3.354-.967c.249-.136.483-.295.748-.461a8.467,8.467,0,0,0,.136.838c.076.3.227.385.529.385,2.115-.015,4.23-.008,6.345-.008C176.843,26.854,177.017,26.854,177.289,26.854Zm-69.3-.008a3.1,3.1,0,0,1-.8-1.752,10.669,10.669,0,0,1-.076-1.1c-.008-2.107,0-4.207-.015-6.315a3.275,3.275,0,0,0-2.191-3.233,12.121,12.121,0,0,0-3.724-.8,35.1,35.1,0,0,0-6.783.076,11.089,11.089,0,0,0-3.52.9,3.763,3.763,0,0,0-2.319,2.6c-.128.559-.128.559.431.559h5.869c.121,0,.279.068.332-.144a1.358,1.358,0,0,1,1.088-.982,5.969,5.969,0,0,1,2.425-.128,2.453,2.453,0,0,1,1.065.363.86.86,0,0,1-.015,1.518,3.857,3.857,0,0,1-1.586.408c-1.707.212-3.437.295-5.136.559A10.176,10.176,0,0,0,89.16,20.6a3.075,3.075,0,0,0-.287,5.144,5.574,5.574,0,0,0,2.1,1,14.883,14.883,0,0,0,5.748.242,7.4,7.4,0,0,0,3.49-1.284c.159-.113.219-.076.212.113a2.653,2.653,0,0,0,.106.642c.06.287.212.37.5.363,2.2-.015,4.389-.008,6.587-.008A1.146,1.146,0,0,0,107.991,26.846Z" transform="translate(-16.325 -7.246)" fill="#e12028"/><path d="M23.906,10.373c.113-.234.2-.4.272-.559a2.416,2.416,0,0,1,1.586-1.45,9.466,9.466,0,0,1,2.1-.506,3.583,3.583,0,0,1,2.825,1.02,2.353,2.353,0,0,1,.551.937,1.22,1.22,0,0,0,.483.65c.869.582.952.793.68,1.8a.218.218,0,0,0-.015.136c.234.506.121,1.11.408,1.6.325.559.665,1.1.959,1.669a.329.329,0,0,0,.529.159c1.677-.959,3.407.687,3.414,2.062a2.24,2.24,0,0,1-.008.551,1.064,1.064,0,0,0,.272.944c.627.906,1.224,1.836,1.858,2.734a5.726,5.726,0,0,0,1.692,1.488c.937.6,1.926,1.118,2.9,1.647a1.638,1.638,0,0,1,.242,2.863,4.287,4.287,0,0,1-2.53.869,23.585,23.585,0,0,1-4.192-.242,2.168,2.168,0,0,1-2-2.311.652.652,0,0,0-.279-.544c-.408-.3-.808-.612-1.193-.929-.181-.151-.264-.113-.385.076a15.586,15.586,0,0,1-2.115,2.712,4.281,4.281,0,0,1-3.12,1.307c-.7,0-1.4-.008-2.107-.015a2.839,2.839,0,0,1-2.455-1.345c-.249-.378-.249-.378-.544-.023a3.38,3.38,0,0,1-.635.718,2.974,2.974,0,0,1-1.473.529,14.252,14.252,0,0,1-2.342.023,3.721,3.721,0,0,1-2.855-1.579,23.5,23.5,0,0,1-1.7-2.757c-.144-.264-.249-.257-.438-.068a4.13,4.13,0,0,1-.385.34,1.354,1.354,0,0,0-.589,1.269,2.35,2.35,0,0,1-2.478,2.583c-1.224-.015-2.425.121-3.641.128a3.866,3.866,0,0,1-3.384-1.579,2.273,2.273,0,0,1,1-3.475,17.38,17.38,0,0,0,1.775-.755,6.722,6.722,0,0,0,2.833-2.44c.431-.665.861-1.329,1.292-2a.675.675,0,0,0,.106-.544,3.132,3.132,0,0,1,1.042-3.1,1.438,1.438,0,0,1,1.345-.423.581.581,0,0,0,.3-.045,4.721,4.721,0,0,1,.922-.106c.174-.008.423.2.506-.091.106-.34.468-.65.121-1.073a1.273,1.273,0,0,1,.03-1.39c.03-.038.053-.076.083-.113a.979.979,0,0,0,.272-.922A2.273,2.273,0,0,1,16.2,8.681a4.643,4.643,0,0,1,3.822-1.465,6.121,6.121,0,0,1,1.428.189A3.831,3.831,0,0,1,23.906,10.373Zm.672,11.988a.744.744,0,0,1,.227.446c.272,1.125.733,2.2.906,3.354a1.1,1.1,0,0,0,1.2.959c.574.008,1.148.023,1.722,0a2.638,2.638,0,0,0,1.941-.823,18.653,18.653,0,0,0,2.017-2.659c.468-.748.929-1.5,1.39-2.236.136.038.144.136.174.2a6.35,6.35,0,0,0,2.009,2.236,7.973,7.973,0,0,1,1.443,1.269.858.858,0,0,1,.257.8c-.136.763.091.99.884,1a7.047,7.047,0,0,1,1.2.038,13.021,13.021,0,0,0,2.236.128,1.865,1.865,0,0,0,.672-.128c.1-.038.212-.068.2-.2a.207.207,0,0,0-.234-.2,2.146,2.146,0,0,1-1.148-.506A9.375,9.375,0,0,0,39.9,24.914a2.185,2.185,0,0,1-.793-.65c-1.261-1.511-2.289-3.2-3.46-4.766a.413.413,0,0,1-.06-.415A3.113,3.113,0,0,0,35.758,18c-.015-.242-.189-.355-.378-.446a.156.156,0,0,0-.234.076c-.083.249-.287.242-.483.234a1.651,1.651,0,0,0-.823.212.934.934,0,0,1-1.4-.6,2.39,2.39,0,0,0-.166-.378c-.483-.929-1.027-1.82-1.556-2.719-.113-.189-.295-.423-.181-.6a.629.629,0,0,0,0-.642,1.3,1.3,0,0,1-.113-1.058c.045-.091-.053-.144-.128-.174-.544-.212-.657-.763-.854-1.209-.151-.347-.295-.65-.65-.778a7.362,7.362,0,0,0-1.08-.1c-.023-.008-.06.03-.083.053a1.013,1.013,0,0,1-.838.212.645.645,0,0,0-.665.34,3.3,3.3,0,0,0-.264.446,2.189,2.189,0,0,0-.242,1.594,5.542,5.542,0,0,0,.5,1.314c.038.06.076.189.045.227a.648.648,0,0,0-.2.808c-.279.174-.212.415-.151.665.015.053-.038.128-.083.181a10.644,10.644,0,0,0-.695,1.027,4.332,4.332,0,0,0-.627,1.428c-.159-.083-.159-.2-.2-.287a9.711,9.711,0,0,0-2.009-3.218c-.083-.076-.128-.151-.053-.264.144-.242-.076-.431-.128-.642a1.7,1.7,0,0,0-.257-.755c-.008-.008.008-.053.023-.06.295-.06.151-.295.159-.438a5.976,5.976,0,0,0-.038-1.163c-.076-.408.06-.861-.227-1.231a1.859,1.859,0,0,0-1.964-.778c-.1.023-.2-.023-.31,0-.34.06-.718-.1-1.02.159-.159.128-.31.272-.468.393-.521.385-.551.483-.355,1.1a.217.217,0,0,1,.008.1c-.159.4-.045.906-.506,1.193-.227.144-.295.355.023.521a.233.233,0,0,1,.128.189,1.881,1.881,0,0,1-.053,1.042,8.861,8.861,0,0,0-.491,1.36c-.128.6-.514.838-1.027,1.073-.763.355-1.579-.151-2.342.249-.3.159-.529.181-.574.574a1.88,1.88,0,0,0,.2.967.465.465,0,0,1-.015.483c-.6.974-1.163,1.979-1.8,2.938a10,10,0,0,1-5.174,3.92c-.2.068-.491.038-.514.31s.3.219.446.347c-.2.347-.151.453.257.544a3.931,3.931,0,0,0,1.533.144,11.192,11.192,0,0,1,3.014-.091c.551.053.71-.166.68-.725a2.072,2.072,0,0,0-.023-.378,1.353,1.353,0,0,1,.408-1.314,5.922,5.922,0,0,1,.483-.491c.612-.574,1.261-1.1,1.851-1.707a5.725,5.725,0,0,0,.687-.906c.068-.106.113-.249.272-.234.128.015.159.151.2.257l.068.159a23.792,23.792,0,0,0,2.938,5.008,1.245,1.245,0,0,0,1.02.551c.657.015,1.314.023,1.964,0a1.044,1.044,0,0,0,.8-.249,8.351,8.351,0,0,0,1.05-1.314A11.4,11.4,0,0,0,24.579,22.361Z" transform="translate(-3.38 -7.187)" fill="#e12028"/><path d="M218.46,13.136a1.62,1.62,0,0,1-3.241.023,1.62,1.62,0,1,1,3.241-.023Zm-2.931-.015a1.311,1.311,0,1,0,1.337-1.277A1.295,1.295,0,0,0,215.529,13.121Z" transform="translate(-50.192 -8.144)" fill="#e12028"/><path d="M136.977,19.934a3.762,3.762,0,0,1,1.193.128,2.422,2.422,0,0,1,1.745,1.7,4.588,4.588,0,0,1-.045,2.848,2.351,2.351,0,0,1-1.639,1.541,4.565,4.565,0,0,1-2.447.038,2.429,2.429,0,0,1-1.843-1.858,4.787,4.787,0,0,1-.03-2.289,2.6,2.6,0,0,1,2.485-2.107C136.584,19.919,136.78,19.934,136.977,19.934Z" transform="translate(-32.197 -10.002)" fill="#e12028"/><path d="M167.2,19.877a9.142,9.142,0,0,1,1.073.121,2.464,2.464,0,0,1,1.873,1.783,4.654,4.654,0,0,1-.053,2.78,2.365,2.365,0,0,1-1.624,1.556,4.426,4.426,0,0,1-2.546.015,2.386,2.386,0,0,1-1.768-1.836,4.307,4.307,0,0,1,.242-3.021,2.538,2.538,0,0,1,2.07-1.352A7.2,7.2,0,0,1,167.2,19.877Z" transform="translate(-38.871 -9.991)" fill="#e12028"/><path d="M195.322,28.111a2.739,2.739,0,0,1-1.662-.544.865.865,0,0,1,.068-1.488,4.753,4.753,0,0,1,1.866-.544,20.705,20.705,0,0,0,2.719-.574c.174-.053.227-.03.219.151-.008.325.015.642-.008.967a1.944,1.944,0,0,1-1.254,1.707A4.533,4.533,0,0,1,195.322,28.111Z" transform="translate(-45.341 -11.109)" fill="#e12028"/><path d="M109.572,25.684c.113,1.564-1.065,2.243-2.395,2.387a3.984,3.984,0,0,1-1.836-.159,2.018,2.018,0,0,1-.733-.438.853.853,0,0,1,.053-1.322,3.059,3.059,0,0,1,1.473-.536,29.75,29.75,0,0,0,3.263-.672c.159-.045.181.008.181.136C109.572,25.276,109.572,25.473,109.572,25.684Z" transform="translate(-25.685 -11.108)" fill="#e12028"/><path d="M24.208,23.075a13.861,13.861,0,0,0-.174,1.813c-.023.121-.03.279-.181.3-.121.015-.189-.113-.249-.212-.612-.99-1.216-1.979-1.836-2.961-.106-.166-.1-.257.091-.34.521-.249,1.027-.514,1.548-.755.091-.045.257-.174.287.053A6.394,6.394,0,0,0,24.208,23.075Z" transform="translate(-7.428 -10.205)" fill="#e12028"/><path d="M35.816,24.9a3.054,3.054,0,0,1,.068-.582.516.516,0,0,1,.385-.438,1.431,1.431,0,0,0,.159-.068c.627-.295.687-.461.423-1.088-.113-.264-.325-.627-.2-.786s.483.106.74.189c.415.136.816.295,1.224.446.332.121.34.174.083.431l-2.357,2.311c-.113.106-.234.211-.393.151-.174-.068-.121-.249-.136-.393A.448.448,0,0,1,35.816,24.9Z" transform="translate(-10.545 -10.435)" fill="#e12028"/><path d="M37.834,18.858l-.166-.083a15.2,15.2,0,0,1-1.314-.869.336.336,0,0,1-.144-.491c.083-.159.121-.347.212-.506a.343.343,0,0,1,.642-.038,9.727,9.727,0,0,1,.869,1.783C37.977,18.745,38.008,18.843,37.834,18.858Z" transform="translate(-10.622 -9.282)" fill="#e12028"/><path d="M22.565,16.212a.751.751,0,0,1,.559.476.137.137,0,0,1-.068.144,3.244,3.244,0,0,1-.778.34c-.076.023-.136-.023-.113-.113.076-.264.159-.521.242-.786C22.436,16.2,22.519,16.22,22.565,16.212Z" transform="translate(-7.53 -9.181)" fill="#e12028"/><path d="M217.853,14.144a.31.31,0,0,1-.468-.174c-.068-.144-.151-.279-.227-.423-.045-.083-.1-.128-.189-.113-.113.015-.106.106-.106.181v.378c.008.128-.045.189-.181.189s-.144-.083-.144-.181V12.55c0-.083.008-.166.121-.159a3.352,3.352,0,0,1,.823.045.441.441,0,0,1,.34.385.427.427,0,0,1-.212.476c-.234.1-.136.2-.053.332C217.664,13.8,217.755,13.97,217.853,14.144Zm-.763-1.473c-.181-.038-.242.06-.234.242.008.151.015.272.219.234.174-.03.408.008.408-.249C217.49,12.671,217.279,12.671,217.09,12.671Z" transform="translate(-50.483 -8.336)" fill="#e12028"/></g></g></g></svg>