<svg xmlns="http://www.w3.org/2000/svg" xmlns:xlink="http://www.w3.org/1999/xlink" width="168" height="67" viewBox="0 0 168 67"><defs><clipPath id="a"><rect width="168" height="67" transform="translate(-0.016)" fill="#fff"/></clipPath></defs><g transform="translate(0.016)" clip-path="url(#a)"><g transform="translate(20.989 5.3)"><g transform="translate(0 0)"><path d="M109.262,91.578a3.891,3.891,0,0,1-1.2.126c-1.024.1-2.048.126-3.073.19-1.214.076-2.428.076-3.642.089-.089,0-.19-.013-.253.063H96.251A.263.263,0,0,0,96,91.982c-1.252.025-2.491-.038-3.743-.1-1.2-.051-2.4-.152-3.616-.24a.345.345,0,0,1-.1-.24,9.825,9.825,0,0,0-.076-1.227,3.467,3.467,0,0,1,1.252.038c.658.063,1.315.076,1.973.114.835.038,1.656.089,2.491.114,2.01.076,4.008.1,6.019.063,1.859-.038,3.718-.076,5.576-.215.86-.063,1.707-.089,2.567-.164a1.036,1.036,0,0,1,.392.038c.164.076.152.228.126.379a6.624,6.624,0,0,0,.025.708C108.832,91.54,109.161,91.413,109.262,91.578Z" transform="translate(-33.555 -36.519)" fill="#b6b7bb"/><path d="M5.335,56.64A2.072,2.072,0,0,1,3.5,54.073a4.348,4.348,0,0,1,1.922-2.554c1.429-.923,2.858-1.833,4.287-2.744a.329.329,0,0,0,.126-.518A13.841,13.841,0,0,1,8.268,43.54a13.694,13.694,0,0,1,1.821-8.864A22.81,22.81,0,0,1,14.7,29.1a26.6,26.6,0,0,1,3.25-2.567.427.427,0,0,1,.24-.114.735.735,0,0,1,.126.556c.013.86-.013,1.72.013,2.592.025.24-.152.354-.3.468a25.953,25.953,0,0,0-2.946,2.706,15.469,15.469,0,0,0-3.945,6.689,11.686,11.686,0,0,0,.48,7.536c.139.341.19.354.518.152,1.125-.7,2.213-1.441,3.351-2.112,1.3-.86,2.643-1.656,3.92-2.542,1.9-1.176,3.781-2.39,5.652-3.591,1.821-1.176,3.667-2.314,5.488-3.49,1.2-.784,2.415-1.517,3.6-2.314a3.1,3.1,0,0,0,1.492-2.01,2.207,2.207,0,0,0-.266-1.366A5.6,5.6,0,0,0,34.1,28.038c-.152-.177-.493-.278-.417-.518.089-.266.43-.152.658-.152.43-.013.86-.013,1.29-.025a4.192,4.192,0,0,0,.8,0H58.8a4.369,4.369,0,0,1,.708.025c.266.076.19.2.038.316a7.229,7.229,0,0,1-.733.468c-1.176.733-2.339,1.517-3.528,2.225a2.105,2.105,0,0,1-.632.038H39.779c-.228,0-.316.1-.278.316a6.909,6.909,0,0,1,.051.708,3.269,3.269,0,0,1-1.707,3.136c-.835.556-1.694,1.087-2.542,1.619-2.592,1.644-5.172,3.3-7.764,4.944-3.945,2.491-7.865,5.007-11.81,7.511C13.4,50.115,11.1,51.607,8.774,53.074c-.506.316-.923.733-1.4,1.1-.708.126-.961.7-1.239,1.239A4.169,4.169,0,0,1,5.335,56.64Z" transform="translate(-3.422 -13.948)" fill="#d8d9db"/><path d="M145.959,27.436h9.458c.1,0,.2.013.316.013.013,0,.013.013.013.025s-.013.025-.013.038a7.455,7.455,0,0,1-1.492.822c-1.328.632-2.6,1.34-3.92,1.985a.8.8,0,0,1-.556.152,2.456,2.456,0,0,0-.746-.076H97.2c-.569,0-.582,0-.67.569a5.322,5.322,0,0,1-2.15,3.528,33.341,33.341,0,0,1-3.262,2.023c-3.578,2.137-7.132,4.287-10.71,6.411-1.29.771-2.579,1.555-3.882,2.314a1.312,1.312,0,0,1-.468.215c-.278-.063-.1-.215-.038-.3A15.127,15.127,0,0,1,77,43.9c1.454-1.808,2.883-3.642,4.324-5.45a.725.725,0,0,1,.139-.139c.784-.544,1.631-.986,2.44-1.467L90.5,32.9a7.02,7.02,0,0,0,1.479-1.189,2.146,2.146,0,0,0-.1-3.313c-.266-.24-.556-.443-.847-.658-.1-.063-.2-.152-.177-.291s.177-.139.291-.152a4.664,4.664,0,0,1,.594-.013h41.436a1.85,1.85,0,0,0,.746-.051,3.128,3.128,0,0,1,1.618-.164c-.076-.2-.329-.392-.051-.67a2.005,2.005,0,0,1,1.012.493,2.218,2.218,0,0,0,1.4.392c.936-.025,1.871,0,2.794-.013,1.543-.013,3.085,0,4.641,0A1.505,1.505,0,0,1,145.959,27.436Z" transform="translate(-29.107 -13.941)" fill="#d8d9db"/><path d="M170.141,31.056c1.884-.948,3.755-1.9,5.64-2.858a1.2,1.2,0,0,1,.228-.076c-1.176,1.644-2.352,3.275-3.541,4.919-.506.7-.518.7-.051,1.416a14.778,14.778,0,0,1,2.377,6.474,13.879,13.879,0,0,1-1.985,8.6,23.528,23.528,0,0,1-5.488,6.234,25.927,25.927,0,0,1-2.4,1.808c-.19.013-.215-.152-.2-.266a10.5,10.5,0,0,1,.025-1.783,1,1,0,0,1,.367-.455,21.947,21.947,0,0,0,4.856-5.45,12.622,12.622,0,0,0,1.871-5.5,11.676,11.676,0,0,0-1.1-6.133c-.19-.392-.392-.784-.582-1.163a.664.664,0,0,0-.658-.4c-1.581.013-3.174-.013-4.754.013-1.618.025-3.237-.025-4.856-.013a2.263,2.263,0,0,0-.506.025c-.19.063-.278.24-.379.392q-2.75,4.116-5.526,8.232c-1.53,2.263-3.022,4.552-4.577,6.8a3.816,3.816,0,0,0-.784,2.2,1.421,1.421,0,0,0,.417,1.037,3.707,3.707,0,0,1,.455.544l.152.228a.947.947,0,0,1-.518,1.492,4.391,4.391,0,0,1-1.391.228c-.771-.013-1.555.013-2.327-.013-3.465.025-6.917,0-10.381.013a4.368,4.368,0,0,1-.708-.025c-.847-.2-.835-.2-.379-.936.228-.367.367-.784.607-1.151a1.568,1.568,0,0,1,.531-.62,1.764,1.764,0,0,1,.632-.051h9.281c.594,0,.607,0,.594-.594a5.3,5.3,0,0,1,1.062-3.25c1.29-1.821,2.529-3.68,3.806-5.513,2.377-3.452,4.742-6.9,7.132-10.343a2.641,2.641,0,0,1,2.339-1.163c2.542.013,5.07,0,7.612,0a3.037,3.037,0,0,0,3.111-2.769C170.09,31.145,170.1,31.094,170.141,31.056Z" transform="translate(-49.382 -14.551)" fill="#98979c"/><path d="M20.182,65.062c-3.1,0-6.183,0-9.281-.013-.316,0-.632,0-.948-.013-.3-.076-.278-.291-.164-.48.278-.468.455-1,.746-1.454a1.313,1.313,0,0,1,.582-.063H21.383c.86,0,1.252-.253,1.454-1.037A3.1,3.1,0,0,1,24.3,60.118c2.643-1.631,5.26-3.3,7.89-4.944,2.9-1.808,5.766-3.642,8.662-5.437a.673.673,0,0,1,.43-.19c.19.177-.025.278-.1.379-.632.759-1.264,1.517-1.909,2.276-1,1.176-1.973,2.365-3,3.528a1.928,1.928,0,0,1-.278.278c-3.009,1.884-6.006,3.793-9.016,5.677-.3.19-.3.19-.013.594-.126.493-.1.468.379.809.594.43,1.264.733,1.821,1.2.152.936-.291,1.176-1.087,1.138-.379-.013-.759.076-1.138.025-.177-.025-.24.089-.164.253.063.126.164.253.038.392a.7.7,0,0,1-.632-.253,3.048,3.048,0,0,0-2.453-.7c-.291.025-.582-.013-.872.038-.658-.038-1.315-.013-1.973-.013A1.573,1.573,0,0,1,20.182,65.062Z" transform="translate(-5.65 -22.143)" fill="#98979b"/><path d="M26.4,24.873a.811.811,0,0,1-.076-.455V21.611a7.224,7.224,0,0,1,1.353-.948,41.505,41.505,0,0,1,4.679-2.643,64.966,64.966,0,0,1,6.019-2.6q3.338-1.252,6.752-2.213c.392-.114.784-.215,1.176-.316a1.309,1.309,0,0,1,.114.7,12.805,12.805,0,0,0,.089,2.086c-.051.24-.266.266-.455.316-1.77.493-3.528,1.024-5.26,1.631a54.182,54.182,0,0,0-13.049,6.411c-.316.215-.632.443-.936.67C26.687,24.8,26.574,24.924,26.4,24.873Z" transform="translate(-11.536 -9.152)" fill="#d2d2d4"/><path d="M135.245,9.577a24.675,24.675,0,0,1,2.567.417c3.06.569,6.107,1.264,9.1,2.124a78.6,78.6,0,0,1,7.852,2.668.717.717,0,0,1,.164.1,1.037,1.037,0,0,1,.506,1.1c-.025.607-.013,1.214-.013,1.821,0,.126.038.266-.076.367a.61.61,0,0,1-.493-.063,76.565,76.565,0,0,0-11.279-3.743c-2.6-.658-5.222-1.214-7.878-1.656a3.581,3.581,0,0,1-.506-.1c-.114-.025-.253-.051-.19-.228a1,1,0,0,0,.114-.569V10.108A.778.778,0,0,1,135.245,9.577Z" transform="translate(-50.042 -7.98)" fill="#a6a7ab"/><path d="M124.287,8.7v2.516c0,.177,0,.354-.253.341a.567.567,0,0,1-.531.063c-2.238-.367-4.5-.658-6.752-.872-1.909-.19-3.806-.341-5.728-.43-1.656-.089-3.326-.139-4.982-.164a9.139,9.139,0,0,1-1.656-.126.535.535,0,0,1-.3-.544,19.587,19.587,0,0,0-.013-2.112.319.319,0,0,1,.076-.253c1.922-.051,3.831.025,5.741.089,1.644.063,3.288.177,4.931.316,1.694.139,3.376.316,5.07.518,1.378.177,2.757.392,4.135.582A1.33,1.33,0,0,1,124.287,8.7Z" transform="translate(-39.084 -7.103)" fill="#b0b1b5"/><path d="M93.138,7.122a9.652,9.652,0,0,1,.038,2.415c-.013.228.152.278.2.43a.647.647,0,0,1-.518.126c-1.416,0-2.82.063-4.236.1-1.669.051-3.338.152-5.007.278-3.237.24-6.461.594-9.673,1.087a.842.842,0,0,1-.468-.013.642.642,0,0,1-.443-.7c0-.632.025-1.252-.025-1.884a.319.319,0,0,1,.076-.253,23.318,23.318,0,0,1,2.44-.392c.923-.126,1.846-.24,2.769-.354.885-.1,1.77-.2,2.668-.278l3.376-.3c.48-.038.974-.051,1.454-.076.948-.076,1.9-.051,2.845-.114C90.141,7.084,91.634,7.11,93.138,7.122Z" transform="translate(-28.078 -7.106)" fill="#bdbec2"/><path d="M155.333,81.243c-1.252.582-2.567,1.024-3.869,1.479a92.932,92.932,0,0,1-12.885,3.4,29.642,29.642,0,0,1-3,.506c-.291.063-.329-.126-.316-.341a2.938,2.938,0,0,0-.038-1c.1-.278.379-.215.569-.24,2.63-.455,5.235-1,7.827-1.656A78.466,78.466,0,0,0,155,79.612c.152-.063.316-.164.48-.051A3.067,3.067,0,0,1,155.333,81.243Z" transform="translate(-50.127 -32.76)" fill="#a6a7aa"/><path d="M166.221,21.057c0-.885,0-1.758.013-2.643,0-.2-.126-.3-.253-.43-.063-.051-.24-.038-.139-.2A50.346,50.346,0,0,1,177.512,24.1c.1.076.228.139.278.266-1.77,0-3.553-.013-5.323-.013-.607-.266-1.151-.645-1.732-.961-1.378-.746-2.794-1.441-4.223-2.074C166.4,21.272,166.233,21.234,166.221,21.057Z" transform="translate(-60.964 -10.887)" fill="#9e9da2"/><path d="M67.49,9.577a10.435,10.435,0,0,1,.076,1.985c0,.316-.013.62.329.784-.152.215-.392.2-.607.24-2.807.455-5.589,1.037-8.345,1.72-.367.089-.733.215-1.113.291-.139.025-.291.089-.417-.038a2.9,2.9,0,0,1-.152-1.315v-1.53c2.478-.658,4.957-1.239,7.486-1.682C65.657,9.88,66.567,9.665,67.49,9.577Z" transform="translate(-22.498 -7.98)" fill="#c8c8ca"/><path d="M25.929,73.571c.8,0,1.606,0,2.4-.013a.757.757,0,0,1,.379.076.6.6,0,0,1,.4.126,57.655,57.655,0,0,0,12.126,5.6c1.555.531,3.111,1.012,4.691,1.454a.85.85,0,0,1,.455.215,2.646,2.646,0,0,1-.063,1.4,78.282,78.282,0,0,1-8.055-2.542c-1.4-.531-2.807-1.087-4.16-1.72a54.321,54.321,0,0,1-5.766-3.022C27.523,74.645,26.7,74.152,25.929,73.571Z" transform="translate(-11.398 -30.651)" fill="#d1d1d3"/><path d="M57.519,86.516v-1.4c.126-.126.278-.051.4-.025,3.224.835,6.474,1.53,9.762,2.061q3.585.588,7.182.923c.721.076,1.441.1,2.162.215.139.025.291.013.392.152.19.063.316.1.253.392a4.5,4.5,0,0,0-.013,1.012,21.485,21.485,0,0,1-2.2-.177c-.872-.063-1.745-.19-2.63-.291-1.113-.139-2.213-.253-3.326-.417-1.5-.215-3.009-.48-4.5-.759-1.707-.316-3.4-.658-5.083-1.075C59.112,86.934,58.315,86.719,57.519,86.516Z" transform="translate(-22.591 -34.72)" fill="#c5c5c8"/><path d="M166.367,78.037c.152-.556-.025-1.138.139-1.694.051-.2.228-.24.379-.3a47.476,47.476,0,0,0,5.956-3.1,36.941,36.941,0,0,0,3.326-2.289c.114-.089.215-.24.4-.177,0,.556-.013,1.113-.013,1.669a.524.524,0,0,0,.114.43,33.965,33.965,0,0,1-3.642,2.3A52.679,52.679,0,0,1,166.367,78.037Z" transform="translate(-61.161 -29.553)" fill="#9e9da1"/><path d="M129.77,88.382c.341.291.152.67.126,1-.013.215-.013.329.215.367a18.01,18.01,0,0,1-2.314.379c-1.4.2-2.807.392-4.223.531a30.5,30.5,0,0,1-3.224.266c-.126,0-.266,0-.392-.013s-.19-.076-.164-.177c.126-.379-.114-.784.063-1.163.139-.177.341-.177.544-.2q4.419-.36,8.8-1.062C129.4,88.281,129.606,88.218,129.77,88.382Z" transform="translate(-44.656 -35.865)" fill="#aeafb3"/><path d="M9.338,70.166a4.184,4.184,0,0,1-.506,1.2c-.114.215-.379.443-.038.683a6.923,6.923,0,0,1-2.39-.215c.417-.733.8-1.492,1.252-2.2a.821.821,0,0,1,.759-.329.665.665,0,0,0,.658.733A.318.318,0,0,1,9.338,70.166Z" transform="translate(-4.479 -29.143)" fill="#b8b9bc"/><path d="M98.045,71.565c-1.189.164-2.365.341-3.553.506-1.96.266-3.92.493-5.88.632-.152.013-.316.051-.468.063-1.581.089-3.161.19-4.742.266-2.832.126-5.677.177-8.522.089-1.631-.051-3.275-.126-4.906-.2-.733-.038-1.479-.089-2.213-.139a110.821,110.821,0,0,1-19.827-3.326c-.025-.013-.051,0-.076,0-2.225-.632-4.451-1.3-6.626-2.1a57.012,57.012,0,0,1-10.976-5.3c.1-.177.266-.063.392-.076a3.839,3.839,0,0,1,3.275.948,1.046,1.046,0,0,0,.2.114,2.929,2.929,0,0,1,1.189.594A46.958,46.958,0,0,0,41.878,66.6a67.153,67.153,0,0,0,9.1,2.567.975.975,0,0,0,.19.025c2.554.531,5.121.923,7.713,1.227.354.038.708.1,1.062.114,2.352.215,4.7.392,7.068.48s4.729.051,7.094.038c1.189,0,2.377-.114,3.553-.126a1.179,1.179,0,0,0,.278-.051c1.138-.076,2.289-.164,3.427-.266,2.832-.253,5.665-.607,8.472-1.075q2.5-.417,4.969-.948a92.033,92.033,0,0,0,10.078-2.769c2.3-.784,4.565-1.682,6.778-2.668.164-.076.329-.164.493-.253a44.809,44.809,0,0,0,6.651-3.667,30.853,30.853,0,0,0,5.7-4.7,16.414,16.414,0,0,0,4.008-6.613c.126-.417.19-.847.3-1.277a.486.486,0,0,0-.278-.62,2.5,2.5,0,0,1-1.125-1.34A2.178,2.178,0,0,1,128,42.242c.367-.341.582-.658.316-1.138a.216.216,0,0,1,.025-.291c1.593,0,3.2.013,4.792.013a.528.528,0,0,1,.531.3,12.6,12.6,0,0,1,1.808,7.182,13.159,13.159,0,0,1-2.5,6.778,23.068,23.068,0,0,1-4.3,4.577c-.126.1-.24.215-.354.316-.493.367-.986.733-1.492,1.1a47.576,47.576,0,0,1-8.295,4.628,1.9,1.9,0,0,0-.278.139c-.91.367-1.808.733-2.719,1.087a85.231,85.231,0,0,1-14.225,4.021C100.246,71.148,99.145,71.35,98.045,71.565Z" transform="translate(-12.931 -19.048)" fill="#1b1c20"/><path d="M10.4,57.087c-.164-.038-.341-.051-.506-.1-.48-.126-.569-.3-.417-.771a5.6,5.6,0,0,1,1.4-1.151q14.377-9.142,28.767-18.309l.3-.19A3.322,3.322,0,0,0,41.548,32.9c-.089-.493-.076-.493.43-.493h15c.164,0,.316-.013.48-.013.152.2.025.379-.038.556-.721,2.2-1.492,4.375-2.238,6.563-.733,2.162-1.5,4.312-2.225,6.487-.177.531-.417,1.037-.569,1.581L58,44.24q5.994-3.585,11.987-7.182a5.553,5.553,0,0,0,2.82-3.6,1.773,1.773,0,0,0,.089-.506c-.038-.48.177-.556.62-.556q26.1.019,52.184.013c.215,0,.455-.051.632.152a1.012,1.012,0,0,1,0,.582,3.183,3.183,0,0,1-3.035,2.44c-2.5,0-5.02.025-7.524-.013a2.91,2.91,0,0,0-2.681,1.4q-5.387,7.89-10.836,15.755a4.9,4.9,0,0,0-.9,3.25c.025.4-.1.468-.468.468q-4.912-.019-9.825-.013c-.114,0-.24.013-.354.013a1.326,1.326,0,0,1-.733.114,8.5,8.5,0,0,1-1.606-.076,1.848,1.848,0,0,1-.455-.114.671.671,0,0,1-.392-.847,5.08,5.08,0,0,1,.733-1.3q4.078-6.468,8.13-12.961c1.087-1.72,2.162-3.439,3.25-5.172a.6.6,0,0,0,.177-.43c-.114-.1-.253-.051-.379-.051-2.567,0-5.134-.025-7.688.013a13.014,13.014,0,0,0-4.059.62,6.566,6.566,0,0,0-3.553,2.769q-3.167,5.007-6.322,10.027c-.733,1.163-1.479,2.314-2.2,3.49a7.071,7.071,0,0,0-1.024,3.692c-.013.974,0,.974-.986.974H59.958a2.13,2.13,0,0,1-.632-.038c-.24-.164-.038-.3.051-.43.379-.569.8-1.125,1.2-1.682,3-4.122,5.981-8.257,9.016-12.455-.569.329-1.062.632-1.555.936-2.592,1.543-5.159,3.1-7.751,4.641q-6.923,4.135-13.833,8.295a1.719,1.719,0,0,1-.9.253q-4.438,0-8.877-.013c-.2,0-.468.1-.569-.215a8.487,8.487,0,0,1,.708-1.631c1.606-3.427,3.161-6.879,4.78-10.305.24-.518.506-1.012.708-1.555-.354.114-.582.48-.986.506-1.72,1.075-3.452,2.15-5.172,3.224q-5.861,3.661-11.709,7.334a3.075,3.075,0,0,0-1.543,2.01,1.3,1.3,0,0,1-1.416,1.024C17.75,57.1,14.071,57.087,10.4,57.087Z" transform="translate(-5.545 -16.064)" fill="#1b1c20"/><path d="M42.3,15.265c1.34-.316,2.693-.645,4.034-.961,2.036-.468,4.1-.872,6.171-1.176a2.093,2.093,0,0,0,.266-.076c1.277-.177,2.554-.354,3.844-.518,1.985-.253,3.983-.443,5.981-.607,3.351-.266,6.714-.329,10.09-.392,1.138.025,2.263.051,3.4.089A121.956,121.956,0,0,1,92,13.1a1.67,1.67,0,0,0,.354.025c1.075.2,2.15.4,3.212.607a82.733,82.733,0,0,1,16.893,5.045c.063.025.126.038.19.063,1.151.556,2.3,1.087,3.439,1.669.86.43,1.682.923,2.529,1.391.114.063.253.1.291.253-1.049,0-2.086-.013-3.136,0a1.338,1.338,0,0,1-.784-.215c-.392-.266-.809-.48-1.227-.721-.063-.051-.139-.013-.2-.038a6.94,6.94,0,0,0-.746-.392c-.645-.291-1.252-.658-1.9-.961A53.709,53.709,0,0,0,103.364,17c-1.72-.518-3.465-.948-5.21-1.34a97.285,97.285,0,0,0-17.639-2.01c-1.113.063-2.213-.139-3.326-.063-1.922.126-3.844.089-5.766.215q-4.078.247-8.118.733c-1.087.1-2.162.278-3.25.443-1.947.291-3.869.658-5.791,1.062-2.112.417-4.2.948-6.259,1.53a83.873,83.873,0,0,0-8.383,2.858c-.923.367-1.821.784-2.731,1.176a46.768,46.768,0,0,0-8.813,5.108,28.034,28.034,0,0,0-3.819,3.313,16.87,16.87,0,0,0-4.11,6.638,14.118,14.118,0,0,0-.506,2.719.585.585,0,0,1-.114.4c-1.176.746-2.365,1.492-3.528,2.251-.278.177-.341.114-.455-.152a11.977,11.977,0,0,1,.62-10.672,21.488,21.488,0,0,1,5.715-6.5c.126-.1.24-.2.354-.3A47.547,47.547,0,0,1,27.6,20.981a69.1,69.1,0,0,1,14.491-5.627C42.152,15.328,42.227,15.291,42.3,15.265Z" transform="translate(-7.376 -8.673)" fill="#1b1c20"/><path d="M85.332,28.005c.126.139-.013.24-.051.354-1.264,3.414-2.529,6.841-3.793,10.255-.051.139-.076.278-.126.417-.582.759-1.163,1.517-1.758,2.276q-1.859,2.371-3.718,4.729c-.164-.1-.013-.215.013-.3.974-2.87,1.973-5.728,2.959-8.586.683-1.973,1.353-3.932,2.036-5.905.038-.126.114-.24.076-.379.7-.544,1.479-.961,2.213-1.441C83.89,28.928,84.611,28.473,85.332,28.005Z" transform="translate(-29.073 -14.51)" fill="#98979c"/><path d="M30.821,37.675a24.183,24.183,0,0,0-2.744,3.262,12.863,12.863,0,0,0-1.9,4.274,2.4,2.4,0,0,0-.038.316c-1.113.8-2.289,1.479-3.439,2.225l-.455.3a14.261,14.261,0,0,1,3.932-9.016,26.192,26.192,0,0,1,4.565-4.122.538.538,0,0,1,.19.455c.025.645.013,1.29.013,1.935A.975.975,0,0,1,30.821,37.675Z" transform="translate(-10.093 -16.959)" fill="#97969b"/><path d="M50.358,25.121c-.367.177-.733.367-1.113.544a.566.566,0,0,1-.266-.493c0-.417.038-.835.025-1.239,1.416-.7,2.883-1.29,4.362-1.846a84.54,84.54,0,0,1,13.011-3.755,5.232,5.232,0,0,1,.164,1.328c-1.037.266-2.086.518-3.123.8a76.167,76.167,0,0,0-11.7,4.059c-.607.139-1.227,0-1.871.089C49.966,24.843,50.27,24.893,50.358,25.121Z" transform="translate(-19.565 -11.082)" fill="#a5a6aa"/><path d="M159.3,23.315c.051.025.1.063.152.089-.164.177.051.278.076.417.025.2.025.3-.24.3a2.479,2.479,0,0,0-1.353.152,44.714,44.714,0,0,0-9.926-4.16c-1.442-.43-2.9-.784-4.337-1.163a1.54,1.54,0,0,1-.089-1.037c.025-.177.152-.228.329-.152,1.454.266,2.883.645,4.3,1.05a53.127,53.127,0,0,1,9.117,3.427c.43.215.847.455,1.264.683C158.62,23.441,159.037,23.239,159.3,23.315Z" transform="translate(-53.072 -10.868)" fill="#d0d0d2"/><path d="M157.351,60.125a15.872,15.872,0,0,0,2.516-1.315,35.8,35.8,0,0,0,3.629-2.377,31.427,31.427,0,0,0,2.466-2.036,20.771,20.771,0,0,0,3.186-3.642,11.991,11.991,0,0,0,2.086-5.425,10.169,10.169,0,0,0-.481-4.312c-.076-.228-.228-.177-.367-.177h-2.731c.126-.139.3-.076.443-.076h5.2c.329.645.19,1.062-.367,1.606a2.213,2.213,0,0,0,.645,3.515c.329.177.354.354.3.683a14.923,14.923,0,0,1-3.616,7.144,32.751,32.751,0,0,1-8.308,6.714A43.636,43.636,0,0,1,157.2,62.92a1.709,1.709,0,0,1-.076-1.2.822.822,0,0,0,.4-1.29C157.464,60.328,157.4,60.226,157.351,60.125Z" transform="translate(-57.859 -19.026)" fill="#d7d8da"/><path d="M147.518,73.225a5.433,5.433,0,0,1,.076,1.2c-1.631.809-3.313,1.479-5.007,2.124A89.8,89.8,0,0,1,130.473,80.1c-.076.013-.152.013-.24.025-.3.063-.228-.177-.215-.316a15.055,15.055,0,0,0-.038-2c1.05-.266,2.112-.518,3.161-.784a79.912,79.912,0,0,0,10.318-3.363c.114-.051.253-.076.329-.2.733,0,1.479-.013,2.213,0A5.143,5.143,0,0,0,147.518,73.225Z" transform="translate(-48.267 -30.533)" fill="#cacacc"/><path d="M132.231,72.135a12.8,12.8,0,0,1-2.6-.089,3.8,3.8,0,0,1-.4-.139c-.114-.126-.051-.253.025-.354a6.6,6.6,0,0,0,.67-1.2,1.723,1.723,0,0,1,.721-.809c.822.1,1.644.038,2.453.076a5.915,5.915,0,0,0-.847,1.441,3.286,3.286,0,0,1-.392.632c-.063.076-.19.139-.139.253.051.139.19.126.3.126A.26.26,0,0,1,132.231,72.135Z" transform="translate(-47.976 -29.228)" fill="#b6b7ba"/><path d="M39.368,72.489a45.492,45.492,0,0,0,8.978,3.869c1.4.443,2.82.835,4.261,1.176.164.038.329.1.493.152.025.051.013-.013.025.038a6.416,6.416,0,0,1-.025,2.643,56.681,56.681,0,0,1-15.376-5.3,15.634,15.634,0,0,1-1.606-.936c.038-.152-.063-.228-.164-.329a.324.324,0,0,1-.038-.367c.063-.139.19-.076.3-.076a9.18,9.18,0,0,0,1.77-.063.444.444,0,0,0,.379-.48c-.025-.19.063-.354.038-.531l.038-.038a.481.481,0,0,1,.531.164C39.115,72.527,39.216,72.615,39.368,72.489Z" transform="translate(-14.923 -30.176)" fill="#a2a3a7"/><path d="M44.241,64.407a15.8,15.8,0,0,1,.847-1.96c1.024-2.238,2.074-4.476,3.1-6.714.025-.063.1-.139.025-.215.683-.7,1.277-1.467,1.909-2.213.961-1.125,1.909-2.251,2.858-3.376.215-.253.417-.506.62-.759.379-.253.759-.506,1.151-.759.063.126-.025.2-.063.278q-3.054,6.619-6.12,13.226c-.038.076-.076.139-.114.2a2.2,2.2,0,0,1-.974.645c-.936.506-1.871,1.037-2.82,1.53C44.531,64.37,44.4,64.509,44.241,64.407Z" transform="translate(-17.886 -21.741)" fill="#d8d9db"/><path d="M37.8,70.4l.164.126c.076.19.266.24.4.354s.266.19.139.379h0c-.4.063-.531-.341-.822-.468a8.416,8.416,0,0,1-1.075-.658c-.569-.341-.594-.329-.329-.847.089.076.177.139.266.215.114.152.2.354.455.329.1.076.215.164.316.24A.378.378,0,0,0,37.8,70.4Z" transform="translate(-15.007 -29.138)" fill="#a2a3a7"/><path d="M76.194,83.056c.948.076,1.884.164,2.832.24.822.076,1.644.164,2.478.215,2.883.177,5.766.2,8.662.164,1.024-.013,2.061-.051,3.085-.076.468-.063.468-.051.455.4-.013.417,0,.835-.013,1.264-.013.316.038.556.417.569.051,0,.089.051.126.089a10.8,10.8,0,0,1-1.694.114c-3.553.164-7.106.177-10.659,0-1.922-.089-3.844-.215-5.766-.455A.2.2,0,0,1,76,85.358a11.687,11.687,0,0,0,.076-1.884A.582.582,0,0,1,76.194,83.056Z" transform="translate(-29.14 -34.017)" fill="#b1b2b6"/><path d="M103.686,84.956c-.658-.038-.658-.038-.658-.7,0-.48.013-.948.025-1.416.013-.329-.24-.126-.354-.19.114-.1.253-.063.379-.076,1.72-.063,3.439-.215,5.159-.379,1.656-.152,3.3-.341,4.931-.582q3.4-.493,6.74-1.214c.126-.025.266-.038.392-.051.177.076.177.24.164.4a13.6,13.6,0,0,1-.051,1.758c-.025.114.051.126.139.152-1.264.341-2.554.544-3.831.784-3.326.62-6.676,1.024-10.052,1.328C105.683,84.843,104.684,84.893,103.686,84.956Z" transform="translate(-38.6 -33.059)" fill="#bebec3"/><path d="M71.428,82.224a18.593,18.593,0,0,1-.076,2.516c-1.3-.1-2.592-.278-3.869-.468-1.656-.24-3.3-.518-4.931-.885V80.706c.923.19,1.846.379,2.782.556,1.8.341,3.6.607,5.4.86C70.96,82.148,71.2,82.186,71.428,82.224Z" transform="translate(-24.374 -33.184)" fill="#a8a9ad"/><path d="M181.467,44.441a2.074,2.074,0,0,1,2.15-2.061,2.1,2.1,0,0,1,2.175,2.048,2.164,2.164,0,0,1-4.324.013Z" transform="translate(-66.511 -19.603)" fill="#d8d9dc"/><path d="M119.75,39.753c-1.593.025-3.2-.1-4.792.076a4.46,4.46,0,0,0-3.427,2.086q-3.319,5.14-6.613,10.305c-.8,1.239-1.606,2.491-2.39,3.743a2.44,2.44,0,0,0,1.34,3.869,1.13,1.13,0,0,1,.518.266c.215.253.164.48-.152.569a1.67,1.67,0,0,1-.354.025q-12.329,0-24.657-.013c-.063,0-.379.2-.24-.164a3.7,3.7,0,0,1,1.214-.531c1.075-.4,2.137-.8,3.224-1.163.126-.051.266-.139.4-.038.278,0,.556.013.835.013q6.98,0,13.96.013c.354,0,.468-.076.455-.455a8.064,8.064,0,0,1,1.34-4.716q4.1-6.392,8.093-12.834a7.3,7.3,0,0,1,5.26-3.363,16.907,16.907,0,0,1,3-.228h7.65c.063,0,.316-.139.177.152a15.3,15.3,0,0,0-1.922.986c-.809.443-1.618.86-2.428,1.315C120.1,39.753,119.939,39.879,119.75,39.753Z" transform="translate(-30.184 -17.76)" fill="#98979c"/><path d="M44.18,64.8c1.4-.759,2.807-1.517,4.223-2.276-.013.24.177.152.278.152.7.013,1.4,0,2.1,0h7.094a1.268,1.268,0,0,0,.67-.177Q69.223,56.084,79.9,49.7c.126-.076.228-.19.379-.19.038.19-.114.291-.228.392-.948.923-1.935,1.8-2.908,2.693-.809.746-1.606,1.492-2.415,2.238-.986.9-1.935,1.833-2.946,2.706a.653.653,0,0,1-.48.215q-3.13,1.859-6.272,3.718c-1.935,1.151-3.882,2.3-5.817,3.465a.784.784,0,0,1-.443.126H44.345C44.168,65.036,43.928,65.074,44.18,64.8Z" transform="translate(-17.826 -22.129)" fill="#98979c"/><path d="M136.55,39.817a7.862,7.862,0,0,0,1.732-.847c.948-.48,1.884-1.012,2.82-1.53.1-.051.2-.152.3,0q-3.281,5.254-6.575,10.5c-1.871,2.971-3.73,5.943-5.6,8.9-.025.051-.051.089-.076.139-.341.632-.19.986.506,1.176,0,.164-.164.19-.24.278a15.341,15.341,0,0,0-1.189,2.086,2.825,2.825,0,0,1-1.833-2.263A6.37,6.37,0,0,1,127.649,54q2.921-4.59,5.842-9.193c.986-1.555,1.96-3.111,2.946-4.666C136.5,40.032,136.576,39.944,136.55,39.817Z" transform="translate(-46.985 -17.824)" fill="#d8d9db"/><path d="M83.688,57.185a2.721,2.721,0,0,0,.809-.607c1.631-1.5,3.237-3.009,4.868-4.514,1.012-.936,2.036-1.871,3.047-2.82.089-.089.215-.164.253-.291a10.423,10.423,0,0,1,1.758-1.012l-.19.3q-5.045,6.961-10.078,13.922c-.1.139-.19.278-.291.43-1.543.556-3.085,1.113-4.615,1.669-.076.025-.152.038-.228.063.417-.759.948-1.441,1.429-2.162,1.024-1.53,2.061-3.047,3.085-4.565C83.612,57.476,83.789,57.375,83.688,57.185Z" transform="translate(-30.211 -21.574)" fill="#d9dadc"/><path d="M89.826,15.472c1.694-.266,3.4-.4,5.108-.544q5.064-.417,10.166-.379c.67,0,1.34.038,2.023.063a1.963,1.963,0,0,1,.076,1.176c-1.808,0-3.616-.038-5.425.025-1.758.051-3.528.139-5.285.278-1.34.1-2.668.228-4.008.354-.746.063-1.479.19-2.225.278-.139.013-.291.013-.43.025-.329-.341-.114-.759-.19-1.138C89.637,15.5,89.763,15.51,89.826,15.472Z" transform="translate(-33.972 -9.74)" fill="#b7b8bc"/><path d="M116.792,15.805a3.668,3.668,0,0,1-.076-1.176c1.821,0,3.642.126,5.45.266,1.884.139,3.755.329,5.627.594,2.213.316,4.438.658,6.613,1.189-.177-.013-.253.076-.24.253.013.3,0,.62,0,.923-1.264-.24-2.516-.506-3.781-.733-1.4-.253-2.82-.455-4.236-.607-1.151-.126-2.289-.266-3.439-.379-.784-.076-1.568-.126-2.365-.164C119.156,15.906,117.981,15.856,116.792,15.805Z" transform="translate(-43.564 -9.77)" fill="#c6c6c8"/><path d="M84.967,15.981c-.177.341-.038.708-.051,1.062a1.053,1.053,0,0,0,.051.19c-.822.126-1.631.266-2.453.392-1.821.278-3.629.62-5.425,1a3.875,3.875,0,0,1-1,.19,2.778,2.778,0,0,1-.164-1.328c2.567-.569,5.146-1,7.751-1.366C84.107,16.069,84.537,16.031,84.967,15.981Z" transform="translate(-29.113 -10.249)" fill="#aeafb3"/><path d="M44.189,27.007a1.105,1.105,0,0,1,.1.759,1.291,1.291,0,0,0,.139.986,38.62,38.62,0,0,0-8.864,6.057.275.275,0,0,1-.1.063c0-.632-.013-1.252,0-1.884a4.117,4.117,0,0,0-.076-.885,35.021,35.021,0,0,1,4.426-2.9A44.214,44.214,0,0,1,44.189,27.007Z" transform="translate(-14.749 -14.156)" fill="#9e9da2"/><path d="M167.512,26.165c-.24.266-.506-.089-.759.038-.051-.152-.089-.3.051-.43A2.977,2.977,0,0,1,167.512,26.165Z" transform="translate(-61.281 -13.719)" fill="#d8d9db"/><path d="M92.16,76.291c0,.645-.013,1.277,0,1.922.013.253-.063.329-.3.3a2.029,2.029,0,0,0-.392,0c-.164.013-.2-.051-.2-.2V75.658c0-.164.051-.253.228-.228h.076c.986-.025.986-.025,1.315.91.152.443.316.9.506,1.416.24-.7.468-1.315.67-1.935a.468.468,0,0,1,.544-.4c.91.025.91.013.91.936,0,.607-.013,1.214,0,1.821,0,.24-.038.341-.316.341-.594-.025-.594,0-.582-.569a15.07,15.07,0,0,0-.063-1.682c-.177.556-.354,1.113-.531,1.656-.19.607-.19.594-.822.594-.215,0-.291-.076-.354-.278-.19-.658-.4-1.3-.62-1.96A.1.1,0,0,1,92.16,76.291Z" transform="translate(-34.548 -31.31)" fill="#1b1b1f"/><path d="M103.423,78.5c-.468,0-.923-.013-1.391,0-.19,0-.253-.051-.253-.24q.019-1.29,0-2.58c0-.2.063-.266.266-.266q1.328.019,2.655,0c.24,0,.228.126.24.291.013.19-.038.253-.24.253-.556-.013-1.113.013-1.656-.013-.278-.013-.354.063-.354.341,0,.3.076.379.379.367.468-.025.948,0,1.429-.013.215-.013.291.051.291.278s-.089.253-.278.253c-.518-.013-1.024.013-1.543-.013-.354-.013-.253.215-.253.392s-.126.4.24.392c.607-.025,1.214,0,1.821-.013.215,0,.3.051.3.278s-.089.278-.3.278C104.32,78.5,103.865,78.5,103.423,78.5Z" transform="translate(-38.274 -31.31)" fill="#1b1c20"/><path d="M76.412,78.5c-.443,0-.9-.013-1.34,0-.19,0-.24-.051-.24-.24q.019-1.29,0-2.58c0-.19.038-.278.253-.278q1.328.019,2.655,0c.215,0,.266.063.266.266s-.051.278-.266.278c-.582-.013-1.163.013-1.745-.013-.278-.013-.3.114-.278.329.013.19-.063.4.278.379.506-.025,1,0,1.5-.013.177,0,.329-.025.329.253s-.139.278-.341.278c-.506-.013-1,.013-1.5,0-.392-.013-.228.266-.253.443s-.063.367.253.354c.607-.025,1.214,0,1.821-.013.215,0,.3.038.3.278s-.076.291-.291.278Z" transform="translate(-28.726 -31.303)" fill="#1b1c1f"/><path d="M120.472,75.379a3.115,3.115,0,0,1,1.113.177,2.357,2.357,0,0,1,.253.126.842.842,0,0,1,.379.582c.013.089-.051.126-.126.1-.266-.076-.582.177-.809-.177a1.341,1.341,0,0,0-1.492-.152c-.19.177-.152.379.1.48a5.437,5.437,0,0,0,1.2.215,4.257,4.257,0,0,1,.7.152c.278.1.506.24.544.569a.847.847,0,0,1-.367.822,3.146,3.146,0,0,1-2.832-.038c-.19-.152-.455-.4-.316-.594.114-.164.493-.051.746-.038.051,0,.089.114.139.177a1.522,1.522,0,0,0,1.656.126c.2-.19.139-.417-.152-.544a4.157,4.157,0,0,0-1.049-.19,3.562,3.562,0,0,1-.809-.177.687.687,0,0,1-.518-.594.8.8,0,0,1,.417-.759A2.147,2.147,0,0,1,120.472,75.379Z" transform="translate(-44.297 -31.296)" fill="#1b1b1e"/><path d="M65.456,76.989c0-.417.013-.847,0-1.264-.013-.215.051-.329.278-.291a1.321,1.321,0,0,0,.316,0c.253-.038.3.063.3.3,0,.86.013.86.847.86s.86,0,.86-.847c0-.278.1-.316.341-.316.556.013.556,0,.556.569,0,.721-.013,1.454.013,2.175.013.291-.076.379-.354.341a1.656,1.656,0,0,0-.354,0c-.164.013-.2-.051-.2-.2.013-.316-.013-.632,0-.948.013-.19-.051-.253-.253-.253-.4.013-.822.013-1.227,0-.228-.013-.266.089-.253.278.013.278-.013.556.013.835s-.076.329-.316.291a1.321,1.321,0,0,0-.316,0c-.24.038-.278-.076-.278-.291C65.469,77.811,65.456,77.406,65.456,76.989Z" transform="translate(-25.395 -31.313)" fill="#1b1b1e"/><path d="M111.821,75.437c.506,0,1,.013,1.5,0,.24-.013.228.126.24.291.013.19-.051.278-.24.24h-.038c-.329.025-.771-.152-.936.076s-.051.632-.051.961c0,.4-.013.822,0,1.227.013.24-.076.278-.291.278-.632,0-.632.013-.632-.607,0-.506-.025-1,.013-1.5.013-.329-.051-.493-.417-.43-.19.025-.392,0-.594.013s-.316,0-.316-.266c0-.228.089-.291.3-.278C110.847,75.45,111.327,75.437,111.821,75.437Z" transform="translate(-41.21 -31.316)" fill="#1c1d20"/><path d="M83.682,76.964c0-.4.013-.822,0-1.227-.013-.253.076-.329.316-.3a1.321,1.321,0,0,0,.316,0c.24-.038.291.076.278.291-.013.645.013,1.29-.013,1.935-.013.253.076.316.316.3.506-.013,1,0,1.5-.013.228-.013.291.063.291.291,0,.2-.063.266-.266.266-.835-.013-1.669-.013-2.491,0-.19,0-.24-.063-.24-.253C83.7,77.837,83.682,77.394,83.682,76.964Z" transform="translate(-31.862 -31.313)" fill="#1d1d21"/><path d="M39.515,71.941c0-.215-.152-.316-.3-.417-.114-.076-.266-.139-.24-.316.493.3,1,.62,1.492.923-.089.253-.228.291-.379.076A.6.6,0,0,0,39.515,71.941Z" transform="translate(-16.018 -29.818)" fill="#98979b"/><path d="M38.418,70.832c-.089.2-.24.126-.354.038s-.291-.177-.126-.367C38.1,70.617,38.253,70.718,38.418,70.832Z" transform="translate(-15.629 -29.568)" fill="#98979b"/><path d="M37.234,69.95c-.2.152-.4.013-.455-.329C36.931,69.735,37.082,69.849,37.234,69.95Z" transform="translate(-15.242 -29.256)" fill="#98979b"/><path d="M185.538,46.146a.517.517,0,0,1-.7-.278c-.139-.253-.341-.468-.48-.721a.419.419,0,0,0-.518-.177c-.2.051-.1.24-.114.367a4.658,4.658,0,0,0,0,.594c.013.19-.063.253-.253.253-.215,0-.228-.1-.228-.266,0-.771.013-1.53,0-2.3,0-.19.038-.291.266-.278.329.013.658,0,.986.013.607.025.923.228.986.658.076.455-.126.721-.784.948C184.981,45.35,185.259,45.729,185.538,46.146Z" transform="translate(-67.143 -19.943)" fill="#1b1b1f"/><path d="M184.406,44.807c-.126-.038-.354.089-.4-.076a1.238,1.238,0,0,1,.013-.771c.063-.139.266-.063.4-.063.607,0,.835.114.847.43C185.279,44.668,185.051,44.794,184.406,44.807Z" transform="translate(-67.39 -20.133)" fill="#d8d9db"/></g></g></g></svg>