<svg xmlns="http://www.w3.org/2000/svg" xmlns:xlink="http://www.w3.org/1999/xlink" width="168" height="67" viewBox="0 0 168 67"><defs><clipPath id="a"><rect width="168" height="67" fill="#fff"/></clipPath></defs><g clip-path="url(#a)"><g transform="translate(-0.557 23.925)"><g transform="translate(0 0)"><path d="M10.684,10.018c.787-.328,1.6-.592,2.413-.862.781-.259,1.563-.494,2.356-.707a.214.214,0,0,1,.2.029c1.931,1.2,3.861,2.39,5.786,3.6.167.1.379.161.483.35a12.38,12.38,0,0,1,1.8,1.063c2.132,1.31,4.252,2.637,6.378,3.959a.251.251,0,0,0,.316,0q3.749-2.327,7.5-4.643c.793-.494,1.592-.983,2.385-1.477a1,1,0,0,1,.109-.057.877.877,0,0,1,.144.259,7.326,7.326,0,0,1-.644.465q-1.155.8-2.327,1.574c-.707.46-1.4.942-2.1,1.408-.448.3-.9.586-1.345.885-.465.31-.925.626-1.391.931-.661.437-1.322.862-1.988,1.293-.057.04-.1.075-.092.155-.109.086-.121.253-.247.322a1.625,1.625,0,0,1-.27-.167c-.833-.563-1.689-1.1-2.517-1.666-.7-.483-1.413-.942-2.114-1.413-.431-.287-.85-.592-1.287-.873-.534-.345-1.04-.73-1.586-1.051-.264-.155-.5-.351-.753-.529q-1.1-.767-2.206-1.528c-.517-.356-1.04-.712-1.563-1.069-.04-.029-.08-.08-.121-.023-.086.115-.213.19-.213.379.017.891.011,1.775,0,2.666a.263.263,0,0,0,.218.3c.46.126.919.241,1.391.328a1.754,1.754,0,0,1,.684.207c.442.31.891.615,1.322.942.339.259.7.477,1.011.764-.057.092.011.109.075.149.092.063.247.132.2.253a1.987,1.987,0,0,0-.057.822.74.74,0,0,1-.046.419c-.552-.385-1.109-.77-1.661-1.155-.534-.373-1.069-.747-1.6-1.126a1.1,1.1,0,0,0-.345-.132q-4.172-1.241-8.355-2.471a.5.5,0,0,1-.1-.04c.029-.04.08-.075.034-.132h0c.19-.023.126-.126.115-.259A12.133,12.133,0,0,1,10.684,10.018Z" transform="translate(-7.276 -8.438)" fill="#b6230c"/><path d="M55.831,13.131c-.373.121-.753.218-1.132.328-.4.115-.8.241-1.2.362q-1.681.483-3.361.971c-.3.086-.6.178-.908.264a.764.764,0,0,0-.236.121l-2.275,1.638c.052-.086-.086-.08-.069-.126a1.157,1.157,0,0,0,.029-.4,1.41,1.41,0,0,0-.011-.54c-.075-.2.029-.328.08-.483a.117.117,0,0,1,.046-.075c.517-.379,1.034-.764,1.551-1.143a.419.419,0,0,1,.167-.063c.753-.149,1.505-.3,2.287-.448-.149-.017-.155-.1-.132-.184a.882.882,0,0,0,.029-.247v-3c.6-.419,1.189-.845,1.787-1.264.052-.034.109-.069.115-.138h0c.052.017.069-.017.086-.052a.365.365,0,0,1,.408-.092c.454.155.914.282,1.373.437.345.115.7.207,1.034.328-.075.126.086.109.1.172-.184.034-.218.167-.218.322v2.488c0,.132,0,.253.178.27.046.006.1.063.023.086-.178.063-.011.241-.121.322.011.011.023.04.034.034C55.63,13,55.711,13.119,55.831,13.131Z" transform="translate(-15.254 -8.459)" fill="#b6230c"/><path d="M24.287,19.581a.654.654,0,0,0,.046-.419,2,2,0,0,1,.057-.822c.04-.126-.109-.2-.2-.253-.063-.04-.132-.057-.075-.149.368.224.69.506,1.04.753.954.678,1.862,1.413,2.787,2.132.517.4,1.029.827,1.534,1.241.356.293.718.575,1.074.862.4.328.8.655,1.184,1.006.19.172.4.322.6.494a17.816,17.816,0,0,1,1.339,1.212c.27.287.609.488.885.776a5.143,5.143,0,0,0,.69.632c.385.373.776.747,1.155,1.126.121.121.282.207.328.391-.546-.385-1.092-.77-1.632-1.161-1.023-.735-2.046-1.465-3.063-2.212a.215.215,0,0,0-.3.006l-4.723,3.43a.282.282,0,0,1-.144.057,5.431,5.431,0,0,1,.735-.718c.259-.253.523-.5.787-.753.155-.144.31-.282.465-.425l.034-.034c.3-.27.6-.54.908-.8.529-.46,1.057-.925,1.586-1.379.1-.086.086-.132-.017-.207-.3-.213-.6-.442-.891-.667l-1.5-1.12c-.052-.034-.1-.075-.155-.023-.132.109-.3.155-.419.287a.271.271,0,0,0-.144.063c-.552.356-1.1.718-1.661,1.074-.419.264-.85.511-1.258.787-.5.333-1.017.644-1.523.965-.345.218-.684.442-1.034.649a2.611,2.611,0,0,1-1.155.54c-.155.011-.224.132-.23.287v.85a.257.257,0,0,0,.069.178,25.828,25.828,0,0,1-3.269-.684c.373-.161.741-.328,1.12-.477a18.039,18.039,0,0,0,2.913-1.482c1.281-.8,2.586-1.569,3.884-2.356.6-.362,1.2-.718,1.787-1.074-.006-.069-.063-.086-.1-.115-1.069-.753-2.143-1.505-3.212-2.264A.941.941,0,0,1,24.287,19.581Z" transform="translate(-8.968 -10.537)" fill="#942106"/><path d="M44.416,17.163c-.052.155-.155.282-.08.483a1.542,1.542,0,0,1,.011.54.93.93,0,0,1-.029.4c-.023.046.121.04.069.126-1.057.77-2.12,1.54-3.177,2.31-.385.282-.77.569-1.166.839-.132.092-.109.121.011.2.385.23.758.483,1.143.712.08.046.1.144.178.178a11.586,11.586,0,0,1,1.569.925q1.75,1.086,3.488,2.189a9.166,9.166,0,0,0,1.517.626c.529.218,1.069.408,1.6.609.023.006.046.006.052.063l-1.138.259c-1.12.241-2.252.431-3.384.592a6.121,6.121,0,0,1-.787.092c-.155.006-.31.017-.2-.218.011-.023,0-.057,0-.086V26.236c0-.161.172-.333-.034-.488-.057-.046-.086-.132-.161-.178-.328-.2-.655-.4-.977-.6-.46-.293-.914-.6-1.373-.9-.4-.259-.787-.517-1.184-.764a4.5,4.5,0,0,0-.672-.414h0l-.034-.034c-.213-.138-.425-.27-.638-.408q-1.051-.69-2.109-1.373a8.4,8.4,0,0,0-.77-.5l-.034-.034a.25.25,0,0,0-.04-.034c.126-.075.138-.236.247-.322.057.029.115.052.172.086.69.414,1.373.827,2.057,1.241a.187.187,0,0,0,.253-.023c.2-.172.408-.339.615-.506,1.166-.919,2.327-1.844,3.511-2.735C43.411,17.882,43.9,17.5,44.416,17.163Zm-.149,1.528c-.029-.052-.046-.115-.121-.132a.041.041,0,0,0-.046.04c0,.08.075.1.121.138C44.233,18.749,44.261,18.721,44.267,18.692Z" transform="translate(-12.917 -10.366)" fill="#942106"/><path d="M22.336,29.625a.247.247,0,0,1-.069-.178c.006-.282,0-.569,0-.85,0-.155.069-.282.23-.287a2.582,2.582,0,0,0,1.155-.54c.35-.207.69-.437,1.034-.649.506-.322,1.023-.632,1.523-.965.414-.276.845-.523,1.258-.787.557-.356,1.109-.712,1.661-1.074a.356.356,0,0,1,.144-.063,3.823,3.823,0,0,0,.034.511v3.493c0,.086.011.172-.075.241-.052.04-.052.109.04.126-.264.253-.529.5-.787.753a5.432,5.432,0,0,0-.735.718.3.3,0,0,1-.316.126c-.954-.08-1.908-.161-2.856-.276C23.83,29.843,23.083,29.751,22.336,29.625Z" transform="translate(-9.868 -11.927)" fill="#b6230c"/><path d="M40.573,24.51a4.494,4.494,0,0,1,.672.414c.4.247.793.506,1.184.764.46.3.914.6,1.373.9.322.207.649.4.977.6.075.046.1.132.161.178.207.161.034.328.034.488v1.758c0,.029.011.063,0,.086-.115.236.046.224.2.218a7.746,7.746,0,0,1-1.029.132c-.7.069-1.4.115-2.1.178a.421.421,0,0,1-.379-.126c-.006-.052-.017-.092-.08-.057l-.006-.011c.006-.029,0-.04-.029-.023h0c-.046-.184-.207-.27-.328-.391-.379-.379-.77-.753-1.155-1.126a.137.137,0,0,1,.144.052c.1.126.23.052.328.034s.057-.149.057-.236V24.987A.959.959,0,0,0,40.573,24.51Z" transform="translate(-13.802 -11.989)" fill="#b6230c"/><path d="M161.895,18.814c.253.109.471.213.707.3.408.149.8.333,1.2.5.621.259,1.247.5,1.862.764.23.1.454.19.684.293.115.052.218.121.351.075a.052.052,0,0,1,.063.011,1.359,1.359,0,0,0,.609.322c.149.069.3.138.46.207.552.247,1.115.477,1.672.712.333.138.672.276,1.006.408.465.19.925.4,1.391.592.408.172.822.333,1.23.5.052.023.115.052.092.109s-.069.115-.149.052c-.052-.04-.115-.023-.172-.023-2.258,0-4.516-.011-6.774.011a2.543,2.543,0,0,1-.983-.293c-.448-.161-.879-.362-1.322-.546-.523-.218-1.034-.465-1.563-.644-.276-.092-.517-.27-.787-.339a5.6,5.6,0,0,0-.833-.31c-.138-.011-.213-.155-.345-.2a1.309,1.309,0,0,0-.529-.155c-.069.006-.08-.08-.144-.109-.339-.115-.661-.287-1-.408a1.937,1.937,0,0,1-.4-.184.289.289,0,0,0-.282-.006c-.414.184-.833.35-1.253.523-.442.184-.885.385-1.333.557-.138.052-.316.063-.391.236-.006.017-.04.023-.063.023a6.615,6.615,0,0,0-1.356.5c-.287.1-.563.236-.845.356-.414.178-.827.362-1.241.523a4.144,4.144,0,0,1-1.661.471c-2.189-.04-4.384-.017-6.579-.017h-.161c-.046,0-.1.017-.121-.046a.1.1,0,0,1,.069-.109.83.83,0,0,0,.224-.144c.017-.011.029-.034.04-.034.465.011.816-.3,1.224-.437.557-.184,1.086-.431,1.62-.661.35-.149.7-.31,1.051-.448.615-.236,1.207-.523,1.827-.747a4.758,4.758,0,0,0,.609-.264c.218-.115.465-.161.684-.276.236-.121.488-.2.73-.3.431-.2.879-.368,1.316-.546.58-.241,1.155-.488,1.73-.735.046-.017.121-.011.121-.08s-.075-.069-.121-.092c-.6-.247-1.207-.488-1.81-.741-.391-.161-.77-.356-1.172-.494-.218-.075-.408-.27-.672-.2-.011,0-.029,0-.034-.006-.172-.253-.471-.282-.718-.391-.431-.2-.868-.385-1.316-.552a11.478,11.478,0,0,0-1.08-.437c-.213-.057-.373-.184-.563-.247-.4-.132-.77-.31-1.155-.465s-.8-.31-1.178-.506c-.293-.149-.621-.224-.919-.362A3.131,3.131,0,0,0,143,14.1c-.04-.011-.08-.04-.069-.092s.069-.052.115-.052h.339c2.132,0,4.269.006,6.4-.006a2.459,2.459,0,0,1,1.109.241c.552.259,1.126.488,1.7.712.425.167.839.368,1.258.546.385.161.764.339,1.161.465.3.1.557.259.85.362s.586.241.879.368l1.189.5c.08.034.155.052.207-.052a.078.078,0,0,1,.092-.04c.213.075.373-.069.546-.138.8-.328,1.609-.632,2.4-1,.345-.161.7-.3,1.051-.46.333-.155.7-.27,1.04-.408.276-.1.534-.241.81-.345a11.78,11.78,0,0,0,1.362-.575,2.073,2.073,0,0,1,1.011-.172H173.1c.052,0,.121-.006.138.052s-.046.086-.092.1c-.7.287-1.391.569-2.086.856a.907.907,0,0,0-.264.144.27.27,0,0,1-.172.08,1.723,1.723,0,0,0-.575.23c-.2.08-.4.155-.6.23-.488.172-.954.4-1.436.6-.35.149-.707.293-1.057.437-.109.046-.253.04-.3.19-.006.011-.029.017-.046.023a7.6,7.6,0,0,0-1.413.529c-.569.207-1.1.494-1.678.7a3.022,3.022,0,0,0-.454.224c-.132.08-.322.057-.442.161C162.412,18.694,162.142,18.665,161.895,18.814Zm-18.617-4.746c0,.011-.006.023-.006.04.046.023.092.052.138.069q1.724.715,3.448,1.436,3.732,1.56,7.47,3.12c.046.017.121.023.121.08s-.08.063-.121.08c-.85.356-1.7.707-2.551,1.063q-4.163,1.732-8.32,3.476c-.052.023-.126.023-.161.115h6.746a1.1,1.1,0,0,0,.431-.08c2.316-.971,4.631-1.925,6.935-2.919a1.479,1.479,0,0,1,1.293-.006c2.333,1.006,4.677,1.971,7.021,2.948a.66.66,0,0,0,.276.057h6.682c.046,0,.1.023.138-.04-.034-.017-.069-.034-.1-.046-1.557-.649-3.114-1.3-4.671-1.954q-3.129-1.31-6.257-2.614c-.04-.017-.109-.017-.1-.075s.063-.057.109-.075c.523-.218,1.046-.442,1.569-.661q4.654-1.939,9.314-3.89c.057-.023.138-.034.172-.115a.437.437,0,0,0-.08-.006h-6.757a.626.626,0,0,0-.253.057q-3.775,1.577-7.55,3.154a.343.343,0,0,1-.282.006q-3.766-1.577-7.533-3.149a.811.811,0,0,0-.328-.063h-6.562A1.5,1.5,0,0,0,143.278,14.068Z" transform="translate(-36.531 -9.655)" fill="#dcdbdb"/><path d="M58.313,13.352c-.121-.011-.2-.132-.328-.121-.011,0-.023-.023-.034-.034.109-.08-.057-.259.121-.322.075-.029.017-.086-.023-.086-.178-.017-.178-.138-.178-.27V10.031c0-.155.029-.287.218-.322-.017-.063-.184-.052-.1-.172.339.109.678.213,1.011.333a33.193,33.193,0,0,1,3.649,1.442,5.661,5.661,0,0,1,.919.534c-.328.092-.615.184-.9.264-.362.1-.73.184-1.086.3-.908.293-1.827.529-2.741.8A2.2,2.2,0,0,0,58.313,13.352Z" transform="translate(-17.735 -8.681)" fill="#942106"/><path d="M83.732,13.97h9.05a3,3,0,0,1,1.448.23c.3.161.655.247.971.379.4.172.8.345,1.207.494.385.138.758.31,1.143.454s.8.293,1.189.477a.292.292,0,0,0,.149.04c.2-.006.2.121.2.264v7.073c0,.27,0,.27-.276.27H93.781c-.247,0-.247,0-.247-.236V17.888c0-.247,0-.253-.241-.253H79.623c-.236,0-.236,0-.236.236v5.51c0,.27,0,.27-.276.27H74.061c-.23,0-.23,0-.23-.224V14.343c0-.368,0-.368.379-.368Q78.977,13.967,83.732,13.97Zm.086.1h0q-4.844,0-9.688-.006c-.138,0-.2.029-.2.184q.009,4.559,0,9.119c0,.126.023.184.172.184,1.666-.006,3.327-.006,4.993,0,.155,0,.2-.034.2-.2-.006-1.879,0-3.758-.006-5.637,0-.155.029-.207.2-.207q6.955.009,13.917.006c.27,0,.247-.046.247.241v5.6c0,.1-.011.19.149.19q2.534-.009,5.068,0c.115,0,.138-.04.138-.144,0-2.344-.006-4.694,0-7.039a.184.184,0,0,0-.144-.2q-2.568-1.017-5.131-2.046a.582.582,0,0,0-.224-.052Q88.662,14.076,83.818,14.073Z" transform="translate(-21.263 -9.66)" fill="#dcdbdb"/><path d="M121.081,16.242H108.923a1.512,1.512,0,0,0-.425.023.09.09,0,0,1-.126-.057c-.017-.063.04-.08.08-.1a3.445,3.445,0,0,0,.776-.322c.19-.138.4-.126.586-.218.362-.167.735-.3,1.1-.454.2-.08.414-.144.609-.23a2.376,2.376,0,0,0,.609-.247c.126-.115.27-.1.408-.155.408-.144.8-.31,1.2-.471a.73.73,0,0,1,.31-.046q9.567,0,19.128.006c.115,0,.224-.069.339-.029.08.029.126.057.126.161-.006.684-.006,1.362,0,2.046,0,.086-.017.132-.121.109a.878.878,0,0,0-.213-.006Q127.2,16.237,121.081,16.242Zm-12.3-.144c0,.017.006.029.006.046h.477q12.049,0,24.1.006c.155,0,.184-.046.178-.19-.006-.563-.011-1.126,0-1.689.006-.172-.046-.213-.213-.213q-9.653.009-19.3,0a.758.758,0,0,0-.276.052c-1.39.557-2.787,1.109-4.177,1.661Z" transform="translate(-28.894 -9.652)" fill="#dcdbdb"/><path d="M121.019,23.46q6.206,0,12.405-.006c.178,0,.23.046.23.224-.011.615-.011,1.23,0,1.85.006.178-.052.213-.224.213q-8.084-.009-16.175-.006c-1.04,0-2.086-.011-3.126.006a2.549,2.549,0,0,1-.724-.161c-.293-.08-.546-.253-.833-.351s-.586-.224-.873-.339a2.157,2.157,0,0,0-.362-.144,1.562,1.562,0,0,1-.356-.132c-.707-.3-1.419-.569-2.132-.85-.115-.046-.23-.086-.345-.138-.052-.023-.121-.04-.1-.121s.086-.052.132-.052h.747Q115.15,23.463,121.019,23.46Zm-12.25.1c0,.011-.006.029-.006.04.04.017.08.04.126.057,1.62.644,3.246,1.293,4.867,1.936a.773.773,0,0,0,.276.046h8.923q5.189,0,10.383.006c.155,0,.213-.029.207-.2-.011-.569-.006-1.138,0-1.707,0-.149-.04-.184-.19-.184q-12.135.009-24.265.006C108.987,23.564,108.878,23.564,108.769,23.564Z" transform="translate(-28.901 -11.756)" fill="#dcdbdb"/><path d="M121.024,18.749h12.388c.236,0,.236,0,.236.23,0,.6-.006,1.207.006,1.816,0,.161-.046.213-.213.213Q121,21,108.573,21.007c-.144,0-.178-.046-.178-.184.006-.609,0-1.218,0-1.833,0-.241,0-.241.236-.241h12.394Zm-.006,2.16h12.354c.132,0,.184-.023.178-.172-.006-.569-.011-1.138,0-1.707.006-.167-.034-.218-.213-.218q-12.282.009-24.564.006a1.2,1.2,0,0,1-.144,0c-.126-.017-.155.04-.155.161.006.563,0,1.126,0,1.689,0,.236,0,.236.236.236Q114.873,20.913,121.018,20.91Z" transform="translate(-28.9 -10.716)" fill="#dcdbdb"/><path d="M9.758,10.466a11.736,11.736,0,0,0,.011,2.155c.011.132.075.236-.115.259-.017-.023-.04-.04-.069-.029-.006,0-.006.011-.011.011a.336.336,0,0,0,.075.011c.04.057-.006.092-.034.132-1.074-.316-2.143-.632-3.264-.96a18.358,18.358,0,0,1,2.8-1.339c.1.069.19.178.31.034-.029-.04-.1-.034-.1-.1C9.471,10.524,9.643,10.552,9.758,10.466Z" transform="translate(-6.351 -8.886)" fill="#942106"/><path d="M146.969,30.6a7.267,7.267,0,0,0,.816.029c.247.006.506-.011.764-.029a1.946,1.946,0,0,1,.885.115c.075.029.1.057.1.132q-.009.293,0,.586c.006.1-.04.109-.126.115-.333.006-.333.006-.333-.316v-.178c0-.31,0-.31-.316-.31-.184,0-.368.006-.552,0-.1-.006-.144.023-.138.138.011.184,0,.368.006.552.006.092-.023.121-.121.121-.333.006-.333.011-.333-.333,0-.155.063-.35-.029-.442s-.293-.023-.442-.029c-.172-.006-.4-.057-.5.023s-.023.322-.034.494c-.006.092.046.236-.029.264a.969.969,0,0,1-.368.017c-.075,0-.057-.063-.057-.1,0-.253,0-.511-.006-.764,0-.1.063-.075.109-.08Z" transform="translate(-37.245 -13.334)" fill="#1c1c1a"/><path d="M120.211,31.077v-.23c0-.253,0-.241.259-.253.144-.006.2.029.19.184-.011.23,0,.23.236.23.4,0,.793-.006,1.189.006.149.006.218-.023.2-.19-.011-.069-.046-.184.034-.207a1.128,1.128,0,0,1,.368,0c.052.006.034.069.034.1,0,.236-.006.471.006.707.006.1-.034.138-.132.126h-.017c-.287.006-.293.006-.293-.276,0-.092-.017-.126-.115-.121-.46.006-.925.006-1.385,0-.109,0-.132.04-.121.132.006.057,0,.121,0,.178s-.029.1-.092.086h-.017c-.328.017-.328.017-.328-.31A.841.841,0,0,1,120.211,31.077Z" transform="translate(-31.511 -13.334)" fill="#1c1c1a"/><path d="M53.1,8.74c-.006.075-.063.1-.115.138-.6.419-1.189.845-1.787,1.264-.391.27-.776.54-1.178.8a11.47,11.47,0,0,1-.994.661.877.877,0,0,0-.144-.259c.638-.4,1.27-.8,1.908-1.189Q51.942,9.444,53.1,8.74Z" transform="translate(-15.749 -8.505)" fill="#942106"/><path d="M166.252,30.656c-.207,0-.414.011-.621-.006-.149-.011-.178.046-.167.178.011.167,0,.333.006.494.006.092-.017.132-.121.138-.333.006-.333.011-.333-.328v-.109c-.006-.115.034-.264-.023-.345s-.207-.017-.316-.029c-.057-.006-.109,0-.109-.08s.052-.063.1-.069a.692.692,0,0,1,.109,0c.167.023.293,0,.247-.218-.012-.057.017-.086.08-.08a.753.753,0,0,0,.161,0c.155-.023.253.011.218.2-.017.092.034.1.115.1h1.35c.052,0,.144-.04.144.075s-.092.069-.144.069C166.7,30.662,166.476,30.656,166.252,30.656Z" transform="translate(-41.314 -13.246)" fill="#1c1c1a"/><path d="M174.274,31.661h-.942c-.052,0-.126.034-.126-.075s.075-.069.126-.069h1.775c.092,0,.167.017.167-.126s-.08-.126-.167-.126c-.575,0-1.149,0-1.724-.006-.057,0-.172.063-.172-.075s.109-.063.161-.063c.586-.006,1.172,0,1.758-.006a2.143,2.143,0,0,1,.511.121c.075.017.063.086.069.144a.147.147,0,0,1-.115.172,1.423,1.423,0,0,1-.442.1C174.866,31.661,174.567,31.661,174.274,31.661Z" transform="translate(-43.222 -13.447)" fill="#1c1c1a"/><path d="M138.949,31.55c-.236,0-.471-.006-.712,0a1.522,1.522,0,0,1-.621-.109c-.08-.029-.115-.063-.109-.149q.009-.284,0-.569c-.006-.092.029-.132.121-.121h.034c.293-.006.293-.006.293.287,0,.167-.057.385.029.483.1.115.322.034.488.034.465.006.937,0,1.4.006.052,0,.144-.046.144.075s-.092.069-.144.069C139.564,31.55,139.253,31.55,138.949,31.55Z" transform="translate(-35.333 -13.335)" fill="#1c1c1a"/><path d="M155.983,30.742a1.243,1.243,0,0,1,.494-.149h1.81c.046,0,.115-.029.138.04a.087.087,0,0,1-.017.1.125.125,0,0,1-.144.034.312.312,0,0,0-.19-.023Z" transform="translate(-39.416 -13.332)" fill="#1c1c1a"/><path d="M129,30.742a.989.989,0,0,1,.448-.149h1.81c.052,0,.144-.046.149.069s-.1.075-.155.075C130.495,30.747,129.742,30.742,129,30.742Z" transform="translate(-33.453 -13.331)" fill="#1c1c1a"/><path d="M175.6,30.6a.925.925,0,0,1-.5.149c-.592-.006-1.184,0-1.775-.006-.057,0-.161.052-.155-.075s.1-.069.161-.069C174.088,30.593,174.841,30.6,175.6,30.6Z" transform="translate(-43.214 -13.332)" fill="#1c1c1a"/><path d="M130.132,31.269h-1.138c-.052,0-.126.034-.132-.063-.006-.115.086-.075.138-.075h2.241c.052,0,.126-.034.132.063.006.115-.086.08-.138.08C130.868,31.269,130.5,31.269,130.132,31.269Z" transform="translate(-33.423 -13.451)" fill="#1c1c1a"/><path d="M157.156,31.117h1.115c.052,0,.144-.04.144.075,0,.1-.08.069-.132.069H156.03c-.052,0-.126.023-.121-.075s.08-.069.132-.069C156.409,31.117,156.783,31.122,157.156,31.117Z" transform="translate(-39.4 -13.448)" fill="#1c1c1a"/><path d="M128.929,31.692a.173.173,0,0,1,.155-.057H131.3c.057-.006.092.011.086.075s-.046.069-.1.069h-1.936C129.222,31.778,129.107,31.68,128.929,31.692Z" transform="translate(-33.438 -13.563)" fill="#1c1c1a"/><path d="M156.042,31.635h2.3c.052,0,.109-.006.1.08s-.069.069-.115.069h-.942c-.27,0-.546-.006-.816,0A1.067,1.067,0,0,1,156.042,31.635Z" transform="translate(-39.429 -13.564)" fill="#1c1c1a"/><path d="M10.163,10.686c0,.063.063.057.1.1-.121.144-.213.04-.31-.034C10.013,10.715,10.076,10.663,10.163,10.686Z" transform="translate(-7.146 -8.933)" fill="#b6230c"/><path d="M42.02,31.616c.063-.034.075.006.08.057A.408.408,0,0,0,42.02,31.616Z" transform="translate(-14.233 -13.557)" fill="#942106"/><path d="M54.379,8.674c-.017.034-.04.069-.086.052Z" transform="translate(-16.945 -8.49)" fill="#942106"/><path d="M174.537,23.118a.073.073,0,0,1-.035.006.058.058,0,0,1-.006-.017c.006,0,.011-.006.017-.006A.08.08,0,0,0,174.537,23.118Z" transform="translate(-43.507 -11.678)" fill="#dcdbdb"/><path d="M156.484,19.863c.006.006.006.011.011.017s-.011.006-.017.006-.017-.006-.023-.011C156.467,19.869,156.472,19.869,156.484,19.863Z" transform="translate(-39.521 -10.962)" fill="#dcdbdb"/><path d="M220.543,25.237a.02.02,0,0,1,.006-.011.02.02,0,0,1-.006.011Z" transform="translate(-53.683 -12.147)" fill="#dcdbdb"/><path d="M41.976,31.573c.029-.017.034-.006.029.023C41.993,31.591,41.987,31.579,41.976,31.573Z" transform="translate(-14.223 -13.548)" fill="#942106"/><path d="M184.4,23.532q5.576-2.336,11.159-4.666a.159.159,0,0,1,.006-.052q-5.585-2.336-11.17-4.666c0-.011.006-.029.006-.04.057-.006.121-.006.178-.006h6.614a.654.654,0,0,1,.276.052q3.4,1.431,6.809,2.85c.253.1.506.2.753.31a.3.3,0,0,0,.264,0q3.646-1.526,7.286-3.045a2.017,2.017,0,0,1,.8-.167q3.18.009,6.366.006h.213a.434.434,0,0,1-.213.132l-6.275,2.62L202.9,18.774c-.04.017-.109.017-.115.069-.011.069.069.075.109.092q4.43,1.853,8.854,3.7l2.057.862c.034.017.08.023.1.1H213.6c-2.1,0-4.195-.006-6.292,0a1.663,1.663,0,0,1-.667-.132c-2.413-1.011-4.827-2.017-7.234-3.034a.549.549,0,0,0-.465-.006c-2.488,1.046-4.976,2.08-7.464,3.126a.6.6,0,0,1-.224.04h-6.7c-.046,0-.092-.006-.138-.006A.286.286,0,0,1,184.4,23.532Z" transform="translate(-45.695 -9.689)" fill="#1c1c1a"/><path d="M36.1,21.465a1.031,1.031,0,0,1,.034.477V25.3c0,.08.046.213-.057.236s-.23.1-.328-.034a.148.148,0,0,0-.144-.052,4.25,4.25,0,0,1-.69-.632c-.27-.287-.615-.488-.885-.776A17.817,17.817,0,0,0,32.7,22.827c-.2-.172-.408-.322-.6-.494-.385-.351-.781-.678-1.184-1.006-.356-.293-.718-.575-1.074-.862-.511-.419-1.017-.839-1.534-1.241-.925-.718-1.833-1.454-2.787-2.132-.351-.247-.672-.529-1.04-.753a11.956,11.956,0,0,0-1.011-.764c-.431-.328-.879-.632-1.322-.942a1.581,1.581,0,0,0-.684-.207c-.471-.086-.931-.2-1.391-.328a.253.253,0,0,1-.218-.3c.011-.891.011-1.775,0-2.666-.006-.19.126-.264.213-.379.04-.052.08,0,.121.023.517.356,1.04.712,1.563,1.069q1.1.758,2.206,1.528c.253.172.488.368.753.529.546.328,1.051.712,1.586,1.051.437.282.856.586,1.287.873.707.471,1.419.937,2.114,1.413.827.569,1.684,1.1,2.517,1.666a1.625,1.625,0,0,0,.27.167.25.25,0,0,0,.04.034l.034.034a8.4,8.4,0,0,1,.77.5q1.06.681,2.109,1.373c.213.138.425.27.638.408a.1.1,0,0,0,.029.04Z" transform="translate(-9.335 -8.945)" fill="#dc2910"/><path d="M46.26,12.005a11.469,11.469,0,0,0,.994-.661c.4-.259.781-.534,1.178-.8v3a.934.934,0,0,1-.029.247c-.023.086-.023.167.132.184-.787.155-1.534.3-2.287.448a.419.419,0,0,0-.167.063c-.517.379-1.034.758-1.551,1.143a.1.1,0,0,0-.046.075c-.517.339-1.006.718-1.5,1.092-1.189.891-2.344,1.821-3.511,2.735-.207.167-.414.333-.615.506a.192.192,0,0,1-.253.023c-.684-.419-1.373-.827-2.057-1.241-.057-.034-.115-.057-.172-.086-.011-.075.034-.115.092-.155.661-.431,1.327-.862,1.988-1.293.465-.3.925-.621,1.391-.931.448-.3.9-.586,1.345-.885.7-.465,1.4-.948,2.1-1.408q1.172-.776,2.327-1.574C45.835,12.321,46.059,12.183,46.26,12.005Z" transform="translate(-12.985 -8.902)" fill="#dc2910"/><path d="M31.237,28.521c-.092-.017-.092-.086-.04-.126.092-.069.075-.155.075-.241V24.66a3.823,3.823,0,0,1-.034-.511,2.583,2.583,0,0,1,.419-.287c.063-.052.109-.011.155.023l1.5,1.12c.3.224.592.454.891.667.1.075.121.115.017.207l-1.586,1.379c-.3.264-.6.534-.908.8l-.034.034C31.548,28.239,31.392,28.377,31.237,28.521Z" transform="translate(-11.833 -11.84)" fill="#dc2910"/><path d="M31.856,29.294l.034-.034Z" transform="translate(-11.987 -13.039)" fill="#b6230c"/><path d="M46.546,19.088c-.006.029-.034.057-.046.046-.046-.04-.121-.057-.121-.138a.038.038,0,0,1,.046-.04C46.494,18.967,46.511,19.036,46.546,19.088Z" transform="translate(-15.196 -10.762)" fill="#b6230c"/><path d="M36.139,21.528l-.034-.034A.2.2,0,0,0,36.139,21.528Z" transform="translate(-12.926 -11.323)" fill="#b6230c"/><path d="M40.7,24.5l-.034-.034Z" transform="translate(-13.934 -11.979)" fill="#b6230c"/><path d="M143.375,14.1h6.786a.811.811,0,0,1,.328.063q3.766,1.577,7.533,3.149a.3.3,0,0,0,.282-.006l7.55-3.154a.672.672,0,0,1,.253-.057h6.757c.023,0,.046.006.08.006-.034.08-.115.086-.172.115q-4.654,1.948-9.314,3.89c-.523.218-1.046.437-1.569.661-.04.017-.1.017-.109.075s.069.063.1.075q3.129,1.31,6.257,2.614c1.557.649,3.114,1.3,4.671,1.954a.746.746,0,0,1,.1.046c-.034.069-.1.04-.138.04h-6.682a.66.66,0,0,1-.276-.057c-2.339-.983-4.689-1.942-7.021-2.948a1.48,1.48,0,0,0-1.293.006c-2.3.988-4.625,1.948-6.935,2.919a1.085,1.085,0,0,1-.431.08c-2.183-.006-4.361,0-6.545,0h-.2c.034-.092.109-.092.161-.115q4.154-1.741,8.32-3.476c.85-.356,1.7-.707,2.551-1.063.046-.017.126-.017.121-.08s-.075-.063-.121-.08q-3.732-1.56-7.47-3.12-1.724-.715-3.448-1.436c-.046-.017-.092-.046-.138-.069C143.375,14.124,143.375,14.112,143.375,14.1Z" transform="translate(-36.628 -9.688)" fill="#1c1c1a"/><path d="M83.847,14.1h9.688a.607.607,0,0,1,.224.052Q96.327,15.18,98.89,16.2a.183.183,0,0,1,.144.2c-.006,2.344,0,4.694,0,7.039,0,.1-.023.144-.138.144q-2.534-.009-5.068,0c-.161,0-.149-.086-.149-.19V17.8c0-.293.029-.241-.247-.241q-6.955,0-13.917-.006c-.172,0-.2.057-.2.207.006,1.879,0,3.758.006,5.637,0,.161-.04.2-.2.2-1.666-.006-3.327-.006-4.993,0-.149,0-.172-.052-.172-.184q.009-4.559,0-9.119c0-.155.057-.184.2-.184Z" transform="translate(-21.292 -9.689)" fill="#1c1c1a"/><path d="M108.9,16.137c.264-.109.529-.218.793-.322,1.391-.552,2.787-1.1,4.177-1.661a.758.758,0,0,1,.276-.052q9.653,0,19.3,0c.172,0,.218.04.213.213q-.017.845,0,1.689c0,.138-.023.19-.178.19q-12.049-.009-24.1-.006H108.9A.143.143,0,0,0,108.9,16.137Z" transform="translate(-29.011 -9.689)" fill="#1c1c1a"/><path d="M108.873,23.594h.328q12.135,0,24.265-.006c.149,0,.19.04.19.184q-.017.853,0,1.707c.006.172-.052.2-.207.2q-5.189-.009-10.383-.006h-8.923a.635.635,0,0,1-.276-.046c-1.62-.649-3.246-1.293-4.867-1.936-.04-.017-.086-.04-.126-.057C108.868,23.622,108.873,23.605,108.873,23.594Z" transform="translate(-29.005 -11.785)" fill="#1c1c1a"/><path d="M121.043,20.929h-12.3c-.236,0-.236,0-.236-.236,0-.563.006-1.126,0-1.689,0-.121.029-.178.155-.161a1.2,1.2,0,0,0,.144,0q12.282,0,24.564-.006c.178,0,.213.052.213.218q-.017.853,0,1.707c0,.144-.046.172-.178.172Q127.214,20.926,121.043,20.929Z" transform="translate(-28.925 -10.736)" fill="#1c1c1a"/><path d="M10.57,13.549a.336.336,0,0,0-.075-.011c.006-.006.006-.011.011-.011a.05.05,0,0,1,.063.023Z" transform="translate(-7.267 -9.561)" fill="#b6230c"/></g></g></g></svg>