<svg xmlns="http://www.w3.org/2000/svg" xmlns:xlink="http://www.w3.org/1999/xlink" width="169" height="67" viewBox="0 0 169 67"><defs><clipPath id="a"><rect width="169" height="67" fill="#fff"/></clipPath></defs><g clip-path="url(#a)"><g transform="translate(8.232 22.407)"><g transform="translate(0 0)"><path d="M42.367,24.1c2.64-1.538,5.426-2.825,7.989-4.5.056-.039.106-.078.162-.123a.178.178,0,0,0-.291-.011c-1.88-.022-3.765-.045-5.645-.062-.229,0-.559-.056-.6.218-.2,1.175-1.1.884-1.829.889-3.054.017-6.114.006-9.119.006-.2-.442.241-.75-.011-1.164a67.652,67.652,0,0,0-7.133.173c-.308.045-.727.062-.884.257-.766.957-1.8.727-2.786.727-2.853.011-5.7.006-8.7.006a14.472,14.472,0,0,1,6.523-7.647,19.547,19.547,0,0,1,10.114-2.635c4.593.129,9.186.028,13.784.034,2.064,0,2.579.649,2.159,2.674a3.027,3.027,0,0,0,.022.548c.923-.716,1.773-1.309,2.551-1.992a4.96,4.96,0,0,1,3.547-1.253c5.656.056,11.306.028,16.962.022a7.28,7.28,0,0,1,3.211.6A3.013,3.013,0,0,1,74,15.074a7.271,7.271,0,0,1-3.446,3.569q-3.449,1.9-6.914,3.793c.241.414.587.213.856.218,2.232.067,4.475-.14,6.7.129.392.05.526-.078.565-.369.117-.845.671-.873,1.354-.867,2.943.028,5.891.011,8.833,0,.526,0,1-.045.666.727-.151.358-.039.587.42.571,2.081-.056,4.162.123,6.238-.106.766-.084,1.589-.117,2.025-.962.145-.291.47-.213.744-.213,3.379,0,6.752.006,10.131-.022.6-.006.75.117.543.727-.7,2.081-1.3,4.2-2.036,6.266-.33.929-.05,1.068.789,1.024a26.591,26.591,0,0,1,3.06.011c.766.05,1.085-.263,1.3-.973,1.029-3.334,2.159-6.64,3.155-9.986.3-1.013.7-1.091,1.561-.694a16.475,16.475,0,0,1,6.78,5.661,41.887,41.887,0,0,1,2.864,5.135,1.248,1.248,0,0,0,1.331.85c1.365-.078,3.026.4,4.028-.224s1.024-2.428,1.449-3.726c1.32-4.022,2.59-8.067,3.922-12.084.235-.716.1-.867-.615-.834a29.424,29.424,0,0,1-3.3-.011c-.772-.05-1.074.235-1.3.957-1.007,3.295-2.075,6.568-3.178,10.014-.627-1.007-1.158-1.908-1.734-2.775a22.823,22.823,0,0,0-6.092-6.3c-2.6-1.8-5.415-2.059-8.4-1.9-.621.034-.66.431-.783.822-.66,2.053-1.331,4.106-1.958,6.165a.993.993,0,0,1-1.141.856c-3.256-.045-6.517-.017-9.779-.017-.464,0-1.041.112-.666-.71.173-.38-.1-.448-.42-.442-2.159.056-4.319-.134-6.473.117a2.049,2.049,0,0,0-1.745.806c-.151.252-.392.229-.621.229H72.447a11.62,11.62,0,0,1,2.327-4.117,17.193,17.193,0,0,1,12.911-6.1c4.783-.162,9.577-.045,14.372-.028a4.34,4.34,0,0,1,2.629.38c.453.3.856-.246,1.32-.285,4.067-.313,7.961-.168,11.261,2.808a20.276,20.276,0,0,1,4.515,5.119c.6-1.829,1.13-3.39,1.639-4.956.733-2.249,1.779-3.01,4.151-3.01,1.415,0,2.825-.028,4.24,0,1.482.028,2.115.906,1.773,2.338a9.7,9.7,0,0,0-.6,2.383,20.52,20.52,0,0,1,9.2-4.515,10.97,10.97,0,0,1,2.456-.263h15.429c1.936,0,2.6.856,2,2.685-1.225,3.709-2.585,7.379-3.72,11.116-.464,1.538-.688,3.127-1.785,4.4a9.328,9.328,0,0,1-7.407,3.485c-6.674-.017-13.348-.006-20.027-.011a3.169,3.169,0,0,1-2.148-.408c-.2-.157-.341-.09-.526-.017-2.249.862-4.582.3-6.875.386-.738.028-1.152-.548-1.488-1.175-.789-1.488-1.578-2.982-2.428-4.436a14.928,14.928,0,0,0-4.235-4.526c-.649-.47-.945-.448-1.192.392-.688,2.333-1.449,4.643-2.193,6.959a3.61,3.61,0,0,1-3.933,2.831c-1.376,0-2.747.011-4.123,0-1.813-.011-2.467-.923-1.941-2.68.168-.554.336-1.108.5-1.645-.336-.241-.476-.006-.649.123a19.416,19.416,0,0,1-12.335,4.212c-4.632-.073-9.264-.011-13.9-.022-1.706,0-2.176-.515-2.02-2.266-.66.078-.99.593-1.4.951a4.514,4.514,0,0,1-3.189,1.214c-6.831-.056-13.667-.028-20.5-.022a8.162,8.162,0,0,1-3-.464,2.811,2.811,0,0,1-2.02-3.077c.017-.229.078-.5-.157-.632-.263-.145-.42.134-.593.269a19.623,19.623,0,0,1-12.621,4.061c-4.436-.106-8.872-.022-13.309-.028-2.154,0-2.78-.845-2.131-2.887.7-2.2,1.454-4.391,2.12-6.612a1.045,1.045,0,0,1,1.214-.906c2.825.045,5.656.05,8.481-.006.945-.017,1.566.056,1.052,1.315,2.45-.073,4.8.145,7.144-.162.632-.084,1.264-.179,1.594-.828.218-.425.6-.3.929-.3,2.982-.006,5.969.017,8.951-.028.873-.011,1.192.145.671,1.007a14.8,14.8,0,0,0-.671,1.371l-.285.3A.27.27,0,0,0,42.367,24.1Zm95.874-5.13a4.965,4.965,0,0,1,2.277-1.494,12.359,12.359,0,0,1,4.067-.52c3.457-.006,6.909.011,10.366-.011,1.13-.006,2.557.464,3.312-.19.738-.643.755-2.075,1.18-3.127.324-.8.145-.99-.7-.985-4.984.034-9.98-.14-14.953.056-4.923.2-10.646,2.9-12.358,9.012-.655,2.338-1.421,4.649-2.232,6.942-.3.839-.028.906.682.9,6.6-.017,13.191.011,19.787-.017a6.373,6.373,0,0,0,5.41-3.049c.213-.308.571-.666.369-1.041-.185-.341-.649-.157-.985-.157q-8.24-.008-16.486,0c-.392,0-.783-.006-1.175-.006-.347,0-.481-.112-.375-.5.252-.951.492-1.628,1.818-1.6,4.867.112,9.734.056,14.6.034,1.13-.006,2.551.47,3.312-.19.744-.638.772-2.07,1.2-3.116.364-.873.017-.968-.744-.968-4.162.022-8.324.011-12.486.011C142.263,18.967,140.394,18.967,138.24,18.967ZM70.6,25.317c-.045-.09-.084-.185-.129-.274H54.54c.638-.364.957-.554,1.287-.733l13.628-7.452a5,5,0,0,0,2-1.606,1.3,1.3,0,0,0-.515-2.07,5.266,5.266,0,0,0-2.741-.531q-8.358,0-16.721.006c-.352,0-.794-.073-1.035.106-1.762,1.32-3.48,2.7-5.214,4.05.039.1.084.2.123.3h13.7c-.716.246-1.13.845-1.717,1.164-4.313,2.327-8.6,4.7-12.9,7.054a5.588,5.588,0,0,0-2.025,1.578,1.266,1.266,0,0,0,.52,2.115,5.664,5.664,0,0,0,2.417.408q9.658,0,19.311-.006c.341,0,.7.106,1.018-.151C67.311,27.951,68.956,26.637,70.6,25.317ZM21.741,29.658v-.017c1.65,0,3.3-.078,4.94.017a16.526,16.526,0,0,0,8.436-1.863,10.426,10.426,0,0,0,4.761-4.145c.229-.408.537-.889-.145-.929-1.717-.1-3.446-.056-5.169,0a1.405,1.405,0,0,0-.85.576A4.475,4.475,0,0,1,30.026,25c-2.864.05-5.728.034-8.587.078-.834.011-.962-.207-.671-1.018.431-1.18.185-1.415-1.1-1.41-1.214.006-2.433.011-3.647,0-.509-.006-.973.067-1.141.61-.543,1.74-1.029,3.5-1.594,5.236-.308.945.05,1.18.929,1.175C16.723,29.641,19.234,29.658,21.741,29.658Zm58.773-.112c2.159,0,4.313-.022,6.473.006a15.8,15.8,0,0,0,8.923-2.887,9.811,9.811,0,0,0,2.92-3.178c.341-.548.392-.811-.408-.794-1.488.034-2.982.011-4.47-.011a1.2,1.2,0,0,0-1.108.5,4.872,4.872,0,0,1-3.429,1.84,69.179,69.179,0,0,1-8.341.185c-1.8.039-1.846-.011-1.281-1.689.246-.733.067-.856-.627-.834-1.449.045-2.9.045-4.352.006a.865.865,0,0,0-.99.738c-.52,1.729-1.052,3.452-1.661,5.147-.28.783-.179,1.007.7.99C75.412,29.507,77.963,29.54,80.514,29.546ZM34.579,12.69h0c-.783-.006-1.572-.022-2.355,0-3.032.073-6.092-.347-9.018.962-2.484,1.108-4.833,2.322-6.288,4.777-.386.655-.313.917.464.912,1.488-.006,2.982.006,4.47,0a1.11,1.11,0,0,0,.951-.33C24.23,17.367,26.177,17.032,28.2,17c2.159-.039,4.313-.011,6.473-.011,1.466,0,1.538.017,1.225,1.387-.2.878.112,1,.85.979,1.253-.034,2.517-.073,3.765.017a1.3,1.3,0,0,0,1.5-1.108c.431-1.488.828-2.982,1.4-4.425.28-.7.106-1.169-.839-1.152C39.911,12.718,37.248,12.69,34.579,12.69Zm40.8,6.657h5.393c.308,0,.6.028.839-.285,1.2-1.606,2.976-1.986,4.805-2.047,2.7-.09,5.415-.034,8.123-.073.61-.011.789.151.537.722-.106.252-.145.531-.257.778-.319.671-.235.968.621.929,1.371-.062,2.747-.05,4.117,0a1.022,1.022,0,0,0,1.231-.873c.459-1.622.99-3.222,1.555-4.805.291-.822.134-1.052-.766-1.046-4.593.039-9.18.078-13.773-.006A16.2,16.2,0,0,0,79.423,15,9.773,9.773,0,0,0,75.384,19.348Z" transform="translate(-10.471 -10.211)" fill="#1e1c1c"/><path d="M224.476,37.09a2.326,2.326,0,0,1-4.649-.151,2.186,2.186,0,0,1,2.344-2.075A2.132,2.132,0,0,1,224.476,37.09Zm-1.5,1.029c.968-.213,1.113-.973.42-2.171-.1-.011-.257-.073-.3-.028-.106.117.034.173.117.229.151.688-.733,1.264-.213,2-.761.3-.5-.856-1.393-.738,1.287.537-.889.772.129,1.248C222.138,38.846,222.932,39.143,222.971,38.119Zm-1.807-2.187a1.489,1.489,0,0,0,0,2.417Z" transform="translate(-72.69 -17.537)" fill="#1e1c1c"/><path d="M22.882,34.917c-2.512,0-5.024-.017-7.53.011-.884.011-1.242-.229-.929-1.175.565-1.734,1.052-3.491,1.594-5.236.168-.543.638-.615,1.141-.61,1.214.011,2.433.006,3.647,0,1.281-.006,1.533.229,1.1,1.41-.3.806-.162,1.029.671,1.018,2.864-.039,5.728-.028,8.587-.078a4.483,4.483,0,0,0,3.687-1.706,1.405,1.405,0,0,1,.85-.576c1.723-.056,3.452-.09,5.169,0,.682.039.375.515.145.929a10.394,10.394,0,0,1-4.761,4.145,16.469,16.469,0,0,1-8.436,1.863c-1.645-.1-3.295-.017-4.94-.017C22.882,34.906,22.882,34.911,22.882,34.917Z" transform="translate(-11.613 -15.47)" fill="#d5141d"/><path d="M37.211,13.731c2.668,0,5.337.028,8-.017.951-.017,1.124.448.839,1.152-.576,1.443-.973,2.943-1.4,4.425a1.3,1.3,0,0,1-1.5,1.108c-1.248-.09-2.512-.05-3.765-.017-.738.022-1.052-.1-.85-.979.313-1.371.241-1.387-1.225-1.387-2.159,0-4.313-.028-6.473.011-2.025.039-3.966.369-5.393,2.014a1.094,1.094,0,0,1-.951.33c-1.488.006-2.982-.006-4.47,0-.778.006-.856-.257-.464-.912,1.454-2.456,3.8-3.67,6.288-4.777,2.92-1.3,5.986-.884,9.018-.962.778-.006,1.566.006,2.35.011Z" transform="translate(-13.102 -11.252)" fill="#d5141d"/></g></g></g></svg>