<svg xmlns="http://www.w3.org/2000/svg" xmlns:xlink="http://www.w3.org/1999/xlink" width="167" height="67" viewBox="0 0 167 67"><defs><clipPath id="a"><rect width="167" height="67" transform="translate(-0.005)" fill="#fff"/></clipPath></defs><g transform="translate(0.005)" clip-path="url(#a)"><g transform="translate(-0.403 16.346)"><g transform="translate(0 0)"><path d="M48.063,24.727q3.026-3.969,6.058-7.943c-.022-.044-.039-.083-.061-.128-.228.072-.461.139-.684.222-3.135,1.162-6.281,2.29-9.393,3.507a13.131,13.131,0,0,1-4.013.461c-3.624.278-7.253.484-10.872.778a3.386,3.386,0,0,1-1.667-.195c-3.4-1.428-6.8-2.829-10.2-4.241a1.405,1.405,0,0,0-.812-.133c2.434,2.74,4.869,5.475,7.4,8.315a3.221,3.221,0,0,1-.611.189c-2.746.2-2.74.195-4.5-1.929q-4.9-5.911-9.8-11.811a1.864,1.864,0,0,1-.395-.684c.233.072.467.133.695.217q9.746,3.485,19.5,6.964a2.875,2.875,0,0,0,1.112.106c2.54-.15,5.075-.35,7.615-.467,1.74-.078,3.491-.039,5.236-.078a3.173,3.173,0,0,0,.984-.206q9.121-3.193,18.231-6.409a1.04,1.04,0,0,1,.45-.067c-4.636,4.636-9.2,9.332-14.118,13.673C48.163,24.822,48.113,24.777,48.063,24.727Z" transform="translate(-8.505 -11.138)" fill="#222"/><path d="M108.376,27.034a8.757,8.757,0,0,1,5.636-1.645,3.857,3.857,0,0,1,3.88,4.752c-.661,3.946-3.624,8.621-9.916,8.715a10.378,10.378,0,0,1-4.608-.823,2.811,2.811,0,0,1-1.8-3.591,16.5,16.5,0,0,1,.706-2.212c1.239-3.257,2.512-6.509,3.746-9.771.195-.517.445-.734,1-.673.506.056,1.017-.006,1.529.033a1.192,1.192,0,0,1,1.145,1.768C109.266,24.733,108.815,25.878,108.376,27.034Zm2.946,1.278c-2.824-.011-5.364,2.751-5.347,5.808a1.691,1.691,0,0,0,1.512,1.823,4.453,4.453,0,0,0,3.746-.962,6.7,6.7,0,0,0,2.334-4.08C113.885,29.252,113.029,28.318,111.322,28.312Z" transform="translate(-29.044 -13.489)" fill="#222"/><path d="M149.041,38.741c.456-1.189.867-2.268,1.284-3.346,1.645-4.269,3.3-8.537,4.919-12.817.172-.456.378-.661.878-.611s1.017-.006,1.529.017c1.134.05,1.617.756,1.228,1.806-.417,1.128-.862,2.246-1.239,3.407a7.965,7.965,0,0,1,4.069-1.629,9.379,9.379,0,0,1,2.735.133,3.371,3.371,0,0,1,2.646,4.519c-.611,1.962-1.406,3.869-2.129,5.792-.278.75-.545,1.506-.878,2.229a.876.876,0,0,1-.595.45c-1.162.044-2.323.022-3.585.022.295-.778.561-1.5.834-2.218.561-1.473,1.139-2.935,1.69-4.408a7.845,7.845,0,0,0,.389-1.323,1.864,1.864,0,0,0-1.523-2.262,4.371,4.371,0,0,0-4.313,1.512,8.737,8.737,0,0,0-1.384,2.362c-.806,1.918-1.517,3.88-2.246,5.831a.705.705,0,0,1-.795.545C151.419,38.719,150.286,38.741,149.041,38.741Z" transform="translate(-39.56 -13.529)" fill="#222"/><path d="M136.693,35.743a9.89,9.89,0,0,1-7.092,4.085,12.932,12.932,0,0,1-3.818-.122,3.594,3.594,0,0,1-3.1-4.53c1.239-6.775,7.2-9.8,12.978-8.376a3.517,3.517,0,0,1,2.774,4.413c-.145.806-.45,1.579-.667,2.373-.122.45-.389.584-.85.578-2.885-.039-5.769-.061-8.66-.05-.478,0-1.145-.322-1.3.589-.183,1.045.028,1.873.845,2.151a4.475,4.475,0,0,0,1.984.222,5.551,5.551,0,0,0,2.023-.717,3.756,3.756,0,0,1,2.045-.617C134.736,35.76,135.626,35.743,136.693,35.743ZM128.066,31.9c1.929,0,3.791.006,5.647-.011a.521.521,0,0,0,.395-.211,1.629,1.629,0,0,0-.767-2.151A4.237,4.237,0,0,0,128.066,31.9Z" transform="translate(-33.716 -14.522)" fill="#222"/><path d="M95.562,36.024a22.229,22.229,0,0,1-2.212,2.018,10.971,10.971,0,0,1-8.521,1.8c-2.49-.439-3.7-2.273-3.2-4.8,1.217-6.236,6.709-9.516,12.645-8.248,2.462.528,3.535,2.234,3.029,4.7-.15.734-.445,1.434-.634,2.157-.122.467-.395.567-.845.567-3.035-.017-6.064.006-9.1-.022-.573-.006-.811.161-.895.734-.222,1.5.639,2.368,2.379,2.284a5.141,5.141,0,0,0,2.724-.878,3.364,3.364,0,0,1,1.551-.5c.978-.078,1.962-.022,2.946-.022C95.479,35.874,95.518,35.946,95.562,36.024Zm-8.587-4.013c1.929,0,3.774.006,5.614-.011.145,0,.372-.094.411-.2a1.653,1.653,0,0,0-.611-2.157A4.2,4.2,0,0,0,86.975,32.011Z" transform="translate(-24.639 -14.536)" fill="#222"/><path d="M176.995,40.137a27.174,27.174,0,0,1-2.7-.528,3.334,3.334,0,0,1-2.646-4.057,10.139,10.139,0,0,1,9.983-9.01,11.913,11.913,0,0,1,2.668.228c2.44.522,3.546,2.273,3.09,4.752A10.449,10.449,0,0,1,176.995,40.137Zm3.969-10.744a3.5,3.5,0,0,0-.35.022,6.115,6.115,0,0,0-4.752,6.4,1.463,1.463,0,0,0,.939,1.2,3.471,3.471,0,0,0,3.207-.278,6.786,6.786,0,0,0,3.179-4.736C183.559,30.443,182.659,29.382,180.963,29.393Z" transform="translate(-44.548 -14.541)" fill="#222"/><path d="M202.153,39.744c.723-1.879,1.4-3.641,2.073-5.4.306-.789.617-1.579.917-2.373a7.482,7.482,0,0,1,5.091-4.791,11.092,11.092,0,0,1,6.859-.233c2.24.745,2.912,1.918,2.2,4.174-.611,1.94-1.4,3.818-2.118,5.725-.306.817-.606,1.64-.967,2.429a.868.868,0,0,1-.6.428,14.158,14.158,0,0,1-1.818.017c-1.2-.056-1.6-.678-1.178-1.8.795-2.084,1.6-4.158,2.4-6.242.578-1.5.022-2.346-1.584-2.44a3.776,3.776,0,0,0-4.046,2.635c-.928,2.418-1.868,4.836-2.779,7.265a.779.779,0,0,1-.889.617C204.582,39.716,203.442,39.744,202.153,39.744Z" transform="translate(-51.297 -14.531)" fill="#222"/><path d="M140.893,38.719c.345-.912.65-1.745.973-2.573,1.729-4.5,3.474-8.993,5.186-13.5.195-.511.428-.734.989-.684.578.056,1.167-.011,1.745.028a1.129,1.129,0,0,1,1.095,1.656q-2.793,7.337-5.636,14.651a.7.7,0,0,1-.478.406C143.51,38.735,142.249,38.719,140.893,38.719Z" transform="translate(-37.76 -13.529)" fill="#222"/><path d="M189.611,39.779a.918.918,0,0,1-.011-.267c.934-2.39,1.745-4.841,2.846-7.153,1.59-3.335,4.53-4.852,8.059-5.364.928-.133,1.879-.156,2.99-.239-.467,1.217-.867,2.29-1.306,3.352-.044.111-.328.161-.506.172-.506.028-1.017.011-1.529.039A4.1,4.1,0,0,0,196.27,33.1c-.778,2.012-1.567,4.019-2.318,6.042a.812.812,0,0,1-.928.656C191.89,39.751,190.756,39.779,189.611,39.779Z" transform="translate(-48.521 -14.589)" fill="#222"/><path d="M80.864,26.763c-.461,1.2-.834,2.212-1.256,3.213a.772.772,0,0,1-.556.306c-.506.05-1.017.017-1.523.044a4.108,4.108,0,0,0-3.913,2.835c-.761,2.012-1.562,4.013-2.307,6.031a.771.771,0,0,1-.884.611c-1.134-.039-2.273-.011-3.529-.011.1-.295.167-.534.256-.761.667-1.74,1.356-3.468,2-5.219,1.506-4.119,4.569-6.225,8.8-6.8C78.847,26.869,79.764,26.846,80.864,26.763Z" transform="translate(-21.408 -14.59)" fill="#222"/><path d="M35.96,39.182q2.376-2.485,4.763-4.975A4.583,4.583,0,0,1,43.3,32.545a3.382,3.382,0,0,1,3.846,2.735,3.205,3.205,0,0,1-2.818,3.869C41.512,39.265,38.694,39.182,35.96,39.182Z" transform="translate(-14.572 -15.859)" fill="#222"/><path d="M19.971,50.7c.817-.534,1.5-1.028,2.24-1.434a1.6,1.6,0,0,1,.906-.028c7.8,1.162,15.274.3,22.266-3.552a19.7,19.7,0,0,0,4.847-3.8,3.727,3.727,0,0,0,.328-.45c.072.067.145.133.211.2-.839.912-1.623,1.884-2.523,2.724A27.564,27.564,0,0,1,33.394,51.32a32.849,32.849,0,0,1-12.712-.434C20.493,50.848,20.31,50.792,19.971,50.7Z" transform="translate(-11.038 -17.832)" fill="#222"/><path d="M31.618,33.7l-6.436,6.47C24.454,37.382,28.261,33.535,31.618,33.7Z" transform="translate(-12.17 -16.122)" fill="#222"/></g></g></g></svg>