<svg xmlns="http://www.w3.org/2000/svg" xmlns:xlink="http://www.w3.org/1999/xlink" width="168" height="67" viewBox="0 0 168 67"><defs><clipPath id="a"><rect width="168" height="67" transform="translate(-0.01)" fill="#fff"/></clipPath></defs><g transform="translate(0.01)" clip-path="url(#a)"><g transform="translate(10.24 21.488)"><g transform="translate(0 0)"><path d="M17.5,3.438c.794.079,1.587.14,2.381.238a29.857,29.857,0,0,1,7.949,2.033.384.384,0,0,1,.293.482,30.59,30.59,0,0,1-1.569,6.288.327.327,0,0,1-.043.073q-2.07-.76-4.127-1.514c-.018.037-.037.079-.055.116.348.269.7.531,1.038.806a9,9,0,0,1,2.155,2.405.67.67,0,0,1,.037.519,31.8,31.8,0,0,1-9.176,11.838c-.14.11-.293.214-.464.336A30.345,30.345,0,0,1,10.947,22.3c1.154-.965,2.289-1.923,3.425-2.876-.031-.043-.055-.092-.085-.134l-.348.147A10.884,10.884,0,0,1,10,20.478a.673.673,0,0,1-.665-.33,32.7,32.7,0,0,1-5.422-12.9c-.049-.281-.079-.562-.122-.843-.1-.745-.183-.58.482-.855a31.162,31.162,0,0,1,6.038-1.7c.256,1.465.513,2.912.763,4.359.018-.012.043-.018.061-.031.208-.959.385-1.923.635-2.876a7.581,7.581,0,0,1,.617-1.453.582.582,0,0,1,.4-.263c.482-.079.965-.11,1.453-.159C15.337,3.438,16.423,3.438,17.5,3.438ZM15.947,17.547c1.453-1.612,3.822-5.782,3.962-6.942a23.2,23.2,0,0,0-7.98.006A25.146,25.146,0,0,0,15.947,17.547Z" transform="translate(-3.722 -3.432)" fill="#1c1c1c"/><path d="M215.015,13.2c-.482.891-1.013,1.758-1.435,2.68a20.117,20.117,0,0,1-2.931,4.335.536.536,0,0,1-.348.177c-1.807.012-3.608.006-5.415.006a1.219,1.219,0,0,1-.189-.037,16.99,16.99,0,0,1,1.013-3.279c.672-1.215,1.3-2.46,1.935-3.694a.44.44,0,0,1,.44-.287c2.308.012,4.616.012,6.923.012A.463.463,0,0,1,215.015,13.2Z" transform="translate(-66.69 -6.463)" fill="#1c1c1c"/><path d="M45.824,24.8c.617-1.191,1.184-2.3,1.758-3.407q2.051-3.947,4.091-7.888a.592.592,0,0,1,.611-.385c5.214.012,10.422,0,15.636.018a9.711,9.711,0,0,1,2.18.256,1.237,1.237,0,0,1,.959,1.948c-.458,1.007-.977,1.99-1.532,2.949a3,3,0,0,1-2.332,1.337c-.433.067-.873.085-1.349.128.476,1.661.952,3.321,1.441,5.043h-.446c-2.424,0-4.848-.006-7.278.006-.324,0-.433-.085-.488-.409-.25-1.459-.537-2.912-.794-4.371-.043-.25-.134-.317-.372-.311-.531.012-1.056.024-1.587-.006a.507.507,0,0,0-.531.336c-.751,1.453-1.514,2.9-2.253,4.359a.625.625,0,0,1-.641.409c-2.192-.018-4.384-.006-6.582-.006C46.184,24.8,46.044,24.8,45.824,24.8Zm11.161-7.033c1.648,0,3.236.012,4.817-.006a1.037,1.037,0,0,0,.94-.641c.22-.452.464-.891.7-1.337.269-.519.165-.714-.421-.72-1.453-.018-2.912-.018-4.371-.012a.406.406,0,0,0-.311.14C57.882,16.029,57.449,16.878,56.985,17.769Z" transform="translate(-16.913 -6.468)" fill="#1c1c1c"/><path d="M117.258,24.768c-.317-3.914-.629-7.8-.946-11.716h9.75c.232,2.631.464,5.269.7,7.986.171-.128.287-.214.4-.305q4.671-3.755,9.353-7.5a.769.769,0,0,1,.433-.189c1.459-.012,2.912-.006,4.371-.006a1.068,1.068,0,0,1,.165.043c-.354.293-.678.562-1,.824q-6.575,5.348-13.145,10.684a.824.824,0,0,1-.476.2c-3.132.012-6.27.006-9.4.006A1.782,1.782,0,0,1,117.258,24.768Z" transform="translate(-38.998 -6.44)" fill="#1c1c1c"/><path d="M103.109,13.136c-.33.623-.611,1.2-.934,1.752a.547.547,0,0,1-.415.159q-4.039.018-8.083,0a.583.583,0,0,0-.617.372c-.366.775-.775,1.532-1.2,2.357h8.615c-.336.641-.623,1.227-.946,1.795-.055.092-.263.128-.4.128-2.54.006-5.08.018-7.619-.006a.879.879,0,0,0-.977.58c-.379.855-.849,1.667-1.313,2.558h8.908c-.354.672-.659,1.276-1,1.856-.043.079-.25.092-.385.092-1.795.006-3.584.006-5.379.006H80.739c.22-.427.4-.8.6-1.166q2.637-5.092,5.281-10.184a.487.487,0,0,1,.488-.33q7.839.018,15.672.006A3.223,3.223,0,0,0,103.109,13.136Z" transform="translate(-27.853 -6.463)" fill="#1c1c1c"/><path d="M196.895,13.124c-.324.611-.611,1.142-.879,1.685a.427.427,0,0,1-.452.256c-1.624-.006-3.248.006-4.878-.012a.564.564,0,0,0-.592.36c-1.563,3.034-3.144,6.056-4.713,9.085-.1.183-.177.305-.421.305-2.308-.012-4.616-.006-6.923-.006-.049,0-.1-.012-.2-.024,1.673-3.236,3.327-6.441,5.012-9.7h-5.623a8.3,8.3,0,0,0,.525-1.038c.25-.775.751-.934,1.539-.928,5.7.043,11.4.024,17.1.024C196.529,13.124,196.681,13.124,196.895,13.124Z" transform="translate(-58.083 -6.463)" fill="#1c1c1c"/><path d="M155.325,24.768c.488-.94.952-1.844,1.416-2.741q2.235-4.3,4.475-8.6a.557.557,0,0,1,.379-.281c2.351-.018,4.695-.012,7.046-.012a1.19,1.19,0,0,1,.2.031c-.305.592-.592,1.166-.885,1.728q-2.491,4.8-4.982,9.6c-.092.177-.171.317-.421.317-2.351-.012-4.695-.006-7.046-.006C155.46,24.8,155.423,24.787,155.325,24.768Z" transform="translate(-51.221 -6.471)" fill="#1c1c1c"/><path d="M209.182,25.678c-.507.983-1,1.929-1.5,2.869a.361.361,0,0,1-.263.165c-2.32.006-4.64.006-7.039.006.232-.446.44-.836.641-1.227.281-.537.549-1.081.849-1.606a.509.509,0,0,1,.33-.238c2.3-.012,4.591,0,6.887,0C209.109,25.654,209.121,25.66,209.182,25.678Z" transform="translate(-65.339 -10.391)" fill="#1c1c1c"/><path d="M152.036,17.808c.33-.635.623-1.215.922-1.795.458-.879.91-1.764,1.374-2.637a.447.447,0,0,1,.3-.232c1.068-.018,2.137-.012,3.242-.012a1.2,1.2,0,0,1-.079.238c-.727,1.38-1.453,2.753-2.167,4.139a.481.481,0,0,1-.507.305C154.111,17.8,153.11,17.808,152.036,17.808Z" transform="translate(-50.191 -6.471)" fill="#1c1c1c"/></g></g></g></svg>