<svg xmlns="http://www.w3.org/2000/svg" xmlns:xlink="http://www.w3.org/1999/xlink" width="168" height="67" viewBox="0 0 168 67"><defs><clipPath id="a"><rect width="168" height="67" transform="translate(-0.01)" fill="#fff"/></clipPath></defs><g transform="translate(0.01)" clip-path="url(#a)"><g transform="translate(0.269 9.132)"><g transform="translate(0 0)"><g transform="translate(10.253 2.975)"><path d="M147.733,42.833q-73.535,0-147.065.018c-.621,0-.685-.182-.685-.72Q.009,21.062-.005-.005q73.483,0,146.965-.012c.615,0,.785.135.785.773Q147.727,21.789,147.733,42.833ZM28.677,24.618h5.974c.375,0,.691-.023.674-.533-.07-2.1.111-4.205-.164-6.3A14.3,14.3,0,0,0,23.4,5.489,14.346,14.346,0,0,0,6.718,16.547c-.592,2.5-.363,5.049-.41,7.585-.006.474.31.486.65.486,4.006,0,8.007-.006,12.013.006.422,0,.633-.117.615-.592-.029-.8-.029-1.6,0-2.4.018-.445-.152-.633-.592-.627-.551.012-1.1,0-1.646,0H10.83c-.293,0-.574.064-.568-.428a14.856,14.856,0,0,1,.422-3.936,10.459,10.459,0,0,1,15.012-6.5c3.995,2.126,5.7,5.664,5.734,10.115.006.6-.135.773-.75.767-2.606-.035-5.219,0-7.825-.023-.6-.006-.826.182-.785.785a15.052,15.052,0,0,1,0,2.056c-.041.6.176.8.779.791C24.788,24.6,26.732,24.618,28.677,24.618ZM11.633,26.492h-.685c-1.072,0-1.107.041-.884,1.072A11,11,0,0,0,21.929,36.39a11.114,11.114,0,0,0,9.764-9.319c.059-.433-.088-.592-.5-.586a18.7,18.7,0,0,1-1.986-.012c-.633-.059-.879.211-1.037.791a7.506,7.506,0,0,1-6.689,5.523,7.622,7.622,0,0,1-7.819-4.937C13.12,26.492,13.12,26.492,11.633,26.492Zm77.12-5.078c0,1.669.012,3.339-.006,5.008-.006.539.17.785.75.779,1.757-.029,3.52,0,5.283-.023a3.026,3.026,0,0,0,2.94-1.956c.469-1.505.1-3.239-1.1-3.842-.3-.152-.31-.275-.023-.469a2.218,2.218,0,0,0,.9-1.406,3.011,3.011,0,0,0-3.134-3.86c-1.622-.029-3.245.012-4.867-.018-.586-.012-.756.228-.75.773C88.764,18.075,88.752,19.745,88.752,21.414Zm22.6-.035c0,1.347-.012,2.7,0,4.047.018,2-.3,1.734,1.8,1.769.51.006.691-.187.679-.691-.023-1.078-.012-2.15-.006-3.227,0-.211-.076-.463.234-.568a1.669,1.669,0,0,1,1.757.562c.826,1.125,1.64,2.255,2.466,3.38a1.876,1.876,0,0,0,1.956.486c.515-.351.228-.925.252-1.406.006-.152-.141-.328-.246-.474-.545-.761-1.084-1.529-1.646-2.273-.228-.3-.363-.5.123-.691a1.871,1.871,0,0,0,.9-.82,4.145,4.145,0,0,0,.217-4.065,3.243,3.243,0,0,0-3.11-1.757c-1.552-.047-3.11.006-4.668-.018-.545-.006-.72.2-.715.732C111.367,18.04,111.355,19.709,111.355,21.379ZM46.072,27.341a6.29,6.29,0,0,0,3.239-.72,3.214,3.214,0,0,0,1.529-3.754,3.773,3.773,0,0,0-3.11-2.56,25.2,25.2,0,0,1-3.139-.679.934.934,0,0,1-.65-.949.84.84,0,0,1,.726-.8,4.853,4.853,0,0,1,2.372.029c.316.076.674.281.679.609.006.92.6.855,1.212.832.322-.012.638-.012.961,0,.422.018.556-.182.539-.586a2.934,2.934,0,0,0-1.886-2.782,6.917,6.917,0,0,0-5.412.006A3.009,3.009,0,0,0,41.8,20.512a4.408,4.408,0,0,0,2.94,1.581c.867.187,1.751.269,2.612.527a1.147,1.147,0,0,1,.937,1.183,1.174,1.174,0,0,1-1.013,1.136,4.474,4.474,0,0,1-2.437-.047A1.221,1.221,0,0,1,43.794,23.7c-.006-.4-.187-.574-.6-.556-.5.023-1.007.018-1.511.006-.41-.012-.574.17-.556.58a3.307,3.307,0,0,0,1.757,2.9A6.084,6.084,0,0,0,46.072,27.341Zm18.409-5.927c0,1.306-.012,2.606,0,3.913.023,2.191-.322,1.816,1.9,1.874.621.018.785-.246.773-.82-.029-1.142,0-2.284-.018-3.432-.006-.387.059-.586.515-.568,1.1.029,2.2.029,3.292,0,.433-.012.556.158.545.562-.023.8-.006,1.6-.006,2.4,0,1.857,0,1.833,1.851,1.857.638.006.826-.211.826-.838-.023-2.952,0-5.9-.018-8.85-.012-2.173.328-1.827-1.892-1.886-.621-.018-.791.234-.773.808.029,1.031-.006,2.056.018,3.087.012.428-.1.621-.574.6-1.072-.029-2.15-.029-3.221,0-.474.012-.568-.182-.562-.6.023-1.054-.012-2.1.018-3.157.012-.521-.164-.773-.709-.738a7.041,7.041,0,0,1-1.166-.006c-.6-.064-.814.164-.8.767C64.5,18.075,64.481,19.745,64.481,21.414Zm78.479,0c0-1.669-.012-3.339.006-5.008.006-.533-.111-.838-.726-.773a7.257,7.257,0,0,1-1.236,0c-.551-.035-.715.211-.7.732.029,1.048-.018,2.1.018,3.157.018.5-.158.621-.621.609-1.048-.029-2.1-.023-3.157,0-.433.012-.621-.111-.6-.58.035-.685.012-1.371.006-2.056,0-1.892,0-1.88-1.9-1.868-.556.006-.767.182-.756.761.029,1.874.012,3.749.012,5.623,0,1.511.012,3.016-.006,4.528-.006.469.176.674.65.65a10.7,10.7,0,0,1,1.3,0c.551.041.72-.2.709-.726-.023-1.189.006-2.378-.012-3.567-.006-.381.111-.527.51-.515,1.119.023,2.243.023,3.362,0,.4-.006.5.135.5.515-.018,1.189.012,2.378-.018,3.567-.012.515.146.773.7.726a7.041,7.041,0,0,1,1.166,0c.6.059.808-.164.8-.773C142.936,24.752,142.96,23.083,142.96,21.414Zm-42.6-.029v4.873c0,.931,0,.931.9.931,1.945,0,3.889-.006,5.834,0s1.558.076,1.6-1.617c.012-.486-.187-.65-.65-.644-1.031.012-2.062.006-3.087.006-2.032,0-2.021,0-1.98-2.015.012-.422.135-.551.551-.539,1.142.023,2.29.012,3.432.006,1.494-.006,1.365.193,1.388-1.412.006-.521-.223-.674-.709-.662-.961.023-1.921.006-2.882.006-1.845,0-1.827,0-1.781-1.845.012-.422.146-.556.556-.545,1.189.018,2.378.006,3.567.006,1.833,0,1.552.141,1.587-1.564.012-.539-.182-.732-.72-.726-2.29.018-4.574.023-6.864-.006-.627-.006-.779.234-.767.808C100.379,18.087,100.355,19.739,100.355,21.385ZM76.582,19.821H76.6c0,1.166-.047,2.331.012,3.5a3.71,3.71,0,0,0,1.7,3.2,5.806,5.806,0,0,0,5.81.211A3.917,3.917,0,0,0,86.2,22.978c.059-1.851.023-3.7.023-5.558,0-1.775,0-1.775-1.769-1.775-.92,0-.961.035-.961.966-.006,2.15.006,4.3-.029,6.449a1.873,1.873,0,0,1-1.939,2.032,1.952,1.952,0,0,1-2.243-1.874,7.493,7.493,0,0,1-.041-.89c-.006-1.991-.012-3.977.006-5.968.006-.515-.141-.773-.7-.72a8.031,8.031,0,0,1-1.3,0c-.51-.029-.685.176-.674.685C76.6,17.49,76.582,18.655,76.582,19.821Zm-18.6,7.526c.176-.012.474-.018.767-.041A4.162,4.162,0,0,0,62.56,24.1c.117-.492.047-.814-.568-.779-.433.023-.867.018-1.306,0a.546.546,0,0,0-.627.4,2.011,2.011,0,0,1-2.2,1.371A2.3,2.3,0,0,1,55.531,23.5a6.5,6.5,0,0,1-.023-4.112,2.162,2.162,0,0,1,1.962-1.581c.914-.082,1.892-.088,2.366.832a1.212,1.212,0,0,0,1.406.726,6.468,6.468,0,0,1,.826-.006c.486.018.609-.252.5-.656a3.931,3.931,0,0,0-1.125-1.991,5.612,5.612,0,0,0-7.831.767,6.968,6.968,0,0,0-1.054,5.172A5.133,5.133,0,0,0,57.985,27.347Zm68.563-11.7c-1.1,0-2.2-.006-3.3,0-1.734.006-1.57-.246-1.587,1.646-.006.48.205.65.662.644.732-.012,1.464.023,2.2-.012.527-.029.715.123.7.679-.029,2.314-.012,4.621-.012,6.935,0,1.658,0,1.658,1.675,1.658.937,0,.937,0,.937-.961,0-2.565.012-5.125-.012-7.69-.006-.474.129-.662.615-.621.433.035.867.006,1.306.006,1.939.006,1.564.088,1.611-1.611.018-.515-.187-.685-.685-.679C129.3,15.656,127.919,15.645,126.548,15.645Z" transform="translate(0.017 0.017)" fill="#f07101"/><path d="M135.025,32.749c.521.035,1.048.035,1.57.105a1.036,1.036,0,0,1,.949,1.136c.023.8-.223,1.253-.843,1.371a18.59,18.59,0,0,1-3.075.082c-.24.006-.31-.141-.31-.357,0-.638.012-1.277-.006-1.915-.006-.3.123-.4.41-.4.433.012.867,0,1.3,0C135.025,32.767,135.025,32.761,135.025,32.749Z" transform="translate(-42.103 -10.334)" fill="#f07101"/><path d="M134.9,28.614c-1.576.006-1.576.006-1.57-1.54,0-.867,0-.867.9-.867.685,0,1.371-.012,2.05.023a1.19,1.19,0,0,1-.006,2.372C135.809,28.644,135.352,28.614,134.9,28.614Z" transform="translate(-42.108 -8.267)" fill="#f07101"/><path d="M168.168,28.662c-1.722,0-1.7,0-1.716-1.751-.006-.492.094-.7.638-.662.8.053,1.6,0,2.4.047.779.047,1.043.392,1.043,1.224-.006.761-.293,1.078-1.054,1.136a1.082,1.082,0,0,1-.135.006Z" transform="translate(-52.573 -8.279)" fill="#f07101"/></g></g></g></g></svg>