<svg xmlns="http://www.w3.org/2000/svg" xmlns:xlink="http://www.w3.org/1999/xlink" width="169" height="66" viewBox="0 0 169 66"><defs><clipPath id="a"><rect width="169" height="66" transform="translate(-0.016)" fill="#fff"/></clipPath></defs><g transform="translate(0.016)" clip-path="url(#a)"><g transform="translate(23.965 -0.638)"><g transform="translate(0 0)"><path d="M129.243,48.3c-1.353,3.729-2.637,7.281-3.967,10.94a20.731,20.731,0,0,1-4.508-.308,20.034,20.034,0,0,1-3.939-2.124c.089-.061.037-.047.037-.023-.3,2.3-1.8,2.66-3.771,2.4a26.9,26.9,0,0,1-2.889-.061c-1.96-.495-3.864.089-5.792.047-2.012-.042-4.023.019-6.035-.023-1-.023-1.993-.215-2.992-.257-.4-.019-.817.266-1.218.243a23.392,23.392,0,0,1-4.014-.387c-1.437-.341-1.839-1.125-1.843-2.506-2.194,0-4.382-.042-6.571.033A2.52,2.52,0,0,0,80.375,57c-5.866,5.2-12.027,10.006-19.149,13.371-3.295,1.559-6.772,2.721-10.17,4.065-.051-.117-.1-.233-.154-.355,2.478-1.993,5.017-3.916,7.416-5.993,2.418-2.1,4.7-4.345,6.683-6.189-.327-1.787-.523-3.136-.84-4.452a7.538,7.538,0,0,0-.9-1.638c-1.839,3.566-5.026,3.37-8.135,3.328-.173,0-.341-.336-.541-.551-3.972,1.045-8.121.448-12.237.523a2.017,2.017,0,0,1-1.129-.215c-1.311-.929-2.558-.457-3.874-.014a7.509,7.509,0,0,1-2.292.271c-2.59.033-5.185.014-7.775.009a2.941,2.941,0,0,1-1.26-.117c-1.8-.915-3.556-.224-5.376-.1A77.577,77.577,0,0,1,9.767,58.9c-2.674-.2-3.356-2.138-1.689-4.732a1.541,1.541,0,0,0,.28-.551c.532-3.36,2.3-5.134,5.7-5.288,3.281-.145,6.576-.028,9.862-.019a1.5,1.5,0,0,1,.681.121c1.489.817,2.95.215,4.476.107,3.766-.271,7.565-.14,11.35-.173,1.629,1.087,3.244.159,4.9.065,3.622-.205,7.267-.107,10.9-.065a5.166,5.166,0,0,1,1.559.443,8.565,8.565,0,0,1,1.918-.527c3.869-.042,7.738-.023,11.607-.019a10.266,10.266,0,0,1,1.736.1c1.787.308,2.866-.191,3.981-1.988a138.246,138.246,0,0,0-19.13-.826,102.286,102.286,0,0,0-19.42,1.871C39.654,44.9,40.541,42.6,41.764,40.5A60.888,60.888,0,0,1,52.377,27.658,94.391,94.391,0,0,1,72.245,12.509,52.87,52.87,0,0,1,84.029,7.725c.317-.084.639-.14,1.307-.285A99.211,99.211,0,0,0,70.676,20.182c2.119,3.44,1.027,7.1-2.889,9.465-1.811,1.1-3.808,1.885-5.656,2.931a17.675,17.675,0,0,0-3.276,2.5A111.564,111.564,0,0,0,78.1,36.115,100.529,100.529,0,0,0,97.148,34.3c-1.545,5.39-4.578,9.74-8.083,13.819.047.121.093.238.14.359.807-.075,1.615-.205,2.422-.21,1.652-.009,3.332-.219,4.877.658a1.485,1.485,0,0,0,.929.056,30.686,30.686,0,0,1,3.846-.7c2.628-.112,5.26-.075,7.892-.014a22.485,22.485,0,0,1,2.81.378c3.552-.859,6.6-.672,9.04,2.175C123.2,48.016,126.14,48.231,129.243,48.3ZM92.868,37.613c-12.54,1-24.927,1.2-37.337-.588a9.959,9.959,0,0,1,4.928-5.988c1.125-.6,2.264-1.171,3.374-1.792a24.738,24.738,0,0,0,4.06-2.4c2.446-2.072,2.231-4.471-.434-6.361q1.589-1.715,3.164-3.421c-.061-.07-.126-.14-.187-.21-.784.644-1.545,1.325-2.362,1.918-1.391,1-2.418,2.217-2.245,4.037a2.309,2.309,0,0,1-1.3,2.25c-.476.327-.989.611-1.451.957-2.418,1.792-4.91,3.5-7.206,5.432a13.221,13.221,0,0,0-4.093,5.951c-.485,1.451-.411,1.717,1.031,2.063a23.193,23.193,0,0,0,4.331.691c6.483.3,12.974.481,19.457.793,2.567.121,5.2,0,7.579,1.325a1.236,1.236,0,0,0,.933-.154c1.47-.775,2.931-1.563,4.368-2.394C90.633,39.051,91.744,38.318,92.868,37.613ZM78.751,48.133c2.721.453,3.272.285,4.429-1.956,1.713-3.318,1.512-4-2.175-4.359-5.759-.569-11.57-.635-17.357-.966-3.468-.2-7.024-.093-10.361-.887a5.888,5.888,0,0,0-5.134.9c-1.353.891-2.758,1.713-4.13,2.581-.341.215-.639.495-.821.63,6.119-.224,12.316-.546,18.519-.653a97.657,97.657,0,0,1,18.575,1.3,1.791,1.791,0,0,1-.037.443C79.773,46.126,79.283,47.087,78.751,48.133ZM69.519,16.92c-.065-.075-.131-.154-.191-.229C58.8,24.079,49.11,32.3,42.511,43.592c2.735-1.489,5.39-3.043,8.032-4.63a1.186,1.186,0,0,0,.513-.7A13.1,13.1,0,0,1,55.7,30.939a93.675,93.675,0,0,1,7.738-5.689c1.218-.835,2.161-1.652,2.035-3.3a3.125,3.125,0,0,1,1.316-2.707C67.708,18.492,68.609,17.7,69.519,16.92ZM14.088,52.907c-.033-1.083.485-1.349,1.442-1.325,2.511.056,5.026.019,7.537.019h2.18c.093-1.265-.733-1.484-1.489-1.493-3.589-.042-7.178-.065-10.762.033a2.824,2.824,0,0,0-2.707,2.315c-.331,1.181-.149,1.643,1.083,1.9a11.805,11.805,0,0,0,2.3.205c2.217.028,4.434.009,6.66.009-.061,1.045-.5,1.353-1.428,1.33-2.436-.065-4.872-.023-7.309-.023H9.067c.224,1.087.5,1.447,1.722,1.47,3.51.065,7.024.019,10.538-.023a3.326,3.326,0,0,0,1.213-.359c.835-.369,1.9-2.2,1.638-2.968-.378-1.1-1.451-.994-2.343-1.073-.807-.075-1.624-.019-2.436-.019C17.631,52.9,15.857,52.907,14.088,52.907ZM69.72,54.695c.835-.219,1.521-.341,2.166-.579a3.346,3.346,0,0,0,1.82-2.968c-.261-1.218-1.4-1.129-2.259-1.148-3.706-.079-7.416-.07-11.122-.061a.888.888,0,0,0-.691.411c-.873,2.287-1.7,4.6-2.553,6.926,2.8.387,3.78-.182,4.648-2.586.289-.8.551-1.605.887-2.385.117-.275.415-.667.635-.672,2.184-.051,4.368-.033,6.557-.033.028,1.106-.467,1.358-1.367,1.316-1.433-.065-2.875-.019-4.555-.019,1.2,1.549,2.212,2.861,3.248,4.149a1.065,1.065,0,0,0,.653.406c1.293.037,2.59.019,4.135.019C71.087,56.417,70.424,55.586,69.72,54.695ZM47.738,57.4v-.019c1.624,0,3.244.047,4.863-.014a2.962,2.962,0,0,0,3.169-2.32c.252-1,.7-1.96,1.05-2.94.457-1.274.191-1.941-1.148-1.974-3.659-.1-7.323-.065-10.977.033a2.331,2.331,0,0,0-2.254,1.549c-.462,1.307-.938,2.614-1.442,3.9a.989.989,0,0,0,.653,1.465,5.928,5.928,0,0,0,1.689.3C44.8,57.43,46.268,57.4,47.738,57.4Zm54.329,0v-.033c1.661,0,3.323.051,4.98-.014a2.905,2.905,0,0,0,3.057-2.3,31.1,31.1,0,0,1,1.05-2.94c.457-1.279.2-1.941-1.143-1.979-3.659-.1-7.323-.1-10.977.061a3.158,3.158,0,0,0-2.156,1.442,18.028,18.028,0,0,0-1.54,4.1A1.482,1.482,0,0,0,95.893,57a3.309,3.309,0,0,0,1.657.373C99.052,57.43,100.56,57.4,102.067,57.4Zm14.249-4.088c1.251,1.059,2.418,1.993,3.519,3a5.029,5.029,0,0,0,3.9,1.073.705.705,0,0,0,.541-.308c.882-2.324,1.731-4.662,2.59-7-3.188-.551-4.583,1.157-5.124,4.018-1.409-1.19-2.595-2.175-3.762-3.183a4.412,4.412,0,0,0-3.813-.882c-.49.093-.765,1.339-1.125,2.063a7.383,7.383,0,0,0-.285.756c-.532,1.465-1.059,2.931-1.647,4.546,1.1,0,1.984-.042,2.866.014a1,1,0,0,0,1.157-.835C115.466,55.53,115.882,54.5,116.316,53.313Zm-76.386.807c-1.209.322-2.53.327-3.328.975a4.491,4.491,0,0,1-3.2.784c-1.517.009-3.034,0-4.709,0,.518-1.423.938-2.618,1.391-3.8.07-.187.285-.443.439-.448,2.212-.028,4.429-.019,6.707-.019-.112.551-.187.91-.317,1.545a18.478,18.478,0,0,0,3.029-.7c.5-.205.807-.868,1.2-1.321-.457-.345-.905-.98-1.367-.985-3.7-.065-7.4-.075-11.1.042a2.534,2.534,0,0,0-2.394,2.035c-.266.961-.667,1.89-1,2.833-.551,1.531-.182,2.25,1.437,2.287,3.4.079,6.8.093,10.2-.019C38.861,57.262,39.6,56.394,39.93,54.121Zm33.794,3.146c2.782.425,3.762-.145,4.653-2.576.289-.8.532-1.615.882-2.385.131-.289.49-.663.751-.667,2.119-.056,4.238-.033,6.511-.033-.173.518-.3.9-.439,1.3-1.181,0-2.3,0-3.421,0-1.563.009-2.3.434-2.8,1.769,2.656-.117,5.222-.219,7.789-.359a3.18,3.18,0,0,0,1.1-.355,3.439,3.439,0,0,0,1.577-2.875c-.294-1.059-1.288-.924-2.091-1.1a.473.473,0,0,0-.117-.009c-3.71-.019-7.416-.051-11.126-.037a1,1,0,0,0-.765.495C75.372,52.665,74.573,54.914,73.724,57.266Zm9.115-9c.84,0,1.834.028,2.828-.019a1.141,1.141,0,0,0,.761-.406q3.332-4.5,6.613-9.045a2.993,2.993,0,0,0,.271-.733c-2.688,1.521-5.311,2.992-7.92,4.485a1.584,1.584,0,0,0-.677.691C84.076,44.861,83.488,46.509,82.839,48.268Zm9.89,9.143c.107-.07.681-.224.817-.555.7-1.708,1.3-3.454,1.918-5.2a.99.99,0,0,0-.873-1.437c-.817-.089-1.89-1-2.446.429-.546,1.4-1.045,2.81-1.563,4.219C89.937,56.641,90.418,57.327,92.728,57.411ZM74.494,59.278H70.8a14.348,14.348,0,0,1-1.087,2.25,12.411,12.411,0,0,1-1.717,1.713c-.579.546-1.171,1.073-1.755,1.61.07.079.14.163.21.243C69.034,63.231,71.615,61.359,74.494,59.278Zm-9.222,5.353c.075.065.154.131.229.2,1.591-1.769,4.126-2.735,4.653-5.572H66.709c-.1.126-.205.257-.3.383l1.913,1.741C67.377,62.381,66.327,63.506,65.272,64.631Zm-34.2-10.389c1.391-.406,2.693.322,4.056-.7C32.943,53.094,31.641,53.262,31.067,54.242Z" transform="translate(-7.174 -7.441)"/><path d="M63.9,64.127c-.5,1.391-.891,2.562-1.358,3.7a1.031,1.031,0,0,1-.723.555c-2.119.042-4.238.023-6.553.023.513-1.409.947-2.674,1.442-3.916a.831.831,0,0,1,.644-.345C59.467,64.117,61.586,64.127,63.9,64.127Zm-6.431,2.315c2.422.439,3.6.257,3.878-.6C60.13,66.045,58.846,65.438,57.469,66.441Z" transform="translate(-17.801 -19.967)"/><path d="M133.667,64.132c-.532,1.428-.985,2.688-1.484,3.93a.677.677,0,0,1-.518.327c-2.156.023-4.308.014-6.646.014.5-1.386.924-2.614,1.4-3.822a.816.816,0,0,1,.583-.429C129.154,64.118,131.306,64.132,133.667,64.132Zm-2.217,1.932c-2.362-.481-3.589-.285-3.869.593C128.785,66.424,130.073,67.03,131.45,66.064Z" transform="translate(-33.215 -19.968)"/></g></g></g></svg>