<svg xmlns="http://www.w3.org/2000/svg" xmlns:xlink="http://www.w3.org/1999/xlink" width="168" height="66" viewBox="0 0 168 66"><defs><clipPath id="a"><rect width="168" height="66" transform="translate(-0.016)" fill="#fff"/></clipPath></defs><g transform="translate(0.016)" clip-path="url(#a)"><g transform="translate(5.711 24.21)"><g transform="translate(0 0)"><path d="M6.863,27.648c.41-.956.874-1.894,1.214-2.873.211-.622.54-.751,1.144-.745,5.5.023,11,.012,16.5.023a4.35,4.35,0,0,0,2.715-.85c.7-.528.645-1.237-.17-1.583a3.75,3.75,0,0,0-1.443-.264c-3.483-.035-6.967-.023-10.45-.059a9.332,9.332,0,0,1-2.252-.24,3.482,3.482,0,0,1-2.434-5.178,8.643,8.643,0,0,1,5.454-4.533,9.954,9.954,0,0,1,2.991-.493c5.471-.041,10.948-.018,16.42-.018h1c-.51,1.278-.968,2.486-1.5,3.659-.076.17-.534.235-.809.235q-8.207,0-16.42-.035a4.069,4.069,0,0,0-2.733.774c-.276.223-.6.657-.551.927a1.483,1.483,0,0,0,.8.839,2.827,2.827,0,0,0,1.22.194c3.589.018,7.178,0,10.767.029a7.983,7.983,0,0,1,2.006.27,3.451,3.451,0,0,1,2.428,4.955,7.955,7.955,0,0,1-4.75,4.427,11.9,11.9,0,0,1-3.952.8c-5.418.082-10.843.023-16.261.018-.311,0-.627.018-.938.029C6.863,27.853,6.863,27.748,6.863,27.648Z" transform="translate(-6.857 -10.829)"/><path d="M72.006,10.867c-.528,1.284-.979,2.445-1.5,3.577-.088.182-.5.3-.768.3-4.111.018-8.222.012-12.332.012-1.519,0-3.038-.018-4.556.006A3.718,3.718,0,0,0,49.5,17.5H69.326c-.528,1.29-.979,2.451-1.5,3.577-.082.176-.51.276-.78.276q-8.251.018-16.5.006h-1.73c-1.079,0-1.22.117-1.284,1.067a1.355,1.355,0,0,0,1.2,1.624,8.577,8.577,0,0,0,1.1.047H66.64c-.534,1.308-1.009,2.527-1.554,3.724-.065.141-.516.152-.786.152q-7.38.009-14.766-.012c-.733,0-1.466.006-2.2-.006-2.85-.047-4.721-2.31-3.882-5.031a34.15,34.15,0,0,1,2.862-7.008,9.631,9.631,0,0,1,8.8-5.078q8.013.018,16.027.023C71.373,10.867,71.607,10.867,72.006,10.867Z" transform="translate(-16.766 -10.831)"/><path d="M205.443,17.671h5.037c-.539,1.29-1.015,2.486-1.554,3.659-.07.147-.434.223-.668.229-1.284.018-2.569.018-3.847-.012a.709.709,0,0,0-.8.54c-.727,1.847-1.507,3.671-2.228,5.518a.763.763,0,0,1-.856.575c-1.044-.035-2.088-.012-3.243-.012.891-2.223,1.753-4.369,2.645-6.574-.3-.018-.522-.035-.751-.035-4.82-.006-9.641.006-14.455-.035a1.017,1.017,0,0,0-1.126.78c-.669,1.753-1.4,3.489-2.07,5.243a.809.809,0,0,1-.909.627c-1.038-.041-2.082-.012-3.219-.012.117-.334.2-.575.293-.809,1.343-3.313,2.7-6.621,4.023-9.946a10.559,10.559,0,0,1,9.447-6.386c3.477.129,6.967.018,10.45.053a6.332,6.332,0,0,1,2.07.34c1.97.715,2.809,2.815,2.129,5.172C205.707,16.9,205.59,17.226,205.443,17.671Zm-19.868-.094c.065.023.088.047.111.047q7.688.035,15.376.065c.176,0,.493-.129.5-.229a3.852,3.852,0,0,0,.023-1.789,1.8,1.8,0,0,0-1.331-.692c-1.144-.1-2.3-.035-3.448-.041-2.486-.012-4.967-.029-7.453-.023A3.791,3.791,0,0,0,185.575,17.577Z" transform="translate(-53.285 -10.88)"/><path d="M104.182,10.91c-.522,1.3-.95,2.439-1.46,3.548-.082.182-.5.3-.768.3-4.844.018-9.688.012-14.537.018a4.486,4.486,0,0,0-1.085.111,3.858,3.858,0,0,0-2.7,2.3c-.639,1.49-1.22,3-1.8,4.51-.586,1.531.006,2.387,1.642,2.4q5.181.035,10.368.059a9.109,9.109,0,0,0,1.325-.106c1.607-.235,2.328-.938,2.7-2.662H87.979c.5-1.231.932-2.381,1.454-3.483.106-.217.581-.369.885-.369,3.929-.006,7.858.023,11.787.047h1.261c-.1.276-.164.493-.246.7-.475,1.185-.979,2.363-1.437,3.56-1.572,4.111-4.709,6.017-8.949,6.163-3.665.123-7.33.047-11,.018-2.211-.018-3.759-.985-4.123-2.78a6.294,6.294,0,0,1,.147-2.991A34.143,34.143,0,0,1,79.916,16.8c1.882-3.671,4.861-5.829,9.113-5.864,4.715-.041,9.43-.023,14.144-.029Z" transform="translate(-26.088 -10.851)"/><path d="M165.179,21.514h-1.22c-4.662-.006-9.324-.006-13.98-.035a.954.954,0,0,0-1.079.727c-.663,1.759-1.431,3.477-2.1,5.231a.869.869,0,0,1-.973.663c-1.02-.023-2.041-.006-3.178-.006.1-.287.176-.54.276-.792,2.117-5.2,4.246-10.385,6.345-15.587a.923.923,0,0,1,1.02-.692c5.577.029,11.154.018,16.73.035a7.292,7.292,0,0,1,1.554.17,3.515,3.515,0,0,1,2.68,5.008c-1.513,3.777-3.049,7.547-4.562,11.33a.772.772,0,0,1-.85.6c-1.038-.041-2.082-.012-3.29-.012C163.437,25.889,164.282,23.772,165.179,21.514Zm-14.4-3.941a3.392,3.392,0,0,0,.381.065c5.049.006,10.092,0,15.141.012.9,0,.727-.821.991-1.284a.778.778,0,0,0-.416-1.114,2.784,2.784,0,0,0-1.108-.311c-4.468-.035-8.943-.041-13.411-.041a.721.721,0,0,0-.557.27C151.434,15.943,151.129,16.741,150.783,17.573Z" transform="translate(-43.826 -10.882)"/><path d="M119.819,10.938c-1.337,3.319-2.615,6.486-3.894,9.652-.188.457-.393.909-.545,1.384A1.556,1.556,0,0,0,117,24.214c1.912.012,3.823.006,5.735.006,1.624,0,3.243.006,4.867.006a3.967,3.967,0,0,0,3.941-2.651c1.331-3.284,2.668-6.574,3.976-9.869a.94.94,0,0,1,1.073-.739c.991.059,1.982.018,3.079.018-.106.317-.176.551-.27.78-1.314,3.3-2.656,6.58-3.947,9.881a10.574,10.574,0,0,1-9.488,6.439c-3.425-.088-6.855-.012-10.286-.023a6.984,6.984,0,0,1-1.712-.164,3.792,3.792,0,0,1-2.739-5.008,33.812,33.812,0,0,1,1.284-3.442c1.044-2.615,2.117-5.219,3.149-7.84a.853.853,0,0,1,.956-.68C117.643,10.967,118.664,10.938,119.819,10.938Z" transform="translate(-35.222 -10.855)"/></g></g></g></svg>