<svg xmlns="http://www.w3.org/2000/svg" xmlns:xlink="http://www.w3.org/1999/xlink" width="168" height="66" viewBox="0 0 168 66"><defs><clipPath id="a"><rect width="168" height="66" fill="#fff"/></clipPath></defs><g clip-path="url(#a)"><g transform="translate(7 15.149)"><g transform="translate(0 0)"><path d="M21.476,39.527A52.045,52.045,0,0,1,42.255,28.332c-.017-.075-.034-.149-.057-.23-1.432.293-2.875.529-4.289.9a43.335,43.335,0,0,0-14.983,7.612c-1.018.759-2.035,1.529-2.984,2.38a2.023,2.023,0,0,1-1.736.523c-2.018-.218-2.018-.213-2.512-2.179A135.455,135.455,0,0,1,12.34,18.593,52.221,52.221,0,0,1,12.024,7.5a1.4,1.4,0,0,1,1.253-1.466c2.535-.4,5.059-.972,7.612-1.15C25,4.6,29.123,4.576,33.245,4.461c1.156-.034,2.311-.006,3.467-.006.017.069.04.138.057.207l-1.357.673a48.64,48.64,0,0,0-13.649,9.573,30.572,30.572,0,0,0-5.669,8.13,2.732,2.732,0,0,0-.092.385c1.1-1.432,2.116-2.806,3.191-4.122a42.722,42.722,0,0,1,10.257-8.86A58.569,58.569,0,0,1,40.018,5.1a6.367,6.367,0,0,1,3.076-.086c1.823.264,3.622.707,5.433,1.087a.972.972,0,0,1,.845,1.184c-.345,4.324-.552,8.664-1.006,12.976a109.4,109.4,0,0,1-2.777,15.822c-.178.7-.443,1.374-.569,2.076a1.36,1.36,0,0,1-1.489,1.2c-3.174.155-6.347.4-9.527.466-4.145.08-8.3.017-12.447.017C21.528,39.739,21.5,39.636,21.476,39.527ZM33.941,16.408c.04.046.086.092.126.132-.494.54-1,1.069-1.483,1.621-1.138,1.317-2.369,2.461-2.8,4.364-.466,2.041-.466,3.691,1.2,5.105a1.8,1.8,0,0,1,.4.529.886.886,0,0,0,1.305.385,97.814,97.814,0,0,1,12.85-4.14,4.788,4.788,0,0,0,.632-.333c-2.932.138-5.611.236-8.291.408-1.179.075-2.311.23-2.587-1.437a8.645,8.645,0,0,0-.2,1.133c-.046.356-.121.713-.149,1.069-.115,1.529-.362,1.8-1.846,1.966-.627.069-.943-.345-.661-.92.207-.42.489-.8.736-1.2a25.068,25.068,0,0,0,1.719-2.829c1.167-2.616,2.15-5.318,3.363-7.905.839-1.788,1.943-3.444,3-5.272-10.481,3.461-18.283,9.883-23.17,19.738.3.023.581.046.874.069a.768.768,0,0,0,.092-.224c.04-.77.621-.954,1.207-1.006.563-.046,1.23-.23,1.524.586.057.161.385.253.6.322.351.109.719.172,1.11.264a30.4,30.4,0,0,1,6.169-10.107c.379.989.471,1.018,1.138.437Q32.374,17.782,33.941,16.408ZM21.286,28.815c-.011-.08-.023-.155-.034-.236-.2-.04-.477-.19-.6-.1a16.881,16.881,0,0,0-1.644,1.288c-.086.075-.006.339,0,.512a4.269,4.269,0,0,0,.517-.247c.362-.241.713-.5,1.069-.747C20.821,29.12,21.056,28.971,21.286,28.815Zm-4.87,3.461c1.547.27,1.529-1.075,2.271-1.794-.351,0-.7-.1-.8.017C17.371,31.04,16.928,31.638,16.417,32.277Zm5.025-2.967.172.138c-.259.276-.512.552-.77.828a1.063,1.063,0,0,0,.08.08c.621-.31,1.248-.615,1.892-.937Z" transform="translate(-11.844 -4.444)" fill="#324674"/><path d="M117.094,31.786V25.14c-.086-.069-.126-.138-.172-.138q-4.234-.026-8.469-.029c-.586,0-.9.27-.891.926.029,1.69.006,3.375.006,5.065v.776h-6.388V15.487h6.353v5.726c.339.017.6.046.868.046q3.527.009,7.06,0c1.345,0,1.633-.3,1.633-1.673V15.475h6.324V29.05l.155.052a5.341,5.341,0,0,0,.3-.489q3.165-6.3,6.324-12.6a.915.915,0,0,1,.949-.6q3.234.043,6.48-.006a.952.952,0,0,1,1,.632c1.92,3.887,3.869,7.767,5.813,11.643a1.945,1.945,0,0,0,.563.73V15.458c.374-.017.667-.046.966-.046q7.227,0,14.448.006a10.707,10.707,0,0,1,1.823.115c3.162.569,4.743,4,3.283,7.1a5.064,5.064,0,0,1-4.042,3.047c1.863,2.024,3.674,3.99,5.611,6.089-2.191,0-4.2.017-6.209-.023-.213-.006-.466-.264-.627-.466-.92-1.138-1.817-2.294-2.725-3.444a3.5,3.5,0,0,0-3.294-1.506,27.549,27.549,0,0,1-2.846.017v5.347a7.268,7.268,0,0,1-.742.069c-3.432.006-6.865-.006-10.3.011a.9.9,0,0,1-.989-.632c-1.081-2.455-.322-1.949-3-2-1.771-.029-3.542.017-5.312-.017-.6-.011-1.006.2-1.115.747-.333,1.69-1.368,2.007-2.961,1.932-2.955-.144-5.922-.04-8.883-.04C117.789,31.786,117.49,31.786,117.094,31.786Zm34.358-9.354c2.122,0,4.18.006,6.244-.006a5.887,5.887,0,0,0,1.23-.092c1.179-.241,1.679-.822,1.61-1.823-.069-.96-.621-1.524-1.782-1.57-1.846-.075-3.7-.046-5.542-.057-.569-.006-1.144,0-1.754,0C151.452,20.1,151.452,21.219,151.452,22.432ZM136.544,25.18c-.73-1.7-1.414-3.3-2.173-5.059-.765,1.8-1.437,3.386-2.145,5.059Z" transform="translate(-37.836 -7.633)" fill="#303030"/><path d="M68.323,26.566c2.444,0,4.8-.006,7.147.011a.62.62,0,0,1,.466.316A2.044,2.044,0,0,0,77.8,28.337c1.334.121,2.691.057,4.036.046a1.572,1.572,0,0,0,.627-.2c.586-.282,1.115-.765.926-1.4a1.745,1.745,0,0,0-1.138-.995c-1.9-.368-3.823-.592-5.732-.885-1.42-.218-2.857-.351-4.243-.707a4.353,4.353,0,0,1-3.484-3.082,4.159,4.159,0,0,1,1.65-4.605,9.731,9.731,0,0,1,5.071-1.633c3.708-.264,7.417-.356,10.993.926a4.689,4.689,0,0,1,3.409,4.191,2.911,2.911,0,0,1-.448.069c-2.018.006-4.042.011-6.06-.006-.23,0-.609-.115-.673-.276a2.378,2.378,0,0,0-2.156-1.46,27.979,27.979,0,0,0-3.542-.04,1.279,1.279,0,0,0-.839.3c-.316.328-.707.77-.7,1.161.006.3.54.77.9.839,1.518.293,3.059.454,4.594.678,1.828.264,3.668.494,5.485.839a7.913,7.913,0,0,1,2.242.822,4.315,4.315,0,0,1,.638,6.922,9.331,9.331,0,0,1-5.272,1.989,33.762,33.762,0,0,1-10.648-.287,7.128,7.128,0,0,1-3.5-1.621A4.8,4.8,0,0,1,68.323,26.566Z" transform="translate(-28.277 -7.432)" fill="#303030"/><path d="M200.858,31.755H194.5c0-1.529-.023-3.018.017-4.5a1.124,1.124,0,0,1,.425-.736q6.744-5.45,13.517-10.855a1.155,1.155,0,0,1,.673-.213c2.622-.017,5.249-.011,8.1-.011-3.116,2.484-6.077,4.847-9.13,7.279,3.231,3,6.422,5.956,9.722,9.027-.425.023-.713.052-.995.052-2.185.006-4.37-.029-6.554.023a2.09,2.09,0,0,1-1.656-.713c-1.547-1.541-3.145-3.03-4.7-4.565-.454-.448-.88-.851-1.581-.592a2.051,2.051,0,0,0-1.409,1.6,5.948,5.948,0,0,0-.063,1.156C200.852,29.691,200.858,30.686,200.858,31.755Z" transform="translate(-64.986 -7.643)" fill="#303030"/><path d="M194.621,15.512h6.227c0,1.512.046,2.972-.017,4.427a2.774,2.774,0,0,1-1.173,2.1c-1.673,1.3-3.323,2.622-5.042,3.99C194.621,22.446,194.621,18.967,194.621,15.512Z" transform="translate(-65.022 -7.664)" fill="#303030"/><path d="M199.651,43.964c.581-1.167,1.115-2.191,1.61-3.237a1.021,1.021,0,0,1,1.271-.638c.581.132.552.6.552,1.052-.006,1.265,0,2.53,0,3.852h-1.006V41.613a1.176,1.176,0,0,0-.138-.029c-.494.966-.966,1.949-1.506,2.892a1.16,1.16,0,0,1-.77.575c-.253.006-.6-.31-.753-.575-.546-.949-1.023-1.932-1.65-2.892V45l-1.018.046c0-1.472-.029-2.875.029-4.278a.96.96,0,0,1,.569-.661.9.9,0,0,1,1.173.5C198.513,41.688,199.048,42.745,199.651,43.964Z" transform="translate(-65.493 -14.804)" fill="#303030"/><path d="M211.719,44.97c-1.161,0-2.265.04-3.358-.017-.713-.034-1.058-.5-1.041-1.236.017-.8.023-1.6.006-2.4A1.064,1.064,0,0,1,208.4,40.1c1.1-.057,2.2-.017,3.294-.017.052.075.1.144.155.218-.172.155-.339.431-.529.448-.575.057-1.156.017-1.736.023-1.184.012-1.271.115-1.092,1.368h3.041c.017.264.035.483.057.747h-3.03c-.316,1.15-.161,1.363.966,1.374.552.006,1.1.023,1.656-.006C211.719,44.24,211.892,44.453,211.719,44.97Z" transform="translate(-68.718 -14.809)" fill="#303030"/><path d="M185.543,44.971c-1.242,0-2.34.029-3.438-.011a1,1,0,0,1-1-1.1c-.011-.857,0-1.713.006-2.57a1.068,1.068,0,0,1,1.121-1.173c1.069-.04,2.145-.012,3.214-.012.2.517.063.719-.443.7-.552-.023-1.1-.012-1.662-.006-1.161.012-1.276.155-1.075,1.386h3.082c-.011.276-.023.483-.034.73H182.3c-.287,1.167-.144,1.357.995,1.368.69.006,1.38,0,2.156,0C185.491,44.522,185.514,44.747,185.543,44.971Z" transform="translate(-61.089 -14.816)" fill="#303030"/><path d="M172.681,40.092H173.7v2.041h2.869V40.086c.374-.017.655-.029,1-.046V45H176.6V42.955h-2.9V45h-1.023Z" transform="translate(-58.64 -14.801)" fill="#303030"/><path d="M221.569,44.262h2.472c.466,0,.816-.121.822-.684s-.339-.684-.811-.684c-.385.006-.776.012-1.161-.017-1.167-.086-1.46-.46-1.432-1.639a1.068,1.068,0,0,1,1.115-1.167q1.449-.078,2.9-.017c.172.006.333.322.5.489-.052.075-.109.149-.161.23-.822,0-1.644-.006-2.466.006-.443.006-.834.092-.851.667-.012.592.379.661.828.667.3.006.609,0,.914.006,1.322.023,1.633.362,1.627,1.679-.006.661-.264,1.092-.926,1.138-1.018.069-2.035.1-3.053.075-.161-.006-.316-.345-.471-.535A2.486,2.486,0,0,1,221.569,44.262Z" transform="translate(-72.819 -14.797)" fill="#303030"/><path d="M189.2,40.078c.345-.017.615-.029,1.012-.046v3.156c0,.989.08,1.069,1.092,1.081.581.006,1.167-.034,1.742.017.207.017.4.23.6.351-.184.138-.368.391-.552.391-.966.006-1.932-.017-2.892-.092a1.018,1.018,0,0,1-1.006-1.179C189.207,42.545,189.2,41.337,189.2,40.078Z" transform="translate(-63.443 -14.798)" fill="#303030"/><path d="M217.44,45h-1.035V40.772a9.408,9.408,0,0,1-1.225-.017c-.161-.023-.3-.207-.448-.322.155-.132.31-.379.471-.385,1.265-.034,2.535-.017,3.795-.017.069.638.069.638-1.552.811C217.44,42.2,217.44,43.566,217.44,45Z" transform="translate(-70.875 -14.797)" fill="#303030"/></g></g></g></svg>