<svg xmlns="http://www.w3.org/2000/svg" xmlns:xlink="http://www.w3.org/1999/xlink" width="169" height="67" viewBox="0 0 169 67"><defs><clipPath id="a"><rect width="169" height="67" fill="#fff"/></clipPath></defs><g clip-path="url(#a)"><g transform="translate(24.477 17.56)"><g transform="translate(0 0)"><path d="M124.618,25.9h1.939a1.042,1.042,0,0,1,.969.969c0,.481-.244.725-.481.725.244,0,.481.725.481.969a1.449,1.449,0,0,0,.244.969H126.8c-.244,0-.244-.969-.244-1.213s-.244-.244-.481-.244h-.725v1.451h-.969V25.893l.238.006Zm.725.481v1.213h.725c.244,0,.481-.481.481-.481a.518.518,0,0,0-.481-.481h-.725ZM47.874,29.77V41.634A2.166,2.166,0,0,0,50.05,43.81h4.359a2.166,2.166,0,0,0,2.176-2.176V14.274A2.166,2.166,0,0,0,54.409,12.1H50.05a2.166,2.166,0,0,0-2.176,2.176v9.443H41.339V14.274a2.386,2.386,0,0,0-2.176-2.42H35.048a2.166,2.166,0,0,0-2.176,2.176V41.39a2.166,2.166,0,0,0,2.176,2.176h4.115a2.166,2.166,0,0,0,2.176-2.176V29.527h6.535Zm67.057,14.046a2.166,2.166,0,0,0,2.176-2.176V14.28a2.166,2.166,0,0,0-2.176-2.176h-4.359A2.166,2.166,0,0,0,108.4,14.28V41.64a2.166,2.166,0,0,0,2.176,2.176Zm-13.8-13.558a1.91,1.91,0,0,0,1.939-1.939V26.144a1.91,1.91,0,0,0-1.939-1.939H95.082v-6.3h9.2a1.91,1.91,0,0,0,1.939-1.939V13.793a2.085,2.085,0,0,0-1.939-1.939H88.547a2.386,2.386,0,0,0-2.176,2.42v27.36a2.166,2.166,0,0,0,2.176,2.176h16.222a2.085,2.085,0,0,0,1.939-1.939V39.695a1.91,1.91,0,0,0-1.939-1.939H95.082v-7.5ZM14.949,11.86H27.293c.969,0,1.213.725,1.213,1.451v3.146c0,.969-.725,1.451-1.695,1.451H19.064c-1.695,0-1.939.725-.969,1.939S27.537,30.5,29.232,32.191c3.633,4.115.244,11.382-5.084,11.382H11.078a1.353,1.353,0,0,1-1.451-1.213V38.488a1.146,1.146,0,0,1,1.213-1.213h7.992c2.176,0,2.664-.481,1.213-2.176C18.832,33.4,11.572,25.412,9.633,22.992,6.957,19.6,8.9,11.86,14.949,11.86m52.293,0h8.718c4.359,0,7.5.725,7.5,15.978S80.074,43.816,76.44,43.816H66.754c-4.359,0-7.26-.725-7.26-15.978S62.157,11.86,67.241,11.86m.481,15.978c0,6.054.725,9.687,3.871,9.687,3.633,0,3.871-3.871,3.871-9.687,0-6.054-.725-9.687-3.871-9.687-3.383,0-3.871,4.359-3.871,9.687" transform="translate(-8.457 -11.854)"/></g></g></g></svg>