<svg xmlns="http://www.w3.org/2000/svg" xmlns:xlink="http://www.w3.org/1999/xlink" width="167" height="67" viewBox="0 0 167 67"><defs><clipPath id="a"><rect width="167" height="67" transform="translate(-0.005)" fill="#fff"/></clipPath></defs><g transform="translate(0.005)" clip-path="url(#a)"><g transform="translate(11.155 20.006)"><g transform="translate(0 0)"><path d="M140.336,22.622c1.593,1.5,3.076,2.87,4.539,4.271a4.533,4.533,0,0,1,1.332,5.136c-.707,1.737-2.232,2.65-4.442,2.65-6.166,0-12.332-.034-18.5.014a5.687,5.687,0,0,1-4.079-1.607c-1.463-1.339-2.98-2.616-4.436-3.962a1.092,1.092,0,0,0-1.414-.185c-3.77,1.71-7.56,3.358-11.336,5.054a7.751,7.751,0,0,1-3.261.687c-13.52-.014-27.032.062-40.552-.048-4.566-.034-8.459-2.657-9.681-6.695-1.064-3.5.13-6.516,1.971-9.407.1-.158.247-.3.494-.6-1.565,0-2.939.041-4.312-.014-.7-.027-.838.488-1.071.893-2.458,4.236-4.964,8.445-7.313,12.744a6.009,6.009,0,0,1-5.912,3.433c-4.642-.089-9.3-.24-13.938.041-3.962.24-6.537-3.543-4.3-7.148,1.943-3.124,3.584-6.427,5.356-9.654.014-.027-.007-.076-.027-.288H15.886C13,17.933,11.018,16.134,11,13.5c-.014-2.822,2.369-5.452,5.019-5.452q20.145-.01,40.3.014a3.9,3.9,0,0,1,3.241,1.627c.384.515.666.687,1.318.405A27.836,27.836,0,0,1,72.175,7.983q24.842.062,49.677-.014a6.526,6.526,0,0,1,5.177,2.053c1.1,1.167,2.376,2.156,3.5,3.3a1.32,1.32,0,0,0,1.771.247c3.433-1.641,6.894-3.227,10.327-4.861a5.91,5.91,0,0,1,2.63-.693c2.28.021,4.559-.014,6.839.048a4.234,4.234,0,0,1,3.962,3.261,4.446,4.446,0,0,1-2.28,4.9C149.372,18.351,144.916,20.452,140.336,22.622ZM104.927,19.9c-1.009-.934-1.957-1.771-2.849-2.657a.578.578,0,0,0-.858-.076,6.088,6.088,0,0,1-3.275.7q-8.8,0-17.6-.007a3.577,3.577,0,0,0-3,.982C75.883,20.6,75,22.711,73.734,24.764c5.157,0,10.052.007,14.948-.007a5.388,5.388,0,0,1,3.481.8.657.657,0,0,0,.79.027C96.908,23.693,100.876,21.826,104.927,19.9Zm16.561,1.854c-4.133,0-8.274.007-12.407-.007a3.733,3.733,0,0,0-1.7.357c-4.367,2.094-8.748,4.168-13.121,6.255a5.319,5.319,0,0,0-1.167.714,1.372,1.372,0,0,0-.556,1.565,1.5,1.5,0,0,0,1.469,1c1.517.014,3.042-.021,4.559.014a5.393,5.393,0,0,0,2.424-.522c4.188-1.881,8.411-3.673,12.572-5.617a1.643,1.643,0,0,1,2.156.357c1.826,1.689,3.715,3.31,5.548,4.992a2.8,2.8,0,0,0,2.019.8c6.077-.027,12.153-.014,18.23-.007.728,0,1.511.055,1.854-.748.357-.838-.185-1.421-.762-1.971q-3.461-3.255-6.887-6.53a2.358,2.358,0,0,0-1.82-.659C129.756,21.764,125.622,21.757,121.489,21.757Zm2.417-1.051H136.32a2.976,2.976,0,0,0,1.353-.206q7.24-3.45,14.5-6.859a1.383,1.383,0,0,0,.893-1.614c-.137-.762-.714-.954-1.414-.954-2.108.007-4.223.007-6.331-.014a2.948,2.948,0,0,0-1.3.364c-4.127,1.923-8.26,3.824-12.366,5.788a1.144,1.144,0,0,1-1.531-.192c-1.84-1.737-3.742-3.413-5.582-5.15a2.587,2.587,0,0,0-1.9-.817q-9.434.021-18.875.014c-.748,0-1.435.076-1.717.941-.254.79.227,1.263.721,1.723,2.2,2.039,4.408,4.058,6.585,6.118a3.181,3.181,0,0,0,2.383.886C115.8,20.686,119.854,20.706,123.906,20.706ZM24.641,14.9c.041.137.076.192.062.22-.618,1.092-1.243,2.183-1.847,3.282-.776,1.414-.282,2.314,1.3,2.321,5.191.014,10.382-.007,15.579.021a1.843,1.843,0,0,0,1.758-.975c.79-1.332,1.614-2.65,2.355-4.01a1.525,1.525,0,0,1,1.593-.872c3.248.055,6.5.034,9.75.021A2.446,2.446,0,0,0,57.5,12.426c-.076-1.36-1.1-1.332-2.108-1.332q-18.992.01-37.991,0c-.467,0-.934-.027-1.394.007a2.505,2.505,0,0,0-1.9,2.444c.117,1.133.913,1.373,1.9,1.366C18.859,14.884,21.729,14.9,24.641,14.9ZM73.322,31.644h0c5.15-.007,10.3,0,15.449-.007a2.451,2.451,0,0,0,2.28-2.348c.034-1.016-.625-1.463-2.156-1.463H70.912c-1.579,0-1.888-.46-1.25-1.916a15.986,15.986,0,0,1,.783-1.428c.845-1.483.419-2.383-1.263-2.4-5.273-.041-10.553-.027-15.827,0a1.861,1.861,0,0,0-1.977,1.572A5.8,5.8,0,0,0,53.9,30.244a8.735,8.735,0,0,0,4.731,1.408Q65.979,31.651,73.322,31.644ZM89.176,14.87V14.8c3.083,0,6.159.007,9.242-.007a2.8,2.8,0,0,0,2.492-2.609c-.11-1.511-1.332-1.126-2.225-1.126q-13.605-.031-27.218-.014a23.077,23.077,0,0,0-5.486.549,22.133,22.133,0,0,0-11.336,6.372,1.867,1.867,0,0,0-.68,2.012c.33.858,1.112.742,1.833.742,5.06,0,10.128-.034,15.188.027a2.415,2.415,0,0,0,2.568-1.689c1.085-2.465,2.925-4.113,5.768-4.168C82.6,14.822,85.887,14.87,89.176,14.87ZM29.79,22.258h0c-2.575-.007-5.157.014-7.731-.021a1.832,1.832,0,0,0-1.82,1.071C19.086,25.4,17.87,27.456,16.7,29.536c-.8,1.442-.268,2.376,1.366,2.383,4.9.014,9.8-.021,14.7.021a2.755,2.755,0,0,0,2.657-1.552c1.105-1.971,2.232-3.934,3.33-5.912.783-1.408.282-2.211-1.366-2.218C34.858,22.251,32.324,22.258,29.79,22.258Z" transform="translate(-11.004 -7.97)" fill="#030303"/><path d="M161.753,29.961c4.01,0,8.027.021,12.036-.014a2.4,2.4,0,0,1,1.888.742c2.074,2.046,4.216,4.024,6.317,6.035.261.254.742.481.625.872-.137.467-.659.227-1,.227-6.042.014-12.078-.007-18.12.014a1.835,1.835,0,0,1-1.325-.549c-2.074-1.861-4.188-3.673-6.241-5.555a1.3,1.3,0,0,0-1.662-.275c-4.429,1.991-8.905,3.879-13.314,5.932a8.9,8.9,0,0,1-3.57.426c-.968.055-1.943.014-2.911.007-.24,0-.542.076-.659-.22-.137-.343.124-.563.35-.735a3.429,3.429,0,0,1,.68-.323c4.381-2.094,8.768-4.182,13.142-6.3a3.469,3.469,0,0,1,1.593-.282Q155.673,29.958,161.753,29.961Z" transform="translate(-51.275 -15.178)" fill="#ce0b12"/><path d="M168.791,21.6c-4.051,0-8.1-.021-12.16.014a2.5,2.5,0,0,1-1.9-.762c-2.046-1.95-4.14-3.852-6.207-5.774-.24-.22-.618-.426-.5-.81.137-.446.59-.4.961-.4,6.118-.007,12.242,0,18.36-.014a1.868,1.868,0,0,1,1.332.6c1.95,1.806,3.927,3.584,5.857,5.411a1.535,1.535,0,0,0,2.053.357c3.989-1.943,8.061-3.708,12.036-5.672,1.62-.8,3.261-.652,4.93-.687.927-.014,1.854-.007,2.788.014.247.007.536.048.6.343.076.323-.233.419-.446.522-1.167.563-2.348,1.105-3.522,1.668-3.282,1.566-6.571,3.124-9.846,4.7a5.094,5.094,0,0,1-2.307.494C176.811,21.579,172.8,21.6,168.791,21.6Z" transform="translate(-55.938 -9.9)" fill="#ce0b12"/><path d="M38.182,14.054c6.331,0,12.668-.014,19,.027.426,0,1.311-.474,1.263.439a1.318,1.318,0,0,1-1.476,1.346c-2.911-.062-5.836.124-8.734-.076a3.274,3.274,0,0,0-3.612,2.087c-.645,1.3-1.27,2.966-2.389,3.591s-2.87.2-4.346.206c-3.8.007-7.6-.021-11.4.021-.968.014-1.126-.206-.625-1.037.714-1.181,1.346-2.41,2.032-3.612.46-.817.364-1.222-.7-1.208-3,.034-5.994.021-8.995,0-.35,0-.968.288-1-.391a1.284,1.284,0,0,1,.851-1.38,3.275,3.275,0,0,1,1.009-.048H38.188A.062.062,0,0,0,38.182,14.054Z" transform="translate(-13.037 -9.934)" fill="#ce0b12"/><path d="M90.081,30.571a27.451,27.451,0,0,0-1.353,2.705c-.68,1.861.11,2.952,2.087,2.966,2.534.014,5.067.007,7.6,0,3.5-.007,7.01-.034,10.512-.007.405,0,1.208-.316,1.112.536-.069.611-.282,1.284-1.236,1.277-10.258-.027-20.523.13-30.781-.089-3.941-.082-5.946-2.726-5.761-5.678.1-1.538.288-1.7,1.84-1.7h14.57C89.085,30.571,89.49,30.571,90.081,30.571Z" transform="translate(-31.093 -15.383)" fill="#ce0b12"/><path d="M105.242,13.852c5.651,0,10.251-.007,14.852.014.405,0,1.154-.275,1.14.33a1.413,1.413,0,0,1-1.174,1.565,7.625,7.625,0,0,1-.886.007c-5.912,0-11.824.027-17.735-.007a7.437,7.437,0,0,0-7.306,4.751,1.649,1.649,0,0,1-1.785,1.14c-4.985-.048-9.963-.014-14.948-.034-.343,0-.838.233-1.023-.2-.179-.412.254-.666.508-.927A20.818,20.818,0,0,1,90.6,14.044C95.807,13.55,101.053,14,105.242,13.852Z" transform="translate(-32.432 -9.883)" fill="#ce0b12"/><path d="M41.317,30.906c-1.291,2.28-2.582,4.566-3.893,6.846a1.345,1.345,0,0,1-1.3.611q-7.416,0-14.824.007c-.769,0-1.023-.2-.584-.954,1.174-2.032,2.307-4.092,3.461-6.138a1.06,1.06,0,0,1,1.016-.6c5.28.027,10.553.034,15.834.048C41.091,30.728,41.152,30.8,41.317,30.906Z" transform="translate(-14.12 -15.416)" fill="#ce0b12"/></g></g></g></svg>