<svg xmlns="http://www.w3.org/2000/svg" xmlns:xlink="http://www.w3.org/1999/xlink" width="168" height="67" viewBox="0 0 168 67"><defs><clipPath id="a"><rect width="168" height="67" transform="translate(-0.016)" fill="#fff"/></clipPath></defs><g transform="translate(0.016)" clip-path="url(#a)"><g transform="translate(27.479 6.505)"><g transform="translate(0 0)"><path d="M114.2,3.269a2.153,2.153,0,0,1-.475.522c-3.224,3.183-6.391,6.428-9.589,9.636q-4.038,4.054-8.071,8.113a.594.594,0,0,0-.057.057,2.879,2.879,0,0,1-1.664.929q-9,2.536-17.994,5.1a.178.178,0,0,1-.141-.016c5.04-5.426,10.08-10.852,15.182-16.34H62.816V11.2l2.729-.407q4.093-.618,8.191-1.242L80.8,8.471q4.257-.657,8.515-1.31,4.351-.673,8.7-1.341l9.845-1.534c2-.313,4-.637,5.995-.955.063-.01.13-.005.177-.057C114.091,3.269,114.148,3.269,114.2,3.269Z" transform="translate(-25.814 -3.269)" fill="#ec1d24"/><path d="M181.057,65.245c-.063.094-.125.193-.193.287a1.148,1.148,0,0,1-1.915-.042q-1.941-2.919-3.876-5.843a1.158,1.158,0,0,1-.063-1.3,1.063,1.063,0,0,1,1.085-.569,1.113,1.113,0,0,1,.83.49q1.988,2.958,3.96,5.922a3.47,3.47,0,0,1,.177.339C181.057,64.765,181.057,65.005,181.057,65.245Z" transform="translate(-67.403 -23.502)" fill="#ec1d24"/><path d="M39.6,64.042v.313c0,1.889-.005,3.777,0,5.666a1.746,1.746,0,0,1-.981,1.711,1.817,1.817,0,0,1-2.113-.172c-.13-.1-.188-.094-.313.01a1.883,1.883,0,0,1-2.869-.407q-.736-1.119-1.456-2.243a.409.409,0,0,0-.4-.219c-2.045.005-4.09.01-6.135,0a.455.455,0,0,0-.464.282c-.277.537-.558,1.075-.861,1.6A2.7,2.7,0,0,1,22.1,72.014a1.725,1.725,0,0,1-1.586-.506c-.1-.1-.151-.125-.277-.016a1.915,1.915,0,0,1-1.31.5q-6.5,0-12.991,0A1.864,1.864,0,0,1,4.1,70.7a1.8,1.8,0,0,1,.344-1.91,5,5,0,0,1,.84-.673Q9.136,65.205,13,62.294c.042-.031.083-.068.141-.115a.56.56,0,0,0-.3-.031q-3.5,0-6.991.01a1.935,1.935,0,1,1,.177-3.866c4.283.026,8.572.01,12.855.01a1.943,1.943,0,0,1,1.195,3.537l-7.982,6.01c-.094.073-.188.141-.282.214.047.089.12.052.177.052,2.212.01,4.424.026,6.631.016a2.334,2.334,0,0,1,1.763.579,17.625,17.625,0,0,1,1.816-2.65,3.472,3.472,0,0,0,.2-.329,1.683,1.683,0,0,1,1.623-.835c1.226.021,2.452.01,3.678.01a11.28,11.28,0,0,0,1.45-.031c0-.1-.073-.162-.12-.23-.725-1.085-1.456-2.165-2.176-3.256a1.976,1.976,0,0,1,.678-2.88,1.875,1.875,0,0,1,2.463.663q2.082,3.115,4.163,6.235c.532.793,1.059,1.586,1.638,2.447V60.066A1.74,1.74,0,0,1,37,58.344a1.7,1.7,0,0,1,1.513.282l10.033,7.356c.078.057.162.115.256.183.073-.1.037-.2.037-.292,0-1.831.031-3.668-.01-5.5a1.99,1.99,0,0,1,1.633-2,1.884,1.884,0,0,1,2.113,1.21c.016.031.031.063.052.1a2.1,2.1,0,0,1,2.035-1.367c3.412,0,6.819-.037,10.226.016A4.438,4.438,0,0,1,69.265,61.3c.115-.01.1-.125.125-.188a4.323,4.323,0,0,1,4.283-2.786c2.478-.021,4.956,0,7.435-.005a5.175,5.175,0,0,1,3.866,1.664c.031-.151.057-.3.1-.443a1.655,1.655,0,0,1,2.656-.9q3.107,2.277,6.209,4.555,1.988,1.463,3.981,2.922c.026.021.057.037.13.083V60.322a1.933,1.933,0,1,1,3.866.005c.01,2.15,0,4.294,0,6.443V67.1a11.739,11.739,0,0,0,.918-1.231,1.746,1.746,0,0,1,1.748-.95c1.033.031,2.066.01,3.094.005.652-.005,1.3.031,2.009-.031-.271-.407-.527-.793-.783-1.174-.527-.788-1.064-1.565-1.576-2.363a1.982,1.982,0,0,1,1.137-3.005,1.931,1.931,0,0,1,2.035.835c1.184,1.763,2.358,3.532,3.537,5.3,1,1.5,2,2.989,3,4.492a2.011,2.011,0,0,1,.026,2.233,1.92,1.92,0,0,1-3.256-.078c-.475-.741-.96-1.476-1.435-2.223a.372.372,0,0,0-.355-.193c-2.071.005-4.148.005-6.219,0a.35.35,0,0,0-.365.209c-.3.579-.6,1.158-.929,1.716a2.658,2.658,0,0,1-1.915,1.393,1.719,1.719,0,0,1-1.283-.282.234.234,0,0,0-.292-.026,1.809,1.809,0,0,1-2.019-.177q-4.962-3.639-9.913-7.294c-.073-.052-.146-.11-.266-.2v5.958a1.866,1.866,0,0,1-1.675,1.951,1.928,1.928,0,0,1-2.123-1.508c-.01-.042-.016-.078-.031-.146a4.358,4.358,0,0,1-3.047,1.67,2.317,2.317,0,0,1-.329.021c-2.7,0-5.4-.01-8.1.005a4.381,4.381,0,0,1-4.1-2.77c-.037-.1-.083-.2-.136-.329a4.565,4.565,0,0,1-1.664,2.3,4.325,4.325,0,0,1-2.5.793c-3.454.01-6.913,0-10.367.005a1.96,1.96,0,0,1-2.035-1.289.471.471,0,0,0-.073-.1,1.72,1.72,0,0,1-1.1,1.226,1.864,1.864,0,0,1-1.748-.3q-4.414-3.24-8.822-6.5C40.528,64.725,40.09,64.4,39.6,64.042ZM60.364,69.5c1.3,0,2.6-.005,3.9.005a2.974,2.974,0,0,0,1.127-.2,2.15,2.15,0,0,0,1.372-1.972c.01-1.388.016-2.781.026-4.169A2.274,2.274,0,0,0,64.418,60.8c-2.708-.021-5.416-.01-8.123-.005a.959.959,0,0,0-1.043,1.023q-.008,3.342,0,6.689a.928.928,0,0,0,1.023,1Q58.324,69.5,60.364,69.5Zm17.128-.089c1.158,0,2.322-.021,3.48.005a2.166,2.166,0,0,0,2.259-2.249c0-1.346.021-2.692-.005-4.033a2.115,2.115,0,0,0-2.181-2.223c-2.405-.052-4.81-.037-7.21-.005a2.019,2.019,0,0,0-2.024,2.076c-.021,1.445-.01,2.89-.005,4.341a2.054,2.054,0,0,0,2.1,2.092C75.1,69.421,76.3,69.415,77.492,69.415Z" transform="translate(-3.964 -23.691)" fill="#010101"/><path d="M44.361,42.073c.412-.417.783-.788,1.153-1.158q2.09-2.09,4.179-4.184c1.049-1.054,2.087-2.113,3.13-3.162q4.429-4.461,8.864-8.921c.475-.475.96-.939,1.435-1.414a.662.662,0,0,1,.308-.167l18.819-5.337c.042-.01.083-.026.209-.063-5.1,5.483-10.137,10.909-15.24,16.4H95.7c0,.031.005.057.005.089Q70.066,38.04,44.361,42.073Z" transform="translate(-18.962 -8.614)" fill="#ec1d24"/><path d="M163.371,83.815c.412,0,.83-.005,1.242,0a.809.809,0,0,1,.83.73c.021.183-.037.318-.219.355s-.282-.083-.3-.245c-.026-.25-.172-.313-.4-.313-.793.005-1.586,0-2.379,0h-.11a.424.424,0,0,0-.428.417.393.393,0,0,0,.428.381c.329.016.663.005,1,.005.454,0,.9-.005,1.356,0a1.025,1.025,0,0,1,1.064,1.007,1,1,0,0,1-1.033,1.059c-.84.016-1.675.01-2.515,0a.8.8,0,0,1-.809-.725c-.021-.172.01-.329.2-.36s.292.052.318.25c.026.219.157.308.381.308.793-.005,1.586,0,2.379-.005.36,0,.548-.183.548-.511s-.188-.49-.558-.49c-.746,0-1.492.005-2.238,0a.938.938,0,1,1-.026-1.868C162.526,83.809,162.948,83.815,163.371,83.815Z" transform="translate(-62.301 -33.171)" fill="#ec1d24"/><path d="M156.017,83.815c.423,0,.845-.01,1.273.005a.8.8,0,0,1,.814.8c0,.162-.068.271-.23.287a.233.233,0,0,1-.277-.24c-.021-.271-.183-.323-.417-.323-.793.005-1.586,0-2.374,0a.574.574,0,0,0-.344.083.371.371,0,0,0-.172.433.429.429,0,0,0,.454.292c.59.005,1.179,0,1.769,0h.527a1,1,0,0,1,1.064.991.981.981,0,0,1-1.033,1.075c-.637.016-1.273.005-1.9.005-.214,0-.423.01-.637-.005a.79.79,0,0,1-.762-.819c.01-.141.047-.261.214-.271.151-.01.271.031.292.214.026.261.172.355.433.35.762-.01,1.529,0,2.3-.005.391,0,.605-.188.6-.522-.005-.313-.214-.48-.605-.48-.736,0-1.471.005-2.212,0a.932.932,0,0,1-1.007-.965.917.917,0,0,1,.981-.9C155.167,83.8,155.595,83.815,156.017,83.815Z" transform="translate(-59.58 -33.171)" fill="#ec1d24"/><path d="M68.667,83.818H69.8a.981.981,0,0,1,1.028.934,9.538,9.538,0,0,1,0,1.544.982.982,0,0,1-1.028.939c-.757.005-1.508.005-2.264,0a1.009,1.009,0,0,1-1.064-1.049c-.01-.443-.01-.882,0-1.325a.993.993,0,0,1,1.064-1.038C67.915,83.818,68.291,83.818,68.667,83.818Zm-.031.543H67.5a.437.437,0,0,0-.49.47c-.01.459-.01.918,0,1.383a.474.474,0,0,0,.517.485c.746,0,1.492.005,2.238,0a.473.473,0,0,0,.537-.522q.016-.65,0-1.3c-.005-.35-.183-.511-.537-.511C69.387,84.355,69.011,84.36,68.635,84.36Z" transform="translate(-27.167 -33.174)" fill="#010101"/><path d="M115.74,87.233c-.376,0-.757.005-1.132,0a.978.978,0,0,1-1.017-1.028V84.8a.955.955,0,0,1,.97-.981q1.174-.008,2.348,0a1.014,1.014,0,0,1,1.038,1.017q.016.689,0,1.377a1.024,1.024,0,0,1-1.043,1.017C116.512,87.238,116.126,87.233,115.74,87.233Zm.005-2.875h-1.132c-.313,0-.49.141-.5.454q-.023.7,0,1.409a.452.452,0,0,0,.5.47c.757.005,1.508.005,2.264,0a.484.484,0,0,0,.527-.532c.005-.423.005-.845,0-1.273a.474.474,0,0,0-.527-.527C116.5,84.353,116.126,84.358,115.745,84.358Z" transform="translate(-44.664 -33.172)" fill="#010101"/><path d="M172.118,83.816c.386,0,.772-.005,1.158,0a1.008,1.008,0,0,1,1.049,1.07c0,.433.005.866,0,1.3a.986.986,0,0,1-1.023,1.033c-.772.01-1.55.01-2.322,0a.972.972,0,0,1-1-1c-.01-.48-.01-.96,0-1.435a.974.974,0,0,1,1-.97C171.362,83.811,171.742,83.816,172.118,83.816Zm0,2.875c.376,0,.757.005,1.132,0a.5.5,0,0,0,.569-.558c.01-.407.005-.809,0-1.216-.005-.391-.193-.569-.584-.574h-2.212a.45.45,0,0,0-.517.5c-.005.449-.01.9,0,1.351a.452.452,0,0,0,.506.49C171.382,86.7,171.753,86.691,172.118,86.691Z" transform="translate(-65.596 -33.172)" fill="#ec1d24"/><path d="M60.917,83.818h1.356a1.023,1.023,0,0,1,.95,1.487.3.3,0,0,0,.063.386,1.737,1.737,0,0,1,.214,1.346.231.231,0,0,1-.271.188.26.26,0,0,1-.25-.277c-.005-.193,0-.386,0-.579a.429.429,0,0,0-.47-.485c-.877-.005-1.753,0-2.624-.005-.151,0-.214.042-.209.2.01.266-.005.532.005.8.005.2-.083.339-.277.339s-.256-.136-.25-.329c.01-.407.01-.809,0-1.216-.005-.256.115-.339.35-.339.9.005,1.805,0,2.708.005a.5.5,0,0,0,.537-.3.479.479,0,0,0-.485-.689c-.887-.005-1.769,0-2.656,0a.955.955,0,0,1-.245-.016.253.253,0,0,1-.209-.308.238.238,0,0,1,.266-.219Z" transform="translate(-24.452 -33.174)" fill="#010101"/><path d="M130.114,83.818h1.351a1.036,1.036,0,0,1,.944,1.529c-.057.12-.089.193.037.3a.891.891,0,0,1,.271.642c.01.209,0,.423.005.636,0,.193-.1.308-.282.3a.259.259,0,0,1-.256-.3q.008-.29,0-.579a.428.428,0,0,0-.464-.464c-.882-.005-1.769,0-2.65-.005-.151,0-.188.057-.188.193.01.277,0,.553.005.83a.272.272,0,0,1-.271.318c-.183.005-.256-.13-.256-.318.01-.407.01-.809,0-1.216-.01-.256.1-.344.344-.344.9.005,1.805,0,2.708.005a.5.5,0,0,0,.553-.318.475.475,0,0,0-.485-.668c-.882-.005-1.769,0-2.65,0a.94.94,0,0,1-.271-.026.24.24,0,0,1-.188-.292.232.232,0,0,1,.261-.224Z" transform="translate(-50.148 -33.174)" fill="#010101"/><path d="M90.2,83.815c.443,0,.882-.01,1.325,0a.8.8,0,0,1,.814.767c.005.183-.057.313-.25.329a.257.257,0,0,1-.287-.271c-.005-.245-.157-.287-.35-.287-.84,0-1.675-.005-2.515,0a.437.437,0,0,0-.47.464c-.016.485-.01.976,0,1.466a.4.4,0,0,0,.433.4c.845.005,1.7.005,2.541,0a.275.275,0,0,0,.313-.271c.016-.193.1-.323.313-.3s.219.183.219.35a.765.765,0,0,1-.814.757c-.845.01-1.7.016-2.541,0a.946.946,0,0,1-1-1.059c0-.412-.005-.83,0-1.242a1.023,1.023,0,0,1,1.111-1.111C89.429,83.815,89.815,83.815,90.2,83.815Z" transform="translate(-35.137 -33.171)" fill="#010101"/><path d="M53.773,85.349c.48,0,.96.005,1.435,0,.381-.005.548-.162.548-.5s-.162-.49-.543-.49H52.422a.947.947,0,0,1-.245-.01c-.141-.042-.25-.12-.235-.292a.243.243,0,0,1,.282-.235h2.984a1.034,1.034,0,1,1,.016,2.066c-.809.01-1.623.01-2.431-.005-.245-.005-.344.052-.318.313a6.619,6.619,0,0,1,.005.72c0,.183-.094.313-.277.313s-.266-.13-.266-.313c.005-.407.01-.809,0-1.216-.005-.245.089-.355.339-.35C52.777,85.354,53.278,85.349,53.773,85.349Z" transform="translate(-21.775 -33.177)" fill="#010101"/><path d="M181.243,86.409V84.536c0-.136-.005-.277,0-.412.005-.167.083-.292.256-.3a.253.253,0,0,1,.266.287c.005.939.01,1.878-.005,2.817-.005.282-.188.35-.433.167q-1.526-1.119-3.047-2.238c-.1-.073-.2-.151-.308-.224-.089.063-.052.146-.052.209-.005.683-.005,1.362,0,2.045,0,.188-.063.318-.25.323s-.25-.136-.25-.323c.005-.929.005-1.863,0-2.791,0-.1-.01-.214.094-.271s.209.01.3.078c1.007.741,2.019,1.482,3.026,2.223C180.961,86.206,181.076,86.289,181.243,86.409Z" transform="translate(-68.361 -33.167)" fill="#ec1d24"/><path d="M141.522,83.815H142.9a1.031,1.031,0,1,1-.01,2.056c-.819,0-1.638.005-2.457-.005-.2-.005-.282.042-.261.256.021.256,0,.517.005.772.005.188-.078.313-.271.308s-.256-.151-.256-.323c0-.4.005-.793,0-1.19-.005-.245.1-.344.35-.344.965.005,1.936,0,2.9.005a.513.513,0,0,0,.558-.313.492.492,0,0,0-.516-.694c-.929-.005-1.863,0-2.791,0a1.537,1.537,0,0,1-.219-.005c-.167-.021-.282-.11-.266-.287a.255.255,0,0,1,.287-.24C140.474,83.815,141,83.815,141.522,83.815Z" transform="translate(-54.341 -33.171)" fill="#ec1d24"/><path d="M123.1,87.229c-.37,0-.736.005-1.106,0a1.031,1.031,0,0,1-1.1-1.111V84.182c0-.2.042-.36.271-.37s.271.167.271.36c-.005.647,0,1.289,0,1.936,0,.407.172.574.59.579h2.1c.449,0,.605-.157.61-.616.005-.636,0-1.273,0-1.9,0-.146.005-.282.167-.344.2-.073.36.052.365.308.01.49.005.976.005,1.466,0,.23,0,.459-.021.689a.985.985,0,0,1-1.023.944C123.859,87.234,123.479,87.229,123.1,87.229Z" transform="translate(-47.378 -33.168)" fill="#010101"/><path d="M82.986,88.021H81.218c-.323,0-.412-.089-.412-.4v-1.3c0-.292.083-.386.37-.386h3.229c.188,0,.365.031.37.266.005.25-.177.287-.381.287-.939,0-1.878.005-2.817-.005-.183,0-.266.031-.245.235.021.245-.078.569.047.72s.464.047.71.047q1.338.008,2.676,0c.193,0,.391-.005.391.261s-.2.287-.412.287C84.165,88.021,83.576,88.021,82.986,88.021Z" transform="translate(-32.493 -33.959)" fill="#010101"/><path d="M149.511,85.7c-.3-.443-.59-.877-.876-1.315a.883.883,0,0,1-.125-.214.251.251,0,0,1,.115-.334.234.234,0,0,1,.334.094c.172.25.339.5.511.757l1.346,2.019c.115.172.188.339-.021.475s-.318-.016-.417-.172c-.167-.256-.287-.605-.522-.725a2.241,2.241,0,0,0-.923-.042c-.386,0-.772.005-1.158-.005a.263.263,0,0,0-.266.146c-.136.23-.292.449-.433.673-.1.151-.219.235-.386.125s-.13-.256-.031-.407c.188-.287.37-.569.543-.866a.3.3,0,0,1,.313-.167c.652.005,1.31,0,1.962-.005Z" transform="translate(-56.909 -33.168)" fill="#ec1d24"/><path d="M97.32,83.818h1.852c.177,0,.318.037.323.245s-.136.292-.318.3c-.459.005-.923.01-1.383,0-.167-.005-.219.042-.219.214.01.757,0,1.513.005,2.264,0,.2-.037.4-.277.391-.219-.005-.245-.193-.245-.386.005-.756-.005-1.513.005-2.264,0-.167-.037-.219-.209-.214-.443.016-.882.005-1.325.005-.2,0-.391-.042-.386-.287s.183-.256.376-.256C96.125,83.823,96.72,83.818,97.32,83.818Z" transform="translate(-37.816 -33.174)" fill="#010101"/><path d="M75.81,83.815c.61,0,1.216.005,1.826,0,.183,0,.313.047.323.245.01.219-.141.287-.323.292-.433.01-.866.016-1.3,0-.23-.01-.313.037-.308.292.021.72.005,1.435.01,2.155,0,.2,0,.428-.266.417-.235-.005-.256-.209-.256-.412.005-.725-.005-1.456.005-2.181.005-.2-.031-.287-.261-.277-.423.021-.845.005-1.273.005-.2,0-.391-.057-.386-.287s.183-.256.381-.256C74.594,83.82,75.2,83.815,75.81,83.815Z" transform="translate(-29.818 -33.171)" fill="#010101"/><path d="M108.355,86.273c.13-.391-.11-.678-.475-.939-.433-.308-.824-.678-1.242-1.007-.157-.125-.256-.261-.11-.433s.308-.094.459.026c.5.4,1,.788,1.487,1.195.136.115.219.125.36.005.464-.391.939-.767,1.414-1.153.157-.125.313-.261.5-.078.151.146.094.3-.146.5-.511.407-1.017.819-1.534,1.221a.379.379,0,0,0-.172.344c.016.313,0,.626.005.939.005.188-.073.323-.25.329-.193.005-.287-.141-.287-.334C108.355,86.711,108.355,86.534,108.355,86.273Z" transform="translate(-42.016 -33.167)" fill="#010101"/><path d="M83.016,83.818c.61,0,1.216.005,1.826,0,.193,0,.334.042.339.261s-.157.282-.334.282q-1.839.008-3.673,0c-.183,0-.344-.068-.344-.271,0-.219.167-.271.37-.266C81.8,83.823,82.406,83.818,83.016,83.818Z" transform="translate(-32.502 -33.174)" fill="#010101"/><path d="M168.586,85.506v-1.3c0-.188.026-.376.256-.381s.266.177.266.365c0,.882-.005,1.769,0,2.65,0,.2-.042.37-.266.365s-.261-.188-.261-.381C168.586,86.393,168.586,85.949,168.586,85.506Z" transform="translate(-65.08 -33.177)" fill="#ec1d24"/></g></g></g></svg>